<?xml version="1.0" standalone="no"?>
<!DOCTYPE svg PUBLIC "-//W3C//DTD SVG 20010904//EN"
 "http://www.w3.org/TR/2001/REC-SVG-20010904/DTD/svg10.dtd">
<svg version="1.0" xmlns="http://www.w3.org/2000/svg"
 width="185.000000pt" height="212.000000pt" viewBox="0 0 185.000000 212.000000"
 preserveAspectRatio="xMidYMid meet">
<metadata>
Created by potrace 1.16, written by Peter Selinger 2001-2019
</metadata>
<g transform="translate(0.000000,212.000000) scale(0.100000,-0.100000)"
fill="#000000" stroke="none">
<path d="M0 2099 c0 -19 4 -20 48 -16 132 15 152 37 32 37 -75 0 -80 -1 -80
-21z"/>
<path d="M270 2083 c-3 -23 -2 -39 3 -34 5 5 7 24 5 42 -3 33 -4 33 -8 -8z"/>
<path d="M1593 2057 c10 -110 16 -114 155 -109 94 4 102 5 102 24 0 19 -6 20
-112 17 -113 -4 -113 -4 -109 64 3 64 2 67 -19 67 -22 0 -23 -3 -17 -63z"/>
<path d="M735 2020 c-80 -6 -80 -6 3 -8 49 -1 82 2 82 8 0 6 -1 9 -2 8 -2 -1
-39 -5 -83 -8z"/>
<path d="M900 2020 c0 -6 7 -10 15 -10 8 0 15 2 15 4 0 2 -7 6 -15 10 -8 3
-15 1 -15 -4z"/>
<path d="M960 2020 c0 -5 5 -10 11 -10 5 0 7 5 4 10 -3 6 -8 10 -11 10 -2 0
-4 -4 -4 -10z"/>
<path d="M1507 2024 c-3 -3 -100 -6 -216 -5 -115 1 -212 -2 -214 -6 -3 -5 107
-9 244 -10 187 -1 249 2 249 11 0 12 -52 21 -63 10z"/>
<path d="M843 2013 c9 -2 23 -2 30 0 6 3 -1 5 -18 5 -16 0 -22 -2 -12 -5z"/>
<path d="M1028 2013 c6 -2 18 -2 25 0 6 3 1 5 -13 5 -14 0 -19 -2 -12 -5z"/>
<path d="M184 1978 c-4 -6 -25 -8 -54 -5 -42 5 -50 3 -74 -22 -42 -44 -33
-131 14 -131 9 0 21 -5 28 -12 16 -16 65 -19 74 -5 4 7 8 26 8 43 0 59 12 94
30 94 10 0 23 7 30 15 10 12 15 13 21 4 12 -20 -2 -40 -25 -37 -17 2 -22 -3
-24 -29 -4 -37 7 -43 25 -14 7 11 23 21 35 23 13 2 22 6 21 11 -2 4 -3 22 -3
40 0 32 -1 32 -50 34 -27 1 -52 -3 -56 -9z"/>
<path d="M933 1760 c-41 -24 -55 -52 -51 -98 2 -29 10 -41 37 -59 47 -32 93
-30 133 6 27 24 33 36 33 71 0 35 -6 47 -33 71 -38 34 -74 37 -119 9z"/>
<path d="M223 1736 c-15 -17 -28 -23 -43 -19 -12 3 -28 -1 -39 -11 -10 -9 -25
-16 -32 -14 -18 4 -24 -39 -9 -57 18 -22 69 -45 86 -38 9 3 14 -2 14 -15 0
-11 5 -22 10 -24 16 -5 18 -179 3 -185 -7 -3 -13 -16 -13 -28 0 -13 -5 -25
-11 -27 -9 -3 -9 -9 -1 -24 15 -28 4 -64 -19 -64 -17 0 -19 -8 -19 -65 0 -51
3 -65 15 -65 10 0 15 10 15 31 0 17 4 28 10 24 13 -8 13 -75 0 -75 -6 0 -10
-53 -10 -140 0 -118 -2 -140 -15 -140 -12 0 -15 -14 -15 -70 0 -65 1 -70 23
-70 182 -6 229 -9 270 -19 60 -14 104 -7 166 28 70 39 85 53 104 94 10 20 22
37 27 37 6 0 10 9 10 19 0 11 5 23 10 26 6 3 10 19 10 34 0 15 5 32 11 38 7 7
7 31 -1 79 -6 38 -12 79 -14 92 -1 12 -11 28 -21 36 -12 9 -15 15 -7 20 19 12
14 25 -17 41 -16 8 -32 23 -35 32 -8 23 -77 72 -102 72 -186 2 -184 2 -214
-19 -38 -27 -30 -40 24 -40 24 0 57 -7 72 -15 16 -8 45 -15 66 -15 28 0 42 -7
62 -31 26 -30 30 -44 26 -86 -1 -13 4 -23 10 -23 8 0 10 8 7 21 -3 13 -1 19 6
16 7 -2 13 -23 15 -46 2 -29 0 -41 -7 -36 -7 4 -11 -4 -11 -20 0 -20 4 -26 15
-21 20 7 20 -20 0 -58 -8 -15 -15 -34 -15 -42 0 -18 -41 -77 -89 -129 -36 -39
-43 -43 -100 -47 -34 -2 -61 -1 -61 3 0 4 -19 25 -42 47 -45 43 -46 49 -67
227 -9 75 3 159 26 186 20 24 16 76 -8 100 -20 20 -21 29 -17 193 1 96 8 179
13 187 6 8 10 37 10 64 -1 48 -2 50 -31 53 -21 2 -35 -4 -51 -22z"/>
<path d="M1465 1333 c-23 -20 -87 -34 -126 -28 -50 9 -69 -6 -69 -51 0 -25 4
-34 16 -34 13 0 15 -6 10 -32 -4 -18 -9 -44 -12 -58 -2 -14 -9 -37 -15 -52 -7
-16 -8 -39 -4 -55 5 -16 9 -69 10 -119 1 -84 4 -95 37 -155 60 -107 120 -149
212 -149 98 0 166 48 166 115 0 34 -27 45 -107 42 -62 -2 -74 1 -106 25 -24
19 -41 43 -52 78 -9 27 -21 52 -26 55 -11 7 -12 85 -1 85 4 0 16 14 25 30 18
30 18 30 115 30 88 0 145 11 180 33 8 5 12 33 11 80 -1 83 -22 132 -58 132
-12 0 -26 7 -31 14 -10 17 -159 28 -175 14z m148 -82 c32 -12 51 -61 43 -106
-6 -32 -10 -35 -29 -28 -12 4 -56 7 -97 8 -64 0 -75 3 -78 18 -7 35 19 75 61
96 47 23 64 25 100 12z"/>
<path d="M975 1281 c-116 -39 -129 -66 -64 -144 44 -52 44 -52 42 -232 -3
-182 -15 -328 -34 -399 -6 -21 -29 -59 -54 -85 -23 -25 -50 -63 -59 -85 -15
-36 -15 -39 5 -68 18 -25 26 -28 53 -23 40 8 146 116 179 182 40 81 47 129 52
388 3 138 8 293 11 346 6 96 6 96 -21 117 -32 25 -43 26 -110 3z"/>
<path d="M8 1223 c7 -3 16 -2 19 1 4 3 -2 6 -13 5 -11 0 -14 -3 -6 -6z"/>
<path d="M355 1143 c25 -64 36 -136 32 -223 -2 -52 -7 -106 -12 -119 -8 -23
-8 -23 19 -6 26 17 26 18 26 141 0 71 -4 125 -10 129 -5 3 -10 21 -10 39 0 34
-15 56 -38 56 -9 0 -12 -6 -7 -17z"/>
<path d="M1822 1085 c-15 -56 -15 -148 -1 -215 19 -90 29 -54 29 105 0 85 -4
155 -8 155 -4 0 -13 -20 -20 -45z"/>
<path d="M0 1046 c0 -2 7 -7 16 -10 8 -3 12 -2 9 4 -6 10 -25 14 -25 6z"/>
<path d="M1427 1023 c-3 -7 -3 -34 2 -116 1 -5 6 -5 11 -2 13 8 13 125 1 125
-6 0 -12 -3 -14 -7z"/>
<path d="M8 853 c7 -3 16 -2 19 1 4 3 -2 6 -13 5 -11 0 -14 -3 -6 -6z"/>
<path d="M1460 844 c0 -8 5 -12 10 -9 6 4 8 11 5 16 -9 14 -15 11 -15 -7z"/>
<path d="M0 655 c0 -56 6 -63 40 -45 15 8 17 15 10 41 -10 34 -27 59 -41 59
-5 0 -9 -25 -9 -55z"/>
<path d="M193 625 c-9 -25 2 -27 22 -5 17 18 17 20 1 20 -9 0 -19 -7 -23 -15z"/>
<path d="M30 279 c0 -5 5 -7 10 -4 6 3 10 8 10 11 0 2 -4 4 -10 4 -5 0 -10 -5
-10 -11z"/>
<path d="M40 192 c-3 -30 -2 -58 1 -64 11 -18 15 6 9 62 -6 55 -6 55 -10 2z"/>
<path d="M1108 163 c-6 -7 -20 -13 -32 -13 -20 -1 -76 -41 -76 -56 0 -4 21
-27 46 -51 46 -43 47 -43 119 -43 56 0 74 4 79 15 9 25 -4 46 -25 40 -10 -4
-50 -3 -89 1 -63 6 -70 9 -65 25 4 11 2 19 -4 19 -23 0 -10 19 20 29 68 24
117 10 111 -30 -2 -9 4 -19 13 -22 12 -5 15 1 15 31 0 20 -4 42 -8 48 -11 17
-91 22 -104 7z"/>
<path d="M380 80 c0 -5 17 -10 38 -11 37 -1 37 -1 -7 -10 -30 -6 -49 -5 -58 3
-19 15 -36 -3 -31 -33 3 -23 8 -24 82 -27 92 -3 110 7 78 41 -12 13 -22 29
-22 35 0 7 -16 12 -40 12 -22 0 -40 -4 -40 -10z"/>
<path d="M1616 59 c-27 -32 -30 -49 -9 -56 6 -2 13 6 15 18 3 22 6 23 116 20
108 -2 112 -2 112 18 0 20 -6 21 -89 21 -49 0 -96 2 -104 6 -8 3 -25 -8 -41
-27z"/>
<path d="M40 64 c0 -8 5 -12 10 -9 6 4 8 11 5 16 -9 14 -15 11 -15 -7z"/>
<path d="M160 62 c0 -5 7 -9 15 -9 8 0 15 4 15 9 0 4 -7 8 -15 8 -8 0 -15 -4
-15 -8z"/>
</g>
</svg>
