<?xml version="1.0" standalone="no"?>
<!DOCTYPE svg PUBLIC "-//W3C//DTD SVG 20010904//EN"
 "http://www.w3.org/TR/2001/REC-SVG-20010904/DTD/svg10.dtd">
<svg version="1.0" xmlns="http://www.w3.org/2000/svg"
 width="203.000000pt" height="175.000000pt" viewBox="0 0 203.000000 175.000000"
 preserveAspectRatio="xMidYMid meet">
<metadata>
Created by potrace 1.16, written by Peter Selinger 2001-2019
</metadata>
<g transform="translate(0.000000,175.000000) scale(0.100000,-0.100000)"
fill="#000000" stroke="none">
<path d="M188 1724 c-3 -27 -3 -27 -95 -25 -87 2 -93 1 -93 -18 0 -18 8 -20
87 -23 98 -3 117 5 128 60 5 25 3 32 -9 32 -8 0 -16 -11 -18 -26z"/>
<path d="M260 1740 c0 -5 20 -10 44 -10 25 0 48 5 51 10 4 6 -13 10 -44 10
-28 0 -51 -4 -51 -10z"/>
<path d="M1122 1735 c-7 -8 -24 -15 -37 -15 -17 0 -25 -6 -25 -17 0 -16 9 -18
72 -15 61 3 76 7 90 25 10 12 18 25 18 30 0 14 -105 7 -118 -8z"/>
<path d="M1403 1743 c9 -2 23 -2 30 0 6 3 -1 5 -18 5 -16 0 -22 -2 -12 -5z"/>
<path d="M1822 1734 c4 -21 22 -23 26 -1 2 10 -3 17 -13 17 -10 0 -15 -6 -13
-16z"/>
<path d="M760 1700 c-8 -15 -7 -19 2 -16 7 3 27 7 43 11 27 7 28 8 10 15 -32
13 -44 11 -55 -10z"/>
<path d="M344 1692 c-6 -4 -8 -30 -5 -67 6 -60 6 -60 45 -57 33 3 38 1 32 -13
-3 -9 -6 -18 -6 -21 0 -2 -8 -1 -17 2 -17 5 -17 5 0 -6 9 -6 15 -16 11 -22 -4
-7 0 -7 13 1 24 12 29 67 8 87 -9 10 -11 24 -5 51 5 20 7 41 4 45 -6 10 -65
10 -80 0z"/>
<path d="M870 1676 c0 -14 5 -28 10 -31 13 -8 13 -78 -1 -108 -8 -18 -8 -30 0
-43 10 -19 10 -19 11 0 0 24 33 116 41 116 9 0 20 -44 26 -99 3 -35 0 -48 -18
-67 -17 -18 -19 -24 -7 -24 17 0 51 34 42 43 -5 5 -6 103 -1 201 2 29 1 30
-50 33 -51 3 -53 2 -53 -21z m75 -37 c10 -15 -1 -23 -20 -15 -9 3 -13 10 -10
16 8 13 22 13 30 -1z"/>
<path d="M1847 1681 c3 -11 -4 -40 -16 -64 -25 -52 -26 -58 -6 -51 20 8 19 -2
-5 -51 -11 -23 -31 -48 -45 -55 -28 -15 -32 -25 -11 -33 7 -3 23 7 35 21 11
15 33 42 47 60 15 19 24 39 20 48 -6 16 29 91 49 107 6 4 21 5 34 2 77 -19 81
-18 81 4 0 19 -6 22 -37 22 -21 0 -64 2 -95 5 -53 5 -56 5 -51 -15z"/>
<path d="M688 1683 c6 -2 18 -2 25 0 6 3 1 5 -13 5 -14 0 -19 -2 -12 -5z"/>
<path d="M1050 1660 c0 -15 27 -23 48 -15 16 7 15 8 -3 15 -28 12 -45 12 -45
0z"/>
<path d="M315 1478 c-7 -67 -6 -72 16 -89 29 -22 55 -24 66 -5 4 7 27 16 51
19 50 6 57 10 49 32 -4 9 -19 15 -41 15 -19 0 -38 5 -41 10 -8 13 -35 13 -35
0 0 -6 6 -10 13 -9 15 3 47 -11 47 -20 0 -4 -21 -7 -47 -6 -48 0 -48 0 -49 44
0 24 6 49 13 56 19 19 16 25 -11 25 -22 0 -24 -5 -31 -72z"/>
<path d="M1753 1525 c-9 -10 -21 -11 -43 -5 -26 7 -33 5 -46 -15 -9 -14 -13
-33 -9 -45 8 -25 25 -26 25 -1 0 12 11 23 30 30 17 6 44 16 60 22 17 7 33 16
36 20 9 15 -40 9 -53 -6z"/>
<path d="M847 1433 c-12 -11 -8 -22 13 -33 16 -9 24 -7 36 5 9 9 14 18 11 21
-8 9 -54 14 -60 7z"/>
<path d="M1653 1391 c-24 -4 -46 -10 -49 -14 -4 -4 6 -33 22 -64 27 -54 29
-66 27 -155 -1 -54 2 -100 7 -103 18 -11 29 34 28 109 -2 64 1 80 15 88 28 15
38 0 21 -33 -20 -40 -16 -154 6 -154 12 0 15 13 15 55 0 30 3 60 7 65 3 6 5
52 4 103 -2 116 -4 119 -103 103z m67 -21 c0 -5 -9 -6 -20 -3 -11 3 -17 9 -15
14 7 10 35 1 35 -11z m-16 -61 c-3 -5 -10 -7 -15 -3 -5 3 -7 10 -3 15 3 5 10
7 15 3 5 -3 7 -10 3 -15z"/>
<path d="M683 1323 c-38 -33 -58 -144 -31 -171 19 -19 34 -14 83 28 25 22 58
43 73 47 48 12 170 9 184 -5 8 -8 15 -47 18 -95 6 -97 -13 -497 -24 -516 -5
-7 -27 -21 -51 -31 -55 -23 -63 -37 -37 -63 19 -19 31 -20 168 -18 121 1 152
5 166 18 10 9 18 19 18 22 0 3 -22 21 -50 40 -27 19 -51 41 -54 50 -2 9 -4
120 -5 246 -1 228 9 319 38 348 16 16 169 9 200 -9 14 -8 41 -26 60 -39 49
-36 64 -20 59 62 -2 35 -9 68 -15 74 -9 9 -51 9 -170 -1 -210 -17 -499 -5
-594 25 -9 3 -25 -3 -36 -12z"/>
<path d="M1804 1008 c-48 -29 -56 -31 -64 -17 -5 7 -7 16 -4 20 7 11 -97 4
-129 -9 -15 -7 -30 -19 -34 -28 -7 -19 10 -50 25 -47 22 5 32 -65 28 -191 -4
-128 -4 -128 -36 -161 -51 -52 -38 -63 77 -67 144 -5 196 24 109 62 -24 10
-47 27 -50 37 -3 10 -2 74 4 142 5 69 7 128 4 132 -2 4 0 20 6 34 10 26 14 27
55 22 25 -2 48 -1 51 4 3 5 19 9 36 9 29 0 30 2 25 30 -5 22 -3 30 8 30 8 0
15 4 15 9 0 16 -96 7 -126 -11z"/>
<path d="M1944 995 c-4 -23 0 -54 11 -88 13 -39 17 -81 16 -174 -1 -122 -15
-178 -43 -178 -6 0 -13 -6 -15 -12 -3 -8 4 -13 16 -13 11 0 23 -4 26 -10 3 -5
22 -10 41 -10 34 0 34 0 34 233 0 233 0 233 -28 260 -37 36 -50 34 -58 -8z"/>
<path d="M99 982 c-100 -66 -99 -65 -99 -109 0 -49 7 -53 40 -18 28 30 40 24
40 -18 0 -50 -16 -94 -49 -134 -28 -34 -31 -44 -31 -111 0 -74 0 -74 32 -67
18 4 46 20 63 36 16 16 51 49 78 73 55 52 64 89 20 84 -19 -2 -29 -10 -33 -27
-5 -23 -5 -23 -30 -3 -25 20 -25 20 3 49 15 17 27 40 27 55 0 15 5 30 10 33 6
3 10 14 10 24 0 10 6 23 13 29 7 6 14 36 15 66 2 56 2 56 -40 56 -24 0 -55 -8
-69 -18z"/>
<path d="M310 950 c0 -49 1 -52 15 -34 8 10 14 26 14 34 0 8 -6 24 -14 34 -14
18 -15 15 -15 -34z"/>
<path d="M1877 879 c-9 -6 -34 -12 -55 -14 -48 -4 -46 -3 -34 -18 7 -8 32 -13
64 -12 43 0 53 3 56 19 5 25 -9 37 -31 25z"/>
<path d="M310 639 c0 -84 1 -91 15 -73 20 26 20 137 0 154 -13 11 -15 1 -15
-81z"/>
<path d="M1858 582 c-22 -4 -24 -40 -3 -49 14 -5 44 21 45 38 0 10 -23 16 -42
11z"/>
<path d="M1965 351 c-11 -5 -23 -7 -27 -5 -9 6 -22 -37 -19 -64 2 -17 -3 -25
-18 -29 -26 -7 -27 -20 -3 -26 14 -3 12 -6 -8 -14 -29 -12 -54 1 -46 24 3 8 2
12 -3 9 -8 -5 -19 -41 -28 -91 -2 -11 -6 -50 -9 -87 -4 -62 -3 -68 14 -68 16
0 20 10 26 53 3 28 6 71 6 94 0 42 0 42 55 36 55 -6 55 -6 55 71 0 77 0 77 35
70 31 -5 35 -4 35 15 0 22 -26 27 -65 12z"/>
<path d="M870 115 c-13 -14 -20 -28 -17 -32 8 -8 135 -9 143 -1 3 4 -2 18 -11
32 -24 36 -82 36 -115 1z"/>
</g>
</svg>
