<?xml version="1.0" encoding="UTF-8" standalone="no"?>
<svg
   version="1.0"
   width="76pt"
   height="114pt"
   viewBox="0 0 76 114"
   preserveAspectRatio="xMidYMid"
   id="svg44"
   xmlns="http://www.w3.org/2000/svg"
   xmlns:svg="http://www.w3.org/2000/svg">
  <defs
     id="defs44" />
  <metadata
     id="metadata1">
Created by potrace 1.16, written by Peter Selinger 2001-2019
</metadata>
  <path
     d="m 52.5,20 c -1.1,0.4 -4.5,3.8 -7.5,7.5 -3,3.7 -7.1,8.6 -9,10.9 -2,2.2 -4.9,6.1 -6.5,8.6 -1.6,2.5 -4.7,6.4 -6.8,8.8 -3.2,3.6 -3.8,4.9 -3.5,8 0.2,3 0.7,3.7 2.3,3.4 9.9,-1.4 23,-2 25.2,-1.1 2.6,1 2.6,1 1.9,11.2 -1.4,19.7 -1.6,18.2 2.7,18.5 6.6,0.6 7.1,-0.5 6.4,-15.1 -0.5,-11.8 -0.4,-13 1.4,-14.8 1.2,-1.2 3.3,-1.9 5.7,-1.9 4.6,0 7.6,-1.9 7,-4.6 -0.3,-1.6 -1.3,-2 -6.3,-2.2 C 62.2,57 59,56.4 58.2,55.8 57.2,54.9 57,51 57.2,38.4 57.4,24.9 57.2,21.8 56,20.6 55,19.7 53.8,19.5 52.5,20 Z m -3.6,19.1 c 1.5,4.3 1.4,16.2 -0.1,17.7 -1.2,1.2 -14.3,1.7 -17.2,0.6 -2.9,-1.1 -1.7,-3.9 5,-12 9,-10.8 10.5,-11.6 12.3,-6.3 z"
     id="path9"
     style="fill:#000000;stroke:none;stroke-width:0.1" />
</svg>
