<?xml version="1.0" encoding="UTF-8" standalone="no"?>
<svg
   version="1.0"
   width="76pt"
   height="114pt"
   viewBox="0 0 76 114"
   preserveAspectRatio="xMidYMid"
   id="svg8"
   xmlns="http://www.w3.org/2000/svg"
   xmlns:svg="http://www.w3.org/2000/svg">
  <defs
     id="defs8" />
  <metadata
     id="metadata1">
Created by potrace 1.16, written by Peter Selinger 2001-2019
</metadata>
  <path
     d="M 43.3,17 C 40.512589,17.555127 28.2,23 20.9,27.7 7.5,36.2 -1.1,50.3 0.5,60.9 1.6,68.2 5.2,74.1 11.1,78 c 4.4,3 6,3.5 10.8,3.4 8.1,0 15.4,-4.2 18.8,-10.8 C 43.1,66.1 42.9,56.2 40.5,52.3 38,48.4 32.3,44.4 27,43 21.5,41.5 21.7,39.1 27.9,34.6 32.8,31 42.9,26 45.4,26 c 2,0 4.764955,-3.405044 4.6,-6.1 -0.283704,-4.635016 -3.912589,-3.455127 -6.7,-2.9 z m -16,30.8 c 3,3.1 5.7,10 5.7,14.4 0,4 -2.4,9.2 -5.1,11.2 -2.8,1.9 -8.4,2.1 -11.9,0.3 -6.9,-3.4 -8.1,-20 -1.8,-26.7 2.9,-3.1 9.7,-2.8 13.1,0.8 z"
     id="path6"
     style="fill:#000000;stroke:none;stroke-width:0.1" />
</svg>
