<?xml version="1.0" standalone="no"?>
<!DOCTYPE svg PUBLIC "-//W3C//DTD SVG 20010904//EN"
 "http://www.w3.org/TR/2001/REC-SVG-20010904/DTD/svg10.dtd">
<svg version="1.0" xmlns="http://www.w3.org/2000/svg"
 width="76.000000pt" height="114.000000pt" viewBox="0 0 76.000000 114.000000"
 preserveAspectRatio="xMidYMid meet">
<metadata>
Created by potrace 1.16, written by Peter Selinger 2001-2019
</metadata>
<g transform="translate(0.000000,114.000000) scale(0.100000,-0.100000)"
fill="#000000" stroke="none">
<path d="M6 1041 c-7 -10 33 -23 47 -14 10 6 -11 23 -30 23 -6 0 -14 -4 -17
-9z"/>
<path d="M82 1041 c-11 -7 -10 -10 3 -15 26 -10 75 -7 75 4 0 6 -9 10 -19 10
-11 0 -25 2 -33 5 -7 3 -19 1 -26 -4z"/>
<path d="M305 1041 c-49 -11 -12 -23 47 -15 75 9 95 24 33 23 -27 -1 -63 -4
-80 -8z"/>
<path d="M505 1042 c6 -6 65 -12 133 -15 96 -4 122 -2 122 8 0 10 -31 13 -132
14 -84 1 -129 -2 -123 -7z"/>
<path d="M208 1033 c12 -2 30 -2 40 0 9 3 -1 5 -23 4 -22 0 -30 -2 -17 -4z"/>
<path d="M455 980 c-3 -5 -13 -10 -22 -10 -25 0 -151 -60 -224 -107 -134 -85
-220 -226 -204 -332 11 -73 47 -132 106 -171 44 -30 60 -35 108 -34 81 0 154
42 188 108 24 45 22 144 -2 183 -25 39 -82 79 -135 93 -55 15 -53 39 9 84 49
36 150 86 175 86 20 0 46 34 46 61 0 37 -30 63 -45 39z m-182 -318 c30 -31 57
-100 57 -144 0 -40 -24 -92 -51 -112 -28 -19 -84 -21 -119 -3 -69 34 -81 200
-18 267 29 31 97 28 131 -8z"/>
<path d="M621 519 c-33 -20 -61 -71 -61 -109 0 -12 13 -35 29 -51 37 -36 79
-38 118 -5 50 44 31 145 -33 175 -16 7 -29 5 -53 -10z"/>
<path d="M0 109 c0 -18 11 -19 380 -19 359 0 380 1 380 18 0 17 -22 18 -380
19 -369 2 -380 1 -380 -18z"/>
</g>
</svg>
