<?xml version="1.0" standalone="no"?>
<!DOCTYPE svg PUBLIC "-//W3C//DTD SVG 20010904//EN"
 "http://www.w3.org/TR/2001/REC-SVG-20010904/DTD/svg10.dtd">
<svg version="1.0" xmlns="http://www.w3.org/2000/svg"
 width="179.000000pt" height="171.000000pt" viewBox="0 0 179.000000 171.000000"
 preserveAspectRatio="xMidYMid meet">
<metadata>
Created by potrace 1.16, written by Peter Selinger 2001-2019
</metadata>
<g transform="translate(0.000000,171.000000) scale(0.100000,-0.100000)"
fill="#000000" stroke="none">
<path d="M150 1686 c0 -34 10 -56 25 -56 7 0 16 -6 18 -12 4 -10 8 -9 16 2 6
8 12 18 13 22 2 4 103 9 226 10 123 0 240 4 260 8 37 6 37 6 -8 12 -25 3 -142
4 -260 2 -229 -2 -260 0 -260 22 0 8 -7 14 -15 14 -9 0 -15 -9 -15 -24z"/>
<path d="M1672 1688 c2 -13 11 -24 23 -27 17 -3 17 -1 6 12 -7 9 -10 21 -6 27
3 5 -1 10 -10 10 -11 0 -15 -7 -13 -22z"/>
<path d="M1740 1670 c0 -5 5 -10 10 -10 6 0 10 5 10 10 0 6 -4 10 -10 10 -5 0
-10 -4 -10 -10z"/>
<path d="M755 1660 c3 -5 12 -10 20 -10 8 0 17 5 20 10 4 6 -5 10 -20 10 -15
0 -24 -4 -20 -10z"/>
<path d="M810 1660 c0 -5 7 -10 15 -10 8 0 15 5 15 10 0 6 -7 10 -15 10 -8 0
-15 -4 -15 -10z"/>
<path d="M913 1663 c20 -2 54 -2 75 0 20 2 3 4 -38 4 -41 0 -58 -2 -37 -4z"/>
<path d="M1085 1660 c-8 -13 15 -13 35 0 12 8 11 10 -7 10 -12 0 -25 -4 -28
-10z"/>
<path d="M1182 1661 c-7 -4 13 -6 45 -4 79 6 89 11 23 12 -30 0 -61 -3 -68 -8z"/>
<path d="M1333 1663 c9 -2 23 -2 30 0 6 3 -1 5 -18 5 -16 0 -22 -2 -12 -5z"/>
<path d="M1428 1663 c17 -2 47 -2 65 0 17 2 3 4 -33 4 -36 0 -50 -2 -32 -4z"/>
<path d="M1710 1618 c-21 -35 -26 -78 -11 -106 5 -9 12 -25 15 -35 5 -17 33
-34 41 -25 3 3 7 48 9 101 3 89 2 97 -16 97 -10 0 -27 -14 -38 -32z"/>
<path d="M0 1610 c0 -18 7 -20 69 -20 50 0 70 4 74 14 6 16 -32 26 -99 26 -37
0 -44 -3 -44 -20z"/>
<path d="M190 1586 c0 -9 5 -16 10 -16 6 0 10 4 10 9 0 6 -4 13 -10 16 -5 3
-10 -1 -10 -9z"/>
<path d="M510 1358 c-31 -11 -22 -49 15 -67 17 -8 38 -18 47 -23 10 -4 24 -8
31 -8 16 0 80 -75 134 -160 23 -36 50 -76 60 -90 36 -49 81 -127 92 -161 11
-35 18 -295 8 -305 -3 -3 -25 -10 -48 -15 -24 -6 -49 -15 -56 -21 -16 -13 -17
-44 -1 -54 18 -11 265 -13 309 -2 58 13 60 44 4 63 -44 15 -55 47 -55 160 0
147 16 264 38 289 11 12 47 62 81 111 73 106 156 195 183 195 10 0 34 7 53 14
26 11 35 21 35 39 0 31 -46 46 -115 38 -27 -4 -72 -3 -99 1 -108 16 -173 -35
-87 -69 22 -9 42 -22 45 -29 10 -27 -120 -273 -152 -287 -32 -15 -47 -4 -94
70 -120 186 -132 231 -65 247 43 11 51 41 15 55 -30 11 -352 19 -378 9z"/>
<path d="M1723 1066 c-18 -6 -35 -15 -39 -19 -4 -4 -22 -5 -40 -1 -27 5 -34 2
-45 -18 -7 -12 -12 -26 -11 -31 1 -4 -3 -6 -9 -5 -6 2 -14 -4 -19 -12 -4 -8
-15 -31 -25 -50 -30 -57 -32 -63 -45 -107 -19 -63 -6 -161 33 -241 27 -56 40
-71 82 -96 66 -38 102 -48 148 -40 34 5 37 8 37 40 0 31 -3 34 -29 34 -17 0
-33 5 -36 10 -3 6 -18 10 -33 10 -23 0 -32 10 -60 61 -21 38 -36 80 -39 114
-5 49 -2 62 41 150 45 89 69 118 99 114 6 0 22 2 35 6 18 6 22 15 22 51 0 49
-7 52 -67 30z"/>
<path d="M190 590 c0 -11 5 -20 10 -20 6 0 10 9 10 20 0 11 -4 20 -10 20 -5 0
-10 -9 -10 -20z"/>
<path d="M1749 278 c-7 -13 -15 -38 -18 -57 -5 -27 -12 -36 -36 -43 -63 -19
-61 -18 -46 -28 9 -5 11 -14 6 -26 -5 -11 -7 -23 -5 -29 1 -5 2 -29 1 -52 -2
-38 1 -43 20 -43 21 0 21 3 17 70 -5 70 -5 70 40 70 44 0 44 0 40 61 -3 45 -1
62 9 66 18 7 17 33 -2 33 -8 0 -20 -10 -26 -22z"/>
<path d="M186 173 c-3 -3 -6 -9 -6 -12 0 -3 171 -7 380 -8 231 -2 380 1 380 7
0 5 -146 9 -366 9 -201 1 -369 3 -373 6 -5 2 -11 2 -15 -2z"/>
<path d="M1403 160 c2 -8 12 -16 23 -17 13 -2 15 -1 4 4 -8 3 -19 11 -23 17
-6 7 -7 6 -4 -4z"/>
<path d="M1063 153 c59 -2 154 -2 210 0 56 1 8 3 -108 3 -115 0 -161 -2 -102
-3z"/>
<path d="M673 23 c-25 -10 -12 -23 22 -23 19 0 35 5 35 10 0 6 -4 10 -9 10 -5
0 -15 2 -23 4 -7 3 -19 2 -25 -1z"/>
</g>
</svg>
