<?xml version="1.0" encoding="UTF-8" standalone="no"?>
<svg
   version="1.0"
   width="118.000000pt"
   height="158.000000pt"
   viewBox="0 0 118.000000 158.000000"
   preserveAspectRatio="xMidYMid meet"
   id="svg19"
   sodipodi:docname="f_i.svg"
   inkscape:version="1.4 (e7c3feb1, 2024-10-09)"
   xmlns:inkscape="http://www.inkscape.org/namespaces/inkscape"
   xmlns:sodipodi="http://sodipodi.sourceforge.net/DTD/sodipodi-0.dtd"
   xmlns="http://www.w3.org/2000/svg"
   xmlns:svg="http://www.w3.org/2000/svg">
  <defs
     id="defs19" />
  <sodipodi:namedview
     id="namedview19"
     pagecolor="#ffffff"
     bordercolor="#000000"
     borderopacity="0.25"
     inkscape:showpageshadow="2"
     inkscape:pageopacity="0.0"
     inkscape:pagecheckerboard="0"
     inkscape:deskcolor="#d1d1d1"
     inkscape:document-units="pt"
     inkscape:zoom="2.7926242"
     inkscape:cx="10.742584"
     inkscape:cy="134.46134"
     inkscape:current-layer="svg19" />
  <metadata
     id="metadata1">
Created by potrace 1.16, written by Peter Selinger 2001-2019
</metadata>
  <path
     d="m 83,25.9 c -9.1,2.9 -18.2,12.9 -23,25.2 -2.5,6.2 -5.2,9.5 -8.6,10.3 -3.3,0.9 -3.2,4.3 0.1,5.6 3.6,1.4 3.9,3.1 1.7,9.7 -3.2,9.2 -5.9,19.9 -8.2,31.7 -1.71199,9.33813 -5.333453,22.27596 -7.2,25.5 -2.1,3.3 -2.1,3.3 -8.3,2.6 -5.1,-0.5 -6.5,-0.3 -7.9,1 -2.2,2.2 -2,3.8 0.8,6.4 4.5,4.2 14,3.7 20,-1 5.6,-4.4 8.4,-11.6 11,-28 1.4,-8.5 3.3,-18.8 4.4,-22.9 1.1,-4.1 2.5,-10.5 3.2,-14.2 0.7,-3.7 1.8,-7.2 2.5,-7.8 0.8,-0.6 4.6,-1 9.2,-0.8 7.8,0.3 7.8,0.3 8.1,4 0.167104,6.504201 -9.8,26.6185 -9.8,33.9 0,3.5 1.9,5.9 4.7,5.9 3.6,0 9.8,-4.5 13.4,-9.6 3.4,-5 3.7,-7.4 0.9,-7.4 -1.783608,0 -6.178424,5.03236 -7.4,3.2 -1.138569,-1.897615 6.175534,-23.201282 6.3,-23.5 2.5,-5.5 3.3,-9.4 2.6,-11.8 -0.6,-1.9 -1.3,-2 -8.3,-1.4 -4.3,0.4 -9.5,0.2 -11.7,-0.2 -3.7,-0.9 -4,-1.2 -3.9,-4 C 68.1,48.1 78.3,33 84.7,33 c 4.9,0 6.2,0.9 7.3,5.1 1.2,4.4 4.4,5.9 8.6,4 4.3,-1.9 2.9,-10.2 -2.4,-13.9 C 95,25.9 86.8,24.6 83,25.9 Z"
     id="path2"
     style="fill:#000000;stroke:none;stroke-width:0.1"
     sodipodi:nodetypes="ccccccccccccsscccsscsccccccscccc" />
</svg>
