<?xml version="1.0" encoding="UTF-8" standalone="no"?>
<svg
   version="1.0"
   width="94.000000pt"
   height="102.000000pt"
   viewBox="0 0 94.000000 102.000000"
   preserveAspectRatio="xMidYMid meet"
   id="svg13"
   sodipodi:docname="o.svg"
   inkscape:version="1.4 (e7c3feb1, 2024-10-09)"
   xmlns:inkscape="http://www.inkscape.org/namespaces/inkscape"
   xmlns:sodipodi="http://sodipodi.sourceforge.net/DTD/sodipodi-0.dtd"
   xmlns="http://www.w3.org/2000/svg"
   xmlns:svg="http://www.w3.org/2000/svg">
  <defs
     id="defs13" />
  <sodipodi:namedview
     id="namedview13"
     pagecolor="#ffffff"
     bordercolor="#000000"
     borderopacity="0.25"
     inkscape:showpageshadow="2"
     inkscape:pageopacity="0.0"
     inkscape:pagecheckerboard="0"
     inkscape:deskcolor="#d1d1d1"
     inkscape:document-units="pt"
     inkscape:zoom="2.1629149"
     inkscape:cx="67.501501"
     inkscape:cy="64.958637"
     inkscape:current-layer="svg13" />
  <metadata
     id="metadata1">
Created by potrace 1.16, written by Peter Selinger 2001-2019
</metadata>
  <path
     d="M 52.4,23.8 C 40.5,32.5 34.535577,48.929327 35.5,59.7 36.7,69.5 44,74.8 52.5,72 57,70.5 63.8,63.8 65.7,59 66.5,57.1 67.5,54.6 68,53.5 71.8,45 73,33.4 70.6,27.6 67.6,20.5 59.4,18.8 52.4,23.8 Z m 10.5,7.1 c 2.4,4.4 -5.5,25.9 -11.2,30.7 -3.3,2.8 -5,3 -6.7,0.9 -3,-3.6 2.9,-21.5 9.9,-30.2 2.9,-3.7 6.5,-4.3 8,-1.4 z"
     id="path6"
     style="fill:#000000;stroke:none;stroke-width:0.1"
     sodipodi:nodetypes="cccccccccccc" />
</svg>
