<?xml version="1.0" encoding="UTF-8" standalone="no"?>
<svg
   version="1.0"
   width="76pt"
   height="114pt"
   viewBox="0 0 76 114"
   preserveAspectRatio="xMidYMid"
   id="svg13"
   xmlns="http://www.w3.org/2000/svg"
   xmlns:svg="http://www.w3.org/2000/svg">
  <defs
     id="defs13" />
  <metadata
     id="metadata1">
Created by potrace 1.16, written by Peter Selinger 2001-2019
</metadata>
  <path
     d="m 35.8,25.9 c -15.6,9.9 -15.1,28.3 1,35.2 3.229908,1.890495 11.52469,4.290587 10.3,6.8 -1.4,2.5 -16,13.5 -22.2,16.6 -5.9,3.1 -7.6,5 -5.9,7 1.4,1.7 4.2,1.9 6.8,0.6 0.9,-0.6 4.8,-2.4 8.6,-4.1 C 54.862981,76.133654 65.6,64.5 66.6,44.7 66.757782,41.000391 65.451766,36.533188 61.50634,31.068257 57.560913,25.603326 45.3,19.9 35.8,25.9 Z m 14.8,5.7 c 5,2.4 7.8,8.9 7.1,16.5 -0.9,10.6 -4.751923,14.194471 -12.651923,11.094471 -5.6,-2.1 -9.853302,-5.547832 -11.04976,-10.444711 C 32.801859,43.85288 33.7,40.2 35.6,36.9 37.5,33.7 42.9,30 45.8,30 c 0.8,0 2.9,0.7 4.8,1.6 z"
     id="path5"
     style="fill:#000000;stroke:none;stroke-width:0.1" />
</svg>
