<?xml version="1.0" encoding="UTF-8" standalone="no"?>
<svg
   version="1.0"
   width="76pt"
   height="114pt"
   viewBox="0 0 76 114"
   preserveAspectRatio="xMidYMid"
   id="svg9"
   xmlns="http://www.w3.org/2000/svg"
   xmlns:svg="http://www.w3.org/2000/svg">
  <defs
     id="defs9" />
  <metadata
     id="metadata1">
Created by potrace 1.16, written by Peter Selinger 2001-2019
</metadata>
  <path
     d="M 33.4,19.4 C 30,20.9 27,24.5 27,27.1 c 0,2.2 1.7,2.8 5.6,1.9 3.6,-0.8 9.1,1.1 10,3.5 0.4,0.9 -0.1,3.5 -1,5.8 -1.9,5 -0.9,6.6 2.9,4.1 C 48,40.1 51,34 51,28.9 c 0,-3.3 -0.6,-4.7 -3.4,-7.5 -3.8,-3.8 -8.5,-4.5 -14.2,-2 z"
     id="path1"
     style="fill:#000000;stroke:none;stroke-width:0.1" />
  <path
     d="m 32.5,46.9 c -4,2.4 -6.8,5.7 -6.1,7 0.3,0.5 2.8,1.7 5.4,2.5 5.6,1.9 11.6,6.6 13.8,10.8 2.2,4.3 1.1,10.8 -2.6,14.8 -2.4,2.5 -3.5,3 -7.7,3 -5.4,0 -7.3,1.2 -7.3,4.7 0,5 7.6,5.7 14.3,1.2 10.9,-7.2 14.9,-17.3 11.2,-28 -1.8,-5 -4.5,-8.2 -9.9,-11.6 -2.1,-1.4 -4.1,-3.3 -4.3,-4.4 -0.7,-2.4 -3,-2.4 -6.8,0 z"
     id="path4"
     style="fill:#000000;stroke:none;stroke-width:0.1" />
</svg>
