<?xml version="1.0" standalone="no"?>
<!DOCTYPE svg PUBLIC "-//W3C//DTD SVG 20010904//EN"
 "http://www.w3.org/TR/2001/REC-SVG-20010904/DTD/svg10.dtd">
<svg version="1.0" xmlns="http://www.w3.org/2000/svg"
 width="76.000000pt" height="114.000000pt" viewBox="0 0 76.000000 114.000000"
 preserveAspectRatio="xMidYMid meet">
<metadata>
Created by potrace 1.16, written by Peter Selinger 2001-2019
</metadata>
<g transform="translate(0.000000,114.000000) scale(0.100000,-0.100000)"
fill="#000000" stroke="none">
<path d="M334 946 c-34 -15 -64 -51 -64 -77 0 -22 17 -28 56 -19 36 8 91 -11
100 -35 4 -9 -1 -35 -10 -58 -19 -50 -9 -66 29 -41 35 23 65 84 65 135 0 33
-6 47 -34 75 -38 38 -85 45 -142 20z"/>
<path d="M0 930 c0 -18 10 -25 32 -21 11 1 10 -46 0 -53 -4 -2 -9 -22 -10 -42
-2 -21 -7 -41 -13 -45 -6 -3 -9 -28 -7 -55 3 -37 6 -44 12 -29 4 11 14 34 22
52 8 17 14 38 14 46 0 9 4 18 9 21 13 8 19 65 7 63 -14 -3 -18 25 -6 43 8 12
12 13 19 2 6 -11 10 -10 15 3 9 25 1 31 -48 34 -40 2 -46 -1 -46 -19z"/>
<path d="M740 815 c0 -8 5 -15 10 -15 6 0 10 7 10 15 0 8 -4 15 -10 15 -5 0
-10 -7 -10 -15z"/>
<path d="M325 671 c-40 -24 -68 -57 -61 -70 3 -5 28 -17 54 -25 56 -19 116
-66 138 -108 22 -43 11 -108 -26 -148 -24 -25 -35 -30 -77 -30 -54 0 -73 -12
-73 -47 0 -50 76 -57 143 -12 109 72 149 173 112 280 -18 50 -45 82 -99 116
-21 14 -41 33 -43 44 -7 24 -30 24 -68 0z"/>
<path d="M740 590 c0 -22 5 -40 10 -40 6 0 10 18 10 40 0 22 -4 40 -10 40 -5
0 -10 -18 -10 -40z"/>
<path d="M9 598 c-4 -10 -9 -108 -5 -108 20 0 36 16 36 35 0 13 4 27 10 30 5
3 10 15 10 26 0 14 -7 19 -25 19 -14 0 -25 -1 -26 -2z"/>
<path d="M388 123 c-16 -8 -28 -18 -28 -23 0 -5 -10 -10 -22 -12 -13 -2 -23
-10 -23 -18 0 -18 32 -15 52 5 7 8 33 17 58 21 28 4 45 11 45 20 0 8 -6 14
-14 14 -8 0 -20 2 -28 4 -7 2 -25 -3 -40 -11z"/>
<path d="M496 115 c-37 -37 -34 -55 10 -53 50 2 73 47 35 68 -16 8 -25 5 -45
-15z"/>
<path d="M591 119 c-19 -8 -21 -12 -11 -24 15 -17 80 -20 80 -4 0 11 -29 39
-40 38 -3 0 -16 -5 -29 -10z"/>
</g>
</svg>
