<?xml version="1.0" standalone="no"?>
<!DOCTYPE svg PUBLIC "-//W3C//DTD SVG 20010904//EN"
 "http://www.w3.org/TR/2001/REC-SVG-20010904/DTD/svg10.dtd">
<svg version="1.0" xmlns="http://www.w3.org/2000/svg"
 width="189.000000pt" height="182.000000pt" viewBox="0 0 189.000000 182.000000"
 preserveAspectRatio="xMidYMid meet">
<metadata>
Created by potrace 1.16, written by Peter Selinger 2001-2019
</metadata>
<g transform="translate(0.000000,182.000000) scale(0.100000,-0.100000)"
fill="#000000" stroke="none">
<path d="M247 1806 c-4 -10 -22 -12 -78 -8 -72 5 -72 5 -66 -42 7 -50 9 -49
-61 -46 -37 1 -42 -1 -42 -20 0 -19 5 -21 56 -19 41 2 58 7 65 20 11 21 76 36
90 22 6 -6 27 -7 52 -2 23 4 60 11 82 15 22 4 45 11 52 16 7 5 17 7 22 4 5 -4
13 -1 17 5 5 9 -23 10 -112 5 -65 -3 -134 -9 -153 -12 -25 -5 -32 -3 -29 7 2
7 29 18 59 24 58 11 79 21 79 36 0 14 -27 11 -33 -5z"/>
<path d="M728 1808 c9 -9 15 -9 24 0 9 9 7 12 -12 12 -19 0 -21 -3 -12 -12z"/>
<path d="M1050 1810 c0 -5 5 -10 10 -10 6 0 10 5 10 10 0 6 -4 10 -10 10 -5 0
-10 -4 -10 -10z"/>
<path d="M1740 1770 c0 -13 20 -13 40 0 12 8 9 10 -12 10 -16 0 -28 -4 -28
-10z"/>
<path d="M1777 1734 c-17 -18 -3 -25 43 -22 28 2 51 8 53 13 2 11 -85 20 -96
9z"/>
<path d="M1776 1641 c-4 -5 -2 -12 3 -15 5 -4 12 -2 15 3 4 5 2 12 -3 15 -5 4
-12 2 -15 -3z"/>
<path d="M1883 1600 c0 -25 2 -35 4 -22 2 12 2 32 0 45 -2 12 -4 2 -4 -23z"/>
<path d="M1781 1564 c0 -11 3 -14 6 -6 3 7 2 16 -1 19 -3 4 -6 -2 -5 -13z"/>
<path d="M820 1415 c-25 -13 -61 -29 -80 -36 -47 -16 -137 -91 -177 -147 -18
-25 -42 -70 -54 -101 -11 -31 -27 -66 -35 -78 -16 -26 -17 -38 -5 -153 12
-114 25 -160 67 -240 48 -93 140 -180 241 -227 76 -35 78 -35 188 -31 99 4
119 8 176 35 35 17 80 36 100 42 50 16 62 49 57 151 -3 81 -14 105 -44 93 -7
-2 -30 -32 -52 -66 -91 -140 -172 -187 -283 -163 -74 15 -124 54 -187 145 -70
102 -88 156 -91 262 -2 136 29 237 109 344 59 79 81 94 148 106 124 22 243
-42 311 -168 22 -41 31 -48 56 -48 36 0 43 19 44 130 1 92 -6 105 -58 105 -19
0 -67 16 -108 35 -70 33 -79 35 -176 35 -88 -1 -108 -4 -147 -25z"/>
<path d="M1550 1415 c0 -17 -25 -20 -35 -5 -3 6 -12 10 -18 9 -8 0 -8 -2 1 -6
19 -8 -5 -33 -33 -33 -12 0 -24 -3 -27 -6 -11 -10 4 -42 22 -47 23 -6 53 -66
41 -81 -12 -15 -13 -157 -1 -176 7 -11 11 -8 19 13 6 16 11 37 11 48 0 10 4
19 9 19 5 0 9 -12 9 -26 0 -14 4 -30 10 -36 19 -19 31 33 25 100 -4 40 -2 67
6 76 6 7 9 20 6 28 -3 8 1 21 10 28 21 17 19 73 -3 93 -23 21 -52 22 -52 2z
m20 -57 c0 -27 -13 -58 -21 -52 -5 3 -9 0 -9 -7 0 -8 -4 -8 -15 1 -20 17 -19
47 3 59 24 14 42 13 42 -1z"/>
<path d="M1426 1311 c-6 -10 22 -37 29 -29 8 7 -5 38 -15 38 -5 0 -11 -4 -14
-9z"/>
<path d="M111 1084 c0 -11 3 -14 6 -6 3 7 2 16 -1 19 -3 4 -6 -2 -5 -13z"/>
<path d="M1250 1090 c0 -5 5 -10 10 -10 6 0 10 5 10 10 0 6 -4 10 -10 10 -5 0
-10 -4 -10 -10z"/>
<path d="M109 1033 c-1 -30 -1 -243 0 -255 1 -5 5 -8 10 -8 13 0 13 278 0 285
-5 4 -9 -6 -10 -22z"/>
<path d="M1601 1051 c-7 -5 -21 -7 -30 -5 -25 7 -78 -31 -97 -68 -9 -18 -24
-40 -34 -48 -11 -9 -24 -46 -34 -96 -18 -93 -20 -137 -6 -162 5 -9 12 -47 15
-84 5 -49 11 -68 21 -68 8 0 23 -20 35 -44 17 -38 26 -46 67 -57 26 -8 79 -14
117 -13 78 0 117 16 178 70 20 19 42 34 47 34 6 0 10 78 10 214 0 214 0 214
-52 254 -89 68 -193 101 -237 73z m72 -96 c53 -22 91 -59 111 -107 10 -24 22
-51 27 -60 12 -24 -5 -174 -25 -225 -15 -36 -24 -44 -77 -63 -68 -26 -101 -19
-136 28 -46 63 -69 186 -29 152 21 -17 53 44 35 66 -8 9 -10 38 -7 84 3 39 2
70 -3 70 -11 0 -22 -57 -20 -115 1 -59 -13 -89 -30 -65 -15 22 -2 145 18 178
47 73 72 84 136 57z"/>
<path d="M1680 841 c0 -33 5 -63 10 -66 7 -4 9 -24 5 -48 -3 -23 -7 -70 -10
-104 -2 -34 -7 -68 -11 -74 -5 -9 1 -10 22 -5 16 4 31 10 34 13 3 2 7 64 8
137 4 140 -10 206 -42 206 -13 0 -16 -12 -16 -59z"/>
<path d="M1623 750 c-8 -12 -9 -21 -3 -25 15 -9 30 4 30 26 0 24 -12 24 -27
-1z"/>
<path d="M1561 633 c-1 -18 4 -33 9 -33 12 0 12 17 0 45 -7 17 -9 15 -9 -12z"/>
<path d="M101 703 c0 -10 4 -27 8 -37 6 -16 9 -17 16 -6 5 8 4 15 -2 17 -6 2
-9 13 -6 23 3 11 0 20 -6 20 -6 0 -11 -8 -10 -17z"/>
<path d="M1412 464 c2 -11 11 -20 22 -22 13 -3 17 1 14 14 -2 11 -11 20 -22
22 -13 3 -17 -1 -14 -14z"/>
<path d="M1745 250 c-3 -5 -1 -10 4 -10 6 0 11 5 11 10 0 6 -2 10 -4 10 -3 0
-8 -4 -11 -10z"/>
<path d="M260 105 c0 -8 4 -15 10 -15 5 0 7 7 4 15 -4 8 -8 15 -10 15 -2 0 -4
-7 -4 -15z"/>
<path d="M1862 92 c-6 -15 -14 -42 -17 -59 -5 -26 -3 -33 9 -33 12 0 16 10 16
40 0 22 5 40 10 40 12 0 13 27 1 34 -5 3 -13 -7 -19 -22z"/>
</g>
</svg>
