<?xml version="1.0" encoding="UTF-8" standalone="no"?>
<svg
   version="1.0"
   width="82.000000pt"
   height="90.000000pt"
   viewBox="0 0 82.000000 90.000000"
   preserveAspectRatio="xMidYMid meet"
   id="svg10"
   sodipodi:docname="c.svg"
   inkscape:version="1.4 (e7c3feb1, 2024-10-09)"
   xmlns:inkscape="http://www.inkscape.org/namespaces/inkscape"
   xmlns:sodipodi="http://sodipodi.sourceforge.net/DTD/sodipodi-0.dtd"
   xmlns="http://www.w3.org/2000/svg"
   xmlns:svg="http://www.w3.org/2000/svg">
  <defs
     id="defs10" />
  <sodipodi:namedview
     id="namedview10"
     pagecolor="#ffffff"
     bordercolor="#000000"
     borderopacity="0.25"
     inkscape:showpageshadow="2"
     inkscape:pageopacity="0.0"
     inkscape:pagecheckerboard="0"
     inkscape:deskcolor="#d1d1d1"
     inkscape:document-units="pt"
     inkscape:zoom="1.7333333"
     inkscape:cx="-0.57692308"
     inkscape:cy="61.442308"
     inkscape:current-layer="svg10" />
  <metadata
     id="metadata1">
Created by potrace 1.16, written by Peter Selinger 2001-2019
</metadata>
  <path
     d="m 39.1,16.1 c -1.8,0.6 -5,2.1 -7.1,3.4 -15.5,9.8 -23.1,42 -11.8,49.9 7.9,5.6 23,-3.8 24.5,-15.2 0.5,-3.7 0.3,-4.2 -1.4,-4.2 -1,0 -2.7,1.3 -3.7,3.1 -3.4,5.7 -10.9,8.7 -13.6,5.4 -3.2,-3.9 3.3,-25.6 9.5,-31.3 4.2,-3.8 7,-4.1 9.7,-0.7 2.3,2.9 5.5,3.2 7.4,0.7 1.8,-2.3 1.8,-8.7 -0.1,-10.2 -2,-1.7 -9.2,-2.2 -13.4,-0.9 z"
     id="path4"
     style="fill:#000000;stroke:none;stroke-width:0.1" />
</svg>
