<?xml version="1.0" encoding="UTF-8" standalone="no"?>
<svg
   version="1.0"
   width="130.000000pt"
   height="116.000000pt"
   viewBox="0 0 130.000000 116.000000"
   preserveAspectRatio="xMidYMid meet"
   id="svg6"
   sodipodi:docname="S.svg"
   inkscape:version="1.4 (e7c3feb1, 2024-10-09)"
   xmlns:inkscape="http://www.inkscape.org/namespaces/inkscape"
   xmlns:sodipodi="http://sodipodi.sourceforge.net/DTD/sodipodi-0.dtd"
   xmlns="http://www.w3.org/2000/svg"
   xmlns:svg="http://www.w3.org/2000/svg">
  <defs
     id="defs6" />
  <sodipodi:namedview
     id="namedview6"
     pagecolor="#ffffff"
     bordercolor="#000000"
     borderopacity="0.25"
     inkscape:showpageshadow="2"
     inkscape:pageopacity="0.0"
     inkscape:pagecheckerboard="0"
     inkscape:deskcolor="#d1d1d1"
     inkscape:document-units="pt"
     inkscape:zoom="2.6896552"
     inkscape:cx="42.012821"
     inkscape:cy="96.108975"
     inkscape:current-layer="svg6" />
  <metadata
     id="metadata1">
Created by potrace 1.16, written by Peter Selinger 2001-2019
</metadata>
  <path
     d="m 47.798684,35.18047 c -1.841385,9.119199 3.267313,18.155989 10.117592,23.847136 5.609704,5.685087 11.468404,13.106738 10.018335,21.626267 -1.02558,5.102695 -5.780755,8.882343 -10.876354,9.31935 -6.288848,1.510979 -14.472497,-0.86659 -16.558711,-7.598878 -1.041818,-3.46523 1.179805,-10.802928 -4.217929,-10.872871 -4.206191,1.245949 -4.539403,6.334376 -6.641632,9.534155 -1.668081,3.954295 -5.624208,9.196159 -2.104312,13.19103 3.675578,3.20207 8.959555,1.731292 13.253672,3.345181 10.290647,2.68124 22.362313,2.331041 30.924766,-4.677368 6.456255,-4.928311 9.013724,-13.798571 7.001475,-21.557466 C 77.380716,64.866957 73.098807,59.65407 68.595168,55.060235 63.379447,49.49188 58.227287,42.63976 58.796846,34.582609 c 0.425074,-11.676787 18.710018,-9.613402 22.061022,-7.03053 3.562008,2.745509 1.671859,10.313923 4.814319,10.733045 3.14246,0.419122 4.581242,-5.812718 6.909521,-9.009048 1.686786,-3.180471 1.396553,-8.451592 -2.649569,-9.614213 C 71.396842,17.159036 51.001729,18.453694 47.798684,35.18047 Z"
     id="path2"
     style="fill:#000000;stroke:none;stroke-width:0.1"
     sodipodi:nodetypes="ccccccccccccczzccc" />
</svg>
