<?xml version="1.0" encoding="UTF-8" standalone="no"?>
<svg
   version="1.0"
   width="200pt"
   height="200pt"
   viewBox="0 0 200 200"
   preserveAspectRatio="xMidYMid"
   id="svg168"
   xmlns="http://www.w3.org/2000/svg"
   xmlns:svg="http://www.w3.org/2000/svg">
  <defs
     id="defs168" />
  <metadata
     id="metadata1">
Created by potrace 1.16, written by Peter Selinger 2001-2019
</metadata>
  <path
     d="m 82.4,44.9 c -1.8,1.1 -4.5,3.6 -6,5.5 -1.6,2 -3.7,3.6 -4.8,3.6 -1.6,0 -1.8,0.6 -1.3,4.7 0.7,6.3 -2.1,12.8 -6.5,15.1 -4.8,2.5 -10.582402,8.669726 -11.3,12.1 -0.717598,3.430274 -0.948689,9.516345 0.4,13.1 1.348689,3.58365 3.2,5.7 7.1,8.8 5.6,4.5 10,11.5 10,16 0,2.6 -4.1,7.2 -6.5,7.2 -1.2,0 -1.5,-0.6 -1,-2 1.1,-3.3 -1.2,-6 -5,-6 -4.3,0 -5.9,2.7 -5.2,8.3 1.2,8.7 8.9,10.8 15.6,4.3 2,-2 4.2,-3.6 4.8,-3.6 0.6,0 2.2,1.8 3.7,4 2.2,3.3 5.8,6 8.2,6 0.2,0 2.2,-1.8 4.4,-3.9 6.9,-6.7 13.8,-6.7 19.2,0 4.5,5.6 7.6,5.4 14.1,-1.1 2.7,-2.7 5.3,-5 5.8,-5 0.4,0 1.1,0.9 1.4,2 0.4,1.1 1.8,3.4 3.2,5 2,2.5 3.2,3 6.7,3 5.8,0 8.3,-2.1 9.2,-7.5 1.3,-9 -5.5,-12.8 -11.7,-6.6 -2.9,3 -2.9,3 -4.6,0.4 -4.1,-6.3 -1,-13.5 8.1,-19.4 6.3,-3.9 8.2,-7.3 9,-15.6 1,-10.5 -2.1,-16 -12.1,-21.4 -2.2,-1.2 -3.4,-3 -4.7,-7.2 -1.6,-5 -1.6,-5.8 -0.2,-8.5 2.1,-4 4.6,-4.9 4.6,-1.7 0,3.4 3.9,5.9 7.2,4.6 3.9,-1.5 5.1,-3.7 4.5,-7.9 -0.8,-4.6 -3.8,-7.2 -8.4,-7.2 -4.6,0 -6.7,1.2 -9.2,5.5 -1.1,1.9 -2.5,3.5 -3,3.5 -0.6,0 -2.4,-2 -4.1,-4.5 -4.1,-5.9 -7.5,-6.2 -11.6,-0.8 -3.9,5.2 -5.4,6.2 -9,6.3 -4.8,0 -9,-2.2 -13,-6.8 -1.9,-2.3 -3.9,-4.2 -4.2,-4.2 -0.4,0 -2.1,0.9 -3.8,1.9 z M 89.5,56 c 1.1,1.3 3.9,3.1 6.2,4.1 4.2,1.8 4.2,1.8 1.3,5 -3.3,3.4 -3.5,4.9 -1.9,10 2.6,8.3 3,8.9 5.9,8.9 2.5,0 2.9,-0.5 4,-5.1 1.5,-6.1 0.8,-12.3 -1.6,-15 -1.9,-2.1 -1.9,-2 5.2,-3.9 2.3,-0.5 4.7,-1.7 5.5,-2.6 3.4,-4.1 7.1,-3.9 9.4,0.6 1.4,2.7 1.3,3.1 -2.8,9.2 -4.2,6.4 -11.6,14.3 -15.2,16.5 -1.7,1 -1.8,1.3 -0.5,2.2 0.8,0.6 2,1.1 2.5,1.1 1.8,0 9.8,-7.2 14.8,-13.2 2.7,-3.2 5.3,-5.8 5.7,-5.8 0.5,0 1.4,1.7 2,3.9 0.8,3 1.8,4.2 4.3,5.2 7.2,2.8 12.7,9.3 12.7,14.8 0,5.5 -6,12.3 -13.5,15.1 -1.6,0.6 -3.1,2.5 -4.1,5 -0.9,2.2 -2.1,4 -2.8,4 -0.6,0 -4.9,-3.9 -9.6,-8.5 -5.8,-5.9 -9.1,-8.5 -10.5,-8.3 -3,0.4 -2.8,3.1 0.4,5.3 3.4,2.4 13.8,14.1 15.3,17.2 0.9,1.9 0.6,3 -1.7,6.3 -3.2,4.7 -6.1,5.2 -9.4,1.6 -1.3,-1.4 -3.6,-3 -5.2,-3.6 -1.6,-0.7 -2.9,-1.4 -2.9,-1.5 0,-0.1 0.7,-1.8 1.5,-3.8 1.9,-4.6 2.1,-8.2 0.6,-13.5 -1.1,-4 -1.4,-4.2 -5,-4.2 -3.3,0 -3.9,0.4 -5.4,3.5 -2.2,4.7 -2.1,8.7 0.3,13.7 2.1,4.4 1.6,5.7 -2.1,5.8 -0.9,0 -3.3,1.1 -5.3,2.5 -4.7,3.2 -6,3.1 -8.5,-0.4 -3.8,-5.3 -2.5,-8.3 8.3,-18.7 6.4,-6.1 8.2,-9.4 5.2,-9.4 -1.8,0 -11.7,8 -14.9,12.1 -3,3.8 -5.2,3.4 -6.2,-1.1 -0.4,-2 -1.8,-3.8 -3.8,-5 C 60.2,101.5 57,97.1 57,91.2 c 0,-6.9 2,-9.6 10.4,-13.7 3,-1.5 4.4,-3 5.2,-5.5 0.6,-1.9 1.6,-3.6 2.1,-3.7 0.5,-0.2 4.6,3.7 9.2,8.7 7.7,8.4 10,9.9 10.8,7.4 0.2,-0.5 -2.1,-3.9 -5,-7.6 C 80.5,64.9 78,61.3 78,59.8 c 0,-0.9 1.3,-3 3,-4.8 3.2,-3.4 4.7,-3.2 8.5,1 z"
     id="path41"
     style="fill:#000000;stroke:none;stroke-width:0.1" />
  <path
     d="m 61.6,87.6 c -3.5,3.4 -0.9,8 3.9,6.8 3.4,-0.9 4.1,-2.8 2.1,-5.9 -1.9,-2.9 -3.8,-3.2 -6,-0.9 z"
     id="path48"
     style="fill:#000000;stroke:none;stroke-width:0.1" />
  <path
     d="m 134,89.9 c -1.5,2.8 -1.2,4.6 0.8,6.4 3.7,3.4 8.2,1.5 8.2,-3.3 0,-1.4 -0.5,-3.1 -1.2,-3.8 -1.9,-1.9 -6.6,-1.5 -7.8,0.7 z"
     id="path51"
     style="fill:#000000;stroke:none;stroke-width:0.1" />
  <path
     d="m 53.9,48.5 c -2.2,5 -1.6,7.3 2.6,10.1 2.3,1.5 2.7,1.5 5,0 1.4,-0.9 2.7,-2.7 3.1,-4.1 0.5,-2 1.1,-2.4 3,-1.9 0.853598,0.224631 2.44991,3.670101 2.518741,4.457168 0.06921,0.791402 4.508294,-4.43999 2.336831,-3.27722 -0.27139,0.145323 -1.86065,-1.702851 -2.328089,-2.686184 C 68.710716,48.113366 64.5,44 59.9,44 c -3.8,0 -4.1,0.3 -6,4.5 z"
     id="path59"
     style="fill:#000000;stroke:none;stroke-width:0.1" />
</svg>
