<?xml version="1.0" standalone="no"?>
<!DOCTYPE svg PUBLIC "-//W3C//DTD SVG 20010904//EN"
 "http://www.w3.org/TR/2001/REC-SVG-20010904/DTD/svg10.dtd">
<svg version="1.0" xmlns="http://www.w3.org/2000/svg"
 width="200.000000pt" height="200.000000pt" viewBox="0 0 200.000000 200.000000"
 preserveAspectRatio="xMidYMid meet">
<metadata>
Created by potrace 1.16, written by Peter Selinger 2001-2019
</metadata>
<g transform="translate(0.000000,200.000000) scale(0.100000,-0.100000)"
fill="#000000" stroke="none">
<path d="M380 1780 c0 -5 15 -10 33 -9 27 0 29 2 12 9 -28 12 -45 12 -45 0z"/>
<path d="M490 1780 c0 -5 5 -10 10 -10 6 0 10 5 10 10 0 6 -4 10 -10 10 -5 0
-10 -4 -10 -10z"/>
<path d="M640 1780 c0 -5 5 -10 10 -10 6 0 10 5 10 10 0 6 -4 10 -10 10 -5 0
-10 -4 -10 -10z"/>
<path d="M695 1780 c-3 -5 1 -10 9 -10 8 0 18 5 21 10 3 6 -1 10 -9 10 -8 0
-18 -4 -21 -10z"/>
<path d="M760 1779 c0 -5 21 -9 47 -9 25 0 44 3 40 6 -10 10 -87 13 -87 3z"/>
<path d="M910 1777 c0 -5 7 -7 15 -3 8 3 27 1 41 -5 30 -11 68 -3 58 12 -7 13
-114 9 -114 -4z"/>
<path d="M1070 1780 c0 -5 7 -10 15 -10 8 0 15 5 15 10 0 6 -7 10 -15 10 -8 0
-15 -4 -15 -10z"/>
<path d="M1125 1780 c-3 -5 1 -10 10 -10 9 0 13 5 10 10 -3 6 -8 10 -10 10 -2
0 -7 -4 -10 -10z"/>
<path d="M1220 1782 c0 -15 11 -21 27 -15 12 5 12 7 1 14 -17 11 -28 11 -28 1z"/>
<path d="M1416 1781 c-3 -5 0 -11 7 -13 17 -7 38 2 31 13 -7 12 -31 12 -38 0z"/>
<path d="M1552 1777 c10 -8 32 -11 53 -9 47 6 36 15 -23 19 -40 3 -45 2 -30
-10z"/>
<path d="M372 1727 c-13 -27 -13 -247 0 -247 5 0 7 -14 3 -32 -4 -22 -3 -28 3
-20 7 11 10 11 15 -2 10 -25 63 -20 81 6 21 30 20 56 -5 97 -18 30 -23 33 -56
28 -35 -6 -35 -6 -28 41 8 55 13 62 26 42 8 -13 12 -11 29 8 10 13 16 30 13
37 -3 9 1 15 10 15 8 0 17 -6 20 -12 3 -10 9 -10 26 0 29 17 61 15 61 -3 0
-13 3 -13 20 -3 24 15 35 6 21 -20 -9 -16 -7 -21 10 -25 19 -5 20 -2 15 29 -6
27 -4 34 9 34 9 0 15 -9 15 -22 0 -43 16 -52 30 -19 7 17 16 31 21 31 5 0 6 6
3 14 -4 10 -36 13 -145 13 -122 -1 -139 -3 -134 -16 3 -10 -5 -20 -20 -28 -28
-13 -30 -11 -13 16 9 14 8 23 -4 40 -15 21 -15 21 -26 -2z"/>
<path d="M1595 1721 c-5 -24 -10 -30 -15 -20 -9 14 -90 22 -90 9 0 -4 -11 -15
-25 -24 -24 -16 -26 -16 -34 7 -8 21 -15 23 -90 26 -45 1 -81 -2 -81 -7 0 -21
30 -45 60 -48 30 -4 32 -3 26 22 -5 19 -4 24 6 18 7 -4 25 -7 40 -6 24 2 28
-2 28 -22 0 -27 18 -45 29 -28 10 17 78 50 87 44 5 -4 9 -14 9 -22 0 -8 8 -14
17 -14 10 1 16 -2 13 -6 -3 -4 2 -13 10 -20 8 -7 15 -19 15 -27 0 -8 6 -13 12
-11 18 6 21 104 4 136 -14 26 -14 26 -21 -7z m-281 -27 c4 -10 1 -14 -6 -12
-15 5 -23 28 -10 28 5 0 13 -7 16 -16z"/>
<path d="M1737 1718 c2 -5 13 -13 25 -19 15 -8 19 -8 14 0 -4 7 1 11 13 11 12
0 21 -6 22 -12 1 -7 3 -30 4 -50 2 -21 -1 -38 -6 -38 -6 0 -7 -5 -4 -10 4 -6
2 -17 -4 -24 -8 -10 -8 -16 3 -25 10 -8 13 -29 11 -71 -2 -33 1 -62 6 -66 5
-3 9 3 9 13 7 319 10 301 -46 299 -29 0 -50 -4 -47 -8z"/>
<path d="M745 1710 c-3 -5 1 -10 9 -10 15 0 31 -34 22 -48 -2 -4 0 -14 6 -22
8 -12 9 -12 4 2 -3 10 -1 20 4 23 6 4 10 14 10 25 0 20 26 35 36 19 3 -5 0
-17 -7 -25 -10 -13 -10 -17 1 -24 14 -9 39 14 40 37 0 11 25 12 101 5 9 -1 20
-12 23 -24 6 -23 6 -23 31 5 24 27 55 37 55 17 0 -5 -4 -10 -10 -10 -5 0 -10
-7 -10 -15 0 -22 31 -18 37 4 3 11 18 24 34 30 16 5 29 12 29 14 0 9 -409 7
-415 -3z"/>
<path d="M1176 1707 c2 -7 -2 -21 -11 -32 -14 -19 -16 -19 -28 -3 -8 10 -17
15 -20 11 -12 -11 14 -33 39 -33 13 0 28 9 34 20 6 11 17 20 24 20 8 0 19 7
26 15 11 13 7 15 -28 15 -30 0 -40 -4 -36 -13z"/>
<path d="M1440 1710 c0 -5 7 -10 16 -10 8 0 12 5 9 10 -3 6 -10 10 -16 10 -5
0 -9 -4 -9 -10z"/>
<path d="M1685 1710 c3 -5 10 -10 16 -10 5 0 9 5 9 10 0 6 -7 10 -16 10 -8 0
-12 -4 -9 -10z"/>
<path d="M730 1678 c0 -18 18 -34 28 -24 3 4 -2 14 -11 23 -16 16 -17 16 -17
1z"/>
<path d="M531 1671 c-9 -6 -10 -11 -2 -15 13 -8 31 1 31 15 0 11 -11 11 -29 0z"/>
<path d="M1222 1671 c-11 -6 -10 -10 4 -15 20 -8 32 0 18 14 -5 5 -15 5 -22 1z"/>
<path d="M940 1661 c0 -6 5 -13 10 -16 6 -3 10 1 10 9 0 9 -4 16 -10 16 -5 0
-10 -4 -10 -9z"/>
<path d="M470 1650 c0 -5 5 -10 11 -10 5 0 7 5 4 10 -3 6 -8 10 -11 10 -2 0
-4 -4 -4 -10z"/>
<path d="M912 1646 c1 -10 8 -17 13 -17 15 1 12 24 -3 29 -9 3 -13 -2 -10 -12z"/>
<path d="M1375 1650 c3 -5 8 -10 11 -10 2 0 4 5 4 10 0 6 -5 10 -11 10 -5 0
-7 -4 -4 -10z"/>
<path d="M1186 1642 c-3 -6 -1 -14 5 -17 15 -10 25 3 12 16 -7 7 -13 7 -17 1z"/>
<path d="M1720 1640 c0 -5 5 -10 10 -10 6 0 10 5 10 10 0 6 -4 10 -10 10 -5 0
-10 -4 -10 -10z"/>
<path d="M1254 1625 c-10 -8 -14 -15 -7 -15 19 0 43 11 43 21 0 13 -14 11 -36
-6z"/>
<path d="M1546 1625 c4 -8 10 -15 15 -15 5 0 9 7 9 15 0 8 -7 15 -15 15 -9 0
-12 -6 -9 -15z"/>
<path d="M695 1619 c-10 -15 1 -23 20 -15 9 3 13 10 10 16 -8 13 -22 13 -30
-1z"/>
<path d="M1045 1605 c0 -14 5 -23 10 -22 6 2 10 12 10 22 0 10 -4 20 -10 22
-5 2 -10 -8 -10 -22z"/>
<path d="M1310 1615 c0 -8 7 -15 15 -15 8 0 15 7 15 15 0 8 -7 15 -15 15 -8 0
-15 -7 -15 -15z"/>
<path d="M545 1610 c-3 -5 -2 -10 4 -10 5 0 13 5 16 10 3 6 2 10 -4 10 -5 0
-13 -4 -16 -10z"/>
<path d="M1115 1611 c-6 -11 9 -23 19 -14 9 9 7 23 -3 23 -6 0 -12 -4 -16 -9z"/>
<path d="M1410 1610 c0 -5 5 -10 11 -10 5 0 7 5 4 10 -3 6 -8 10 -11 10 -2 0
-4 -4 -4 -10z"/>
<path d="M481 1600 c0 -8 4 -22 9 -30 12 -18 12 -2 0 25 -6 13 -9 15 -9 5z"/>
<path d="M952 1588 c-14 -14 -16 -28 -3 -28 9 0 24 30 18 36 -2 2 -9 -2 -15
-8z"/>
<path d="M995 1589 c-10 -15 3 -25 16 -12 7 7 7 13 1 17 -6 3 -14 1 -17 -5z"/>
<path d="M1506 1587 c3 -10 9 -15 12 -12 3 3 0 11 -7 18 -10 9 -11 8 -5 -6z"/>
<path d="M770 1581 c0 -5 -8 -12 -17 -14 -15 -4 -15 -5 -2 -6 9 0 22 6 29 14
9 10 9 15 1 15 -6 0 -11 -4 -11 -9z"/>
<path d="M824 1551 c-18 -11 -45 -36 -60 -55 -16 -20 -37 -36 -48 -36 -16 0
-18 -6 -13 -47 7 -63 -21 -128 -65 -151 -48 -25 -105 -86 -113 -121 -10 -46
-21 -45 -35 2 -22 76 -29 86 -67 105 -38 17 -38 18 -35 73 3 41 -1 59 -12 69
-15 11 -16 3 -14 -85 3 -89 5 -98 23 -101 11 -2 21 -7 22 -11 2 -5 19 -33 39
-63 22 -34 33 -59 27 -66 -4 -6 -21 -30 -36 -53 -15 -23 -38 -46 -51 -51 -25
-9 -40 -35 -30 -52 4 -6 6 -42 5 -79 -1 -43 2 -69 8 -69 11 0 15 37 12 100 -2
32 4 41 48 78 41 35 52 51 57 83 8 50 22 46 43 -11 11 -31 32 -57 71 -88 56
-45 100 -115 100 -160 0 -26 -41 -72 -65 -72 -12 0 -15 6 -10 20 11 33 -12 60
-50 60 -43 0 -59 -27 -52 -83 12 -87 89 -108 156 -43 20 20 42 36 48 36 6 0
22 -18 37 -40 22 -33 58 -60 82 -60 2 0 22 18 44 39 69 67 138 67 192 0 45
-56 76 -54 141 11 27 27 53 50 58 50 4 0 11 -9 14 -20 4 -11 18 -34 32 -50 20
-25 32 -30 67 -30 58 0 83 21 92 75 13 90 -55 128 -117 66 -29 -30 -29 -30
-46 -4 -41 63 -10 135 81 194 63 39 82 73 90 156 10 105 -21 160 -121 214 -22
12 -34 30 -47 72 -16 50 -16 58 -2 85 21 40 46 49 46 17 0 -34 39 -59 72 -46
39 15 51 37 45 79 -8 46 -38 72 -84 72 -46 0 -67 -12 -92 -55 -11 -19 -25 -35
-30 -35 -6 0 -24 20 -41 45 -41 59 -75 62 -116 8 -39 -52 -54 -62 -90 -63 -48
0 -90 22 -130 68 -19 23 -39 42 -42 42 -4 0 -21 -9 -38 -19z m71 -111 c11 -13
39 -31 62 -41 42 -18 42 -18 13 -50 -33 -34 -35 -49 -19 -100 26 -83 30 -89
59 -89 25 0 29 5 40 51 15 61 8 123 -16 150 -19 21 -19 20 52 39 23 5 47 17
55 26 34 41 71 39 94 -6 14 -27 13 -31 -28 -92 -42 -64 -116 -143 -152 -165
-17 -10 -18 -13 -5 -22 8 -6 20 -11 25 -11 18 0 98 72 148 132 27 32 53 58 57
58 5 0 14 -17 20 -39 8 -30 18 -42 43 -52 72 -28 127 -93 127 -148 0 -55 -60
-123 -135 -151 -16 -6 -31 -25 -41 -50 -9 -22 -21 -40 -28 -40 -6 0 -49 39
-96 85 -58 59 -91 85 -105 83 -30 -4 -28 -31 4 -53 34 -24 138 -141 153 -172
9 -19 6 -30 -17 -63 -32 -47 -61 -52 -94 -16 -13 14 -36 30 -52 36 -16 7 -29
14 -29 15 0 1 7 18 15 38 19 46 21 82 6 135 -11 40 -14 42 -50 42 -33 0 -39
-4 -54 -35 -22 -47 -21 -87 3 -137 21 -44 16 -57 -21 -58 -9 0 -33 -11 -53
-25 -47 -32 -60 -31 -85 4 -38 53 -25 83 83 187 64 61 82 94 52 94 -18 0 -117
-80 -149 -121 -30 -38 -52 -34 -62 11 -4 20 -18 38 -38 50 -75 45 -107 89
-107 148 0 69 20 96 104 137 30 15 44 30 52 55 6 19 16 36 21 37 5 2 46 -37
92 -87 77 -84 100 -99 108 -74 2 5 -21 39 -50 76 -92 119 -117 155 -117 170 0
9 13 30 30 48 32 34 47 32 85 -10z"/>
<path d="M850 1380 c0 -5 5 -10 10 -10 6 0 10 5 10 10 0 6 -4 10 -10 10 -5 0
-10 -4 -10 -10z"/>
<path d="M1120 1314 c0 -8 5 -12 10 -9 6 3 10 10 10 16 0 5 -4 9 -10 9 -5 0
-10 -7 -10 -16z"/>
<path d="M761 1216 c-8 -9 -11 -19 -7 -23 9 -9 29 13 24 27 -2 8 -8 7 -17 -4z"/>
<path d="M1270 1200 c0 -5 5 -10 11 -10 5 0 7 5 4 10 -3 6 -8 10 -11 10 -2 0
-4 -4 -4 -10z"/>
<path d="M730 1169 c0 -5 5 -7 10 -4 6 3 10 8 10 11 0 2 -4 4 -10 4 -5 0 -10
-5 -10 -11z"/>
<path d="M768 1139 c-52 -19 -48 -75 6 -109 56 -34 116 -24 121 21 2 13 6 31
10 40 5 13 -5 22 -38 38 -48 23 -59 24 -99 10z"/>
<path d="M616 1124 c-35 -34 -9 -80 39 -68 34 9 41 28 21 59 -19 29 -38 32
-60 9z"/>
<path d="M1130 1129 c-33 -13 -38 -24 -31 -67 6 -35 8 -37 64 -49 49 -11 62
-11 87 2 16 8 33 23 38 33 13 26 -1 65 -28 79 -29 15 -95 16 -130 2z"/>
<path d="M956 1104 c-21 -20 -20 -47 2 -74 37 -46 109 10 84 65 -14 29 -61 35
-86 9z"/>
<path d="M1340 1101 c-15 -28 -12 -46 8 -64 37 -34 82 -15 82 33 0 14 -5 31
-12 38 -19 19 -66 15 -78 -7z"/>
<path d="M725 990 c-3 -5 -1 -10 4 -10 6 0 11 5 11 10 0 6 -2 10 -4 10 -3 0
-8 -4 -11 -10z"/>
<path d="M770 970 c0 -5 5 -10 10 -10 6 0 10 5 10 10 0 6 -4 10 -10 10 -5 0
-10 -4 -10 -10z"/>
<path d="M1234 945 c-9 -22 1 -29 15 -11 8 10 9 16 1 21 -5 3 -13 -1 -16 -10z"/>
<path d="M885 800 c-3 -5 -1 -10 4 -10 6 0 11 5 11 10 0 6 -2 10 -4 10 -3 0
-8 -4 -11 -10z"/>
<path d="M845 791 c-3 -5 -1 -12 5 -16 5 -3 10 1 10 9 0 18 -6 21 -15 7z"/>
<path d="M1110 760 c0 -5 4 -10 9 -10 6 0 13 5 16 10 3 6 -1 10 -9 10 -9 0
-16 -4 -16 -10z"/>
<path d="M1165 760 c3 -5 8 -10 11 -10 2 0 4 5 4 10 0 6 -5 10 -11 10 -5 0 -7
-4 -4 -10z"/>
<path d="M539 1515 c-22 -50 -16 -73 26 -101 23 -15 27 -15 50 0 14 9 27 27
31 41 5 20 11 24 30 19 19 -5 24 -2 24 14 0 33 -55 72 -101 72 -38 0 -41 -3
-60 -45z"/>
<path d="M1546 1538 c-24 -34 -20 -85 8 -113 38 -38 80 -16 69 36 -3 15 0 37
7 49 14 26 6 36 -37 45 -25 5 -34 2 -47 -17z"/>
<path d="M1060 1528 c-12 -22 -12 -22 6 -6 10 10 15 20 12 24 -4 3 -12 -5 -18
-18z"/>
<path d="M1725 1540 c-8 -13 -1 -24 14 -19 6 3 7 10 2 18 -6 10 -10 10 -16 1z"/>
<path d="M1725 1440 c-3 -6 1 -7 9 -4 18 7 21 14 7 14 -6 0 -13 -4 -16 -10z"/>
<path d="M1812 1383 c-10 -4 -10 -8 -1 -19 15 -18 29 -18 29 0 0 18 -11 25
-28 19z"/>
<path d="M1610 1361 c0 -12 -4 -21 -10 -21 -5 0 -10 7 -10 15 0 8 -7 15 -16
15 -8 0 -12 -5 -8 -11 3 -6 1 -15 -6 -19 -15 -9 -6 -40 10 -40 6 0 8 5 5 10
-3 6 -2 10 3 10 5 0 15 -12 22 -26 13 -23 15 -24 21 -7 11 27 10 81 -1 88 -5
3 -10 -3 -10 -14z"/>
<path d="M464 1359 c-3 -6 -17 -8 -30 -5 -19 5 -24 2 -24 -14 0 -17 5 -19 33
-13 41 7 65 28 43 36 -8 3 -18 1 -22 -4z"/>
<path d="M606 1355 c-11 -8 -17 -18 -13 -21 10 -11 37 4 37 21 0 18 0 18 -24
0z"/>
<path d="M538 1353 c-10 -2 -18 -9 -18 -14 0 -14 16 -11 30 6 7 8 11 14 9 14
-2 -1 -12 -3 -21 -6z"/>
<path d="M1390 1340 c0 -5 5 -10 10 -10 6 0 10 5 10 10 0 6 -4 10 -10 10 -5 0
-10 -4 -10 -10z"/>
<path d="M1820 1330 c0 -5 5 -10 10 -10 6 0 10 5 10 10 0 6 -4 10 -10 10 -5 0
-10 -4 -10 -10z"/>
<path d="M1480 1322 c0 -6 5 -12 11 -12 7 0 9 -10 7 -25 -6 -27 9 -34 19 -9 3
9 -3 25 -16 37 -11 12 -21 16 -21 9z"/>
<path d="M1780 1310 c0 -19 3 -21 12 -12 9 9 9 15 0 24 -9 9 -12 7 -12 -12z"/>
<path d="M500 1300 c0 -5 5 -10 10 -10 6 0 10 5 10 10 0 6 -4 10 -10 10 -5 0
-10 -4 -10 -10z"/>
<path d="M1818 1263 c-1 -16 -1 -37 0 -48 0 -11 -3 -32 -8 -47 -6 -18 -5 -30
1 -34 6 -3 9 -25 7 -48 -2 -22 2 -42 7 -44 6 -1 10 45 10 123 1 69 -3 125 -7
125 -4 0 -9 -12 -10 -27z"/>
<path d="M1575 1224 c-14 -15 -25 -32 -25 -39 0 -6 -9 -30 -20 -53 -20 -40
-20 -45 -5 -96 22 -74 115 -172 115 -120 0 18 -18 53 -36 71 -7 7 -17 36 -23
64 -12 55 -2 114 23 134 13 10 36 49 36 59 0 17 -44 3 -65 -20z"/>
<path d="M362 1161 c2 -7 7 -12 11 -12 12 1 9 15 -3 20 -7 2 -11 -2 -8 -8z"/>
<path d="M366 1122 c-8 -7 -8 -112 0 -112 34 0 75 69 55 94 -13 16 -47 27 -55
18z"/>
<path d="M1604 1116 c-9 -23 5 -68 19 -63 16 5 16 69 0 74 -7 3 -16 -2 -19
-11z"/>
<path d="M1720 1030 c0 -5 5 -10 11 -10 5 0 7 5 4 10 -3 6 -8 10 -11 10 -2 0
-4 -4 -4 -10z"/>
<path d="M1814 996 c5 -22 3 -26 -16 -26 -18 0 -20 -2 -8 -9 8 -6 17 -8 20 -6
3 2 3 -17 1 -41 -2 -27 1 -44 8 -44 12 0 12 3 14 89 2 39 -2 56 -12 59 -10 3
-12 -2 -7 -22z"/>
<path d="M1530 915 c7 -9 15 -13 17 -11 7 7 -7 26 -19 26 -6 0 -6 -6 2 -15z"/>
<path d="M424 889 c-3 -6 -1 -16 5 -22 8 -8 11 -8 11 1 0 7 11 12 25 12 14 0
25 5 25 10 0 14 -57 13 -66 -1z"/>
<path d="M1575 861 c-8 -14 26 -71 43 -71 21 0 10 51 -15 67 -14 10 -23 11
-28 4z"/>
<path d="M1520 848 c0 -9 7 -19 16 -22 25 -10 27 -1 4 19 -17 15 -20 16 -20 3z"/>
<path d="M1821 839 c-1 -15 -4 -41 -7 -58 -5 -24 -3 -31 10 -31 12 0 16 9 15
38 0 20 -4 46 -9 57 -8 18 -9 17 -9 -6z"/>
<path d="M1425 840 c-3 -5 1 -10 10 -10 9 0 13 5 10 10 -3 6 -8 10 -10 10 -2
0 -7 -4 -10 -10z"/>
<path d="M410 820 c0 -11 6 -20 14 -20 20 0 28 27 10 34 -23 9 -24 8 -24 -14z"/>
<path d="M1436 811 c-3 -5 1 -11 9 -15 8 -3 15 -1 15 4 0 13 -18 22 -24 11z"/>
<path d="M1341 774 c0 -11 3 -14 6 -6 3 7 2 16 -1 19 -3 4 -6 -2 -5 -13z"/>
<path d="M1536 748 c-39 -56 -3 -138 61 -138 35 0 35 1 28 33 -4 17 -6 49 -6
69 1 57 -53 79 -83 36z"/>
<path d="M388 743 c-27 -13 -28 -18 -28 -86 0 -73 0 -73 40 -74 54 -3 80 30
80 101 0 75 -28 93 -92 59z"/>
<path d="M1774 739 c-3 -6 -1 -16 5 -22 9 -9 10 -7 5 7 -5 13 -4 17 4 12 7 -4
12 -2 12 3 0 14 -17 14 -26 0z"/>
<path d="M1814 705 c-4 -9 -2 -21 3 -26 12 -12 5 -59 -8 -59 -5 0 -9 -4 -9 -9
0 -5 9 -7 19 -4 15 4 19 14 19 54 1 49 -13 74 -24 44z"/>
<path d="M687 581 c-3 -12 -2 -23 3 -26 12 -7 22 27 12 37 -6 6 -12 1 -15 -11z"/>
<path d="M950 590 c0 -5 5 -10 10 -10 6 0 10 5 10 10 0 6 -4 10 -10 10 -5 0
-10 -4 -10 -10z"/>
<path d="M1006 581 c-4 -5 -2 -12 3 -15 5 -4 12 -2 15 3 4 5 2 12 -3 15 -5 4
-12 2 -15 -3z"/>
<path d="M1601 561 c-7 -11 -20 -21 -31 -21 -21 0 -34 -15 -25 -30 4 -6 12 -5
21 4 17 18 44 11 44 -11 0 -10 -7 -14 -20 -10 -21 5 -29 -17 -9 -28 6 -4 8
-13 5 -21 -3 -9 1 -14 13 -14 24 0 31 19 31 78 0 60 -13 83 -29 53z"/>
<path d="M1814 536 c2 -28 0 -47 -8 -51 -8 -3 -8 -7 2 -11 14 -7 16 -50 3 -58
-6 -4 -5 -20 1 -42 6 -23 6 -45 0 -64 -12 -33 -4 -48 12 -22 17 25 14 284 -2
290 -9 3 -11 -9 -8 -42z"/>
<path d="M606 555 c4 -8 8 -15 10 -15 2 0 4 7 4 15 0 8 -4 15 -10 15 -5 0 -7
-7 -4 -15z"/>
<path d="M545 550 c3 -5 10 -10 16 -10 5 0 9 5 9 10 0 6 -7 10 -16 10 -8 0
-12 -4 -9 -10z"/>
<path d="M795 550 c3 -5 8 -10 11 -10 2 0 4 5 4 10 0 6 -5 10 -11 10 -5 0 -7
-4 -4 -10z"/>
<path d="M361 415 c1 -135 1 -135 25 -135 27 0 30 10 12 29 -9 8 -12 41 -10
108 2 98 -2 133 -19 133 -5 0 -8 -59 -8 -135z"/>
<path d="M420 530 c0 -5 4 -10 9 -10 5 0 13 -9 16 -20 7 -23 25 -27 25 -6 0 7
-11 21 -25 30 -14 9 -25 12 -25 6z"/>
<path d="M877 534 c-14 -14 -6 -24 19 -24 16 0 24 5 22 13 -5 14 -31 21 -41
11z"/>
<path d="M948 518 c-10 -10 -17 -18 -15 -19 35 -11 54 0 40 24 -6 10 -12 9
-25 -5z"/>
<path d="M1242 531 c4 -13 18 -16 19 -4 0 4 -5 9 -11 12 -7 2 -11 -2 -8 -8z"/>
<path d="M720 520 c0 -5 5 -10 10 -10 6 0 10 5 10 10 0 6 -4 10 -10 10 -5 0
-10 -4 -10 -10z"/>
<path d="M1021 514 c0 -11 3 -14 6 -6 3 7 2 16 -1 19 -3 4 -6 -2 -5 -13z"/>
<path d="M1057 517 c-4 -10 2 -13 19 -9 13 2 21 8 18 13 -8 14 -31 11 -37 -4z"/>
<path d="M1130 520 c0 -5 5 -10 10 -10 6 0 10 5 10 10 0 6 -4 10 -10 10 -5 0
-10 -4 -10 -10z"/>
<path d="M1310 514 c0 -14 3 -14 15 -4 8 7 15 14 15 16 0 2 -7 4 -15 4 -8 0
-15 -7 -15 -16z"/>
<path d="M680 509 c0 -5 5 -7 10 -4 6 3 10 8 10 11 0 2 -4 4 -10 4 -5 0 -10
-5 -10 -11z"/>
<path d="M1205 510 c-3 -5 -1 -10 4 -10 6 0 11 5 11 10 0 6 -2 10 -4 10 -3 0
-8 -4 -11 -10z"/>
<path d="M837 496 c-4 -10 -5 -21 -2 -24 9 -9 17 6 13 25 -3 17 -4 17 -11 -1z"/>
<path d="M1386 494 c-4 -9 -4 -19 -1 -22 2 -3 7 3 11 12 4 9 4 19 1 22 -2 3
-7 -3 -11 -12z"/>
<path d="M420 471 c0 -12 5 -21 10 -21 6 0 10 6 10 14 0 8 -4 18 -10 21 -5 3
-10 -3 -10 -14z"/>
<path d="M530 480 c-12 -8 -10 -10 8 -10 13 0 20 4 17 10 -7 12 -6 12 -25 0z"/>
<path d="M575 480 c-3 -5 1 -10 9 -10 9 0 16 5 16 10 0 6 -4 10 -9 10 -6 0
-13 -4 -16 -10z"/>
<path d="M1280 480 c0 -15 21 -23 33 -11 8 8 16 6 31 -6 20 -17 20 -17 4 1
-17 20 -68 31 -68 16z"/>
<path d="M670 472 c0 -5 7 -15 15 -22 8 -7 15 -8 15 -2 0 5 -7 15 -15 22 -8 7
-15 8 -15 2z"/>
<path d="M1200 461 c0 -28 36 -29 43 -1 3 11 1 20 -4 20 -5 0 -9 -5 -9 -11 0
-8 -5 -8 -15 1 -13 10 -15 9 -15 -9z"/>
<path d="M1436 473 c-11 -11 -7 -23 8 -23 8 0 16 -6 19 -12 2 -7 7 -11 10 -8
3 3 -3 15 -13 27 -9 12 -20 19 -24 16z"/>
<path d="M896 462 c-3 -6 -1 -14 5 -18 8 -4 7 -9 -2 -15 -11 -7 -10 -9 3 -9
24 0 30 14 14 35 -8 12 -15 14 -20 7z"/>
<path d="M477 453 c-13 -12 -7 -23 13 -23 13 0 18 5 14 15 -7 16 -17 19 -27 8z"/>
<path d="M640 450 c0 -5 5 -10 10 -10 6 0 10 5 10 10 0 6 -4 10 -10 10 -5 0
-10 -4 -10 -10z"/>
<path d="M855 450 c-3 -6 1 -7 9 -4 18 7 21 14 7 14 -6 0 -13 -4 -16 -10z"/>
<path d="M977 454 c-8 -8 1 -24 13 -24 4 0 10 7 14 15 5 15 -14 21 -27 9z"/>
<path d="M1030 444 c0 -9 7 -14 17 -12 25 5 28 28 4 28 -12 0 -21 -6 -21 -16z"/>
<path d="M741 438 c-1 -10 13 -30 29 -45 30 -27 40 -53 19 -53 -7 0 -17 7 -24
17 -11 15 -14 15 -35 0 -14 -10 -28 -13 -34 -8 -16 13 -129 -1 -134 -17 -3
-11 29 -13 172 -10 97 2 176 6 176 11 0 4 -10 8 -22 9 -13 0 -29 2 -37 2 -8 1
-16 7 -19 14 -2 6 -10 12 -18 12 -8 0 -14 6 -14 14 0 7 -9 16 -20 19 -11 3
-24 16 -29 29 -7 17 -10 18 -10 6z"/>
<path d="M1110 421 c0 -12 6 -21 16 -21 9 0 14 7 12 17 -5 25 -28 28 -28 4z"/>
<path d="M1390 431 c0 -5 7 -11 15 -15 9 -3 15 0 15 9 0 8 -7 15 -15 15 -8 0
-15 -4 -15 -9z"/>
<path d="M1544 419 c-15 -17 -16 -23 -6 -40 17 -27 7 -39 -26 -30 -20 6 -26
14 -25 29 2 12 -2 22 -7 22 -6 0 -10 -6 -10 -13 0 -30 -109 -56 -118 -28 -2 7
-14 21 -25 32 -20 19 -22 19 -28 2 -4 -10 -5 -21 -2 -25 7 -13 -23 -9 -52 6
-15 8 -33 23 -41 35 -9 12 -20 21 -26 21 -6 0 -3 -9 7 -20 15 -16 15 -22 5
-35 -7 -8 -18 -15 -24 -15 -13 0 -50 -40 -43 -46 2 -3 16 1 31 7 21 10 29 10
39 -1 9 -10 9 -13 0 -17 -21 -7 -15 -23 8 -23 16 0 19 4 15 17 -4 9 -1 20 6
25 10 6 10 10 -2 17 -8 5 -18 7 -22 5 -4 -3 -5 2 -2 10 3 9 11 16 18 16 15 -1
43 -23 43 -35 0 -5 7 -11 16 -13 10 -2 17 3 17 13 0 14 2 15 15 2 11 -11 43
-15 132 -16 65 -1 126 -2 136 -2 27 0 20 -19 -7 -19 -14 0 -27 -4 -30 -8 -3
-5 17 -9 45 -9 39 -1 49 3 49 16 0 9 -9 24 -20 34 -11 9 -20 22 -20 29 1 8 6
6 14 -5 13 -16 14 -16 19 4 9 34 -1 46 -34 41 -28 -4 -30 -2 -24 17 8 26 3 27
-21 0z"/>
<path d="M687 410 c3 -11 12 -20 19 -20 17 0 18 12 2 28 -18 18 -27 15 -21 -8z"/>
<path d="M410 370 c0 -52 0 -52 63 -45 68 8 88 18 69 37 -7 7 -12 22 -12 35 0
13 -4 23 -10 23 -5 0 -9 -8 -8 -17 3 -38 -3 -53 -20 -53 -20 0 -53 34 -49 52
1 6 -6 14 -15 16 -15 3 -18 -4 -18 -48z"/>
<path d="M840 395 c0 -8 7 -15 15 -15 8 0 15 7 15 15 0 8 -7 15 -15 15 -8 0
-15 -7 -15 -15z"/>
<path d="M615 390 c-19 -8 -19 -9 3 -9 12 -1 22 4 22 9 0 6 -1 10 -2 9 -2 0
-12 -4 -23 -9z"/>
<path d="M917 380 c-21 -24 -21 -30 -3 -30 8 0 17 -7 20 -16 9 -24 141 -13
168 14 19 18 19 19 -11 19 -19 0 -31 -5 -31 -14 0 -21 -21 -15 -27 7 -7 26
-11 25 -39 -6 -29 -30 -48 -23 -42 17 5 34 -10 38 -35 9z"/>
<path d="M550 296 c0 -11 21 -14 96 -15 59 -1 93 3 89 8 -3 6 -39 9 -81 7 -41
-1 -77 1 -80 6 -8 13 -24 9 -24 -6z"/>
<path d="M844 300 c-16 -3 -24 -8 -19 -12 15 -9 165 -8 165 2 0 10 -106 17
-146 10z"/>
<path d="M1048 293 c-8 -10 -1 -13 36 -13 25 0 46 4 46 9 0 15 -70 18 -82 4z"/>
<path d="M1354 298 c-9 -13 19 -18 51 -10 30 9 30 9 -8 13 -21 3 -40 1 -43 -3z"/>
<path d="M425 290 c3 -5 28 -10 56 -10 27 0 49 5 49 10 0 6 -25 10 -56 10 -34
0 -53 -4 -49 -10z"/>
<path d="M765 290 c3 -5 13 -10 21 -10 8 0 12 5 9 10 -3 6 -13 10 -21 10 -8 0
-12 -4 -9 -10z"/>
<path d="M1000 290 c0 -5 5 -10 10 -10 6 0 10 5 10 10 0 6 -4 10 -10 10 -5 0
-10 -4 -10 -10z"/>
<path d="M1234 293 c12 -12 96 -15 96 -4 0 7 -22 11 -52 11 -28 0 -48 -3 -44
-7z"/>
<path d="M1475 290 c3 -5 12 -10 20 -10 8 0 17 5 20 10 4 6 -5 10 -20 10 -15
0 -24 -4 -20 -10z"/>
<path d="M1814 223 c11 -40 -11 -83 -43 -84 -14 -1 -30 -2 -36 -4 -5 -1 -16
-3 -24 -3 -35 -4 5 -16 62 -18 62 -3 62 -3 62 67 0 51 -3 69 -14 69 -9 0 -11
-8 -7 -27z"/>
<path d="M370 226 c0 -9 7 -16 16 -16 9 0 14 5 12 12 -6 18 -28 21 -28 4z"/>
<path d="M466 232 c-3 -6 -1 -14 5 -17 15 -10 25 3 12 16 -7 7 -13 7 -17 1z"/>
<path d="M510 230 c0 -6 7 -10 15 -10 8 0 15 2 15 4 0 2 -7 6 -15 10 -8 3 -15
1 -15 -4z"/>
<path d="M850 230 c-32 -6 -33 -7 -10 -12 37 -8 80 -7 80 2 0 7 -28 23 -33 19
-1 -1 -18 -5 -37 -9z"/>
<path d="M939 229 c-7 -5 -12 -9 -9 -10 32 -5 60 -7 60 -4 0 12 -38 23 -51 14z"/>
<path d="M1203 233 c-20 -7 -15 -23 7 -23 11 0 20 4 20 9 0 13 -12 19 -27 14z"/>
<path d="M1290 223 c0 -9 18 -12 59 -10 74 3 71 22 -4 22 -37 0 -55 -4 -55
-12z"/>
<path d="M1508 233 c-40 -6 -34 -23 7 -23 24 0 35 5 35 15 0 8 -3 14 -7 14 -5
-1 -20 -4 -35 -6z"/>
<path d="M1577 234 c-13 -13 -7 -24 14 -24 11 0 19 5 17 12 -5 14 -22 21 -31
12z"/>
<path d="M580 220 c-11 -7 -5 -10 23 -10 23 0 36 4 32 10 -8 13 -35 13 -55 0z"/>
<path d="M660 220 c0 -5 6 -10 14 -10 8 0 18 5 21 10 3 6 -3 10 -14 10 -12 0
-21 -4 -21 -10z"/>
<path d="M1016 219 c6 -11 91 -11 119 1 13 5 -5 8 -53 8 -41 0 -70 -4 -66 -9z"/>
<path d="M1250 220 c0 -5 5 -10 11 -10 5 0 7 5 4 10 -3 6 -8 10 -11 10 -2 0
-4 -4 -4 -10z"/>
<path d="M1435 220 c3 -5 10 -10 16 -10 5 0 9 5 9 10 0 6 -7 10 -16 10 -8 0
-12 -4 -9 -10z"/>
<path d="M370 178 c0 -13 -3 -33 -6 -45 -6 -20 -3 -21 71 -21 53 0 75 4 72 12
-2 6 -21 11 -43 11 -47 0 -88 21 -80 40 3 8 1 17 -4 20 -6 4 -10 -4 -10 -17z"/>
<path d="M908 142 c-6 -21 -4 -22 80 -24 48 -1 96 -2 107 -1 11 0 31 1 45 2
14 0 42 0 63 -1 99 -2 135 2 141 18 4 10 2 13 -6 8 -6 -4 -92 -8 -190 -9 -153
-1 -180 1 -188 14 -6 10 -10 11 -10 4 0 -17 -27 -17 -32 -1 -3 7 -7 2 -10 -10z"/>
<path d="M566 135 c-5 -15 47 -26 66 -13 7 4 11 8 8 8 -3 0 -19 4 -37 9 -23 7
-33 6 -37 -4z"/>
<path d="M698 143 c-28 -7 -21 -23 10 -24 103 -4 126 -3 129 8 3 8 -11 10 -51
6 -39 -4 -56 -2 -56 6 0 11 -3 12 -32 4z"/>
<path d="M1626 141 c-3 -5 -45 -9 -93 -9 -138 1 -173 -1 -173 -11 0 -4 43 -8
95 -7 52 1 95 5 95 9 0 4 8 4 18 -1 15 -7 45 -8 106 -4 20 2 20 2 0 17 -22 17
-40 19 -48 6z"/>
<path d="M520 130 c0 -5 7 -10 15 -10 8 0 15 5 15 10 0 6 -7 10 -15 10 -8 0
-15 -4 -15 -10z"/>
<path d="M868 123 c7 -3 16 -2 19 1 4 3 -2 6 -13 5 -11 0 -14 -3 -6 -6z"/>
</g>
</svg>
