<?xml version="1.0" encoding="UTF-8" standalone="no"?>
<svg
   version="1.0"
   width="80.000000pt"
   height="86.000000pt"
   viewBox="0 0 80.000000 86.000000"
   preserveAspectRatio="xMidYMid meet"
   id="svg8"
   sodipodi:docname="n.svg"
   inkscape:version="1.4 (e7c3feb1, 2024-10-09)"
   xmlns:inkscape="http://www.inkscape.org/namespaces/inkscape"
   xmlns:sodipodi="http://sodipodi.sourceforge.net/DTD/sodipodi-0.dtd"
   xmlns="http://www.w3.org/2000/svg"
   xmlns:svg="http://www.w3.org/2000/svg">
  <defs
     id="defs8" />
  <sodipodi:namedview
     id="namedview8"
     pagecolor="#ffffff"
     bordercolor="#000000"
     borderopacity="0.25"
     inkscape:showpageshadow="2"
     inkscape:pageopacity="0.0"
     inkscape:pagecheckerboard="0"
     inkscape:deskcolor="#d1d1d1"
     inkscape:document-units="pt"
     inkscape:zoom="1.8139535"
     inkscape:cx="-22.602564"
     inkscape:cy="86.826923"
     inkscape:current-layer="svg8" />
  <metadata
     id="metadata1">
Created by potrace 1.16, written by Peter Selinger 2001-2019
</metadata>
  <path
     d="M 26.4,17.9 C 23.5,19.6 19,27 19,29.8 c 0,1.5 2.6,1.6 3.5,0.2 1,-1.6 5.5,-1.2 5.5,0.5 0,0.8 -2.9,7.1 -6.5,14 -5.4,10.4 -6.5,13.4 -6.5,17.4 0,3 0.6,5.3 1.4,6 1.6,1.4 2.6,0.3 13,-15.4 12,-18.1 21.7,-27.8 24.8,-24.7 0.8,0.8 0,3.6 -3.2,10.4 -2.4,5.1 -5.3,10.9 -6.5,12.8 -4.2,6.6 -6.5,11.9 -5.9,13.4 1,2.7 4.1,2.8 9.1,0.3 C 53.1,61.9 63.5,51.6 62.5,49.9 62,49.3 60.3,49.1 57.8,49.5 53.7,50.2 53.7,50.2 54.4,47.4 54.8,45.9 56,43.5 57,42 63.5,32.9 67.2,18.1 63.4,16.6 58.3,14.6 49.5,18.7 42.1,26.5 39.2,29.5 36.5,32 36,32 34.2,32 34,30 35.6,26.2 36.4,24 37,20.9 36.8,19.3 36.5,16.9 36,16.5 33,16.2 c -2.1,-0.1 -4.7,0.5 -6.6,1.7 z"
     id="path3"
     style="fill:#000000;stroke:none;stroke-width:0.1" />
</svg>
