<?xml version="1.0" encoding="UTF-8" standalone="no"?>
<svg
   version="1.0"
   width="158.000000pt"
   height="126.000000pt"
   viewBox="0 0 158.000000 126.000000"
   preserveAspectRatio="xMidYMid meet"
   id="svg16"
   sodipodi:docname="R.svg"
   inkscape:version="1.4 (e7c3feb1, 2024-10-09)"
   xmlns:inkscape="http://www.inkscape.org/namespaces/inkscape"
   xmlns:sodipodi="http://sodipodi.sourceforge.net/DTD/sodipodi-0.dtd"
   xmlns="http://www.w3.org/2000/svg"
   xmlns:svg="http://www.w3.org/2000/svg">
  <defs
     id="defs16" />
  <sodipodi:namedview
     id="namedview16"
     pagecolor="#ffffff"
     bordercolor="#000000"
     borderopacity="0.25"
     inkscape:showpageshadow="2"
     inkscape:pageopacity="0.0"
     inkscape:pagecheckerboard="0"
     inkscape:deskcolor="#d1d1d1"
     inkscape:document-units="pt"
     inkscape:zoom="3.5018621"
     inkscape:cx="86.239831"
     inkscape:cy="59.254189"
     inkscape:current-layer="svg16" />
  <metadata
     id="metadata1">
Created by potrace 1.16, written by Peter Selinger 2001-2019
</metadata>
  <path
     d="M 65.478742,16.105491 C 63.642735,19.738381 76,16.262536 76,23.5 76,24.417728 64.836268,51.023062 63.1,57.1 59,71 55.2,79.4 51.4,82.7 c -2,1.7 -4.8,3.3 -6.3,3.5 -1.8,0.2 -2.7,1 -2.9,2.5 -0.5,3.6 3.1,4.3 18.8,3.6 13.4,-0.6 14.1,-0.7 13.8,-2.6 -0.2,-1.4 -1.4,-2.4 -3.6,-2.9 -5.6,-1.5 -5.7,-4.6 -1,-20.1 2.1,-7.1 5,-10.3 8.2,-9.1 4.508528,1.753316 1.370523,3.443277 13,27.4 2.8,6 7.1,8.2 14.8,7.7 3.2,-0.2 6,-0.6 6.4,-0.9 1.4,-1.4 -0.9,-4.8 -4,-5.8 -1.8,-0.6 -4.2,-2.1 -5.4,-3.3 -0.99267,-1.964228 -16.87093,-28.706601 -13.9,-31.4 0.6,-0.5 3.2,-1.5 5.7,-2.3 11.4,-3.4 18.1,-10.6 18.8,-20.2 0.6,-7.6 -1,-11.2 -6,-13.8 -3.7,-1.9 -5.5,-2.1 -18.2,-1.9 -7.7,0.2 -15.9,0 -18.1,-0.4 -2.4,-0.4 -4.185251,-0.2274 -6.021258,3.405491 z M 100,20.7 c 3.4,2.3 4,3.3 4,7 0,8.7 -8.6,18.7 -17.1,19.9 -5.9,0.8 -7.4,-0.9 -6.6,-7.4 0.5,-4.4 5.5,-17.1 7.9,-19.9 1.5,-1.9 8.9,-1.6 11.8,0.4 z"
     id="path2"
     style="fill:#000000;stroke:none;stroke-width:0.1"
     sodipodi:nodetypes="zscccccccccccccccccccczcscccc" />
</svg>
