<?xml version="1.0" encoding="UTF-8" standalone="no"?>
<svg
   version="1.0"
   width="115.99999pt"
   height="124pt"
   viewBox="0 0 115.99999 124"
   preserveAspectRatio="xMidYMid"
   id="svg10"
   xmlns="http://www.w3.org/2000/svg"
   xmlns:svg="http://www.w3.org/2000/svg">
  <defs
     id="defs10" />
  <metadata
     id="metadata1">
Created by potrace 1.16, written by Peter Selinger 2001-2019
</metadata>
  <path
     d="m 29.3,19.8 c -5.8,0.9 -4.8,6.2 1.1,6.2 1.7,0 4.2,0.7 5.5,1.6 2.1,1.5 2.3,2.3 1.8,6.8 -0.3,2.8 -1.6,8 -3,11.6 -1.4,3.6 -4.7,13.7 -7.4,22.4 -4.1,13.8 -5.3,16.7 -9,21.2 -2.4,2.9 -4.3,5.7 -4.3,6.2 0,0.5 0.8,1.6 1.8,2.5 1.5,1.4 4.2,1.7 15.3,1.7 21.2,0 29.7,-2.3 35.7,-9.6 C 72.1,84 73.5,71.5 69.6,65.5 68.7,64.2 66.2,62.1 64,61 61.8,59.9 60,58.3 60,57.5 60,56.7 62.2,54.9 64.8,53.6 70,51 76.5,44.5 78,40.4 79.6,36.3 79.1,29.8 77,26.3 73.3,20.2 70.7,19.5 50,19.5 c -10.2,0 -19.5,0.1 -20.7,0.3 z m 36.5,8.9 c 1.9,2.7 1.5,11.1 -0.9,16 C 62.3,50 57.8,53.5 52.6,54.3 44.7,55.5 43.3,52 47.1,40.7 51.4,28 55,24.3 61.5,26.2 c 1.7,0.4 3.6,1.6 4.3,2.5 z M 55,61 c 4.5,2.4 7.4,12.1 5.6,19.1 C 57.8,90.6 46.5,96.9 38,92.5 34,90.4 33.6,88.3 35.9,78.8 38.2,69.3 40.2,63.9 42.5,61.6 44.4,59.8 52,59.4 55,61 Z"
     id="path4"
     style="fill:#000000;stroke:none;stroke-width:0.1" />
</svg>
