<?xml version="1.0" standalone="no"?>
<!DOCTYPE svg PUBLIC "-//W3C//DTD SVG 20010904//EN"
 "http://www.w3.org/TR/2001/REC-SVG-20010904/DTD/svg10.dtd">
<svg version="1.0" xmlns="http://www.w3.org/2000/svg"
 width="116.000000pt" height="124.000000pt" viewBox="0 0 116.000000 124.000000"
 preserveAspectRatio="xMidYMid meet">
<metadata>
Created by potrace 1.16, written by Peter Selinger 2001-2019
</metadata>
<g transform="translate(0.000000,124.000000) scale(0.100000,-0.100000)"
fill="#000000" stroke="none">
<path d="M895 1201 c-27 -3 -45 -9 -40 -12 15 -9 95 2 95 12 0 5 -1 8 -2 7 -2
0 -25 -4 -53 -7z"/>
<path d="M1064 1087 c-9 -9 -4 -15 20 -23 25 -9 31 -16 29 -37 -1 -15 -11 -36
-22 -49 -27 -28 -26 -33 4 -36 25 -2 31 13 26 56 -1 6 2 12 7 12 14 0 21 71 8
75 -38 11 -62 12 -72 2z"/>
<path d="M996 1053 c-5 -11 0 -22 11 -31 16 -11 19 -10 24 10 3 13 4 26 2 31
-8 13 -31 7 -37 -10z"/>
<path d="M293 1042 c-58 -9 -48 -62 11 -62 17 0 42 -7 55 -16 21 -15 23 -23
18 -68 -3 -28 -16 -80 -30 -116 -14 -36 -47 -137 -74 -224 -41 -138 -53 -167
-90 -212 -24 -29 -43 -57 -43 -62 0 -5 8 -16 18 -25 15 -14 42 -17 153 -17
212 0 297 23 357 96 53 64 67 189 28 249 -9 13 -34 34 -56 45 -22 11 -40 27
-40 35 0 8 22 26 48 39 52 26 117 91 132 132 16 41 11 106 -10 141 -37 61 -63
68 -270 68 -102 0 -195 -1 -207 -3z m365 -89 c19 -27 15 -111 -9 -160 -26 -53
-71 -88 -123 -96 -79 -12 -93 23 -55 136 43 127 79 164 144 145 17 -4 36 -16
43 -25z m-108 -323 c45 -24 74 -121 56 -191 -28 -105 -141 -168 -226 -124 -40
21 -44 42 -21 137 23 95 43 149 66 172 19 18 95 22 125 6z"/>
<path d="M1010 961 c-12 -31 -5 -91 11 -91 5 0 9 17 10 38 0 20 2 45 4 54 6
31 -12 29 -25 -1z"/>
<path d="M1060 915 c0 -12 -5 -26 -10 -31 -7 -7 -6 -11 4 -11 18 0 27 30 15
48 -7 11 -9 9 -9 -6z"/>
<path d="M980 858 c0 -4 5 -8 12 -8 6 0 8 -3 5 -7 -7 -6 21 -32 36 -33 4 0 7
11 7 24 0 19 -6 25 -30 28 -16 3 -30 1 -30 -4z"/>
<path d="M990 810 c-9 -6 -10 -10 -3 -10 6 0 15 5 18 10 8 12 4 12 -15 0z"/>
<path d="M961 709 c-34 -34 -64 -78 -91 -134 -37 -78 -40 -90 -40 -170 0 -98
9 -121 51 -139 82 -34 249 51 249 127 0 8 7 20 15 27 12 10 15 41 15 159 0
146 0 146 -32 163 -18 9 -52 17 -75 17 -36 0 -48 -6 -92 -50z m131 -118 c-1
-52 -8 -81 -21 -100 -10 -14 -21 -37 -24 -51 -7 -29 -83 -110 -103 -110 -59 0
-11 233 64 313 20 21 34 27 57 25 30 -3 30 -3 27 -77z"/>
<path d="M1120 269 c0 -4 -11 -9 -25 -11 -34 -4 -27 -23 8 -21 44 2 79 39 37
39 -11 0 -20 -4 -20 -7z"/>
</g>
</svg>
