<?xml version="1.0" standalone="no"?>
<!DOCTYPE svg PUBLIC "-//W3C//DTD SVG 20010904//EN"
 "http://www.w3.org/TR/2001/REC-SVG-20010904/DTD/svg10.dtd">
<svg version="1.0" xmlns="http://www.w3.org/2000/svg"
 width="160.000000pt" height="214.000000pt" viewBox="0 0 160.000000 214.000000"
 preserveAspectRatio="xMidYMid meet">
<metadata>
Created by potrace 1.16, written by Peter Selinger 2001-2019
</metadata>
<g transform="translate(0.000000,214.000000) scale(0.100000,-0.100000)"
fill="#000000" stroke="none">
<path d="M280 2057 c0 -91 5 -105 29 -83 13 11 15 31 13 90 -3 67 -6 76 -23
76 -17 0 -19 -8 -19 -83z"/>
<path d="M1308 2064 c-2 -51 1 -79 9 -86 24 -19 33 4 33 83 0 71 -2 79 -19 79
-17 0 -20 -9 -23 -76z"/>
<path d="M458 1972 c-32 -2 -52 -9 -60 -21 -7 -10 -32 -22 -56 -26 -32 -5 -42
-11 -42 -25 0 -10 6 -22 13 -27 20 -13 77 -11 88 4 6 7 17 13 24 13 6 0 20 9
30 20 10 11 26 20 35 20 19 0 36 29 23 39 -4 3 -29 5 -55 3z"/>
<path d="M178 1959 c-7 -5 -50 -9 -95 -9 -76 0 -83 -2 -83 -20 0 -13 7 -20 18
-20 10 0 21 -3 24 -6 3 -3 34 -7 67 -9 51 -2 63 0 71 15 8 14 18 17 49 13 35
-5 63 9 47 24 -11 11 -85 20 -98 12z"/>
<path d="M1378 1959 c-10 -5 -48 -13 -85 -16 -55 -5 -62 -8 -42 -15 13 -5 54
-10 91 -10 38 0 71 -4 74 -10 3 -5 8 -139 9 -296 4 -336 3 -302 14 -302 5 0 9
88 10 197 0 108 3 199 7 202 3 3 36 4 75 2 64 -3 69 -1 69 18 0 18 -7 20 -71
23 -72 3 -72 3 -70 101 2 91 1 97 -18 97 -11 0 -23 5 -26 10 -8 12 -15 12 -37
-1z"/>
<path d="M554 1931 c8 -12 237 -13 256 -1 10 7 -28 10 -123 10 -79 0 -136 -4
-133 -9z"/>
<path d="M844 1933 c12 -12 376 -16 376 -4 0 8 -63 11 -192 11 -105 0 -188 -3
-184 -7z"/>
<path d="M26 1788 c-8 -72 -6 -247 4 -278 5 -15 8 48 9 153 1 97 -1 177 -3
177 -2 0 -6 -24 -10 -52z"/>
<path d="M158 1693 c6 -65 12 -67 12 -5 0 29 -4 52 -8 52 -5 0 -7 -21 -4 -47z"/>
<path d="M153 1536 c1 -52 5 -89 9 -82 11 16 10 176 -1 176 -5 0 -8 -42 -8
-94z"/>
<path d="M694 1564 c-49 -18 -119 -75 -139 -113 -21 -41 -29 -123 -16 -163 15
-45 87 -113 191 -181 126 -81 155 -121 138 -183 -11 -41 -66 -90 -112 -98 -44
-8 -104 17 -116 48 -5 12 -14 36 -20 54 -14 35 -53 53 -73 33 -7 -7 -11 -38
-10 -74 1 -55 4 -64 32 -89 41 -37 101 -51 196 -46 92 5 144 32 190 98 29 42
43 129 31 193 -9 50 -80 125 -180 190 -123 82 -148 120 -123 192 10 29 23 45
48 57 70 36 140 15 179 -54 13 -23 29 -38 40 -38 22 0 39 25 34 49 -1 9 -6 33
-9 53 -5 31 -12 40 -48 57 -58 28 -178 36 -233 15z"/>
<path d="M27 1473 c-3 -5 -5 -55 -5 -113 -1 -82 1 -100 10 -80 12 29 17 189 7
196 -4 2 -10 1 -12 -3z"/>
<path d="M162 1400 c0 -14 2 -19 5 -12 2 6 2 18 0 25 -3 6 -5 1 -5 -13z"/>
<path d="M162 1310 c0 -19 2 -27 5 -17 2 9 2 25 0 35 -3 9 -5 1 -5 -18z"/>
<path d="M1183 1333 c-22 -8 -14 -30 10 -28 12 1 22 8 22 15 0 15 -14 21 -32
13z"/>
<path d="M1154 1283 c-20 -4 -74 -55 -74 -69 0 -4 7 -12 16 -19 15 -10 16 -23
7 -100 -12 -119 9 -252 53 -317 23 -36 27 -38 77 -38 28 1 77 6 108 13 49 11
62 19 111 72 30 33 60 70 66 82 7 12 12 64 12 116 0 106 -10 129 -95 214 -42
42 -46 43 -97 41 -29 -2 -78 0 -108 3 -30 4 -65 5 -76 2z m255 -127 c9 -20 14
-69 14 -153 0 -112 -1 -126 -20 -145 -33 -32 -100 -35 -143 -6 -53 36 -63 78
-49 207 6 58 16 112 22 119 7 9 33 12 86 10 73 -3 76 -4 90 -32z"/>
<path d="M1253 1122 c-10 -7 -10 -12 0 -27 16 -21 37 -12 37 16 0 20 -16 24
-37 11z"/>
<path d="M1332 1118 c-16 -16 -15 -28 3 -28 8 0 15 9 15 20 0 23 -2 24 -18 8z"/>
<path d="M74 1259 c-7 -12 -7 -90 1 -97 2 -2 12 1 23 7 15 8 20 20 18 41 -3
38 -29 69 -42 49z"/>
<path d="M21 1090 c0 -47 4 -92 9 -100 12 -19 12 136 0 165 -6 13 -9 -8 -9
-65z"/>
<path d="M172 1134 c2 -22 8 -38 13 -36 15 3 12 65 -3 70 -10 3 -13 -6 -10
-34z"/>
<path d="M28 964 c-4 -3 -7 -128 -8 -276 0 -158 -4 -277 -10 -288 -17 -32 -12
-50 13 -50 24 0 24 0 19 -175 -5 -175 -5 -175 17 -175 22 0 23 3 20 96 -2 70
1 98 10 103 9 6 10 11 2 15 -6 4 -11 37 -11 79 0 57 -4 76 -17 88 -16 13 -18
39 -17 284 1 254 -2 315 -18 299z"/>
<path d="M162 864 c4 -23 27 -31 24 -8 -2 10 -8 20 -15 22 -8 3 -12 -3 -9 -14z"/>
<path d="M1574 795 c-8 -19 2 -45 16 -45 5 0 10 14 10 30 0 31 -16 41 -26 15z"/>
<path d="M1153 624 c-1 -48 -6 -91 -12 -97 -6 -6 -11 -23 -11 -38 0 -28 -30
-45 -48 -27 -12 12 -64 -1 -59 -16 2 -6 18 -10 36 -8 26 2 33 -3 41 -23 10
-26 24 -32 34 -16 4 5 0 11 -6 14 -24 9 43 27 97 27 86 0 84 -26 -3 -38 -39
-6 -48 -11 -50 -30 -3 -21 0 -22 57 -22 48 0 61 3 61 15 0 9 7 27 16 40 13 20
14 28 4 40 -7 8 -16 12 -22 9 -5 -3 -16 0 -24 7 -9 7 -28 12 -42 11 -27 -2
-27 -2 -27 78 0 44 3 80 8 80 4 0 7 13 7 30 0 27 -22 50 -47 50 -5 0 -9 -39
-10 -86z m24 -146 c-3 -8 -6 -5 -6 6 -1 11 2 17 5 13 3 -3 4 -12 1 -19z"/>
<path d="M1478 677 c14 -6 26 -7 32 -1 5 5 -4 9 -23 10 -30 1 -30 1 -9 -9z"/>
<path d="M1113 635 c0 -22 2 -30 4 -17 2 12 2 30 0 40 -3 9 -5 -1 -4 -23z"/>
<path d="M1096 563 c-11 -11 -6 -23 9 -23 8 0 15 4 15 9 0 13 -16 22 -24 14z"/>
<path d="M146 553 c-3 -3 -6 -11 -6 -17 0 -6 5 -4 11 4 8 11 9 8 4 -13 -4 -19
-2 -26 5 -22 5 3 10 15 10 25 0 20 -13 33 -24 23z"/>
<path d="M1431 534 c0 -11 3 -14 6 -6 3 7 2 16 -1 19 -3 4 -6 -2 -5 -13z"/>
<path d="M1436 456 c-8 -6 -16 -24 -18 -41 -3 -26 -8 -31 -41 -36 -47 -7 -60
-19 -21 -19 16 0 46 -3 67 -7 39 -6 39 -6 35 33 -3 39 -3 39 70 42 63 3 72 5
72 22 0 17 -7 19 -75 18 -41 0 -81 -6 -89 -12z"/>
<path d="M331 412 c-39 -12 -49 -37 -28 -73 9 -17 17 -37 17 -45 0 -11 15 -14
64 -14 64 0 64 0 59 63 -3 34 -7 64 -9 65 -6 8 -81 10 -103 4z m78 -27 c6 -3
11 -13 11 -21 0 -17 -75 -20 -85 -4 -17 27 40 46 74 25z"/>
<path d="M110 370 c0 -5 12 -10 26 -10 14 0 23 4 19 10 -3 6 -15 10 -26 10
-10 0 -19 -4 -19 -10z"/>
<path d="M210 370 c0 -5 7 -10 15 -10 8 0 15 5 15 10 0 6 -7 10 -15 10 -8 0
-15 -4 -15 -10z"/>
<path d="M1390 310 c-12 -23 -6 -40 15 -40 19 0 27 17 20 40 -8 26 -21 25 -35
0z"/>
<path d="M1309 296 c-17 -8 -25 -21 -27 -46 -2 -19 -8 -40 -13 -46 -16 -20
-23 -109 -10 -133 21 -38 34 -13 28 55 -4 58 -3 64 14 64 15 0 19 7 19 39 0
30 4 40 20 44 11 3 20 10 20 15 0 17 -26 21 -51 8z"/>
<path d="M554 283 c11 -11 48 -14 41 -3 -3 5 -16 10 -27 10 -12 0 -18 -3 -14
-7z"/>
<path d="M1228 273 c7 -3 16 -2 19 1 4 3 -2 6 -13 5 -11 0 -14 -3 -6 -6z"/>
<path d="M1210 212 c0 -5 7 -9 15 -9 8 0 15 4 15 9 0 4 -7 8 -15 8 -8 0 -15
-4 -15 -8z"/>
<path d="M378 203 c29 -2 74 -2 100 0 26 2 2 3 -53 3 -55 0 -76 -1 -47 -3z"/>
<path d="M1035 130 c-3 -5 -1 -10 4 -10 6 0 11 5 11 10 0 6 -2 10 -4 10 -3 0
-8 -4 -11 -10z"/>
<path d="M590 35 c-34 -35 -34 -35 50 -35 80 0 82 1 67 18 -10 10 -17 26 -17
35 0 13 -9 17 -33 17 -25 0 -42 -9 -67 -35z"/>
<path d="M1123 42 c-18 -2 -33 -7 -33 -13 0 -5 -16 -9 -35 -9 -19 0 -35 -4
-35 -10 0 -6 52 -10 135 -10 83 0 135 4 135 10 0 6 -13 10 -29 10 -16 0 -31 4
-33 8 -4 11 -63 19 -105 14z"/>
<path d="M745 10 c-4 -6 12 -10 39 -10 25 0 46 5 46 10 0 6 -18 10 -39 10 -22
0 -43 -4 -46 -10z"/>
</g>
</svg>
