<?xml version="1.0" standalone="no"?>
<!DOCTYPE svg PUBLIC "-//W3C//DTD SVG 20010904//EN"
 "http://www.w3.org/TR/2001/REC-SVG-20010904/DTD/svg10.dtd">
<svg version="1.0" xmlns="http://www.w3.org/2000/svg"
 width="181.000000pt" height="204.000000pt" viewBox="0 0 181.000000 204.000000"
 preserveAspectRatio="xMidYMid meet">
<metadata>
Created by potrace 1.16, written by Peter Selinger 2001-2019
</metadata>
<g transform="translate(0.000000,204.000000) scale(0.100000,-0.100000)"
fill="#000000" stroke="none">
<path d="M162 2003 c3 -38 3 -38 -44 -35 -52 4 -53 2 -42 -57 7 -35 23 -41 31
-12 3 11 18 25 33 31 28 11 40 28 45 60 1 8 4 21 6 29 2 8 -4 17 -14 19 -15 3
-18 -2 -15 -35z"/>
<path d="M482 2028 c3 -9 36 -14 105 -16 80 -2 103 0 113 13 11 13 -1 15 -105
15 -89 0 -116 -3 -113 -12z"/>
<path d="M860 2031 c0 -14 25 -31 51 -33 31 -3 119 22 119 33 0 5 -38 9 -85 9
-47 0 -85 -4 -85 -9z"/>
<path d="M1140 2030 c0 -6 37 -10 90 -10 53 0 90 4 90 10 0 6 -37 10 -90 10
-53 0 -90 -4 -90 -10z"/>
<path d="M1440 2031 c0 -6 5 -13 10 -16 6 -4 8 -15 5 -24 -8 -26 48 -40 180
-45 61 -3 125 -8 143 -12 28 -5 32 -4 32 15 0 17 -6 21 -30 21 -16 0 -30 5
-30 11 0 7 -45 10 -137 8 -138 -2 -138 -2 -135 25 2 20 -2 26 -18 26 -11 0
-20 -4 -20 -9z"/>
<path d="M318 1993 c-43 -2 -78 -7 -78 -12 0 -10 128 -14 177 -5 31 6 34 8 18
15 -11 4 -24 7 -30 6 -5 0 -45 -3 -87 -4z"/>
<path d="M16 1892 c-2 -4 -1 -14 5 -22 14 -23 11 -60 -6 -66 -17 -7 -21 -34
-5 -34 17 0 43 49 37 71 -3 12 0 22 9 26 11 4 12 9 3 19 -13 15 -35 18 -43 6z"/>
<path d="M780 1878 c0 -6 -12 -35 -27 -64 -21 -41 -30 -51 -40 -43 -8 7 -32 8
-62 4 -54 -7 -54 -8 -42 -97 1 -11 69 -10 76 2 3 5 11 7 18 5 23 -8 59 33 64
74 3 22 14 48 24 57 11 9 19 23 19 29 0 7 7 15 15 19 26 10 16 26 -15 26 -16
0 -30 -5 -30 -12z m-37 -128 c-6 -24 -51 -50 -88 -50 -19 0 -25 5 -25 23 0 18
6 23 33 26 60 6 67 7 73 14 11 11 13 8 7 -13z"/>
<path d="M445 1861 c-3 -6 -3 -22 1 -36 4 -15 2 -25 -4 -25 -7 0 -4 -13 6 -30
27 -47 62 -36 62 21 0 12 -7 19 -20 19 -15 0 -20 7 -20 24 0 27 -15 42 -25 27z"/>
<path d="M11 1644 c0 -11 3 -14 6 -6 3 7 2 16 -1 19 -3 4 -6 -2 -5 -13z"/>
<path d="M1695 1620 c-3 -5 -19 -10 -36 -10 -16 0 -29 -4 -29 -10 0 -5 -7 -10
-14 -10 -24 0 -65 -45 -96 -105 -34 -66 -44 -106 -35 -136 6 -19 8 -19 24 -4
16 14 19 14 31 0 22 -27 30 -16 30 39 0 30 5 58 10 61 6 4 8 10 5 15 -9 15 42
84 76 104 31 18 31 18 63 -13 20 -19 42 -31 59 -31 25 0 27 3 27 43 0 24 -5
48 -12 55 -14 14 -94 16 -103 2z"/>
<path d="M1038 1592 c-35 -4 -48 -40 -22 -59 10 -7 34 -13 55 -13 60 0 62 -6
56 -237 -4 -175 -8 -218 -26 -271 -11 -34 -26 -72 -32 -84 -31 -57 -108 -88
-220 -88 -72 0 -80 2 -121 33 -89 68 -118 175 -118 440 0 154 2 169 20 187 14
14 33 20 64 20 54 0 78 22 52 48 -14 14 -41 17 -188 17 -157 1 -174 -1 -191
-18 -20 -20 -20 -20 4 -38 13 -10 31 -19 40 -19 42 0 48 -27 59 -251 11 -247
14 -266 47 -333 28 -56 57 -85 132 -134 45 -29 68 -36 134 -43 139 -14 247 21
330 107 76 79 91 144 106 457 9 193 11 197 90 205 56 5 67 24 32 56 -15 14
-42 17 -147 19 -71 1 -141 1 -156 -1z"/>
<path d="M0 1430 c0 -5 5 -10 10 -10 6 0 10 5 10 10 0 6 -4 10 -10 10 -5 0
-10 -4 -10 -10z"/>
<path d="M1480 1296 c-8 -8 -30 -28 -48 -45 -33 -30 -33 -30 -7 -70 26 -38 26
-42 23 -180 -3 -140 -3 -140 -35 -168 -49 -44 -33 -56 84 -61 54 -2 103 -8
109 -13 11 -9 24 -2 24 11 0 4 -12 20 -26 35 -36 39 -43 64 -54 179 -7 71 -7
117 1 156 16 79 22 84 96 76 61 -6 63 -6 63 17 0 13 5 28 12 35 32 32 -66 34
-111 3 -39 -28 -48 -26 -56 9 -5 24 -12 30 -34 30 -14 0 -33 -6 -41 -14z"/>
<path d="M1780 1261 c-5 -11 -19 -23 -30 -26 -12 -4 -20 -15 -20 -29 0 -13 -7
-40 -15 -59 -19 -46 -19 -159 0 -212 8 -22 15 -54 15 -71 0 -20 9 -39 28 -57
42 -40 52 -35 52 27 0 46 -4 59 -30 86 -26 28 -30 40 -30 90 0 57 18 90 48 90
17 0 15 37 -3 44 -8 3 -15 10 -15 15 0 5 7 16 15 25 16 16 21 96 5 96 -5 0
-14 -9 -20 -19z"/>
<path d="M1705 809 c-10 -15 3 -25 16 -12 7 7 7 13 1 17 -6 3 -14 1 -17 -5z"/>
<path d="M1736 579 c-17 -14 -26 -30 -26 -50 0 -16 -4 -29 -9 -29 -4 0 -6 -11
-4 -24 4 -19 0 -24 -27 -30 -55 -11 -61 -8 -54 19 5 19 3 24 -8 20 -10 -4 -13
-16 -10 -36 6 -39 -8 -49 -72 -49 -27 0 -46 -3 -42 -7 4 -4 26 -6 50 -4 33 2
45 -2 50 -15 10 -27 -14 -46 -53 -41 -23 2 -49 -3 -71 -15 -19 -10 -30 -18
-24 -18 7 0 9 -32 6 -100 -3 -71 -1 -104 8 -115 23 -28 31 -3 29 98 -2 102 -2
102 75 105 76 3 76 3 76 66 0 64 0 64 61 59 61 -6 61 -6 58 73 -4 79 -4 79 29
76 27 -3 32 0 32 17 0 28 -38 28 -74 0z"/>
<path d="M0 570 c0 -5 5 -10 10 -10 6 0 10 -12 10 -26 0 -25 1 -26 63 -22 53
2 62 0 62 -14 0 -9 4 -20 8 -24 4 -4 7 -112 7 -241 0 -230 0 -233 21 -233 20
0 21 4 19 148 -1 81 -2 150 -1 155 2 9 2 165 0 175 -1 4 -2 14 -3 22 0 8 -11
16 -23 18 -12 2 -27 10 -33 18 -7 8 -27 14 -44 14 -18 0 -41 7 -52 15 -22 17
-44 19 -44 5z"/>
<path d="M276 401 c-4 -5 -2 -12 3 -15 5 -4 12 -2 15 3 4 5 2 12 -3 15 -5 4
-12 2 -15 -3z"/>
<path d="M323 394 c-3 -7 -2 -18 1 -23 8 -12 -3 -61 -14 -61 -4 0 -12 10 -18
23 -11 22 -11 22 -11 -4 -1 -21 5 -28 28 -32 41 -9 101 3 101 19 0 16 -16 19
-25 4 -14 -23 -30 2 -28 44 2 33 -1 43 -13 43 -9 0 -18 -6 -21 -13z"/>
<path d="M390 375 c0 -46 14 -46 17 0 1 19 -3 35 -8 35 -5 0 -9 -16 -9 -35z"/>
<path d="M1205 364 c-37 -10 -110 -37 -122 -47 -30 -22 -5 -27 132 -27 134 0
145 1 145 18 0 43 -86 73 -155 56z"/>
<path d="M510 316 c0 -18 35 -22 46 -4 4 7 3 8 -5 4 -6 -4 -18 -2 -26 4 -12
10 -15 9 -15 -4z"/>
<path d="M578 308 c-10 -7 -9 -8 5 -4 9 3 17 2 17 -2 0 -4 9 -8 20 -8 11 0 19
5 17 11 -5 13 -42 15 -59 3z"/>
<path d="M720 310 c0 -5 9 -10 20 -10 11 0 20 5 20 10 0 6 -9 10 -20 10 -11 0
-20 -4 -20 -10z"/>
<path d="M975 310 c-3 -5 3 -10 14 -10 12 0 21 5 21 10 0 6 -6 10 -14 10 -8 0
-18 -4 -21 -10z"/>
<path d="M658 303 c7 -3 16 -2 19 1 4 3 -2 6 -13 5 -11 0 -14 -3 -6 -6z"/>
<path d="M480 250 c0 -6 7 -10 15 -10 8 0 15 2 15 4 0 2 -7 6 -15 10 -8 3 -15
1 -15 -4z"/>
<path d="M705 61 c-3 -3 -45 -5 -93 -6 -86 -1 -152 -21 -152 -45 0 -6 135 -10
366 -10 341 0 365 1 362 17 -8 45 -143 59 -211 23 -46 -25 -66 -25 -114 -1
-36 18 -147 34 -158 22z"/>
<path d="M1441 40 c-13 -11 -34 -20 -47 -20 -13 0 -24 -4 -24 -10 0 -5 25 -10
55 -10 54 0 55 0 55 30 0 35 -6 37 -39 10z"/>
</g>
</svg>
