<?xml version="1.0" standalone="no"?>
<!DOCTYPE svg PUBLIC "-//W3C//DTD SVG 20010904//EN"
 "http://www.w3.org/TR/2001/REC-SVG-20010904/DTD/svg10.dtd">
<svg version="1.0" xmlns="http://www.w3.org/2000/svg"
 width="60.000000pt" height="67.000000pt" viewBox="0 0 60.000000 67.000000"
 preserveAspectRatio="xMidYMid meet">
<metadata>
Created by potrace 1.16, written by Peter Selinger 2001-2019
</metadata>
<g transform="translate(0.000000,67.000000) scale(0.100000,-0.100000)"
fill="#000000" stroke="none">
<path d="M90 659 c0 -5 5 -7 10 -4 6 3 10 8 10 11 0 2 -4 4 -10 4 -5 0 -10 -5
-10 -11z"/>
<path d="M540 663 c1 -29 60 -56 60 -27 0 8 -7 14 -15 14 -8 0 -15 5 -15 10 0
6 -7 10 -15 10 -8 0 -15 -3 -15 -7z"/>
<path d="M21 647 c-5 -5 -7 -16 -4 -24 3 -8 0 -25 -7 -39 -11 -19 -11 -27 -2
-36 9 -9 12 -9 12 0 0 7 6 12 14 12 9 0 12 8 9 24 -4 17 1 28 16 38 12 7 21
16 21 19 0 11 -49 16 -59 6z"/>
<path d="M207 513 c-16 -15 -5 -39 23 -50 30 -11 30 -11 30 -101 0 -93 -11
-122 -46 -122 -8 0 -14 -9 -14 -20 0 -24 39 -33 125 -28 48 2 60 7 63 21 2 11
-3 17 -16 17 -36 0 -41 20 -34 122 7 86 10 98 32 116 16 14 22 24 15 30 -12
11 -169 25 -178 15z"/>
<path d="M547 514 c-4 -4 -4 -16 -1 -28 3 -15 -1 -24 -18 -31 -21 -9 -22 -15
-20 -100 4 -124 10 -153 34 -161 31 -10 44 11 25 40 -15 22 -15 28 -2 60 19
46 19 49 -5 43 -26 -7 -28 -1 -21 58 6 47 7 50 34 47 26 -3 27 -1 27 37 0 36
-3 41 -23 41 -13 0 -27 -3 -30 -6z"/>
<path d="M576 128 c-10 -24 -25 -51 -33 -60 -18 -21 -10 -68 12 -68 8 0 15 5
15 10 0 6 7 10 15 10 12 0 15 15 15 75 0 41 -1 75 -3 75 -1 0 -11 -19 -21 -42z"/>
<path d="M20 35 c0 -24 5 -35 15 -35 15 0 20 26 9 54 -11 28 -24 17 -24 -19z"/>
</g>
</svg>
