<?xml version="1.0" standalone="no"?>
<!DOCTYPE svg PUBLIC "-//W3C//DTD SVG 20010904//EN"
 "http://www.w3.org/TR/2001/REC-SVG-20010904/DTD/svg10.dtd">
<svg version="1.0" xmlns="http://www.w3.org/2000/svg"
 width="76.000000pt" height="100.000000pt" viewBox="0 0 76.000000 100.000000"
 preserveAspectRatio="xMidYMid meet">
<metadata>
Created by potrace 1.16, written by Peter Selinger 2001-2019
</metadata>
<g transform="translate(0.000000,100.000000) scale(0.100000,-0.100000)"
fill="#000000" stroke="none">
<path d="M92 906 c1 -52 0 -98 -4 -101 -3 -4 -16 -1 -29 5 -20 11 -21 10 -17
-14 4 -22 2 -26 -18 -26 -17 0 -24 -6 -24 -19 0 -31 26 -31 56 0 15 16 35 29
44 29 27 0 41 20 29 42 -6 11 -7 24 -2 31 5 7 7 42 5 80 -3 59 -6 67 -24 67
-18 0 -19 -6 -16 -94z"/>
<path d="M180 991 c0 -14 28 -21 60 -14 50 10 45 23 -9 23 -28 0 -51 -4 -51
-9z"/>
<path d="M305 990 c3 -5 24 -10 46 -10 21 0 39 5 39 10 0 6 -21 10 -46 10 -27
0 -43 -4 -39 -10z"/>
<path d="M500 990 c0 -5 20 -10 45 -10 25 0 45 5 45 10 0 6 -20 10 -45 10 -25
0 -45 -4 -45 -10z"/>
<path d="M650 920 c0 -83 6 -97 54 -125 9 -5 18 -18 20 -27 3 -26 16 -34 16
-10 0 11 5 24 10 27 6 3 10 15 10 26 0 15 -7 19 -38 19 -38 0 -38 0 -34 85 4
81 4 85 -17 85 -20 0 -21 -5 -21 -80z"/>
<path d="M363 813 c9 -2 25 -2 35 0 9 3 1 5 -18 5 -19 0 -27 -2 -17 -5z"/>
<path d="M617 743 c-13 -12 -7 -31 18 -61 36 -43 32 -59 -22 -85 -34 -15 -48
-28 -48 -42 0 -17 9 -21 52 -25 57 -6 54 -5 70 -40 8 -19 8 -30 -2 -43 -7 -10
-10 -36 -7 -67 5 -53 1 -57 -42 -40 -32 12 -33 33 -4 52 16 11 19 19 13 34 -9
20 -12 30 -14 52 0 7 -5 10 -11 7 -5 -3 -10 3 -10 14 0 22 -15 28 -26 10 -3
-6 -1 -16 5 -22 14 -14 14 -52 0 -79 -6 -12 -8 -39 -4 -68 6 -43 10 -50 37
-59 23 -8 35 -8 46 1 8 7 25 11 38 10 23 -3 23 -3 19 76 -4 59 -1 88 11 118
16 39 33 214 20 214 -3 0 -15 -6 -26 -12 -18 -12 -24 -9 -55 25 -34 37 -46 43
-58 30z"/>
<path d="M461 723 c-43 -21 -97 -77 -125 -128 -18 -34 -21 -57 -21 -145 0 -97
2 -109 29 -157 41 -75 88 -123 120 -123 38 0 34 38 -9 80 -51 49 -78 114 -78
185 -1 92 26 158 89 220 75 73 72 106 -5 68z"/>
<path d="M555 490 c3 -5 8 -10 11 -10 2 0 4 5 4 10 0 6 -5 10 -11 10 -5 0 -7
-4 -4 -10z"/>
<path d="M555 320 c3 -5 8 -10 11 -10 2 0 4 5 4 10 0 6 -5 10 -11 10 -5 0 -7
-4 -4 -10z"/>
<path d="M10 300 c-9 -6 -10 -10 -3 -10 6 0 15 5 18 10 8 12 4 12 -15 0z"/>
<path d="M13 193 c-7 -2 -13 -16 -13 -29 0 -19 5 -24 24 -24 22 0 24 -3 19
-41 -6 -40 -5 -41 23 -37 27 3 29 1 26 -29 -2 -27 2 -33 18 -33 16 0 20 7 20
33 0 25 -7 39 -30 55 -16 13 -30 30 -30 40 0 23 -42 71 -57 65z"/>
<path d="M722 171 c-10 -17 -22 -29 -25 -26 -4 3 -3 0 2 -7 7 -7 0 -23 -20
-47 -35 -43 -40 -91 -8 -91 16 0 20 5 17 28 -2 22 1 28 21 30 21 3 23 8 18 38
-5 29 -3 34 14 34 14 0 19 7 19 29 0 42 -17 47 -38 12z"/>
<path d="M96 163 c-18 -18 8 -34 37 -24 17 6 16 8 -6 18 -14 7 -28 9 -31 6z"/>
<path d="M187 40 c3 -11 7 -20 9 -20 2 0 4 9 4 20 0 11 -4 20 -9 20 -5 0 -7
-9 -4 -20z"/>
<path d="M548 3 c12 -2 32 -2 45 0 12 2 2 4 -23 4 -25 0 -35 -2 -22 -4z"/>
</g>
</svg>
