<?xml version="1.0" standalone="no"?>
<!DOCTYPE svg PUBLIC "-//W3C//DTD SVG 20010904//EN"
 "http://www.w3.org/TR/2001/REC-SVG-20010904/DTD/svg10.dtd">
<svg version="1.0" xmlns="http://www.w3.org/2000/svg"
 width="259.000000pt" height="269.000000pt" viewBox="0 0 259.000000 269.000000"
 preserveAspectRatio="xMidYMid meet">
<metadata>
Created by potrace 1.16, written by Peter Selinger 2001-2019
</metadata>
<g transform="translate(0.000000,269.000000) scale(0.100000,-0.100000)"
fill="#000000" stroke="none">
<path d="M245 2680 c4 -6 11 -8 16 -5 14 9 11 15 -7 15 -8 0 -12 -5 -9 -10z"/>
<path d="M476 2678 c3 -5 10 -6 15 -3 13 9 11 12 -6 12 -8 0 -12 -4 -9 -9z"/>
<path d="M511 2686 c8 -7 149 -13 149 -6 0 4 -35 8 -77 9 -42 1 -75 0 -72 -3z"/>
<path d="M855 2680 c-3 -5 -40 -10 -81 -10 -41 0 -74 -3 -74 -8 0 -19 35 -55
66 -68 40 -17 114 -18 168 -3 29 8 59 8 116 -2 45 -7 85 -9 96 -4 26 12 216 5
231 -7 9 -7 25 -5 51 5 27 11 62 14 121 11 84 -4 114 4 138 35 30 39 19 43
-127 40 -100 -3 -143 0 -152 9 -17 17 -195 17 -201 0 -5 -17 -163 -16 -180 1
-14 14 -163 15 -172 1z"/>
<path d="M1760 2671 c0 -25 37 -51 72 -51 15 0 30 -5 33 -11 4 -6 13 -8 21 -5
7 3 16 1 19 -4 10 -17 56 -11 91 11 26 16 34 27 34 50 0 29 0 29 -135 29 -127
0 -135 -1 -135 -19z"/>
<path d="M0 2624 c0 -46 0 -46 38 -39 30 5 49 1 81 -15 37 -20 50 -21 124 -15
61 5 87 12 100 26 10 10 29 22 42 25 14 3 25 13 25 20 0 8 7 17 15 20 8 4 15
10 15 15 0 15 -116 10 -146 -6 -37 -19 -124 -19 -150 0 -12 9 -42 14 -81 15
-63 0 -63 0 -63 -46z"/>
<path d="M2229 2663 c-3 -19 4 -49 13 -60 6 -8 35 -13 72 -13 34 -1 72 -7 86
-15 29 -16 92 -19 118 -6 9 6 29 12 45 16 24 5 27 10 27 43 0 37 0 37 -180 40
-99 1 -181 -1 -181 -5z"/>
<path d="M256 2494 c-9 -24 -5 -384 5 -390 5 -3 9 30 9 73 1 122 5 227 9 238
2 6 3 29 2 53 -1 42 -14 56 -25 26z"/>
<path d="M2200 2409 c0 -5 5 -7 10 -4 6 3 10 8 10 11 0 2 -4 4 -10 4 -5 0 -10
-5 -10 -11z"/>
<path d="M1780 2360 c0 -13 11 -13 30 0 12 8 11 10 -7 10 -13 0 -23 -4 -23
-10z"/>
<path d="M2002 2358 c6 -18 28 -21 28 -4 0 9 -7 16 -16 16 -9 0 -14 -5 -12
-12z"/>
<path d="M1708 2353 c7 -3 16 -2 19 1 4 3 -2 6 -13 5 -11 0 -14 -3 -6 -6z"/>
<path d="M635 2290 c-3 -5 -2 -11 2 -13 6 -3 173 -2 236 2 5 1 6 5 3 9 -6 11
-234 13 -241 2z"/>
<path d="M1950 2290 c0 -5 7 -10 16 -10 8 0 12 5 9 10 -3 6 -10 10 -16 10 -5
0 -9 -4 -9 -10z"/>
<path d="M2204 2256 c-3 -8 -4 -27 -2 -43 3 -23 5 -20 9 15 5 43 2 53 -7 28z"/>
<path d="M2202 2075 c0 -16 2 -22 5 -12 2 9 2 23 0 30 -3 6 -5 -1 -5 -18z"/>
<path d="M250 2050 c0 -22 5 -40 10 -40 6 0 10 18 10 40 0 22 -4 40 -10 40 -5
0 -10 -18 -10 -40z"/>
<path d="M454 2066 c-8 -22 0 -62 11 -56 6 3 10 12 10 20 0 18 53 26 68 11 13
-13 57 -15 57 -2 0 10 -48 25 -67 22 -7 -1 -13 3 -13 9 0 16 -60 12 -66 -4z"/>
<path d="M2197 2013 c-5 -9 10 -53 17 -53 3 0 1 11 -4 24 -6 17 -5 26 3 30 9
3 9 5 0 5 -6 1 -14 -2 -16 -6z"/>
<path d="M261 2000 c-7 -12 -6 -389 2 -381 4 4 6 93 4 197 -1 104 -4 187 -6
184z"/>
<path d="M520 1993 c0 -5 -5 -15 -10 -23 -8 -13 -11 -12 -24 5 -15 20 -15 20
-16 -2 0 -19 6 -23 29 -23 26 0 41 14 41 41 0 11 -20 12 -20 2z"/>
<path d="M790 1965 c-6 -7 -10 -26 -8 -41 2 -23 11 -30 53 -44 68 -23 77 -43
71 -150 -3 -47 -7 -210 -9 -362 -3 -290 -6 -308 -49 -308 -36 0 -78 -29 -78
-54 0 -49 13 -51 299 -48 266 4 266 4 336 34 115 49 150 105 150 243 0 123
-50 196 -166 241 -38 15 -69 33 -69 41 0 7 15 22 33 32 88 51 136 106 137 156
4 108 -20 181 -71 218 -52 37 -178 55 -405 56 -172 1 -214 -2 -224 -14z m401
-67 c88 -29 156 -118 146 -191 -8 -56 -55 -129 -98 -150 -45 -22 -155 -25
-175 -6 -15 16 -18 56 -15 209 3 127 13 150 70 150 21 0 53 -5 72 -12z m117
-442 c43 -22 62 -49 88 -125 28 -82 23 -129 -20 -186 -55 -72 -123 -105 -219
-105 -40 0 -54 5 -78 29 -16 16 -29 38 -30 48 -5 183 -3 354 6 358 20 10 227
-6 253 -19z"/>
<path d="M2199 1914 c-1 -119 3 -250 9 -256 4 -4 7 58 7 137 0 79 -3 147 -7
151 -5 4 -8 -10 -9 -32z"/>
<path d="M0 1865 c0 -14 5 -25 10 -25 6 0 10 11 10 25 0 14 -4 25 -10 25 -5 0
-10 -11 -10 -25z"/>
<path d="M2075 1631 c-20 -8 -20 -8 0 -14 11 -3 33 -8 48 -11 16 -4 35 -19 46
-37 21 -34 37 -24 27 17 -4 15 -19 29 -42 39 -40 17 -50 17 -79 6z"/>
<path d="M1676 1594 c-11 -30 -6 -54 12 -54 42 -1 45 -13 23 -96 -34 -133 -35
-243 -5 -369 8 -32 64 -90 98 -101 11 -4 45 -18 75 -31 41 -19 56 -22 61 -12
5 8 21 10 45 6 25 -4 41 -1 53 9 9 9 44 32 78 53 83 52 94 78 100 240 3 80 1
132 -5 136 -6 3 -15 32 -22 65 -11 56 -14 61 -70 100 -48 33 -73 43 -127 51
-36 5 -78 7 -92 4 -14 -3 -43 -8 -64 -10 -22 -3 -53 -12 -69 -20 -27 -14 -32
-13 -48 1 -10 9 -15 22 -12 30 3 8 -1 14 -10 14 -8 0 -18 -7 -21 -16z m302
-96 c33 -22 87 -110 75 -122 -3 -3 0 -12 6 -20 7 -8 11 -23 9 -33 -1 -10 2
-25 7 -33 14 -23 16 -102 2 -118 -6 -8 -10 -29 -9 -46 4 -42 -25 -56 -116 -56
-78 0 -125 24 -162 86 -21 33 -22 40 -11 92 6 32 18 80 26 107 8 28 17 62 20
77 3 14 17 40 31 57 32 38 73 41 122 9z"/>
<path d="M1845 1392 c-3 -3 -5 -12 -5 -19 0 -10 11 -13 38 -11 20 2 36 8 35
13 -2 11 -59 25 -68 17z"/>
<path d="M1838 1244 c-5 -4 -8 -19 -8 -33 1 -23 2 -24 11 -8 11 19 9 53 -3 41z"/>
<path d="M2010 1142 c0 -10 -6 -24 -12 -31 -11 -11 -9 -11 10 -2 22 12 31 51
12 51 -5 0 -10 -8 -10 -18z"/>
<path d="M1778 1603 c7 -3 16 -2 19 1 4 3 -2 6 -13 5 -11 0 -14 -3 -6 -6z"/>
<path d="M2490 1583 c-64 -20 -120 -89 -120 -146 0 -24 -9 -56 -20 -75 -28
-45 -28 -153 0 -207 11 -21 23 -55 26 -74 9 -47 59 -94 121 -114 82 -27 93
-24 93 23 0 27 -4 40 -14 40 -30 0 -92 63 -118 122 -24 52 -28 74 -28 150 0
88 0 89 34 123 19 18 35 37 37 42 6 12 66 53 79 53 5 0 10 18 10 40 0 37 -2
40 -27 39 -16 -1 -48 -8 -73 -16z"/>
<path d="M280 1551 c0 -29 5 -40 18 -43 24 -7 21 -64 -3 -82 -19 -14 -17 -62
3 -60 6 1 32 2 56 3 39 1 46 5 60 32 14 27 14 33 1 46 -8 8 -15 28 -15 44 0
16 -4 29 -10 29 -5 0 -25 16 -44 35 -47 47 -66 46 -66 -4z m100 -68 c0 -3 -6
-1 -12 3 -7 4 -5 -2 5 -13 10 -12 17 -32 15 -45 -2 -18 -10 -23 -35 -25 -29
-1 -32 1 -23 18 6 10 9 19 6 19 -3 0 -1 14 4 31 7 23 6 31 -6 36 -7 3 -14 9
-14 14 0 5 14 0 30 -13 17 -12 30 -23 30 -25z"/>
<path d="M257 1343 c-4 -3 -7 -11 -7 -17 0 -6 5 -5 12 2 6 6 9 14 7 17 -3 3
-9 2 -12 -2z"/>
<path d="M261 1305 c-7 -24 -5 -172 2 -159 4 7 6 49 4 91 -1 43 -4 74 -6 68z"/>
<path d="M317 1111 c-27 -24 -34 -38 -35 -71 -1 -23 -4 -46 -8 -51 -3 -5 2 -9
10 -9 9 0 16 5 16 10 0 6 10 15 23 21 35 16 63 108 38 124 -6 3 -25 -8 -44
-24z"/>
<path d="M0 975 c0 -45 1 -46 28 -43 24 3 27 7 27 43 0 36 -3 40 -27 43 -27 3
-28 2 -28 -43z"/>
<path d="M257 928 c-2 -13 -5 -205 -6 -427 -1 -223 -4 -407 -6 -410 -3 -2 -5
-24 -5 -48 0 -36 3 -43 20 -43 13 0 20 7 20 19 0 25 29 35 105 35 89 1 73 21
-18 22 -42 1 -80 3 -83 6 -3 3 -6 198 -8 432 -2 234 -5 429 -8 432 -3 3 -8 -5
-11 -18z"/>
<path d="M2202 690 c0 -14 2 -19 5 -12 2 6 2 18 0 25 -3 6 -5 1 -5 -13z"/>
<path d="M2203 510 c0 -50 3 -73 7 -55 3 17 3 55 0 85 -6 49 -7 46 -7 -30z"/>
<path d="M2006 551 c-19 -7 -19 -8 0 -13 13 -3 21 0 21 8 0 8 -1 14 -1 13 -1
0 -10 -4 -20 -8z"/>
<path d="M1390 352 c-41 -20 -78 -41 -82 -47 -14 -19 -8 -36 17 -45 14 -5 25
-16 25 -24 0 -8 4 -16 9 -18 11 -3 13 -98 5 -170 -6 -48 -6 -48 65 -48 65 0
71 2 76 23 7 27 2 98 -7 113 -10 15 -7 77 4 91 5 6 10 44 11 85 2 71 1 73 -23
75 -14 1 -59 -14 -100 -35z"/>
<path d="M2102 354 c-5 -10 -18 -19 -28 -20 -40 -5 -90 -31 -120 -61 -23 -23
-34 -49 -47 -105 -9 -40 -12 -77 -8 -81 5 -5 30 -7 56 -5 49 3 49 3 46 68 -2
54 1 69 17 83 27 25 134 28 159 5 56 -52 65 -58 96 -58 23 1 37 8 51 26 17 23
17 30 5 66 -20 61 -67 92 -149 96 -57 4 -69 1 -78 -14z"/>
<path d="M2367 124 c-1 -1 -36 -3 -77 -5 -87 -5 -99 -14 -100 -76 0 -36 3 -43
20 -43 17 0 20 7 20 43 0 42 0 42 180 39 176 -3 180 -3 180 17 0 15 -7 21 -22
22 -36 2 -199 4 -201 3z"/>
<path d="M0 100 c0 -19 7 -20 103 -20 56 0 109 5 117 10 29 19 -12 30 -117 30
-96 0 -103 -1 -103 -20z"/>
<path d="M480 69 c-8 -5 -13 -9 -10 -10 3 0 13 -2 23 -4 9 -2 17 1 17 5 0 15
-15 19 -30 9z"/>
<path d="M520 65 c0 -8 8 -11 20 -8 11 3 20 7 20 8 0 1 -9 5 -20 8 -12 3 -20
0 -20 -8z"/>
<path d="M624 68 c-3 -4 -4 -8 -2 -9 43 -10 82 -4 72 12 -6 11 -63 8 -70 -3z"/>
<path d="M713 68 c-4 -8 5 -10 57 -10 45 0 50 1 50 11 0 10 -100 9 -107 -1z"/>
<path d="M844 68 c-3 -4 4 -8 15 -8 12 0 21 4 21 8 0 11 -29 11 -36 0z"/>
<path d="M1175 70 c-4 -6 20 -10 64 -10 41 0 71 4 71 10 0 6 -28 10 -64 10
-36 0 -68 -4 -71 -10z"/>
<path d="M1580 70 c-13 -8 -12 -10 3 -10 9 0 17 5 17 10 0 12 -1 12 -20 0z"/>
<path d="M1616 72 c-3 -5 1 -9 9 -9 8 0 12 4 9 9 -3 4 -7 8 -9 8 -2 0 -6 -4
-9 -8z"/>
<path d="M1692 71 c4 -13 18 -16 19 -4 0 4 -5 9 -11 12 -7 2 -11 -2 -8 -8z"/>
<path d="M1740 63 c0 -9 8 -11 25 -7 17 4 25 2 25 -6 0 -10 3 -10 15 0 13 10
19 10 35 -5 18 -16 20 -16 26 -2 11 29 -6 38 -67 35 -41 -1 -59 -6 -59 -15z"/>
<path d="M941 44 c-17 -14 -31 -30 -31 -35 0 -5 32 -9 70 -9 77 0 84 7 45 45
-31 32 -46 31 -84 -1z"/>
</g>
</svg>
