<?xml version="1.0" standalone="no"?>
<!DOCTYPE svg PUBLIC "-//W3C//DTD SVG 20010904//EN"
 "http://www.w3.org/TR/2001/REC-SVG-20010904/DTD/svg10.dtd">
<svg version="1.0" xmlns="http://www.w3.org/2000/svg"
 width="177.000000pt" height="147.000000pt" viewBox="0 0 177.000000 147.000000"
 preserveAspectRatio="xMidYMid meet">
<metadata>
Created by potrace 1.16, written by Peter Selinger 2001-2019
</metadata>
<g transform="translate(0.000000,147.000000) scale(0.100000,-0.100000)"
fill="#000000" stroke="none">
<path d="M0 940 c0 -529 0 -529 35 -536 51 -9 103 3 110 26 7 21 30 27 40 10
6 -10 125 -7 143 4 16 10 41 -4 35 -20 -3 -8 0 -14 6 -14 6 0 11 7 11 15 0 12
14 15 69 15 103 0 116 33 48 123 -33 43 -33 43 -36 272 -1 126 -5 233 -8 238
-3 5 0 13 7 17 22 14 1 30 -31 23 -17 -3 -41 0 -55 7 -21 12 -27 11 -44 -5
-16 -14 -23 -16 -32 -7 -18 18 -86 15 -103 -5 -61 -69 -65 -79 -65 -149 0 -69
0 -69 20 -44 11 14 20 36 20 49 0 29 43 71 73 71 13 0 42 -17 65 -38 37 -34
44 -47 54 -103 15 -88 13 -110 -12 -129 -16 -12 -20 -22 -15 -43 4 -15 11 -27
16 -27 5 0 9 -22 9 -49 0 -69 -31 -101 -98 -101 -50 0 -92 26 -77 49 3 7 -2
11 -14 11 -16 0 -21 6 -21 25 0 15 6 25 14 25 7 0 16 9 19 20 3 11 13 23 24
26 10 3 26 10 36 15 26 14 39 1 32 -31 -7 -34 3 -100 16 -100 10 0 11 135 2
205 -5 40 -5 40 -43 37 -22 -2 -45 -10 -51 -18 -15 -18 -5 -29 18 -19 31 14
42 14 53 -1 18 -20 5 -31 -46 -37 -28 -3 -51 -11 -56 -21 -5 -9 -16 -16 -23
-16 -12 0 -15 -17 -15 -86 0 -76 -2 -85 -18 -82 -14 3 -18 19 -24 88 -4 47
-10 114 -14 149 -4 40 -2 67 5 74 15 15 14 180 0 194 -7 7 -9 30 -4 65 3 29 9
122 11 206 5 152 5 152 -41 152 -45 0 -45 0 -45 -530z"/>
<path d="M295 1438 c10 -26 21 -34 52 -41 63 -13 123 13 123 55 0 16 -9 18
-95 18 -94 0 -94 0 -80 -32z"/>
<path d="M872 1424 c-22 -11 -22 -12 -4 -16 24 -7 43 4 34 18 -5 7 -14 6 -30
-2z"/>
<path d="M1160 1415 c0 -9 5 -15 11 -13 6 2 11 8 11 13 0 5 -5 11 -11 13 -6 2
-11 -4 -11 -13z"/>
<path d="M206 1369 c21 -24 36 -24 32 -1 -2 10 -13 17 -26 18 -21 1 -22 0 -6
-17z"/>
<path d="M161 1324 c0 -11 3 -14 6 -6 3 7 2 16 -1 19 -3 4 -6 -2 -5 -13z"/>
<path d="M265 1330 c-3 -5 -1 -10 4 -10 6 0 11 5 11 10 0 6 -2 10 -4 10 -3 0
-8 -4 -11 -10z"/>
<path d="M1495 1311 c-3 -5 -2 -12 3 -15 5 -3 9 1 9 9 0 17 -3 19 -12 6z"/>
<path d="M1625 1180 c-3 -5 -23 -10 -45 -10 -24 0 -40 -5 -44 -15 -3 -8 -12
-15 -21 -15 -25 0 -95 -71 -122 -124 -14 -28 -30 -57 -36 -64 -6 -8 -12 -21
-13 -30 -2 -10 -7 -35 -12 -57 -12 -60 3 -225 26 -277 22 -50 103 -143 141
-163 17 -8 43 -12 69 -8 35 5 45 2 60 -17 22 -27 29 -24 96 38 43 39 46 46 46
92 0 51 -12 64 -37 39 -7 -7 -22 -9 -40 -3 -15 4 -53 8 -84 9 -63 1 -79 10
-118 70 -38 59 -51 93 -51 136 0 47 33 75 79 66 25 -5 30 -3 33 16 4 30 61 32
66 2 6 -30 20 -41 34 -27 7 7 36 12 65 12 53 0 53 0 53 118 0 118 0 118 -37
153 -35 33 -86 69 -97 69 -3 0 -8 -4 -11 -10z m-2 -120 c4 -14 14 -20 32 -20
31 0 54 -24 55 -55 0 -25 -39 -44 -105 -52 -27 -3 -56 -11 -64 -16 -10 -9 -17
-6 -27 8 -20 27 -17 42 11 71 14 14 25 31 25 38 0 14 38 45 56 45 7 1 14 -8
17 -19z"/>
<path d="M1585 1030 c-3 -5 -1 -10 4 -10 6 0 11 5 11 10 0 6 -2 10 -4 10 -3 0
-8 -4 -11 -10z"/>
<path d="M606 1101 c-20 -22 -13 -41 28 -80 14 -14 26 -29 26 -34 0 -6 15 -42
34 -81 18 -39 39 -89 45 -111 7 -22 21 -58 31 -80 10 -22 30 -81 45 -130 48
-163 66 -190 109 -162 14 10 30 45 50 108 34 115 46 147 81 224 95 207 121
254 147 269 38 23 46 55 18 78 -30 24 -170 26 -194 2 -22 -22 -20 -38 10 -73
33 -39 30 -67 -20 -211 -42 -118 -54 -135 -85 -125 -24 7 -52 63 -94 190 -34
103 -34 121 3 153 17 15 30 32 30 40 0 24 -66 42 -158 42 -75 0 -92 -3 -106
-19z"/>
<path d="M506 1083 c-3 -10 -6 -34 -8 -53 -2 -27 1 -35 15 -38 13 -3 17 3 17
22 0 14 -5 26 -10 26 -7 0 -7 6 0 19 5 11 10 24 10 30 0 18 -18 12 -24 -6z"/>
<path d="M275 930 c-7 -21 -30 -27 -40 -10 -9 15 -25 2 -25 -20 0 -13 5 -17
14 -14 8 3 17 1 20 -4 3 -6 15 -8 26 -5 15 4 20 14 20 39 0 38 -6 44 -15 14z"/>
<path d="M500 889 c0 -11 5 -17 10 -14 6 3 10 13 10 21 0 8 -4 14 -10 14 -5 0
-10 -9 -10 -21z"/>
<path d="M137 863 c-10 -10 -8 -73 2 -73 9 0 21 34 21 63 0 17 -11 22 -23 10z"/>
<path d="M522 805 c0 -16 2 -22 5 -12 2 9 2 23 0 30 -3 6 -5 -1 -5 -18z"/>
<path d="M1530 779 c0 -11 5 -17 10 -14 6 3 10 13 10 21 0 8 -4 14 -10 14 -5
0 -10 -9 -10 -21z"/>
<path d="M1630 758 c0 -16 5 -28 10 -28 13 0 13 20 0 40 -8 12 -10 9 -10 -12z"/>
<path d="M1320 459 c0 -16 29 -41 40 -34 6 4 5 13 -3 25 -13 21 -37 27 -37 9z"/>
<path d="M142 350 c-6 -17 -6 -29 1 -38 17 -22 31 2 19 35 -10 28 -10 28 -20
3z"/>
<path d="M1636 314 c-3 -9 -6 -26 -6 -39 0 -24 1 -24 68 -18 77 7 94 13 34 13
-56 0 -72 8 -72 36 0 27 -15 32 -24 8z"/>
<path d="M137 276 c-6 -15 1 -26 15 -26 4 0 8 9 8 20 0 23 -15 27 -23 6z"/>
<path d="M50 270 c-55 -7 -55 -7 8 -8 40 -1 61 2 57 8 -3 6 -7 9 -8 8 -1 -1
-27 -4 -57 -8z"/>
<path d="M138 163 c-3 -58 -3 -58 -70 -61 -60 -3 -68 -5 -68 -23 0 -20 6 -20
255 -17 255 3 255 3 255 -29 0 -25 4 -33 18 -33 11 0 24 11 30 25 11 24 16 25
91 25 44 0 91 -4 105 -10 21 -7 26 -6 26 5 0 12 -20 15 -110 15 -89 0 -116 4
-137 17 -22 15 -58 19 -198 23 -170 5 -170 5 -173 63 -2 31 -7 57 -12 57 -5 0
-10 -26 -12 -57z"/>
<path d="M1540 193 c0 -5 5 -15 10 -23 8 -12 10 -11 10 8 0 12 -4 22 -10 22
-5 0 -10 -3 -10 -7z"/>
<path d="M515 110 c3 -5 8 -10 11 -10 2 0 4 5 4 10 0 6 -5 10 -11 10 -5 0 -7
-4 -4 -10z"/>
<path d="M758 113 c7 -3 16 -2 19 1 4 3 -2 6 -13 5 -11 0 -14 -3 -6 -6z"/>
<path d="M1215 110 c-2 -3 9 -6 25 -6 17 0 27 2 25 5 -8 7 -45 9 -50 1z"/>
<path d="M1460 103 c31 -13 41 -32 34 -68 -6 -32 -4 -35 16 -35 20 0 22 4 17
30 -6 30 -6 30 118 30 121 0 125 1 125 21 0 21 -3 21 -139 17 -77 -2 -138 -1
-136 2 2 3 -8 6 -23 7 -15 1 -20 -1 -12 -4z"/>
<path d="M1100 44 c0 -8 5 -12 10 -9 6 3 10 10 10 16 0 5 -4 9 -10 9 -5 0 -10
-7 -10 -16z"/>
<path d="M1153 46 c2 -7 25 -10 55 -8 39 3 52 0 52 -10 0 -10 3 -9 10 2 15 24
13 25 -55 26 -43 0 -64 -3 -62 -10z"/>
</g>
</svg>
