<?xml version="1.0" standalone="no"?>
<!DOCTYPE svg PUBLIC "-//W3C//DTD SVG 20010904//EN"
 "http://www.w3.org/TR/2001/REC-SVG-20010904/DTD/svg10.dtd">
<svg version="1.0" xmlns="http://www.w3.org/2000/svg"
 width="203.000000pt" height="172.000000pt" viewBox="0 0 203.000000 172.000000"
 preserveAspectRatio="xMidYMid meet">
<metadata>
Created by potrace 1.16, written by Peter Selinger 2001-2019
</metadata>
<g transform="translate(0.000000,172.000000) scale(0.100000,-0.100000)"
fill="#000000" stroke="none">
<path d="M190 1674 c0 -52 -5 -51 115 -26 28 6 48 4 68 -5 30 -15 39 -40 10
-28 -36 15 -53 17 -53 7 0 -9 22 -19 73 -36 19 -6 24 -27 5 -23 -8 1 -15 -16
-18 -45 -5 -37 -14 -55 -42 -82 -21 -20 -43 -36 -51 -36 -7 0 -18 -5 -25 -12
-7 -7 -28 -11 -47 -10 -33 2 -35 1 -35 -28 0 -28 2 -30 39 -30 22 0 43 5 46
10 3 6 16 10 29 10 15 0 33 15 56 45 19 25 39 45 46 45 19 0 34 58 33 125 0
82 -7 112 -27 119 -9 3 -30 14 -47 25 -22 15 -49 20 -102 20 -73 1 -73 1 -73
-45z"/>
<path d="M560 1711 c0 -24 180 -27 188 -3 3 9 -20 12 -92 12 -53 0 -96 -4 -96
-9z"/>
<path d="M980 1714 c0 -15 47 -43 64 -38 10 4 22 0 27 -7 7 -11 11 -11 17 -1
5 7 17 11 28 10 24 -2 84 21 84 33 0 5 -49 9 -110 9 -60 0 -110 -3 -110 -6z"/>
<path d="M1370 1710 c0 -5 10 -10 23 -10 12 0 31 -6 42 -13 36 -24 185 -3 185
25 0 4 -56 8 -125 8 -77 0 -125 -4 -125 -10z"/>
<path d="M0 1540 c0 -90 3 -161 6 -157 7 6 5 309 -1 316 -3 2 -5 -69 -5 -159z"/>
<path d="M97 1684 c-8 -8 3 -34 14 -34 11 0 12 27 0 34 -4 3 -11 3 -14 0z"/>
<path d="M1906 1675 c4 -8 8 -15 11 -15 2 0 11 7 19 15 14 13 13 15 -10 15
-18 0 -24 -4 -20 -15z"/>
<path d="M1730 1661 c0 -19 19 -41 21 -24 0 4 2 16 4 26 2 9 -3 17 -11 17 -8
0 -14 -9 -14 -19z"/>
<path d="M1733 1582 c0 -27 4 -39 11 -32 6 6 5 21 -2 42 -11 33 -11 33 -9 -10z"/>
<path d="M480 1600 c0 -13 100 -13 120 0 11 7 -5 10 -52 10 -39 0 -68 -4 -68
-10z"/>
<path d="M890 1600 c0 -5 4 -10 9 -10 6 0 13 5 16 10 3 6 -1 10 -9 10 -9 0
-16 -4 -16 -10z"/>
<path d="M945 1600 c-3 -6 1 -7 9 -4 18 7 21 14 7 14 -6 0 -13 -4 -16 -10z"/>
<path d="M1000 1600 c-20 -6 -21 -8 -5 -8 11 0 31 4 45 8 20 6 21 8 5 8 -11 0
-31 -4 -45 -8z"/>
<path d="M1135 1600 c3 -5 10 -10 16 -10 5 0 9 5 9 10 0 6 -7 10 -16 10 -8 0
-12 -4 -9 -10z"/>
<path d="M1180 1599 c0 -5 5 -7 10 -4 6 3 10 8 10 11 0 2 -4 4 -10 4 -5 0 -10
-5 -10 -11z"/>
<path d="M1220 1600 c0 -5 5 -10 11 -10 5 0 7 5 4 10 -3 6 -8 10 -11 10 -2 0
-4 -4 -4 -10z"/>
<path d="M1390 1602 c0 -10 86 -9 96 1 4 4 -16 7 -44 7 -29 0 -52 -4 -52 -8z"/>
<path d="M1565 1600 c-3 -5 -2 -10 4 -10 5 0 13 5 16 10 3 6 2 10 -4 10 -5 0
-13 -4 -16 -10z"/>
<path d="M1088 1593 c6 -2 18 -2 25 0 6 3 1 5 -13 5 -14 0 -19 -2 -12 -5z"/>
<path d="M1868 1588 c9 -9 15 -9 24 0 9 9 7 12 -12 12 -19 0 -21 -3 -12 -12z"/>
<path d="M1816 1495 c4 -8 10 -15 14 -15 4 0 10 7 14 15 4 10 -1 15 -14 15
-13 0 -18 -5 -14 -15z"/>
<path d="M2000 1320 c-14 -10 -42 -27 -62 -36 -65 -29 -122 -136 -133 -247 -5
-49 -13 -75 -29 -95 -30 -35 -42 -92 -20 -92 31 0 44 -62 38 -187 -6 -141 -17
-165 -83 -174 -36 -5 -48 -1 -76 20 -18 14 -40 31 -49 36 -9 6 -19 27 -23 48
-4 29 -1 43 14 60 33 37 39 51 16 38 -32 -17 -48 20 -19 43 10 8 12 23 7 56
-6 42 -2 68 20 128 6 14 17 22 32 22 21 0 25 -6 31 -46 8 -64 7 -85 -4 -56 -5
12 -13 22 -19 22 -15 0 -19 -36 -6 -54 7 -9 11 -25 8 -36 -3 -10 2 -34 11 -52
9 -18 20 -59 23 -92 4 -41 13 -66 29 -85 13 -14 24 -20 24 -13 0 7 -7 20 -16
29 -11 12 -15 37 -15 97 0 44 -3 125 -5 179 -5 83 -8 99 -25 107 -11 7 -21 26
-25 50 -4 22 -10 40 -13 40 -4 0 -13 -21 -20 -47 -11 -43 -14 -46 -25 -30 -7
9 -18 17 -24 17 -24 0 -102 -45 -107 -61 -3 -9 8 -42 25 -73 36 -67 41 -133
12 -159 -10 -10 -24 -17 -30 -17 -7 0 -12 -5 -12 -11 0 -7 -8 -18 -17 -25 -10
-7 -13 -14 -7 -14 15 0 48 -76 41 -94 -4 -9 -15 -16 -26 -16 -41 0 -33 -49 9
-50 8 -1 48 -3 88 -6 56 -4 79 -2 97 10 22 14 25 14 40 0 13 -13 18 -14 31 -3
11 9 18 9 26 1 8 -8 15 -9 25 -1 7 6 50 12 96 13 110 2 120 10 71 51 -39 33
-39 33 -36 291 1 215 5 267 19 309 19 56 49 95 72 95 37 1 52 26 49 79 -3 50
-3 50 -28 31z m-510 -726 c0 -13 -4 -24 -10 -24 -5 0 -10 14 -10 31 0 17 4 28
10 24 6 -3 10 -17 10 -31z"/>
<path d="M1485 1290 c-3 -5 -15 -10 -26 -10 -23 0 -25 -15 -4 -24 8 -3 15 -14
15 -25 0 -36 12 -50 46 -57 24 -4 40 -2 52 8 9 8 25 18 35 21 13 5 16 13 11
34 -13 56 -22 63 -74 63 -27 0 -52 -4 -55 -10z"/>
<path d="M528 1282 c-39 -5 -54 -27 -40 -57 10 -22 18 -25 61 -25 82 0 79 13
80 -338 1 -240 -1 -311 -11 -319 -7 -6 -39 -13 -71 -15 -58 -5 -80 -18 -70
-44 9 -23 37 -26 258 -30 253 -3 307 5 417 63 51 27 81 51 109 88 48 64 89
180 89 253 0 62 -23 159 -50 212 -31 61 -120 134 -207 170 -70 29 -89 33 -203
36 -248 8 -335 10 -362 6z m423 -93 c136 -34 197 -97 233 -240 20 -82 20 -137
0 -208 -24 -87 -59 -129 -142 -174 -66 -35 -83 -40 -160 -44 -129 -7 -124 -15
-123 202 1 99 2 238 3 308 3 127 3 129 31 153 34 29 51 30 158 3z"/>
<path d="M1436 1192 c-3 -6 -1 -14 5 -17 15 -10 25 3 12 16 -7 7 -13 7 -17 1z"/>
<path d="M281 1044 c0 -11 3 -14 6 -6 3 7 2 16 -1 19 -3 4 -6 -2 -5 -13z"/>
<path d="M1963 1052 c-9 -6 -7 -11 6 -19 15 -10 19 -9 17 2 -3 20 -10 25 -23
17z"/>
<path d="M96 955 c-3 -8 -1 -15 4 -15 6 0 10 7 10 15 0 8 -2 15 -4 15 -2 0 -6
-7 -10 -15z"/>
<path d="M0 890 c0 -38 4 -59 10 -55 13 8 13 102 0 110 -6 4 -10 -17 -10 -55z"/>
<path d="M287 943 c-4 -3 -7 -31 -7 -61 0 -70 10 -62 14 12 4 58 4 60 -7 49z"/>
<path d="M1430 825 c1 -26 2 -28 11 -12 8 14 8 22 0 30 -8 8 -11 3 -11 -18z"/>
<path d="M1420 739 c0 -31 4 -48 10 -44 6 3 10 26 10 51 0 24 -4 44 -10 44 -5
0 -10 -23 -10 -51z"/>
<path d="M0 660 c0 -19 3 -21 12 -12 9 9 9 15 0 24 -9 9 -12 7 -12 -12z"/>
<path d="M1963 653 c15 -2 37 -2 50 0 12 2 0 4 -28 4 -27 0 -38 -2 -22 -4z"/>
<path d="M0 571 c0 -34 4 -61 10 -61 6 0 10 24 10 54 0 30 -4 58 -10 61 -6 4
-10 -17 -10 -54z"/>
<path d="M165 480 c3 -5 8 -10 11 -10 2 0 4 5 4 10 0 6 -5 10 -11 10 -5 0 -7
-4 -4 -10z"/>
<path d="M177 443 c-4 -3 -7 -11 -7 -17 0 -6 5 -5 12 2 6 6 9 14 7 17 -3 3 -9
2 -12 -2z"/>
<path d="M1822 198 c-19 -20 -24 -21 -32 -8 -6 9 -10 10 -10 3 0 -6 -10 -13
-22 -15 -19 -2 -24 -11 -28 -48 -3 -25 -8 -50 -12 -55 -4 -6 -34 -10 -72 -8
-41 2 -66 -1 -66 -7 0 -7 -6 -8 -19 -1 -17 10 -31 6 -31 -8 0 -3 37 -7 82 -9
90 -4 102 -7 94 -28 -3 -8 -1 -14 4 -14 6 0 10 7 10 15 0 8 9 15 20 15 16 0
19 8 22 61 3 61 3 61 136 60 132 -2 132 -2 132 28 0 36 -16 49 -25 21 -6 -17
-15 -20 -74 -20 -59 0 -69 3 -77 20 -9 20 -9 20 -32 -2z"/>
<path d="M0 170 c0 -19 5 -21 43 -18 42 3 42 3 45 -61 3 -64 3 -64 54 -58 44
6 51 4 55 -13 3 -11 12 -20 20 -20 11 0 13 7 9 25 -5 20 -2 27 16 35 20 8 19
9 -12 8 -91 -3 -98 -1 -98 36 0 55 -23 78 -81 83 -47 4 -51 2 -51 -17z"/>
<path d="M473 173 c9 -2 25 -2 35 0 9 3 1 5 -18 5 -19 0 -27 -2 -17 -5z"/>
<path d="M558 173 c6 -2 18 -2 25 0 6 3 1 5 -13 5 -14 0 -19 -2 -12 -5z"/>
<path d="M165 150 c-3 -6 1 -7 9 -4 18 7 21 14 7 14 -6 0 -13 -4 -16 -10z"/>
<path d="M621 52 c-25 -18 -47 -37 -49 -42 -2 -6 63 -10 168 -10 157 0 171 1
168 17 -2 10 -13 22 -25 28 -11 6 -28 17 -37 24 -10 8 -46 14 -97 15 -77 1
-84 -1 -128 -32z"/>
</g>
</svg>
