<?xml version="1.0" standalone="no"?>
<!DOCTYPE svg PUBLIC "-//W3C//DTD SVG 20010904//EN"
 "http://www.w3.org/TR/2001/REC-SVG-20010904/DTD/svg10.dtd">
<svg version="1.0" xmlns="http://www.w3.org/2000/svg"
 width="107.000000pt" height="111.000000pt" viewBox="0 0 107.000000 111.000000"
 preserveAspectRatio="xMidYMid meet">
<metadata>
Created by potrace 1.16, written by Peter Selinger 2001-2019
</metadata>
<g transform="translate(0.000000,111.000000) scale(0.100000,-0.100000)"
fill="#000000" stroke="none">
<path d="M40 1089 c0 -19 4 -20 36 -15 25 5 43 2 60 -9 25 -16 34 -47 12 -41
-7 3 -43 7 -80 10 -68 7 -68 7 -68 -124 0 -71 2 -130 5 -130 3 0 17 7 30 16
13 9 29 13 35 9 6 -4 20 1 30 10 10 9 24 14 30 10 6 -4 47 10 91 32 76 36 80
40 92 82 6 24 17 46 24 48 7 3 13 14 13 25 0 13 -5 18 -14 15 -9 -4 -20 9 -32
39 -18 44 -18 44 -141 44 -118 0 -123 -1 -123 -21z m146 -94 c10 -26 -16 -46
-54 -43 -47 4 -51 24 -10 42 43 19 57 19 64 1z"/>
<path d="M910 1100 c0 -5 5 -21 12 -35 10 -22 9 -28 -3 -36 -11 -7 -11 -9 4
-9 10 0 20 -7 23 -15 4 -8 12 -15 20 -15 16 0 22 -24 27 -103 4 -62 24 -89 59
-79 27 7 23 42 -5 42 -23 0 -23 1 -19 95 4 95 4 95 -42 95 -47 0 -47 0 -40 35
5 31 4 35 -15 35 -11 0 -21 -4 -21 -10z"/>
<path d="M400 1020 c0 -5 5 -10 10 -10 6 0 10 5 10 10 0 6 -4 10 -10 10 -5 0
-10 -4 -10 -10z"/>
<path d="M850 1020 c0 -5 5 -10 10 -10 6 0 10 5 10 10 0 6 -4 10 -10 10 -5 0
-10 -4 -10 -10z"/>
<path d="M950 848 c0 -9 5 -20 10 -23 13 -8 13 5 0 25 -8 13 -10 13 -10 -2z"/>
<path d="M220 801 c0 -6 -7 -11 -15 -11 -8 0 -15 -4 -15 -10 0 -14 -27 -13
-32 2 -2 6 -10 8 -16 4 -8 -5 -12 -33 -11 -87 2 -43 -1 -82 -5 -86 -11 -12
-79 -3 -97 13 -8 8 -19 14 -22 14 -4 0 -7 -38 -7 -84 0 -80 1 -85 22 -88 17
-2 22 -9 21 -26 -2 -18 2 -22 26 -22 16 0 31 6 34 13 3 10 9 10 26 0 27 -17
29 -16 27 4 0 10 8 19 19 21 39 8 75 53 75 93 0 37 -1 38 -42 41 -35 2 -43 7
-43 23 0 11 -4 26 -9 33 -5 8 -4 18 3 25 6 6 12 29 12 51 1 36 2 34 10 -18 8
-56 29 -102 29 -64 0 9 7 18 15 22 11 4 15 22 15 70 0 36 -4 68 -10 71 -5 3
-10 1 -10 -4z"/>
<path d="M463 771 c-33 -16 -44 -27 -53 -58 -19 -64 -11 -83 50 -120 60 -35
90 -73 90 -114 0 -39 -40 -91 -90 -117 -25 -13 -52 -30 -61 -38 -8 -8 -23 -14
-32 -14 -10 0 -17 -8 -17 -20 0 -20 9 -24 44 -20 10 1 22 -4 26 -10 15 -24
168 36 212 83 54 59 71 104 76 203 4 82 2 95 -22 141 -41 83 -143 121 -223 84z"/>
<path d="M266 602 c-7 -12 22 -38 31 -28 4 3 0 14 -9 22 -9 10 -18 12 -22 6z"/>
<path d="M252 466 c-7 -16 -22 -26 -46 -30 -39 -8 -40 -26 -1 -26 13 0 38 15
59 36 41 41 42 44 18 44 -11 0 -24 -11 -30 -24z"/>
<path d="M1027 68 c-10 -5 -28 -8 -40 -6 -12 1 -23 -2 -24 -7 -2 -5 7 -10 20
-10 17 0 21 -5 19 -22 -2 -13 2 -23 7 -23 6 0 11 7 11 15 0 9 9 15 25 15 18 0
25 5 25 19 0 23 -20 32 -43 19z"/>
</g>
</svg>
