<?xml version="1.0" standalone="no"?>
<!DOCTYPE svg PUBLIC "-//W3C//DTD SVG 20010904//EN"
 "http://www.w3.org/TR/2001/REC-SVG-20010904/DTD/svg10.dtd">
<svg version="1.0" xmlns="http://www.w3.org/2000/svg"
 width="153.000000pt" height="156.000000pt" viewBox="0 0 153.000000 156.000000"
 preserveAspectRatio="xMidYMid meet">
<metadata>
Created by potrace 1.16, written by Peter Selinger 2001-2019
</metadata>
<g transform="translate(0.000000,156.000000) scale(0.100000,-0.100000)"
fill="#000000" stroke="none">
<path d="M1329 1498 c-1 -35 0 -67 1 -73 2 -5 3 -19 4 -30 0 -32 26 -44 94
-45 62 0 62 0 62 -30 0 -32 6 -36 30 -20 10 6 11 10 3 10 -7 0 -13 7 -13 15 0
8 5 15 10 15 6 0 10 11 10 25 0 25 -1 25 -83 25 -83 0 -83 0 -79 85 4 81 4 85
-17 85 -19 0 -21 -6 -22 -62z"/>
<path d="M281 1516 c-15 -18 -12 -123 4 -136 8 -6 37 -13 67 -14 29 -2 66 -7
82 -11 19 -5 31 -4 36 6 13 21 1 31 -31 24 -34 -8 -39 11 -14 49 14 21 14 27
-1 60 -17 35 -19 36 -75 36 -35 0 -61 -5 -68 -14z"/>
<path d="M0 1430 c0 -19 7 -20 101 -20 97 0 146 11 134 31 -4 5 -58 9 -121 9
-107 0 -114 -1 -114 -20z"/>
<path d="M510 1370 c0 -5 13 -10 29 -10 17 0 33 5 36 10 4 6 -8 10 -29 10 -20
0 -36 -4 -36 -10z"/>
<path d="M598 1373 c7 -3 16 -2 19 1 4 3 -2 6 -13 5 -11 0 -14 -3 -6 -6z"/>
<path d="M1142 1343 c5 -29 78 -20 78 8 0 5 -18 9 -41 9 -33 0 -40 -3 -37 -17z"/>
<path d="M1149 1302 c-1 -4 0 -11 1 -17 2 -5 4 -30 6 -55 1 -25 6 -64 11 -86
6 -27 6 -48 0 -59 -9 -17 -33 -102 -44 -158 -3 -18 0 -34 10 -45 13 -14 15
-32 10 -90 -6 -71 -7 -74 -48 -108 -35 -28 -41 -39 -37 -62 3 -15 11 -31 18
-35 8 -4 14 -20 14 -34 0 -36 -21 -103 -33 -103 -5 0 -4 -7 3 -15 7 -8 21 -15
30 -15 10 0 21 -6 23 -12 4 -9 8 -10 14 -2 6 8 36 8 111 0 57 -6 106 -8 108
-4 3 4 32 10 65 14 39 4 63 12 69 23 8 14 11 13 16 -6 3 -13 13 -23 20 -23 11
0 14 19 14 85 0 78 -1 84 -17 76 -33 -17 -104 -32 -169 -36 -63 -4 -65 -4 -75
23 -6 15 -16 34 -24 42 -7 8 -16 29 -19 45 -5 25 -2 34 23 55 23 18 27 27 19
37 -6 7 -19 13 -30 13 -18 0 -19 5 -13 53 13 108 58 197 99 197 8 0 17 4 20 9
3 5 21 12 41 15 45 9 92 -15 101 -50 9 -37 -18 -52 -139 -74 -26 -5 -57 -12
-67 -15 -36 -11 -21 -22 28 -20 26 2 57 -1 70 -6 14 -5 32 -4 48 3 23 11 28 9
44 -11 22 -30 40 -19 40 25 0 19 5 34 10 34 6 0 10 38 10 95 0 86 -2 95 -19
95 -10 0 -30 9 -44 20 -27 21 -82 27 -92 10 -4 -7 -35 -10 -78 -7 -72 3 -72 3
-75 80 -2 43 1 77 7 77 14 0 21 -27 21 -80 0 -50 14 -75 24 -43 7 23 12 131 6
136 -9 9 -130 17 -131 9z"/>
<path d="M254 1292 c-15 -10 -25 -40 -15 -47 5 -2 14 1 20 9 7 8 28 17 49 21
31 6 34 9 17 15 -26 11 -57 12 -71 2z"/>
<path d="M367 1287 c-8 -21 69 -53 88 -37 20 16 19 36 -1 44 -28 11 -82 6 -87
-7z"/>
<path d="M330 1236 c0 -7 -10 -20 -22 -29 -13 -8 -20 -18 -17 -21 6 -6 69 46
69 57 0 4 -7 7 -15 7 -8 0 -15 -6 -15 -14z"/>
<path d="M177 1212 c-21 -22 -27 -38 -27 -75 0 -75 14 -62 61 56 22 56 9 63
-34 19z"/>
<path d="M1475 1217 c-4 -8 -1 -26 7 -39 13 -23 13 -23 16 6 4 33 -14 59 -23
33z"/>
<path d="M260 1170 c-9 -6 -10 -10 -3 -10 6 0 15 5 18 10 8 12 4 12 -15 0z"/>
<path d="M659 1102 c-43 -43 -79 -84 -79 -91 0 -7 18 -30 41 -51 41 -37 41
-37 31 -226 -8 -173 -7 -194 10 -243 10 -30 26 -63 36 -74 40 -45 144 -62 201
-32 33 17 81 70 81 90 0 23 -35 35 -96 34 -52 -2 -60 1 -81 27 -22 28 -23 36
-23 206 0 207 0 208 102 208 69 0 104 15 112 46 13 52 -32 89 -94 79 -43 -7
-80 7 -80 31 0 8 -7 28 -15 44 -26 51 -56 41 -146 -48z"/>
<path d="M330 1121 c-19 -3 -49 -14 -67 -23 -17 -10 -38 -15 -46 -12 -15 5
-67 -36 -67 -53 0 -6 -7 -16 -15 -23 -12 -10 -15 -37 -15 -121 0 -62 4 -109 9
-109 23 0 41 47 41 105 1 49 5 65 25 88 25 28 41 36 29 15 -4 -7 1 -5 11 4 14
13 22 14 42 5 31 -14 38 -47 19 -86 -19 -35 -45 -41 -53 -11 -7 26 -23 26 -23
1 0 -11 -5 -23 -11 -26 -13 -9 25 -37 43 -33 24 5 79 -27 84 -49 5 -19 2 -74
-8 -161 -2 -12 -9 -27 -17 -32 -12 -7 -12 -12 -3 -23 10 -12 6 -19 -22 -41
-57 -43 -76 -32 -76 45 0 27 -4 39 -14 39 -8 0 -18 9 -21 20 -8 26 -34 52 -46
45 -10 -7 -12 -146 -3 -193 4 -17 21 -48 38 -68 30 -34 35 -36 62 -27 17 6 41
6 59 2 22 -7 33 -5 41 5 16 22 62 30 80 15 14 -11 18 -11 28 3 6 9 23 18 36
20 14 1 26 9 26 16 1 6 2 21 3 31 1 12 10 21 24 24 21 3 20 4 -8 16 -22 9 -35
10 -48 1 -10 -6 -22 -8 -27 -5 -15 9 -12 45 5 61 11 11 15 39 17 95 0 43 1 85
2 92 1 6 -5 11 -11 10 -18 -4 -16 29 2 53 19 25 19 34 0 34 -8 0 -15 4 -15 9
0 5 -11 22 -24 38 -14 16 -28 41 -31 56 -6 23 -4 27 13 27 12 0 25 -7 30 -16
14 -26 35 -8 21 18 -6 11 -9 32 -6 46 6 30 -1 52 -15 52 -6 0 -8 -9 -5 -20 3
-13 0 -20 -9 -20 -8 0 -14 5 -14 10 0 6 -9 10 -19 10 -11 0 -23 5 -26 10 -4 6
5 10 20 10 17 0 25 5 23 13 -5 14 -21 16 -68 8z m-9 -41 c-13 -11 -32 -20 -42
-20 -10 0 -19 -7 -19 -15 0 -8 -7 -15 -15 -15 -32 0 -13 28 33 48 59 27 74 27
43 2z"/>
<path d="M485 999 c4 -24 9 -55 12 -69 5 -23 6 -24 13 -5 16 37 11 81 -10 100
-21 19 -21 19 -15 -26z"/>
<path d="M1095 1000 c-3 -11 -10 -20 -15 -20 -5 0 -16 -13 -25 -30 -15 -29
-15 -30 16 -46 32 -16 32 -16 26 18 -3 20 1 44 9 58 16 30 17 40 5 40 -5 0
-13 -9 -16 -20z"/>
<path d="M1370 1003 c0 -16 25 -63 33 -63 5 0 7 15 5 32 -2 22 -9 34 -20 36
-10 2 -18 0 -18 -5z"/>
<path d="M0 990 c0 -5 16 -10 36 -10 21 0 33 4 29 10 -3 6 -19 10 -36 10 -16
0 -29 -4 -29 -10z"/>
<path d="M281 954 c0 -11 3 -14 6 -6 3 7 2 16 -1 19 -3 4 -6 -2 -5 -13z"/>
<path d="M1100 836 c0 -8 -7 -17 -16 -20 -13 -5 -15 -16 -10 -52 9 -78 18 -67
30 39 3 26 3 47 1 47 -3 0 -5 -6 -5 -14z"/>
<path d="M0 830 c0 -13 40 -13 60 0 11 7 5 10 -22 10 -21 0 -38 -4 -38 -10z"/>
<path d="M1384 816 c-3 -8 -2 -66 3 -128 6 -90 11 -113 23 -113 22 0 33 105
13 122 -8 6 -13 24 -12 40 4 52 -1 93 -11 93 -6 0 -13 -6 -16 -14z"/>
<path d="M287 790 c6 -24 19 -34 27 -21 9 14 -4 41 -19 41 -8 0 -11 -8 -8 -20z"/>
<path d="M1486 793 c-8 -8 -6 -110 4 -148 7 -28 8 -27 10 15 8 131 5 152 -14
133z"/>
<path d="M1302 748 c-20 -20 -14 -30 16 -26 16 2 27 9 27 18 0 19 -27 24 -43
8z"/>
<path d="M515 461 c-3 -5 -1 -12 5 -16 5 -3 10 1 10 9 0 18 -6 21 -15 7z"/>
<path d="M1470 390 c0 -5 5 -10 10 -10 6 0 10 5 10 10 0 6 -4 10 -10 10 -5 0
-10 -4 -10 -10z"/>
<path d="M150 347 c0 -23 8 -41 25 -57 14 -13 25 -29 25 -37 0 -7 8 -13 18
-13 9 0 37 -21 62 -46 42 -43 48 -45 85 -39 44 7 65 20 65 42 0 11 -9 13 -46
7 -40 -6 -54 -3 -101 22 -43 24 -56 37 -69 72 -9 23 -20 42 -25 42 -4 0 -11 9
-14 20 -10 31 -25 23 -25 -13z"/>
<path d="M306 321 c-7 -10 39 -54 61 -57 10 -2 4 10 -18 32 -37 38 -36 37 -43
25z"/>
<path d="M0 219 c0 -19 5 -21 63 -17 56 3 62 1 62 -17 0 -11 4 -26 8 -33 5 -7
7 -39 5 -70 -2 -47 0 -56 12 -53 8 3 24 4 35 3 162 -16 205 -13 205 12 0 10
-27 15 -106 19 -59 3 -108 7 -109 9 -2 2 -5 29 -8 60 -6 81 -32 108 -109 108
-52 0 -58 -2 -58 -21z"/>
<path d="M1510 162 c-29 -9 -40 -36 -40 -99 0 -57 2 -63 21 -63 19 0 21 5 17
65 -2 48 1 68 11 74 17 11 11 29 -9 23z"/>
<path d="M225 151 c-3 -5 2 -11 10 -15 8 -3 17 -1 20 3 3 5 -2 11 -10 15 -8 3
-17 1 -20 -3z"/>
<path d="M420 111 c0 -10 -3 -39 -6 -65 -7 -46 -7 -46 25 -46 35 0 40 10 12
27 -15 10 -17 18 -11 52 4 22 5 43 2 46 -11 11 -22 4 -22 -14z"/>
<path d="M710 10 c0 -5 5 -10 11 -10 5 0 7 5 4 10 -3 6 -8 10 -11 10 -2 0 -4
-4 -4 -10z"/>
</g>
</svg>
