<?xml version="1.0" encoding="UTF-8" standalone="no"?>
<svg
   version="1.0"
   width="76pt"
   height="114pt"
   viewBox="0 0 76 114"
   preserveAspectRatio="xMidYMid"
   id="svg6"
   xmlns="http://www.w3.org/2000/svg"
   xmlns:svg="http://www.w3.org/2000/svg">
  <defs
     id="defs6" />
  <metadata
     id="metadata1">
Created by potrace 1.16, written by Peter Selinger 2001-2019
</metadata>
  <path
     d="m 34.6,15.2 c -5.4,1.2 -9.1,4.1 -11.5,9.1 -4,8.3 -1.785733,18.286698 6,25.9 7.712818,7.542001 3.481529,6.732196 -2.6,12 -5.7,5.2 -7.4,11.1 -5,17.8 3,8.6 7.2,12.2 15.5,13.5 3.114904,0.294471 6.085096,-0.142548 10,-2.2 14.2,-7.5 14.5,-23.5 0.7,-35 C 46.2,55 45,53.6 45,53.2 45,52.8 47,51 49.4,49.3 51.8,47.6 55,44.5 56.6,42.4 59,39.3 59.5,37.8 59.4,33.3 59.1,21.3 47,12.4 34.6,15.2 Z m 12.2,9.3 C 51.9,29.3 51.3,40 45.7,45.7 44,47.5 42,49 41.3,49 c -2.4,0 -9,-7.5 -10.8,-12.4 -1.412451,-3.831128 -1.218677,-5.868872 0.1,-8.5 2.2,-4.2 7.7,-7.3 11.3,-6.5 1.5,0.4 3.6,1.6 4.9,2.9 z m -2.6,38.9 c 7.2,7 7.9,17.7 1.4,21.7 C 37.2,90.2 29,84.5 29,73.5 c 0,-5 1,-7.7 4.3,-11.3 3,-3.2 6.8,-2.8 10.9,1.2 z"
     id="path2"
     style="fill:#000000;stroke:none;stroke-width:0.1" />
</svg>
