<?xml version="1.0" standalone="no"?>
<!DOCTYPE svg PUBLIC "-//W3C//DTD SVG 20010904//EN"
 "http://www.w3.org/TR/2001/REC-SVG-20010904/DTD/svg10.dtd">
<svg version="1.0" xmlns="http://www.w3.org/2000/svg"
 width="148.000000pt" height="128.000000pt" viewBox="0 0 148.000000 128.000000"
 preserveAspectRatio="xMidYMid meet">
<metadata>
Created by potrace 1.16, written by Peter Selinger 2001-2019
</metadata>
<g transform="translate(0.000000,128.000000) scale(0.100000,-0.100000)"
fill="#000000" stroke="none">
<path d="M222 1253 c2 -16 8 -28 13 -28 6 -1 19 -6 30 -12 11 -6 32 -9 47 -6
31 6 73 47 63 62 -3 6 -39 11 -81 11 -75 0 -75 0 -72 -27z"/>
<path d="M1420 1246 c0 -39 35 -75 55 -55 7 7 5 13 -7 20 -13 7 -16 17 -11 39
5 26 2 30 -16 30 -17 0 -21 -6 -21 -34z"/>
<path d="M2 1178 c3 -22 7 -23 75 -20 100 5 115 -1 111 -46 -2 -29 1 -37 15
-40 9 -2 17 0 18 5 0 4 1 31 2 60 2 63 2 63 -131 63 -91 0 -93 -1 -90 -22z"/>
<path d="M248 1178 c9 -9 15 -9 24 0 9 9 7 12 -12 12 -19 0 -21 -3 -12 -12z"/>
<path d="M395 1180 c-3 -5 -1 -10 4 -10 6 0 11 5 11 10 0 6 -2 10 -4 10 -3 0
-8 -4 -11 -10z"/>
<path d="M163 995 c0 -22 2 -30 4 -17 2 12 2 30 0 40 -3 9 -5 -1 -4 -23z"/>
<path d="M599 990 c-33 -17 -37 -23 -41 -72 -10 -96 -6 -123 19 -126 14 -2 38
9 62 28 43 35 102 48 166 36 36 -7 37 -8 30 -44 -10 -56 -62 -138 -194 -313
-18 -24 -36 -51 -39 -59 -3 -8 -13 -26 -22 -40 -21 -30 -60 -99 -60 -105 0 -2
14 -12 30 -20 26 -14 68 -16 270 -13 179 2 242 6 252 16 8 8 14 45 17 92 3 75
2 80 -17 80 -12 0 -33 -15 -48 -36 -36 -47 -84 -66 -171 -67 -55 -2 -76 2 -89
15 -15 15 -15 19 7 59 25 46 44 74 122 183 26 37 47 69 47 72 0 2 29 53 65
113 36 59 65 112 65 118 0 29 -34 36 -183 39 -161 3 -213 12 -237 43 -15 19
-16 19 -51 1z"/>
<path d="M1350 930 c-13 -31 -24 -37 -35 -20 -9 15 -25 2 -25 -19 0 -10 -9
-26 -20 -36 -11 -10 -20 -25 -20 -34 0 -9 -7 -29 -15 -45 -8 -15 -15 -36 -15
-46 0 -9 -7 -31 -16 -49 -26 -52 -8 -211 38 -334 16 -41 73 -87 110 -87 35 0
91 31 113 63 20 28 20 127 0 153 -8 10 -15 24 -15 31 0 14 -47 63 -59 63 -5 0
-11 -7 -15 -15 -8 -21 -39 -19 -59 3 -23 25 -23 107 -1 116 8 3 24 1 35 -5 15
-7 24 -7 35 2 29 24 8 52 -41 53 -35 1 -32 44 6 75 26 22 33 37 39 79 5 42 3
55 -10 67 -16 14 -18 13 -30 -15z m-13 -97 c-3 -10 -5 -4 -5 12 0 17 2 24 5
18 2 -7 2 -21 0 -30z"/>
<path d="M260 936 c-6 -8 -21 -16 -33 -18 -12 -2 -28 -15 -35 -30 -11 -24 -10
-33 17 -80 35 -64 44 -148 35 -310 -7 -109 -7 -110 -44 -149 -20 -21 -44 -39
-53 -39 -26 0 -33 -29 -11 -49 17 -16 29 -17 94 -10 41 4 108 8 148 8 85 1
100 16 60 59 -62 66 -62 68 -66 303 -4 183 -2 225 12 258 14 36 14 42 0 56
-20 20 -107 20 -124 1z"/>
<path d="M153 640 c-5 -34 -6 -63 -1 -66 4 -3 8 -44 8 -91 0 -48 2 -84 5 -82
6 7 10 288 3 294 -3 3 -10 -22 -15 -55z"/>
<path d="M0 411 c0 -186 1 -191 20 -191 12 0 35 7 51 16 40 20 37 58 -6 82
-16 9 -33 22 -37 27 -4 6 -8 63 -8 127 0 67 -4 119 -10 123 -7 4 -10 -60 -10
-184z"/>
<path d="M151 182 c-8 -15 -7 -23 3 -31 11 -10 16 -8 21 9 10 30 -10 48 -24
22z"/>
<path d="M1438 112 c-8 -30 -56 -51 -70 -31 -8 11 -9 10 -4 -4 4 -11 -3 -27
-18 -42 -27 -26 -24 -35 11 -35 16 0 23 6 23 19 0 16 5 18 40 14 39 -6 40 -5
40 26 0 17 5 31 10 31 6 0 10 5 10 10 0 6 -6 10 -14 10 -8 0 -16 6 -18 12 -3
7 -7 3 -10 -10z"/>
<path d="M197 113 c-3 -5 -2 -24 1 -43 5 -33 6 -34 13 -10 10 37 10 60 0 60
-6 0 -12 -3 -14 -7z"/>
<path d="M613 17 c-8 -14 -1 -14 82 -7 80 6 80 6 2 11 -44 2 -81 0 -84 -4z"/>
<path d="M353 13 c43 -2 110 -2 150 0 40 1 5 3 -78 3 -82 0 -115 -2 -72 -3z"/>
<path d="M1218 13 c6 -2 18 -2 25 0 6 3 1 5 -13 5 -14 0 -19 -2 -12 -5z"/>
</g>
</svg>
