<?xml version="1.0" encoding="UTF-8" standalone="no"?>
<svg
   version="1.0"
   width="114.000000pt"
   height="132.000000pt"
   viewBox="0 0 114.000000 132.000000"
   preserveAspectRatio="xMidYMid meet"
   id="svg5"
   sodipodi:docname="G.svg"
   inkscape:export-filename="G.svg"
   inkscape:export-xdpi="96"
   inkscape:export-ydpi="96"
   inkscape:version="1.4 (e7c3feb1, 2024-10-09)"
   xmlns:inkscape="http://www.inkscape.org/namespaces/inkscape"
   xmlns:sodipodi="http://sodipodi.sourceforge.net/DTD/sodipodi-0.dtd"
   xmlns="http://www.w3.org/2000/svg"
   xmlns:svg="http://www.w3.org/2000/svg">
  <defs
     id="defs5" />
  <sodipodi:namedview
     id="namedview5"
     pagecolor="#ffffff"
     bordercolor="#000000"
     borderopacity="0.25"
     inkscape:showpageshadow="2"
     inkscape:pageopacity="0.0"
     inkscape:pagecheckerboard="0"
     inkscape:deskcolor="#d1d1d1"
     inkscape:document-units="pt"
     inkscape:zoom="1.6713433"
     inkscape:cx="5.9832112"
     inkscape:cy="109.79193"
     inkscape:current-layer="svg5" />
  <metadata
     id="metadata1">
Created by potrace 1.16, written by Peter Selinger 2001-2019
</metadata>
  <path
     d="M 38.6,30.3 C 28.1,40.9 22.2,55.9 23.3,69.4 c 1.1,13.3 4.1,18.7 13.4,24.2 8.5,5 28.348538,4.019537 37.3,-1.4 4.222055,-2.095167 5.612185,-3.641389 7.6,-9.7 1.2,-3.9 2.9,-10.5 3.9,-14.7 0.9,-4.3 2.6,-8.9 3.7,-10.3 1.3,-1.7 1.7,-3 1.1,-3.6 -0.5,-0.5 -6.6,-0.8 -13.9,-0.7 -12.1,0.3 -12.9,0.4 -12.9,2.3 0,1.3 1,2.2 3,2.8 7.3,2.2 8,2.9 7.9,8.5 -0.2,6.3 -5.155506,18.581939 -8.984375,20.546394 C 61.586756,89.310849 59.5,89.3 55.8,89.4 c -6,0 -7.1,-0.3 -10.5,-3 -4.444525,-3.386305 -9.706405,-9.965207 -8.9,-21.9 0.8,-13.6 8.1,-28.6 17,-35.3 8.6,-6.5 18.2,-9.1 26,-7.1 3.4,0.8 4.6,1.8 6,4.5 0.9,1.9 1.6,4.1 1.6,4.9 0,3.2 2.4,6.6 4.4,6.3 2.8,-0.4 4.8,-4.9 5.3,-12.2 C 97.3,17.3 94.723492,14.498104 89.355288,15.775962 83.987085,17.05382 79.9,14.9 75.5,14.6 61.157656,12.845116 48.618392,20.668945 38.6,30.3 Z"
     id="path3"
     style="fill:#000000;stroke:none;stroke-width:0.1"
     sodipodi:nodetypes="cccccccscscczccccccscczsc" />
</svg>
