<?xml version="1.0" encoding="UTF-8" standalone="no"?>
<svg
   version="1.0"
   width="168.000000pt"
   height="114.000000pt"
   viewBox="0 0 168.000000 114.000000"
   preserveAspectRatio="xMidYMid meet"
   id="svg8"
   sodipodi:docname="M.svg"
   inkscape:version="1.4 (e7c3feb1, 2024-10-09)"
   xmlns:inkscape="http://www.inkscape.org/namespaces/inkscape"
   xmlns:sodipodi="http://sodipodi.sourceforge.net/DTD/sodipodi-0.dtd"
   xmlns="http://www.w3.org/2000/svg"
   xmlns:svg="http://www.w3.org/2000/svg">
  <defs
     id="defs8" />
  <sodipodi:namedview
     id="namedview8"
     pagecolor="#ffffff"
     bordercolor="#000000"
     borderopacity="0.25"
     inkscape:showpageshadow="2"
     inkscape:pageopacity="0.0"
     inkscape:pagecheckerboard="0"
     inkscape:deskcolor="#d1d1d1"
     inkscape:document-units="pt"
     inkscape:zoom="1.9352396"
     inkscape:cx="-4.6505869"
     inkscape:cy="75.70122"
     inkscape:current-layer="svg8" />
  <metadata
     id="metadata1">
Created by potrace 1.16, written by Peter Selinger 2001-2019
</metadata>
  <path
     d="m 135.4,16.3 c -3.8,2.1 -39.2,37.5 -52.2,52 -5.7,6.5 -10.4,4.3 -8.3,-4 0.5,-2.1 1.4,-9.7 2,-16.8 0.7,-7.2 1.6,-16.2 2.2,-20.2 C 80.7,16 80.7,16 64.5,16 c -8.2,0 -13.6,0.4 -14,1 -1.1,1.8 1.5,4 6.1,5.1 6.4,1.7 7.1,3 4.3,8.4 -1.3,2.5 -3.3,5.5 -4.4,6.8 -3.7,4.1 -10.3,13.2 -16.1,22.2 -11.8,18.4 -15.8,23.1 -21.1,25 -2.6,1 -5.8,2.8 -7,3.9 -2.1,2 -2.2,2.2 -0.5,4.4 1.8,2.3 1.9,2.3 17,1.6 15.1,-0.7 15.2,-0.7 15.2,-3 0,-3.946891 -8,-1.888364 -8,-6.2 0,-2.3 8.3,-18.4 12.9,-25 1,-1.5 2.7,-4.1 3.7,-5.9 5,-8.5 11.6,-17.3 13,-17.3 0.8,0 1.7,0.7 2.1,1.6 0.6,1.6 -0.8,15.9 -3.4,32.9 -2.6,18 -2.6,18 -1,19.3 2.3,1.9 5.9,0 10.8,-5.9 5.1,-6.1 40.6,-41.6 43,-42.9 1.8,-1 2.9,-0.4 2.9,1.7 0,2.3 -9.2,25 -14.8,36.3 -1.2,2.6 -3.2,4.2 -7.4,6.3 -4.1,1.9 -5.8,3.4 -5.8,4.7 0,2.5 5,3.2 21,2.8 10.3,-0.2 12.5,-0.6 12.8,-1.8 0.2,-1 -1.1,-2.3 -3.3,-3.3 -4.7,-2.2 -6,-5.2 -4.7,-10.8 2.3,-9.4 10.5,-31.5 15.7,-42.2 4.5,-9.3 6.2,-11.7 9.9,-14.5 5.8,-4.1 5.3,-6.2 -1.3,-6.2 -2.5,0.1 -5.6,0.6 -6.7,1.3 z"
     id="path1"
     style="fill:#000000;stroke:none;stroke-width:0.1"
     sodipodi:nodetypes="cccccsccccccccsssccscccccsccscccccccc" />
</svg>
