<?xml version="1.0" standalone="no"?>
<!DOCTYPE svg PUBLIC "-//W3C//DTD SVG 20010904//EN"
 "http://www.w3.org/TR/2001/REC-SVG-20010904/DTD/svg10.dtd">
<svg version="1.0" xmlns="http://www.w3.org/2000/svg"
 width="196.000000pt" height="191.000000pt" viewBox="0 0 196.000000 191.000000"
 preserveAspectRatio="xMidYMid meet">
<metadata>
Created by potrace 1.16, written by Peter Selinger 2001-2019
</metadata>
<g transform="translate(0.000000,191.000000) scale(0.100000,-0.100000)"
fill="#000000" stroke="none">
<path d="M204 1875 c7 -34 6 -35 -22 -35 -22 0 -31 -6 -35 -21 -3 -12 -10 -18
-17 -14 -6 4 -38 4 -71 0 -48 -6 -59 -10 -59 -25 0 -16 7 -18 63 -13 34 3 82
14 107 25 41 17 146 25 214 16 10 -2 21 3 23 10 4 11 -41 18 -87 14 -8 -1 -32
3 -53 10 -35 10 -37 14 -32 40 6 24 4 28 -15 28 -20 0 -22 -4 -16 -35z"/>
<path d="M1920 1856 c0 -44 -3 -55 -17 -58 -13 -3 -10 -6 10 -10 27 -5 27 -5
27 58 0 36 -4 64 -10 64 -5 0 -10 -24 -10 -54z"/>
<path d="M892 1832 c-12 -2 -20 -8 -16 -13 3 -5 10 -7 15 -4 5 4 9 2 9 -2 0
-8 70 -9 163 -4 15 0 27 7 27 14 0 9 -24 12 -88 13 -48 0 -97 -2 -110 -4z"/>
<path d="M1230 1831 c0 -3 4 -12 9 -20 6 -9 11 -10 15 -2 5 7 13 8 24 2 9 -5
44 -7 77 -5 33 2 70 4 82 4 24 0 42 19 21 22 -40 4 -228 3 -228 -1z"/>
<path d="M1605 1830 c-31 -11 -3 -19 89 -26 72 -5 86 -4 86 9 0 8 -6 17 -13
20 -18 7 -140 5 -162 -3z"/>
<path d="M432 1824 c9 -8 187 -10 181 -2 -2 5 -45 8 -95 8 -50 0 -89 -3 -86
-6z"/>
<path d="M35 1600 c-19 -8 -19 -9 3 -9 12 -1 22 4 22 9 0 6 -1 10 -2 9 -2 0
-12 -4 -23 -9z"/>
<path d="M35 1570 c-4 -6 -3 -16 3 -22 13 -13 23 4 13 21 -7 10 -10 10 -16 1z"/>
<path d="M29 1518 c-8 -13 -4 -86 4 -96 8 -10 7 -16 -3 -22 -12 -7 -11 -12 3
-28 12 -13 14 -21 6 -29 -13 -13 -8 -58 6 -58 6 0 11 48 13 118 2 100 1 117
-13 117 -8 0 -16 -1 -16 -2z"/>
<path d="M938 1490 c-49 -14 -139 -72 -201 -126 -33 -30 -64 -54 -68 -54 -5 0
-36 -41 -69 -90 -46 -71 -62 -106 -75 -165 -23 -103 -17 -206 20 -320 27 -81
35 -95 90 -148 68 -66 152 -127 211 -152 29 -13 67 -18 144 -18 127 -1 190 21
290 100 90 71 118 112 173 253 29 76 40 202 26 294 -12 76 -67 188 -119 243
-68 72 -166 132 -274 169 -72 25 -103 28 -148 14z m141 -122 c68 -29 147 -97
171 -147 40 -83 80 -221 80 -277 0 -117 -70 -295 -144 -362 -89 -82 -177 -95
-284 -41 -71 35 -114 88 -166 201 -39 85 -48 153 -34 258 24 184 88 298 214
376 44 27 86 25 163 -8z"/>
<path d="M202 1425 c0 -16 2 -22 5 -12 2 9 2 23 0 30 -3 6 -5 -1 -5 -18z"/>
<path d="M203 1230 c0 -30 2 -43 4 -27 2 15 2 39 0 55 -2 15 -4 2 -4 -28z"/>
<path d="M30 1250 c-13 -8 -13 -10 2 -10 9 0 20 5 23 10 8 13 -5 13 -25 0z"/>
<path d="M204 1055 c0 -49 1 -71 3 -48 2 23 2 64 0 90 -2 26 -3 8 -3 -42z"/>
<path d="M1846 1038 c-12 -7 -46 -8 -96 -4 -60 5 -84 3 -108 -10 -39 -19 -39
-30 -7 -94 23 -46 25 -59 25 -207 1 -143 -4 -183 -25 -235 -4 -9 -12 -15 -19
-12 -13 5 -53 -32 -44 -41 2 -3 18 -6 34 -7 16 -1 39 -10 50 -21 18 -15 21
-24 13 -51 -5 -19 -5 -45 1 -65 12 -44 -8 -89 -51 -114 -52 -29 -32 -42 69
-45 98 -3 130 -22 37 -22 -30 0 -55 -4 -55 -9 0 -6 36 -10 80 -10 71 0 80 2
78 17 -3 14 5 17 46 17 88 0 62 34 -39 51 -61 11 -73 32 -82 133 -5 65 -4 70
18 82 13 7 51 13 85 14 73 2 84 8 84 44 0 28 -1 29 -70 33 -48 2 -75 9 -87 20
-21 21 -31 94 -32 219 -1 149 36 229 106 229 35 0 64 -24 73 -62 3 -12 11 -23
18 -26 9 -3 12 18 12 79 0 66 -3 84 -17 95 -22 16 -71 17 -97 2z"/>
<path d="M27 954 c-3 -4 1 -13 9 -21 17 -18 29 -11 21 12 -7 16 -19 20 -30 9z"/>
<path d="M198 893 c7 -65 12 -67 12 -5 0 29 -4 52 -9 52 -5 0 -6 -21 -3 -47z"/>
<path d="M33 869 c-7 -7 -7 -24 -2 -47 11 -46 12 -139 1 -145 -9 -6 -8 -59 2
-75 18 -30 26 9 26 133 0 129 -5 156 -27 134z"/>
<path d="M203 795 c0 -22 2 -30 4 -17 2 12 2 30 0 40 -3 9 -5 -1 -4 -23z"/>
<path d="M1913 720 c0 -49 3 -90 7 -90 9 0 18 110 12 151 -9 58 -18 27 -19
-61z"/>
<path d="M200 724 c0 -8 5 -12 10 -9 6 4 8 11 5 16 -9 14 -15 11 -15 -7z"/>
<path d="M199 673 c-6 -43 5 -309 12 -298 9 15 9 325 -1 325 -4 0 -9 -12 -11
-27z"/>
<path d="M1908 603 c-6 -26 2 -54 13 -48 12 8 12 65 0 65 -5 0 -11 -8 -13 -17z"/>
<path d="M46 498 c-5 -10 -16 -18 -25 -19 -10 0 -8 -4 8 -10 29 -11 34 -8 29
23 -4 20 -6 21 -12 6z"/>
<path d="M800 381 c0 -38 28 -53 49 -27 10 12 8 17 -8 25 -24 13 -41 14 -41 2z"/>
<path d="M201 252 c1 -62 5 -112 9 -112 8 0 2 211 -6 220 -3 2 -4 -46 -3 -108z"/>
<path d="M986 132 c-8 -13 14 -19 82 -24 33 -3 42 0 40 11 -3 15 -60 20 -91 8
-9 -3 -17 -1 -20 6 -2 8 -5 8 -11 -1z"/>
<path d="M121 121 c-10 -6 -10 -10 -1 -16 13 -8 24 -1 19 14 -3 6 -10 7 -18 2z"/>
<path d="M936 118 c3 -4 11 -5 19 -1 21 7 19 12 -4 10 -11 0 -18 -5 -15 -9z"/>
<path d="M398 23 c12 -2 32 -2 45 0 12 2 2 4 -23 4 -25 0 -35 -2 -22 -4z"/>
</g>
</svg>
