<?xml version="1.0" standalone="no"?>
<!DOCTYPE svg PUBLIC "-//W3C//DTD SVG 20010904//EN"
 "http://www.w3.org/TR/2001/REC-SVG-20010904/DTD/svg10.dtd">
<svg version="1.0" xmlns="http://www.w3.org/2000/svg"
 width="163.000000pt" height="150.000000pt" viewBox="0 0 163.000000 150.000000"
 preserveAspectRatio="xMidYMid meet">
<metadata>
Created by potrace 1.16, written by Peter Selinger 2001-2019
</metadata>
<g transform="translate(0.000000,150.000000) scale(0.100000,-0.100000)"
fill="#000000" stroke="none">
<path d="M198 1473 c-3 -25 -5 -26 -68 -27 -65 -1 -65 -1 -64 -79 1 -43 5 -81
8 -84 12 -12 18 7 22 64 6 78 9 86 33 73 23 -12 71 -13 88 -2 6 4 14 24 18 45
6 33 5 37 -13 37 -15 0 -22 -8 -24 -27z"/>
<path d="M1160 1482 c0 -24 99 -45 143 -29 18 6 32 6 40 -1 6 -6 25 -12 41
-14 22 -2 30 2 37 20 8 22 8 22 -95 22 -57 0 -118 3 -135 6 -18 4 -31 2 -31
-4z"/>
<path d="M955 1470 c-3 -5 -1 -10 4 -10 6 0 11 5 11 10 0 6 -2 10 -4 10 -3 0
-8 -4 -11 -10z"/>
<path d="M330 1386 c-17 -8 -20 -17 -19 -52 2 -23 -3 -49 -10 -58 -15 -17 -11
-58 5 -63 8 -3 15 19 19 59 11 93 15 99 83 96 44 -2 57 0 60 13 2 12 -8 15
-57 15 -33 -1 -69 -5 -81 -10z"/>
<path d="M0 935 c0 -361 2 -425 14 -425 8 0 16 -8 18 -17 4 -24 81 -27 101 -5
23 27 28 52 12 52 -8 0 -15 6 -15 13 0 6 -20 24 -45 39 -43 27 -45 29 -45 76
0 26 5 53 11 59 9 9 9 19 -1 42 -8 19 -9 43 -5 63 8 35 8 70 -1 351 -5 167 -6
177 -24 177 -20 0 -20 -10 -20 -425z"/>
<path d="M425 1328 c-2 -7 -6 -36 -8 -65 -3 -39 0 -50 10 -46 9 3 13 24 13 64
0 56 -6 74 -15 47z"/>
<path d="M72 1220 c0 -19 2 -27 5 -17 2 9 2 25 0 35 -3 9 -5 1 -5 -18z"/>
<path d="M791 1189 c-80 -32 -171 -146 -190 -239 -14 -70 -16 -198 -3 -230 6
-14 18 -52 28 -84 36 -123 148 -185 284 -156 52 11 66 20 110 66 37 39 50 61
50 82 0 48 -19 55 -75 27 -88 -43 -195 -28 -242 34 -46 60 -65 149 -42 192 10
19 20 20 162 19 84 -1 162 -1 174 -1 17 1 25 10 33 40 26 99 -24 199 -120 238
-58 24 -128 28 -169 12z m141 -116 c23 -21 24 -69 1 -81 -10 -5 -53 -13 -95
-17 -88 -8 -100 1 -78 54 21 52 132 80 172 44z"/>
<path d="M227 1154 c-3 -4 -35 -14 -69 -24 -49 -13 -66 -23 -76 -43 -16 -32
-7 -54 14 -37 22 19 180 -2 206 -28 5 -5 11 -27 13 -48 2 -22 11 -58 20 -81
17 -42 17 -50 -1 -230 -5 -56 -8 -62 -35 -73 -30 -13 -43 -41 -37 -81 3 -23 5
-24 108 -24 116 0 155 9 144 34 -4 9 -9 26 -11 39 -3 12 -11 22 -19 22 -7 0
-18 9 -24 19 -9 19 -19 173 -23 388 -3 132 -24 156 -153 168 -28 3 -53 2 -57
-1z"/>
<path d="M420 1140 c0 -6 7 -13 15 -17 9 -3 22 -21 30 -39 8 -19 19 -34 24
-34 21 0 10 35 -20 68 -30 32 -49 41 -49 22z"/>
<path d="M507 1008 c-10 -34 -9 -38 8 -38 16 0 20 27 6 48 -6 10 -10 8 -14
-10z"/>
<path d="M283 898 c-16 -37 -17 -149 -1 -159 7 -5 15 -9 18 -9 8 0 6 177 -1
184 -3 3 -10 -4 -16 -16z"/>
<path d="M214 624 c4 -16 1 -35 -7 -48 -10 -14 -11 -29 -6 -44 10 -26 29 -21
29 7 0 9 5 22 12 29 9 9 9 15 0 24 -7 7 -12 22 -12 35 0 13 -5 23 -11 23 -7 0
-9 -10 -5 -26z"/>
<path d="M1598 343 c7 -3 16 -2 19 1 4 3 -2 6 -13 5 -11 0 -14 -3 -6 -6z"/>
<path d="M40 319 c0 -11 4 -18 10 -14 5 3 7 12 3 20 -7 21 -13 19 -13 -6z"/>
<path d="M99 263 c0 -16 -2 -49 -4 -75 -3 -52 -1 -53 60 -38 30 7 28 10 -20
25 -11 3 -15 19 -15 60 0 55 -19 80 -21 28z"/>
<path d="M1616 231 c-3 -5 -37 -8 -75 -7 -85 1 -91 -6 -90 -103 1 -58 -2 -73
-21 -93 -19 -20 -19 -23 -4 -26 9 -2 20 1 24 7 3 7 14 9 23 5 15 -5 17 4 17
85 0 91 0 91 70 91 68 0 70 1 70 25 0 26 -5 31 -14 16z"/>
<path d="M176 41 c-4 -5 -3 -16 0 -24 7 -19 118 -23 111 -4 -2 7 -12 12 -23
12 -10 0 -29 6 -41 13 -26 14 -40 15 -47 3z"/>
<path d="M1020 8 c0 -4 24 -7 53 -7 54 1 49 5 -15 11 -21 2 -38 0 -38 -4z"/>
</g>
</svg>
