<?xml version="1.0" standalone="no"?>
<!DOCTYPE svg PUBLIC "-//W3C//DTD SVG 20010904//EN"
 "http://www.w3.org/TR/2001/REC-SVG-20010904/DTD/svg10.dtd">
<svg version="1.0" xmlns="http://www.w3.org/2000/svg"
 width="72.000000pt" height="93.000000pt" viewBox="0 0 72.000000 93.000000"
 preserveAspectRatio="xMidYMid meet">
<metadata>
Created by potrace 1.16, written by Peter Selinger 2001-2019
</metadata>
<g transform="translate(0.000000,93.000000) scale(0.100000,-0.100000)"
fill="#000000" stroke="none">
<path d="M77 909 c-5 -17 -10 -19 -41 -13 -32 5 -36 4 -36 -15 0 -18 6 -21 38
-21 32 0 41 5 50 25 14 31 15 45 3 45 -5 0 -11 -9 -14 -21z"/>
<path d="M646 898 c10 -73 13 -78 44 -78 23 0 30 4 30 20 0 15 -6 19 -22 17
-20 -2 -23 3 -26 36 -2 23 -8 37 -17 37 -9 0 -12 -10 -9 -32z"/>
<path d="M336 791 c-15 -17 -18 -35 -16 -108 1 -48 3 -148 4 -221 2 -78 8
-138 14 -144 17 -17 42 -1 43 29 0 15 7 89 15 163 25 224 25 243 12 270 -17
32 -49 37 -72 11z"/>
<path d="M325 238 c-40 -23 -46 -57 -15 -88 25 -25 72 -26 94 -2 13 16 14 24
5 51 -10 29 -35 51 -56 51 -4 0 -17 -6 -28 -12z"/>
<path d="M0 100 c0 -5 5 -10 10 -10 14 0 13 -37 -1 -46 -17 -10 17 -27 40 -19
13 4 23 0 30 -12 11 -20 24 -13 16 9 -8 19 -95 92 -95 78z"/>
<path d="M602 79 c2 -6 8 -10 13 -10 5 0 11 4 13 10 2 6 -4 11 -13 11 -9 0
-15 -5 -13 -11z"/>
<path d="M660 79 c0 -5 -3 -8 -7 -6 -5 3 -8 -12 -8 -34 0 -45 22 -54 27 -11 2
21 8 27 26 25 16 -2 22 2 22 17 0 16 -7 20 -30 20 -16 0 -30 -5 -30 -11z"/>
</g>
</svg>
