<?xml version="1.0" encoding="UTF-8" standalone="no"?>
<svg
   version="1.0"
   width="76pt"
   height="114pt"
   viewBox="0 0 76 114"
   preserveAspectRatio="xMidYMid"
   id="svg9"
   xmlns="http://www.w3.org/2000/svg"
   xmlns:svg="http://www.w3.org/2000/svg">
  <defs
     id="defs9" />
  <metadata
     id="metadata1">
Created by potrace 1.16, written by Peter Selinger 2001-2019
</metadata>
  <path
     d="m 56.3,22.5 c -1.6,1.9 -3.1,2.5 -6.2,2.5 -6.9,0 -8.7,1.3 -12.5,9 -2,3.9 -3.6,8.2 -3.6,9.4 0,1.6 1.7,3.8 5.4,7 8,6.8 9.9,10.4 10,19 0.1,8.7 -1.4,11.8 -9.3,19.9 -4.6,4.7 -5.3,5.9 -4.1,6.7 4.5,2.9 12.1,-1.9 18,-11.3 9.1,-14.4 7.3,-28.3 -5.2,-39.8 -3.7,-3.4 -5.8,-6 -5.4,-6.7 0.4,-0.7 2.8,-1.2 5.4,-1.3 7.8,-0.2 9.5,-1.1 12.5,-6.4 3.3,-6.2 3.2,-9.9 -0.3,-10.3 -1.6,-0.1 -3.2,0.6 -4.7,2.3 z"
     id="path2"
     style="fill:#000000;stroke:none;stroke-width:0.1" />
</svg>
