<?xml version="1.0" standalone="no"?>
<!DOCTYPE svg PUBLIC "-//W3C//DTD SVG 20010904//EN"
 "http://www.w3.org/TR/2001/REC-SVG-20010904/DTD/svg10.dtd">
<svg version="1.0" xmlns="http://www.w3.org/2000/svg"
 width="76.000000pt" height="114.000000pt" viewBox="0 0 76.000000 114.000000"
 preserveAspectRatio="xMidYMid meet">
<metadata>
Created by potrace 1.16, written by Peter Selinger 2001-2019
</metadata>
<g transform="translate(0.000000,114.000000) scale(0.100000,-0.100000)"
fill="#000000" stroke="none">
<path d="M2 1088 c2 -13 6 -22 11 -20 4 1 174 2 377 2 363 0 370 0 370 20 0
20 -7 20 -381 20 -380 0 -380 0 -377 -22z"/>
<path d="M563 915 c-16 -19 -31 -25 -62 -25 -69 0 -87 -13 -125 -90 -20 -39
-36 -82 -36 -94 0 -16 17 -38 54 -70 80 -68 99 -104 100 -190 1 -87 -14 -118
-93 -199 -46 -47 -53 -59 -41 -67 45 -29 121 19 180 113 91 144 73 283 -52
398 -37 34 -58 60 -54 67 4 7 28 12 54 13 78 2 95 11 125 64 33 62 32 99 -3
103 -16 1 -32 -6 -47 -23z"/>
<path d="M0 740 c0 -100 4 -160 10 -160 6 0 10 41 10 104 0 129 9 159 48 154
17 -2 27 2 26 10 -1 6 -2 21 -2 32 -2 17 -9 20 -47 20 -45 0 -45 0 -45 -160z"/>
<path d="M56 551 c-3 -5 1 -14 8 -20 16 -13 32 2 21 19 -8 12 -22 13 -29 1z"/>
<path d="M1 488 c-1 -31 3 -59 7 -62 16 -9 82 6 82 19 0 7 -16 22 -35 34 -20
11 -40 31 -45 43 -7 18 -9 11 -9 -34z"/>
<path d="M317 494 c-14 -15 -6 -34 14 -34 14 0 19 5 17 17 -3 18 -20 27 -31
17z"/>
<path d="M175 91 c-3 -3 -25 -4 -49 -2 -36 2 -45 -1 -50 -16 -5 -15 -14 -18
-41 -15 -26 3 -35 0 -35 -10 0 -12 20 -15 102 -16 56 -1 104 1 108 3 12 8 -2
62 -16 62 -8 0 -16 -3 -19 -6z"/>
<path d="M253 45 c2 -6 35 -9 78 -8 95 2 91 1 84 12 -7 13 -166 9 -162 -4z"/>
<path d="M434 49 c-3 -5 64 -9 160 -9 102 0 166 4 166 10 0 12 -318 12 -326
-1z"/>
</g>
</svg>
