<?xml version="1.0" encoding="UTF-8" standalone="no"?>
<svg
   version="1.0"
   width="94.000000pt"
   height="122.000000pt"
   viewBox="0 0 94.000000 122.000000"
   preserveAspectRatio="xMidYMid meet"
   id="svg12"
   sodipodi:docname="d.svg"
   inkscape:version="1.4 (e7c3feb1, 2024-10-09)"
   xmlns:inkscape="http://www.inkscape.org/namespaces/inkscape"
   xmlns:sodipodi="http://sodipodi.sourceforge.net/DTD/sodipodi-0.dtd"
   xmlns="http://www.w3.org/2000/svg"
   xmlns:svg="http://www.w3.org/2000/svg">
  <defs
     id="defs12" />
  <sodipodi:namedview
     id="namedview12"
     pagecolor="#ffffff"
     bordercolor="#000000"
     borderopacity="0.25"
     inkscape:showpageshadow="2"
     inkscape:pageopacity="0.0"
     inkscape:pagecheckerboard="0"
     inkscape:deskcolor="#d1d1d1"
     inkscape:document-units="pt"
     inkscape:zoom="2.557377"
     inkscape:cx="26.589744"
     inkscape:cy="118.67628"
     inkscape:current-layer="svg12" />
  <metadata
     id="metadata1">
Created by potrace 1.16, written by Peter Selinger 2001-2019
</metadata>
  <path
     d="m 66.6,13.7 c -1.6,0.4 -1.7,1.1 -1.2,5.5 0.5,3.4 0.2,6.8 -0.8,10.2 -0.8,2.8 -2.2,8 -3.1,11.6 -2.6,9.9 -2.7,10 -9.3,10 -19.276487,0.247134 -32.304963,24.944729 -33.2,27 -3.2,7.3 -3.5,18.7 -0.6,21.9 4.1,4.5 14.5,0.7 23.4,-8.6 6.5,-6.8 8,-6.2 6.2,2.2 -1.4,6.6 -1,8.2 2.6,9.5 7.349246,2.85804 23.34463,-13.362809 19.1,-16.9 -1,-0.8 -2.4,-0.6 -5.6,1 -4.9,2.3 -7.1,1.9 -7.1,-1.3 0,-1.2 2.2,-8.3 4.9,-15.7 2.7,-7.5 6.3,-19 8.1,-25.6 1.8,-6.6 4.1,-14.7 5.2,-18 2.6,-8.2 3.2,-11.2 2.1,-11.8 -1.5,-1 -8.6,-1.6 -10.7,-1 z m -33,76.5 c -3.8,2.1 -7.5,2.3 -8.2,0.3 -2.122118,-5.766354 5.518901,-18.455764 16,-27.3 21.349061,-16.263789 8.337277,18.157657 -7.8,27 z"
     id="path5"
     style="fill:#000000;stroke:none;stroke-width:0.1"
     sodipodi:nodetypes="ccccccccccccscsccccccc" />
</svg>
