<?xml version="1.0" encoding="UTF-8" standalone="no"?>
<svg
   version="1.0"
   width="132.000000pt"
   height="104.000000pt"
   viewBox="0 0 132.000000 104.000000"
   preserveAspectRatio="xMidYMid meet"
   id="svg5"
   sodipodi:docname="K.svg"
   inkscape:version="1.4 (e7c3feb1, 2024-10-09)"
   xmlns:inkscape="http://www.inkscape.org/namespaces/inkscape"
   xmlns:sodipodi="http://sodipodi.sourceforge.net/DTD/sodipodi-0.dtd"
   xmlns="http://www.w3.org/2000/svg"
   xmlns:svg="http://www.w3.org/2000/svg">
  <defs
     id="defs5" />
  <sodipodi:namedview
     id="namedview5"
     pagecolor="#ffffff"
     bordercolor="#000000"
     borderopacity="0.25"
     inkscape:showpageshadow="2"
     inkscape:pageopacity="0.0"
     inkscape:pagecheckerboard="0"
     inkscape:deskcolor="#d1d1d1"
     inkscape:document-units="pt"
     inkscape:zoom="0.75"
     inkscape:cx="-21.333333"
     inkscape:cy="-48.666667"
     inkscape:current-layer="svg5" />
  <metadata
     id="metadata1">
Created by potrace 1.16, written by Peter Selinger 2001-2019
</metadata>
  <path
     d="M 97,10.1 C 82.3,11.3 81.6,11.5 82.5,14.8 84.449011,21.515838 78.213521,29.436944 72.13033,34.141942 66.047139,38.84694 61.799599,41.659251 56.725,44.5375 51.650401,47.415749 48.327029,46.990291 50.627029,50.290291 63.201961,70.050898 65.573437,76.290964 69,82 c 3.426563,5.709036 9,9 18.5,9.3 9.7,0.3 10.6,-1.1 3.3,-5.2 C 83.4,81.9 76.6,75.2 74,69.4 65.9,51.9 65.2,49.8 66,47.1 67,43.4 81.6,29.4 89.2,24.8 c 3.4,-2.1 8.6,-4.7 11.7,-5.8 8.2,-3 12.6,-5.7 12.6,-7.7 0,-2.1 -2.1,-2.3 -16.5,-1.2 z"
     id="path1"
     style="fill:#000000;stroke:none;stroke-width:0.1"
     sodipodi:nodetypes="cczzczccccccsc" />
  <path
     d="m 50.7,11.4 c -12.4,0.1 -13.2,0.2 -13.2,2.1 0,1.4 1.2,2.4 4.3,3.5 2.4,0.8 4.8,2.3 5.4,3.3 1.2,2.2 0.6,7.3 -1.5,14.2 -2.6,8.2 -5.7,17.8 -6.8,21 -0.6,1.6 -1.7,5.3 -2.4,8.2 -2.8,10.1 -5.3,14 -11,17.3 -3,1.7 -5.7,3.9 -6,5 -0.8,2.4 1.6,6.2 3.4,5.5 0.8,-0.3 7.2,-0.9 14.2,-1.2 7,-0.3 13.3,-0.9 14,-1.4 1.6,-0.9 0.4,-3.8 -1.8,-4.6 -3.2,-1.1 -5.3,-3.6 -5.3,-6.2 0,-5.4 8.8,-37.6 12.4,-45.6 0.8,-1.7 1.7,-4.6 2,-6.6 0.9,-4.9 3.8,-8.5 7.6,-9.2 3.8,-0.8 5,-3.5 2.5,-5.3 -0.721233,-0.531908 -4.972862,0.06795 -17.8,0 z"
     id="path2"
     style="fill:#000000;stroke:none;stroke-width:0.1"
     sodipodi:nodetypes="csccccccccsccsccccc" />
</svg>
