<?xml version="1.0" encoding="UTF-8" standalone="no"?>
<svg
   version="1.0"
   width="114.000000pt"
   height="112.000000pt"
   viewBox="0 0 114.000000 112.000000"
   preserveAspectRatio="xMidYMid meet"
   id="svg8"
   sodipodi:docname="P.svg"
   inkscape:version="1.4 (e7c3feb1, 2024-10-09)"
   xmlns:inkscape="http://www.inkscape.org/namespaces/inkscape"
   xmlns:sodipodi="http://sodipodi.sourceforge.net/DTD/sodipodi-0.dtd"
   xmlns="http://www.w3.org/2000/svg"
   xmlns:svg="http://www.w3.org/2000/svg">
  <defs
     id="defs8" />
  <sodipodi:namedview
     id="namedview8"
     pagecolor="#ffffff"
     bordercolor="#000000"
     borderopacity="0.25"
     inkscape:showpageshadow="2"
     inkscape:pageopacity="0.0"
     inkscape:pagecheckerboard="0"
     inkscape:deskcolor="#d1d1d1"
     inkscape:document-units="pt"
     inkscape:zoom="3.9395949"
     inkscape:cx="55.843305"
     inkscape:cy="66.631216"
     inkscape:current-layer="svg8" />
  <metadata
     id="metadata1">
Created by potrace 1.16, written by Peter Selinger 2001-2019
</metadata>
  <path
     d="m 44,11.9 c -4.2,0.7 -5.4,3.8 -1.8,4.5 1.3,0.3 3.6,0.7 5.1,1.1 3.1,0.6 5.1,4.5 4.2,7.9 -2.4,8.2 -12.1,37.9 -13.6,41.2 -1,2.3 -2.1,5.5 -2.5,7 -0.8,3.4 -3.9,7 -7.6,9 -3.3,1.7 -4.5,5.1 -2.5,7.1 1.9,1.9 27.7,1.9 28.9,0 C 55.935057,86.899227 45.596154,85.402687 46,78.6 46.053335,77.701582 47.3,73 48.9,68.2 55.2,49.1 60.8,31.3 61.5,28 c 0.4,-1.9 1.6,-5 2.7,-6.8 1.7,-2.8 2.5,-3.2 6.2,-3.2 5.8,0 10.6,4.5 10.6,10 0,9.8 -5.2,17.3 -15,21.9 -6.8,3.2 -7,3.4 -5.4,5.3 3.8,4.1 17.7,-1 23.9,-8.7 4.7,-5.8 5.4,-7.5 6.1,-15.2 0.6,-5.8 0.3,-7.5 -1.4,-11 -3.7,-7.1 -6.3,-8 -25.2,-8.5 -9.1,-0.2 -18.1,-0.2 -20,0.1 z"
     id="path2"
     style="fill:#000000;stroke:none;stroke-width:0.1"
     sodipodi:nodetypes="cccccccscscccssccccccc" />
</svg>
