<?xml version="1.0" encoding="UTF-8" standalone="no"?>
<svg
   version="1.0"
   width="78.000000pt"
   height="118.000000pt"
   viewBox="0 0 78.000000 118.000000"
   preserveAspectRatio="xMidYMid meet"
   id="svg15"
   sodipodi:docname="l.svg"
   inkscape:version="1.4 (e7c3feb1, 2024-10-09)"
   xmlns:inkscape="http://www.inkscape.org/namespaces/inkscape"
   xmlns:sodipodi="http://sodipodi.sourceforge.net/DTD/sodipodi-0.dtd"
   xmlns="http://www.w3.org/2000/svg"
   xmlns:svg="http://www.w3.org/2000/svg">
  <defs
     id="defs15" />
  <sodipodi:namedview
     id="namedview15"
     pagecolor="#ffffff"
     bordercolor="#000000"
     borderopacity="0.25"
     inkscape:showpageshadow="2"
     inkscape:pageopacity="0.0"
     inkscape:pagecheckerboard="0"
     inkscape:deskcolor="#d1d1d1"
     inkscape:document-units="pt"
     inkscape:zoom="2.6440678"
     inkscape:cx="-6.4294872"
     inkscape:cy="98.900641"
     inkscape:current-layer="svg15" />
  <metadata
     id="metadata1">
Created by potrace 1.16, written by Peter Selinger 2001-2019
</metadata>
  <path
     d="m 41.7,16 c -2.1,0.4 -4.7,1.6 -5.7,2.6 -1.8,1.7 -1.8,2.3 -0.6,5.8 1.3,3.7 1.1,4.6 -2,14 C 31.6,44 28.7,53.2 27,59 c -1.7,5.8 -4.7,15.2 -6.5,21 -4.7,14.6 -5,16.6 -3.1,19.5 3.5,5.3 13.9,1.4 19.5,-7.3 2.9,-4.6 4,-8.2 2.4,-8.2 -0.5,0 -2.3,0.9 -4.1,2 -3.5,2.1 -5.8,2.5 -6.6,1.2 C 28.1,86.3 33,70.8 42.7,42.5 50.3,20.5 50.6,19.3 49.4,17.2 48.1,15.2 46.8,15 41.7,16 Z"
     id="path2"
     style="fill:#000000;stroke:none;stroke-width:0.1" />
</svg>
