<?xml version="1.0" encoding="UTF-8" standalone="no"?>
<svg
   version="1.0"
   width="88.000000pt"
   height="128.000000pt"
   viewBox="0 0 88.000000 128.000000"
   preserveAspectRatio="xMidYMid meet"
   id="svg12"
   sodipodi:docname="b.svg"
   inkscape:version="1.4 (e7c3feb1, 2024-10-09)"
   xmlns:inkscape="http://www.inkscape.org/namespaces/inkscape"
   xmlns:sodipodi="http://sodipodi.sourceforge.net/DTD/sodipodi-0.dtd"
   xmlns="http://www.w3.org/2000/svg"
   xmlns:svg="http://www.w3.org/2000/svg">
  <defs
     id="defs12" />
  <sodipodi:namedview
     id="namedview12"
     pagecolor="#ffffff"
     bordercolor="#000000"
     borderopacity="0.25"
     inkscape:showpageshadow="2"
     inkscape:pageopacity="0.0"
     inkscape:pagecheckerboard="0"
     inkscape:deskcolor="#d1d1d1"
     inkscape:document-units="pt"
     inkscape:zoom="3.4471456"
     inkscape:cx="14.504755"
     inkscape:cy="101.38823"
     inkscape:current-layer="svg12" />
  <metadata
     id="metadata1">
Created by potrace 1.16, written by Peter Selinger 2001-2019
</metadata>
  <path
     d="m 43.7,13.7 c -3.1,0.5 -5,3.2 -3.6,5.4 1.6,2.6 0.9,6 -4.5,21.2 -10.8,30.3 -15,45.4 -15,54 -0.1,7.74615 3,11 9.9,10.5 5,-0.3 7,-1 11.8,-4.2 C 49.1,96 59.1,84.3 62.6,76.5 67.4,66.1 67.1,57.1 61.9,54.4 57.5,52.2 53.5,53.9 45.4,61.5 38.6,67.8 36.3,68.7 37.3,64.6 38.4,60 46.1,38.9 50.4,28.5 52.9,22.5 55,17.2 55,16.8 52.153421,12.982512 47.817513,13.151901 43.7,13.7 Z m 10.7,48.9 c 4.5,1.7 -2,17.9 -10.9,27.1 -5.4,5.6 -9.9,7 -12.5,3.8 -5.22562,-6.294497 16.121581,-33.32614 23.4,-30.9 z"
     id="path4"
     style="fill:#000000;stroke:none;stroke-width:0.1"
     sodipodi:nodetypes="cccccccccccsccccc" />
</svg>
