<?xml version="1.0" encoding="UTF-8" standalone="no"?>
<svg
   version="1.0"
   width="112.000000pt"
   height="124.000000pt"
   viewBox="0 0 112.000000 124.000000"
   preserveAspectRatio="xMidYMid meet"
   id="svg28"
   sodipodi:docname="g.svg"
   inkscape:version="1.4 (e7c3feb1, 2024-10-09)"
   xmlns:inkscape="http://www.inkscape.org/namespaces/inkscape"
   xmlns:sodipodi="http://sodipodi.sourceforge.net/DTD/sodipodi-0.dtd"
   xmlns="http://www.w3.org/2000/svg"
   xmlns:svg="http://www.w3.org/2000/svg">
  <defs
     id="defs28" />
  <sodipodi:namedview
     id="namedview28"
     pagecolor="#ffffff"
     bordercolor="#000000"
     borderopacity="0.25"
     inkscape:showpageshadow="2"
     inkscape:pageopacity="0.0"
     inkscape:pagecheckerboard="0"
     inkscape:deskcolor="#d1d1d1"
     inkscape:document-units="pt"
     inkscape:zoom="5.0322581"
     inkscape:cx="44.910257"
     inkscape:cy="95.285257"
     inkscape:current-layer="svg28" />
  <metadata
     id="metadata1">
Created by potrace 1.16, written by Peter Selinger 2001-2019
</metadata>
  <path
     d="M 58.3,15 C 52.4,18 46.6,26.8 43.9,36.7 42,43.6 41.750962,46.8375 42.950962,51.7375 43.650962,54.6375 44.3,56.6 44.1,58.3 c -0.1,1.8 -1.170954,5.693935 -0.947121,9.601923 0.223839,3.907989 2.575968,6.113827 -0.133172,7.727404 -9.603848,5.400283 -28.587099,11.757727 -17.629322,25.172593 3.005769,3.30385 6.135577,4.34712 12.709615,4.39808 19.4,0.4 24.211538,-0.2 29.911538,-2.7 4.2,-1.9 6.196154,-4.094231 7.396154,-7.094231 C 77.713461,89.992307 72.621154,82.058654 61.3,74.6 58.7,73 55.5,71.1 54.2,70.3 c -2.7,-1.7 -4.5,-5.8 -3.6,-8.5 0.3,-1.1 3.3,-3.2 6.9,-5 9.3,-4.4 15,-14 16.3,-27.8 0.7,-6.5 0.7,-6.5 4.9,-6.8 C 87,21.6 86.9,14 78.6,14 76.2,14 71.6,13.7 68.4,13.4 63.6,13 61.7,13.3 58.3,15 Z M 65,22.5 C 69.7,28.2 55.7,57.8 49.5,55.4 47.7,54.7 47.6,51 49.1,43.8 52.5,27.4 60.3,16.9 65,22.5 Z m -7.5,60 c 2.8,1.4 6.2,4 7.5,5.7 2.1,2.9 2.2,3.4 0.9,5.7 -2.3,4 -6.654808,5.952885 -13.054808,5.952885 C 44.945192,99.952885 35.4,98.2 32.3,95.5 c -2.4,-2 -2.6,-2.6 -1.6,-4.8 1.4,-3 14.6,-10.5 18.7,-10.6 1.6,-0.1 5.2,1 8.1,2.4 z"
     id="path7"
     style="fill:#000000;stroke:none;stroke-width:0.1"
     sodipodi:nodetypes="cccczzccccccccccscccccccccccccc" />
</svg>
