<?xml version="1.0" encoding="UTF-8" standalone="no"?>
<svg
   version="1.0"
   width="96.000000pt"
   height="156.000000pt"
   viewBox="0 0 96.000000 156.000000"
   preserveAspectRatio="xMidYMid meet"
   id="svg16"
   sodipodi:docname="j.svg"
   inkscape:version="1.4 (e7c3feb1, 2024-10-09)"
   xmlns:inkscape="http://www.inkscape.org/namespaces/inkscape"
   xmlns:sodipodi="http://sodipodi.sourceforge.net/DTD/sodipodi-0.dtd"
   xmlns="http://www.w3.org/2000/svg"
   xmlns:svg="http://www.w3.org/2000/svg">
  <defs
     id="defs16" />
  <sodipodi:namedview
     id="namedview16"
     pagecolor="#ffffff"
     bordercolor="#000000"
     borderopacity="0.25"
     inkscape:showpageshadow="2"
     inkscape:pageopacity="0.0"
     inkscape:pagecheckerboard="0"
     inkscape:deskcolor="#d1d1d1"
     inkscape:document-units="pt"
     inkscape:zoom="2.8284271"
     inkscape:cx="10.960155"
     inkscape:cy="121.09204"
     inkscape:current-layer="svg16" />
  <metadata
     id="metadata1">
Created by potrace 1.16, written by Peter Selinger 2001-2019
</metadata>
  <path
     d="m 55.8,13.7 c -2.3,2.4 -2.6,3.3 -2,5.8 1,3.7 4.9,5.4 8.7,3.7 2,-0.9 2.5,-1.9 2.5,-4.9 0,-4.7 -0.8,-6 -4,-6.8 -2,-0.5 -3.2,0 -5.2,2.2 z"
     id="path1"
     style="fill:#000000;stroke:none;stroke-width:0.1" />
  <path
     d="m 48,46.9 c -6.6,4.2 -14,14.5 -14,19.5 0,3.7 2,3.2 6.1,-1.5 6,-7.1 7.4,-3.8 3.8,9 -1.2,4.2 -3,11 -4,15.1 -1.6,7.1 -4.1,15.1 -7.6,24.8 -1.8,5.2 -5,7.1 -8.8,5.4 -4.4,-2 -8.1,-1.5 -10.4,1.4 -2.8,3.5 -2.6,5.6 0.5,8.8 4.9,4.9 12.8,3 21.5,-5.1 5.8,-5.4 8,-9.5 10.3,-19.8 0.9,-3.9 2.2,-8.8 2.8,-11 0.6,-2.2 2.3,-10.8 3.9,-19 1.6,-8.3 3.4,-17.3 4,-20.2 C 57.5,48.2 56.7,44 54.2,44 53.3,44 50.5,45.3 48,46.9 Z"
     id="path4"
     style="fill:#000000;stroke:none;stroke-width:0.1" />
</svg>
