<?xml version="1.0" standalone="no"?>
<!DOCTYPE svg PUBLIC "-//W3C//DTD SVG 20010904//EN"
 "http://www.w3.org/TR/2001/REC-SVG-20010904/DTD/svg10.dtd">
<svg version="1.0" xmlns="http://www.w3.org/2000/svg"
 width="150.000000pt" height="152.000000pt" viewBox="0 0 150.000000 152.000000"
 preserveAspectRatio="xMidYMid meet">
<metadata>
Created by potrace 1.16, written by Peter Selinger 2001-2019
</metadata>
<g transform="translate(0.000000,152.000000) scale(0.100000,-0.100000)"
fill="#000000" stroke="none">
<path d="M1086 1505 c-5 -13 -63 -15 -438 -15 -262 0 -439 -4 -448 -10 -10 -6
141 -10 437 -10 423 0 453 -1 465 -18 13 -18 132 -52 181 -52 14 0 31 -8 36
-17 7 -12 10 -13 11 -4 0 9 11 12 40 9 22 -2 40 -1 40 2 0 3 20 4 45 2 40 -4
45 -2 45 17 0 21 -3 22 -142 20 -128 -1 -143 1 -146 16 -3 14 -11 16 -43 11
-39 -6 -39 -6 -39 29 0 28 -4 35 -19 35 -10 0 -21 -7 -25 -15z"/>
<path d="M141 1322 c-1 -73 3 -131 7 -128 12 7 14 211 2 239 -6 15 -9 -21 -9
-111z"/>
<path d="M237 1215 c-5 -11 0 -15 19 -15 16 0 24 5 22 13 -7 18 -35 20 -41 2z"/>
<path d="M220 1155 c-7 -8 -21 -15 -31 -15 -10 0 -26 -11 -35 -25 -9 -13 -24
-27 -35 -30 -12 -4 -19 -15 -19 -33 0 -22 8 -31 40 -46 25 -12 40 -26 40 -37
0 -10 5 -21 11 -25 9 -5 10 3 5 30 -5 28 -4 36 7 36 20 0 30 -62 16 -94 -10
-21 -9 -29 4 -44 19 -21 23 -77 7 -87 -25 -15 -39 15 -33 71 3 30 2 54 -3 54
-16 0 -33 -54 -32 -97 1 -23 -4 -53 -12 -67 -10 -20 -11 -29 -2 -38 7 -7 12
-42 12 -86 0 -73 0 -73 -40 -90 -68 -29 -45 -81 35 -82 23 0 45 -4 50 -9 19
-17 70 -19 110 -5 22 7 51 14 64 14 51 0 101 23 108 48 4 17 1 27 -11 34 -21
12 -21 30 1 26 30 -5 28 31 -2 42 -15 6 -31 8 -35 5 -16 -10 -27 29 -34 120
-5 61 -3 100 4 120 7 17 14 49 16 73 5 57 11 65 45 58 22 -4 29 -1 34 15 9 27
-1 35 -21 18 -16 -13 -17 -11 -10 26 4 22 12 42 17 43 18 7 -3 22 -30 22 -16
0 -39 9 -53 19 -23 19 -68 32 -145 45 -20 3 -35 0 -43 -9z m20 -471 c0 -47
-13 -84 -30 -84 -13 0 -13 81 0 115 14 38 30 21 30 -31z"/>
<path d="M717 1155 c-93 -34 -157 -113 -157 -192 0 -71 39 -128 131 -189 85
-58 108 -86 116 -142 5 -36 2 -45 -25 -72 -24 -24 -39 -30 -72 -30 -46 0 -100
31 -100 56 0 10 -8 14 -22 12 -20 -3 -23 -10 -26 -51 -3 -43 0 -51 28 -77 55
-52 151 -53 249 -3 51 26 75 53 101 111 15 34 12 129 -4 161 -18 33 -100 104
-178 154 -58 37 -86 84 -72 120 14 37 97 67 133 47 12 -6 28 -24 36 -40 20
-38 62 -51 82 -25 7 11 13 35 13 56 0 49 -48 93 -120 108 -62 13 -65 13 -113
-4z"/>
<path d="M510 1074 c0 -8 5 -12 10 -9 6 4 8 11 5 16 -9 14 -15 11 -15 -7z"/>
<path d="M0 985 c0 -88 1 -95 20 -95 18 0 20 7 20 83 0 77 -9 107 -32 107 -4
0 -8 -43 -8 -95z"/>
<path d="M1379 973 c-3 -29 4 -111 12 -123 5 -10 8 11 9 58 0 41 -4 72 -10 72
-5 0 -10 -3 -11 -7z"/>
<path d="M469 908 c-10 -18 -9 -20 6 -15 9 4 19 7 21 7 2 0 4 7 4 15 0 22 -18
18 -31 -7z"/>
<path d="M1380 796 c0 -8 4 -17 9 -20 10 -7 23 19 14 28 -11 11 -23 6 -23 -8z"/>
<path d="M1124 751 c-10 -17 -25 -31 -34 -31 -16 0 -40 -42 -40 -70 0 -26 43
-60 76 -60 29 0 29 0 28 90 0 49 -3 92 -6 96 -3 3 -14 -8 -24 -25z m2 -66 c9
-23 -5 -65 -21 -65 -12 0 -35 28 -35 44 0 8 31 36 41 36 5 0 12 -7 15 -15z"/>
<path d="M1360 639 c0 -4 9 -9 20 -12 13 -3 20 0 20 8 0 8 -9 13 -20 12 -11
-1 -20 -4 -20 -8z"/>
<path d="M1350 481 c0 -6 4 -13 10 -16 6 -3 7 1 4 9 -7 18 -14 21 -14 7z"/>
<path d="M136 359 c-3 -24 -7 -57 -8 -74 -3 -29 -4 -30 -65 -33 -54 -3 -63 -6
-63 -22 0 -18 9 -20 107 -22 107 -3 107 -3 104 -106 -2 -98 -2 -102 19 -102
20 0 21 5 19 65 -1 39 2 70 9 77 17 17 15 35 -5 57 -10 11 -24 27 -31 35 -7 9
-25 16 -41 16 -15 0 -30 2 -33 5 -2 3 -1 33 3 67 4 35 4 67 -1 72 -5 5 -11
-11 -14 -35z"/>
<path d="M1124 345 c-4 -9 -11 -15 -18 -14 -23 3 -34 -1 -39 -15 -4 -10 3 -13
28 -11 31 3 33 2 23 -15 -12 -18 -56 -33 -71 -23 -4 2 -5 13 -2 24 4 13 2 19
-9 19 -28 0 -46 -12 -46 -31 0 -17 3 -18 20 -9 17 9 20 8 20 -9 0 -16 7 -19
43 -19 49 0 70 21 81 81 6 30 4 37 -9 37 -9 0 -18 -7 -21 -15z"/>
<path d="M610 160 c-25 -6 -25 -6 3 -12 15 -3 30 -2 32 3 8 12 -8 16 -35 9z"/>
<path d="M728 153 c6 -2 18 -2 25 0 6 3 1 5 -13 5 -14 0 -19 -2 -12 -5z"/>
<path d="M686 68 c3 -5 10 -6 15 -3 13 9 11 12 -6 12 -8 0 -12 -4 -9 -9z"/>
<path d="M836 68 c3 -5 10 -6 15 -3 13 9 11 12 -6 12 -8 0 -12 -4 -9 -9z"/>
<path d="M1237 69 c7 -7 15 -10 18 -7 3 3 -2 9 -12 12 -14 6 -15 5 -6 -5z"/>
</g>
</svg>
