<?xml version="1.0" encoding="UTF-8" standalone="no"?>
<svg
   version="1.0"
   width="110.000000pt"
   height="132.000000pt"
   viewBox="0 0 110.000000 132.000000"
   preserveAspectRatio="xMidYMid meet"
   id="svg7"
   sodipodi:docname="F.svg"
   inkscape:version="1.4 (e7c3feb1, 2024-10-09)"
   xmlns:inkscape="http://www.inkscape.org/namespaces/inkscape"
   xmlns:sodipodi="http://sodipodi.sourceforge.net/DTD/sodipodi-0.dtd"
   xmlns="http://www.w3.org/2000/svg"
   xmlns:svg="http://www.w3.org/2000/svg">
  <defs
     id="defs7" />
  <sodipodi:namedview
     id="namedview7"
     pagecolor="#ffffff"
     bordercolor="#000000"
     borderopacity="0.25"
     inkscape:showpageshadow="2"
     inkscape:pageopacity="0.0"
     inkscape:pagecheckerboard="0"
     inkscape:deskcolor="#d1d1d1"
     inkscape:document-units="pt"
     inkscape:zoom="3.3426866"
     inkscape:cx="80.175031"
     inkscape:cy="105.75326"
     inkscape:current-layer="svg7" />
  <metadata
     id="metadata1">
Created by potrace 1.16, written by Peter Selinger 2001-2019
</metadata>
  <path
     d="m 43.5,22.8 c -1.1,0.2 -2.6,0.9 -3.3,1.5 -1.9,1.5 1.4,4.7 4.7,4.5 5.2,-0.3 7.6,0.2 8.8,2.1 1.4,2.3 1.5,2.2 -5.9,22.1 -2.7,7.4 -6.5,17.8 -8.5,23 -6.7,18.3 -7.2,19 -14.3,19 -2.3,0 -3.1,0.5 -3.6,2.5 -1.4,5.6 -0.9,5.7 16.8,5 9,-0.4 16.7,-1.1 17.2,-1.6 1.1,-1 -2,-4.9 -3.9,-4.9 -0.7,0 -2,-0.9 -2.9,-1.9 -2.2,-2.4 -1.4,-7.1 2.5,-16 1.6,-3.5 2.9,-6.9 2.9,-7.6 0,-0.6 0.9,-2 2,-3 1.6,-1.4 2.9,-1.6 7.7,-1.1 9.9,1.2 11.4,1.6 12.3,4.2 0.5,1.3 1.4,2.4 1.8,2.4 C 79.1,73 84,61.4 84,58.4 84,55.9 81.4,55 79.5,56.9 78.2,58 68.9,60 64.6,60 c -6.7,0 -7,-3.4 -1.5,-17.1 3.7,-9.3 5.6,-11.2 13,-12.9 5.1,-1.1 6.1,-1.1 9.5,0.6 3,1.5 4.2,2.9 5.4,6.1 0.8,2.4 2,4.3 2.7,4.3 0.7,0 3,-3.4 5,-7.5 5.7,-11.5 7,-10.9 -25.8,-11.1 -15.1,-0.1 -28.3,0.1 -29.4,0.4 z"
     id="path4"
     style="fill:#000000;stroke:none;stroke-width:0.1" />
</svg>
