<?xml version="1.0" encoding="UTF-8" standalone="no"?>
<svg
   version="1.0"
   width="176pt"
   height="140pt"
   viewBox="0 0 176 140"
   preserveAspectRatio="xMidYMid"
   id="svg28"
   xmlns="http://www.w3.org/2000/svg"
   xmlns:svg="http://www.w3.org/2000/svg">
  <defs
     id="defs28" />
  <metadata
     id="metadata1">
Created by potrace 1.16, written by Peter Selinger 2001-2019
</metadata>
  <path
     d="M 120.9,32.8 C 117,35.3 99.9,50.3 91.3,58.7 84.7,65.2 67.8,80.6 52,94.6 c -5.6,4.9 -9.7,6.7 -24,10.2 -2.8,0.6 -3.6,1.4 -3.8,3.5 -0.3,2.1 0.2,2.9 2,3.5 3.3,1.2 35.4,0 36.8,-1.4 0.9,-0.9 0.7,-2 -0.5,-4.4 -2.2,-4.2 -1,-7.5 5.5,-15 6.5,-7.5 11.2,-9.8 21.5,-10.4 8.1,-0.4 10.8,0.2 11.8,2.8 0.6,1.4 -5.2,16.6 -7.3,19.1 -0.6,0.7 -3.2,1.8 -5.8,2.5 -4.9,1.3 -8.4,4.2 -7.6,6.3 0.3,1 4.3,1.2 15.9,1.1 21,-0.3 22.4,-0.9 16,-6.5 -4.2,-3.7 -4.5,-6.7 -1.4,-16.6 1.1,-3.8 3,-10 4.1,-13.8 1.1,-3.9 4.3,-13.1 7,-20.5 6,-16.8 6.8,-20.8 4.3,-22.6 -2.4,-1.8 -2.5,-1.7 -5.6,0.4 z m -11.2,21.7 c 0.8,2.2 -3.4,14.9 -5.6,16.9 -1.9,1.7 -11.5,2.3 -13.9,0.7 -2.4,-1.5 13.8,-19 17.6,-19.1 0.7,0 1.5,0.7 1.9,1.5 z"
     id="path6"
     style="fill:#000000;stroke:none;stroke-width:0.1" />
</svg>
