<?xml version="1.0" standalone="no"?>
<!DOCTYPE svg PUBLIC "-//W3C//DTD SVG 20010904//EN"
 "http://www.w3.org/TR/2001/REC-SVG-20010904/DTD/svg10.dtd">
<svg version="1.0" xmlns="http://www.w3.org/2000/svg"
 width="176.000000pt" height="140.000000pt" viewBox="0 0 176.000000 140.000000"
 preserveAspectRatio="xMidYMid meet">
<metadata>
Created by potrace 1.16, written by Peter Selinger 2001-2019
</metadata>
<g transform="translate(0.000000,140.000000) scale(0.100000,-0.100000)"
fill="#000000" stroke="none">
<path d="M110 1331 c0 -16 19 -23 40 -16 30 10 24 25 -10 25 -16 0 -30 -4 -30
-9z"/>
<path d="M50 1259 c-7 -11 -14 -18 -17 -15 -6 5 -33 -18 -33 -29 0 -3 15 -5
32 -3 29 3 33 7 35 36 3 37 -2 40 -17 11z"/>
<path d="M1227 1163 c-4 -3 -7 -13 -7 -21 0 -12 3 -12 15 -2 8 7 15 16 15 21
0 11 -14 12 -23 2z"/>
<path d="M1514 1112 c-6 -4 -13 -17 -16 -29 -5 -18 -2 -23 12 -23 11 0 19 9
22 25 6 27 -2 38 -18 27z"/>
<path d="M67 1078 c-8 -5 -7 -11 2 -22 7 -8 13 -28 13 -45 1 -36 8 -39 25 -11
8 12 9 21 3 25 -6 4 -8 11 -4 16 3 6 14 1 24 -11 18 -20 31 -26 29 -12 -3 20
2 32 16 32 18 0 20 29 3 32 -35 4 -101 2 -111 -4z"/>
<path d="M1209 1072 c-39 -25 -210 -175 -296 -259 -66 -65 -235 -219 -393
-359 -56 -49 -97 -67 -240 -102 -28 -6 -36 -14 -38 -35 -3 -21 2 -29 20 -35
33 -12 354 0 368 14 9 9 7 20 -5 44 -22 42 -10 75 55 150 65 75 112 98 215
104 81 4 108 -2 118 -28 6 -14 -52 -166 -73 -191 -6 -7 -32 -18 -58 -25 -49
-13 -84 -42 -76 -63 3 -10 43 -12 159 -11 210 3 224 9 160 65 -42 37 -45 67
-14 166 11 38 30 100 41 138 11 39 43 131 70 205 60 168 68 208 43 226 -24 18
-25 17 -56 -4z m-112 -217 c8 -22 -34 -149 -56 -169 -19 -17 -115 -23 -139 -7
-24 15 138 190 176 191 7 0 15 -7 19 -15z"/>
<path d="M1633 1075 c-8 -6 -11 -18 -7 -28 4 -11 10 -14 18 -9 6 5 26 12 44
14 25 4 35 0 43 -14 14 -26 29 -22 29 8 0 22 -4 25 -21 21 -11 -3 -22 0 -25 7
-6 15 -61 16 -81 1z"/>
<path d="M0 1066 c0 -9 8 -12 25 -8 14 2 25 8 25 13 0 5 -11 9 -25 9 -14 0
-25 -6 -25 -14z"/>
<path d="M1395 1043 c2 -10 4 -24 4 -32 1 -23 14 -3 16 24 0 14 -5 25 -11 25
-7 0 -11 -8 -9 -17z"/>
<path d="M61 932 c-11 -39 -7 -52 16 -52 9 0 13 6 10 14 -3 8 1 22 8 33 19 24
18 30 -5 36 -16 4 -22 -2 -29 -31z"/>
<path d="M1387 947 c-11 -29 -9 -43 4 -30 6 6 9 19 7 29 -3 18 -4 18 -11 1z"/>
<path d="M1406 835 c4 -8 10 -15 15 -15 5 0 9 7 9 15 0 8 -7 15 -15 15 -9 0
-12 -6 -9 -15z"/>
<path d="M1685 820 c-9 -15 4 -30 20 -23 8 3 15 0 15 -5 0 -20 -21 -24 -40 -7
-17 16 -20 15 -38 -3 -11 -11 -24 -45 -31 -83 -6 -35 -20 -76 -31 -91 -11 -15
-20 -33 -20 -41 0 -18 -23 -67 -32 -67 -17 0 -7 -18 13 -23 24 -6 17 -27 -9
-27 -16 0 -54 -54 -51 -74 0 -5 -3 -12 -8 -15 -15 -10 -43 -55 -43 -69 0 -9
10 -12 33 -10 27 2 31 7 29 26 -4 30 6 28 18 -4 7 -18 15 -24 26 -20 8 3 24 2
34 -4 16 -9 18 -3 22 53 3 34 3 65 1 70 -7 11 -43 -12 -43 -28 0 -8 -9 -19
-19 -25 -25 -13 -30 -13 -27 3 9 40 29 70 56 80 20 8 30 18 30 33 0 11 9 29
20 39 11 10 28 44 36 74 9 31 21 61 26 68 6 7 5 14 -2 18 -18 11 -11 32 12 39
13 3 27 1 32 -4 6 -6 18 -10 28 -10 15 0 18 8 18 49 0 41 -4 51 -20 56 -11 3
-20 10 -20 15 0 12 -29 20 -35 10z m-69 -248 c-12 -11 -17 7 -9 34 8 29 8 29
11 1 2 -16 1 -31 -2 -35z"/>
<path d="M1328 763 c-25 -31 -49 -73 -40 -73 4 0 19 -10 34 -21 26 -21 26 -21
-18 -106 -24 -47 -44 -94 -44 -104 0 -10 -7 -22 -16 -27 -23 -13 -33 -132 -12
-132 9 0 21 7 28 15 20 24 23 10 5 -19 -17 -26 -17 -26 6 -18 13 5 29 19 35
30 6 12 18 30 27 40 22 24 24 50 2 32 -8 -7 -22 -10 -30 -6 -13 5 -14 10 -5
27 8 13 8 25 2 31 -15 15 -1 58 23 74 13 8 26 26 29 40 4 13 13 24 21 24 19 0
19 -24 1 -43 -9 -8 -11 -19 -6 -28 7 -11 10 -9 16 6 4 11 10 22 14 25 3 3 16
20 29 38 33 47 72 88 99 101 13 7 22 21 22 36 0 13 5 27 10 30 17 11 11 21
-13 20 -32 0 -61 -25 -47 -39 16 -16 12 -24 -12 -28 -14 -2 -30 -20 -48 -52
-14 -28 -31 -51 -37 -53 -19 -7 -32 31 -26 76 5 34 12 47 34 60 38 21 37 41 0
41 -17 0 -33 5 -36 10 -9 15 -30 12 -47 -7z m16 -47 c-3 -8 -12 -12 -20 -9
-21 8 -17 23 6 23 13 0 18 -5 14 -14z"/>
<path d="M1715 596 c-29 -64 -30 -75 -10 -82 22 -9 8 -24 -22 -24 -21 0 -24
-4 -20 -21 4 -14 -2 -28 -19 -44 -19 -18 -23 -29 -18 -49 7 -29 22 -30 38 -2
6 10 23 32 37 48 24 27 45 79 40 102 -1 5 1 16 6 25 10 21 10 101 0 101 -4 0
-18 -24 -32 -54z"/>
<path d="M1465 519 c-12 -19 5 -23 22 -6 16 16 16 17 1 17 -9 0 -20 -5 -23
-11z"/>
<path d="M1417 454 c-11 -14 -16 -28 -12 -32 7 -7 45 34 45 49 0 16 -15 9 -33
-17z"/>
<path d="M0 460 c0 -5 5 -10 10 -10 6 0 10 5 10 10 0 6 -4 10 -10 10 -5 0 -10
-4 -10 -10z"/>
<path d="M1737 383 c-4 -3 -7 -15 -7 -25 0 -18 -10 -21 -84 -22 -38 -1 -45
-23 -11 -36 28 -10 125 -3 125 9 0 4 -5 12 -12 19 -9 9 -9 12 0 12 7 0 12 11
12 25 0 24 -10 32 -23 18z"/>
<path d="M1366 325 c-3 -9 1 -18 10 -22 19 -7 28 2 21 22 -8 19 -23 19 -31 0z"/>
<path d="M1646 231 c-3 -4 7 -14 22 -20 27 -13 27 -13 8 8 -22 24 -23 24 -30
12z"/>
<path d="M1735 170 c3 -5 10 -10 16 -10 5 0 9 5 9 10 0 6 -7 10 -16 10 -8 0
-12 -4 -9 -10z"/>
<path d="M1640 160 c0 -5 5 -10 10 -10 6 0 10 5 10 10 0 6 -4 10 -10 10 -5 0
-10 -4 -10 -10z"/>
<path d="M91 125 c0 -35 2 -37 11 -19 7 15 7 28 -1 40 -9 16 -10 12 -10 -21z"/>
<path d="M1685 140 c-3 -5 -1 -10 4 -10 6 0 11 5 11 10 0 6 -2 10 -4 10 -3 0
-8 -4 -11 -10z"/>
<path d="M1732 94 c1 -9 9 -19 16 -22 9 -3 13 2 10 14 -1 9 -9 19 -16 22 -9 3
-13 -2 -10 -14z"/>
<path d="M1304 82 c-25 -25 -17 -41 21 -39 39 2 47 14 13 19 -13 2 -22 8 -20
13 4 13 34 7 48 -10 8 -11 12 -10 22 5 10 16 7 18 -30 22 -26 2 -46 -1 -54
-10z"/>
<path d="M1571 66 c-8 -10 -9 -16 -1 -21 5 -3 10 0 10 9 0 8 6 17 13 19 7 4 8
6 1 6 -6 1 -17 -5 -23 -13z"/>
</g>
</svg>
