<?xml version="1.0" standalone="no"?>
<!DOCTYPE svg PUBLIC "-//W3C//DTD SVG 20010904//EN"
 "http://www.w3.org/TR/2001/REC-SVG-20010904/DTD/svg10.dtd">
<svg version="1.0" xmlns="http://www.w3.org/2000/svg"
 width="200.000000pt" height="145.000000pt" viewBox="0 0 200.000000 145.000000"
 preserveAspectRatio="xMidYMid meet">
<metadata>
Created by potrace 1.16, written by Peter Selinger 2001-2019
</metadata>
<g transform="translate(0.000000,145.000000) scale(0.100000,-0.100000)"
fill="#000000" stroke="none">
<path d="M107 1420 c6 -30 6 -30 -51 -30 -50 0 -56 -2 -56 -21 0 -19 5 -20 63
-17 62 3 62 3 60 35 -3 37 6 45 67 54 42 6 40 6 -22 8 -67 1 -67 1 -61 -29z"/>
<path d="M1601 1446 c2 -1 19 -8 37 -14 26 -9 32 -8 32 4 0 10 -11 14 -37 14
-20 0 -34 -2 -32 -4z"/>
<path d="M1669 1383 c-1 -5 0 -24 1 -43 1 -19 2 -75 0 -124 -1 -63 2 -91 11
-97 10 -6 11 -13 2 -31 -33 -66 -44 -121 -33 -170 5 -27 10 -112 10 -190 0
-132 -1 -143 -26 -188 -14 -27 -35 -51 -46 -53 -15 -4 -19 -13 -16 -39 3 -31
5 -33 50 -36 43 -3 232 23 250 34 16 10 8 44 -10 44 -11 0 -33 7 -51 16 -31
16 -31 16 -24 167 4 84 7 186 5 228 -2 75 -2 75 43 98 37 19 54 21 105 15 60
-7 60 -7 60 40 0 46 0 46 -35 46 -19 0 -50 -9 -70 -20 -41 -23 -64 -25 -89 -7
-15 11 -17 32 -19 152 -1 77 -6 146 -10 153 -9 13 -106 17 -108 5z"/>
<path d="M1815 1367 c6 -19 21 -129 25 -192 1 -20 1 -20 9 0 7 18 16 19 79 17
62 -3 72 -1 72 13 0 14 -10 16 -67 14 -68 -3 -68 -3 -71 72 -3 68 -5 75 -28
86 -24 11 -26 11 -19 -10z"/>
<path d="M181 1300 c0 -41 4 -68 10 -65 5 4 9 12 9 20 0 27 48 70 94 84 25 7
43 17 40 22 -3 5 -38 9 -79 9 -74 0 -74 0 -74 -70z"/>
<path d="M468 1079 c-31 -17 -20 -49 30 -95 48 -44 66 -76 161 -289 22 -49 52
-126 67 -170 42 -126 65 -155 112 -140 30 9 44 53 50 150 3 62 10 98 22 115 9
14 22 39 27 55 24 76 78 12 117 -139 43 -162 61 -191 110 -168 16 7 27 25 35
59 36 140 44 169 50 178 4 6 16 33 26 60 10 28 30 73 45 100 14 28 37 76 49
108 17 41 37 68 67 94 24 19 44 42 44 50 0 8 -17 21 -37 30 -46 19 -191 13
-204 -9 -15 -23 -10 -39 21 -66 36 -32 37 -42 5 -160 -38 -143 -86 -220 -119
-193 -21 18 -86 200 -100 279 -5 26 -1 38 19 58 13 13 32 24 43 24 18 0 42 18
42 31 0 4 -7 15 -16 23 -12 13 -40 16 -135 16 -173 0 -193 -17 -113 -98 47
-47 47 -47 41 -118 -3 -41 -12 -83 -21 -97 -9 -13 -19 -48 -23 -76 -4 -40 -10
-51 -24 -51 -35 0 -50 14 -78 69 -27 52 -91 240 -91 265 0 6 19 27 41 46 39
34 41 37 25 53 -15 14 -38 17 -144 17 -70 0 -135 -5 -144 -11z"/>
<path d="M140 1006 c0 -84 13 -106 50 -86 21 11 22 11 15 -43 -6 -46 -4 -56
10 -65 10 -5 15 -15 13 -23 -3 -8 -1 -22 3 -31 7 -12 4 -18 -11 -23 -18 -6
-19 -13 -16 -90 3 -59 1 -87 -8 -94 -7 -6 -11 -24 -8 -41 4 -29 3 -31 -22 -24
-27 6 -27 6 -24 -35 2 -23 6 -41 11 -41 4 0 51 0 105 0 85 0 99 2 109 19 15
24 -10 81 -39 89 -12 3 -17 10 -13 22 3 9 -2 23 -10 30 -29 24 -27 1 5 -56 17
-31 28 -60 23 -65 -5 -5 -39 -10 -77 -13 -54 -3 -69 -1 -73 11 -4 9 3 22 16
32 19 15 23 32 32 136 6 66 11 136 11 155 2 55 -14 160 -23 160 -5 0 -12 0
-15 -1 -14 -2 -24 28 -24 74 0 34 4 47 14 47 8 0 18 -9 21 -20 3 -11 10 -20
15 -20 17 0 39 -45 45 -89 3 -24 10 -50 15 -56 10 -12 7 -150 -5 -235 -5 -32
-4 -41 4 -30 5 8 7 18 5 22 -3 5 2 11 10 14 13 5 16 27 16 129 0 89 -3 124
-12 127 -8 3 -12 19 -10 41 2 22 -1 37 -7 37 -6 0 -11 6 -11 13 0 7 -13 29
-30 47 -17 18 -30 37 -30 42 0 4 -18 8 -40 8 -40 0 -40 0 -40 -74z"/>
<path d="M1610 1029 c0 -5 5 -7 10 -4 6 3 10 8 10 11 0 2 -4 4 -10 4 -5 0 -10
-5 -10 -11z"/>
<path d="M1615 950 c-3 -5 -1 -10 4 -10 6 0 11 5 11 10 0 6 -2 10 -4 10 -3 0
-8 -4 -11 -10z"/>
<path d="M1593 912 c-19 -12 -27 -72 -28 -192 0 -101 3 -119 22 -148 25 -41
31 -34 31 41 0 42 -4 55 -11 48 -20 -20 -22 -12 -22 69 0 68 3 81 18 86 13 4
17 16 17 49 0 45 -8 59 -27 47z"/>
<path d="M1945 910 c-3 -5 0 -19 8 -30 14 -21 14 -21 20 1 9 33 -12 55 -28 29z"/>
<path d="M540 440 c0 -16 7 -20 30 -20 23 0 30 4 30 20 0 16 -7 20 -30 20 -23
0 -30 -4 -30 -20z"/>
<path d="M1952 359 c-9 -13 -10 -25 -4 -31 13 -13 31 13 23 34 -6 16 -7 16
-19 -3z"/>
<path d="M1841 324 c0 -11 3 -14 6 -6 3 7 2 16 -1 19 -3 4 -6 -2 -5 -13z"/>
<path d="M189 303 c-4 -26 4 -119 11 -127 5 -4 14 -5 22 0 7 5 25 7 40 5 27
-2 28 0 28 39 0 36 -2 41 -19 35 -13 -4 -29 4 -50 25 -17 18 -32 28 -32 23z
m65 -70 c9 -22 -10 -41 -25 -26 -13 13 -5 43 10 43 5 0 12 -8 15 -17z"/>
<path d="M1897 273 c-4 -3 -7 -11 -7 -17 0 -6 5 -5 12 2 6 6 9 14 7 17 -3 3
-9 2 -12 -2z"/>
<path d="M1885 229 c-10 -15 3 -25 16 -12 7 7 7 13 1 17 -6 3 -14 1 -17 -5z"/>
<path d="M1815 205 c-20 -15 -20 -15 0 -9 17 5 18 4 5 -8 -8 -7 -15 -17 -16
-23 -4 -33 -18 -55 -38 -55 -30 0 -43 -11 -59 -50 -16 -39 -13 -60 9 -60 9 0
14 11 14 34 0 33 0 33 50 28 50 -5 50 -5 50 40 0 44 0 44 85 40 74 -4 85 -2
85 12 0 13 -12 16 -70 16 -38 0 -70 4 -70 8 0 5 -6 16 -13 25 -11 16 -14 16
-32 2z"/>
<path d="M603 142 c-6 -4 -14 -19 -18 -34 -6 -23 -3 -29 19 -39 32 -15 56 2
56 37 0 24 -14 32 -25 14 -3 -5 -11 -10 -17 -10 -7 0 -6 5 1 14 13 16 1 29
-16 18z"/>
<path d="M0 120 c0 -17 5 -19 25 -14 24 6 25 5 25 -50 0 -48 3 -56 19 -56 30
0 33 80 4 114 -28 32 -73 36 -73 6z"/>
<path d="M850 50 c0 -5 13 -10 29 -10 17 0 33 5 36 10 4 6 -8 10 -29 10 -20 0
-36 -4 -36 -10z"/>
</g>
</svg>
