<?xml version="1.0" encoding="UTF-8" standalone="no"?>
<svg
   version="1.0"
   width="68.000000pt"
   height="94.000000pt"
   viewBox="0 0 68.000000 94.000000"
   preserveAspectRatio="xMidYMid meet"
   id="svg9"
   sodipodi:docname="t.svg"
   inkscape:version="1.4 (e7c3feb1, 2024-10-09)"
   xmlns:inkscape="http://www.inkscape.org/namespaces/inkscape"
   xmlns:sodipodi="http://sodipodi.sourceforge.net/DTD/sodipodi-0.dtd"
   xmlns="http://www.w3.org/2000/svg"
   xmlns:svg="http://www.w3.org/2000/svg">
  <defs
     id="defs9" />
  <sodipodi:namedview
     id="namedview9"
     pagecolor="#ffffff"
     bordercolor="#000000"
     borderopacity="0.25"
     inkscape:showpageshadow="2"
     inkscape:pageopacity="0.0"
     inkscape:pagecheckerboard="0"
     inkscape:deskcolor="#d1d1d1"
     inkscape:document-units="pt"
     inkscape:zoom="4.6939854"
     inkscape:cx="3.1955787"
     inkscape:cy="20.558223"
     inkscape:current-layer="svg9" />
  <metadata
     id="metadata1">
Created by potrace 1.16, written by Peter Selinger 2001-2019
</metadata>
  <path
     d="m 43.8,17.7 c -0.9,1 -2.3,3.2 -3.2,5 -1,2.1 -2.6,3.4 -4.5,3.8 -3.599461,0.674899 -6.580394,2.343225 -2.7,6.4 2.8,2.9 2.8,2.9 -1.9,16.2 -5.9,16.7 -6.8,21.6 -4.9,24.7 2.6,4 6.1,2.8 16.2,-5.6 6.383854,-5.69987 5.780137,-6.520018 0.2,-5.8 -5.7,0.8 -7.2,-0.7 -5.3,-5.3 C 47.1,34.3 47.2,34 52,34 c 3.505569,0 7.045844,-2.609783 4.1,-5 -3.593047,-3.052281 -6.559826,-0.15296 -5.6,-6 1.1,-6.2 -3.1,-9.4 -6.7,-5.3 z"
     id="path2"
     style="fill:#000000;stroke:none;stroke-width:0.1"
     sodipodi:nodetypes="cccccccccsccc" />
</svg>
