<?xml version="1.0" standalone="no"?>
<!DOCTYPE svg PUBLIC "-//W3C//DTD SVG 20010904//EN"
 "http://www.w3.org/TR/2001/REC-SVG-20010904/DTD/svg10.dtd">
<svg version="1.0" xmlns="http://www.w3.org/2000/svg"
 width="182.000000pt" height="214.000000pt" viewBox="0 0 182.000000 214.000000"
 preserveAspectRatio="xMidYMid meet">
<metadata>
Created by potrace 1.16, written by Peter Selinger 2001-2019
</metadata>
<g transform="translate(0.000000,214.000000) scale(0.100000,-0.100000)"
fill="#000000" stroke="none">
<path d="M122 2108 c2 -21 8 -33 18 -33 10 0 16 12 18 33 3 27 0 32 -18 32
-18 0 -21 -5 -18 -32z"/>
<path d="M1620 2059 c0 -117 2 -119 110 -119 84 0 90 1 90 21 0 19 -5 20 -75
18 -41 -1 -78 1 -82 4 -3 4 -5 41 -4 82 2 70 1 75 -18 75 -20 0 -21 -6 -21
-81z"/>
<path d="M406 2092 c-13 -12 -4 -19 24 -19 16 0 27 4 25 7 -6 10 -43 19 -49
12z"/>
<path d="M1043 2080 c-56 -3 -104 -7 -106 -10 -3 -3 46 -4 109 -4 108 2 142 6
112 15 -7 2 -59 2 -115 -1z"/>
<path d="M1223 2083 c-21 -8 -15 -19 12 -21 14 -1 25 2 25 7 0 11 -21 19 -37
14z"/>
<path d="M470 2073 c0 -5 79 -8 175 -8 96 0 167 3 157 7 -23 9 -332 10 -332 1z"/>
<path d="M1380 2071 c0 -4 24 -6 53 -4 77 7 81 11 10 12 -35 1 -63 -3 -63 -8z"/>
<path d="M76 2037 c-11 -7 -32 -24 -48 -38 -26 -24 -28 -32 -28 -98 0 -70 0
-71 21 -59 35 21 69 58 69 75 0 9 6 24 14 32 8 9 16 34 18 56 3 44 -11 54 -46
32z"/>
<path d="M147 2044 c-14 -14 -7 -35 11 -32 9 2 17 10 17 17 0 16 -18 25 -28
15z"/>
<path d="M978 1758 c-63 -20 -68 -23 -68 -50 0 -16 15 -50 35 -79 35 -51 35
-51 35 -168 0 -159 -3 -163 -113 -155 -76 6 -87 5 -141 -21 -78 -37 -119 -75
-167 -155 -51 -87 -63 -173 -39 -279 24 -101 65 -155 145 -192 50 -23 170 -25
222 -4 49 21 71 19 105 -10 36 -31 79 -32 141 -6 46 20 71 49 62 73 -3 7 -22
22 -43 33 -32 17 -38 26 -43 65 -9 67 -1 678 11 809 10 111 10 115 -11 138
-27 28 -44 28 -131 1z m-70 -565 c17 -13 38 -36 46 -51 27 -54 38 -299 15
-354 -21 -52 -107 -60 -201 -18 -55 24 -81 52 -107 113 -37 86 -37 117 -1 206
33 83 46 99 95 125 40 21 109 12 153 -21z"/>
<path d="M58 1756 c-26 -19 -26 -133 0 -152 9 -7 22 -14 27 -14 12 0 11 173
-1 177 -5 1 -17 -4 -26 -11z"/>
<path d="M142 1708 c19 -30 20 -83 2 -99 -18 -15 -18 -39 0 -39 23 0 38 28 40
76 2 49 -15 84 -41 84 -14 0 -14 -3 -1 -22z"/>
<path d="M1527 1697 c-3 -9 -2 -19 4 -23 15 -9 18 -2 9 20 -6 17 -7 18 -13 3z"/>
<path d="M1310 1659 c0 -24 4 -38 10 -34 6 3 10 22 10 41 0 19 -4 34 -10 34
-5 0 -10 -18 -10 -41z"/>
<path d="M243 1560 c-27 -34 -28 -38 -8 -78 10 -19 21 -29 30 -26 11 5 10 11
-3 34 -16 27 -16 30 5 58 19 26 21 43 4 41 -3 0 -16 -13 -28 -29z"/>
<path d="M306 1581 c-3 -5 8 -16 25 -25 31 -16 55 -13 43 5 -3 5 -10 7 -15 3
-6 -3 -19 2 -29 11 -11 10 -20 12 -24 6z"/>
<path d="M380 1512 c1 -4 7 -18 15 -32 14 -25 14 -25 15 1 0 15 -7 29 -15 33
-8 3 -15 2 -15 -2z"/>
<path d="M30 1460 c-12 -8 -10 -10 8 -10 13 0 20 4 17 10 -7 12 -6 12 -25 0z"/>
<path d="M318 1427 c-12 -29 -10 -63 3 -50 6 6 9 23 7 39 -2 24 -4 26 -10 11z"/>
<path d="M394 1425 c3 -11 -1 -33 -9 -48 -13 -26 -13 -28 3 -25 20 4 28 50 12
75 -10 16 -10 16 -6 -2z"/>
<path d="M1443 1325 c-8 -21 -2 -24 25 -14 13 5 20 13 17 19 -9 15 -35 12 -42
-5z"/>
<path d="M1507 1334 c-3 -3 -2 -16 3 -29 5 -13 6 -32 3 -43 -4 -19 0 -21 43
-24 43 -3 51 -7 63 -32 12 -26 12 -33 -2 -55 -13 -21 -24 -26 -59 -26 -37 0
-43 -3 -46 -23 -5 -35 24 -62 59 -55 72 14 97 -18 63 -85 -18 -37 -34 -40 -59
-12 -31 34 -47 26 -43 -22 3 -39 5 -43 28 -40 41 5 70 -7 70 -27 0 -10 7 -31
15 -47 19 -38 6 -45 -72 -42 -34 2 -64 0 -67 -3 -3 -3 -2 -29 4 -58 7 -37 7
-59 -1 -73 -6 -11 -8 -22 -5 -25 10 -10 73 26 90 52 9 14 25 25 36 25 16 0 20
7 20 38 1 34 2 36 15 18 8 -10 25 -25 37 -32 36 -20 106 -54 112 -54 4 0 6 16
6 36 0 24 -12 53 -36 91 -48 71 -80 211 -55 236 6 6 11 26 11 44 0 45 16 75
51 95 28 16 29 20 29 88 0 57 -3 70 -15 70 -29 0 -72 -29 -113 -75 -43 -49
-55 -44 -40 13 12 44 -9 61 -74 62 -27 0 -48 5 -48 10 0 11 -13 13 -23 4z"/>
<path d="M1305 1310 c-3 -5 -15 -10 -26 -10 -10 0 -19 -7 -19 -15 0 -8 4 -15
10 -15 5 0 12 -11 16 -25 9 -38 30 -51 43 -26 9 16 6 23 -16 41 -22 17 -25 23
-13 30 8 6 21 10 28 10 7 0 10 5 7 10 -3 6 -10 10 -15 10 -5 0 -12 -4 -15 -10z"/>
<path d="M1373 1300 c-16 -6 -23 -18 -23 -35 0 -15 4 -24 9 -20 6 3 6 -6 1
-24 -10 -37 10 -61 35 -41 10 9 13 24 8 56 -5 37 -2 47 13 59 19 14 18 14 -1
14 -11 0 -30 -4 -42 -9z"/>
<path d="M170 1293 c-14 -2 -34 -8 -46 -14 -11 -6 -24 -9 -30 -8 -5 1 -17 -1
-26 -5 -10 -5 -27 -1 -42 9 -26 17 -26 17 -26 -114 0 -81 4 -131 10 -131 6 0
10 30 10 70 0 74 17 123 45 134 24 9 25 8 25 -18 0 -20 7 -25 43 -32 23 -4 49
-7 57 -6 31 4 58 -9 74 -33 13 -20 18 -60 22 -186 6 -185 -1 -218 -52 -248
-19 -11 -34 -27 -34 -35 0 -7 -7 -16 -15 -20 -20 -7 -40 30 -26 48 7 8 6 20
-3 37 -7 13 -11 30 -8 37 2 7 1 25 -3 40 -13 51 -22 0 -17 -94 4 -92 4 -92 41
-92 20 0 78 -2 129 -5 90 -4 93 -3 113 22 12 14 31 26 42 26 16 0 23 7 25 27
3 26 -17 41 -58 42 -17 1 -28 66 -11 66 15 0 18 42 5 70 -6 14 -14 86 -16 160
-3 74 -10 146 -16 160 -5 14 -27 42 -48 63 -34 34 -42 37 -88 36 -28 -1 -62
-4 -76 -6z"/>
<path d="M1440 1230 c-6 -11 -7 -20 -2 -20 5 0 17 9 27 20 16 18 16 20 2 20
-9 0 -21 -9 -27 -20z"/>
<path d="M440 1226 c0 -9 5 -16 10 -16 6 0 10 4 10 9 0 6 -4 13 -10 16 -5 3
-10 -1 -10 -9z"/>
<path d="M1277 1148 c-13 -22 -15 -34 -7 -42 14 -14 30 9 30 47 0 15 -1 27 -2
27 -2 0 -11 -14 -21 -32z"/>
<path d="M60 1154 c-10 -11 -14 -65 -14 -203 -1 -146 -4 -187 -13 -184 -7 3
-13 11 -13 18 0 8 -4 17 -10 20 -6 4 -10 -23 -10 -74 0 -62 3 -81 14 -81 7 0
19 6 26 14 6 8 21 16 33 18 16 2 21 9 19 23 -2 11 -3 61 -2 112 0 58 -4 100
-12 112 -10 16 -10 23 0 33 14 14 17 208 3 208 -5 0 -14 -7 -21 -16z"/>
<path d="M1394 1105 c7 -18 -5 -19 -24 -2 -8 6 -12 8 -8 3 9 -10 -10 -49 -20
-42 -4 2 -14 -3 -22 -12 -13 -14 -12 -15 4 -9 10 4 24 7 32 7 8 0 14 10 14 22
0 17 3 19 12 10 7 -7 31 -12 55 -12 39 0 43 2 43 25 0 23 -4 25 -46 25 -37 0
-45 -3 -40 -15z"/>
<path d="M1247 1093 c-3 -5 -4 -58 -3 -119 1 -90 4 -114 18 -128 17 -16 17
-15 11 31 -3 26 -6 87 -6 136 0 78 -6 102 -20 80z"/>
<path d="M170 1077 c-22 -11 -26 -20 -21 -57 1 -14 43 -29 56 -22 5 3 -1 9
-14 12 -40 9 -35 27 9 34 41 6 54 28 24 40 -21 8 -25 8 -54 -7z"/>
<path d="M1290 996 c0 -50 18 -92 32 -78 9 9 9 15 0 24 -7 7 -12 29 -12 50 0
21 -4 38 -10 38 -5 0 -10 -15 -10 -34z"/>
<path d="M225 930 c-3 -5 -14 -10 -24 -10 -37 0 -71 -24 -70 -50 0 -14 3 -19
6 -12 2 6 12 12 21 12 8 0 31 5 49 12 24 9 33 18 33 35 0 25 -5 29 -15 13z"/>
<path d="M1392 908 c2 -6 15 -12 29 -13 13 -1 29 -4 34 -6 10 -4 15 3 15 21 0
6 -18 10 -41 10 -26 0 -39 -4 -37 -12z"/>
<path d="M1331 869 c-9 -16 -9 -24 0 -35 6 -8 15 -14 20 -14 4 0 20 -11 35
-25 15 -14 33 -25 40 -25 8 0 14 -4 14 -10 0 -5 7 -10 15 -10 9 0 15 9 15 21
0 17 -4 20 -22 15 -18 -4 -30 3 -55 32 -18 20 -33 42 -33 49 0 21 -16 22 -29
2z"/>
<path d="M1508 868 c-6 -18 3 -68 13 -68 12 0 12 67 0 74 -5 4 -11 1 -13 -6z"/>
<path d="M1307 813 c-4 -3 -7 -15 -7 -25 0 -15 -5 -18 -20 -13 -11 4 -20 2
-20 -4 0 -6 9 -11 19 -11 11 0 31 -14 46 -32 36 -42 71 -60 115 -56 48 4 45
22 -5 26 -54 4 -108 54 -102 95 3 25 -10 36 -26 20z"/>
<path d="M1255 692 c-12 -12 -3 -32 14 -32 11 0 23 -4 26 -10 3 -5 10 -10 16
-10 13 0 11 38 -3 46 -15 10 -46 13 -53 6z"/>
<path d="M1425 631 c-3 -5 -1 -12 5 -16 14 -9 52 4 45 16 -8 12 -42 12 -50 0z"/>
<path d="M45 481 c-23 -5 -26 -8 -13 -13 9 -4 24 0 35 7 10 8 16 14 13 13 -3
0 -18 -3 -35 -7z"/>
<path d="M49 389 c-6 -26 10 -49 33 -49 9 1 8 5 -4 13 -9 7 -18 24 -20 37 -4
25 -4 25 -9 -1z"/>
<path d="M1796 385 c-4 -11 -21 -15 -60 -15 -30 0 -57 4 -60 8 -2 4 -37 5 -76
1 -94 -8 -118 -29 -112 -97 2 -26 3 -100 2 -164 -1 -115 -1 -118 21 -118 22 0
22 0 18 167 -4 168 -4 168 144 171 147 3 147 3 147 27 0 28 -15 41 -24 20z"/>
<path d="M1385 380 c-3 -5 -17 -10 -30 -10 -13 0 -28 -6 -32 -13 -4 -8 -16
-16 -25 -20 -22 -8 -24 -27 -3 -27 8 0 15 4 15 10 0 5 11 12 25 16 19 5 30 0
45 -17 19 -24 19 -24 20 8 0 17 3 38 6 47 7 17 -11 22 -21 6z"/>
<path d="M1260 272 c0 -13 15 -27 40 -39 54 -25 89 -35 99 -28 15 9 14 55 -1
60 -25 7 -138 13 -138 7z"/>
<path d="M300 245 c0 -6 26 -9 65 -7 84 5 84 17 0 17 -37 0 -65 -4 -65 -10z"/>
<path d="M488 253 c12 -2 30 -2 40 0 9 3 -1 5 -23 4 -22 0 -30 -2 -17 -4z"/>
<path d="M1148 243 c12 -2 32 -2 45 0 12 2 2 4 -23 4 -25 0 -35 -2 -22 -4z"/>
<path d="M301 194 c0 -11 3 -14 6 -6 3 7 2 16 -1 19 -3 4 -6 -2 -5 -13z"/>
<path d="M817 203 c-147 -2 -246 -7 -242 -13 3 -5 113 -9 248 -10 133 0 251
-2 262 -3 11 -1 21 5 23 16 3 13 -2 16 -20 15 -13 -2 -135 -4 -271 -5z"/>
<path d="M67 163 c-13 -13 -7 -31 13 -36 11 -3 18 -1 15 3 -3 5 -1 11 5 15 6
4 8 11 5 16 -7 11 -29 12 -38 2z"/>
<path d="M547 143 c-4 -3 -7 -10 -7 -14 0 -11 29 -19 35 -10 6 11 -20 33 -28
24z"/>
<path d="M442 71 c2 -7 7 -12 11 -12 12 1 9 15 -3 20 -7 2 -11 -2 -8 -8z"/>
</g>
</svg>
