<?xml version="1.0" encoding="UTF-8" standalone="no"?>
<svg
   version="1.0"
   width="84.000000pt"
   height="128.000000pt"
   viewBox="0 0 84.000000 128.000000"
   preserveAspectRatio="xMidYMid meet"
   id="svg13"
   sodipodi:docname="h.svg"
   inkscape:version="1.4 (e7c3feb1, 2024-10-09)"
   xmlns:inkscape="http://www.inkscape.org/namespaces/inkscape"
   xmlns:sodipodi="http://sodipodi.sourceforge.net/DTD/sodipodi-0.dtd"
   xmlns="http://www.w3.org/2000/svg"
   xmlns:svg="http://www.w3.org/2000/svg">
  <defs
     id="defs13" />
  <sodipodi:namedview
     id="namedview13"
     pagecolor="#ffffff"
     bordercolor="#000000"
     borderopacity="0.25"
     inkscape:showpageshadow="2"
     inkscape:pageopacity="0.0"
     inkscape:pagecheckerboard="0"
     inkscape:deskcolor="#d1d1d1"
     inkscape:document-units="pt"
     inkscape:zoom="2.4375"
     inkscape:cx="61.948718"
     inkscape:cy="70.358975"
     inkscape:current-layer="svg13" />
  <metadata
     id="metadata1">
Created by potrace 1.16, written by Peter Selinger 2001-2019
</metadata>
  <path
     d="m 41,14.3 c -4.9,2.3 -4.9,2.4 -3.3,6.6 1.8,4.5 2.7,0.2 -15.6,67.3 -2.9,10.6 -2.9,10.8 -1.1,13 2.7,3.3 4.7,1.7 9.5,-7.6 8,-15.4 22.6,-32.6 27.6,-32.6 3.5,0 3.9,3.1 1.9,12.8 -3.1,14.9 -7,20.6 -13.5,19.5 -2.6,-0.4 -3.6,-0.1 -4.9,1.8 -3.5,5.1 -1.5,8.9 4.9,8.9 6.8,0 11.9,-4.4 16.5,-14.3 8,-17.4 9.7,-29.5 4.8,-34.6 -4,-4.4 -10.6,-2.2 -20.1,6.5 -5.2,4.9 -9.7,6.9 -9.7,4.5 0,-2.1 3.5,-14.2 7.7,-27 2.5,-7.5 4.7,-15.9 5,-18.6 0.5,-4.7 0.4,-5.2 -2.1,-6.3 -3.2,-1.4 -4.3,-1.4 -7.6,0.1 z"
     id="path3"
     style="fill:#000000;stroke:none;stroke-width:0.1" />
</svg>
