<?xml version="1.0" standalone="no"?>
<!DOCTYPE svg PUBLIC "-//W3C//DTD SVG 20010904//EN"
 "http://www.w3.org/TR/2001/REC-SVG-20010904/DTD/svg10.dtd">
<svg version="1.0" xmlns="http://www.w3.org/2000/svg"
 width="101.000000pt" height="138.000000pt" viewBox="0 0 101.000000 138.000000"
 preserveAspectRatio="xMidYMid meet">
<metadata>
Created by potrace 1.16, written by Peter Selinger 2001-2019
</metadata>
<g transform="translate(0.000000,138.000000) scale(0.100000,-0.100000)"
fill="#000000" stroke="none">
<path d="M55 1339 c7 -41 7 -41 -24 -34 -27 6 -31 4 -31 -14 0 -27 9 -26 66 4
32 17 65 26 103 27 56 1 56 1 -4 7 -50 5 -62 10 -70 29 -5 12 -18 22 -28 22
-16 0 -18 -5 -12 -41z"/>
<path d="M960 1370 c0 -5 11 -10 25 -10 14 0 25 5 25 10 0 6 -11 10 -25 10
-14 0 -25 -4 -25 -10z"/>
<path d="M55 1249 c-9 -14 -2 -20 14 -10 8 6 9 11 3 15 -6 3 -14 1 -17 -5z"/>
<path d="M114 1215 c-7 -17 2 -45 14 -45 20 0 45 28 39 44 -8 20 -46 21 -53 1z"/>
<path d="M50 1122 c5 -67 5 -67 8 -8 2 32 -1 63 -5 67 -4 4 -6 -22 -3 -59z"/>
<path d="M427 1174 c-10 -10 -9 -64 1 -64 19 0 44 28 40 46 -3 19 -28 30 -41
18z"/>
<path d="M522 1110 c-83 -42 -126 -92 -151 -178 -12 -38 -21 -85 -21 -105 0
-29 -6 -41 -30 -59 -37 -27 -38 -54 -4 -89 26 -27 26 -31 27 -159 0 -132 0
-132 -39 -166 -38 -33 -38 -34 -20 -49 15 -11 46 -15 121 -15 125 0 140 10 87
56 -37 32 -37 32 -40 175 -4 171 13 417 32 462 30 71 87 87 165 46 55 -28 75
-18 79 40 4 60 -9 71 -83 71 -49 0 -74 -6 -123 -30z"/>
<path d="M46 933 c-6 -14 -5 -15 5 -6 7 7 10 15 7 18 -3 3 -9 -2 -12 -12z"/>
<path d="M51 773 c1 -74 6 -118 14 -130 8 -10 10 -22 5 -28 -8 -10 -13 -108
-10 -210 2 -68 16 -31 19 50 2 63 7 79 16 51 3 -9 8 -24 12 -33 8 -23 10 -30
12 -45 1 -9 4 -9 11 2 6 9 5 19 -3 28 -6 8 -10 27 -9 43 3 21 -1 29 -12 29
-10 0 -13 7 -11 22 3 12 -1 28 -7 35 -16 20 -4 26 70 32 67 6 67 6 70 50 2 26
-2 50 -10 60 -8 9 -20 28 -27 43 -15 29 -62 54 -85 45 -22 -9 -8 -47 17 -47
31 0 68 -46 61 -76 -8 -30 -16 -35 -57 -36 -17 0 -36 -4 -42 -8 -6 -5 -10 5
-11 28 0 21 -1 54 -2 75 -1 20 -2 54 -2 74 0 21 -5 42 -11 48 -7 7 -9 -25 -8
-102z"/>
<path d="M745 800 c-3 -5 -19 -10 -34 -10 -15 0 -42 -5 -59 -11 -25 -9 -33
-18 -38 -47 -4 -21 -11 -42 -16 -49 -6 -7 -5 -42 2 -92 9 -59 9 -89 1 -112 -8
-25 -8 -34 4 -46 8 -8 15 -23 15 -34 0 -11 11 -37 25 -59 26 -41 67 -60 133
-60 45 0 112 22 112 38 0 7 7 15 15 18 17 7 39 69 31 89 -9 23 -39 19 -33 -5
8 -33 -16 -43 -87 -36 -51 6 -68 13 -88 34 -34 37 -40 59 -22 77 10 10 13 22
8 37 -4 13 -7 31 -7 41 0 9 1 42 2 73 1 49 5 60 32 85 17 16 41 29 53 29 12 0
27 5 34 12 9 9 12 9 12 0 0 -6 12 -22 26 -35 24 -23 35 -69 23 -107 -3 -11 4
-15 26 -15 25 0 31 4 33 27 6 53 -17 107 -56 132 -40 26 -136 43 -147 26z"/>
<path d="M794 676 c1 -25 -3 -32 -22 -34 -19 -3 -21 -6 -11 -18 12 -14 90 -20
102 -7 11 10 -14 33 -36 33 -20 0 -20 1 -2 13 20 16 15 32 -13 39 -16 5 -19 0
-18 -26z"/>
<path d="M757 530 c-3 -11 -2 -22 3 -25 4 -3 11 -17 15 -32 8 -35 23 -44 47
-30 11 8 18 24 18 44 0 28 -5 35 -36 48 -45 18 -41 19 -47 -5z"/>
<path d="M932 520 c0 -14 2 -19 5 -12 2 6 2 18 0 25 -3 6 -5 1 -5 -13z"/>
<path d="M103 381 c-6 -3 -13 -25 -16 -49 -4 -33 -2 -44 12 -51 14 -8 26 1 60
40 24 28 41 52 39 54 -7 7 -85 13 -95 6z"/>
<path d="M585 338 c3 -13 7 -29 7 -35 2 -21 18 -15 18 6 0 27 -10 51 -22 51
-6 0 -7 -9 -3 -22z"/>
<path d="M906 314 c-4 -10 -1 -14 6 -12 15 5 23 28 10 28 -5 0 -13 -7 -16 -16z"/>
<path d="M150 244 c0 -16 -2 -17 -10 -4 -7 12 -12 12 -21 3 -10 -10 -10 -18 1
-38 10 -19 21 -25 47 -25 35 0 47 23 17 34 -8 3 -13 10 -10 15 3 5 -1 14 -9
21 -12 10 -15 9 -15 -6z"/>
<path d="M968 208 c-16 -5 -28 -13 -28 -18 0 -5 -18 -27 -40 -50 -36 -37 -40
-47 -40 -91 0 -43 3 -49 21 -49 19 0 21 5 17 53 -3 52 -3 52 30 49 31 -3 32
-2 32 37 0 37 2 41 25 41 18 0 25 5 25 20 0 22 -3 23 -42 8z"/>
<path d="M0 117 c0 -13 5 -17 16 -13 11 4 18 -1 21 -14 3 -11 9 -20 14 -20 5
0 9 -7 9 -15 0 -11 8 -15 28 -13 23 3 27 0 24 -19 -2 -17 2 -23 17 -23 35 0
29 24 -21 72 -26 26 -48 52 -48 57 0 5 -13 9 -30 9 -23 -1 -30 -6 -30 -21z"/>
<path d="M588 23 c7 -3 16 -2 19 1 4 3 -2 6 -13 5 -11 0 -14 -3 -6 -6z"/>
</g>
</svg>
