<?xml version="1.0" encoding="UTF-8" standalone="no"?>
<svg
   version="1.0"
   width="66.000000pt"
   height="106.000000pt"
   viewBox="0 0 66.000000 106.000000"
   preserveAspectRatio="xMidYMid meet"
   id="svg11"
   sodipodi:docname="i.svg"
   inkscape:version="1.4 (e7c3feb1, 2024-10-09)"
   xmlns:inkscape="http://www.inkscape.org/namespaces/inkscape"
   xmlns:sodipodi="http://sodipodi.sourceforge.net/DTD/sodipodi-0.dtd"
   xmlns="http://www.w3.org/2000/svg"
   xmlns:svg="http://www.w3.org/2000/svg">
  <defs
     id="defs11" />
  <sodipodi:namedview
     id="namedview11"
     pagecolor="#ffffff"
     bordercolor="#000000"
     borderopacity="0.25"
     inkscape:showpageshadow="2"
     inkscape:pageopacity="0.0"
     inkscape:pagecheckerboard="0"
     inkscape:deskcolor="#d1d1d1"
     inkscape:document-units="pt"
     inkscape:zoom="2.9433962"
     inkscape:cx="21.064103"
     inkscape:cy="101.75321"
     inkscape:current-layer="svg11" />
  <metadata
     id="metadata1">
Created by potrace 1.16, written by Peter Selinger 2001-2019
</metadata>
  <path
     d="m 33.1,14.437763 c -3.1,2.695645 -2.9,8.260847 0.4,10.173885 3.2,1.826083 5.7,1.304345 7.4,-1.739125 0.9,-1.739126 1.1,-3.478252 0.5,-6.08694 -0.8,-2.956515 -1.3,-3.565208 -3.6,-3.826077 -1.7,-0.173913 -3.4,0.347825 -4.7,1.478257 z"
     id="path3"
     style="fill:#000000;stroke:none;stroke-width:0.0932504" />
  <path
     d="m 26.3,45.8 c -6.7,6.2 -7.5,7.7 -4.3,8.5 3.4,0.9 3.3,3.3 -0.4,11.4 -4.9,11 -6.8,16.9 -6.4,20.5 0.7,7.1 6.9,6.2 15.1,-2.3 6.2,-6.6 7.5,-10.5 3.5,-11.1 -3.5,-0.5 -3.4,-4 0.7,-14.2 C 39,47.3 39.2,40.7 35,40.2 33.1,40 30.9,41.4 26.3,45.8 Z"
     id="path7"
     style="fill:#000000;stroke:none;stroke-width:0.1" />
</svg>
