<?xml version="1.0" standalone="no"?>
<!DOCTYPE svg PUBLIC "-//W3C//DTD SVG 20010904//EN"
 "http://www.w3.org/TR/2001/REC-SVG-20010904/DTD/svg10.dtd">
<svg version="1.0" xmlns="http://www.w3.org/2000/svg"
 width="160.000000pt" height="163.000000pt" viewBox="0 0 160.000000 163.000000"
 preserveAspectRatio="xMidYMid meet">
<metadata>
Created by potrace 1.16, written by Peter Selinger 2001-2019
</metadata>
<g transform="translate(0.000000,163.000000) scale(0.100000,-0.100000)"
fill="#000000" stroke="none">
<path d="M138 1603 c-3 -26 -4 -27 -70 -24 -62 2 -68 1 -68 -17 0 -23 51 -33
113 -21 44 8 57 21 57 62 0 36 -28 36 -32 0z"/>
<path d="M1391 1530 c2 -125 6 -130 126 -130 77 0 83 1 83 21 0 19 -5 20 -80
18 -44 -1 -83 1 -87 4 -3 4 -5 47 -4 97 2 85 1 90 -19 90 -20 0 -21 -5 -19
-100z"/>
<path d="M161 1364 c0 -11 3 -14 6 -6 3 7 2 16 -1 19 -3 4 -6 -2 -5 -13z"/>
<path d="M231 1337 c16 -12 50 -70 57 -97 2 -8 4 -48 4 -87 0 -40 4 -73 9 -73
12 0 11 167 -1 175 -5 3 -10 16 -10 29 0 25 -38 66 -61 66 -11 -1 -11 -3 2
-13z"/>
<path d="M1268 1341 c9 -5 -5 -10 -39 -14 -79 -10 -89 -42 -38 -117 30 -45 30
-45 28 -252 -2 -207 -2 -207 25 -252 31 -53 84 -91 138 -100 39 -7 94 14 147
55 15 12 32 17 47 13 23 -6 24 -4 24 45 0 47 -2 51 -18 42 -10 -5 -24 -17 -32
-25 -19 -23 -92 -20 -135 5 -57 34 -72 76 -75 209 -2 132 -2 141 4 195 3 22 6
71 7 108 2 76 -12 96 -66 97 -20 0 -26 -3 -17 -9z"/>
<path d="M147 1320 c-32 -25 -35 -67 -12 -144 16 -54 21 -211 6 -220 -5 -4 -8
-42 -5 -85 3 -63 1 -80 -11 -85 -17 -6 -12 -51 11 -103 19 -42 20 -43 83 -35
44 6 55 11 56 27 1 11 4 25 6 30 7 21 -13 51 -44 65 -31 15 -32 16 -35 88 -2
44 2 79 8 87 8 10 8 20 -1 36 -7 14 -9 44 -6 83 4 34 2 92 -3 130 -7 58 -6 72
7 81 13 10 12 15 -9 39 -23 28 -23 28 -51 6z"/>
<path d="M1580 1330 c-8 -5 -24 -10 -35 -10 -28 0 -60 -38 -46 -54 14 -17 90
-51 97 -44 3 3 4 31 2 62 -3 46 -5 54 -18 46z"/>
<path d="M0 1276 c0 -49 2 -55 23 -58 14 -2 29 -16 40 -40 10 -21 23 -38 28
-38 10 0 12 132 3 168 -5 18 -13 22 -50 22 -44 0 -44 0 -44 -54z"/>
<path d="M615 1317 c-182 -72 -249 -166 -249 -351 0 -147 74 -263 193 -304 52
-18 151 -14 217 8 59 20 59 20 78 -3 16 -20 18 -33 12 -127 -13 -205 -13 -206
-57 -223 -26 -10 -42 -25 -49 -43 -21 -55 -16 -57 166 -51 182 6 200 12 181
55 -6 15 -12 29 -14 31 -1 2 -17 5 -35 7 -17 2 -36 8 -40 12 -17 17 -25 450
-15 840 4 151 3 162 -14 162 -12 0 -16 -5 -13 -15 8 -20 -58 -20 -141 0 -71
17 -178 18 -220 2z m179 -110 c73 -41 76 -53 83 -243 5 -170 5 -170 -22 -202
-24 -29 -32 -32 -83 -32 -102 0 -184 46 -239 133 -22 35 -26 53 -27 127 -1 80
1 88 30 130 18 25 43 55 57 68 49 46 139 55 201 19z"/>
<path d="M240 1220 c0 -5 5 -10 10 -10 6 0 10 5 10 10 0 6 -4 10 -10 10 -5 0
-10 -4 -10 -10z"/>
<path d="M226 1113 c-8 -19 7 -38 22 -29 11 7 4 46 -8 46 -4 0 -11 -8 -14 -17z"/>
<path d="M230 1025 c0 -14 5 -25 10 -25 6 0 10 11 10 25 0 14 -4 25 -10 25 -5
0 -10 -11 -10 -25z"/>
<path d="M53 728 c-17 -27 -33 -61 -33 -70 0 -15 62 -4 73 13 5 9 7 28 3 42
-7 28 -29 36 -43 15z"/>
<path d="M1402 194 c-18 -20 -12 -99 8 -99 10 0 16 12 18 40 3 40 3 40 87 36
81 -3 85 -2 85 18 0 21 -4 22 -93 20 -64 -1 -96 -6 -105 -15z"/>
<path d="M908 75 c-34 -29 -39 -75 -9 -75 11 0 21 6 24 13 3 9 52 11 214 9
180 -3 211 -2 216 11 3 8 3 18 0 21 -4 3 -48 6 -99 6 -51 0 -95 4 -98 9 -7 11
-150 4 -154 -9 -5 -13 -59 -13 -67 0 -4 6 9 10 30 10 45 0 44 24 -1 27 -19 2
-38 -5 -56 -22z"/>
<path d="M1392 58 c-7 -7 -12 -22 -12 -35 0 -18 6 -23 25 -23 22 0 25 4 25 35
0 36 -15 46 -38 23z"/>
<path d="M0 45 c0 -11 12 -15 50 -15 38 0 50 -4 50 -15 0 -8 7 -15 15 -15 19
0 19 19 0 26 -8 4 -15 12 -15 20 0 10 -14 14 -50 14 -38 0 -50 -4 -50 -15z"/>
</g>
</svg>
