<?xml version="1.0" standalone="no"?>
<!DOCTYPE svg PUBLIC "-//W3C//DTD SVG 20010904//EN"
 "http://www.w3.org/TR/2001/REC-SVG-20010904/DTD/svg10.dtd">
<svg version="1.0" xmlns="http://www.w3.org/2000/svg"
 width="103.000000pt" height="102.000000pt" viewBox="0 0 103.000000 102.000000"
 preserveAspectRatio="xMidYMid meet">
<metadata>
Created by potrace 1.16, written by Peter Selinger 2001-2019
</metadata>
<g transform="translate(0.000000,102.000000) scale(0.100000,-0.100000)"
fill="#000000" stroke="none">
<path d="M107 1014 c-8 -8 1 -24 13 -24 4 0 10 7 14 15 5 15 -14 21 -27 9z"/>
<path d="M410 1010 c0 -5 6 -10 14 -10 8 0 18 5 21 10 3 6 -3 10 -14 10 -12 0
-21 -4 -21 -10z"/>
<path d="M917 1013 c-8 -7 18 -52 41 -70 9 -7 28 -13 44 -13 21 0 28 5 28 20
0 17 -7 20 -40 20 -38 0 -40 1 -34 25 5 20 2 25 -13 25 -11 0 -23 -3 -26 -7z"/>
<path d="M0 969 c0 -24 3 -30 16 -25 9 3 20 6 25 6 5 0 9 5 9 11 0 7 8 18 18
25 15 12 12 13 -25 14 -41 0 -43 -1 -43 -31z"/>
<path d="M670 976 c0 -26 12 -45 25 -40 7 3 16 -3 20 -13 7 -17 8 -17 15 2 5
11 9 30 9 43 1 19 -4 22 -34 22 -24 0 -35 -5 -35 -14z"/>
<path d="M597 973 c-2 -5 -1 -21 2 -37 6 -28 6 -28 25 -7 20 22 16 51 -8 51
-8 0 -17 -3 -19 -7z"/>
<path d="M87 954 c-9 -10 2 -24 19 -24 8 0 14 7 14 15 0 15 -21 21 -33 9z"/>
<path d="M686 902 c-13 -12 -5 -22 19 -22 14 0 25 4 25 9 0 10 -36 21 -44 13z"/>
<path d="M90 863 c0 -28 3 -34 10 -23 13 20 13 47 0 55 -6 4 -10 -9 -10 -32z"/>
<path d="M134 848 c-3 -5 -3 -12 0 -15 3 -3 -1 -21 -9 -40 -8 -20 -15 -37 -15
-39 0 -7 72 4 81 13 6 6 7 26 4 46 -5 27 -13 36 -31 40 -14 2 -27 0 -30 -5z"/>
<path d="M420 822 c-40 -39 -60 -91 -60 -154 0 -25 -8 -46 -26 -68 -27 -31
-27 -31 -6 -53 22 -24 25 -43 23 -154 -1 -65 -4 -75 -28 -97 -40 -37 -22 -47
78 -44 66 2 84 6 84 18 0 8 -12 21 -27 28 -26 12 -28 18 -29 75 -4 155 7 355
21 392 20 52 65 61 105 20 22 -21 25 -33 25 -98 0 -61 -3 -77 -20 -92 -25 -22
-26 -41 -3 -54 15 -8 17 -24 14 -128 -2 -108 -1 -120 19 -140 27 -30 95 -31
129 -3 31 27 21 50 -22 50 -49 0 -57 14 -57 103 0 88 11 117 43 117 46 0 67
12 67 36 0 24 -11 30 -70 36 -24 3 -25 6 -30 98 -5 96 -17 133 -46 144 -8 3
-45 6 -81 6 -62 0 -67 -2 -103 -38z"/>
<path d="M833 805 c-15 -10 -20 -21 -16 -33 16 -43 53 -30 53 19 0 33 -7 35
-37 14z"/>
<path d="M0 800 c0 -5 10 -10 23 -10 18 0 19 2 7 10 -19 13 -30 13 -30 0z"/>
<path d="M87 723 c-11 -10 -8 -61 3 -68 6 -4 10 10 10 34 0 42 -2 46 -13 34z"/>
<path d="M0 599 c0 -14 5 -19 17 -17 26 5 29 38 4 38 -15 0 -21 -6 -21 -21z"/>
<path d="M87 603 c-13 -13 -7 -61 10 -74 9 -8 19 -12 22 -9 3 3 7 -18 9 -46 3
-46 0 -54 -24 -73 -14 -11 -30 -18 -35 -15 -11 6 -49 92 -49 110 0 8 -4 14
-10 14 -6 0 -10 -38 -10 -94 0 -71 4 -97 15 -106 8 -7 15 -27 15 -46 0 -18 -7
-39 -15 -48 -9 -9 -15 -34 -15 -65 0 -59 15 -68 24 -16 4 20 18 57 32 83 14
26 30 67 35 92 16 71 49 78 49 10 0 -32 -6 -43 -30 -60 -39 -27 -42 -78 -4
-63 9 3 12 13 9 23 -6 20 10 36 20 20 8 -13 45 -13 45 0 0 6 14 10 30 10 27 0
30 3 30 31 0 22 -5 32 -20 36 -11 3 -20 10 -20 17 -2 35 -2 136 -1 164 1 29 4
32 25 26 30 -7 39 7 25 40 -14 29 -15 29 -82 26 -26 -1 -54 3 -61 9 -7 6 -16
8 -19 4z"/>
<path d="M876 601 c-3 -4 -19 -11 -36 -14 -31 -7 -45 -28 -57 -92 -6 -27 -5
-29 10 -17 20 17 40 6 32 -18 -10 -32 16 -34 40 -4 25 32 23 48 -6 41 -28 -7
-23 15 11 53 17 18 30 32 31 29 0 -2 2 -14 3 -27 3 -28 21 -47 35 -38 28 17
-2 96 -36 96 -12 0 -24 -4 -27 -9z"/>
<path d="M920 467 c0 -14 -3 -39 -6 -56 -5 -24 -3 -31 9 -31 11 0 15 12 15 50
1 27 -3 52 -9 55 -5 4 -9 -5 -9 -18z"/>
<path d="M802 387 c-20 -21 -20 -25 -7 -43 19 -25 19 -43 -1 -65 -9 -10 -13
-23 -9 -29 9 -14 109 -7 130 10 20 17 19 32 -2 28 -11 -2 -18 3 -18 14 0 9 -9
24 -20 31 -16 13 -17 17 -6 31 35 42 -29 64 -67 23z"/>
<path d="M980 213 c-32 -12 -57 -44 -53 -67 3 -13 0 -34 -7 -46 -13 -25 -1
-40 33 -40 14 0 17 10 17 66 0 66 0 66 30 59 26 -6 30 -4 30 14 0 21 -18 26
-50 14z"/>
<path d="M175 177 c-12 -10 -14 -16 -7 -21 17 -10 15 -56 -3 -62 -24 -10 -17
-34 10 -34 34 0 49 32 40 86 -7 48 -11 51 -40 31z"/>
<path d="M100 119 c0 -5 5 -7 10 -4 6 3 10 8 10 11 0 2 -4 4 -10 4 -5 0 -10
-5 -10 -11z"/>
<path d="M83 81 c-9 -11 -21 -18 -25 -15 -16 10 -58 -6 -58 -22 0 -13 7 -15
36 -10 19 4 42 10 50 13 10 4 14 -2 14 -21 0 -21 5 -26 25 -26 30 0 31 7 4 36
-11 12 -21 31 -22 43 -2 26 -3 26 -24 2z"/>
<path d="M870 43 c0 -6 -10 -15 -21 -18 -17 -6 -19 -9 -8 -16 18 -11 59 -12
59 -1 0 13 -29 48 -30 35z"/>
<path d="M912 39 c2 -7 10 -15 17 -17 8 -3 12 1 9 9 -2 7 -10 15 -17 17 -8 3
-12 -1 -9 -9z"/>
<path d="M595 10 c3 -5 15 -10 26 -10 10 0 19 5 19 10 0 6 -12 10 -26 10 -14
0 -23 -4 -19 -10z"/>
</g>
</svg>
