<?xml version="1.0" encoding="UTF-8" standalone="no"?>
<svg
   version="1.0"
   width="74.000000pt"
   height="72.000000pt"
   viewBox="0 0 74.000000 72.000000"
   preserveAspectRatio="xMidYMid meet"
   id="svg11"
   sodipodi:docname="u.svg"
   inkscape:version="1.4 (e7c3feb1, 2024-10-09)"
   xmlns:inkscape="http://www.inkscape.org/namespaces/inkscape"
   xmlns:sodipodi="http://sodipodi.sourceforge.net/DTD/sodipodi-0.dtd"
   xmlns="http://www.w3.org/2000/svg"
   xmlns:svg="http://www.w3.org/2000/svg">
  <defs
     id="defs11" />
  <sodipodi:namedview
     id="namedview11"
     pagecolor="#ffffff"
     bordercolor="#000000"
     borderopacity="0.25"
     inkscape:showpageshadow="2"
     inkscape:pageopacity="0.0"
     inkscape:pagecheckerboard="0"
     inkscape:deskcolor="#d1d1d1"
     inkscape:document-units="pt"
     inkscape:zoom="3.0641294"
     inkscape:cx="50.911688"
     inkscape:cy="51.727581"
     inkscape:current-layer="svg11" />
  <metadata
     id="metadata1">
Created by potrace 1.16, written by Peter Selinger 2001-2019
</metadata>
  <path
     d="m 60.3,11.5 c -1.2,0.8 -3.2,3.2 -4.4,5.2 C 50.7,25.3 29.9,47 26.9,47 25.9,47 25,46.8 25,46.5 25,46.2 27.1,42 29.7,37.2 40,17.8 41,15.8 41,14 41,9.8 35.4,10.6 27.2,16.2 16.6,23.3 13.9,28 20.5,28 25.3,28 25.1,29.2 18.6,42.5 10.9,58.4 10.5,64 16.9,64 19.2,64 21.9,61.7 32,51 44.6,37.6 48.9,34.8 47.7,40.9 c -0.3,1.5 -2.2,5.5 -4.1,8.7 -4.4,7.2 -4.8,12.1 -1.2,13 14.348503,3.495148 31.38852,-30.175952 19.2,-18.8 -4.2,3.9 -8.6,5.5 -8.6,3.2 0,-1 2.1,-5.6 7.9,-17 5.3,-10.3 6.4,-14.1 5.2,-17.4 -1.2,-3 -2.7,-3.3 -5.8,-1.1 z"
     id="path3"
     style="fill:#000000;stroke:none;stroke-width:0.1"
     sodipodi:nodetypes="ccsscscscscccccsccc" />
</svg>
