<?xml version="1.0" encoding="UTF-8" standalone="no"?>
<svg
   version="1.0"
   width="142.000000pt"
   height="132.000000pt"
   viewBox="0 0 142.000000 132.000000"
   preserveAspectRatio="xMidYMid meet"
   id="svg16"
   sodipodi:docname="O.svg"
   inkscape:version="1.4 (e7c3feb1, 2024-10-09)"
   xmlns:inkscape="http://www.inkscape.org/namespaces/inkscape"
   xmlns:sodipodi="http://sodipodi.sourceforge.net/DTD/sodipodi-0.dtd"
   xmlns="http://www.w3.org/2000/svg"
   xmlns:svg="http://www.w3.org/2000/svg">
  <defs
     id="defs16" />
  <sodipodi:namedview
     id="namedview16"
     pagecolor="#ffffff"
     bordercolor="#000000"
     borderopacity="0.25"
     inkscape:showpageshadow="2"
     inkscape:pageopacity="0.0"
     inkscape:pagecheckerboard="0"
     inkscape:deskcolor="#d1d1d1"
     inkscape:document-units="pt"
     inkscape:zoom="2.3636364"
     inkscape:cx="30.461539"
     inkscape:cy="29.403846"
     inkscape:current-layer="svg16" />
  <metadata
     id="metadata1">
Created by potrace 1.16, written by Peter Selinger 2001-2019
</metadata>
  <path
     d="m 53.7,32.8 c -9.5,12.3 -13.3,23.5 -12.5,37 0.664456,14.116482 7.195831,23.589889 20.4,28.8 7.129407,2.73907 16.031519,1.77815 23.1,-1.6 C 109.68025,84.680972 118.26761,57.638751 114.8,37.7 112.4,24.9 98.9,15 83.8,15 77.203377,15 63.318475,20.163964 53.7,32.8 Z m 41.6,-9.3 c 4.8,3.6 7.6,10.8 7.8,20.5 0.1,4.7 -0.4,10.5 -0.9,13 C 97.168849,78.466242 85.306997,90.792325 78.5,93 73.8,94.6 67,93.8 63.6,91.4 59.4,88.4 55.8,79.7 55.3,70.9 54.2,54.2 63.9,30.9 74.9,23.8 80.554813,20.155548 89.460227,19.85476 95.3,23.5 Z"
     id="path4"
     style="fill:#000000;stroke:none;stroke-width:0.1"
     sodipodi:nodetypes="cccccsccccccccc" />
</svg>
