<?xml version="1.0" encoding="UTF-8" standalone="no"?>
<svg
   version="1.0"
   width="132.000000pt"
   height="138.000000pt"
   viewBox="0 0 132.000000 138.000000"
   preserveAspectRatio="xMidYMid meet"
   id="svg29"
   sodipodi:docname="I.svg"
   inkscape:version="1.4 (e7c3feb1, 2024-10-09)"
   xmlns:inkscape="http://www.inkscape.org/namespaces/inkscape"
   xmlns:sodipodi="http://sodipodi.sourceforge.net/DTD/sodipodi-0.dtd"
   xmlns="http://www.w3.org/2000/svg"
   xmlns:svg="http://www.w3.org/2000/svg">
  <defs
     id="defs29" />
  <sodipodi:namedview
     id="namedview29"
     pagecolor="#ffffff"
     bordercolor="#000000"
     borderopacity="0.25"
     inkscape:showpageshadow="2"
     inkscape:pageopacity="0.0"
     inkscape:pagecheckerboard="0"
     inkscape:deskcolor="#d1d1d1"
     inkscape:document-units="pt"
     inkscape:zoom="1.5986762"
     inkscape:cx="144.49455"
     inkscape:cy="114.15695"
     inkscape:current-layer="svg29" />
  <metadata
     id="metadata1">
Created by potrace 1.16, written by Peter Selinger 2001-2019
</metadata>
  <path
     d="m 73,23.4 c -13.3,1 -14.5,1.3 -14.8,3.1 -0.1,1.4 0.7,2.4 3,3.5 4.4,2 4.2,4.5 -1.6,19.5 -2.5,6.6 -4.6,12.5 -4.6,13 0,0.6 -0.8,2.6 -1.8,4.5 -1.1,1.9 -3.6,7.9 -5.6,13.2 C 44.614984,93.739084 38.303003,93.92078 34.376553,96.706789 30.450102,99.492797 31.61226,100.23666 32.3,100.8 c 1.641057,1.34422 3.7,1.6 16.5,1.4 10.7,-0.2 15,-0.6 16,-1.6 1.5,-1.5 1.5,-1.5 -4.2,-5.8 -4.1,-3.1 -3.9,-4 7.1,-32.8 5.7,-15.1 10.5,-26.6 11.8,-28.3 0.7,-1 3.9,-2.8 7.1,-4 4.3,-1.7 6,-2.9 6.2,-4.4 0.2,-1.4 -0.4,-2.2 -2,-2.7 -1.3,-0.3 -2.5,-0.5 -2.8,-0.4 -0.3,0 -7,0.6 -15,1.2 z"
     id="path7"
     style="fill:#000000;stroke:none;stroke-width:0.1"
     sodipodi:nodetypes="ccccscczscscccccccc" />
</svg>
