<?xml version="1.0" standalone="no"?>
<!DOCTYPE svg PUBLIC "-//W3C//DTD SVG 20010904//EN"
 "http://www.w3.org/TR/2001/REC-SVG-20010904/DTD/svg10.dtd">
<svg version="1.0" xmlns="http://www.w3.org/2000/svg"
 width="95.000000pt" height="115.000000pt" viewBox="0 0 95.000000 115.000000"
 preserveAspectRatio="xMidYMid meet">
<metadata>
Created by potrace 1.16, written by Peter Selinger 2001-2019
</metadata>
<g transform="translate(0.000000,115.000000) scale(0.100000,-0.100000)"
fill="#000000" stroke="none">
<path d="M211 1083 c3 -68 3 -68 -104 -71 -99 -2 -107 -4 -107 -22 0 -19 7
-20 103 -20 111 0 130 7 140 50 10 41 -4 130 -20 130 -11 0 -14 -14 -12 -67z"/>
<path d="M94 934 c3 -9 6 -21 7 -27 0 -7 4 -3 9 8 13 29 12 35 -6 35 -11 0
-14 -5 -10 -16z"/>
<path d="M677 922 c-25 -28 -21 -35 17 -28 18 4 45 2 59 -3 17 -7 28 -7 32 -1
11 18 26 10 20 -9 -8 -27 9 -34 29 -12 15 17 15 20 -5 44 -18 24 -28 27 -78
27 -43 0 -62 -5 -74 -18z"/>
<path d="M483 903 c-13 -3 -32 -18 -43 -34 -19 -26 -20 -28 -3 -22 10 3 23 10
29 15 6 4 34 7 62 6 45 -2 86 13 71 25 -7 7 -93 14 -116 10z"/>
<path d="M605 819 c-11 -6 -30 -21 -42 -31 -21 -20 -23 -20 -68 -3 -38 15 -52
16 -83 7 -68 -21 -132 -115 -132 -196 0 -20 -8 -40 -20 -51 -26 -23 -25 -39 2
-57 21 -14 22 -21 20 -119 -2 -91 -5 -106 -23 -121 -12 -10 -19 -24 -16 -32
10 -26 147 -27 147 -1 0 7 -10 25 -22 40 -20 26 -21 33 -15 204 7 189 17 245
47 261 25 14 68 3 80 -20 16 -30 12 -129 -7 -161 -16 -27 -16 -29 1 -48 15
-17 17 -35 14 -121 -3 -91 -5 -104 -25 -120 -51 -41 -15 -63 85 -53 29 3 55 9
57 13 3 4 -7 16 -22 25 -26 17 -26 17 -19 254 6 207 8 238 24 249 20 15 71 11
120 -9 31 -13 35 -12 48 5 19 26 18 39 -4 66 -14 18 -31 24 -73 27 -30 2 -63
-2 -74 -8z"/>
<path d="M82 798 c-17 -17 -15 -42 6 -61 28 -26 42 -20 42 16 0 30 -14 57 -30
57 -3 0 -11 -5 -18 -12z"/>
<path d="M813 671 c-10 -16 -7 -20 25 -30 53 -16 59 -22 67 -64 6 -30 4 -37
-9 -37 -9 0 -16 -8 -16 -20 0 -28 27 -90 39 -90 5 0 11 44 13 98 4 106 -1 121
-54 148 -36 19 -51 18 -65 -5z"/>
<path d="M3 635 c0 -8 4 -12 9 -9 5 3 6 10 3 15 -9 13 -12 11 -12 -6z"/>
<path d="M217 625 c-4 -8 -2 -17 3 -20 6 -4 10 3 10 14 0 25 -6 27 -13 6z"/>
<path d="M32 569 c-31 -9 -32 -12 -32 -59 0 -28 3 -50 7 -50 4 0 17 12 29 28
20 24 24 25 37 12 17 -18 28 -82 17 -100 -10 -17 -30 -4 -30 20 0 10 -5 22
-11 25 -6 4 -9 -4 -7 -22 2 -23 -1 -29 -20 -31 -19 -3 -22 -9 -22 -44 0 -39 1
-40 18 -25 25 23 32 21 32 -9 0 -23 -3 -26 -25 -22 -24 5 -25 3 -25 -47 0 -52
0 -52 42 -45 23 5 57 6 75 3 19 -3 39 0 48 7 19 16 20 64 1 79 -23 19 -9 161
15 161 23 0 7 58 -25 93 -36 39 -60 44 -124 26z"/>
<path d="M744 564 c-67 -33 -79 -56 -80 -157 -1 -51 -4 -106 -8 -123 -5 -23
-2 -37 13 -55 18 -23 24 -24 112 -21 52 2 97 6 101 8 16 10 7 43 -12 49 -19 6
-20 14 -18 141 2 145 -2 157 -52 168 -14 4 -39 -1 -56 -10z m59 -113 c10 -50
3 -60 -44 -67 -19 -2 -43 -7 -55 -9 -17 -4 -21 0 -22 25 0 22 4 30 21 32 14 2
24 14 29 36 8 28 13 33 36 30 23 -3 28 -9 35 -47z m-5 -138 c3 -27 0 -33 -16
-33 -25 0 -56 35 -48 55 4 11 15 15 33 13 23 -2 29 -8 31 -35z"/>
<path d="M222 374 c-1 -15 2 -22 8 -19 12 7 13 32 2 39 -4 2 -9 -7 -10 -20z"/>
<path d="M910 360 c0 -23 4 -30 20 -30 23 0 27 29 8 48 -19 19 -28 14 -28 -18z"/>
<path d="M410 350 c0 -5 7 -10 16 -10 8 0 12 5 9 10 -3 6 -10 10 -16 10 -5 0
-9 -4 -9 -10z"/>
<path d="M899 164 c-7 -8 -13 -47 -13 -89 -1 -67 1 -75 17 -75 15 0 18 5 14
22 -4 12 -1 28 5 35 7 9 7 21 -2 42 -13 32 -7 51 16 51 8 0 14 6 14 13 0 18
-36 19 -51 1z"/>
<path d="M0 79 c0 -17 5 -20 21 -16 12 3 22 0 26 -9 3 -8 13 -14 23 -14 10 0
22 -9 25 -21 5 -16 10 -18 21 -8 8 6 25 9 39 7 14 -3 28 0 32 6 3 6 2 8 -2 3
-5 -4 -15 -1 -24 7 -9 7 -33 19 -53 25 -20 7 -42 19 -48 27 -20 23 -60 18 -60
-7z"/>
<path d="M373 43 c-24 -2 -43 -7 -43 -11 0 -4 12 -7 28 -6 15 1 47 3 72 3 33
1 41 4 30 11 -8 5 -22 9 -30 8 -8 -1 -34 -3 -57 -5z"/>
<path d="M530 38 c0 -5 11 -8 24 -8 13 0 33 -3 43 -6 14 -6 16 -4 6 6 -13 14
-73 20 -73 8z"/>
<path d="M670 26 c9 -9 56 -10 99 -1 50 10 33 16 -36 14 -46 -2 -69 -7 -63
-13z"/>
</g>
</svg>
