<?xml version="1.0" standalone="no"?>
<!DOCTYPE svg PUBLIC "-//W3C//DTD SVG 20010904//EN"
 "http://www.w3.org/TR/2001/REC-SVG-20010904/DTD/svg10.dtd">
<svg version="1.0" xmlns="http://www.w3.org/2000/svg"
 width="205.000000pt" height="199.000000pt" viewBox="0 0 205.000000 199.000000"
 preserveAspectRatio="xMidYMid meet">
<metadata>
Created by potrace 1.16, written by Peter Selinger 2001-2019
</metadata>
<g transform="translate(0.000000,199.000000) scale(0.100000,-0.100000)"
fill="#000000" stroke="none">
<path d="M1835 1953 c4 -21 9 -51 12 -68 10 -54 23 -60 117 -57 78 3 86 5 86
23 0 19 -6 20 -82 18 -83 -2 -83 -2 -84 47 -1 37 -5 50 -17 52 -10 2 -17 8
-17 13 0 5 -5 9 -11 9 -8 0 -9 -12 -4 -37z"/>
<path d="M170 1942 c0 -27 -3 -30 -32 -28 -33 1 -33 1 -33 -77 0 -77 0 -77
-52 -77 -49 0 -53 -2 -53 -24 0 -21 5 -24 46 -28 41 -3 48 0 65 24 21 30 39
109 32 139 -4 16 0 19 24 19 21 0 33 7 43 25 13 24 16 25 119 24 58 0 131 1
163 3 31 2 54 0 52 -4 -6 -9 58 2 69 12 4 3 -66 7 -155 8 -90 1 -191 4 -225 8
-63 6 -63 6 -63 -24z"/>
<path d="M696 1948 c7 -10 124 -11 124 0 0 4 -29 7 -64 7 -36 1 -62 -3 -60 -7z"/>
<path d="M838 1953 c6 -2 18 -2 25 0 6 3 1 5 -13 5 -14 0 -19 -2 -12 -5z"/>
<path d="M885 1951 c11 -11 646 -20 639 -10 -2 3 15 3 38 -1 43 -8 68 -4 68
10 0 5 -170 9 -377 10 -247 0 -374 -3 -368 -9z"/>
<path d="M1735 1950 c-4 -6 8 -10 29 -10 20 0 36 5 36 10 0 6 -13 10 -29 10
-17 0 -33 -4 -36 -10z"/>
<path d="M640 1940 c-12 -8 -10 -10 8 -10 13 0 20 4 17 10 -7 12 -6 12 -25 0z"/>
<path d="M183 1866 c0 -7 6 -13 14 -13 7 0 13 4 13 8 0 4 -6 9 -13 12 -8 3
-14 0 -14 -7z"/>
<path d="M1117 1819 c7 -7 15 -10 18 -7 3 3 -2 9 -12 12 -14 6 -15 5 -6 -5z"/>
<path d="M1197 1818 c-7 -4 11 -8 41 -8 29 0 51 4 48 9 -7 11 -71 10 -89 -1z"/>
<path d="M1338 1813 c7 -3 16 -2 19 1 4 3 -2 6 -13 5 -11 0 -14 -3 -6 -6z"/>
<path d="M1643 1813 c9 -2 23 -2 30 0 6 3 -1 5 -18 5 -16 0 -22 -2 -12 -5z"/>
<path d="M1880 1784 c0 -8 5 -12 10 -9 6 3 10 10 10 16 0 5 -4 9 -10 9 -5 0
-10 -7 -10 -16z"/>
<path d="M1630 1565 c-14 -8 -33 -16 -44 -20 -33 -10 -3 -85 35 -85 23 0 21 5
25 -95 3 -105 2 -101 14 -89 13 13 19 122 9 159 -5 16 -21 40 -36 52 -34 28
-25 40 40 52 68 12 74 3 71 -108 -1 -49 -4 -94 -7 -98 -8 -14 -17 -63 -12 -63
28 0 66 102 43 116 -6 4 -7 21 -3 43 19 107 18 119 -7 134 -30 18 -96 19 -128
2z"/>
<path d="M77 1563 c-3 -5 1 -21 8 -38 13 -30 13 -30 12 3 0 32 -11 50 -20 35z"/>
<path d="M1043 1534 c-21 -9 -53 -70 -78 -151 -56 -180 -110 -316 -166 -416
-14 -26 -44 -111 -74 -209 -14 -47 -33 -92 -42 -99 -8 -8 -39 -16 -67 -19 -43
-4 -52 -9 -60 -31 -5 -14 -6 -38 -2 -53 8 -34 61 -66 95 -60 14 3 81 8 149 13
67 4 127 12 133 18 15 15 0 42 -31 58 -53 28 -90 66 -90 93 0 41 35 166 56
201 24 41 69 54 173 50 93 -5 103 -12 122 -84 6 -22 22 -64 35 -93 39 -84 33
-108 -31 -138 -44 -21 -56 -52 -29 -75 13 -11 60 -15 194 -17 177 -4 177 -4
184 23 8 33 -8 54 -69 89 -41 25 -41 25 -123 273 -83 255 -120 377 -142 473
-16 68 -54 145 -75 154 -19 7 -44 7 -62 0z m12 -328 c25 -25 42 -99 31 -134
-11 -35 -92 -44 -120 -13 -14 16 -15 25 -6 66 14 62 37 105 56 105 8 0 26 -11
39 -24z"/>
<path d="M1640 1220 c0 -5 4 -10 9 -10 6 0 13 5 16 10 3 6 -1 10 -9 10 -9 0
-16 -4 -16 -10z"/>
<path d="M1744 1215 c21 -16 32 -13 21 4 -3 6 -14 11 -23 11 -15 -1 -15 -2 2
-15z"/>
<path d="M1968 1213 c-16 -2 -28 -8 -28 -13 0 -5 -14 -11 -31 -15 -18 -4 -33
-15 -36 -25 -3 -10 -19 -24 -36 -31 -29 -12 -31 -11 -61 24 -34 41 -61 46
-131 24 -38 -11 -40 -14 -39 -50 1 -25 9 -46 25 -63 22 -23 24 -35 32 -202 10
-218 7 -235 -36 -247 -38 -12 -43 -40 -7 -41 14 0 30 -3 35 -6 6 -3 43 -9 83
-13 39 -4 72 -11 72 -15 0 -15 45 -20 55 -6 11 14 49 36 62 36 4 0 -3 -9 -17
-20 -25 -20 -25 -20 10 -13 43 7 46 9 32 26 -7 8 -9 17 -5 20 13 14 49 6 61
-13 7 -11 19 -20 27 -20 13 0 15 45 15 335 0 335 0 335 -27 334 -16 -1 -40 -4
-55 -6z m-35 -114 c5 -17 8 -18 25 -8 11 7 27 9 36 6 14 -6 16 -29 16 -184 0
-98 -3 -187 -6 -198 -5 -20 -22 -30 -95 -53 -51 -17 -56 -16 -94 24 -32 33
-35 41 -37 102 -4 144 4 236 20 255 9 11 17 25 17 33 0 7 5 13 10 11 6 -1 9
-12 7 -23 -2 -16 4 -23 23 -26 32 -7 38 3 29 47 -6 32 -4 35 19 35 16 0 26 -7
30 -21z"/>
<path d="M177 1193 c-11 -11 -8 -93 4 -93 45 0 65 53 31 83 -20 19 -26 20 -35
10z"/>
<path d="M1840 1190 c0 -5 5 -10 11 -10 5 0 7 5 4 10 -3 6 -8 10 -11 10 -2 0
-4 -4 -4 -10z"/>
<path d="M1570 1145 c0 -8 5 -15 10 -15 6 0 10 7 10 15 0 8 -4 15 -10 15 -5 0
-10 -7 -10 -15z"/>
<path d="M190 872 c0 -29 0 -54 0 -57 0 -3 3 -4 7 -2 8 2 6 97 -2 105 -3 3 -5
-18 -5 -46z"/>
<path d="M80 840 c-12 -7 -12 -12 -3 -21 15 -15 26 -7 21 15 -2 11 -7 13 -18
6z"/>
<path d="M70 785 c-9 -11 -10 -18 -1 -29 6 -7 10 -22 9 -32 -6 -38 17 -28 23
11 10 60 -4 82 -31 50z"/>
<path d="M174 615 c1 -70 4 -85 17 -85 20 0 59 41 59 62 0 9 6 19 13 22 8 3 7
8 -5 16 -10 6 -18 17 -18 25 0 15 -37 45 -55 45 -7 0 -11 -30 -11 -85z m66 -7
c0 -5 -4 -8 -10 -8 -5 0 -10 10 -10 23 0 18 2 19 10 7 5 -8 10 -18 10 -22z"/>
<path d="M79 678 c-6 -14 -5 -68 1 -68 10 0 20 26 20 51 0 15 -16 28 -21 17z"/>
<path d="M82 535 c0 -16 2 -22 5 -12 2 9 2 23 0 30 -3 6 -5 -1 -5 -18z"/>
<path d="M146 271 c-4 -5 -2 -12 3 -15 5 -4 12 -2 15 3 4 5 2 12 -3 15 -5 4
-12 2 -15 -3z"/>
<path d="M250 259 c0 -5 5 -7 10 -4 6 3 10 8 10 11 0 2 -4 4 -10 4 -5 0 -10
-5 -10 -11z"/>
<path d="M0 140 c0 -16 8 -19 57 -22 57 -3 57 -3 54 -60 -2 -52 0 -58 17 -58
22 0 30 25 31 92 0 32 -4 40 -29 53 -16 8 -52 15 -80 15 -43 0 -50 -3 -50 -20z"/>
<path d="M1870 150 c0 -13 18 -22 24 -11 3 5 -1 11 -9 15 -8 3 -15 1 -15 -4z"/>
<path d="M655 80 c-3 -5 1 -10 9 -10 9 0 16 5 16 10 0 6 -4 10 -9 10 -6 0 -13
-4 -16 -10z"/>
<path d="M700 80 c-15 -10 -14 -10 80 -15 19 -1 44 2 55 6 14 5 5 8 -30 9 -27
1 -59 3 -70 5 -11 2 -27 0 -35 -5z"/>
<path d="M212 69 c16 -11 65 -12 71 -1 3 4 -15 7 -40 8 -27 1 -39 -2 -31 -7z"/>
<path d="M865 70 c3 -5 12 -7 20 -3 21 7 19 13 -6 13 -11 0 -18 -4 -14 -10z"/>
<path d="M916 68 c3 -5 10 -6 15 -3 13 9 11 12 -6 12 -8 0 -12 -4 -9 -9z"/>
<path d="M958 73 c7 -3 16 -2 19 1 4 3 -2 6 -13 5 -11 0 -14 -3 -6 -6z"/>
<path d="M305 60 c4 -6 11 -8 16 -5 14 9 11 15 -7 15 -8 0 -12 -5 -9 -10z"/>
</g>
</svg>
