<?xml version="1.0" standalone="no"?>
<!DOCTYPE svg PUBLIC "-//W3C//DTD SVG 20010904//EN"
 "http://www.w3.org/TR/2001/REC-SVG-20010904/DTD/svg10.dtd">
<svg version="1.0" xmlns="http://www.w3.org/2000/svg"
 width="116.000000pt" height="135.000000pt" viewBox="0 0 116.000000 135.000000"
 preserveAspectRatio="xMidYMid meet">
<metadata>
Created by potrace 1.16, written by Peter Selinger 2001-2019
</metadata>
<g transform="translate(0.000000,135.000000) scale(0.100000,-0.100000)"
fill="#000000" stroke="none">
<path d="M113 1338 c1 -9 -16 -14 -55 -16 -50 -3 -58 -6 -58 -22 0 -17 7 -20
45 -20 25 0 45 -4 45 -10 0 -25 27 -6 43 30 21 50 21 50 -3 50 -11 0 -19 -6
-17 -12z"/>
<path d="M890 1335 c0 -8 10 -23 22 -35 19 -18 35 -20 135 -20 106 0 113 1
113 20 0 18 -8 20 -117 22 -88 2 -117 6 -115 16 1 6 -7 12 -18 12 -11 0 -20
-7 -20 -15z"/>
<path d="M860 1219 c0 -19 -5 -40 -12 -47 -9 -9 -9 -15 0 -24 6 -6 15 -9 18
-5 9 8 9 95 1 104 -4 3 -7 -9 -7 -28z"/>
<path d="M770 1220 c-14 -4 -37 -11 -52 -14 -24 -5 -28 -11 -28 -40 0 -28 5
-35 25 -40 40 -10 72 3 85 35 7 15 18 34 26 40 32 27 0 38 -56 19z m0 -41 c0
-5 -4 -8 -9 -5 -5 3 -12 -2 -15 -11 -5 -13 -9 -14 -19 -4 -9 9 -9 14 3 21 20
13 40 12 40 -1z"/>
<path d="M407 1091 c-44 -4 -71 -11 -77 -21 -6 -9 -10 -165 -9 -393 1 -317 3
-380 16 -392 11 -12 43 -15 138 -15 105 0 124 2 129 17 10 26 -4 32 -79 34
-96 3 -121 13 -129 51 -3 17 -6 166 -6 332 0 222 3 305 12 314 7 7 35 12 63
12 109 0 162 26 119 57 -18 13 -59 14 -177 4z"/>
<path d="M21 1074 c0 -11 3 -14 6 -6 3 7 2 16 -1 19 -3 4 -6 -2 -5 -13z"/>
<path d="M682 1081 c-10 -6 -11 -13 -4 -27 6 -11 13 -27 16 -36 8 -26 31 -22
51 8 16 24 16 27 -1 45 -18 20 -41 24 -62 10z"/>
<path d="M21 1024 c0 -11 3 -14 6 -6 3 7 2 16 -1 19 -3 4 -6 -2 -5 -13z"/>
<path d="M760 1000 c-13 -8 -13 -13 2 -37 21 -35 44 -41 53 -13 4 14 1 28 -11
41 -19 22 -23 22 -44 9z"/>
<path d="M956 952 c-2 -4 13 -6 35 -4 21 2 39 6 39 8 0 7 -69 4 -74 -4z"/>
<path d="M1048 953 c7 -3 16 -2 19 1 4 3 -2 6 -13 5 -11 0 -14 -3 -6 -6z"/>
<path d="M703 859 c-24 -12 -43 -28 -43 -37 0 -8 -7 -23 -15 -31 -16 -19 -34
-120 -27 -156 2 -13 13 -32 23 -41 10 -9 19 -26 19 -36 0 -23 70 -57 115 -58
47 0 102 19 132 45 28 23 28 23 28 160 -1 131 -2 138 -24 156 -34 28 -151 27
-208 -2z m144 -51 c26 -21 51 -75 57 -126 7 -52 7 -52 -41 -97 -26 -25 -56
-45 -66 -45 -11 0 -36 17 -57 38 -29 29 -40 49 -45 85 -10 63 0 94 40 134 30
30 39 34 67 28 18 -4 39 -12 45 -17z"/>
<path d="M800 751 c0 -12 5 -21 10 -21 6 0 10 6 10 14 0 8 -4 18 -10 21 -5 3
-10 -3 -10 -14z"/>
<path d="M989 834 c-10 -13 -10 -20 4 -44 21 -35 22 -103 2 -120 -17 -14 -20
-41 -6 -55 4 -6 13 -24 19 -41 8 -26 7 -35 -6 -48 -15 -15 -11 -16 55 -16 40
0 75 5 78 10 4 6 -5 20 -19 31 -24 19 -26 26 -26 105 0 97 10 124 45 124 22 0
25 4 25 35 0 36 -8 43 -28 23 -9 -9 -18 -9 -37 0 -37 17 -90 15 -106 -4z"/>
<path d="M14 635 c0 -66 1 -92 3 -57 2 34 2 88 0 120 -2 31 -3 3 -3 -63z"/>
<path d="M460 395 c-17 -21 -9 -27 31 -23 31 3 32 4 15 21 -21 21 -30 21 -46
2z"/>
<path d="M945 289 c-4 -6 -5 -12 -2 -15 2 -3 7 2 10 11 7 17 1 20 -8 4z"/>
<path d="M111 271 c-14 -4 -26 -12 -28 -18 -9 -25 84 -82 109 -67 12 8 10 68
-4 82 -13 13 -39 14 -77 3z m54 -32 c10 -15 -1 -23 -20 -15 -9 3 -13 10 -10
16 8 13 22 13 30 -1z"/>
<path d="M7 263 c-2 -4 -1 -17 3 -27 6 -19 7 -19 14 -1 7 19 -8 44 -17 28z"/>
<path d="M740 225 c-22 -26 -8 -50 30 -51 48 0 60 5 60 27 0 33 -68 51 -90 24z"/>
<path d="M848 228 c-3 -7 -1 -24 3 -38 4 -14 7 -23 8 -20 1 3 5 20 10 38 7 24
7 32 -4 32 -7 0 -15 -6 -17 -12z"/>
<path d="M1016 198 c-21 -30 -20 -61 2 -89 19 -22 19 -22 47 9 21 24 37 32 62
32 30 0 33 3 33 29 0 26 -3 29 -46 35 -71 9 -82 8 -98 -16z"/>
<path d="M533 167 c-11 -17 13 -26 81 -28 47 -2 71 1 74 9 2 7 -2 14 -10 16
-28 10 -139 12 -145 3z"/>
<path d="M842 123 c4 -36 33 -39 33 -3 0 16 -6 26 -18 28 -15 3 -18 -2 -15
-25z"/>
<path d="M1100 72 c0 -18 17 -23 42 -13 16 7 18 10 6 10 -9 1 -23 4 -32 7 -9
3 -16 1 -16 -4z"/>
<path d="M788 33 c7 -3 16 -2 19 1 4 3 -2 6 -13 5 -11 0 -14 -3 -6 -6z"/>
<path d="M508 23 c-43 -11 -11 -23 62 -23 75 0 101 10 64 24 -17 7 -99 6 -126
-1z"/>
<path d="M80 10 c0 -5 25 -10 55 -10 30 0 55 5 55 10 0 6 -25 10 -55 10 -30 0
-55 -4 -55 -10z"/>
<path d="M280 10 c0 -5 23 -10 50 -10 28 0 50 5 50 10 0 6 -22 10 -50 10 -27
0 -50 -4 -50 -10z"/>
<path d="M430 10 c0 -5 5 -10 10 -10 6 0 10 5 10 10 0 6 -4 10 -10 10 -5 0
-10 -4 -10 -10z"/>
</g>
</svg>
