<?xml version="1.0" encoding="UTF-8" standalone="no"?>
<svg
   version="1.0"
   width="158.000000pt"
   height="160.000000pt"
   viewBox="0 0 158.000000 160.000000"
   preserveAspectRatio="xMidYMid meet"
   id="svg38"
   sodipodi:docname="long_s.svg"
   inkscape:version="1.4 (e7c3feb1, 2024-10-09)"
   xmlns:inkscape="http://www.inkscape.org/namespaces/inkscape"
   xmlns:sodipodi="http://sodipodi.sourceforge.net/DTD/sodipodi-0.dtd"
   xmlns="http://www.w3.org/2000/svg"
   xmlns:svg="http://www.w3.org/2000/svg">
  <defs
     id="defs38" />
  <sodipodi:namedview
     id="namedview38"
     pagecolor="#ffffff"
     bordercolor="#000000"
     borderopacity="0.25"
     inkscape:showpageshadow="2"
     inkscape:pageopacity="0.0"
     inkscape:pagecheckerboard="0"
     inkscape:deskcolor="#d1d1d1"
     inkscape:document-units="pt"
     inkscape:zoom="2.7577164"
     inkscape:cx="41.701169"
     inkscape:cy="77.056508"
     inkscape:current-layer="svg38" />
  <metadata
     id="metadata1">
Created by potrace 1.16, written by Peter Selinger 2001-2019
</metadata>
  <path
     d="M 91.3,15.4 C 78.048351,19.57492 68.952939,33.38612 63.696229,46.260626 57.815326,61.961621 53.929939,78.327211 49.728696,94.53678 c -2.288638,8.37891 -3.157988,17.22276 -6.667319,25.21876 -2.50169,5.4968 -8.19248,3.437 -12.373877,1.52024 -5.458342,-1.58077 -8.875114,6.35237 -4.716479,9.77429 3.792652,4.22154 9.416109,5.45149 15.03312,2.53117 C 58.521951,125.4599 59.443333,96.319485 64.133521,78.793921 68.689228,62.149847 72.951839,44.768588 83.28125,30.601562 86.613739,25.91968 93.162078,21.995597 98.775,25.0125 c 3.67044,2.370432 4.74531,12.911382 10.15586,8.155078 4.3984,-3.24193 4.09887,-12.479177 2.73164,-14.967578 -1.36723,-2.488401 -7.11085,-6.97492 -20.3625,-2.8 z"
     id="path6"
     style="fill:#000000;stroke:none;stroke-width:0.1"
     sodipodi:nodetypes="zccccczcccczz" />
</svg>
