<?xml version="1.0" encoding="UTF-8" standalone="no"?>
<svg
   version="1.0"
   width="114pt"
   height="114pt"
   viewBox="0 0 114 114"
   preserveAspectRatio="xMidYMid"
   id="svg11"
   xmlns="http://www.w3.org/2000/svg"
   xmlns:svg="http://www.w3.org/2000/svg">
  <defs
     id="defs11" />
  <metadata
     id="metadata1">
Created by potrace 1.16, written by Peter Selinger 2001-2019
</metadata>
  <path
     d="m 45.4,15 c -11.5,5.5 -23.5,21.9 -26.6,36.3 -1.5,7 -0.6,20.3 1.6,24.7 4.1,7.8 8.3,11.7 15.1,14 14.354448,3.707833 23.157547,-0.790033 27.93288,-0.924222 C 68.208213,88.941589 68.3,88.5 71.3,82.8 c 1.6,-3.2 3,-7.4 3.1,-9.5 C 74.5,70 74.2,69.5 72,69.2 70,69 68.6,70.1 65.2,74.4 56.2,85.7 44.8,86.7 35.6,77.1 31.5,72.8 30.1,61.7 32.3,52.3 36.1,36.7 45.5,23.5 56.2,18.5 67.9,13 78,17.4 78,27.8 c 0,4.5 1.9,6.4 4.4,4.3 0.7,-0.6 3,-4.6 5,-8.8 4.7,-9.7 4.2,-11.6 -3,-11.9 C 81.425962,12.396154 75,11 69.5,10.7 57.073499,9.7962545 53.564573,11.267624 45.4,15 Z"
     id="path1"
     style="fill:#000000;stroke:none;stroke-width:0.1" />
</svg>
