<?xml version="1.0" standalone="no"?>
<!DOCTYPE svg PUBLIC "-//W3C//DTD SVG 20010904//EN"
 "http://www.w3.org/TR/2001/REC-SVG-20010904/DTD/svg10.dtd">
<svg version="1.0" xmlns="http://www.w3.org/2000/svg"
 width="114.000000pt" height="114.000000pt" viewBox="0 0 114.000000 114.000000"
 preserveAspectRatio="xMidYMid meet">
<metadata>
Created by potrace 1.16, written by Peter Selinger 2001-2019
</metadata>
<g transform="translate(0.000000,114.000000) scale(0.100000,-0.100000)"
fill="#000000" stroke="none">
<path d="M556 1030 c-21 -6 -67 -24 -102 -40 -115 -55 -235 -219 -266 -363
-15 -70 -6 -203 16 -247 41 -78 83 -117 151 -140 60 -20 72 -21 143 -10 42 7
101 15 131 19 54 6 54 6 84 63 16 32 30 74 31 95 1 33 -2 38 -24 41 -20 2 -34
-9 -68 -52 -90 -113 -204 -123 -296 -27 -41 43 -55 154 -33 248 38 156 132
288 239 338 117 55 218 11 218 -93 0 -45 19 -64 44 -43 7 6 30 46 50 88 47 97
42 116 -30 119 -27 1 -94 4 -149 7 -55 4 -117 2 -139 -3z"/>
<path d="M980 1005 c0 -14 16 -19 50 -16 13 2 13 1 0 -9 -11 -9 -12 -13 -2
-17 6 -2 12 -11 12 -19 0 -9 -4 -13 -8 -10 -15 9 -35 -12 -29 -29 4 -10 15
-15 29 -13 20 3 23 9 23 53 0 54 -14 74 -52 75 -14 0 -23 -6 -23 -15z"/>
<path d="M996 741 c-4 -6 -15 -11 -25 -11 -10 0 -31 -18 -46 -40 -15 -22 -30
-40 -34 -40 -3 0 -6 -22 -7 -48 0 -33 -7 -59 -22 -79 -12 -17 -22 -43 -22 -57
0 -14 -4 -26 -9 -26 -5 0 -9 -35 -10 -78 -1 -75 0 -79 24 -90 40 -18 53 -15
70 18 14 28 14 31 -5 50 -22 22 -27 79 -9 97 6 6 15 30 20 53 10 43 41 122 60
150 5 8 12 22 15 31 14 41 84 40 84 -1 0 -24 11 -31 38 -23 17 4 22 13 22 38
0 36 -15 54 -45 54 -11 1 -36 3 -56 7 -22 4 -39 2 -43 -5z"/>
<path d="M1120 601 c0 -11 5 -23 10 -26 6 -4 10 5 10 19 0 14 -4 26 -10 26 -5
0 -10 -9 -10 -19z"/>
<path d="M1090 549 c0 -4 5 -11 10 -14 6 -3 10 -15 10 -26 0 -10 -4 -19 -10
-19 -5 0 -10 7 -10 15 0 8 -4 15 -10 15 -5 0 -10 -11 -10 -25 0 -15 -6 -25
-14 -25 -13 0 -31 -27 -27 -43 0 -4 -15 -17 -34 -28 -19 -12 -35 -25 -35 -30
0 -13 14 -11 36 6 10 8 33 15 50 15 26 0 31 4 30 22 -1 30 18 33 32 6 10 -22
11 -21 11 10 1 17 6 32 11 32 14 0 12 27 -2 33 -10 4 -10 7 0 18 19 20 14 36
-13 41 -14 3 -25 2 -25 -3z"/>
<path d="M981 330 c-28 -29 -48 -56 -45 -61 9 -16 39 -10 52 11 7 11 18 20 25
20 8 0 19 12 25 26 9 19 17 24 32 19 11 -4 20 -2 20 4 0 6 -8 11 -18 11 -10 0
-23 5 -29 11 -8 8 -25 -3 -62 -41z"/>
<path d="M1100 316 c-5 -13 -14 -27 -19 -31 -6 -3 -11 -13 -11 -21 0 -11 9
-14 33 -12 30 3 32 6 35 46 2 33 0 42 -13 42 -8 0 -20 -11 -25 -24z"/>
<path d="M966 53 c-11 -11 -6 -23 9 -23 8 0 15 4 15 9 0 13 -16 22 -24 14z"/>
<path d="M1031 51 c-12 -8 -12 -14 -4 -33 10 -19 12 -20 12 -5 1 13 7 17 24
15 14 -2 22 2 22 12 0 18 -34 24 -54 11z"/>
<path d="M1110 20 c0 -5 7 -10 15 -10 8 0 15 5 15 10 0 6 -7 10 -15 10 -8 0
-15 -4 -15 -10z"/>
<path d="M965 10 c3 -5 8 -10 11 -10 2 0 4 5 4 10 0 6 -5 10 -11 10 -5 0 -7
-4 -4 -10z"/>
</g>
</svg>
