<?xml version="1.0" standalone="no"?>
<!DOCTYPE svg PUBLIC "-//W3C//DTD SVG 20010904//EN"
 "http://www.w3.org/TR/2001/REC-SVG-20010904/DTD/svg10.dtd">
<svg version="1.0" xmlns="http://www.w3.org/2000/svg"
 width="91.000000pt" height="101.000000pt" viewBox="0 0 91.000000 101.000000"
 preserveAspectRatio="xMidYMid meet">
<metadata>
Created by potrace 1.16, written by Peter Selinger 2001-2019
</metadata>
<g transform="translate(0.000000,101.000000) scale(0.100000,-0.100000)"
fill="#000000" stroke="none">
<path d="M77 983 c-7 -35 -6 -36 21 -17 27 19 29 44 3 44 -12 0 -20 -9 -24
-27z"/>
<path d="M757 998 c-7 -19 37 -103 53 -100 7 2 26 -2 42 -7 36 -13 58 -5 58
21 0 18 -5 20 -45 16 -39 -5 -45 -3 -45 13 0 10 -4 21 -10 24 -5 3 -10 15 -10
26 0 21 -35 27 -43 7z"/>
<path d="M575 980 c3 -5 8 -10 11 -10 2 0 4 5 4 10 0 6 -5 10 -11 10 -5 0 -7
-4 -4 -10z"/>
<path d="M0 944 c0 -12 6 -15 23 -10 12 3 27 6 32 6 6 0 3 5 -5 10 -23 15 -50
12 -50 -6z"/>
<path d="M634 925 c-10 -8 -29 -15 -42 -15 -34 0 -62 -18 -62 -39 0 -14 10
-20 48 -24 45 -6 49 -4 79 31 18 20 33 43 33 50 0 17 -32 15 -56 -3z"/>
<path d="M48 917 c-22 -17 -29 -102 -8 -102 8 0 20 10 26 23 6 13 21 30 33 38
31 22 28 54 -6 54 -16 0 -35 -6 -45 -13z"/>
<path d="M414 796 c-73 -32 -124 -111 -124 -192 0 -17 -9 -43 -20 -57 -25 -32
-25 -42 0 -67 17 -17 20 -33 20 -117 0 -85 -3 -100 -21 -119 -12 -12 -19 -27
-15 -32 9 -14 148 -23 163 -10 11 9 8 16 -18 37 -31 26 -31 26 -33 146 -1 66
1 162 4 213 8 105 29 142 82 142 58 0 65 -20 73 -213 8 -195 2 -252 -27 -284
-35 -38 -18 -53 61 -53 39 0 73 5 76 11 4 6 -3 21 -15 34 -22 24 -22 26 -19
289 2 145 1 267 -2 271 -14 14 -154 15 -185 1z"/>
<path d="M857 655 c3 -8 9 -12 14 -9 12 7 11 11 -5 17 -10 4 -13 1 -9 -8z"/>
<path d="M695 570 c-3 -5 -1 -10 4 -10 6 0 11 5 11 10 0 6 -2 10 -4 10 -3 0
-8 -4 -11 -10z"/>
<path d="M752 553 c-6 -2 -29 -29 -49 -60 -29 -44 -34 -57 -22 -64 23 -14 29
-11 40 21 12 33 21 35 68 19 34 -12 55 -47 45 -74 -7 -17 -63 -50 -71 -42 -13
13 -61 -17 -75 -47 -13 -26 -14 -40 -5 -74 13 -50 41 -59 106 -34 33 12 46 13
49 4 2 -7 19 -12 38 -12 32 0 34 2 34 33 0 18 -5 38 -10 43 -6 6 -13 58 -16
115 -6 126 -10 143 -30 163 -15 15 -74 21 -102 9z m62 -238 c15 -15 12 -38 -7
-62 -11 -15 -55 -17 -75 -4 -21 13 -10 54 18 68 33 17 45 16 64 -2z"/>
<path d="M0 525 c0 -18 7 -26 25 -31 14 -3 37 -20 51 -37 25 -30 26 -35 21
-116 -5 -63 -11 -89 -25 -105 -33 -35 -18 -46 64 -46 41 0 74 2 74 5 0 3 -10
19 -22 35 -15 21 -21 42 -20 77 1 26 -1 81 -4 122 -8 98 -29 121 -109 121 -52
0 -55 -1 -55 -25z"/>
<path d="M777 436 c-3 -8 1 -20 9 -26 11 -10 14 -9 14 8 0 25 -16 37 -23 18z"/>
<path d="M4 236 c-8 -22 3 -33 18 -18 9 9 9 15 0 24 -9 9 -13 7 -18 -6z"/>
<path d="M0 100 c0 -5 5 -10 11 -10 5 0 7 5 4 10 -8 13 -15 13 -15 0z"/>
<path d="M791 87 c-7 -9 -26 -17 -43 -19 -51 -5 -43 -23 9 -22 36 1 49 6 51
18 6 28 -3 39 -17 23z"/>
<path d="M854 55 c-16 -13 -17 -16 -4 -25 26 -17 60 -12 60 9 0 10 -7 22 -16
25 -20 8 -17 8 -40 -9z"/>
<path d="M1 14 c0 -11 3 -14 6 -6 3 7 2 16 -1 19 -3 4 -6 -2 -5 -13z"/>
<path d="M697 24 c-18 -18 -2 -24 59 -24 48 0 65 3 62 12 -5 14 -109 24 -121
12z"/>
<path d="M185 10 c-4 -6 11 -10 36 -10 48 0 49 4 2 13 -18 4 -35 2 -38 -3z"/>
</g>
</svg>
