<?xml version="1.0" encoding="UTF-8" standalone="no"?>
<svg
   version="1.0"
   width="100.000000pt"
   height="92.000000pt"
   viewBox="0 0 100.000000 92.000000"
   preserveAspectRatio="xMidYMid meet"
   id="svg10"
   sodipodi:docname="s.svg"
   inkscape:version="1.4 (e7c3feb1, 2024-10-09)"
   xmlns:inkscape="http://www.inkscape.org/namespaces/inkscape"
   xmlns:sodipodi="http://sodipodi.sourceforge.net/DTD/sodipodi-0.dtd"
   xmlns="http://www.w3.org/2000/svg"
   xmlns:svg="http://www.w3.org/2000/svg">
  <defs
     id="defs10" />
  <sodipodi:namedview
     id="namedview10"
     pagecolor="#ffffff"
     bordercolor="#000000"
     borderopacity="0.25"
     inkscape:showpageshadow="2"
     inkscape:pageopacity="0.0"
     inkscape:pagecheckerboard="0"
     inkscape:deskcolor="#d1d1d1"
     inkscape:document-units="pt"
     inkscape:zoom="3.3913043"
     inkscape:cx="33.615385"
     inkscape:cy="37.891026"
     inkscape:current-layer="svg10" />
  <metadata
     id="metadata1">
Created by potrace 1.16, written by Peter Selinger 2001-2019
</metadata>
  <path
     d="m 61.9,19.3 c -4.729073,3.421904 -7.566825,9.012486 -8.658805,14.652682 -1.155627,6.530376 3.146463,10.581806 3.655094,22.007474 0.401883,2.180278 -1.112899,4.810832 -3.388721,5.003296 -2.710189,-0.972961 -5.136462,-3.28038 -8.226751,-2.869925 -2.71832,0.372614 -3.404224,3.5758 -3.277335,5.871117 -0.125759,3.395279 2.58963,6.363329 5.897682,6.835346 6.257506,1.038415 12.698621,-2.032978 16.731431,-6.750481 3.117141,-3.741179 5.002759,-8.899821 3.520847,-13.722727 C 66.962812,45.94353 64.633548,41.972138 63.433182,37.586441 62.968968,35.273552 61.503967,32.743433 62.310474,30.416699 64.079102,28.870937 66.711736,29.425329 68.8,29.9 c 1.804129,0.720201 4.315816,0.698595 5.295313,-1.294531 1.464463,-3.038404 0.892515,-6.782713 -0.623414,-9.687793 -2.044521,-2.691552 -6.04002,-2.247395 -8.819824,-1.107422 C 63.683618,18.203794 62.761195,18.708039 61.9,19.3 Z"
     id="path3"
     style="fill:#000000;stroke:none;stroke-width:0.1"
     sodipodi:nodetypes="cccccccccccccccc" />
</svg>
