<?xml version="1.0" encoding="UTF-8" standalone="no"?>
<svg
   version="1.0"
   width="92.000000pt"
   height="82.000000pt"
   viewBox="0 0 92.000000 82.000000"
   preserveAspectRatio="xMidYMid meet"
   id="svg4"
   sodipodi:docname="z.svg"
   inkscape:version="1.4 (e7c3feb1, 2024-10-09)"
   xmlns:inkscape="http://www.inkscape.org/namespaces/inkscape"
   xmlns:sodipodi="http://sodipodi.sourceforge.net/DTD/sodipodi-0.dtd"
   xmlns="http://www.w3.org/2000/svg"
   xmlns:svg="http://www.w3.org/2000/svg">
  <defs
     id="defs4" />
  <sodipodi:namedview
     id="namedview4"
     pagecolor="#ffffff"
     bordercolor="#000000"
     borderopacity="0.25"
     inkscape:showpageshadow="2"
     inkscape:pageopacity="0.0"
     inkscape:pagecheckerboard="0"
     inkscape:deskcolor="#d1d1d1"
     inkscape:document-units="pt"
     inkscape:zoom="3.804878"
     inkscape:cx="70.435898"
     inkscape:cy="55.060898"
     inkscape:current-layer="svg4" />
  <metadata
     id="metadata1">
Created by potrace 1.16, written by Peter Selinger 2001-2019
</metadata>
  <path
     d="m 32.2,19.5 c -4.8,2.2 -5.3,2.8 -5,5.2 0.3,3 1.4,3.2 8.6,1.7 4.4,-0.9 9.2,1.2 9.2,4 0,2.1 -8.1,10.1 -12,11.9 -4.4,2.1 -10.5,6.5 -12.3,9 -2,2.6 -2,2.7 -0.2,4.1 1.6,1.1 2.3,1.2 4,0.1 1.1,-0.7 2.9,-1.5 4,-1.6 6.618913,0.460481 12.832509,4.965715 18.4,8.6 8.6,5.8 21.1,5.5 27.9,-0.6 4.1,-3.7 6.7,-12.2 4.7,-15.4 -3.1,-4.9 -7.6,-2 -6.8,4.3 1,7.6 -6.1,8.6 -18,2.8 -4.349032,-2.729758 -13.207173,-3.804544 -14.7,-9.7 0,-1.9 7.1,-8 12,-10.3 1.9,-0.9 6.2,-3.5 9.5,-6 9.4,-6.8 8.5,-11.6 -1.5,-8 -4.9,1.8 -5.1,1.8 -9.5,-0.4 -5.9,-2.9 -11.7,-2.8 -18.3,0.3 z"
     id="path2"
     style="fill:#000000;stroke:none;stroke-width:0.1"
     sodipodi:nodetypes="cccsccccccccccsccccc" />
</svg>
