<?xml version="1.0" standalone="no"?>
<!DOCTYPE svg PUBLIC "-//W3C//DTD SVG 20010904//EN"
 "http://www.w3.org/TR/2001/REC-SVG-20010904/DTD/svg10.dtd">
<svg version="1.0" xmlns="http://www.w3.org/2000/svg"
 width="77.000000pt" height="102.000000pt" viewBox="0 0 77.000000 102.000000"
 preserveAspectRatio="xMidYMid meet">
<metadata>
Created by potrace 1.16, written by Peter Selinger 2001-2019
</metadata>
<g transform="translate(0.000000,102.000000) scale(0.100000,-0.100000)"
fill="#000000" stroke="none">
<path d="M102 993 c3 -28 3 -28 -49 -25 -48 4 -53 2 -53 -17 0 -17 7 -21 35
-22 19 -1 41 -2 48 -3 18 -2 57 48 57 73 0 14 -6 21 -20 21 -17 0 -20 -6 -18
-27z"/>
<path d="M664 989 c3 -33 28 -55 47 -43 8 5 6 10 -5 16 -11 6 -14 17 -10 34 5
20 2 24 -15 24 -17 0 -20 -5 -17 -31z"/>
<path d="M747 963 c-11 -10 -8 -28 8 -49 13 -18 14 -17 15 19 0 35 -8 46 -23
30z"/>
<path d="M162 892 c-36 -20 -102 -105 -102 -133 0 -23 -19 -69 -38 -91 -13
-16 -12 -20 11 -42 24 -22 27 -32 27 -94 0 -70 -10 -92 -42 -92 -23 0 -24 -27
0 -34 9 -2 41 -8 69 -11 45 -6 54 -4 60 10 4 11 0 21 -10 27 -14 7 -17 25 -17
84 0 72 1 75 21 69 14 -5 20 -3 18 7 -5 27 13 68 30 68 9 0 29 -7 45 -15 16
-9 36 -13 43 -11 26 10 12 31 -37 59 -28 16 -50 31 -50 33 0 3 16 24 35 47 35
41 43 61 26 71 -16 10 -36 -3 -55 -34 -25 -43 -52 -56 -66 -31 -5 11 -8 26 -5
33 9 22 70 58 98 58 29 0 34 9 15 28 -16 16 -37 15 -76 -6z"/>
<path d="M260 887 c0 -13 33 -67 41 -67 6 0 9 15 7 33 -2 24 -8 33 -25 35 -13
2 -23 2 -23 -1z"/>
<path d="M367 803 c-12 -12 -7 -21 38 -70 58 -62 90 -152 82 -226 -8 -64 -59
-150 -112 -189 -44 -32 -59 -53 -50 -68 19 -31 107 15 159 82 45 59 59 106 60
203 1 86 0 93 -36 157 -52 90 -113 139 -141 111z"/>
<path d="M750 651 c0 -6 5 -13 10 -16 6 -3 10 1 10 9 0 9 -4 16 -10 16 -5 0
-10 -4 -10 -9z"/>
<path d="M177 523 c-11 -11 -8 -58 5 -71 22 -22 41 -14 34 14 -6 23 -5 24 13
14 26 -13 38 -33 23 -38 -7 -2 -12 -14 -12 -26 0 -30 -18 -53 -60 -74 -19 -9
-36 -25 -38 -34 -9 -49 102 14 131 74 33 67 0 148 -61 148 -16 0 -32 -3 -35
-7z"/>
<path d="M740 175 c-5 -14 -17 -25 -25 -25 -27 0 -65 -31 -65 -54 0 -40 21
-96 35 -96 12 0 15 14 15 60 0 60 0 60 35 60 34 0 46 12 25 25 -14 9 -12 42 3
48 9 4 9 6 -1 6 -7 1 -17 -10 -22 -24z"/>
<path d="M345 180 c-6 -10 -3 -12 29 -14 29 -2 30 -23 2 -30 -27 -7 -62 -64
-48 -78 5 -5 21 -6 36 -2 30 7 44 33 51 95 5 39 5 39 -29 39 -19 0 -38 -4 -41
-10z"/>
<path d="M0 140 c0 -16 7 -20 33 -20 17 0 39 5 47 10 13 9 13 11 0 20 -8 5
-30 10 -47 10 -26 0 -33 -4 -33 -20z"/>
<path d="M108 123 c0 -21 0 -45 1 -53 1 -8 2 -27 1 -43 0 -22 4 -27 25 -27 20
0 25 5 25 24 0 13 -5 26 -12 28 -9 3 -9 12 0 38 10 28 10 36 -4 52 -25 27 -34
22 -36 -19z"/>
<path d="M457 53 c-2 -5 -1 -19 4 -33 4 -15 7 -18 8 -8 1 9 4 23 7 32 6 16
-11 23 -19 9z"/>
<path d="M507 53 c-2 -5 -1 -19 3 -33 6 -25 6 -25 12 3 5 26 -5 47 -15 30z"/>
<path d="M198 43 c18 -2 45 -2 60 0 15 2 0 4 -33 4 -33 0 -45 -2 -27 -4z"/>
</g>
</svg>
