<?xml version="1.0" standalone="no"?>
<!DOCTYPE svg PUBLIC "-//W3C//DTD SVG 20010904//EN"
 "http://www.w3.org/TR/2001/REC-SVG-20010904/DTD/svg10.dtd">
<svg version="1.0" xmlns="http://www.w3.org/2000/svg"
 width="112.000000pt" height="112.000000pt" viewBox="0 0 112.000000 112.000000"
 preserveAspectRatio="xMidYMid meet">
<metadata>
Created by potrace 1.16, written by Peter Selinger 2001-2019
</metadata>
<g transform="translate(0.000000,112.000000) scale(0.100000,-0.100000)"
fill="#000000" stroke="none">
<path d="M850 1116 c0 -2 7 -6 15 -10 8 -3 15 -1 15 4 0 6 -7 10 -15 10 -8 0
-15 -2 -15 -4z"/>
<path d="M910 1110 c0 -5 7 -10 15 -10 7 0 18 -8 23 -17 7 -12 27 -18 73 -21
35 -2 68 -8 74 -13 17 -16 25 -9 25 22 0 31 0 31 -77 28 -59 -3 -77 -1 -75 9
1 7 -9 12 -28 12 -16 0 -30 -4 -30 -10z"/>
<path d="M65 999 c-11 -17 -2 -18 25 -4 24 14 24 14 3 15 -12 0 -25 -5 -28
-11z"/>
<path d="M615 874 c-16 -8 -38 -24 -49 -35 -12 -14 -25 -19 -40 -14 -11 4 -41
9 -66 12 -81 9 -152 -61 -165 -162 -4 -39 -12 -59 -26 -68 -26 -16 -24 -42 3
-54 22 -10 23 -14 20 -114 -4 -96 -6 -106 -28 -124 -35 -29 -18 -42 60 -46 79
-4 90 5 57 47 -18 23 -21 41 -21 116 0 113 7 128 63 128 72 0 77 -10 70 -124
-5 -77 -10 -103 -25 -118 -38 -38 -24 -48 62 -48 87 0 103 13 55 44 -25 17
-26 19 -23 124 3 107 3 107 44 110 43 3 82 32 69 51 -3 6 -28 11 -55 11 -59 0
-64 10 -54 111 6 67 8 71 39 86 29 14 35 14 73 -6 53 -27 79 -27 87 0 21 65
-75 112 -150 73z m-131 -116 c19 -27 21 -119 4 -136 -7 -7 -34 -12 -60 -12
-41 0 -50 4 -57 21 -11 31 3 105 24 129 24 27 70 26 89 -2z"/>
<path d="M83 860 c-17 -7 -23 -18 -23 -39 0 -31 14 -41 60 -41 36 0 47 26 22
59 -22 30 -30 32 -59 21z"/>
<path d="M749 610 c-28 -29 -40 -53 -49 -96 -23 -109 -3 -178 64 -228 35 -27
119 -26 148 1 31 28 41 52 29 67 -9 11 -19 11 -55 -2 -36 -13 -48 -14 -74 -3
-35 15 -76 85 -70 123 3 22 6 23 106 21 102 -2 102 -2 102 49 0 41 -5 54 -29
79 -25 25 -37 29 -82 29 -48 0 -55 -3 -90 -40z m131 -15 c24 -29 8 -49 -48
-58 -30 -5 -56 -6 -59 -3 -10 10 18 53 41 64 30 15 52 14 66 -3z"/>
<path d="M92 633 c-34 -7 -46 -37 -27 -72 10 -21 15 -59 15 -124 0 -88 -1 -95
-26 -116 -26 -22 -26 -23 -8 -41 15 -14 30 -17 77 -13 67 6 81 22 48 57 -19
21 -21 33 -21 169 0 160 3 152 -58 140z"/>
<path d="M1004 605 c-4 -15 0 -39 10 -59 13 -28 15 -52 10 -123 -6 -75 -10
-91 -30 -111 -31 -29 -25 -38 28 -45 65 -9 98 1 98 28 0 13 -4 25 -9 27 -4 2
-11 50 -13 106 -4 81 -2 105 8 109 18 7 18 43 0 43 -8 0 -17 11 -20 25 -5 21
-12 25 -41 25 -29 0 -36 -4 -41 -25z"/>
<path d="M57 187 c-3 -7 -2 -19 3 -26 5 -9 9 -8 14 5 4 9 3 21 -2 26 -6 6 -12
4 -15 -5z"/>
<path d="M974 130 c-35 -14 -50 -44 -46 -89 3 -33 8 -41 24 -41 18 0 19 6 16
52 -3 53 -3 53 75 49 72 -3 77 -2 77 18 0 19 -6 21 -62 20 -35 0 -73 -4 -84
-9z"/>
<path d="M234 100 c-86 -4 -111 -7 -92 -14 16 -4 35 -5 44 -2 9 3 21 3 26 -1
6 -3 43 -5 82 -3 39 1 101 3 138 4 36 0 69 4 73 8 10 9 -133 14 -271 8z"/>
<path d="M543 94 c3 -3 21 -7 41 -8 20 -2 34 -1 31 3 -3 3 -22 6 -42 8 -19 1
-33 0 -30 -3z"/>
</g>
</svg>
