<?xml version="1.0" encoding="UTF-8" standalone="no"?>
<svg
   version="1.0"
   width="136.000000pt"
   height="120.000000pt"
   viewBox="0 0 136.000000 120.000000"
   preserveAspectRatio="xMidYMid meet"
   id="svg8"
   sodipodi:docname="T.svg"
   inkscape:version="1.4 (e7c3feb1, 2024-10-09)"
   xmlns:inkscape="http://www.inkscape.org/namespaces/inkscape"
   xmlns:sodipodi="http://sodipodi.sourceforge.net/DTD/sodipodi-0.dtd"
   xmlns="http://www.w3.org/2000/svg"
   xmlns:svg="http://www.w3.org/2000/svg">
  <defs
     id="defs8" />
  <sodipodi:namedview
     id="namedview8"
     pagecolor="#ffffff"
     bordercolor="#000000"
     borderopacity="0.25"
     inkscape:showpageshadow="2"
     inkscape:pageopacity="0.0"
     inkscape:pagecheckerboard="0"
     inkscape:deskcolor="#d1d1d1"
     inkscape:document-units="pt"
     inkscape:zoom="2.6"
     inkscape:cx="66.153846"
     inkscape:cy="76.346154"
     inkscape:current-layer="svg8" />
  <metadata
     id="metadata1">
Created by potrace 1.16, written by Peter Selinger 2001-2019
</metadata>
  <path
     d="m 105.9,17.4 c -2.87799,4.86046 -9.172543,3.984561 -13.983816,4.170604 -16.691321,0.844503 -50.432236,-9.187091 -63.696056,3.459115 -3.882321,3.587845 -5.336294,9.171126 -4.584941,14.218272 1.577887,4.0581 8.640352,5.702799 10.620293,1.137751 -0.367356,-3.966226 -3.744086,-9.912222 0.945689,-12.444116 7.936932,-2.544874 16.39575,-2.369211 24.598481,-1.487262 6.096584,1.762415 3.132907,9.336033 1.204601,13.307528 -6.461953,16.02348 -12.858197,32.073712 -19.124239,48.17491 -2.709861,4.065704 -9.427117,2.13794 -11.573751,6.716535 -0.713929,6.031963 6.190748,4.477186 11.287249,4.599813 C 46.69001,99.375777 58.148885,100.17511 60.8,98.4 63.451115,96.624894 54.681212,93.500572 57.673851,84.854088 60.66649,76.207604 65.635099,62.411096 68.724137,50.903081 71.06983,44.66954 73.753646,38.521694 76.039497,32.294836 81.16903,25.83269 100.86203,32.426349 114.09266,28.038835 119.04661,24.909675 118.74424,15.437673 112.49793,14.053599 109.92261,13.565843 106.77217,14.756385 105.9,17.4 Z"
     id="path3"
     style="fill:#000000;stroke:none;stroke-width:0.1"
     sodipodi:nodetypes="cccccccccczzzccccc" />
</svg>
