<?xml version="1.0" standalone="no"?>
<!DOCTYPE svg PUBLIC "-//W3C//DTD SVG 20010904//EN"
 "http://www.w3.org/TR/2001/REC-SVG-20010904/DTD/svg10.dtd">
<svg version="1.0" xmlns="http://www.w3.org/2000/svg"
 width="76.000000pt" height="114.000000pt" viewBox="0 0 76.000000 114.000000"
 preserveAspectRatio="xMidYMid meet">
<metadata>
Created by potrace 1.16, written by Peter Selinger 2001-2019
</metadata>
<g transform="translate(0.000000,114.000000) scale(0.100000,-0.100000)"
fill="#000000" stroke="none">
<path d="M0 1082 c0 -5 142 -9 326 -10 179 0 324 1 322 3 -8 9 -648 16 -648 7z"/>
<path d="M683 1083 c15 -2 39 -2 55 0 15 2 2 4 -28 4 -30 0 -43 -2 -27 -4z"/>
<path d="M18 1025 c-4 -4 -5 -12 -2 -18 3 -9 98 -12 352 -11 220 1 352 -2 360
-8 9 -8 12 -6 12 6 0 9 0 19 0 22 0 9 -714 17 -722 9z"/>
<path d="M7 904 c-4 -4 -7 -20 -7 -36 0 -22 5 -28 21 -28 17 0 20 5 17 32 -3
31 -17 45 -31 32z"/>
<path d="M358 881 c-156 -99 -151 -283 10 -352 24 -11 54 -19 67 -19 32 0 49
-23 36 -49 -14 -25 -160 -135 -222 -166 -59 -31 -76 -50 -59 -70 14 -17 42
-19 68 -6 9 6 48 24 86 41 206 94 312 235 322 433 4 68 2 82 -17 110 -72 105
-196 138 -291 78z m148 -57 c50 -24 78 -89 71 -165 -9 -106 -53 -144 -132
-113 -56 21 -69 39 -92 125 -16 64 -16 67 3 100 19 32 73 69 102 69 8 0 29 -7
48 -16z"/>
<path d="M27 515 c5 -28 2 -35 -11 -35 -13 0 -16 -7 -14 -27 5 -40 23 -38 45
4 23 46 23 54 1 76 -24 24 -27 21 -21 -18z"/>
<path d="M19 370 c-1 -14 -2 -39 -3 -57 -1 -17 -5 -35 -9 -39 -11 -12 -8 -24
7 -24 18 0 32 102 17 127 -9 16 -11 15 -12 -7z"/>
<path d="M29 127 c5 -5 21 -7 37 -5 27 3 26 4 -8 9 -22 3 -34 1 -29 -4z"/>
<path d="M720 130 c0 -5 5 -10 11 -10 5 0 7 5 4 10 -3 6 -8 10 -11 10 -2 0 -4
-4 -4 -10z"/>
<path d="M228 123 c6 -2 18 -2 25 0 6 3 1 5 -13 5 -14 0 -19 -2 -12 -5z"/>
<path d="M323 123 c9 -2 23 -2 30 0 6 3 -1 5 -18 5 -16 0 -22 -2 -12 -5z"/>
<path d="M398 123 c7 -3 16 -2 19 1 4 3 -2 6 -13 5 -11 0 -14 -3 -6 -6z"/>
<path d="M568 123 c17 -2 47 -2 65 0 17 2 3 4 -33 4 -36 0 -50 -2 -32 -4z"/>
</g>
</svg>
