<?xml version="1.0" encoding="UTF-8" standalone="no"?>
<svg
   version="1.0"
   width="168.000000pt"
   height="170.000000pt"
   viewBox="0 0 168.000000 170.000000"
   preserveAspectRatio="xMidYMid meet"
   id="svg39"
   sodipodi:docname="f_f.svg"
   inkscape:version="1.4 (e7c3feb1, 2024-10-09)"
   xmlns:inkscape="http://www.inkscape.org/namespaces/inkscape"
   xmlns:sodipodi="http://sodipodi.sourceforge.net/DTD/sodipodi-0.dtd"
   xmlns="http://www.w3.org/2000/svg"
   xmlns:svg="http://www.w3.org/2000/svg">
  <defs
     id="defs39" />
  <sodipodi:namedview
     id="namedview39"
     pagecolor="#ffffff"
     bordercolor="#000000"
     borderopacity="0.25"
     inkscape:showpageshadow="2"
     inkscape:pageopacity="0.0"
     inkscape:pagecheckerboard="0"
     inkscape:deskcolor="#d1d1d1"
     inkscape:document-units="pt"
     inkscape:zoom="2.5954978"
     inkscape:cx="59.333511"
     inkscape:cy="160.0849"
     inkscape:current-layer="svg39" />
  <metadata
     id="metadata1">
Created by potrace 1.16, written by Peter Selinger 2001-2019
</metadata>
  <path
     d="m 113.7,33 c -4.6,1.1 -6.5,1.1 -9.1,0.2 -7.1,-2.6 -17.7,-0.3 -23.2,4.9 -3,2.9 -7.7,11.9 -11,21.3 -2.2,6.1 -3.7,7.6 -7.9,7.6 -4.8,0 -6.3,2.9 -3.1,5.9 1.2,1.1 3,2.1 3.9,2.1 0.9,0 1.7,0.7 1.7,1.5 -3.444993,15.497269 -14.740698,62.54933 -22.599671,63 -7.858974,0.45067 -7.459424,-4.04333 -10.800329,-0.9 -2.1,2 -2,7.3 0,10.3 1.5,2.1 2.2,2.2 7.3,1.7 7.5,-0.9 17.1,-5.3 17.1,-7.9 0,-1.1 1.1,-5.4 2.4,-9.6 1.3,-4.2 2.9,-9.9 3.4,-12.6 0.6,-2.8 2.2,-8.4 3.7,-12.5 1.5,-4.1 3.5,-11.2 4.5,-15.7 1,-4.5 2.6,-9.9 3.6,-12 1.9,-3.8 1.9,-3.8 8.4,-3.4 3.6,0.2 6.8,0.5 7.3,0.8 0.607783,1.299542 -14.21806,63.48656 -21.24375,64.32163 -1.8,0 -6.85625,-0.12163 -8.15625,0.87837 -2.4,2 -2.4,2 -0.3,4.1 2.9,3 9.182692,3.39135 13.282692,1.19135 C 81.436148,143.28269 82.329235,132.9988 85.8,124.7 c 2.8,-6.3 3.7,-9.1 6.7,-20.7 4.291011,-11.646799 1.10746,-26.126715 16.5,-27 4.3,0 7.76757,-1.192178 8.05889,-3.069712 C 118.08053,67.345969 105,74.449998 105,64.4 105,59.896176 111.41176,38 123.7,38 c 2.7,0 3.5,0.6 4.9,3.2 2.5,5 4.5,6.8 7.4,6.8 1.8,0 3.3,-0.8 4.4,-2.5 2.88552,-4.168097 -3.79583,-11.218809 -8.43311,-13.466557 C 126.30341,29.546633 119.78728,31.61762 113.7,33 Z m -13.9,8.7 c 2,2.7 1.4,7.8 -1.9,16.6 C 93.7,69.3 93,70 86.1,70 c -8.6,0 -9.8,-1.6 -7,-9.5 2.7,-7.8 5.3,-12.5 9.5,-17.2 3.4,-3.7 4.3,-4.3 6.9,-3.8 1.7,0.3 3.6,1.3 4.3,2.2 z"
     id="path5"
     style="fill:#000000;stroke:none;stroke-width:0.1"
     sodipodi:nodetypes="ccccscsszcccsscssccsccccccsssscsczcccscccc" />
</svg>
