<?xml version="1.0" standalone="no"?>
<!DOCTYPE svg PUBLIC "-//W3C//DTD SVG 20010904//EN"
 "http://www.w3.org/TR/2001/REC-SVG-20010904/DTD/svg10.dtd">
<svg version="1.0" xmlns="http://www.w3.org/2000/svg"
 width="113.000000pt" height="103.000000pt" viewBox="0 0 113.000000 103.000000"
 preserveAspectRatio="xMidYMid meet">
<metadata>
Created by potrace 1.16, written by Peter Selinger 2001-2019
</metadata>
<g transform="translate(0.000000,103.000000) scale(0.100000,-0.100000)"
fill="#000000" stroke="none">
<path d="M20 1005 c0 -27 9 -32 28 -13 18 18 14 38 -8 38 -15 0 -20 -7 -20
-25z"/>
<path d="M1006 1015 c-6 -17 52 -60 97 -70 30 -8 32 -4 16 27 -8 15 -17 18
-35 14 -21 -6 -24 -3 -24 19 0 20 -5 25 -24 25 -13 0 -26 -7 -30 -15z"/>
<path d="M78 1003 c6 -2 18 -2 25 0 6 3 1 5 -13 5 -14 0 -19 -2 -12 -5z"/>
<path d="M820 950 c-24 -15 1 -44 42 -48 33 -3 88 27 88 49 0 12 -111 11 -130
-1z"/>
<path d="M652 871 c-7 -4 -12 -23 -10 -43 2 -31 -5 -43 -45 -84 -47 -48 -47
-48 -84 -30 -30 14 -41 15 -67 5 -57 -23 -87 -51 -110 -103 -33 -71 -38 -115
-26 -188 22 -123 63 -166 170 -179 83 -10 159 28 223 112 33 44 57 119 57 182
0 55 15 67 53 42 27 -17 65 -13 105 11 17 11 22 24 22 53 0 66 -46 79 -70 20
-7 -16 -15 -29 -19 -29 -3 0 -26 14 -51 31 -38 26 -52 30 -92 26 -59 -5 -106
-39 -136 -98 -23 -46 -31 -96 -18 -117 11 -18 54 -14 65 6 6 12 5 28 -5 51
-16 38 -18 67 -5 75 19 12 96 17 110 7 13 -8 13 -18 1 -68 -18 -79 -42 -124
-86 -163 -55 -48 -118 -73 -162 -65 -56 10 -72 23 -93 70 -18 41 -18 47 -4 81
11 26 12 41 5 48 -5 5 -10 23 -10 39 0 36 60 100 84 91 23 -9 20 -32 -8 -57
-26 -23 -44 -67 -28 -67 5 0 27 20 48 44 21 24 50 49 63 56 37 19 211 193 211
210 0 34 -54 53 -88 31z"/>
<path d="M1023 658 c-6 -13 -16 -36 -23 -53 -7 -16 -16 -38 -21 -47 -5 -10 -9
-32 -9 -49 0 -16 -5 -39 -11 -50 -8 -16 -7 -29 5 -54 18 -38 20 -40 59 -49 26
-6 27 -5 27 31 0 22 -9 48 -20 63 -25 31 -25 50 -1 97 25 50 36 133 17 133 -7
0 -17 -10 -23 -22z"/>
<path d="M1101 59 c-24 -26 -28 -59 -6 -59 10 0 15 10 15 29 0 16 6 31 13 34
6 2 9 7 6 11 -4 4 -16 -3 -28 -15z"/>
</g>
</svg>
