<?xml version="1.0" standalone="no"?>
<!DOCTYPE svg PUBLIC "-//W3C//DTD SVG 20010904//EN"
 "http://www.w3.org/TR/2001/REC-SVG-20010904/DTD/svg10.dtd">
<svg version="1.0" xmlns="http://www.w3.org/2000/svg"
 width="141.000000pt" height="125.000000pt" viewBox="0 0 141.000000 125.000000"
 preserveAspectRatio="xMidYMid meet">
<metadata>
Created by potrace 1.16, written by Peter Selinger 2001-2019
</metadata>
<g transform="translate(0.000000,125.000000) scale(0.100000,-0.100000)"
fill="#000000" stroke="none">
<path d="M1220 1228 c1 -13 7 -34 15 -48 8 -14 14 -43 15 -66 0 -57 25 -77
100 -82 57 -4 60 -3 60 18 0 21 -3 22 -60 18 -38 -3 -60 0 -61 6 0 6 0 34 1
62 1 43 -2 52 -18 56 -15 4 -19 12 -15 32 4 21 2 26 -16 26 -15 0 -21 -6 -21
-22z"/>
<path d="M1212 1003 c-7 -3 -20 -21 -28 -41 -16 -37 -16 -37 -26 -12 -8 22
-11 23 -21 9 -7 -9 -22 -21 -34 -28 -12 -6 -34 -35 -47 -63 -23 -47 -24 -56
-13 -95 7 -28 8 -47 2 -51 -6 -4 -11 -44 -11 -90 -1 -46 -6 -88 -12 -94 -7 -7
-5 -16 8 -30 10 -11 21 -33 24 -50 5 -27 9 -30 33 -24 28 6 28 6 6 -10 -31
-22 -28 -34 15 -67 20 -15 55 -41 76 -58 61 -46 71 -38 71 55 0 74 -6 98 -20
76 -11 -18 -25 -11 -25 13 0 13 -9 32 -20 42 -11 10 -20 24 -20 32 0 7 -4 13
-8 13 -13 0 -31 58 -25 80 3 12 -2 29 -13 41 -17 19 -17 21 0 37 12 12 33 17
74 17 57 0 57 0 57 40 0 40 0 40 -40 39 -28 0 -47 6 -63 21 -22 21 -22 21 4
59 15 21 29 34 33 30 3 -5 18 -10 32 -12 30 -4 39 15 39 86 0 43 -10 50 -48
35z m-125 -373 c9 -13 9 -21 2 -26 -13 -7 -15 -5 -23 24 -9 27 5 29 21 2z m24
-92 c8 -15 6 -18 -16 -18 -20 0 -25 5 -25 23 0 45 13 43 41 -5z"/>
<path d="M368 974 c-26 -13 -55 -36 -65 -50 -16 -25 -16 -28 15 -84 32 -58 32
-58 32 -226 0 -158 -1 -170 -22 -201 -13 -18 -26 -33 -30 -33 -17 0 -6 -40 14
-54 42 -30 258 -17 258 15 0 4 -20 28 -44 54 -42 44 -45 49 -52 122 -10 112 0
283 19 320 14 27 23 31 71 37 71 9 128 -7 159 -44 31 -37 40 -106 35 -279 -3
-123 -3 -123 -46 -161 -28 -25 -40 -43 -36 -53 7 -19 68 -30 165 -31 103 0
119 23 74 112 -24 47 -25 58 -25 222 0 190 -9 242 -49 291 -49 58 -159 75
-251 39 -67 -26 -100 -25 -129 5 -28 30 -34 30 -93 -1z"/>
<path d="M0 873 c1 -88 4 -123 15 -137 21 -28 21 -218 0 -236 -11 -9 -15 -34
-15 -95 0 -82 0 -82 80 -89 44 -3 87 -9 96 -13 15 -5 16 -2 10 28 -3 19 -16
41 -28 50 -14 11 -19 22 -14 34 3 10 1 24 -5 31 -8 9 -10 57 -7 151 5 145 11
175 33 167 11 -4 11 3 4 36 -21 92 -96 190 -146 190 -23 0 -23 -2 -23 -117z"/>
<path d="M181 676 c0 -41 -3 -87 -7 -101 -6 -22 -4 -26 11 -23 18 3 20 9 30
77 3 18 7 37 10 41 3 4 -2 10 -10 14 -8 3 -15 16 -15 30 0 14 -4 27 -9 31 -6
3 -10 -26 -10 -69z"/>
<path d="M1180 640 c0 -11 5 -20 10 -20 6 0 10 9 10 20 0 11 -4 20 -10 20 -5
0 -10 -9 -10 -20z"/>
<path d="M1300 535 c0 -16 16 -20 24 -6 3 5 -1 11 -9 15 -9 3 -15 0 -15 -9z"/>
<path d="M1030 340 c0 -14 51 -59 67 -60 6 0 13 -6 16 -12 2 -7 8 -10 12 -6
14 14 -5 38 -30 38 -17 0 -29 8 -37 25 -11 25 -28 34 -28 15z"/>
<path d="M1310 330 c0 -5 5 -10 11 -10 5 0 7 5 4 10 -3 6 -8 10 -11 10 -2 0
-4 -4 -4 -10z"/>
<path d="M0 166 c0 -8 7 -17 16 -20 12 -5 14 -14 9 -46 -7 -40 -7 -40 30 -40
35 0 36 -1 30 -30 -6 -26 -4 -30 15 -30 19 0 20 4 14 38 -8 46 -12 52 -30 52
-8 0 -14 10 -14 24 0 16 -11 32 -29 45 -34 25 -41 26 -41 7z"/>
<path d="M1170 57 c0 -12 -8 -17 -26 -17 -14 0 -23 -4 -19 -10 4 -6 63 -10
146 -10 117 0 139 2 139 15 0 12 -19 15 -108 15 -71 0 -112 4 -120 12 -9 9
-12 8 -12 -5z"/>
</g>
</svg>
