<?xml version="1.0" standalone="no"?>
<!DOCTYPE svg PUBLIC "-//W3C//DTD SVG 20010904//EN"
 "http://www.w3.org/TR/2001/REC-SVG-20010904/DTD/svg10.dtd">
<svg version="1.0" xmlns="http://www.w3.org/2000/svg"
 width="237.000000pt" height="203.000000pt" viewBox="0 0 237.000000 203.000000"
 preserveAspectRatio="xMidYMid meet">
<metadata>
Created by potrace 1.16, written by Peter Selinger 2001-2019
</metadata>
<g transform="translate(0.000000,203.000000) scale(0.100000,-0.100000)"
fill="#000000" stroke="none">
<path d="M250 1996 c0 -58 32 -57 43 2 6 29 4 32 -18 32 -22 0 -25 -4 -25 -34z"/>
<path d="M415 1984 c-23 -54 -59 -77 -105 -68 -17 4 -33 11 -36 15 -3 5 -9 9
-15 9 -9 0 -13 -93 -4 -102 9 -9 116 12 147 28 34 17 77 63 78 80 0 6 7 17 15
24 8 7 15 23 15 36 0 21 -5 24 -37 24 -35 0 -39 -3 -58 -46z"/>
<path d="M630 1996 c0 -40 34 -92 79 -123 25 -17 48 -23 87 -23 29 0 55 4 58
9 3 4 26 11 51 14 63 9 82 22 90 59 9 41 -14 62 -53 47 -15 -6 -29 -15 -33
-20 -3 -5 -28 -12 -55 -15 -60 -6 -94 10 -113 54 -14 30 -18 32 -63 32 -48 0
-48 0 -48 -34z"/>
<path d="M1080 2021 c0 -5 15 -35 33 -67 25 -45 43 -65 79 -83 43 -23 48 -24
89 -11 87 27 149 68 149 98 0 10 -12 13 -47 11 -113 -6 -143 -1 -175 31 -25
25 -37 30 -79 30 -27 0 -49 -4 -49 -9z"/>
<path d="M1515 1997 c-16 -30 -16 -36 -2 -63 20 -39 44 -58 93 -73 38 -12 44
-12 83 13 74 47 67 69 -33 121 -88 45 -117 46 -141 2z"/>
<path d="M1446 1875 c-3 -8 -1 -15 4 -15 13 0 22 18 11 24 -5 3 -11 -1 -15 -9z"/>
<path d="M254 1807 c-3 -10 -5 -46 -2 -80 4 -63 4 -63 -124 -59 -126 4 -128 4
-128 -17 0 -22 3 -22 108 -19 59 2 114 6 122 8 10 4 16 -3 18 -22 4 -31 18
-35 48 -14 19 14 19 15 -3 36 -27 24 -28 33 -9 49 19 16 14 97 -7 118 -15 15
-17 15 -23 0z"/>
<path d="M795 1690 c-11 -18 59 -47 98 -41 9 1 17 -3 17 -8 0 -6 11 -11 24
-11 14 0 28 -5 31 -10 4 -6 10 -8 15 -5 5 3 11 1 15 -4 7 -12 194 -10 213 2
24 16 11 22 -43 19 -33 -2 -55 0 -55 6 0 16 36 24 88 21 54 -4 95 8 89 24 -5
16 -141 9 -175 -9 -35 -18 -121 -18 -141 0 -18 15 -168 29 -176 16z"/>
<path d="M2230 1639 c0 -5 5 -7 10 -4 6 3 10 8 10 11 0 2 -4 4 -10 4 -5 0 -10
-5 -10 -11z"/>
<path d="M241 1414 c0 -11 3 -14 6 -6 3 7 2 16 -1 19 -3 4 -6 -2 -5 -13z"/>
<path d="M728 1329 c-44 -17 -35 -43 25 -74 28 -15 58 -32 65 -38 11 -8 12
-69 7 -311 -6 -326 -6 -326 -62 -326 -12 0 -38 -13 -56 -30 -19 -16 -40 -30
-46 -30 -6 0 -11 -10 -11 -22 0 -16 3 -19 11 -11 7 7 21 8 43 1 21 -7 73 -7
146 -2 92 7 115 12 124 27 11 19 9 22 -56 68 -23 16 -23 21 -24 205 0 104 -4
214 -8 244 -11 88 16 105 52 32 11 -20 31 -59 46 -87 36 -65 126 -313 140
-389 10 -48 16 -61 36 -68 31 -11 56 15 66 70 4 20 15 56 26 80 10 24 18 53
18 64 0 11 26 70 58 132 32 61 71 143 86 181 37 91 46 103 63 79 18 -24 8
-521 -10 -543 -7 -8 -27 -20 -44 -28 -24 -10 -33 -20 -33 -38 0 -20 6 -25 43
-30 23 -3 98 -5 167 -3 125 3 125 3 128 30 3 24 -2 30 -39 44 -66 27 -69 40
-70 368 0 157 2 290 6 296 4 6 24 18 45 26 36 15 68 62 53 78 -4 3 -55 6 -115
6 -107 0 -110 -1 -138 -28 -16 -16 -34 -48 -40 -71 -6 -23 -26 -70 -44 -104
-37 -68 -86 -190 -113 -281 -29 -96 -75 -103 -101 -15 -8 24 -16 51 -19 59 -3
8 -19 51 -35 95 -16 44 -46 125 -65 180 -45 127 -62 152 -111 159 -84 12 -189
15 -214 5z"/>
<path d="M650 1315 c-15 -18 -6 -45 15 -45 10 0 15 10 15 30 0 33 -11 38 -30
15z"/>
<path d="M1736 1311 c-8 -13 20 -45 33 -37 8 5 8 13 1 27 -11 20 -25 25 -34
10z"/>
<path d="M766 1200 c-3 -8 -6 -54 -8 -102 -3 -78 -1 -88 14 -88 16 0 18 11 18
88 0 84 -12 136 -24 102z"/>
<path d="M2323 1068 c-54 -75 -62 -90 -63 -118 0 -30 17 -50 42 -50 20 0 23
-41 18 -250 -1 -71 3 -103 15 -127 9 -18 21 -33 26 -33 5 0 9 128 9 315 0 173
-2 315 -4 315 -2 0 -21 -24 -43 -52z"/>
<path d="M1914 1025 c-10 -8 -27 -15 -36 -15 -10 0 -27 -21 -43 -57 -22 -48
-27 -72 -26 -136 0 -42 3 -82 6 -87 3 -5 -1 -20 -10 -33 -14 -22 -13 -27 10
-73 14 -27 43 -68 64 -91 40 -43 40 -43 148 -38 66 3 103 2 94 -4 -23 -15 -2
-31 42 -31 61 0 87 10 87 31 0 10 6 22 14 26 10 5 16 37 21 101 8 103 -1 118
-34 54 -17 -33 -17 -41 -5 -62 20 -37 18 -40 -25 -40 -37 0 -53 10 -101 67
-21 25 -21 170 0 183 8 5 18 10 21 10 5 0 4 -110 -1 -135 -4 -17 12 -55 22
-55 5 0 8 18 7 40 -2 22 2 45 9 52 17 17 15 37 -3 45 -13 4 -15 17 -10 72 8
93 -2 120 -60 159 -42 27 -59 32 -110 32 -38 0 -68 -6 -81 -15z m140 -108 c13
-37 -3 -47 -74 -44 -50 2 -55 4 -58 26 -5 35 23 53 78 49 39 -3 46 -7 54 -31z
m-214 -83 c0 -8 -4 -12 -10 -9 -5 3 -10 13 -10 21 0 8 5 12 10 9 6 -3 10 -13
10 -21z m214 -14 c19 -7 26 -17 26 -35 0 -25 -23 -35 -35 -15 -3 6 -19 10 -35
10 -16 0 -32 -4 -35 -10 -3 -5 -15 -10 -25 -10 -11 0 -27 -11 -36 -25 -13 -20
-20 -23 -34 -15 -35 19 -42 74 -12 97 20 15 149 17 186 3z m14 -100 c7 -12 10
-25 7 -30 -3 -5 -1 -18 5 -29 8 -16 5 -25 -13 -46 -21 -25 -27 -26 -71 -20
-57 9 -86 34 -86 73 0 56 129 98 158 52z m162 -185 c0 -20 -55 -56 -74 -49
-22 9 -12 20 24 27 22 5 30 12 30 27 0 12 5 18 10 15 6 -3 10 -12 10 -20z"/>
<path d="M0 981 c0 -18 9 -40 20 -51 25 -25 25 -35 0 -60 -44 -44 -10 -90 66
-90 40 0 87 44 74 68 -5 10 -11 30 -15 45 -8 40 -73 104 -112 112 -32 6 -33 5
-33 -24z"/>
<path d="M764 928 c3 -13 6 -27 6 -33 0 -5 5 -3 10 5 15 23 12 50 -6 50 -12 0
-15 -6 -10 -22z"/>
<path d="M278 903 c-8 -14 -2 -68 8 -66 13 3 17 54 6 65 -5 5 -12 6 -14 1z"/>
<path d="M2265 880 c-7 -12 2 -30 16 -30 12 0 12 27 0 35 -5 3 -12 1 -16 -5z"/>
<path d="M755 870 c-4 -6 -3 -16 3 -22 6 -6 12 -6 17 2 4 6 3 16 -3 22 -6 6
-12 6 -17 -2z"/>
<path d="M1770 788 c0 -13 5 -30 10 -38 7 -11 10 -7 10 17 0 17 -4 35 -10 38
-6 3 -10 -4 -10 -17z"/>
<path d="M754 774 c-4 -14 -2 -30 5 -37 13 -13 13 -12 15 31 3 38 -11 43 -20
6z"/>
<path d="M275 657 c-4 -9 -4 -29 0 -45 7 -27 7 -27 18 -4 7 15 7 29 0 45 -10
20 -12 20 -18 4z"/>
<path d="M750 655 c-7 -8 -11 -15 -9 -16 35 -7 39 -6 39 12 0 23 -13 25 -30 4z"/>
<path d="M74 582 c-12 -9 -34 -26 -48 -36 -20 -15 -26 -27 -26 -58 0 -30 4
-39 14 -35 7 3 34 8 59 12 31 5 48 13 52 25 3 9 14 25 25 35 11 10 20 31 20
47 0 26 -3 28 -37 28 -21 -1 -48 -8 -59 -18z"/>
<path d="M1830 515 c0 -20 44 -47 64 -39 16 6 14 10 -11 30 -32 27 -53 30 -53
9z"/>
<path d="M2269 298 c-17 -21 -35 -35 -39 -33 -5 3 -11 1 -15 -5 -3 -5 -2 -10
3 -10 13 0 21 -33 15 -64 -3 -15 -12 -26 -22 -26 -10 0 -5 -7 13 -18 28 -17
30 -21 27 -80 -2 -57 -1 -62 19 -62 21 0 21 3 19 147 -2 148 -2 148 40 145 35
-3 41 -1 41 16 0 15 -8 21 -35 24 -31 4 -39 -1 -66 -34z"/>
<path d="M43 172 c-35 -3 -43 -7 -43 -23 0 -18 8 -19 135 -19 135 0 135 0 135
-65 0 -50 3 -65 14 -65 10 0 16 14 18 42 3 39 6 43 33 49 30 5 30 5 -1 13 -22
5 -33 15 -42 39 -12 32 -12 32 -109 32 -54 0 -117 -1 -140 -3z"/>
<path d="M1000 112 c-63 -10 -34 -21 54 -20 53 1 93 5 89 9 -10 10 -107 17
-143 11z"/>
<path d="M725 100 c-3 -5 1 -10 10 -10 9 0 13 5 10 10 -3 6 -8 10 -10 10 -2 0
-7 -4 -10 -10z"/>
<path d="M790 100 c0 -7 24 -20 36 -20 13 0 1 19 -16 23 -11 3 -20 2 -20 -3z"/>
<path d="M398 93 c6 -2 18 -2 25 0 6 3 1 5 -13 5 -14 0 -19 -2 -12 -5z"/>
<path d="M475 90 c3 -5 14 -10 23 -10 15 0 15 2 2 10 -20 13 -33 13 -25 0z"/>
<path d="M616 88 c7 -12 54 -10 54 2 0 6 -13 9 -29 8 -16 -1 -27 -6 -25 -10z"/>
<path d="M878 93 c12 -2 30 -2 40 0 9 3 -1 5 -23 4 -22 0 -30 -2 -17 -4z"/>
<path d="M1188 93 c7 -3 16 -2 19 1 4 3 -2 6 -13 5 -11 0 -14 -3 -6 -6z"/>
<path d="M1688 93 c7 -3 16 -2 19 1 4 3 -2 6 -13 5 -11 0 -14 -3 -6 -6z"/>
</g>
</svg>
