<?xml version="1.0" standalone="no"?>
<!DOCTYPE svg PUBLIC "-//W3C//DTD SVG 20010904//EN"
 "http://www.w3.org/TR/2001/REC-SVG-20010904/DTD/svg10.dtd">
<svg version="1.0" xmlns="http://www.w3.org/2000/svg"
 width="121.000000pt" height="191.000000pt" viewBox="0 0 121.000000 191.000000"
 preserveAspectRatio="xMidYMid meet">
<metadata>
Created by potrace 1.16, written by Peter Selinger 2001-2019
</metadata>
<g transform="translate(0.000000,191.000000) scale(0.100000,-0.100000)"
fill="#000000" stroke="none">
<path d="M273 1889 c4 -16 0 -23 -14 -26 -18 -5 -20 -13 -18 -67 3 -61 3 -61
-119 -64 -114 -2 -122 -4 -122 -22 0 -18 7 -20 84 -20 47 0 87 -4 91 -9 3 -5
-3 -11 -12 -13 -12 -3 -9 -6 10 -10 23 -4 30 -1 37 17 5 14 21 26 39 30 27 6
31 11 32 43 1 20 2 42 4 47 1 6 3 18 3 28 1 9 10 17 20 17 13 0 14 2 4 9 -8 4
-13 14 -12 22 4 28 0 39 -16 39 -12 0 -15 -6 -11 -21z"/>
<path d="M921 1845 c2 -68 -2 -82 -21 -70 -8 5 -9 20 -5 42 6 34 6 34 -129 32
-75 0 -136 -5 -136 -10 0 -4 53 -10 118 -11 112 -3 117 -4 120 -25 2 -12 15
-29 28 -38 15 -10 23 -22 20 -31 -14 -36 55 -64 161 -64 49 0 53 -2 58 -27 15
-72 29 -104 43 -98 7 3 18 5 23 5 5 0 9 9 9 19 0 14 -5 18 -19 14 -18 -5 -20
1 -23 58 -3 64 -3 64 -100 64 -72 0 -98 3 -98 12 0 7 -4 13 -10 13 -6 0 -10
37 -10 90 0 75 -3 90 -16 90 -12 0 -15 -12 -13 -65z"/>
<path d="M444 1848 c-3 -5 -3 -12 0 -17 3 -5 -3 -35 -14 -67 -11 -33 -20 -66
-20 -75 0 -9 -6 -22 -14 -28 -12 -10 -12 -41 0 -80 7 -21 34 6 34 34 0 14 7
25 20 28 24 6 36 -9 31 -40 -3 -28 4 -29 31 -4 16 16 19 27 14 54 -5 26 -3 36
9 41 8 3 15 14 15 25 0 11 5 23 10 26 6 3 10 21 10 39 0 19 7 39 15 46 8 7 13
16 10 20 -6 10 -145 8 -151 -2z"/>
<path d="M944 1610 c-12 -4 -24 -15 -27 -24 -5 -13 0 -14 26 -9 29 6 31 5 18
-10 -21 -26 6 -21 36 7 14 13 22 29 19 35 -8 13 -42 13 -72 1z"/>
<path d="M1061 1613 c-23 -5 -23 -5 -2 -19 12 -9 21 -23 22 -32 0 -14 2 -13 9
3 11 25 12 55 3 54 -5 -1 -19 -4 -32 -6z"/>
<path d="M200 1555 c0 -53 14 -74 26 -37 4 9 12 31 20 49 19 42 18 43 -16 43
-30 0 -30 -1 -30 -55z"/>
<path d="M563 1576 c7 -15 16 -21 21 -16 6 6 4 15 -4 25 -19 23 -29 18 -17 -9z"/>
<path d="M370 1551 c0 -6 5 -13 10 -16 6 -3 10 1 10 9 0 9 -4 16 -10 16 -5 0
-10 -4 -10 -9z"/>
<path d="M422 1535 c2 -14 11 -20 28 -20 17 0 26 6 28 20 2 16 -3 20 -28 20
-25 0 -30 -4 -28 -20z"/>
<path d="M590 1550 c0 -5 5 -10 10 -10 6 0 10 5 10 10 0 6 -4 10 -10 10 -5 0
-10 -4 -10 -10z"/>
<path d="M913 1549 c-6 -6 -17 -12 -24 -13 -8 -2 -21 -6 -29 -9 -8 -3 -26 -7
-39 -9 -14 -2 -26 -9 -29 -17 -4 -11 3 -12 33 -7 51 10 79 24 93 47 14 21 12
25 -5 8z"/>
<path d="M619 1511 c6 -10 7 -21 4 -25 -3 -3 -1 -6 6 -6 8 0 11 7 7 18 -5 15
-4 14 9 -2 17 -22 119 -34 130 -16 4 7 1 10 -6 9 -21 -4 -89 12 -118 27 -35
19 -44 17 -32 -5z"/>
<path d="M1082 1490 c0 -14 2 -19 5 -12 2 6 2 18 0 25 -3 6 -5 1 -5 -13z"/>
<path d="M518 1482 c3 -10 14 -12 35 -8 16 3 36 6 43 6 8 0 14 3 14 8 0 4 -22
7 -49 7 -37 0 -47 -3 -43 -13z"/>
<path d="M573 1406 c-60 -27 -72 -94 -25 -139 35 -34 77 -35 123 -4 92 62 5
189 -98 143z"/>
<path d="M1000 1396 c-7 -9 -19 -16 -26 -16 -8 0 -14 -4 -14 -10 0 -5 -9 -10
-20 -10 -11 0 -20 -4 -20 -10 0 -5 -7 -10 -15 -10 -22 0 -18 -17 5 -23 13 -3
25 2 33 14 8 10 17 16 20 12 11 -10 8 -141 -3 -148 -14 -8 -13 -51 2 -74 8
-13 8 -39 2 -91 -9 -71 -10 -74 -41 -84 -44 -15 -66 -48 -58 -86 5 -23 3 -30
-9 -30 -9 0 -16 -3 -16 -7 -1 -5 -2 -31 -4 -59 -3 -57 5 -74 49 -95 39 -19 53
-68 54 -191 1 -97 1 -98 -23 -98 -13 0 -29 7 -36 15 -19 23 -36 18 -50 -14
-10 -25 -9 -33 7 -55 35 -47 67 -58 166 -58 88 0 92 1 111 29 11 15 38 45 58
65 36 35 38 39 38 102 0 53 -5 73 -27 110 -16 25 -34 46 -41 46 -7 0 -21 13
-30 29 -9 17 -25 32 -34 35 -16 3 -18 17 -18 94 0 73 3 92 18 105 17 16 20 15
40 -6 12 -13 22 -33 22 -46 0 -28 22 -51 49 -51 19 0 21 6 21 74 0 71 -1 75
-32 101 -21 18 -38 25 -53 21 -42 -11 -46 9 -44 226 1 203 1 203 -33 206 -22
2 -39 -3 -48 -12z"/>
<path d="M173 1355 c-12 -21 -4 -389 8 -393 12 -5 11 -59 -1 -67 -6 -4 -10
-83 -10 -204 0 -198 0 -198 25 -211 24 -13 34 -30 17 -30 -5 0 -18 -9 -29 -20
-18 -16 -21 -31 -22 -90 -1 -71 -1 -71 57 -69 43 2 61 8 74 23 16 20 17 20 36
3 17 -16 21 -16 32 -2 10 12 9 16 -4 21 -9 3 -16 10 -16 16 0 5 -7 16 -15 24
-8 9 -15 33 -15 55 0 29 -4 39 -16 39 -12 0 -15 -8 -13 -34 2 -19 0 -38 -4
-42 -4 -4 -7 -22 -7 -40 0 -43 -18 -53 -41 -23 -20 25 -20 49 1 125 10 35 9
48 -6 79 -13 29 -14 39 -5 45 9 5 10 9 2 14 -15 10 -14 79 1 94 9 9 9 12 0 12
-15 0 -16 82 -1 97 8 8 8 17 0 32 -7 12 -8 21 -3 21 11 0 8 204 -3 244 -5 18
-4 31 3 35 7 4 8 19 3 44 -5 21 -5 35 0 31 5 -3 9 7 9 23 0 22 -2 25 -10 13
-18 -28 -11 70 7 101 19 32 18 35 -19 44 -19 5 -29 2 -35 -10z"/>
<path d="M271 1355 c0 -12 23 -45 33 -45 3 0 6 7 6 15 0 8 -6 15 -14 15 -8 0
-17 6 -19 13 -3 6 -6 8 -6 2z"/>
<path d="M292 1255 c1 -24 5 -42 10 -39 11 7 10 84 -1 84 -5 0 -9 -20 -9 -45z"/>
<path d="M917 1274 c-12 -12 -8 -41 7 -53 8 -7 16 -8 19 -4 6 12 -18 65 -26
57z"/>
<path d="M290 1124 c0 -8 5 -12 10 -9 6 4 8 11 5 16 -9 14 -15 11 -15 -7z"/>
<path d="M1167 1123 c-2 -5 -1 -19 3 -33 6 -25 6 -25 12 3 5 26 -5 47 -15 30z"/>
<path d="M292 1080 c0 -14 2 -19 5 -12 2 6 2 18 0 25 -3 6 -5 1 -5 -13z"/>
<path d="M1155 1020 c-7 -12 12 -40 26 -40 5 0 9 11 9 25 0 25 -23 35 -35 15z"/>
<path d="M278 968 c-6 -92 -4 -123 7 -144 12 -24 12 -24 25 6 17 42 19 108 3
122 -7 6 -13 17 -13 24 0 24 -20 15 -22 -8z"/>
<path d="M537 966 c-78 -17 -97 -45 -56 -82 12 -10 31 -37 43 -59 19 -36 21
-54 20 -200 -1 -178 -11 -227 -52 -252 -41 -25 -72 -55 -72 -69 0 -24 255 -37
308 -15 25 11 32 19 32 42 0 19 -6 30 -20 34 -43 14 -52 55 -52 240 0 95 3
216 7 268 7 93 7 94 -16 100 -34 9 -75 7 -142 -7z"/>
<path d="M282 645 c0 -119 2 -136 16 -133 13 2 15 14 12 63 -1 33 -3 91 -4
129 -1 43 -5 71 -13 73 -8 3 -11 -32 -11 -132z"/>
<path d="M1162 705 c0 -16 2 -22 5 -12 2 9 2 23 0 30 -3 6 -5 -1 -5 -18z"/>
<path d="M416 655 c-3 -8 -12 -15 -21 -15 -19 0 -20 -24 0 -40 16 -13 47 -6
65 16 10 12 9 18 -5 34 -22 24 -31 25 -39 5z"/>
<path d="M866 557 c3 -10 9 -15 12 -12 3 3 0 11 -7 18 -10 9 -11 8 -5 -6z"/>
<path d="M281 474 c0 -11 3 -14 6 -6 3 7 2 16 -1 19 -3 4 -6 -2 -5 -13z"/>
<path d="M370 386 c0 -9 5 -16 10 -16 6 0 10 4 10 9 0 6 -4 13 -10 16 -5 3
-10 -1 -10 -9z"/>
<path d="M1077 196 c-3 -7 -1 -18 5 -24 7 -7 4 -16 -11 -28 -15 -13 -17 -20
-8 -26 26 -16 34 -7 34 42 0 48 -9 65 -20 36z"/>
<path d="M1165 170 c-3 -5 -1 -10 4 -10 6 0 11 5 11 10 0 6 -2 10 -4 10 -3 0
-8 -4 -11 -10z"/>
<path d="M1153 87 c-10 -21 -21 -25 -70 -30 -43 -4 -61 -1 -69 9 -15 18 -58 4
-85 -29 -24 -29 -24 -37 1 -37 11 0 19 6 17 12 -1 10 25 12 110 9 110 -3 111
-3 115 20 2 16 9 23 21 21 12 -2 17 4 17 19 0 14 -5 19 -14 16 -7 -3 -18 -1
-23 4 -6 6 -14 1 -20 -14z"/>
<path d="M52 92 c-44 -3 -52 -6 -52 -23 0 -18 8 -19 105 -19 89 0 105 -2 105
-16 0 -12 7 -14 30 -9 22 5 32 3 36 -9 3 -9 12 -16 20 -16 23 0 16 20 -12 30
-16 6 -24 16 -21 24 4 9 -4 16 -21 21 -49 12 -136 20 -190 17z"/>
</g>
</svg>
