<?xml version="1.0" standalone="no"?>
<!DOCTYPE svg PUBLIC "-//W3C//DTD SVG 20010904//EN"
 "http://www.w3.org/TR/2001/REC-SVG-20010904/DTD/svg10.dtd">
<svg version="1.0" xmlns="http://www.w3.org/2000/svg"
 width="200.000000pt" height="195.000000pt" viewBox="0 0 200.000000 195.000000"
 preserveAspectRatio="xMidYMid meet">
<metadata>
Created by potrace 1.16, written by Peter Selinger 2001-2019
</metadata>
<g transform="translate(0.000000,195.000000) scale(0.100000,-0.100000)"
fill="#000000" stroke="none">
<path d="M168 1858 c-3 -93 -3 -93 -50 -90 -48 4 -48 4 -48 -807 0 -714 2
-811 15 -811 12 0 15 -13 15 -59 0 -59 0 -59 33 -66 17 -4 35 -12 39 -18 4 -6
10 -8 14 -4 11 10 -14 58 -28 55 -9 -2 -14 13 -16 47 -2 28 -9 55 -17 61 -20
15 -28 389 -8 405 19 16 17 185 -2 219 -20 35 -20 228 0 295 9 27 13 56 10 64
-12 31 -24 566 -12 577 3 3 21 6 41 7 30 2 36 6 36 24 0 12 10 31 22 43 17 16
19 23 10 32 -7 7 -12 36 -12 65 0 46 -3 53 -20 53 -18 0 -20 -8 -22 -92z"/>
<path d="M790 1934 c0 -9 7 -14 17 -12 25 5 28 28 4 28 -12 0 -21 -6 -21 -16z"/>
<path d="M1210 1940 c-25 -8 -25 -8 0 -9 14 -1 35 -4 48 -7 16 -5 22 -2 22 10
0 17 -27 20 -70 6z"/>
<path d="M1930 1830 c0 -82 -4 -120 -11 -120 -8 0 -8 -4 1 -15 17 -21 19 -63
4 -76 -12 -10 -12 -14 2 -24 11 -8 15 -20 11 -34 -4 -18 -3 -20 9 -10 8 6 23
9 34 6 15 -4 20 0 20 13 0 11 -7 17 -17 16 -16 -1 -18 15 -21 182 -2 153 -5
182 -17 182 -12 0 -15 -21 -15 -120z"/>
<path d="M849 1927 c5 -5 72 -8 151 -8 79 0 146 3 151 8 4 4 -64 8 -151 8 -87
0 -155 -4 -151 -8z"/>
<path d="M1932 1503 c11 -3 20 -20 25 -51 8 -47 8 -47 13 -2 7 56 5 60 -28 59
-16 -1 -20 -3 -10 -6z"/>
<path d="M655 1423 c-152 -3 -171 -7 -185 -33 -15 -27 2 -57 37 -65 16 -3 38
-13 50 -23 23 -17 23 -18 25 -393 3 -412 5 -402 -57 -413 -39 -8 -55 -30 -55
-74 0 -28 2 -30 53 -36 60 -7 348 7 365 18 7 4 12 16 12 27 0 22 -35 39 -80
39 -15 0 -38 8 -50 18 -19 16 -23 30 -27 123 -3 58 -2 136 2 173 6 60 9 68 33
78 16 6 122 10 264 10 314 1 290 17 286 -197 -3 -105 -8 -168 -16 -177 -6 -8
-34 -20 -62 -28 -28 -8 -53 -17 -56 -22 -6 -9 14 -50 29 -59 13 -9 345 -4 380
6 31 8 31 28 1 34 -10 2 -27 12 -37 22 -10 10 -23 19 -30 19 -7 0 -25 12 -40
26 -28 25 -28 25 -21 222 4 108 6 213 4 232 -6 62 3 283 13 315 7 21 55 55 79
55 16 0 42 55 34 75 -3 9 -19 15 -38 15 -299 5 -413 -2 -420 -23 -4 -10 57
-43 92 -51 14 -3 40 -15 58 -26 32 -20 32 -20 32 -169 0 -123 -3 -151 -16
-162 -12 -9 -80 -13 -285 -14 -238 -2 -271 0 -278 14 -9 16 -5 282 4 311 3 9
32 28 65 43 61 28 69 40 47 68 -16 21 -55 25 -212 22z"/>
<path d="M1920 1361 c0 -6 5 -13 10 -16 6 -3 10 1 10 9 0 9 -4 16 -10 16 -5 0
-10 -4 -10 -9z"/>
<path d="M1916 1312 c-9 -15 6 -123 17 -119 15 5 15 119 0 124 -6 2 -14 0 -17
-5z"/>
<path d="M1918 1073 c-6 -7 -18 -13 -27 -13 -23 0 -86 -23 -103 -38 -8 -6 -18
-9 -21 -5 -4 3 -7 -4 -7 -17 0 -13 -13 -47 -30 -77 -16 -29 -30 -60 -30 -68 0
-9 -5 -13 -11 -9 -7 4 -8 20 -4 41 5 27 3 34 -7 31 -21 -7 -21 -48 0 -71 18
-19 19 -30 13 -82 -4 -33 -11 -59 -17 -58 -5 1 -11 -7 -11 -18 -1 -10 3 -19 8
-19 6 0 8 4 4 9 -3 5 -1 12 4 15 18 11 20 -25 4 -60 -14 -27 -15 -39 -6 -52 7
-9 22 -37 35 -62 44 -88 167 -157 253 -143 30 5 35 10 35 32 0 18 -7 29 -22
36 -13 6 -25 19 -27 30 -6 35 -20 45 -46 33 -33 -15 -70 10 -85 59 -7 21 -17
43 -22 50 -5 7 -7 26 -3 43 7 32 6 33 -49 34 -16 1 -31 6 -33 12 -5 16 57 27
73 13 16 -13 19 -7 29 55 7 45 25 76 42 76 7 0 11 13 11 30 -1 37 54 94 100
105 30 6 32 9 32 50 0 42 -1 43 -35 47 -22 2 -40 -1 -47 -9z m-76 -205 c-7 -7
-12 -8 -12 -2 0 14 12 26 19 19 2 -3 -1 -11 -7 -17z m-42 -78 c0 -5 -4 -10
-10 -10 -5 0 -10 5 -10 10 0 6 5 10 10 10 6 0 10 -4 10 -10z"/>
<path d="M130 930 c0 -115 1 -120 21 -120 12 0 31 9 43 21 17 16 20 29 18 65
-3 29 -9 44 -18 44 -8 0 -14 8 -14 18 0 36 -21 92 -35 92 -12 0 -15 -22 -15
-120z m60 -35 c0 -14 -4 -25 -10 -25 -5 0 -10 11 -10 25 0 14 5 25 10 25 6 0
10 -11 10 -25z"/>
<path d="M1917 884 c-13 -13 -8 -82 6 -87 24 -9 34 7 33 48 -2 38 -21 57 -39
39z"/>
<path d="M1882 710 c-7 -11 -19 -20 -27 -20 -8 0 -15 -4 -15 -10 0 -5 11 -10
25 -10 14 0 28 -7 31 -15 12 -30 24 -14 24 30 0 49 -16 60 -38 25z"/>
<path d="M1950 601 c0 -17 18 -21 24 -6 3 9 0 15 -9 15 -8 0 -15 -4 -15 -9z"/>
<path d="M130 510 c0 -46 8 -49 38 -17 32 34 29 57 -8 57 -28 0 -30 -2 -30
-40z"/>
<path d="M1675 471 c-3 -5 -1 -12 5 -16 5 -3 10 1 10 9 0 18 -6 21 -15 7z"/>
<path d="M1940 252 c0 -27 14 -42 39 -41 16 0 20 3 11 6 -8 4 -23 15 -32 26
-10 11 -18 15 -18 9z"/>
<path d="M1915 161 c-3 -5 -1 -12 5 -16 5 -3 10 1 10 9 0 18 -6 21 -15 7z"/>
<path d="M1765 140 c-11 -5 -203 -9 -427 -9 -224 -1 -409 -4 -412 -9 -2 -4
152 -8 342 -8 191 0 391 -4 445 -8 97 -8 97 -8 97 18 0 27 -11 31 -45 16z"/>
<path d="M183 124 c0 -9 40 -13 161 -14 107 0 157 3 151 9 -16 16 -312 21
-312 5z"/>
<path d="M1950 65 c0 0 -4 -15 -9 -33 -7 -24 -7 -32 4 -32 7 0 15 9 18 20 3
13 10 18 21 14 11 -4 16 0 16 12 0 14 -7 19 -25 19 -14 0 -25 0 -25 0z"/>
</g>
</svg>
