<?xml version="1.0" encoding="UTF-8" standalone="no"?>
<svg
   version="1.0"
   width="108.000000pt"
   height="102.000000pt"
   viewBox="0 0 108.000000 102.000000"
   preserveAspectRatio="xMidYMid meet"
   id="svg2"
   sodipodi:docname="L.svg"
   inkscape:version="1.4 (e7c3feb1, 2024-10-09)"
   xmlns:inkscape="http://www.inkscape.org/namespaces/inkscape"
   xmlns:sodipodi="http://sodipodi.sourceforge.net/DTD/sodipodi-0.dtd"
   xmlns="http://www.w3.org/2000/svg"
   xmlns:svg="http://www.w3.org/2000/svg">
  <defs
     id="defs2" />
  <sodipodi:namedview
     id="namedview2"
     pagecolor="#ffffff"
     bordercolor="#000000"
     borderopacity="0.25"
     inkscape:showpageshadow="2"
     inkscape:pageopacity="0.0"
     inkscape:pagecheckerboard="0"
     inkscape:deskcolor="#d1d1d1"
     inkscape:document-units="pt"
     inkscape:zoom="2.1629149"
     inkscape:cx="106.80032"
     inkscape:cy="81.140503"
     inkscape:current-layer="svg2" />
  <metadata
     id="metadata1">
Created by potrace 1.16, written by Peter Selinger 2001-2019
</metadata>
  <path
     d="m 39.8,9 c -5.3,0.3 -9.029869,-0.026787 -10.3,1.2 -5.285163,5.104803 12.949643,3.130307 11,12.6 -0.4,2 -1.8,6 -3.1,8.8 -2.9,6 -5.2,12.5 -10.5,29.3 -4.2,13.6 -7.3,19 -12.5,22 -2.4,1.5 -3.4,2.7 -3.4,4.6 0,2.9 0.1,2.9 10.3,1.5 4.8,-0.7 14.8,-0.8 29.3,-0.2 23.6,1 25.5,0.7 28.6,-4 2,-3.2 5.7,-13.7 6,-17.3 0.3,-2.6 -0.1,-3 -2.3,-3.3 C 80.8,64 79.8,64.8 77.1,69 70.4,79.4 60.9,83.7 47.1,82.7 37.8,82.1 36.3,81.5 35.6,78.4 34.9,75.9 40.3,58.3 45,47.5 c 1.2,-2.8 3.1,-7.9 4.2,-11.5 2.3,-7.3 6,-15.1 8,-16.7 0.7,-0.6 3.9,-2.1 7,-3.3 6.7,-2.5 7.3,-3.2 5.6,-6 -1.4,-2.2 -5.1,-2.3 -30,-1 z"
     id="path1"
     style="fill:#000000;stroke:none;stroke-width:0.1"
     sodipodi:nodetypes="czccccscccccccccccccc" />
</svg>
