<?xml version="1.0" encoding="UTF-8" standalone="no"?>
<svg
   version="1.0"
   width="94.000000pt"
   height="94.000000pt"
   viewBox="0 0 94.000000 94.000000"
   preserveAspectRatio="xMidYMid meet"
   id="svg9"
   sodipodi:docname="e.svg"
   inkscape:version="1.4 (e7c3feb1, 2024-10-09)"
   xmlns:inkscape="http://www.inkscape.org/namespaces/inkscape"
   xmlns:sodipodi="http://sodipodi.sourceforge.net/DTD/sodipodi-0.dtd"
   xmlns="http://www.w3.org/2000/svg"
   xmlns:svg="http://www.w3.org/2000/svg">
  <defs
     id="defs9" />
  <sodipodi:namedview
     id="namedview9"
     pagecolor="#ffffff"
     bordercolor="#000000"
     borderopacity="0.25"
     inkscape:showpageshadow="2"
     inkscape:pageopacity="0.0"
     inkscape:pagecheckerboard="0"
     inkscape:deskcolor="#d1d1d1"
     inkscape:document-units="pt"
     inkscape:zoom="4.6939854"
     inkscape:cx="25.990707"
     inkscape:cy="64.444171"
     inkscape:current-layer="svg9" />
  <metadata
     id="metadata1">
Created by potrace 1.16, written by Peter Selinger 2001-2019
</metadata>
  <path
     d="m 43.9,24 c -10.903422,5.599055 -22.839099,29.329419 -20,42.2 1.9,8.4 8.8,11.6 16.7,7.8 8.07313,-4.036565 14.359142,-15.248176 12,-16.3 -0.8,-0.3 -3.5,1 -6,2.9 -4.7,3.5 -9.5,4.5 -11.3,2.1 -1.8,-2.2 -2.3,-6.4 -1.2,-9.6 1.2,-3.3 4.2,-5.4 9.8,-6.6 C 56.1,43.9 62.4,36.8 60.5,28 59.2,22.3 50.9,20.3 43.9,24 Z m 7.9,9.6 c 0.4,2.6 -6.4,8.4 -9.7,8.4 -3.3,0 -2.5,-2.8 1.9,-7.2 4.2,-4.3 7.3,-4.7 7.8,-1.2 z"
     id="path4"
     style="fill:#000000;stroke:none;stroke-width:0.1"
     sodipodi:nodetypes="cccccccccccscc" />
</svg>
