<?xml version="1.0" standalone="no"?>
<!DOCTYPE svg PUBLIC "-//W3C//DTD SVG 20010904//EN"
 "http://www.w3.org/TR/2001/REC-SVG-20010904/DTD/svg10.dtd">
<svg version="1.0" xmlns="http://www.w3.org/2000/svg"
 width="124.000000pt" height="134.000000pt" viewBox="0 0 124.000000 134.000000"
 preserveAspectRatio="xMidYMid meet">
<metadata>
Created by potrace 1.16, written by Peter Selinger 2001-2019
</metadata>
<g transform="translate(0.000000,134.000000) scale(0.100000,-0.100000)"
fill="#000000" stroke="none">
<path d="M40 1295 c0 -38 -3 -45 -20 -45 -11 0 -20 -6 -20 -14 0 -20 48 -26
66 -9 15 16 16 20 18 76 1 32 -1 37 -21 37 -21 0 -23 -5 -23 -45z"/>
<path d="M1096 1308 c-6 -27 -2 -36 18 -53 24 -20 25 -22 20 -140 -7 -168 -7
-169 -49 -162 -19 3 -35 2 -35 -3 0 -5 -7 -7 -15 -4 -24 10 -13 -75 13 -95 13
-10 23 -34 28 -65 6 -43 8 -47 19 -32 11 15 13 15 19 0 9 -23 7 -62 -3 -68 -5
-3 -7 -32 -4 -64 3 -32 0 -74 -7 -97 -19 -61 -21 -181 -4 -196 7 -6 11 -15 8
-20 -5 -9 9 -13 34 -10 7 1 15 -6 19 -16 12 -34 33 -50 58 -45 24 4 25 8 25
77 0 62 -5 82 -31 131 -30 58 -30 59 -26 184 3 69 10 150 16 180 25 118 25
125 -4 148 -27 21 -27 21 -24 164 3 142 2 143 -19 141 -20 -3 -22 0 -16 37 6
35 4 40 -13 40 -15 0 -22 -9 -27 -32z"/>
<path d="M1205 1230 c-7 -12 12 -40 26 -40 5 0 9 11 9 25 0 25 -23 35 -35 15z"/>
<path d="M40 1128 c0 -29 5 -60 10 -68 7 -11 10 5 10 53 0 38 -4 67 -10 67 -5
0 -10 -24 -10 -52z"/>
<path d="M13 993 c-18 -7 -16 -81 2 -99 8 -8 12 -21 9 -29 -4 -8 -4 -22 -1
-30 5 -12 11 -12 44 2 21 9 56 15 77 14 44 -2 56 9 56 54 0 39 -22 52 -85 49
-41 -1 -54 2 -70 21 -11 13 -26 21 -32 18z m153 -94 c8 -14 -14 -29 -32 -22
-16 6 -7 33 11 33 8 0 17 -5 21 -11z"/>
<path d="M193 980 c28 -23 43 -25 53 -9 9 15 -15 29 -50 29 -29 0 -29 0 -3
-20z"/>
<path d="M514 972 c-85 -30 -173 -119 -211 -214 -20 -51 -14 -235 10 -291 40
-94 121 -156 240 -184 73 -17 89 -18 142 -5 126 28 217 134 245 283 14 74 13
103 -10 180 -17 55 -32 80 -76 128 -75 81 -125 108 -216 115 -56 4 -85 1 -124
-12z m191 -108 c58 -45 105 -136 105 -205 0 -188 -82 -312 -209 -313 -50 -1
-55 1 -91 41 -35 39 -70 118 -84 188 -10 49 10 158 40 220 55 111 148 138 239
69z"/>
<path d="M50 790 c0 -5 5 -10 10 -10 6 0 10 5 10 10 0 6 -4 10 -10 10 -5 0
-10 -4 -10 -10z"/>
<path d="M45 740 c-3 -5 -1 -18 4 -27 9 -16 10 -14 11 10 0 28 -5 34 -15 17z"/>
<path d="M0 635 c0 -22 4 -34 10 -30 13 8 13 52 0 60 -6 4 -10 -8 -10 -30z"/>
<path d="M40 423 c0 -13 -4 -23 -9 -23 -5 0 -9 -27 -9 -59 0 -58 1 -60 29 -66
40 -9 46 -2 44 54 -1 37 -8 58 -28 83 -24 30 -26 31 -27 11z"/>
<path d="M110 371 c0 -6 5 -13 11 -17 6 -3 8 -17 5 -30 -6 -23 -4 -24 38 -21
49 3 76 20 76 48 0 14 -7 19 -25 19 -27 0 -32 -9 -14 -27 7 -7 7 -13 1 -17 -6
-3 -13 3 -17 14 -3 11 -15 20 -26 20 -10 0 -19 5 -19 10 0 6 -7 10 -15 10 -8
0 -15 -4 -15 -9z"/>
<path d="M1023 369 c-14 -14 -5 -49 13 -49 16 0 37 37 29 50 -8 13 -28 13 -42
-1z"/>
<path d="M1040 305 c-10 -12 -9 -16 3 -21 9 -3 23 -2 31 3 13 7 13 10 -3 20
-15 10 -22 9 -31 -2z"/>
<path d="M50 168 c0 -38 3 -49 10 -38 13 20 13 90 0 90 -5 0 -10 -24 -10 -52z"/>
<path d="M1108 202 c-2 -9 2 -28 9 -42 13 -25 13 -25 13 12 0 39 -15 60 -22
30z"/>
<path d="M1099 103 c-6 -99 -5 -103 19 -103 20 0 22 5 22 50 0 49 0 49 50 43
46 -5 50 -4 50 16 0 16 -6 21 -26 21 -14 0 -35 -5 -47 -11 -16 -9 -22 -9 -25
0 -2 6 -12 11 -23 11 -14 0 -19 -8 -20 -27z"/>
<path d="M47 103 c-4 -3 -7 -28 -7 -55 0 -40 3 -48 19 -48 16 0 17 5 10 51 -9
55 -12 63 -22 52z"/>
</g>
</svg>
