<?xml version="1.0" standalone="no"?>
<!DOCTYPE svg PUBLIC "-//W3C//DTD SVG 20010904//EN"
 "http://www.w3.org/TR/2001/REC-SVG-20010904/DTD/svg10.dtd">
<svg version="1.0" xmlns="http://www.w3.org/2000/svg"
 width="189.000000pt" height="182.000000pt" viewBox="0 0 189.000000 182.000000"
 preserveAspectRatio="xMidYMid meet">
<metadata>
Created by potrace 1.16, written by Peter Selinger 2001-2019
</metadata>
<g transform="translate(0.000000,182.000000) scale(0.100000,-0.100000)"
fill="#000000" stroke="none">
<path d="M1630 1808 c0 -7 4 -20 10 -28 5 -9 5 -19 -2 -27 -7 -9 -7 -13 1 -14
25 -3 30 -4 34 -9 3 -3 53 -4 111 -2 97 3 106 5 106 23 0 18 -8 19 -116 19
-116 0 -116 0 -110 25 5 20 3 25 -14 25 -11 0 -20 -6 -20 -12z"/>
<path d="M1010 1785 c0 -8 5 -15 10 -15 6 0 10 7 10 15 0 8 -4 15 -10 15 -5 0
-10 -7 -10 -15z"/>
<path d="M1067 1794 c-12 -12 -8 -21 11 -19 9 0 18 5 20 10 4 12 -21 19 -31 9z"/>
<path d="M140 1748 c0 -4 4 -8 9 -8 6 0 12 4 15 8 3 5 -1 9 -9 9 -8 0 -15 -4
-15 -9z"/>
<path d="M1278 1753 c-16 -2 -28 -8 -28 -12 0 -9 80 -12 94 -4 9 6 -14 23 -29
21 -5 0 -22 -3 -37 -5z"/>
<path d="M194 1741 c3 -5 15 -7 26 -4 28 7 25 13 -6 13 -14 0 -23 -4 -20 -9z"/>
<path d="M1383 1743 c9 -2 23 -2 30 0 6 3 -1 5 -18 5 -16 0 -22 -2 -12 -5z"/>
<path d="M1450 1740 c0 -5 5 -10 10 -10 6 0 10 5 10 10 0 6 -4 10 -10 10 -5 0
-10 -4 -10 -10z"/>
<path d="M1544 1743 c10 -11 36 -12 36 -2 0 5 -10 9 -22 9 -12 0 -18 -3 -14
-7z"/>
<path d="M47 1604 c-13 -13 -7 -20 18 -19 24 1 50 15 27 15 -5 0 -17 2 -24 5
-8 3 -17 2 -21 -1z"/>
<path d="M1682 1350 c0 -19 2 -27 5 -17 2 9 2 25 0 35 -3 9 -5 1 -5 -18z"/>
<path d="M476 1315 c-46 -23 -24 -85 30 -85 13 0 35 -10 49 -23 25 -21 26 -24
15 -72 -7 -28 -13 -161 -15 -305 -6 -386 -12 -420 -80 -420 -36 0 -53 -26 -47
-72 3 -22 10 -28 35 -33 18 -3 46 -3 62 0 17 3 80 5 141 5 86 0 114 3 123 14
20 24 9 49 -34 73 -22 12 -43 33 -47 45 -3 13 -6 77 -7 143 -1 103 2 125 19
153 21 33 46 40 80 22 22 -12 119 -188 156 -282 24 -62 24 -62 -3 -100 -17
-25 -23 -42 -17 -48 6 -6 86 -12 178 -15 176 -6 196 -2 196 36 0 11 5 19 10
19 6 0 10 7 10 15 0 12 -13 15 -60 15 -96 0 -108 11 -203 177 -101 180 -135
233 -145 233 -16 0 -62 107 -55 126 9 24 80 97 110 113 13 6 38 35 56 64 39
60 124 113 196 122 81 10 119 59 65 84 -36 16 -320 4 -351 -15 -32 -20 -29
-30 22 -60 56 -32 58 -55 8 -103 -21 -20 -58 -62 -83 -94 -25 -32 -55 -71 -68
-86 -12 -16 -36 -34 -52 -39 -26 -9 -32 -8 -45 11 -17 24 -19 87 -5 191 7 61
13 73 49 110 23 23 41 47 41 53 0 6 -12 15 -27 21 -38 15 -280 20 -307 7z"/>
<path d="M1681 1274 c0 -11 3 -14 6 -6 3 7 2 16 -1 19 -3 4 -6 -2 -5 -13z"/>
<path d="M1681 1184 c0 -11 3 -14 6 -6 3 7 2 16 -1 19 -3 4 -6 -2 -5 -13z"/>
<path d="M241 1094 c0 -11 3 -14 6 -6 3 7 2 16 -1 19 -3 4 -6 -2 -5 -13z"/>
<path d="M1762 1000 c-18 -11 -41 -20 -50 -20 -10 0 -27 -7 -38 -15 -27 -20
-61 -18 -100 6 -25 15 -42 18 -69 13 -19 -3 -38 -10 -41 -15 -3 -5 -13 -9 -24
-9 -10 0 -20 -7 -24 -15 -3 -8 -12 -15 -21 -15 -8 0 -15 -7 -15 -15 0 -8 6
-15 13 -15 7 0 27 -19 45 -42 33 -43 33 -43 30 -225 -3 -168 -5 -183 -24 -205
-55 -61 -34 -81 90 -86 74 -3 94 -1 105 11 17 21 6 51 -25 68 -15 7 -30 23
-34 34 -4 11 -6 86 -6 166 1 137 2 147 26 181 43 63 86 78 184 61 61 -10 70
-43 63 -228 -3 -82 -9 -160 -14 -173 -5 -12 -24 -30 -43 -40 -29 -14 -36 -23
-38 -54 -3 -38 -3 -38 36 -38 22 0 54 -3 71 -6 31 -6 31 -6 31 333 0 340 0
340 -25 351 -37 17 -65 15 -103 -8z"/>
<path d="M230 860 c0 -5 5 -10 10 -10 6 0 10 5 10 10 0 6 -4 10 -10 10 -5 0
-10 -4 -10 -10z"/>
<path d="M140 667 c0 -42 4 -77 8 -77 10 0 7 139 -3 148 -3 3 -5 -29 -5 -71z"/>
<path d="M1681 714 c0 -11 3 -14 6 -6 3 7 2 16 -1 19 -3 4 -6 -2 -5 -13z"/>
<path d="M1680 614 c0 -28 4 -43 10 -39 12 8 10 85 -2 85 -4 0 -8 -21 -8 -46z"/>
<path d="M140 559 c0 -5 5 -7 10 -4 6 3 10 8 10 11 0 2 -4 4 -10 4 -5 0 -10
-5 -10 -11z"/>
<path d="M1680 505 c0 -34 4 -55 11 -55 7 0 9 13 5 38 -5 27 -4 33 3 22 9 -13
11 -13 11 2 0 23 -11 48 -21 48 -5 0 -9 -25 -9 -55z"/>
<path d="M1666 403 c-12 -12 -6 -33 9 -33 8 0 15 6 15 14 0 17 -14 28 -24 19z"/>
<path d="M1374 386 c-8 -22 3 -33 18 -18 9 9 9 15 0 24 -9 9 -13 7 -18 -6z"/>
<path d="M1680 270 c0 -31 3 -38 15 -34 12 5 13 9 3 21 -9 11 -9 16 1 23 8 4
10 13 7 19 -14 23 -26 10 -26 -29z"/>
<path d="M1680 200 c0 -19 3 -21 12 -12 9 9 9 15 0 24 -9 9 -12 7 -12 -12z"/>
<path d="M1675 160 c-4 -6 -9 -44 -11 -85 -5 -70 -4 -75 16 -75 18 0 20 6 20
68 0 68 0 68 95 64 91 -4 95 -4 95 17 0 20 -5 21 -104 21 -62 0 -107 -4 -111
-10z"/>
<path d="M237 123 c-4 -3 -7 -20 -7 -36 0 -30 -2 -31 -55 -17 -5 1 -47 2 -92
1 -77 -1 -83 -2 -83 -22 0 -20 4 -21 110 -17 99 3 110 1 110 -14 0 -11 8 -18
19 -18 27 0 35 17 17 36 -12 11 -13 20 -6 34 19 35 9 76 -13 53z"/>
<path d="M337 20 c10 -10 193 -15 197 -5 2 6 -35 10 -99 10 -57 0 -101 -2 -98
-5z"/>
<path d="M581 16 c7 -7 269 -9 276 -2 4 3 -58 6 -137 6 -79 0 -141 -2 -139 -4z"/>
</g>
</svg>
