<?xml version="1.0" encoding="UTF-8" standalone="no"?>
<svg
   version="1.0"
   width="240.000000pt"
   height="122.000000pt"
   viewBox="0 0 240.000000 122.000000"
   preserveAspectRatio="xMidYMid meet"
   id="svg30"
   sodipodi:docname="W.svg"
   inkscape:version="1.4 (e7c3feb1, 2024-10-09)"
   xmlns:inkscape="http://www.inkscape.org/namespaces/inkscape"
   xmlns:sodipodi="http://sodipodi.sourceforge.net/DTD/sodipodi-0.dtd"
   xmlns="http://www.w3.org/2000/svg"
   xmlns:svg="http://www.w3.org/2000/svg">
  <defs
     id="defs30" />
  <sodipodi:namedview
     id="namedview30"
     pagecolor="#ffffff"
     bordercolor="#000000"
     borderopacity="0.25"
     inkscape:showpageshadow="2"
     inkscape:pageopacity="0.0"
     inkscape:pagecheckerboard="0"
     inkscape:deskcolor="#d1d1d1"
     inkscape:document-units="pt"
     inkscape:zoom="2.557377"
     inkscape:cx="179.08974"
     inkscape:cy="61.977564"
     inkscape:current-layer="svg30" />
  <metadata
     id="metadata1">
Created by potrace 1.16, written by Peter Selinger 2001-2019
</metadata>
  <path
     d="m 180.5,20.2 c -3.8,0.6 -8.2,1 -9.7,0.9 -1.5,0 -3,0.4 -3.3,1 -1.1,1.6 0.6,5 2.3,4.7 2.1,-0.3 4.2,0.9 4.2,2.5 0,1.2 -9.3,14.4 -16.6,23.7 -2,2.5 -5.2,6.8 -7.3,9.6 -4.7,6.5 -12.8,14.4 -14.7,14.4 -1,0 -1.3,-0.7 -0.9,-2.3 0.3,-1.2 1.1,-5.4 1.9,-9.2 1.9,-9.6 7.2,-29.9 8.4,-32.2 2.4,-4.3 4.3,-5.2 14.5,-6.2 1.3,-0.2 0.7,-3.8 -0.9,-5.2 -1.9,-1.6 -16.9,-1.9 -24.7,-0.6 -5.8,1 -6.9,3 -3.2,5.9 2.3,1.8 2.6,2.5 2,5.7 -1.67538,8.793415 -8.08903,14.327272 -13.2,21.1 -4.70423,6.468311 -21.559004,25 -25.6,25 -1.9,0 -1.2,-5.9 1.8,-14.5 1.9,-5.5 4.1,-12.9 5,-16.5 0.9,-3.6 2.5,-8.4 3.6,-10.7 1,-2.4 1.9,-4.7 1.9,-5.3 0,-1.2 3.1,-2.9 8.4,-4.4 5.1,-1.5 5.9,-4 1.7,-5.4 -3.5,-1.2 -30,-0.6 -33.7,0.9 -3.7,1.3 -3.1,4.6 0.9,5.4 4.9,1 8.5,2.5 9.1,4 0.2,0.7 0,3 -0.6,5.2 -0.5,2.1 -1.6,6.3 -2.5,9.3 -4.419797,14.954884 -7.871857,31.127868 -13,45.2 -1.9,3.8 -1.6,9.2 0.6,11.9 1.6,2 2.2,2.2 4.3,1.2 1.4,-0.6 3.5,-2.4 4.7,-4 8.6,-10.9 15.1,-19.7 15.1,-20.2 0,-0.3 4.1,-4.8 9,-9.8 3.91074,-2.791813 13.02908,-14.307709 15.5,-13.9 2.8,1 1.2,13 -4,30 -1.86381,10.873489 -1.80859,23.17633 7.1,12.2 7.5,-9.2 17.4,-22.1 21.4,-27.7 2.5,-3.5 9.7,-12 16,-19 6.3,-6.9 13.5,-14.9 16,-17.8 3.7,-4.3 5.2,-5.3 8.5,-5.7 8.3,-1.1 8.5,-1.2 8.5,-4.8 0,-5.5 -3.8,-6.4 -18.5,-4.4 z"
     id="path10"
     style="fill:#000000;stroke:none;stroke-width:0.1"
     sodipodi:nodetypes="ccccsccssccccccccscscscccccccccccsccccscccsc" />
</svg>
