<?xml version="1.0" standalone="no"?>
<!DOCTYPE svg PUBLIC "-//W3C//DTD SVG 20010904//EN"
 "http://www.w3.org/TR/2001/REC-SVG-20010904/DTD/svg10.dtd">
<svg version="1.0" xmlns="http://www.w3.org/2000/svg"
 width="96.000000pt" height="118.000000pt" viewBox="0 0 96.000000 118.000000"
 preserveAspectRatio="xMidYMid meet">
<metadata>
Created by potrace 1.16, written by Peter Selinger 2001-2019
</metadata>
<g transform="translate(0.000000,118.000000) scale(0.100000,-0.100000)"
fill="#000000" stroke="none">
<path d="M161 1168 c4 -33 -1 -36 -66 -30 -65 5 -65 5 -65 -27 0 -21 -5 -31
-15 -31 -8 0 -15 -9 -15 -20 0 -25 3 -25 48 5 30 20 47 24 77 20 34 -4 36 -3
19 9 -18 14 -18 15 9 21 43 11 65 65 27 65 -12 0 -20 -6 -19 -12z"/>
<path d="M810 1141 c0 -22 -5 -41 -12 -43 -14 -5 -3 -38 12 -38 6 0 8 5 5 10
-10 16 11 12 25 -5 8 -10 31 -15 66 -15 48 0 54 2 54 21 0 19 -5 21 -57 17
-58 -3 -58 -3 -55 45 3 42 2 47 -17 47 -18 0 -21 -6 -21 -39z"/>
<path d="M284 1089 c-10 -17 6 -27 39 -25 42 3 42 28 -1 31 -18 2 -35 -1 -38
-6z"/>
<path d="M535 1090 c-37 -4 -46 -8 -35 -15 23 -14 88 -15 100 0 15 18 -3 22
-65 15z"/>
<path d="M332 1000 c-76 -47 -47 -84 66 -85 77 0 77 0 80 -35 3 -32 -4 -43
-72 -113 -104 -106 -130 -165 -102 -231 26 -62 133 -136 196 -136 45 0 60 10
60 39 0 41 -18 51 -85 51 -49 0 -66 4 -80 20 -28 30 -12 62 65 131 83 74 120
134 120 196 0 83 -52 143 -145 167 -73 19 -64 20 -103 -4z"/>
<path d="M216 341 c-4 -5 -2 -19 2 -31 8 -21 8 -21 32 -1 21 18 23 22 10 31
-19 12 -37 13 -44 1z"/>
<path d="M405 314 c-35 -38 -32 -66 11 -104 30 -26 42 -31 68 -26 66 13 91 76
50 125 -35 42 -93 44 -129 5z"/>
<path d="M2 250 c0 -14 2 -19 5 -12 2 6 2 18 0 25 -3 6 -5 1 -5 -13z"/>
<path d="M773 142 c-33 -5 -28 -17 7 -17 17 0 30 3 30 7 0 11 -13 14 -37 10z"/>
<path d="M708 133 c7 -3 16 -2 19 1 4 3 -2 6 -13 5 -11 0 -14 -3 -6 -6z"/>
<path d="M0 110 c0 -11 7 -20 15 -20 12 0 13 -9 8 -45 -5 -41 -4 -45 16 -45
23 0 25 10 15 71 -4 26 -14 40 -30 48 -21 9 -24 8 -24 -9z"/>
</g>
</svg>
