<?xml version="1.0" standalone="no"?>
<!DOCTYPE svg PUBLIC "-//W3C//DTD SVG 20010904//EN"
 "http://www.w3.org/TR/2001/REC-SVG-20010904/DTD/svg10.dtd">
<svg version="1.0" xmlns="http://www.w3.org/2000/svg"
 width="195.000000pt" height="173.000000pt" viewBox="0 0 195.000000 173.000000"
 preserveAspectRatio="xMidYMid meet">
<metadata>
Created by potrace 1.16, written by Peter Selinger 2001-2019
</metadata>
<g transform="translate(0.000000,173.000000) scale(0.100000,-0.100000)"
fill="#000000" stroke="none">
<path d="M50 1698 c0 -33 14 -67 24 -57 3 2 7 16 9 29 3 14 7 32 9 40 2 9 -6
16 -19 18 -20 3 -23 -1 -23 -30z"/>
<path d="M1100 1707 c0 -12 -9 -30 -20 -40 -31 -26 -26 -47 13 -47 36 0 57 15
57 41 0 9 7 19 15 23 8 3 15 15 15 26 0 17 -6 20 -40 20 -35 0 -40 -3 -40 -23z"/>
<path d="M1730 1717 c0 -7 7 -22 15 -33 12 -17 26 -21 81 -23 37 -1 70 -4 74
-6 4 -3 5 -16 3 -29 -3 -14 2 -35 11 -48 15 -22 16 -21 16 34 0 31 5 60 10 63
27 17 -9 26 -89 24 -76 -3 -86 -1 -85 14 1 10 -5 17 -17 17 -10 0 -19 -6 -19
-13z"/>
<path d="M0 1546 c0 -84 0 -84 38 -90 20 -3 64 -2 97 3 34 5 67 5 76 0 11 -6
21 -4 28 5 6 7 22 11 34 9 18 -4 30 4 50 31 15 19 27 42 27 50 0 9 8 16 18 16
23 0 42 19 42 42 0 27 -65 25 -80 -3 -7 -11 -9 -27 -6 -34 5 -13 -29 -32 -48
-27 -5 2 -17 -5 -28 -15 -31 -28 -88 -44 -112 -31 -12 6 -23 10 -25 9 -8 -6
-71 83 -71 100 0 12 -7 19 -20 19 -18 0 -20 -7 -20 -84z"/>
<path d="M120 1615 c0 -9 5 -15 11 -13 6 2 11 8 11 13 0 5 -5 11 -11 13 -6 2
-11 -4 -11 -13z"/>
<path d="M235 1621 c-7 -12 12 -24 25 -16 11 7 4 25 -10 25 -5 0 -11 -4 -15
-9z"/>
<path d="M461 1621 c-16 -10 53 -21 83 -13 20 5 20 5 0 13 -26 10 -66 10 -83
0z"/>
<path d="M188 1613 c6 -2 18 -2 25 0 6 3 1 5 -13 5 -14 0 -19 -2 -12 -5z"/>
<path d="M1038 1610 c-3 -10 -16 -14 -42 -12 -60 4 -76 -5 -76 -43 0 -48 37
-76 85 -65 36 8 77 41 88 72 11 30 -5 27 -38 -8 -35 -37 -60 -42 -91 -19 -16
13 -17 16 -4 25 8 5 27 10 41 10 29 0 53 22 47 42 -4 10 -6 9 -10 -2z"/>
<path d="M736 1345 c-67 -23 -100 -47 -170 -124 -79 -85 -93 -138 -78 -280 8
-79 14 -99 45 -145 63 -95 192 -179 327 -211 84 -20 167 -48 285 -95 44 -18
109 -43 145 -56 36 -14 79 -31 97 -39 17 -8 38 -15 47 -15 9 0 24 -9 33 -20
25 -28 69 -26 89 5 23 36 38 31 31 -10 -6 -38 7 -46 29 -17 20 26 17 38 -16
52 -16 7 -30 16 -30 20 0 4 -17 14 -37 23 -21 9 -45 20 -53 25 -8 5 -40 17
-70 27 -30 10 -75 30 -100 46 -25 15 -70 39 -100 53 -63 28 -90 48 -90 65 0 6
27 38 59 72 88 89 92 102 117 310 10 84 -28 163 -113 235 -82 69 -103 79 -190
93 -108 17 -180 13 -257 -14z m282 -75 c101 -59 152 -162 152 -312 0 -133 -38
-223 -119 -285 -31 -24 -45 -28 -106 -28 -56 0 -82 6 -133 29 -74 34 -111 73
-152 161 -27 57 -30 75 -30 157 0 82 3 100 29 155 22 45 42 71 78 97 59 44 90
54 168 55 49 1 69 -5 113 -29z"/>
<path d="M871 766 c-9 -11 -9 -19 1 -35 7 -12 16 -21 20 -21 10 0 28 35 28 54
0 20 -33 21 -49 2z"/>
<path d="M1763 1116 c-6 -7 -37 -17 -67 -20 -51 -7 -56 -10 -56 -31 0 -17 9
-29 30 -40 50 -26 58 -55 51 -186 -6 -107 -9 -120 -34 -153 -23 -30 -34 -36
-65 -36 -43 0 -95 29 -113 61 -11 21 -12 95 -6 324 2 60 2 60 -54 63 -72 4
-88 -11 -61 -59 17 -29 20 -56 20 -184 1 -82 4 -167 8 -187 7 -48 62 -98 105
-98 35 0 127 28 135 41 9 16 40 10 60 -12 36 -39 154 -14 154 33 0 5 -13 14
-30 19 -53 19 -59 91 -29 343 8 69 8 94 -2 112 -14 27 -28 30 -46 10z"/>
<path d="M60 1092 c0 -5 7 -15 15 -22 8 -7 15 -23 15 -36 0 -19 5 -24 25 -24
50 0 25 67 -32 84 -13 4 -23 3 -23 -2z"/>
<path d="M0 837 c0 -257 0 -257 35 -257 24 0 41 8 60 27 14 15 25 32 25 36 0
20 -22 47 -38 47 -26 0 -43 20 -33 39 5 9 11 73 15 142 5 106 4 128 -9 139 -8
7 -15 20 -15 30 0 9 -9 25 -20 35 -20 18 -20 17 -20 -238z"/>
<path d="M1926 1016 c-6 -23 7 -76 19 -76 3 0 5 23 5 50 0 53 -14 67 -24 26z"/>
<path d="M137 994 c-4 -4 -7 -17 -7 -28 0 -12 -7 -30 -15 -40 -21 -27 -19 -35
8 -29 26 6 47 30 47 53 0 21 -24 53 -33 44z"/>
<path d="M1920 888 c0 -27 5 -48 10 -48 16 0 16 52 -1 80 -6 10 -8 -1 -9 -32z"/>
<path d="M1925 778 c-3 -12 -1 -91 3 -125 1 -7 7 -13 12 -13 6 0 10 32 10 75
0 45 -4 75 -10 75 -6 0 -12 -6 -15 -12z"/>
<path d="M135 670 c3 -5 8 -10 11 -10 2 0 4 5 4 10 0 6 -5 10 -11 10 -5 0 -7
-4 -4 -10z"/>
<path d="M1017 235 c-14 -10 -17 -21 -12 -43 6 -28 9 -30 68 -34 34 -3 65 -3
70 -1 4 2 7 21 7 42 0 35 -3 39 -31 45 -49 9 -82 7 -102 -9z m91 -32 c2 -9 -8
-13 -32 -13 -36 0 -56 14 -34 24 22 8 61 2 66 -11z"/>
<path d="M747 223 c-16 -8 -27 -17 -24 -19 7 -7 57 18 57 28 0 4 -1 8 -2 7 -2
-1 -16 -8 -31 -16z"/>
<path d="M812 232 c-9 -3 -4 -12 14 -27 44 -38 27 -54 -43 -42 -32 6 -62 17
-66 24 -4 7 -15 13 -23 13 -22 0 -104 -58 -104 -74 0 -7 -13 -25 -29 -40 -16
-15 -31 -41 -33 -57 -5 -29 -4 -29 49 -29 55 0 55 0 52 38 -2 28 3 47 19 67
20 26 26 27 82 23 35 -2 66 -11 77 -20 10 -9 32 -18 48 -20 29 -3 30 -2 29 42
0 36 -7 52 -30 76 -16 17 -35 29 -42 26z"/>
<path d="M180 205 c0 -10 10 -15 31 -15 27 0 30 2 19 15 -7 8 -21 15 -31 15
-11 0 -19 -7 -19 -15z"/>
<path d="M303 205 c-35 -38 -2 -67 78 -72 59 -3 59 -3 59 27 0 20 -7 33 -22
42 -32 18 -100 19 -115 3z m77 -17 c0 -11 -36 -28 -44 -21 -14 14 -4 29 19 29
14 0 25 -3 25 -8z"/>
<path d="M1745 150 c-4 -6 13 -10 45 -10 32 0 49 4 45 10 -3 6 -24 10 -45 10
-21 0 -42 -4 -45 -10z"/>
<path d="M1680 112 c0 -6 -18 -13 -39 -17 -43 -7 -67 -27 -56 -45 4 -6 14 -9
22 -5 25 9 53 -5 53 -26 0 -17 7 -19 63 -19 51 0 64 3 75 20 17 28 97 29 114
1 12 -19 12 -19 26 0 11 16 11 23 1 36 -7 8 -13 25 -14 37 0 17 -7 22 -34 24
-23 2 -37 -2 -43 -11 -10 -19 -129 -17 -152 2 -9 8 -16 9 -16 3z"/>
<path d="M408 43 c7 -3 16 -2 19 1 4 3 -2 6 -13 5 -11 0 -14 -3 -6 -6z"/>
</g>
</svg>
