<?xml version="1.0" standalone="no"?>
<!DOCTYPE svg PUBLIC "-//W3C//DTD SVG 20010904//EN"
 "http://www.w3.org/TR/2001/REC-SVG-20010904/DTD/svg10.dtd">
<svg version="1.0" xmlns="http://www.w3.org/2000/svg"
 width="72.000000pt" height="96.000000pt" viewBox="0 0 72.000000 96.000000"
 preserveAspectRatio="xMidYMid meet">
<metadata>
Created by potrace 1.16, written by Peter Selinger 2001-2019
</metadata>
<g transform="translate(0.000000,96.000000) scale(0.100000,-0.100000)"
fill="#000000" stroke="none">
<path d="M57 939 c-5 -17 -11 -20 -31 -15 -21 5 -26 3 -26 -13 0 -44 50 -34
79 15 19 33 20 34 2 34 -11 0 -21 -9 -24 -21z"/>
<path d="M113 904 c-3 -9 3 -23 16 -35 11 -11 21 -27 21 -37 0 -17 10 -18 138
-13 24 1 4 17 -39 31 -30 10 -44 22 -51 42 -8 23 -16 28 -44 28 -22 0 -37 -6
-41 -16z m81 -41 c6 -14 -4 -16 -28 -7 -22 9 -20 20 4 20 11 0 22 -6 24 -13z"/>
<path d="M334 777 c-57 -40 -84 -87 -93 -167 -5 -43 -14 -67 -32 -86 -24 -26
-24 -26 4 -46 26 -19 27 -23 27 -114 0 -93 -1 -96 -30 -123 -42 -38 -25 -51
66 -51 50 0 75 4 83 14 10 12 8 17 -11 27 -36 19 -38 27 -38 141 0 106 0 106
28 112 15 3 50 2 77 -2 50 -7 50 -7 53 -117 3 -102 1 -111 -19 -127 -12 -11
-19 -24 -15 -33 4 -12 17 -14 63 -9 32 4 60 8 62 10 2 2 -2 11 -10 20 -11 14
-13 69 -11 294 3 317 13 290 -99 290 -48 0 -64 -5 -105 -33z m110 -58 c24 -19
26 -26 26 -99 0 -96 -8 -105 -85 -97 -30 3 -59 8 -65 12 -23 14 -1 153 30 190
18 21 63 18 94 -6z"/>
<path d="M644 765 c-4 -8 -3 -23 0 -32 6 -15 8 -15 23 -1 16 17 12 48 -7 48
-6 0 -13 -7 -16 -15z"/>
<path d="M23 578 c-19 -25 -23 -48 -8 -48 13 0 45 36 45 52 0 13 -27 9 -37 -4z"/>
<path d="M662 553 c-30 -4 -33 -7 -27 -26 4 -12 10 -86 14 -165 6 -148 5 -145
54 -173 15 -9 17 -4 17 50 0 33 -7 71 -15 87 -19 37 -19 83 0 90 18 7 20 50 3
57 -10 4 -10 7 0 18 6 7 12 26 12 41 0 17 -5 27 -12 26 -7 0 -28 -3 -46 -5z"/>
<path d="M75 537 c-41 -24 -46 -47 -11 -47 29 0 43 -17 27 -33 -20 -20 -12
-37 19 -37 30 0 30 0 30 60 0 33 -4 60 -9 60 -5 0 -15 2 -23 4 -7 3 -22 -1
-33 -7z"/>
<path d="M0 480 c0 -5 7 -10 15 -10 8 0 15 5 15 10 0 6 -7 10 -15 10 -8 0 -15
-4 -15 -10z"/>
<path d="M5 439 c-4 -6 -5 -13 -2 -16 8 -7 47 7 47 18 0 13 -37 11 -45 -2z"/>
<path d="M0 380 c0 -5 5 -10 10 -10 6 0 10 5 10 10 0 6 -4 10 -10 10 -5 0 -10
-4 -10 -10z"/>
<path d="M7 343 c-4 -3 -7 -17 -7 -30 0 -28 23 -27 28 1 4 20 -11 40 -21 29z"/>
<path d="M93 273 c-18 -7 -17 -63 0 -63 13 0 37 40 37 60 0 11 -17 12 -37 3z"/>
<path d="M0 231 c0 -21 6 -32 21 -36 32 -11 45 9 25 39 -23 36 -46 34 -46 -3z"/>
<path d="M0 91 c0 -4 11 -14 25 -21 14 -7 25 -19 25 -27 0 -16 1 -16 36 2 24
12 25 15 9 15 -12 0 -37 9 -58 19 -20 10 -37 16 -37 12z"/>
<path d="M672 74 c-12 -8 -40 -16 -63 -16 -42 0 -50 -20 -10 -26 12 -2 25 -10
28 -18 6 -17 34 -19 32 -1 -3 26 2 36 16 31 15 -6 45 17 45 35 0 16 -22 13
-48 -5z"/>
<path d="M232 51 c-12 -7 -12 -12 -1 -30 17 -27 40 -27 57 0 7 12 12 22 10 24
-9 10 -55 14 -66 6z"/>
<path d="M385 50 c3 -5 11 -10 16 -10 6 0 7 5 4 10 -3 6 -11 10 -16 10 -6 0
-7 -4 -4 -10z"/>
<path d="M438 53 c7 -3 16 -2 19 1 4 3 -2 6 -13 5 -11 0 -14 -3 -6 -6z"/>
<path d="M20 16 c0 -9 5 -16 10 -16 6 0 10 4 10 9 0 6 -4 13 -10 16 -5 3 -10
-1 -10 -9z"/>
</g>
</svg>
