<?xml version="1.0" encoding="UTF-8" standalone="no"?>
<svg
   version="1.0"
   width="104.000000pt"
   height="130.000000pt"
   viewBox="0 0 104.000000 130.000000"
   preserveAspectRatio="xMidYMid meet"
   id="svg16"
   sodipodi:docname="p.svg"
   inkscape:version="1.4 (e7c3feb1, 2024-10-09)"
   xmlns:inkscape="http://www.inkscape.org/namespaces/inkscape"
   xmlns:sodipodi="http://sodipodi.sourceforge.net/DTD/sodipodi-0.dtd"
   xmlns="http://www.w3.org/2000/svg"
   xmlns:svg="http://www.w3.org/2000/svg">
  <defs
     id="defs16" />
  <sodipodi:namedview
     id="namedview16"
     pagecolor="#ffffff"
     bordercolor="#000000"
     borderopacity="0.25"
     inkscape:showpageshadow="2"
     inkscape:pageopacity="0.0"
     inkscape:pagecheckerboard="0"
     inkscape:deskcolor="#d1d1d1"
     inkscape:document-units="pt"
     inkscape:zoom="2.4"
     inkscape:cx="-32.083333"
     inkscape:cy="73.541667"
     inkscape:current-layer="svg16" />
  <metadata
     id="metadata1">
Created by potrace 1.16, written by Peter Selinger 2001-2019
</metadata>
  <path
     d="m 53.3,14.6 c -3.462656,4.36718 -9.4419,5.190993 -13.504834,8.787402 -0.345481,4.80332 10.609745,0.994362 7.826618,7.721604 -1.492451,7.542699 -4.481569,14.69579 -5.983442,22.245569 -2.097464,10.115862 -5.664739,19.82717 -8.095337,29.856241 -1.460935,5.01083 -2.704822,10.276847 -5.326637,14.791744 -2.900522,1.612305 -9.381979,6.39805 -3.331892,8.34296 4.681867,1.76573 9.79446,1.54773 14.656676,2.48859 4.573536,1.54932 9.196202,-3.33456 4.421051,-6.64256 -3.28892,-3.772079 -1.174078,-8.58752 -0.512492,-12.856266 1.128495,-5.760137 1.678272,-11.778399 4.23013,-16.304834 2.551858,-4.526435 6.960829,-1.592213 11.979246,-4.967266 5.018417,-3.375053 11.325976,-10.169915 14.659627,-17.305879 3.519443,-7.85247 4.80219,-17.042952 2.206496,-25.353468 -1.859683,-4.737315 -7.318824,-7.206113 -12.154539,-6.173335 -5.187676,0.592497 -4.696769,-9.02753 -9.539497,-6.426133 C 54.209781,13.295923 53.697916,13.917239 53.3,14.6 Z m 13.8,15 c 3.612432,3.98741 2.372174,9.922477 1.198492,14.641448 C 66.132716,50.273355 62.488048,56.289422 54.78903,60.906589 47.090012,65.523756 54.158895,43.614835 54.753936,40.435532 56.338018,36.183043 56.6487,30.98744 59.87382,27.617085 62.334789,25.962529 65.362972,27.719725 67.1,29.6 Z"
     id="path3"
     style="fill:#000000;stroke:none;stroke-width:0.1"
     sodipodi:nodetypes="cccccccccczzccccccczccc" />
</svg>
