<?xml version="1.0" standalone="no"?>
<!DOCTYPE svg PUBLIC "-//W3C//DTD SVG 20010904//EN"
 "http://www.w3.org/TR/2001/REC-SVG-20010904/DTD/svg10.dtd">
<svg version="1.0" xmlns="http://www.w3.org/2000/svg"
 width="97.000000pt" height="63.000000pt" viewBox="0 0 97.000000 63.000000"
 preserveAspectRatio="xMidYMid meet">
<metadata>
Created by potrace 1.16, written by Peter Selinger 2001-2019
</metadata>
<g transform="translate(0.000000,63.000000) scale(0.100000,-0.100000)"
fill="#000000" stroke="none">
<path d="M322 588 c3 -43 3 -43 -74 -39 -73 3 -78 2 -78 -17 0 -29 6 -31 85
-21 80 10 103 28 103 84 0 28 -4 35 -20 35 -17 0 -19 -6 -16 -42z"/>
<path d="M890 584 c0 -25 5 -54 10 -64 7 -13 7 -21 0 -25 -16 -10 -12 -65 5
-65 19 0 28 50 26 148 -1 45 -4 52 -21 52 -17 0 -20 -7 -20 -46z"/>
<path d="M750 520 c-21 -7 -12 -15 13 -11 4 1 10 -5 13 -14 5 -12 9 -12 31 2
23 16 24 17 7 24 -23 9 -32 9 -64 -1z"/>
<path d="M498 513 c7 -3 16 -2 19 1 4 3 -2 6 -13 5 -11 0 -14 -3 -6 -6z"/>
<path d="M580 510 c0 -6 19 -7 48 -3 64 8 66 13 4 13 -29 0 -52 -4 -52 -10z"/>
<path d="M0 410 c0 -89 0 -89 53 -59 73 44 77 48 77 84 0 59 -6 65 -71 65 -59
0 -59 0 -59 -90z m70 7 c0 -17 -20 -37 -37 -37 -16 0 -17 22 -1 38 16 16 38
15 38 -1z"/>
<path d="M390 489 c-14 -6 -54 -11 -90 -11 -82 0 -130 -19 -131 -50 -2 -59 3
-114 13 -123 7 -7 9 3 5 32 -5 46 0 57 23 43 13 -8 13 -14 2 -42 -8 -18 -20
-55 -29 -83 -8 -27 -22 -58 -30 -67 -16 -18 -12 -48 7 -48 5 0 10 -7 10 -15 0
-8 6 -15 14 -15 21 0 36 24 29 49 -7 25 34 121 51 121 8 0 11 -24 10 -67 -3
-102 -3 -103 -18 -103 -7 0 -19 -7 -26 -15 -11 -13 -7 -15 22 -15 19 0 38 3
41 6 4 4 34 7 68 8 74 1 81 11 49 68 -17 31 -22 56 -23 121 -1 72 3 89 27 134
16 29 26 59 23 67 -7 18 -12 19 -47 5z m-80 -174 c0 -8 -4 -15 -10 -15 -5 0
-10 7 -10 15 0 8 5 15 10 15 6 0 10 -7 10 -15z m0 -110 c0 -8 -7 -15 -16 -15
-14 0 -14 3 -4 15 7 8 14 15 16 15 2 0 4 -7 4 -15z"/>
<path d="M956 481 c-4 -7 -5 -15 -2 -18 9 -9 19 4 14 18 -4 11 -6 11 -12 0z"/>
<path d="M472 334 c-17 -12 -22 -24 -20 -47 4 -45 35 -57 146 -57 79 0 95 3
112 20 27 27 26 65 -2 84 -32 23 -204 22 -236 0z"/>
<path d="M13 233 c-14 -5 -18 -73 -5 -73 14 1 44 51 38 66 -6 14 -12 16 -33 7z"/>
<path d="M73 167 c-32 -14 -29 -27 6 -27 34 0 47 13 28 28 -8 6 -20 6 -34 -1z"/>
<path d="M789 98 c14 -10 33 -17 42 -15 10 3 20 0 22 -6 1 -5 8 -8 15 -6 24 8
-6 29 -54 38 -49 9 -49 9 -25 -11z"/>
<path d="M177 84 c-4 -4 -7 -23 -7 -42 0 -31 2 -34 23 -28 12 3 44 6 70 6 30
0 46 4 42 10 -3 5 -24 10 -45 10 -30 0 -43 6 -57 26 -10 14 -22 22 -26 18z"/>
</g>
</svg>
