<?xml version="1.0" standalone="no"?>
<!DOCTYPE svg PUBLIC "-//W3C//DTD SVG 20010904//EN"
 "http://www.w3.org/TR/2001/REC-SVG-20010904/DTD/svg10.dtd">
<svg version="1.0" xmlns="http://www.w3.org/2000/svg"
 width="166.000000pt" height="164.000000pt" viewBox="0 0 166.000000 164.000000"
 preserveAspectRatio="xMidYMid meet">
<metadata>
Created by potrace 1.16, written by Peter Selinger 2001-2019
</metadata>
<g transform="translate(0.000000,164.000000) scale(0.100000,-0.100000)"
fill="#000000" stroke="none">
<path d="M67 1621 c-10 -11 -15 -25 -11 -35 5 -13 0 -16 -25 -16 -24 0 -31 -4
-31 -19 0 -10 7 -22 16 -25 18 -7 54 19 54 39 0 23 46 55 81 56 34 1 34 1 4 9
-48 12 -69 10 -88 -9z"/>
<path d="M370 1624 c11 -12 36 -15 144 -13 154 2 216 8 216 20 0 5 -84 9 -186
9 -168 0 -185 -2 -174 -16z"/>
<path d="M1590 1626 c0 -8 5 -18 10 -21 6 -3 10 -17 10 -31 0 -13 4 -24 9 -24
8 0 9 33 2 83 -2 14 -31 7 -31 -7z"/>
<path d="M98 1548 c9 -9 15 -9 24 0 9 9 7 12 -12 12 -19 0 -21 -3 -12 -12z"/>
<path d="M188 1253 c1 -164 6 -301 10 -305 4 -4 6 122 6 280 -1 158 3 295 8
305 7 13 5 17 -9 17 -17 0 -18 -18 -15 -297z"/>
<path d="M1210 1541 c0 -6 4 -13 10 -16 6 -3 7 1 4 9 -7 18 -14 21 -14 7z"/>
<path d="M250 1534 c34 -7 110 -9 110 -2 0 5 -28 7 -62 7 -35 -1 -56 -3 -48
-5z"/>
<path d="M395 1530 c3 -5 8 -10 11 -10 2 0 4 5 4 10 0 6 -5 10 -11 10 -5 0 -7
-4 -4 -10z"/>
<path d="M1101 1536 c11 -9 90 -16 84 -6 -3 5 -25 10 -47 10 -23 0 -39 -2 -37
-4z"/>
<path d="M1607 1512 c-26 -27 -27 -30 -12 -58 8 -16 15 -37 15 -46 0 -12 8
-18 25 -18 24 0 25 2 25 75 0 85 -9 93 -53 47z"/>
<path d="M1535 1410 c-7 -12 2 -30 16 -30 5 0 9 9 9 20 0 21 -15 27 -25 10z"/>
<path d="M1630 1303 c0 -17 5 -35 10 -38 13 -8 13 35 0 55 -7 11 -10 7 -10
-17z"/>
<path d="M799 1305 c-105 -21 -196 -72 -250 -141 -105 -134 -132 -225 -110
-361 16 -90 56 -161 141 -244 56 -55 79 -70 146 -95 69 -25 92 -28 184 -28
119 1 189 22 263 78 42 32 42 32 47 143 3 70 10 117 18 125 13 13 17 68 5 69
-5 0 -66 2 -138 3 -102 3 -130 6 -130 17 0 9 16 16 45 20 54 7 51 10 -18 15
-59 5 -124 -18 -88 -32 10 -4 30 -18 45 -32 14 -13 42 -35 61 -47 57 -36 63
-49 57 -108 -11 -95 -24 -123 -64 -142 -21 -10 -67 -20 -103 -23 -53 -3 -74 0
-111 17 -70 33 -123 84 -155 148 -26 54 -28 67 -28 178 -1 116 0 123 31 185
74 149 176 203 337 176 36 -6 59 -18 93 -49 24 -22 51 -53 58 -67 7 -14 25
-32 39 -39 53 -29 69 22 44 141 -10 46 -15 57 -28 53 -9 -3 -58 8 -110 25
-104 33 -171 37 -281 15z"/>
<path d="M111 1244 c0 -11 3 -14 6 -6 3 7 2 16 -1 19 -3 4 -6 -2 -5 -13z"/>
<path d="M1633 1215 c0 -22 2 -30 4 -17 2 12 2 30 0 40 -3 9 -5 -1 -4 -23z"/>
<path d="M30 1156 c0 -14 -5 -28 -10 -31 -8 -5 -7 -12 2 -22 11 -13 13 -13 19
4 11 27 10 73 -1 73 -5 0 -10 -11 -10 -24z"/>
<path d="M1112 1048 c3 -7 13 -15 24 -17 16 -3 17 -1 5 13 -16 19 -34 21 -29
4z"/>
<path d="M1540 1041 c0 -5 18 -9 40 -9 22 0 38 3 36 7 -7 11 -76 13 -76 2z"/>
<path d="M1617 1003 c-4 -3 -27 -5 -52 -5 -54 2 -129 -30 -152 -65 -33 -49
-43 -166 -29 -320 8 -81 7 -93 -6 -93 -26 0 -29 -28 -5 -45 20 -14 22 -14 25
1 4 19 35 14 96 -16 22 -11 43 -17 48 -14 5 3 16 0 24 -7 9 -7 34 -14 55 -15
39 -2 39 -2 39 41 0 43 0 43 -46 50 -49 7 -64 26 -43 51 11 14 9 15 -20 12
-30 -3 -36 1 -53 31 -39 69 -42 190 -5 175 7 -2 21 2 32 10 18 14 18 15 3 16
-28 0 -38 31 -23 67 17 40 42 53 104 53 51 0 51 0 51 34 0 22 -6 36 -16 40
-19 7 -19 7 -27 -1z"/>
<path d="M0 930 c0 -27 5 -50 10 -50 6 0 10 23 10 50 0 28 -4 50 -10 50 -5 0
-10 -22 -10 -50z"/>
<path d="M1375 939 c-10 -15 3 -25 16 -12 7 7 7 13 1 17 -6 3 -14 1 -17 -5z"/>
<path d="M191 884 c0 -11 3 -14 6 -6 3 7 2 16 -1 19 -3 4 -6 -2 -5 -13z"/>
<path d="M1597 859 c-9 -6 -21 -8 -26 -5 -11 7 -36 -22 -28 -31 14 -13 78 -12
83 2 10 24 -9 45 -29 34z"/>
<path d="M1280 840 c0 -5 5 -10 10 -10 6 0 10 5 10 10 0 6 -4 10 -10 10 -5 0
-10 -4 -10 -10z"/>
<path d="M189 819 c0 -13 0 -161 0 -329 -1 -281 0 -305 16 -308 15 -3 16 1 10
25 -4 15 -9 162 -10 326 -2 164 -6 301 -9 304 -3 4 -6 -5 -7 -18z"/>
<path d="M920 810 c0 -5 5 -10 10 -10 6 0 10 5 10 10 0 6 -4 10 -10 10 -5 0
-10 -4 -10 -10z"/>
<path d="M10 800 c-10 -6 -11 -10 -2 -10 6 0 12 -11 12 -25 0 -14 -6 -25 -12
-25 -17 0 13 -20 30 -20 9 0 12 12 10 42 -3 44 -13 54 -38 38z"/>
<path d="M1547 753 c-14 -13 -8 -111 7 -116 12 -5 15 7 15 59 0 59 -6 74 -22
57z"/>
<path d="M1315 648 c-4 -10 -4 -26 0 -35 8 -17 8 -17 12 0 3 9 3 25 0 35 -4
16 -4 16 -12 0z"/>
<path d="M32 620 c0 -14 2 -19 5 -12 2 6 2 18 0 25 -3 6 -5 1 -5 -13z"/>
<path d="M1331 574 c0 -11 3 -14 6 -6 3 7 2 16 -1 19 -3 4 -6 -2 -5 -13z"/>
<path d="M1594 575 c-3 -8 -3 -19 1 -25 11 -18 25 -11 25 15 0 27 -17 34 -26
10z"/>
<path d="M0 524 c0 -21 4 -33 10 -29 13 8 13 65 0 65 -5 0 -10 -16 -10 -36z"/>
<path d="M1410 450 c0 -5 7 -10 16 -10 8 0 12 5 9 10 -3 6 -10 10 -16 10 -5 0
-9 -4 -9 -10z"/>
<path d="M1503 409 c4 -13 7 -30 7 -36 0 -7 5 -13 11 -13 15 0 6 63 -10 68
-10 4 -12 -1 -8 -19z"/>
<path d="M1632 308 c1 -66 -7 -108 -22 -108 -5 0 -7 -7 -4 -15 4 -8 17 -15 30
-15 19 0 24 5 24 24 0 14 -4 27 -9 30 -5 3 -7 35 -4 70 2 37 0 67 -6 71 -7 4
-10 -17 -9 -57z"/>
<path d="M0 170 c0 -16 7 -20 31 -20 25 0 29 -3 24 -19 -4 -14 -1 -20 12 -23
14 -3 17 -12 14 -56 -2 -47 0 -52 18 -52 50 0 10 159 -45 180 -38 15 -54 12
-54 -10z"/>
<path d="M1602 135 c-18 -38 -16 -135 2 -135 11 0 15 18 18 73 4 80 -3 101
-20 62z"/>
<path d="M215 140 c-3 -6 -3 -10 2 -11 39 -3 458 2 461 6 3 3 11 0 18 -6 8 -7
25 -8 41 -4 26 7 27 8 7 15 -30 12 -522 12 -529 0z"/>
<path d="M776 142 c-3 -6 3 -12 15 -15 12 -3 19 -1 16 6 -5 15 -24 20 -31 9z"/>
<path d="M1531 84 c0 -11 3 -14 6 -6 3 7 2 16 -1 19 -3 4 -6 -2 -5 -13z"/>
</g>
</svg>
