<?xml version="1.0" standalone="no"?>
<!DOCTYPE svg PUBLIC "-//W3C//DTD SVG 20010904//EN"
 "http://www.w3.org/TR/2001/REC-SVG-20010904/DTD/svg10.dtd">
<svg version="1.0" xmlns="http://www.w3.org/2000/svg"
 width="373.000000pt" height="209.000000pt" viewBox="0 0 373.000000 209.000000"
 preserveAspectRatio="xMidYMid meet">
<metadata>
Created by potrace 1.16, written by Peter Selinger 2001-2019
</metadata>
<g transform="translate(0.000000,209.000000) scale(0.100000,-0.100000)"
fill="#000000" stroke="none">
<path d="M690 1918 c0 -173 0 -173 -345 -170 -335 3 -345 2 -345 -17 0 -15 8
-20 40 -23 22 -2 44 0 49 5 5 5 48 7 97 4 49 -2 176 -5 283 -5 202 -1 251 7
251 44 0 12 6 15 28 10 25 -6 26 -5 6 6 -20 12 -22 22 -23 136 -2 107 0 122
14 122 15 0 15 1 1 16 -9 8 -16 22 -16 30 0 8 -9 14 -20 14 -19 0 -20 -7 -20
-172z"/>
<path d="M2640 2047 c-45 -42 -45 -42 -49 -121 -3 -65 0 -81 13 -88 9 -5 16
-16 16 -23 0 -8 7 -15 15 -15 8 0 15 1 15 3 0 1 -9 31 -20 67 -11 36 -20 71
-20 78 0 19 40 14 41 -5 0 -10 9 10 20 44 12 38 28 67 39 73 27 14 25 30 -2
30 -13 0 -43 -19 -68 -43z"/>
<path d="M2717 2033 c-11 -17 -14 -119 -4 -129 14 -14 18 4 15 72 -2 40 -6 64
-11 57z"/>
<path d="M2403 1984 c0 -7 9 -14 19 -14 10 0 18 2 18 5 0 2 -8 9 -18 14 -14 8
-19 6 -19 -5z"/>
<path d="M2483 1978 c2 -7 10 -13 17 -13 7 0 15 6 18 13 2 7 -5 12 -18 12 -13
0 -20 -5 -17 -12z"/>
<path d="M1270 1960 c0 -6 28 -10 70 -9 38 1 67 5 64 10 -7 13 -134 11 -134
-1z"/>
<path d="M1430 1960 c20 -13 60 -13 60 0 0 6 -17 10 -37 10 -28 0 -34 -3 -23
-10z"/>
<path d="M1500 1959 c0 -5 5 -7 10 -4 6 3 10 8 10 11 0 2 -4 4 -10 4 -5 0 -10
-5 -10 -11z"/>
<path d="M1615 1961 c-3 -5 -1 -12 5 -16 5 -3 10 -2 10 4 0 5 24 12 53 14 52
3 52 3 -5 5 -31 1 -59 -2 -63 -7z"/>
<path d="M1808 1963 c7 -3 16 -2 19 1 4 3 -2 6 -13 5 -11 0 -14 -3 -6 -6z"/>
<path d="M1980 1961 c25 -8 25 -8 0 -13 -14 -2 1 -4 32 -4 73 1 71 20 -3 23
-38 1 -47 -1 -29 -6z"/>
<path d="M2117 1964 c-14 -14 -7 -19 28 -19 19 0 36 5 37 10 3 12 -54 19 -65
9z"/>
<path d="M890 1944 c0 -6 10 -10 23 -8 12 1 25 3 30 3 4 1 7 5 7 11 0 5 -13 8
-30 7 -16 -1 -30 -7 -30 -13z"/>
<path d="M928 1907 c-13 -30 -10 -166 3 -145 5 10 9 50 7 90 -2 45 -6 66 -10
55z"/>
<path d="M2670 1845 c0 -50 2 -56 26 -65 14 -6 27 -10 30 -10 2 0 4 22 4 50 0
45 -3 51 -30 65 -30 16 -30 16 -30 -40z"/>
<path d="M2763 1773 c-29 -11 -9 -22 50 -26 34 -3 79 -9 99 -12 21 -4 46 -4
55 -1 9 4 185 7 390 6 368 0 373 0 373 20 0 20 -5 20 -477 19 -263 0 -484 -3
-490 -6z"/>
<path d="M2820 1713 c14 -3 28 -10 32 -16 4 -6 10 -8 13 -5 14 13 -7 28 -38
27 -28 -2 -29 -2 -7 -6z"/>
<path d="M53 1635 c0 -8 4 -15 9 -15 4 0 8 4 8 9 0 6 -4 12 -8 15 -5 3 -9 -1
-9 -9z"/>
<path d="M891 1624 c0 -11 3 -14 6 -6 3 7 2 16 -1 19 -3 4 -6 -2 -5 -13z"/>
<path d="M3120 1604 c0 -23 2 -24 15 -10 8 8 15 17 15 19 0 3 -7 7 -15 11 -11
4 -15 -2 -15 -20z"/>
<path d="M2856 1607 c3 -10 9 -15 12 -12 3 3 0 11 -7 18 -10 9 -11 8 -5 -6z"/>
<path d="M2904 1520 c-5 -5 -50 -10 -99 -12 -90 -3 -90 -3 -95 -188 -5 -185
-5 -185 -30 -188 -14 -2 -31 -9 -39 -15 -42 -35 -142 -47 -175 -22 -31 24 -87
19 -119 -10 -15 -14 -27 -29 -27 -33 0 -13 40 -72 49 -72 11 0 24 -56 21 -98
-1 -20 4 -34 13 -38 9 -3 18 -25 21 -52 15 -113 18 -124 28 -114 17 17 21 112
5 131 -18 20 -41 90 -33 98 3 3 24 -13 46 -36 22 -22 42 -41 45 -41 3 0 5 29
5 65 0 56 4 69 24 90 35 35 75 43 95 19 9 -11 29 -26 44 -34 28 -14 28 -14 26
-233 0 -120 2 -221 6 -225 4 -4 106 -10 228 -14 122 -4 255 -10 294 -13 71 -6
73 -6 97 22 23 26 25 36 26 129 0 93 -11 156 -31 178 -4 5 -24 5 -43 2 -43 -8
-66 -45 -66 -105 0 -97 -34 -115 -211 -108 -132 5 -175 20 -185 65 -4 15 -11
32 -16 39 -5 7 -5 14 2 18 15 9 13 190 -2 216 -11 17 -10 22 7 35 11 8 26 12
35 8 8 -3 39 -7 68 -9 58 -3 77 -18 88 -68 4 -15 11 -30 15 -33 5 -3 9 -14 9
-25 0 -28 38 -43 74 -29 27 10 28 13 22 51 -3 22 -12 49 -19 59 -9 15 -9 24 0
39 6 10 15 70 18 133 8 115 7 115 -16 121 -13 3 -34 1 -49 -6 -20 -10 -25 -20
-25 -48 0 -43 -19 -69 -52 -69 -13 0 -32 -4 -41 -9 -9 -5 -46 -12 -80 -16 -64
-7 -64 -7 -61 28 2 20 0 39 -4 43 -11 11 -8 122 3 129 6 3 10 27 10 51 0 37 5
51 31 76 30 31 30 31 127 25 68 -4 115 -13 157 -29 59 -24 60 -25 66 -69 8
-59 19 -89 33 -89 17 0 59 46 62 68 2 9 7 44 12 77 12 74 4 104 -34 126 -33
20 -80 24 -89 9 -3 -5 -35 -10 -70 -10 -35 0 -67 5 -70 10 -8 13 -118 13 -131
0z"/>
<path d="M1420 1487 c-52 -13 -54 -82 -3 -92 15 -3 39 -11 53 -18 23 -12 25
-18 24 -87 0 -41 -2 -204 -4 -362 -2 -188 -6 -295 -14 -310 -6 -13 -30 -32
-54 -42 -37 -17 -42 -23 -42 -51 0 -51 13 -55 156 -53 71 2 243 1 382 -1 225
-4 254 -2 271 13 15 13 19 37 24 139 6 135 2 176 -21 185 -18 6 -82 -62 -82
-88 0 -36 -33 -111 -57 -130 -23 -18 -41 -20 -178 -20 -153 0 -153 0 -183 28
-30 28 -30 28 -31 194 -1 135 2 168 14 178 19 15 150 4 182 -16 13 -8 28 -35
37 -68 20 -68 48 -105 68 -89 10 9 13 53 13 209 0 174 -2 198 -17 207 -23 15
-51 -12 -66 -62 -15 -47 -35 -65 -92 -79 -127 -31 -144 -23 -144 64 0 33 4 99
9 148 12 126 17 131 154 123 150 -8 179 -20 217 -90 40 -75 49 -84 69 -67 15
13 38 82 49 152 5 29 2 41 -16 62 -23 26 -23 26 -356 28 -182 2 -345 0 -362
-5z"/>
<path d="M2542 1487 c-22 -26 -1 -58 53 -82 32 -15 57 -34 66 -52 14 -28 14
-28 17 26 4 77 0 85 -48 78 -22 -3 -43 -1 -46 5 -9 14 2 21 49 29 40 6 39 7
-19 8 -40 1 -65 -4 -72 -12z"/>
<path d="M3704 1486 c-15 -12 -17 -19 -8 -32 19 -32 34 -28 34 10 0 41 0 41
-26 22z"/>
<path d="M96 1467 c3 -10 9 -15 12 -12 3 3 0 11 -7 18 -10 9 -11 8 -5 -6z"/>
<path d="M708 1475 c-2 -2 -100 -5 -218 -6 -178 -1 -218 -4 -232 -17 -38 -33
-10 -102 41 -102 63 0 85 -64 52 -148 -17 -44 -19 -61 -11 -138 5 -49 12 -104
16 -123 5 -23 2 -36 -7 -43 -11 -7 -11 -11 -1 -15 14 -6 16 -49 2 -58 -13 -8
-13 -91 1 -116 7 -13 7 -24 1 -32 -6 -7 -15 -31 -21 -54 -11 -41 -50 -83 -77
-83 -18 0 -19 -76 -2 -87 17 -10 438 -12 444 -2 2 4 19 3 37 -2 42 -12 94 -12
102 1 9 14 42 12 48 -2 3 -10 8 -9 21 2 11 11 13 23 8 45 -7 25 -14 30 -38 31
-17 0 -34 3 -40 7 -6 3 -36 2 -67 -2 -31 -4 -62 -4 -69 1 -7 4 -44 8 -81 8
-61 0 -71 3 -93 27 -33 35 -35 48 -26 187 8 138 15 148 79 127 21 -7 56 -11
78 -9 39 3 40 5 52 51 6 27 17 54 22 61 17 20 -41 70 -69 61 -12 -4 -32 -8
-43 -10 -12 -1 -34 -8 -49 -15 -24 -11 -31 -11 -48 5 -23 20 -28 103 -9 122 8
8 10 41 7 97 -4 70 -1 89 12 101 11 10 53 15 164 18 148 3 148 3 176 -25 17
-16 31 -44 35 -67 8 -48 28 -69 49 -52 18 15 26 59 13 64 -6 2 -11 20 -10 40
1 20 -4 37 -9 37 -7 0 -6 5 1 13 6 8 8 17 4 20 -3 4 2 16 12 27 31 34 13 52
-47 46 -29 -2 -63 -8 -76 -12 -13 -3 -33 -2 -45 4 -25 12 -83 23 -89 17z m41
-43 c30 -18 30 -18 1 -29 -26 -10 -28 -9 -32 18 -5 34 -6 34 31 11z m172 -22
c7 -18 15 -27 22 -23 8 4 8 1 0 -9 -7 -8 -10 -18 -6 -21 3 -4 -2 -10 -12 -13
-22 -9 -45 19 -45 56 0 49 26 55 41 10z m-283 -466 c25 -5 30 -29 8 -37 -13
-5 -123 20 -136 30 -2 2 2 8 10 13 14 9 58 6 118 -6z"/>
<path d="M989 1418 c-5 -17 -4 -48 3 -48 4 0 8 11 8 25 0 20 -7 34 -11 23z"/>
<path d="M140 1356 c0 -20 11 -24 40 -15 16 4 19 7 8 8 -10 1 -18 6 -18 11 0
6 -7 10 -15 10 -8 0 -15 -6 -15 -14z"/>
<path d="M2652 1240 c1 -38 5 -70 10 -70 4 0 8 32 8 70 0 39 -4 70 -9 70 -6 0
-9 -31 -9 -70z"/>
<path d="M3120 1295 c0 -8 4 -15 10 -15 5 0 7 7 4 15 -4 8 -8 15 -10 15 -2 0
-4 -7 -4 -15z"/>
<path d="M3715 1280 c3 -5 8 -10 11 -10 2 0 4 5 4 10 0 6 -5 10 -11 10 -5 0
-7 -4 -4 -10z"/>
<path d="M657 1265 c-7 -16 8 -29 23 -20 10 6 2 35 -10 35 -4 0 -10 -7 -13
-15z"/>
<path d="M95 1220 c-3 -5 3 -10 15 -10 12 0 18 5 15 10 -3 6 -10 10 -15 10 -5
0 -12 -4 -15 -10z"/>
<path d="M2927 1213 c-15 -14 -6 -33 16 -33 29 0 37 7 30 26 -5 14 -35 19 -46
7z"/>
<path d="M611 1194 c0 -11 3 -14 6 -6 3 7 2 16 -1 19 -3 4 -6 -2 -5 -13z"/>
<path d="M2886 1195 c4 -8 10 -15 15 -15 5 0 9 7 9 15 0 8 -7 15 -15 15 -9 0
-12 -6 -9 -15z"/>
<path d="M140 1170 c0 -13 5 -18 15 -14 8 4 15 10 15 14 0 4 -7 10 -15 14 -10
4 -15 -1 -15 -14z"/>
<path d="M777 1172 c-10 -10 -17 -26 -17 -36 0 -9 -9 -35 -20 -58 -20 -42 -18
-63 5 -54 10 4 14 -12 17 -64 2 -49 0 -66 -8 -59 -18 15 -22 1 -13 -49 16 -89
18 -92 45 -92 26 0 54 20 54 39 0 6 -4 11 -9 11 -17 0 -36 186 -20 196 5 3 9
31 9 63 0 31 5 62 12 69 9 9 7 16 -7 32 -22 25 -28 25 -48 2z"/>
<path d="M3280 1166 c0 -8 -6 -17 -12 -19 -8 -3 -6 -6 5 -6 11 -1 17 6 17 19
0 11 -2 20 -5 20 -3 0 -5 -6 -5 -14z"/>
<path d="M660 1140 c0 -5 7 -10 16 -10 8 0 12 5 9 10 -3 6 -10 10 -16 10 -5 0
-9 -4 -9 -10z"/>
<path d="M3715 1120 c-3 -5 -1 -10 4 -10 6 0 11 5 11 10 0 6 -2 10 -4 10 -3 0
-8 -4 -11 -10z"/>
<path d="M2277 1099 c-21 -12 -22 -32 -3 -48 11 -9 15 -5 19 21 6 40 6 39 -16
27z"/>
<path d="M585 1090 c-3 -5 3 -10 14 -10 12 0 21 5 21 10 0 6 -6 10 -14 10 -8
0 -18 -4 -21 -10z"/>
<path d="M11 950 c-14 -8 -7 -30 9 -30 11 0 21 28 12 34 -5 3 -14 1 -21 -4z"/>
<path d="M276 945 c-3 -9 0 -15 9 -15 9 0 12 6 9 15 -4 8 -7 15 -9 15 -2 0 -5
-7 -9 -15z"/>
<path d="M2554 908 c3 -17 12 -39 20 -47 14 -17 30 -81 19 -81 -3 0 -11 8 -18
17 -11 15 -13 7 -11 -47 1 -65 1 -65 33 -65 21 0 37 -7 47 -20 8 -11 17 -17
21 -13 10 9 -5 88 -16 88 -5 0 -9 21 -10 48 -1 26 -4 58 -9 72 -6 22 -8 23
-15 8 -6 -16 -9 -16 -26 5 -11 15 -16 32 -12 45 4 16 1 22 -12 22 -14 0 -16
-6 -11 -32z"/>
<path d="M3204 929 c-3 -5 7 -9 22 -9 15 0 24 3 20 7 -11 11 -35 12 -42 2z"/>
<path d="M3265 930 c-3 -5 -1 -10 4 -10 6 0 12 -12 12 -27 1 -28 1 -28 8 2 4
17 6 33 4 38 -6 10 -21 9 -28 -3z"/>
<path d="M1714 916 c22 -18 101 -22 111 -6 4 6 -8 10 -28 10 -19 0 -50 3 -68
6 -32 5 -33 5 -15 -10z"/>
<path d="M3213 903 c-8 -3 -11 -14 -7 -29 5 -20 2 -24 -15 -24 -14 0 -21 -6
-21 -20 0 -23 -2 -23 37 -9 23 7 32 18 37 41 8 42 0 54 -31 41z"/>
<path d="M50 866 c0 -2 7 -9 15 -16 12 -10 15 -10 15 4 0 9 -7 16 -15 16 -8 0
-15 -2 -15 -4z"/>
<path d="M2866 825 c4 -8 8 -15 10 -15 2 0 4 7 4 15 0 8 -4 15 -10 15 -5 0 -7
-7 -4 -15z"/>
<path d="M3409 808 c4 -28 6 -29 9 -9 2 13 0 27 -5 32 -6 6 -7 -3 -4 -23z"/>
<path d="M2334 813 c-3 -10 -10 -29 -15 -42 -7 -16 -6 -28 3 -39 7 -8 11 -25
10 -38 -2 -13 1 -24 6 -24 6 0 9 34 8 80 0 44 -2 80 -4 80 -1 0 -5 -8 -8 -17z"/>
<path d="M100 816 c0 -2 6 -9 13 -15 10 -8 14 -7 14 4 0 8 -6 15 -14 15 -7 0
-13 -2 -13 -4z"/>
<path d="M1005 768 c-4 -10 -20 -25 -36 -33 -27 -14 -29 -19 -23 -54 4 -24 2
-41 -5 -45 -6 -4 -11 -18 -11 -32 0 -14 -5 -34 -10 -44 -8 -14 -6 -21 6 -28
12 -6 15 -18 12 -36 -6 -30 1 -37 53 -46 60 -11 68 5 66 133 -2 80 1 107 11
107 7 0 12 13 12 30 0 17 -4 30 -10 30 -5 0 -10 6 -10 14 0 7 -11 16 -25 18
-18 4 -26 0 -30 -14z m45 -53 c0 -7 -7 -21 -16 -29 -8 -9 -12 -21 -9 -26 12
-20 -7 -160 -25 -182 -17 -22 -17 -22 -32 5 -11 21 -12 44 -5 105 16 146 15
144 39 131 12 -7 18 -7 14 -1 -3 6 0 12 6 15 17 6 28 -1 28 -18z"/>
<path d="M2390 785 c-9 -38 -1 -120 15 -141 13 -16 16 -17 24 -4 8 11 5 18
-10 25 -11 6 -18 13 -15 16 2 2 1 29 -4 59 -4 30 -9 51 -10 45z"/>
<path d="M3160 771 c0 -25 6 -27 13 -6 4 8 2 17 -3 20 -6 4 -10 -3 -10 -14z"/>
<path d="M11 771 c-9 -6 -10 -11 -2 -15 15 -10 14 -79 -1 -94 -9 -9 -9 -12 0
-12 7 0 15 0 18 0 7 0 9 118 2 125 -2 2 -10 0 -17 -4z"/>
<path d="M600 759 c0 -5 5 -7 10 -4 6 3 10 8 10 11 0 2 -4 4 -10 4 -5 0 -10
-5 -10 -11z"/>
<path d="M3711 734 c0 -11 3 -14 6 -6 3 7 2 16 -1 19 -3 4 -6 -2 -5 -13z"/>
<path d="M3036 718 c3 -5 10 -6 15 -3 13 9 11 12 -6 12 -8 0 -12 -4 -9 -9z"/>
<path d="M674 679 c2 -24 -3 -33 -22 -40 -30 -11 -24 -31 11 -40 27 -7 27 -7
27 46 0 30 -4 56 -9 59 -5 3 -8 -8 -7 -25z"/>
<path d="M266 681 c-4 -5 -2 -12 3 -15 5 -4 12 -2 15 3 4 5 2 12 -3 15 -5 4
-12 2 -15 -3z"/>
<path d="M2490 664 c-11 -27 -13 -44 -6 -44 2 0 11 -3 19 -6 10 -3 22 4 33 21
16 25 16 26 -2 40 -27 20 -33 19 -44 -11z"/>
<path d="M2617 644 c-4 -4 -7 -14 -7 -23 0 -11 3 -12 11 -4 6 6 10 16 7 23 -2
6 -7 8 -11 4z"/>
<path d="M226 632 c-2 -4 -1 -14 3 -21 6 -10 10 -9 14 3 6 16 -8 32 -17 18z"/>
<path d="M2403 597 c-18 -12 -32 -30 -33 -40 0 -13 -5 -16 -24 -11 -34 8 -57
-7 -28 -17 26 -10 28 -31 7 -49 -27 -22 -16 -30 35 -29 48 2 85 19 41 19 -12
0 -21 5 -21 10 0 15 51 12 83 -5 29 -15 57 -10 70 12 13 21 27 15 27 -12 0
-16 6 -25 16 -25 10 0 14 6 10 15 -3 8 -3 22 0 30 8 19 43 11 61 -13 17 -21
24 -12 30 37 4 28 2 41 -6 41 -6 0 -14 -7 -17 -15 -8 -19 -23 -10 -34 21 -11
28 -32 33 -28 7 2 -12 -5 -19 -21 -21 -18 -3 -33 6 -57 32 -38 41 -64 44 -111
13z"/>
<path d="M3703 563 c-7 -16 -9 -43 -4 -80 0 -7 8 -13 16 -13 12 0 15 13 15 55
0 55 -12 71 -27 38z"/>
<path d="M2270 491 c0 -19 17 -38 25 -29 7 7 -7 48 -16 48 -5 0 -9 -9 -9 -19z"/>
<path d="M148 465 c2 -14 6 -25 7 -25 1 0 5 11 7 25 3 16 1 25 -7 25 -8 0 -10
-9 -7 -25z"/>
<path d="M2625 460 c3 -5 8 -10 11 -10 2 0 4 5 4 10 0 6 -5 10 -11 10 -5 0 -7
-4 -4 -10z"/>
<path d="M3075 420 c-8 -13 15 -24 27 -12 6 6 4 11 -6 15 -8 3 -18 2 -21 -3z"/>
<path d="M3168 408 c9 -9 15 -9 24 0 9 9 7 12 -12 12 -19 0 -21 -3 -12 -12z"/>
<path d="M143 350 c0 -30 2 -43 4 -27 2 15 2 39 0 55 -2 15 -4 2 -4 -28z"/>
<path d="M3406 373 c-6 -14 -5 -15 5 -6 7 7 10 15 7 18 -3 3 -9 -2 -12 -12z"/>
<path d="M3116 372 c-13 -12 -4 -22 20 -22 15 0 24 5 22 12 -4 12 -33 20 -42
10z"/>
<path d="M367 347 c-8 -21 2 -26 33 -16 23 6 23 7 3 8 -12 1 -23 6 -25 13 -3
8 -7 6 -11 -5z"/>
<path d="M655 350 c-16 -7 -17 -9 -3 -9 9 -1 20 4 23 9 7 11 7 11 -20 0z"/>
<path d="M288 317 c-3 -15 -2 -30 3 -32 12 -8 16 8 9 35 -6 25 -6 25 -12 -3z"/>
<path d="M578 333 c6 -2 18 -2 25 0 6 3 1 5 -13 5 -14 0 -19 -2 -12 -5z"/>
<path d="M3340 330 c-23 -7 -23 -8 -3 -9 12 -1 25 4 28 9 3 6 5 10 3 9 -2 -1
-14 -5 -28 -9z"/>
<path d="M3580 331 c0 -5 9 -7 20 -4 11 3 20 7 20 9 0 2 -9 4 -20 4 -11 0 -20
-4 -20 -9z"/>
<path d="M453 298 c-5 -9 -4 -9 42 -10 19 -1 34 2 33 7 -4 10 -68 13 -75 3z"/>
<path d="M3441 268 c1 -16 3 -18 6 -6 2 9 12 19 21 21 12 3 10 5 -5 6 -18 1
-23 -4 -22 -21z"/>
<path d="M150 262 c0 -7 0 -15 0 -18 0 -9 110 -8 111 0 0 4 -2 12 -4 19 -4 9
-6 9 -6 0 -1 -17 -73 -17 -89 -1 -9 9 -12 9 -12 0z"/>
<path d="M2702 138 c-1 -116 2 -138 14 -138 13 0 15 15 11 92 -3 51 -9 113
-15 138 -8 38 -10 22 -10 -92z"/>
<path d="M3631 226 c-14 -16 -157 -22 -175 -6 -10 7 -16 7 -24 -2 -7 -9 -33
-12 -89 -8 -136 9 -596 -4 -600 -16 -2 -6 6 -14 19 -18 13 -3 236 -6 496 -6
465 0 472 0 472 20 0 19 -24 25 -88 23 -10 -1 -10 2 -1 13 6 8 9 14 6 14 -2 0
-10 -6 -16 -14z"/>
<path d="M40 196 c-6 -8 -18 -12 -26 -9 -9 3 -14 -2 -14 -16 0 -22 0 -22 347
-21 348 1 348 1 344 -74 -3 -71 -1 -76 18 -76 19 0 21 6 21 59 0 62 -13 110
-33 123 -7 4 -148 8 -314 8 -190 0 -304 4 -308 10 -9 14 -21 12 -35 -4z"/>
<path d="M1000 105 c0 -8 8 -15 18 -14 10 0 12 3 4 6 -6 2 -10 9 -6 14 3 5 0
9 -5 9 -6 0 -11 -7 -11 -15z"/>
<path d="M1140 110 c0 -6 7 -10 15 -10 8 0 15 2 15 4 0 2 -7 6 -15 10 -8 3
-15 1 -15 -4z"/>
<path d="M1233 105 c2 -5 19 -11 38 -11 45 -2 121 7 115 14 -10 10 -156 7
-153 -3z"/>
<path d="M1692 108 c-9 -4 45 -7 120 -7 75 -1 139 2 141 7 6 9 -237 10 -261 0z"/>
<path d="M2595 110 c-3 -5 -1 -10 4 -10 6 0 11 5 11 10 0 6 -2 10 -4 10 -3 0
-8 -4 -11 -10z"/>
<path d="M1473 103 c31 -2 83 -2 115 0 31 2 5 3 -58 3 -63 0 -89 -1 -57 -3z"/>
<path d="M2161 106 c8 -8 78 -10 85 -3 4 4 -14 7 -41 7 -27 0 -46 -2 -44 -4z"/>
<path d="M2368 103 c7 -3 16 -2 19 1 4 3 -2 6 -13 5 -11 0 -14 -3 -6 -6z"/>
<path d="M2405 100 c-3 -5 -1 -10 4 -10 6 0 11 5 11 10 0 6 -2 10 -4 10 -3 0
-8 -4 -11 -10z"/>
<path d="M1890 14 c0 -8 5 -12 10 -9 6 4 8 11 5 16 -9 14 -15 11 -15 -7z"/>
<path d="M2365 21 c-3 -5 -1 -12 5 -16 5 -3 10 1 10 9 0 18 -6 21 -15 7z"/>
</g>
</svg>
