<?xml version="1.0" standalone="no"?>
<!DOCTYPE svg PUBLIC "-//W3C//DTD SVG 20010904//EN"
 "http://www.w3.org/TR/2001/REC-SVG-20010904/DTD/svg10.dtd">
<svg version="1.0" xmlns="http://www.w3.org/2000/svg"
 width="193.000000pt" height="145.000000pt" viewBox="0 0 193.000000 145.000000"
 preserveAspectRatio="xMidYMid meet">
<metadata>
Created by potrace 1.16, written by Peter Selinger 2001-2019
</metadata>
<g transform="translate(0.000000,145.000000) scale(0.100000,-0.100000)"
fill="#000000" stroke="none">
<path d="M175 1400 c-3 -5 -44 -10 -91 -10 -84 0 -84 0 -84 -515 0 -515 0
-515 59 -515 40 0 65 -5 75 -15 8 -8 28 -15 45 -15 16 0 33 -4 36 -10 8 -13
119 -13 143 -1 31 17 110 31 177 31 39 0 80 6 98 15 43 20 105 120 97 155 -8
34 -31 36 -83 6 -50 -30 -147 -38 -147 -12 0 8 -17 23 -37 34 -34 17 -38 23
-38 57 0 24 -5 40 -14 43 -12 4 -13 -10 -8 -78 3 -51 10 -86 18 -91 23 -14 -8
-37 -59 -43 -129 -18 -153 -18 -187 -1 -32 15 -35 20 -35 60 0 24 -4 47 -10
50 -6 4 -10 60 -10 134 0 145 7 161 71 161 43 0 89 20 89 39 0 11 -11 12 -54
7 -58 -6 -70 1 -94 57 -14 33 -16 236 -3 281 5 17 13 45 18 61 8 28 12 30 63
33 30 2 64 -2 77 -9 15 -8 47 -10 104 -5 75 6 83 5 99 -14 13 -15 17 -31 13
-55 -5 -32 -4 -34 31 -41 20 -3 40 -3 44 1 4 4 6 37 6 73 -1 38 3 73 10 81 8
11 8 15 -1 18 -7 3 -13 13 -13 24 0 17 -8 19 -90 19 -53 0 -90 -4 -90 -10 0
-5 -13 -10 -30 -10 -16 0 -30 5 -30 10 0 6 -33 10 -79 10 -44 0 -83 -4 -86
-10z"/>
<path d="M1731 1131 c-13 -10 -21 -23 -17 -30 4 -6 1 -11 -8 -11 -18 0 -83
-36 -113 -63 -30 -27 -29 -52 4 -96 27 -35 27 -36 31 -236 5 -244 2 -390 -8
-430 -1 -5 -1 -14 0 -20 9 -43 10 -135 1 -135 -6 0 -11 -11 -11 -25 0 -26 1
-26 73 -23 41 2 71 7 70 13 0 6 -4 67 -7 137 -4 108 -3 130 11 143 9 9 23 13
32 10 43 -17 84 -18 93 -2 5 10 18 17 28 17 16 0 20 7 20 38 0 37 0 37 -42 37
-60 0 -104 21 -127 60 -17 30 -19 47 -14 153 3 79 1 128 -7 141 -13 25 -5 77
16 106 12 16 27 20 72 21 111 3 102 -2 102 53 0 53 -16 69 -50 51 -38 -20 -88
-12 -121 21 -25 25 -29 33 -18 40 8 5 17 9 22 9 4 0 7 9 7 20 0 25 -8 25 -39
1z m-33 -772 c7 -13 10 -38 7 -55 -4 -21 0 -35 10 -44 21 -18 19 -37 -6 -43
-40 -11 -45 -1 -45 88 1 87 9 100 34 54z"/>
<path d="M474 1089 c-3 -6 -16 -8 -29 -5 -30 8 -35 -7 -35 -104 0 -92 -9 -104
-69 -94 -32 5 -41 3 -41 -8 0 -22 21 -38 52 -38 15 0 28 -4 28 -10 0 -5 16
-10 35 -10 19 0 49 -9 67 -20 40 -24 66 -25 90 -4 12 12 21 14 30 7 7 -6 35
-11 62 -11 88 -1 118 54 77 142 -11 23 -27 58 -35 78 -17 39 -36 53 -96 75
-43 16 -126 17 -136 2z m179 -104 c20 -18 37 -39 37 -44 0 -14 -86 -101 -99
-101 -17 0 -33 40 -27 68 4 18 -1 37 -14 57 -26 40 -26 43 13 48 17 2 37 4 42
5 6 1 27 -14 48 -33z m-145 -27 c2 -15 10 -32 18 -38 25 -22 15 -31 -32 -28
-54 3 -81 30 -53 51 8 7 18 20 22 30 10 27 41 17 45 -15z m205 -84 c4 -4 -3
-15 -15 -26 -26 -22 -49 -8 -28 17 13 16 32 20 43 9z"/>
<path d="M813 1059 c-7 -7 -13 -24 -13 -37 0 -19 11 -28 59 -49 53 -23 67 -35
118 -106 87 -120 106 -157 99 -191 -7 -35 -147 -169 -208 -199 -48 -24 -65
-55 -48 -87 11 -21 17 -22 111 -18 117 4 130 12 100 61 -11 19 -21 42 -21 52
0 16 74 125 85 125 23 0 58 -27 84 -65 37 -56 38 -65 6 -95 -59 -55 -19 -75
143 -74 94 2 128 6 147 18 29 19 33 44 8 52 -10 3 -27 10 -38 14 -11 5 -30 12
-43 15 -45 13 -201 261 -185 296 18 41 162 175 217 203 48 25 54 31 45 47 -5
10 -15 19 -22 19 -7 1 -43 5 -80 9 -70 9 -137 -1 -137 -20 0 -6 9 -22 20 -36
27 -35 25 -54 -9 -105 -57 -84 -93 -83 -136 2 -31 62 -31 74 1 99 40 31 28 55
-31 62 -135 16 -260 20 -272 8z"/>
<path d="M1858 912 c-12 -5 -15 -11 -8 -22 7 -11 14 -12 27 -4 37 23 23 43
-19 26z"/>
<path d="M1546 883 c-11 -11 -6 -23 9 -23 8 0 15 4 15 9 0 13 -16 22 -24 14z"/>
<path d="M508 763 c-20 -3 -28 -10 -28 -24 0 -22 8 -23 44 -9 23 8 39 43 19
39 -5 -1 -20 -4 -35 -6z"/>
<path d="M1553 710 c-1 -11 2 -20 8 -20 5 0 9 9 9 20 0 11 -4 20 -8 20 -4 0
-8 -9 -9 -20z"/>
<path d="M1546 561 c-11 -16 -4 -101 8 -101 8 0 12 19 12 55 -1 51 -8 67 -20
46z"/>
<path d="M1580 420 c0 -5 5 -10 10 -10 6 0 10 5 10 10 0 6 -4 10 -10 10 -5 0
-10 -4 -10 -10z"/>
<path d="M1853 233 c9 -2 23 -2 30 0 6 3 -1 5 -18 5 -16 0 -22 -2 -12 -5z"/>
<path d="M27 102 c-19 -2 -27 -9 -27 -23 0 -18 10 -19 218 -21 119 -1 232 -1
250 1 30 2 32 0 32 -29 0 -23 4 -30 20 -30 26 0 26 33 0 70 -20 28 -20 28
-148 30 -70 0 -170 2 -222 3 -52 1 -107 1 -123 -1z"/>
<path d="M1791 87 c-17 -22 -3 -27 71 -27 61 0 68 2 68 20 0 18 -7 20 -64 20
-41 0 -68 -5 -75 -13z"/>
<path d="M1587 33 c-14 -13 -6 -33 13 -33 22 0 23 1 14 24 -7 17 -16 20 -27 9z"/>
</g>
</svg>
