<?xml version="1.0" standalone="no"?>
<!DOCTYPE svg PUBLIC "-//W3C//DTD SVG 20010904//EN"
 "http://www.w3.org/TR/2001/REC-SVG-20010904/DTD/svg10.dtd">
<svg version="1.0" xmlns="http://www.w3.org/2000/svg"
 width="160.000000pt" height="131.000000pt" viewBox="0 0 160.000000 131.000000"
 preserveAspectRatio="xMidYMid meet">
<metadata>
Created by potrace 1.16, written by Peter Selinger 2001-2019
</metadata>
<g transform="translate(0.000000,131.000000) scale(0.100000,-0.100000)"
fill="#000000" stroke="none">
<path d="M0 1300 c0 -5 5 -10 10 -10 6 0 10 5 10 10 0 6 -4 10 -10 10 -5 0
-10 -4 -10 -10z"/>
<path d="M147 1275 c-9 -20 -17 -49 -17 -65 0 -16 -4 -32 -10 -35 -16 -10 -13
-160 4 -174 10 -8 12 -24 9 -51 -4 -31 -2 -41 12 -46 13 -5 15 -14 11 -39 -5
-25 -3 -34 10 -39 13 -5 15 -14 10 -41 -5 -27 -3 -37 9 -41 8 -3 15 -16 15
-27 0 -27 48 -77 67 -70 7 3 21 -1 31 -9 43 -38 203 -72 227 -49 6 5 26 14 46
20 25 8 41 21 48 39 14 36 11 90 -6 96 -7 3 -13 15 -13 26 0 13 -4 18 -11 14
-6 -3 -9 -15 -6 -25 6 -21 -17 -44 -33 -34 -7 4 -9 19 -6 34 3 14 3 20 0 14
-9 -20 -69 -16 -87 5 -10 10 -17 23 -17 29 0 6 -6 13 -12 16 -10 3 -12 34 -11
113 3 106 3 132 3 183 0 48 14 52 149 50 168 -2 171 -2 171 19 0 10 7 27 15
38 8 10 15 34 15 52 0 32 0 32 -88 32 -81 0 -91 -2 -111 -24 -19 -20 -36 -25
-95 -30 -39 -3 -99 -8 -133 -12 -63 -6 -63 -6 -63 30 0 36 0 36 -58 36 -57 0
-59 -1 -75 -35z m153 -251 c0 -38 -4 -64 -10 -64 -7 0 -8 -6 -2 -17 7 -11 6
-25 -1 -40 -12 -27 -31 -25 -35 3 -2 10 -8 29 -14 41 -8 16 -6 34 8 75 34 99
54 100 54 2z"/>
<path d="M20 1230 c0 -5 12 -10 26 -10 14 0 23 4 19 10 -3 6 -15 10 -26 10
-10 0 -19 -4 -19 -10z"/>
<path d="M868 1223 c23 -2 59 -2 80 0 20 2 1 4 -43 4 -44 0 -61 -2 -37 -4z"/>
<path d="M1308 1223 c6 -2 18 -2 25 0 6 3 1 5 -13 5 -14 0 -19 -2 -12 -5z"/>
<path d="M1391 1148 c-1 -16 4 -28 9 -28 12 0 12 8 0 35 -8 18 -9 17 -9 -7z"/>
<path d="M569 1096 c-9 -19 -9 -32 1 -57 13 -30 12 -33 -19 -59 -26 -20 -34
-36 -37 -66 -5 -54 13 -96 40 -92 16 2 22 12 27 46 6 49 29 81 29 41 1 -22 1
-23 12 -5 8 15 7 22 -6 31 -13 10 -15 22 -10 54 4 22 13 46 20 52 8 6 11 15 9
20 -3 4 13 13 35 19 59 16 45 34 -28 38 -58 3 -63 1 -73 -22z"/>
<path d="M461 1079 c-19 -8 -21 -12 -11 -24 7 -8 17 -12 23 -8 6 4 26 6 44 5
39 -3 44 14 7 28 -30 12 -32 12 -63 -1z"/>
<path d="M930 990 c0 -5 -1 -13 -2 -17 -2 -5 16 -9 38 -10 23 0 54 -9 69 -19
21 -14 27 -15 23 -4 -2 7 -13 18 -24 24 -10 6 -23 17 -27 24 -9 14 -77 16 -77
2z"/>
<path d="M468 983 c-19 -5 -22 -12 -12 -37 8 -21 20 -20 44 4 18 18 18 20 2
28 -9 5 -25 7 -34 5z"/>
<path d="M890 960 c0 -5 5 -10 10 -10 6 0 10 5 10 10 0 6 -4 10 -10 10 -5 0
-10 -4 -10 -10z"/>
<path d="M842 938 c-7 -7 -12 -19 -12 -27 0 -11 4 -10 20 4 21 19 26 35 12 35
-4 0 -13 -5 -20 -12z"/>
<path d="M922 929 c-49 -14 -109 -81 -117 -131 -5 -29 -10 -37 -16 -27 -6 10
-9 8 -9 -9 0 -13 4 -20 10 -17 5 3 12 -6 16 -19 3 -14 24 -41 45 -61 31 -28
47 -35 80 -35 49 0 72 11 122 58 34 34 37 40 37 94 0 71 -21 125 -52 137 -43
16 -83 19 -116 10z"/>
<path d="M650 856 c0 -24 19 -48 21 -27 4 35 3 45 -8 49 -8 2 -13 -6 -13 -22z"/>
<path d="M1120 774 c0 -45 24 -42 28 4 2 24 -1 32 -12 32 -12 0 -16 -10 -16
-36z"/>
<path d="M612 788 c6 -18 28 -21 28 -4 0 9 -7 16 -16 16 -9 0 -14 -5 -12 -12z"/>
<path d="M677 771 c3 -12 11 -21 18 -21 19 0 11 34 -8 38 -11 2 -14 -2 -10
-17z"/>
<path d="M1105 710 c-3 -5 1 -10 9 -10 9 0 16 5 16 10 0 6 -4 10 -9 10 -6 0
-13 -4 -16 -10z"/>
<path d="M640 690 c0 -21 16 -26 39 -11 18 11 5 31 -20 31 -12 0 -19 -7 -19
-20z"/>
<path d="M780 692 c0 -11 6 -22 14 -25 10 -4 12 0 9 14 -7 27 -23 34 -23 11z"/>
<path d="M677 653 c-12 -11 -8 -23 8 -23 8 0 15 7 15 15 0 16 -12 20 -23 8z"/>
<path d="M197 644 c-4 -4 -7 -18 -7 -31 0 -28 23 -27 28 1 4 20 -11 40 -21 30z"/>
<path d="M820 635 c0 -8 7 -15 15 -15 8 0 15 4 15 9 0 5 -7 11 -15 15 -9 3
-15 0 -15 -9z"/>
<path d="M1018 628 c-32 -11 -37 -28 -9 -28 17 0 49 26 40 34 -2 2 -16 -1 -31
-6z"/>
<path d="M870 606 c0 -2 7 -6 15 -10 8 -3 15 -1 15 4 0 6 -7 10 -15 10 -8 0
-15 -2 -15 -4z"/>
<path d="M1565 371 c-10 -17 12 -21 25 -6 10 12 10 15 -3 15 -9 0 -18 -4 -22
-9z"/>
<path d="M1569 305 c-3 -30 -9 -41 -24 -44 -37 -7 -44 -31 -45 -148 0 -106 1
-113 20 -113 18 0 20 8 22 117 3 114 3 116 27 120 34 5 34 5 18 60 -14 48 -14
48 -18 8z"/>
<path d="M0 299 c0 -20 4 -21 65 -17 65 4 65 4 65 -139 0 -136 1 -143 20 -143
19 0 20 7 20 138 0 75 -4 142 -8 148 -14 22 -52 34 -106 34 -50 0 -56 -2 -56
-21z"/>
<path d="M1001 204 c0 -11 3 -14 6 -6 3 7 2 16 -1 19 -3 4 -6 -2 -5 -13z"/>
<path d="M435 62 c-16 -9 -31 -17 -31 -17 -1 0 -5 -10 -8 -22 -7 -23 -6 -23
84 -23 80 0 91 2 88 17 -3 14 -79 64 -97 63 -3 0 -19 -8 -36 -18z"/>
</g>
</svg>
