<?xml version="1.0" encoding="UTF-8" standalone="no"?>
<svg
   version="1.0"
   width="128.000000pt"
   height="86.000000pt"
   viewBox="0 0 128.000000 86.000000"
   preserveAspectRatio="xMidYMid meet"
   id="svg10"
   sodipodi:docname="d1d93671-11c6-4caa-8539-bcf052f8d208.svg"
   inkscape:version="1.4 (e7c3feb1, 2024-10-09)"
   xmlns:inkscape="http://www.inkscape.org/namespaces/inkscape"
   xmlns:sodipodi="http://sodipodi.sourceforge.net/DTD/sodipodi-0.dtd"
   xmlns="http://www.w3.org/2000/svg"
   xmlns:svg="http://www.w3.org/2000/svg">
  <defs
     id="defs10" />
  <sodipodi:namedview
     id="namedview10"
     pagecolor="#ffffff"
     bordercolor="#000000"
     borderopacity="0.25"
     inkscape:showpageshadow="2"
     inkscape:pageopacity="0.0"
     inkscape:pagecheckerboard="0"
     inkscape:deskcolor="#d1d1d1"
     inkscape:document-units="pt"
     inkscape:zoom="2.5653176"
     inkscape:cx="64.709336"
     inkscape:cy="103.10614"
     inkscape:current-layer="svg10" />
  <metadata
     id="metadata1">
Created by potrace 1.16, written by Peter Selinger 2001-2019
</metadata>
  <path
     d="m 28,21 c -3.1,2.9 -3.2,3.3 -2.8,9 0.2,3.3 0.9,6.5 1.4,7 1.5,1.5 4.4,0.1 4.4,-2.2 0,-5.7 5.3,-7.7 10.3,-3.8 6.4,5 3,16 -8.8,28.4 -6.7,7.2 -7.6,9.4 -4.9,12 2.3,2.3 4.4,2 12,-2 11,-5.7 10.889703,-5.611538 13.865144,-7.279808 C 56.440585,60.451922 59,61.5 56,65.3 c -3.1,3.9 -3,7.1 0,7.6 5.217071,0.652134 25.87677,1.305456 44.4,-25.1 5.6,-8.1 7.6,-13.3 7.6,-20.2 0,-6.9 -1.5,-8.8 -6.5,-8.4 -5.1,0.4 -6.7,3.8 -4.2,9.1 4.3,9.1 -0.1,19 -12.9,28.6 -6.2,4.8 -12.8,7.1 -14.5,5.4 -1.2,-1.2 1.3,-8.4 4.1,-12.3 3.1,-4.3 6.1,-13.8 6.3,-19.8 0.2,-4.8 -0.1,-5.6 -2.6,-7.8 -3.2,-2.8 -6.9,-3.1 -9.1,-0.8 -2,1.9 -2,4.1 -0.1,7.4 2,3.5 1.8,9.7 -0.5,14.7 C 63.443864,53.802736 50.248428,60 49.4,60 46.3,60 46.3,58.9 49.6,45.9 54.6,26.2 50.4,18 35.2,18 32.1,18 30.5,18.7 28,21 Z"
     id="path6"
     style="fill:#000000;stroke:none;stroke-width:0.1"
     sodipodi:nodetypes="ccsscccczcccscccsccccccscsc" />
</svg>
