<?xml version="1.0" standalone="no"?>
<!DOCTYPE svg PUBLIC "-//W3C//DTD SVG 20010904//EN"
 "http://www.w3.org/TR/2001/REC-SVG-20010904/DTD/svg10.dtd">
<svg version="1.0" xmlns="http://www.w3.org/2000/svg"
 width="151.000000pt" height="151.000000pt" viewBox="0 0 151.000000 151.000000"
 preserveAspectRatio="xMidYMid meet">
<metadata>
Created by potrace 1.16, written by Peter Selinger 2001-2019
</metadata>
<g transform="translate(0.000000,151.000000) scale(0.100000,-0.100000)"
fill="#000000" stroke="none">
<path d="M210 1495 c0 -12 -18 -15 -105 -15 -98 0 -105 -1 -105 -20 0 -20 11
-22 142 -24 14 -1 24 -4 21 -8 -2 -5 6 -8 18 -8 12 0 19 3 16 7 -4 3 3 17 15
30 26 28 32 53 12 53 -8 0 -14 -7 -14 -15z"/>
<path d="M1354 1443 c4 -37 12 -73 18 -80 6 -8 34 -13 74 -13 57 0 64 2 64 20
0 16 -8 19 -62 22 -60 3 -63 4 -60 27 6 41 -8 91 -25 91 -14 0 -15 -10 -9 -67z"/>
<path d="M123 1269 c5 -56 3 -71 -9 -76 -8 -3 -23 2 -33 11 -10 9 -32 16 -49
16 -32 0 -32 -1 -32 -50 0 -48 1 -50 28 -50 16 0 42 -12 60 -27 33 -28 33 -28
34 -249 0 -121 -3 -230 -6 -242 -6 -19 -15 -22 -62 -22 -54 0 -54 0 -54 -39 0
-38 0 -38 53 -44 28 -2 78 -2 109 1 46 4 57 8 62 25 3 12 10 17 19 14 11 -4
16 8 20 53 4 38 15 71 32 96 15 23 23 45 19 56 -3 12 -1 18 8 16 7 -2 14 8 16
22 2 24 2 24 -13 6 -14 -19 -15 -18 -15 12 0 20 5 31 12 30 10 -3 16 14 19 57
2 27 -48 139 -72 161 -14 12 -15 21 -6 43 8 23 6 31 -13 54 -13 15 -32 27 -41
27 -10 0 -21 5 -25 12 -12 19 -4 112 11 127 23 23 45 6 45 -35 0 -51 14 -34
17 22 3 44 3 44 -68 44 -72 0 -72 0 -66 -71z m184 -361 c-3 -8 -6 -5 -6 6 -1
11 2 17 5 13 3 -3 4 -12 1 -19z m-113 -31 c0 -9 -1 -33 -2 -52 -3 -58 -22 -39
-22 21 0 40 3 55 13 52 6 -3 12 -12 11 -21z m126 -8 c0 -5 -4 -9 -10 -9 -5 0
-10 7 -10 16 0 8 5 12 10 9 6 -3 10 -10 10 -16z"/>
<path d="M1310 1280 c0 -5 -9 -10 -20 -10 -11 0 -20 -2 -20 -4 0 -2 -3 -12 -7
-21 -5 -15 -1 -16 26 -10 19 4 37 2 45 -4 21 -18 28 24 7 43 -20 18 -31 20
-31 6z"/>
<path d="M318 1193 c7 -3 16 -2 19 1 4 3 -2 6 -13 5 -11 0 -14 -3 -6 -6z"/>
<path d="M1298 1191 c-1 -5 -28 -22 -58 -38 -43 -24 -56 -36 -58 -57 -3 -21 2
-29 17 -33 12 -3 21 -10 21 -17 6 -217 5 -445 -2 -458 -4 -10 -15 -14 -26 -11
-15 4 -21 -2 -26 -27 -3 -18 -3 -36 0 -41 8 -13 61 -11 83 3 15 9 24 8 45 -5
16 -11 35 -15 51 -11 18 4 27 2 31 -10 10 -27 65 -19 102 14 52 47 40 73 -37
83 -24 3 -48 11 -52 19 -5 7 -9 86 -9 175 0 97 -4 164 -10 168 -18 11 -10 43
16 59 14 10 46 17 75 18 49 0 49 0 49 69 0 86 -5 87 -102 17 -23 -17 -50 9
-50 47 0 19 -7 29 -25 36 -30 11 -31 11 -35 0z"/>
<path d="M443 1175 c-39 -17 -41 -28 -8 -66 37 -45 45 -90 45 -269 0 -260 14
-309 98 -351 56 -28 118 -20 185 21 60 37 90 39 105 5 14 -30 48 -39 117 -31
75 8 105 24 105 53 0 12 -4 23 -9 23 -5 0 -26 15 -45 34 -36 33 -36 33 -36
167 0 73 5 183 11 245 14 139 10 159 -37 174 -54 18 -160 4 -179 -23 -23 -33
-18 -45 25 -67 21 -11 45 -30 52 -43 8 -14 14 -79 16 -186 5 -188 -5 -228 -63
-255 -50 -24 -125 -21 -166 7 -56 38 -64 85 -52 322 13 249 12 255 -75 255
-31 -1 -72 -7 -89 -15z"/>
<path d="M288 1129 c-6 -39 19 -55 50 -33 29 20 28 42 -4 54 -37 15 -41 13
-46 -21z"/>
<path d="M1196 934 c-8 -22 -7 -34 3 -34 5 0 9 11 9 25 0 29 -3 31 -12 9z"/>
<path d="M325 620 c3 -5 8 -10 11 -10 2 0 4 5 4 10 0 6 -5 10 -11 10 -5 0 -7
-4 -4 -10z"/>
<path d="M313 585 c-13 -5 -23 -17 -23 -27 0 -25 11 -48 23 -48 6 0 7 3 4 6
-4 4 2 19 13 33 23 33 14 51 -17 36z"/>
<path d="M250 443 c-1 -16 -2 -70 -4 -121 -3 -81 -1 -94 15 -102 12 -7 20 -6
25 2 4 6 2 14 -4 16 -8 2 -12 39 -12 118 0 69 -4 114 -10 114 -5 0 -10 -12
-10 -27z"/>
<path d="M0 331 c0 -16 8 -20 41 -23 41 -3 41 -3 40 -155 -2 -148 -1 -153 19
-153 24 0 22 -7 21 140 -1 192 -9 210 -85 210 -29 0 -36 -4 -36 -19z"/>
<path d="M1202 328 c-7 -7 -12 -20 -12 -30 0 -10 -9 -23 -20 -30 -11 -7 -20
-23 -20 -35 0 -19 5 -22 39 -21 38 0 38 0 38 64 -1 66 -4 73 -25 52z"/>
</g>
</svg>
