<?xml version="1.0" standalone="no"?>
<!DOCTYPE svg PUBLIC "-//W3C//DTD SVG 20010904//EN"
 "http://www.w3.org/TR/2001/REC-SVG-20010904/DTD/svg10.dtd">
<svg version="1.0" xmlns="http://www.w3.org/2000/svg"
 width="83.000000pt" height="96.000000pt" viewBox="0 0 83.000000 96.000000"
 preserveAspectRatio="xMidYMid meet">
<metadata>
Created by potrace 1.16, written by Peter Selinger 2001-2019
</metadata>
<g transform="translate(0.000000,96.000000) scale(0.100000,-0.100000)"
fill="#000000" stroke="none">
<path d="M20 941 c0 -44 23 -68 33 -33 2 9 8 25 12 35 6 14 2 17 -19 17 -19 0
-26 -5 -26 -19z"/>
<path d="M690 952 c0 -4 5 -13 12 -20 18 -18 28 -15 28 8 0 13 -7 20 -20 20
-11 0 -20 -4 -20 -8z"/>
<path d="M448 943 c6 -2 18 -2 25 0 6 3 1 5 -13 5 -14 0 -19 -2 -12 -5z"/>
<path d="M751 931 c-8 -5 -10 -14 -6 -21 5 -8 4 -11 -1 -7 -6 3 -16 2 -23 -2
-10 -7 -11 -13 -2 -27 6 -11 11 -13 11 -6 0 7 5 10 11 7 6 -4 17 2 25 14 11
16 22 19 40 15 20 -5 24 -2 24 15 0 17 -6 21 -32 21 -18 0 -39 -4 -47 -9z"/>
<path d="M50 849 c0 -19 134 -27 145 -9 7 11 7 11 -82 13 -35 1 -63 -1 -63 -4z"/>
<path d="M35 793 c-24 -23 -17 -97 10 -101 11 -1 29 4 40 11 17 13 18 19 7 55
-14 46 -34 58 -57 35z"/>
<path d="M348 781 c-62 -39 -96 -93 -110 -172 -6 -35 -20 -73 -30 -85 -23 -26
-23 -41 2 -54 18 -9 20 -21 20 -100 0 -81 -2 -91 -26 -120 -18 -20 -23 -35
-17 -41 5 -5 47 -9 93 -7 91 3 111 17 62 42 -27 14 -30 20 -34 82 -2 36 -2 85
1 108 6 41 6 41 64 44 83 4 87 -1 87 -118 0 -84 -3 -99 -20 -115 -40 -36 -17
-55 65 -55 62 0 70 10 45 53 -19 32 -21 49 -19 161 1 70 -1 129 -4 133 -4 3
-24 1 -46 -5 -47 -15 -111 -15 -145 -2 -21 8 -26 16 -26 45 0 51 18 116 39
144 24 31 68 32 110 2 60 -43 114 1 67 55 -18 22 -33 28 -77 31 -47 4 -60 1
-101 -26z"/>
<path d="M25 642 c-7 -23 4 -54 16 -46 12 7 12 51 0 59 -5 3 -12 -3 -16 -13z"/>
<path d="M670 554 c-25 -14 -46 -27 -48 -28 -1 -2 5 -23 14 -47 20 -57 12
-214 -13 -242 -21 -23 -9 -33 47 -39 50 -6 92 2 97 18 2 6 -7 22 -21 37 -29
31 -39 97 -28 177 6 47 10 55 27 52 93 -16 85 -19 85 28 0 42 0 42 -32 36 -64
-13 -72 -12 -77 11 -6 23 -6 23 -51 -3z"/>
<path d="M28 553 c-7 -12 -3 -361 4 -368 3 -3 18 0 34 7 16 6 38 12 49 12 11
1 20 8 20 16 0 10 -8 14 -23 13 -23 -3 -23 -3 -21 160 2 162 2 162 -29 165
-16 2 -32 -1 -34 -5z"/>
<path d="M30 130 c0 -5 5 -10 10 -10 6 0 10 5 10 10 0 6 -4 10 -10 10 -5 0
-10 -4 -10 -10z"/>
<path d="M695 130 c-3 -5 1 -10 9 -10 9 0 16 5 16 10 0 6 -4 10 -9 10 -6 0
-13 -4 -16 -10z"/>
<path d="M27 76 c-7 -19 4 -27 21 -17 10 6 10 10 -1 20 -12 9 -16 8 -20 -3z"/>
<path d="M686 71 c-4 -7 -5 -15 -2 -18 9 -9 19 4 14 18 -4 11 -6 11 -12 0z"/>
<path d="M140 66 c0 -2 7 -6 15 -10 8 -3 15 -1 15 4 0 6 -7 10 -15 10 -8 0
-15 -2 -15 -4z"/>
</g>
</svg>
