<?xml version="1.0" standalone="no"?>
<!DOCTYPE svg PUBLIC "-//W3C//DTD SVG 20010904//EN"
 "http://www.w3.org/TR/2001/REC-SVG-20010904/DTD/svg10.dtd">
<svg version="1.0" xmlns="http://www.w3.org/2000/svg"
 width="189.000000pt" height="229.000000pt" viewBox="0 0 189.000000 229.000000"
 preserveAspectRatio="xMidYMid meet">
<metadata>
Created by potrace 1.16, written by Peter Selinger 2001-2019
</metadata>
<g transform="translate(0.000000,229.000000) scale(0.100000,-0.100000)"
fill="#000000" stroke="none">
<path d="M101 2228 c4 -63 4 -63 -48 -60 -48 4 -53 2 -53 -17 0 -18 6 -21 44
-21 25 0 48 5 51 10 3 6 15 10 26 10 17 0 19 7 19 70 0 64 -2 70 -21 70 -19 0
-21 -5 -18 -62z"/>
<path d="M1280 2271 c0 -11 -18 -34 -40 -52 -46 -38 -51 -59 -15 -59 34 0 85
27 85 44 0 14 62 66 79 66 5 0 13 5 16 10 4 6 -18 10 -59 10 -58 0 -66 -2 -66
-19z"/>
<path d="M1560 2285 c0 -3 10 -16 23 -28 34 -32 63 -122 48 -153 -6 -13 -17
-24 -25 -24 -8 0 -21 -8 -28 -18 -7 -10 -22 -22 -33 -26 -29 -11 -115 -15
-145 -6 -27 8 -80 54 -80 69 0 13 -36 42 -43 34 -4 -3 -7 -15 -7 -25 0 -29
-26 -20 -45 15 -17 32 -30 23 -33 -22 -4 -52 13 -91 40 -91 10 0 18 -4 18 -9
0 -19 60 -33 117 -27 32 3 67 5 78 5 137 -5 157 -4 169 14 7 9 17 17 22 17 21
0 95 82 100 110 4 17 11 33 15 36 10 6 12 94 3 118 -5 13 -24 16 -100 16 -52
0 -94 -2 -94 -5z m-242 -231 c28 -8 32 -54 4 -54 -25 0 -102 38 -102 50 0 11
62 13 98 4z m312 -15 c0 -5 -7 -9 -15 -9 -15 0 -20 12 -9 23 8 8 24 -1 24 -14z"/>
<path d="M740 2190 c0 -5 5 -10 10 -10 6 0 10 5 10 10 0 6 -4 10 -10 10 -5 0
-10 -4 -10 -10z"/>
<path d="M930 2190 c0 -5 5 -10 10 -10 6 0 10 5 10 10 0 6 -4 10 -10 10 -5 0
-10 -4 -10 -10z"/>
<path d="M1350 2180 c0 -5 5 -10 10 -10 6 0 10 5 10 10 0 6 -4 10 -10 10 -5 0
-10 -4 -10 -10z"/>
<path d="M204 2036 c1 -8 5 -18 8 -22 4 -3 5 1 4 10 -1 8 -5 18 -8 22 -4 3 -5
-1 -4 -10z"/>
<path d="M202 1930 c-1 -28 3 -48 8 -45 8 5 6 83 -3 92 -3 2 -5 -19 -5 -47z"/>
<path d="M1459 1652 c-91 -3 -97 -4 -107 -27 -19 -41 -1 -68 69 -102 109 -53
103 -32 105 -356 1 -200 -1 -289 -10 -307 -9 -20 -9 -30 1 -50 14 -27 16 -71
7 -107 -6 -20 -13 -23 -59 -23 -60 0 -73 -15 -52 -58 11 -25 18 -27 80 -30 73
-3 81 2 79 57 0 14 -1 245 -1 513 -1 268 -5 488 -9 490 -4 2 -50 2 -103 0z
m-11 -66 c5 -41 -10 -50 -38 -21 -19 21 -21 27 -10 40 20 24 45 14 48 -19z"/>
<path d="M170 1640 c0 -5 -18 -10 -40 -10 -40 0 -40 0 -40 -53 0 -53 0 -53 43
-63 42 -9 42 -9 45 -57 3 -47 25 -87 48 -87 17 0 49 39 51 64 1 11 6 45 11 74
13 78 5 109 -31 127 -34 17 -87 20 -87 5z m76 -55 c10 -25 11 -47 3 -96 -6
-35 -12 -66 -15 -68 -10 -11 -22 18 -34 87 -10 55 -11 78 -2 98 14 30 29 24
48 -21z"/>
<path d="M708 1604 c-9 -3 -20 -14 -23 -25 -8 -26 16 -45 68 -53 60 -10 86
-48 78 -116 0 -8 -3 -158 -6 -332 -2 -199 -8 -325 -15 -338 -6 -11 -23 -22
-38 -26 -48 -10 -80 -25 -86 -41 -7 -18 9 -50 32 -62 10 -5 98 -11 196 -13
159 -3 180 -1 189 14 14 22 -14 54 -65 75 -31 12 -39 21 -44 50 -4 19 -5 190
-2 379 4 314 6 346 23 364 10 11 28 20 41 20 13 0 35 10 50 23 27 24 27 24 -2
44 -24 17 -51 22 -154 27 -69 3 -147 8 -175 10 -27 3 -58 2 -67 0z"/>
<path d="M100 1451 c0 -5 5 -13 10 -16 6 -3 10 -2 10 4 0 5 -4 13 -10 16 -5 3
-10 2 -10 -4z"/>
<path d="M90 1220 c0 -102 3 -130 13 -130 10 0 16 26 20 98 11 154 10 162 -13
162 -19 0 -20 -7 -20 -130z"/>
<path d="M1245 1230 c-21 -16 -42 -30 -46 -30 -5 0 -9 -8 -9 -17 1 -21 86
-120 96 -111 7 8 -12 46 -39 75 -26 29 -16 53 20 50 15 -2 34 4 41 13 9 9 11
10 6 1 -4 -9 -2 -12 7 -9 8 2 15 17 17 31 3 24 0 27 -26 27 -17 0 -44 -12 -67
-30z"/>
<path d="M1440 1225 c-7 -14 -22 -25 -32 -25 -18 0 -27 -12 -32 -43 -1 -8 -7
-21 -13 -28 -6 -8 -22 -37 -37 -66 -32 -64 -52 -80 -43 -35 4 18 3 32 -1 32
-13 0 -32 -39 -26 -55 4 -9 0 -23 -8 -33 -16 -19 -18 -79 -3 -102 5 -8 10 -49
11 -90 1 -72 0 -76 -30 -101 -26 -23 -29 -29 -17 -43 10 -12 31 -16 87 -16 78
0 102 13 57 32 -24 10 -25 12 -8 15 44 9 50 16 20 22 -29 6 -29 6 -26 104 2
79 0 102 -13 116 -21 24 -16 110 8 123 9 5 16 17 16 27 0 25 56 79 103 101 22
10 34 21 28 24 -6 4 -15 4 -21 1 -5 -3 -10 -2 -10 4 0 5 4 11 9 13 14 5 18 40
5 45 -6 2 -16 -8 -24 -22z m-145 -254 c-3 -10 -1 -31 6 -47 6 -16 10 -69 10
-118 0 -49 4 -97 9 -107 17 -30 1 -50 -36 -47 -29 2 -33 5 -28 23 4 11 10 22
13 25 12 9 13 170 2 170 -17 0 -13 86 5 104 20 21 27 20 19 -3z"/>
<path d="M1596 1241 c-3 -5 5 -16 19 -25 22 -14 25 -24 25 -71 0 -42 -3 -55
-15 -55 -19 0 -19 -7 -1 -25 10 -10 13 -31 11 -67 -7 -104 -7 -253 0 -271 4
-9 4 -33 1 -52 -5 -27 -12 -35 -29 -36 -20 -1 -20 -2 -2 -6 11 -3 24 -12 28
-20 6 -10 17 -13 35 -8 14 3 37 1 52 -5 38 -16 80 2 80 33 0 30 -27 54 -65 59
-23 2 -29 7 -27 23 8 55 3 427 -6 438 -6 6 -12 23 -14 36 -1 13 -10 27 -18 31
-8 4 -25 12 -37 18 -27 14 -30 15 -37 3z"/>
<path d="M1270 1176 c0 -2 7 -7 16 -10 8 -3 12 -2 9 4 -6 10 -25 14 -25 6z"/>
<path d="M90 1001 c0 -63 12 -84 29 -52 15 26 2 111 -15 111 -10 0 -14 -16
-14 -59z"/>
<path d="M173 973 c-15 -6 -18 -93 -3 -93 6 0 10 3 11 8 0 4 2 26 5 50 3 23 4
42 2 41 -1 0 -9 -3 -15 -6z"/>
<path d="M268 933 c-10 -2 -18 -10 -18 -18 0 -7 -7 -18 -15 -25 -11 -9 -15
-29 -13 -73 2 -57 3 -59 15 -31 7 16 12 39 13 50 0 29 33 69 49 60 12 -8 14
-80 2 -101 -7 -14 -7 -85 0 -85 3 0 5 -12 4 -27 -1 -23 -6 -29 -30 -31 -64 -8
-74 -42 -12 -42 31 0 48 6 65 24 20 22 22 33 21 132 -2 144 -7 169 -39 171
-14 0 -33 -1 -42 -4z"/>
<path d="M160 845 c0 -8 2 -15 4 -15 2 0 6 7 10 15 3 8 1 15 -4 15 -6 0 -10
-7 -10 -15z"/>
<path d="M160 734 c-14 -7 -35 -13 -47 -14 -21 0 -23 -5 -23 -51 0 -51 0 -51
32 -45 22 4 37 1 50 -11 25 -23 45 -4 28 27 -7 13 -9 37 -5 60 8 45 -1 53 -35
34z"/>
<path d="M100 551 c0 -16 5 -33 10 -36 6 -4 10 6 10 24 0 16 -4 33 -10 36 -6
4 -10 -6 -10 -24z"/>
<path d="M1757 493 c-2 -21 0 -42 4 -47 5 -6 9 10 9 37 0 57 -6 61 -13 10z"/>
<path d="M1759 377 c-41 -9 -47 -13 -46 -36 1 -14 0 -86 -1 -158 -2 -133 -2
-133 -71 -133 -72 0 -101 -6 -101 -21 0 -5 40 -9 88 -9 54 0 93 -5 100 -12 18
-18 22 4 24 176 3 160 3 160 71 157 62 -2 67 -1 67 18 0 17 -6 21 -27 20 -16
-1 -35 1 -43 3 -8 3 -36 1 -61 -5z"/>
<path d="M0 230 c0 -20 5 -21 53 -19 52 3 52 3 55 -104 2 -84 6 -107 17 -107
19 0 28 54 23 146 -4 90 -13 100 -93 103 -50 2 -55 0 -55 -19z"/>
<path d="M224 65 c-15 -37 21 -60 46 -30 10 12 10 18 0 30 -7 8 -19 15 -27 15
-7 0 -16 -7 -19 -15z"/>
<path d="M176 33 c-12 -12 -6 -33 9 -33 8 0 15 6 15 14 0 17 -14 28 -24 19z"/>
<path d="M832 28 c-20 -20 -14 -28 23 -28 37 0 49 22 19 34 -22 8 -28 8 -42
-6z"/>
<path d="M1510 15 c0 -8 5 -15 10 -15 6 0 10 7 10 15 0 8 -4 15 -10 15 -5 0
-10 -7 -10 -15z"/>
</g>
</svg>
