<?xml version="1.0" standalone="no"?>
<!DOCTYPE svg PUBLIC "-//W3C//DTD SVG 20010904//EN"
 "http://www.w3.org/TR/2001/REC-SVG-20010904/DTD/svg10.dtd">
<svg version="1.0" xmlns="http://www.w3.org/2000/svg"
 width="174.000000pt" height="181.000000pt" viewBox="0 0 174.000000 181.000000"
 preserveAspectRatio="xMidYMid meet">
<metadata>
Created by potrace 1.16, written by Peter Selinger 2001-2019
</metadata>
<g transform="translate(0.000000,181.000000) scale(0.100000,-0.100000)"
fill="#000000" stroke="none">
<path d="M100 1785 c0 -27 -5 -29 -62 -26 -32 2 -38 0 -38 -18 0 -17 6 -20 48
-19 57 0 77 13 85 56 6 27 4 32 -13 32 -15 0 -20 -7 -20 -25z"/>
<path d="M1111 1806 c10 -9 79 -14 79 -5 0 5 -19 9 -42 9 -23 0 -39 -2 -37 -4z"/>
<path d="M1508 1803 c6 -2 18 -2 25 0 6 3 1 5 -13 5 -14 0 -19 -2 -12 -5z"/>
<path d="M1598 1794 c12 -8 22 -24 22 -35 0 -20 15 -26 24 -10 9 13 46 1 46
-15 0 -8 10 -14 25 -14 27 0 32 18 14 51 -9 17 -17 19 -50 14 -32 -6 -39 -4
-39 9 0 11 -9 16 -32 16 -32 0 -32 0 -10 -16z"/>
<path d="M380 1765 c0 -23 107 -34 128 -13 21 21 13 25 -58 26 -50 0 -70 -3
-70 -13z"/>
<path d="M1497 1753 c-12 -20 -5 -101 8 -106 9 -4 13 -20 12 -51 -1 -24 1 -48
6 -52 17 -17 26 15 28 96 1 47 6 93 11 103 7 15 4 17 -26 17 -19 0 -37 -3 -39
-7z"/>
<path d="M338 1633 c-18 -5 -23 -28 -12 -57 9 -24 18 -20 33 15 14 33 7 48
-21 42z"/>
<path d="M1614 1614 c3 -9 6 -23 6 -32 0 -15 2 -15 10 -2 15 23 12 50 -6 50
-11 0 -14 -5 -10 -16z"/>
<path d="M96 1603 c-3 -4 -6 -19 -6 -35 0 -21 5 -28 20 -28 15 0 20 7 20 29 0
27 -20 47 -34 34z"/>
<path d="M325 1540 c-3 -5 -2 -10 4 -10 5 0 13 5 16 10 3 6 2 10 -4 10 -5 0
-13 -4 -16 -10z"/>
<path d="M1614 1512 c-4 -13 -14 -22 -26 -22 -10 0 -16 5 -13 10 14 22 -19 8
-57 -24 -22 -19 -45 -33 -52 -30 -6 2 -17 -9 -23 -26 -8 -21 -18 -30 -33 -30
-21 0 -21 0 -1 -26 12 -15 21 -34 21 -43 0 -9 9 -29 19 -45 11 -17 18 -33 15
-37 -2 -4 3 -9 11 -13 23 -8 20 -67 -4 -73 -21 -5 -18 -33 4 -33 17 0 27 -41
13 -57 -9 -11 -13 -11 -19 -2 -6 10 -11 10 -23 0 -17 -14 -11 -41 10 -41 32 0
6 -93 -37 -132 -23 -22 -29 -33 -23 -51 3 -12 8 -23 9 -25 4 -4 139 -22 167
-22 18 0 29 -6 33 -20 10 -32 27 -19 39 30 6 24 17 46 25 48 11 4 12 -2 7 -22
-6 -24 -4 -27 16 -24 23 3 23 3 23 352 0 224 -4 350 -10 353 -5 1 -16 -1 -24
-6 -11 -7 -11 -15 0 -45 12 -32 11 -41 -4 -69 -16 -30 -17 -36 -2 -69 8 -21
15 -65 15 -98 0 -50 -5 -67 -26 -95 -23 -31 -24 -34 -7 -39 28 -9 47 -44 33
-61 -7 -9 -11 -39 -8 -76 4 -71 -12 -88 -37 -40 -9 18 -23 31 -34 31 -35 0
-45 78 -11 87 23 6 26 19 8 26 -10 3 -9 9 3 23 13 16 13 24 3 54 -7 19 -13 31
-14 25 -2 -13 -18 26 -19 45 0 8 4 22 9 30 8 13 11 13 19 1 11 -17 31 -6 31
19 0 25 -17 35 -35 20 -12 -10 -15 -8 -15 11 0 45 20 93 47 114 26 22 26 23
13 71 -16 61 -29 76 -36 46z"/>
<path d="M100 1490 c-8 -5 -34 -10 -57 -10 -43 0 -43 0 -43 -333 0 -333 0
-333 25 -355 29 -25 46 -27 76 -9 18 10 23 9 36 -10 19 -28 39 -29 52 -4 7 13
18 17 34 14 14 -3 28 0 31 6 4 6 18 11 30 11 14 0 26 8 30 18 3 9 8 22 11 28
11 23 -23 42 -64 37 -83 -11 -156 40 -132 93 14 32 14 34 -4 34 -9 0 -15 -9
-15 -25 0 -16 -6 -25 -15 -25 -12 0 -15 17 -15 93 0 58 -4 97 -12 105 -9 9 -9
18 0 37 7 14 12 44 12 65 0 30 4 40 16 40 14 0 15 -10 10 -67 -4 -38 -3 -88 3
-113 6 -29 9 -36 10 -19 1 14 4 28 7 32 10 10 12 112 2 124 -6 7 -4 29 5 61
16 52 12 101 -9 117 -19 15 -21 39 -4 40 19 0 26 19 8 22 -7 2 -20 -1 -28 -7z"/>
<path d="M856 1462 c-68 -23 -130 -86 -150 -153 -28 -92 -22 -121 42 -228 17
-30 32 -61 32 -68 0 -7 -19 -25 -42 -40 -59 -37 -68 -50 -68 -97 0 -36 6 -46
54 -92 30 -28 58 -62 61 -76 5 -21 2 -27 -24 -38 -17 -7 -49 -32 -71 -56 -35
-38 -40 -50 -40 -90 0 -108 55 -182 148 -203 72 -15 228 -8 292 15 80 28 164
111 191 189 38 109 13 218 -63 279 -37 28 -43 30 -198 41 -182 13 -193 18
-204 92 -8 58 9 66 143 65 96 -1 110 1 165 28 48 23 67 39 89 75 15 25 27 54
27 65 0 10 5 42 12 71 10 44 17 54 44 65 42 18 47 27 39 74 -5 31 -11 40 -27
40 -11 0 -74 14 -140 30 -136 34 -234 38 -312 12z m194 -96 c36 -16 60 -71 60
-136 0 -72 -24 -117 -84 -157 -40 -26 -53 -30 -78 -22 -66 19 -98 74 -98 170
0 96 35 145 115 162 23 5 49 0 85 -17z m78 -677 c11 -7 30 -32 42 -56 40 -80
14 -136 -94 -202 -35 -22 -42 -23 -101 -13 -127 21 -175 64 -175 159 0 110 37
134 202 128 61 -2 115 -9 126 -16z"/>
<path d="M278 1439 c-27 -29 -27 -29 3 -44 17 -9 29 -24 29 -35 0 -15 7 -20
29 -20 21 0 36 -9 56 -36 25 -33 27 -42 22 -95 -3 -33 -10 -66 -17 -74 -9 -10
-8 -20 3 -42 27 -52 -5 -189 -50 -216 -7 -4 -13 -16 -13 -25 1 -26 67 -92 93
-92 21 1 21 1 3 15 -28 21 -13 30 52 31 75 2 99 11 107 41 6 25 -11 57 -25 48
-13 -8 -31 58 -30 107 0 23 -3 86 -8 138 -5 52 -7 112 -4 132 5 44 -6 158 -17
177 -6 9 -39 14 -107 17 -99 3 -99 3 -126 -27z"/>
<path d="M185 1450 c-25 -5 -27 -7 -11 -13 15 -6 16 -10 5 -23 -11 -13 -9 -15
17 -10 16 2 31 5 34 5 10 2 6 40 -5 44 -5 2 -23 1 -40 -3z"/>
<path d="M281 1324 c0 -11 3 -14 6 -6 3 7 2 16 -1 19 -3 4 -6 -2 -5 -13z"/>
<path d="M1397 1280 c-6 -22 17 -48 28 -31 5 9 -10 51 -19 51 -2 0 -6 -9 -9
-20z"/>
<path d="M1390 1200 c0 -20 5 -30 15 -30 16 0 19 17 9 44 -10 26 -24 18 -24
-14z"/>
<path d="M1375 1100 c-7 -12 2 -30 16 -30 5 0 9 9 9 20 0 21 -15 27 -25 10z"/>
<path d="M287 1094 c-4 -4 -7 -18 -7 -31 0 -16 6 -23 18 -23 18 0 59 36 51 44
-9 9 -55 17 -62 10z"/>
<path d="M1392 964 c4 -21 22 -23 26 -1 2 10 -3 17 -13 17 -10 0 -15 -6 -13
-16z"/>
<path d="M1700 706 c0 -14 5 -26 10 -26 6 0 10 9 10 19 0 11 -4 23 -10 26 -6
4 -10 -5 -10 -19z"/>
<path d="M340 696 c0 -8 -6 -16 -12 -19 -7 -3 -3 -4 9 -4 12 1 19 5 17 9 -3 4
0 8 6 8 6 0 8 5 5 10 -9 15 -25 12 -25 -4z"/>
<path d="M1622 640 c0 -19 2 -27 5 -17 2 9 2 25 0 35 -3 9 -5 1 -5 -18z"/>
<path d="M1700 640 c0 -5 5 -10 11 -10 5 0 7 5 4 10 -3 6 -8 10 -11 10 -2 0
-4 -4 -4 -10z"/>
<path d="M1620 570 c0 -11 5 -20 10 -20 6 0 10 9 10 20 0 11 -4 20 -10 20 -5
0 -10 -9 -10 -20z"/>
<path d="M1700 525 c0 -8 4 -15 10 -15 5 0 7 7 4 15 -4 8 -8 15 -10 15 -2 0
-4 -7 -4 -15z"/>
<path d="M1620 470 c0 -22 3 -40 8 -40 4 0 7 18 7 40 1 22 -3 40 -7 40 -4 0
-8 -18 -8 -40z"/>
<path d="M1703 425 c0 -33 2 -45 4 -27 2 18 2 45 0 60 -2 15 -4 0 -4 -33z"/>
<path d="M84 426 c-3 -8 -4 -23 -1 -33 3 -12 5 -9 6 9 0 14 7 29 14 31 9 4 9
6 -1 6 -7 1 -15 -5 -18 -13z"/>
<path d="M375 328 c-35 -12 -95 -66 -95 -85 0 -7 -6 -22 -12 -33 -10 -16 -10
-24 0 -40 16 -27 15 -33 -4 -26 -19 7 -54 -20 -54 -41 0 -11 13 -13 53 -11 52
3 52 3 52 83 1 87 6 105 35 105 10 0 20 7 24 15 3 8 14 15 25 15 14 0 19 -5
14 -15 -5 -14 -2 -14 23 -3 16 7 32 17 37 23 4 6 10 1 13 -13 5 -17 13 -22 33
-20 34 2 80 -30 81 -57 0 -11 9 -28 20 -38 26 -22 25 -31 -4 -50 -20 -14 -26
-14 -44 -1 -11 8 -18 21 -16 31 5 23 -10 48 -25 39 -8 -5 -8 -13 -1 -26 5 -10
7 -32 4 -48 -6 -30 -6 -30 57 -34 35 -2 69 0 75 4 12 9 -1 135 -17 154 -5 7
-7 24 -3 38 5 22 3 26 -15 26 -12 0 -30 6 -41 12 -16 10 -24 10 -40 0 -15 -9
-31 -10 -62 -2 -53 12 -74 11 -113 -2z m250 -97 c-10 -9 -24 21 -17 37 4 12 7
10 14 -8 5 -13 6 -25 3 -29z"/>
<path d="M710 269 c18 -33 14 -126 -6 -146 -17 -17 -16 -18 12 -23 29 -5 29
-5 32 67 2 58 -1 78 -15 98 -22 30 -38 33 -23 4z"/>
<path d="M1545 270 c-11 -5 -47 -9 -80 -9 -81 -2 -109 -9 -94 -27 6 -7 17 -10
24 -8 8 4 15 -3 17 -18 3 -20 8 -22 46 -20 33 3 42 0 42 -12 0 -27 -72 -21
-99 8 -14 15 -30 22 -42 19 -24 -7 -24 -20 1 -35 11 -7 20 -18 20 -24 0 -15
28 -26 35 -14 4 6 25 10 48 10 49 0 63 8 69 35 2 12 10 19 21 17 10 -2 17 4
17 13 0 12 6 15 22 10 17 -6 20 -4 15 10 -4 9 -7 25 -7 36 0 20 -21 24 -55 9z
m7 -52 c-15 -15 -26 -4 -18 18 5 13 9 15 18 6 9 -9 9 -15 0 -24z"/>
<path d="M1314 235 c-9 -13 -13 -32 -10 -41 7 -19 26 -9 26 15 0 9 5 22 11 28
7 7 7 13 0 17 -5 4 -18 -5 -27 -19z"/>
<path d="M1693 223 c-13 -19 -14 -28 -5 -31 20 -6 14 -40 -10 -57 -21 -14 -24
-14 -39 6 -16 21 -16 21 -22 -17 -4 -22 -7 -54 -7 -71 0 -33 0 -33 -525 -33
-343 0 -525 -3 -525 -10 0 -7 187 -10 540 -10 540 0 540 0 540 50 0 51 0 51
50 44 33 -4 50 -3 50 4 0 6 -4 14 -10 17 -5 3 -10 28 -10 56 0 27 5 49 10 49
15 0 12 17 -5 24 -9 3 -22 -5 -32 -21z"/>
<path d="M107 233 c-4 -3 -7 -57 -7 -120 0 -113 0 -113 26 -113 26 0 27 1 21
55 -3 30 -1 57 4 60 17 11 10 91 -9 108 -20 19 -26 20 -35 10z"/>
<path d="M351 231 c-7 -5 -11 -16 -9 -25 3 -15 5 -15 23 -2 22 16 10 41 -14
27z"/>
<path d="M426 225 c4 -8 9 -15 14 -15 4 0 15 -18 25 -40 18 -40 35 -53 35 -26
0 8 -4 18 -10 21 -5 3 -10 14 -10 24 0 10 -11 26 -25 35 -30 20 -36 20 -29 1z"/>
<path d="M0 150 c0 -15 7 -20 29 -20 34 0 51 18 30 31 -26 17 -59 10 -59 -11z"/>
<path d="M1533 114 c-5 -12 -18 -15 -67 -12 -51 2 -61 0 -64 -14 -3 -16 6 -18
86 -18 89 0 89 0 84 30 -5 32 -28 41 -39 14z"/>
<path d="M334 54 c3 -9 6 -24 6 -35 0 -17 8 -19 86 -19 64 0 85 3 82 13 -3 7
-27 13 -61 15 -44 2 -59 7 -67 22 -13 25 -55 28 -46 4z"/>
</g>
</svg>
