<?xml version="1.0" encoding="UTF-8" standalone="no"?>
<svg
   version="1.0"
   width="94.000000pt"
   height="148.000000pt"
   viewBox="0 0 94.000000 148.000000"
   preserveAspectRatio="xMidYMid meet"
   id="svg23"
   sodipodi:docname="y.svg"
   inkscape:version="1.4 (e7c3feb1, 2024-10-09)"
   xmlns:inkscape="http://www.inkscape.org/namespaces/inkscape"
   xmlns:sodipodi="http://sodipodi.sourceforge.net/DTD/sodipodi-0.dtd"
   xmlns="http://www.w3.org/2000/svg"
   xmlns:svg="http://www.w3.org/2000/svg">
  <defs
     id="defs23" />
  <sodipodi:namedview
     id="namedview23"
     pagecolor="#ffffff"
     bordercolor="#000000"
     borderopacity="0.25"
     inkscape:showpageshadow="2"
     inkscape:pageopacity="0.0"
     inkscape:pagecheckerboard="0"
     inkscape:deskcolor="#d1d1d1"
     inkscape:document-units="pt"
     inkscape:zoom="1.4906575"
     inkscape:cx="91.234906"
     inkscape:cy="101.633"
     inkscape:current-layer="svg23" />
  <metadata
     id="metadata1">
Created by potrace 1.16, written by Peter Selinger 2001-2019
</metadata>
  <path
     d="m 66.5,24.2 c -3.474438,1.600702 -3.558957,7.665594 -4.1,11.8 -0.7,5.5 -1.6,10.5 -2,11.1 C 59,49.4 57.8,45.9 57.1,37.8 56.3,27.1 54.5,24 49.2,24 c -4.7,0 -7.7,2 -10.2,7 -2.9,5.6 -2.7,7.4 0.8,6.7 1.5,-0.3 3.5,-0.9 4.4,-1.2 3,-1.2 4,3.8 4,21 C 48.3,72.3 48.1,74 45.8,79.7 39.712024,95.830671 30.502387,103.19153 18.689423,113.44567 14.894395,116.75752 17.19602,118.91951 24,118 c 8.584006,-0.88942 24.8,-19.5 39.1,-57.2 8.4,-22 9.9,-26.5 10.5,-31 1.290287,-8.601912 -5.8711,-6.288184 -7.1,-5.6 z"
     id="path3"
     style="fill:#000000;stroke:none;stroke-width:0.1"
     sodipodi:nodetypes="csccscsccczzccc" />
</svg>
