<?xml version="1.0" standalone="no"?>
<!DOCTYPE svg PUBLIC "-//W3C//DTD SVG 20010904//EN"
 "http://www.w3.org/TR/2001/REC-SVG-20010904/DTD/svg10.dtd">
<svg version="1.0" xmlns="http://www.w3.org/2000/svg"
 width="255.000000pt" height="327.000000pt" viewBox="0 0 255.000000 327.000000"
 preserveAspectRatio="xMidYMid meet">
<metadata>
Created by potrace 1.16, written by Peter Selinger 2001-2019
</metadata>
<g transform="translate(0.000000,327.000000) scale(0.100000,-0.100000)"
fill="#000000" stroke="none">
<path d="M0 3168 c0 -102 0 -103 28 -116 78 -37 172 -34 270 9 50 22 55 22 66
7 8 -10 34 -19 67 -24 30 -3 59 -13 66 -21 18 -23 111 -12 134 16 22 28 64 27
120 -2 24 -12 58 -21 74 -20 17 1 57 4 91 7 33 2 70 9 81 17 18 11 25 10 47
-5 23 -15 38 -16 129 -6 92 9 103 9 114 -7 11 -13 10 -20 -4 -35 -9 -10 -12
-18 -7 -19 38 -2 146 0 150 3 2 2 -1 36 -7 74 -24 160 -11 141 -97 140 -77 -1
-77 -1 -80 27 -2 16 2 35 9 43 10 12 2 14 -54 14 -65 0 -65 0 -74 -72 -5 -46
-13 -73 -22 -76 -11 -4 -13 2 -8 27 4 17 3 31 -1 32 -4 0 -20 2 -37 4 -16 2
-43 -2 -59 -10 -16 -8 -57 -15 -91 -15 -73 0 -95 17 -95 73 0 36 -1 37 -35 37
-31 0 -35 -3 -35 -26 0 -14 -5 -34 -11 -45 -9 -17 -17 -19 -50 -14 -31 5 -39
4 -39 -8 0 -9 9 -19 20 -22 25 -8 26 -40 3 -50 -10 -4 -38 -9 -62 -10 -36 -3
-47 0 -67 23 -30 34 -30 47 1 101 14 23 25 45 25 47 0 2 -18 4 -40 4 -45 0
-85 -28 -94 -66 -7 -28 -46 -33 -66 -9 -19 23 -46 18 -92 -15 -45 -33 -70 -37
-108 -15 -14 8 -39 14 -55 15 -41 0 -72 24 -80 60 -13 61 -25 27 -25 -72z"/>
<path d="M2333 3243 c-7 -15 -13 -37 -13 -48 0 -39 -87 -93 -125 -78 -13 4
-54 -31 -55 -48 -1 -18 56 -59 81 -59 16 0 29 -4 29 -10 0 -5 22 -10 49 -10
28 0 53 5 56 10 3 6 39 10 79 10 52 0 77 4 86 15 18 22 2 54 -38 73 -42 19
-61 59 -61 130 -1 42 -1 42 -38 42 -31 0 -40 -5 -50 -27z"/>
<path d="M1648 3006 c-10 -7 -48 -12 -92 -11 -42 1 -76 -2 -76 -7 0 -9 521
-16 610 -8 3 0 -1 4 -9 9 -7 5 -99 8 -204 7 -130 -1 -194 3 -202 10 -8 9 -15
9 -27 0z"/>
<path d="M265 2990 c-30 -8 -30 -8 3 -10 75 -5 137 -2 128 7 -10 10 -96 12
-131 3z"/>
<path d="M650 2990 c-24 -7 -24 -7 10 -14 19 -4 46 -3 60 3 23 9 24 10 3 10
-12 1 -27 3 -35 5 -7 2 -24 1 -38 -4z"/>
<path d="M42 2953 c3 -42 20 -48 29 -11 5 21 -10 48 -26 48 -3 0 -5 -17 -3
-37z"/>
<path d="M418 2983 c6 -2 18 -2 25 0 6 3 1 5 -13 5 -14 0 -19 -2 -12 -5z"/>
<path d="M987 2979 c8 -8 19 -8 40 -1 28 10 28 10 -11 11 -29 1 -37 -2 -29
-10z"/>
<path d="M133 2903 c2 -32 7 -57 12 -55 6 1 10 9 9 17 0 8 -1 33 -2 55 -1 22
-6 40 -12 40 -5 0 -8 -26 -7 -57z"/>
<path d="M2422 2930 c0 -14 2 -19 5 -12 2 6 2 18 0 25 -3 6 -5 1 -5 -13z"/>
<path d="M1265 2932 c-5 -4 -15 -16 -21 -27 -6 -11 -20 -24 -30 -30 -53 -27
-69 -45 -58 -62 14 -22 60 -34 87 -23 12 4 45 30 72 57 28 27 63 58 78 68 15
10 26 20 23 22 -13 13 -77 -23 -130 -72 -61 -57 -71 -62 -81 -45 -3 6 -1 10 4
10 20 0 71 63 71 86 0 26 -1 27 -15 16z"/>
<path d="M43 2845 c-3 -37 -3 -38 20 -29 13 5 13 9 0 35 -8 16 -15 29 -16 29
-1 0 -3 -16 -4 -35z"/>
<path d="M2423 2866 c-9 -11 -9 -15 0 -19 7 -3 14 3 14 14 2 22 2 22 -14 5z"/>
<path d="M2226 2851 c-4 -5 -2 -12 3 -15 5 -4 12 -2 15 3 4 5 2 12 -3 15 -5 4
-12 2 -15 -3z"/>
<path d="M135 2821 c-3 -5 -1 -12 5 -16 5 -3 10 1 10 9 0 18 -6 21 -15 7z"/>
<path d="M135 2780 c3 -5 8 -10 11 -10 2 0 4 5 4 10 0 6 -5 10 -11 10 -5 0 -7
-4 -4 -10z"/>
<path d="M2405 2768 c-9 -29 -9 -51 0 -55 6 -2 12 13 13 32 3 34 -5 47 -13 23z"/>
<path d="M2267 2703 c-4 -3 -7 -11 -7 -17 0 -6 5 -5 12 2 6 6 9 14 7 17 -3 3
-9 2 -12 -2z"/>
<path d="M2401 2632 c2 -24 6 -45 10 -48 9 -5 4 74 -5 83 -4 4 -6 -12 -5 -35z"/>
<path d="M135 2640 c-3 -5 -2 -17 3 -26 8 -14 10 -14 15 5 5 22 -7 38 -18 21z"/>
<path d="M133 2521 c-11 -27 -5 -71 8 -71 14 0 21 44 10 70 -9 25 -9 25 -18 1z"/>
<path d="M1770 2439 c-25 -5 -99 -10 -166 -12 -125 -2 -154 -11 -154 -46 0
-25 40 -58 80 -66 72 -14 77 -22 78 -132 1 -54 9 -164 18 -245 13 -119 14
-151 4 -163 -22 -26 -38 -17 -94 54 -31 39 -60 72 -65 76 -21 13 -193 217
-226 269 -19 30 -39 57 -45 61 -5 3 -33 40 -61 81 -29 41 -64 81 -78 88 -14 8
-78 17 -142 21 -138 8 -159 1 -159 -55 0 -42 14 -60 50 -60 32 -1 101 -32 120
-55 12 -15 14 -46 11 -179 -3 -89 -4 -174 -4 -191 0 -16 3 -105 7 -197 6 -167
6 -167 -23 -191 -16 -13 -48 -27 -71 -31 -56 -9 -80 -23 -80 -46 0 -35 44 -54
103 -45 29 4 117 8 197 9 80 1 151 5 158 9 15 10 16 49 0 65 -7 7 -25 12 -40
12 -39 0 -94 24 -106 47 -9 16 -27 247 -25 318 1 17 -5 55 -13 85 -15 56 -18
137 -8 164 17 45 99 -20 178 -142 25 -37 86 -112 138 -167 51 -54 120 -133
153 -175 147 -189 166 -210 191 -210 43 0 48 32 29 191 -16 133 -15 306 1 375
3 12 0 92 -6 178 -13 180 -10 191 49 183 70 -8 100 16 101 80 0 24 -25 54 -43
52 -7 -1 -32 -5 -57 -10z"/>
<path d="M2403 2412 c1 -14 5 -18 11 -12 7 7 6 14 -1 21 -9 9 -12 7 -10 -9z"/>
<path d="M160 2381 c0 -48 9 -61 45 -61 37 0 50 -12 61 -55 4 -17 11 -35 16
-42 5 -7 6 -18 1 -25 -7 -12 -24 -197 -23 -260 0 -16 1 -47 1 -70 1 -24 1
-106 0 -183 0 -141 0 -141 -30 -163 -36 -26 -64 -28 -82 -5 -8 9 -33 25 -56
35 -57 25 -73 58 -73 151 0 89 9 100 77 96 59 -3 73 4 73 37 0 17 -5 24 -19
24 -11 0 -23 -4 -26 -10 -3 -5 -24 -10 -45 -10 -30 0 -42 5 -51 22 -10 19 -7
25 27 54 22 18 53 36 71 40 29 6 31 9 35 56 1 27 -2 54 -8 59 -12 10 -94 -27
-94 -43 0 -5 -6 -8 -12 -6 -7 3 -21 -6 -31 -18 -16 -21 -17 -46 -15 -275 3
-252 3 -252 37 -270 19 -10 39 -26 44 -34 5 -9 19 -15 31 -13 13 1 29 -2 37
-8 8 -6 49 -9 102 -6 78 4 87 6 87 24 0 10 5 40 12 66 9 37 13 42 19 26 5 -13
8 -7 8 24 1 23 -3 42 -9 42 -5 0 -10 -6 -10 -12 0 -7 -5 -5 -11 5 -6 11 -8 54
-4 115 3 53 5 144 5 202 -1 58 -3 191 -4 295 0 107 -5 193 -11 197 -5 4 -22 4
-37 1 -15 -3 -34 -1 -40 4 -7 6 -32 13 -55 17 -42 6 -43 6 -43 -23z"/>
<path d="M2442 2390 c0 -14 2 -19 5 -12 2 6 2 18 0 25 -3 6 -5 1 -5 -13z"/>
<path d="M370 2370 c0 -13 49 -32 66 -26 22 9 26 -12 4 -24 -11 -6 -20 -7 -20
-3 -1 4 -8 -5 -16 -20 -26 -48 -32 -339 -7 -313 4 3 7 51 7 105 1 55 4 103 9
107 4 4 7 24 7 45 0 43 12 54 55 51 64 -4 84 49 28 76 -32 15 -133 16 -133 2z"/>
<path d="M29 2358 c-5 -18 -6 -38 -1 -34 7 8 12 36 6 36 -2 0 -4 -1 -5 -2z"/>
<path d="M2450 2321 c0 -5 7 -12 16 -15 14 -5 15 -4 4 9 -14 17 -20 19 -20 6z"/>
<path d="M20 2271 c0 -25 6 -27 13 -6 4 8 2 17 -3 20 -6 4 -10 -3 -10 -14z"/>
<path d="M133 2253 c0 -21 -3 -56 -7 -79 -5 -30 -3 -44 8 -53 23 -19 27 1 20
88 -7 82 -22 113 -21 44z"/>
<path d="M2403 2269 c-2 -23 3 -25 10 -4 4 8 3 16 -1 19 -4 3 -9 -4 -9 -15z"/>
<path d="M2184 2183 c-4 -16 -13 -36 -21 -45 -19 -21 -9 -38 21 -38 26 0 36
22 36 78 0 40 -27 44 -36 5z"/>
<path d="M2440 2180 c0 -5 6 -10 14 -10 8 0 16 -5 18 -12 3 -7 7 -5 11 6 4 9
3 15 -2 11 -5 -3 -12 -1 -16 5 -8 13 -25 13 -25 0z"/>
<path d="M2403 2124 c-1 -19 2 -34 7 -34 5 0 7 13 6 30 -3 42 -11 45 -13 4z"/>
<path d="M2137 2068 c-18 -11 -19 -85 -2 -92 19 -7 19 -26 0 -26 -8 0 -15 -4
-15 -10 0 -5 7 -10 15 -10 8 0 15 5 15 10 0 15 26 12 39 -4 7 -8 21 -12 31 -9
11 3 20 0 20 -6 0 -6 10 -11 23 -11 41 0 55 -21 65 -95 9 -66 7 -213 -4 -262
-7 -36 -59 -56 -144 -57 -97 -1 -126 8 -145 44 -16 31 -20 96 -6 104 4 3 6 -6
3 -19 -2 -14 0 -25 6 -25 13 0 23 26 16 44 -3 8 -1 31 5 52 6 21 7 44 2 53 -5
8 -5 26 1 40 5 14 11 67 14 117 5 91 5 93 -21 110 -33 21 -103 15 -139 -14
-26 -20 -26 -20 4 -50 16 -17 30 -40 30 -51 0 -12 5 -21 11 -21 8 0 9 -30 5
-97 -3 -54 -6 -111 -6 -128 0 -16 0 -68 1 -115 0 -104 11 -122 71 -125 50 -2
98 -23 98 -42 0 -14 10 -16 34 -7 9 3 13 10 10 15 -3 5 26 8 64 8 38 -1 78 4
89 9 17 9 25 6 48 -18 31 -32 72 -42 61 -15 -4 12 7 21 39 35 55 24 71 63 36
91 -12 10 -26 19 -33 21 -8 3 -11 70 -9 241 2 237 2 237 -24 263 -19 19 -32
24 -48 19 -12 -4 -35 -9 -52 -12 -16 -2 -37 -7 -45 -10 -40 -16 -131 -5 -155
20 -7 6 2 8 27 4 40 -6 71 14 46 29 -16 11 -66 12 -81 2z"/>
<path d="M207 2064 c-8 -8 1 -24 14 -24 5 0 9 7 9 15 0 15 -12 20 -23 9z"/>
<path d="M200 1980 c0 -5 5 -10 10 -10 6 0 10 5 10 10 0 6 -4 10 -10 10 -5 0
-10 -4 -10 -10z"/>
<path d="M371 1944 c0 -11 3 -14 6 -6 3 7 2 16 -1 19 -3 4 -6 -2 -5 -13z"/>
<path d="M141 1914 c0 -11 3 -14 6 -6 3 7 2 16 -1 19 -3 4 -6 -2 -5 -13z"/>
<path d="M373 1849 c-1 -69 -1 -70 18 -53 27 25 23 124 -5 124 -8 0 -12 -24
-13 -71z"/>
<path d="M2197 1904 c-4 -4 -7 -25 -7 -46 0 -33 -5 -42 -30 -56 -31 -18 -45
-51 -35 -83 6 -19 8 -19 30 -5 22 15 25 14 39 -6 13 -18 13 -25 1 -49 -8 -15
-20 -29 -27 -31 -10 -4 -10 -8 -1 -19 6 -8 13 -25 15 -39 1 -14 11 -26 21 -28
15 -3 17 5 17 57 0 33 5 63 10 66 6 3 10 1 10 -5 0 -6 5 -8 10 -5 12 7 12 122
0 150 -6 14 -9 1 -10 -45 -2 -36 -2 -68 -1 -72 0 -5 -3 -8 -9 -8 -6 0 -10 40
-11 98 0 96 -8 140 -22 126z"/>
<path d="M2121 1838 c0 -28 2 -30 9 -13 12 28 12 45 0 45 -5 0 -10 -15 -9 -32z"/>
<path d="M195 1830 c-11 -17 5 -32 21 -19 7 6 11 15 8 20 -7 12 -21 11 -29 -1z"/>
<path d="M2295 1831 c-3 -5 -1 -12 5 -16 5 -3 10 1 10 9 0 18 -6 21 -15 7z"/>
<path d="M131 1681 c-1 -38 3 -72 9 -76 6 -4 10 18 10 59 0 36 0 69 1 73 0 4
-4 9 -9 11 -5 1 -10 -28 -11 -67z"/>
<path d="M1910 1729 c0 -5 5 -7 10 -4 6 3 10 8 10 11 0 2 -4 4 -10 4 -5 0 -10
-5 -10 -11z"/>
<path d="M372 1670 c0 -19 2 -27 5 -17 2 9 2 25 0 35 -3 9 -5 1 -5 -18z"/>
<path d="M1920 1680 c0 -5 5 -10 10 -10 6 0 10 5 10 10 0 6 -4 10 -10 10 -5 0
-10 -4 -10 -10z"/>
<path d="M2140 1671 c0 -11 5 -23 10 -26 6 -4 10 5 10 19 0 14 -4 26 -10 26
-5 0 -10 -9 -10 -19z"/>
<path d="M1902 1648 c-20 -20 -13 -52 15 -72 24 -18 26 -18 20 -2 -4 10 -7 33
-7 52 0 36 -8 42 -28 22z"/>
<path d="M2240 1580 c0 -16 5 -30 10 -30 6 0 10 14 10 30 0 17 -4 30 -10 30
-5 0 -10 -13 -10 -30z"/>
<path d="M1878 1548 c7 -7 12 -29 12 -49 0 -21 5 -41 11 -44 18 -12 20 0 7 54
-7 34 -17 51 -27 51 -12 0 -12 -3 -3 -12z"/>
<path d="M400 1467 c0 -7 5 -18 12 -25 9 -9 7 -12 -9 -12 -28 0 -37 -15 -18
-30 19 -16 133 -16 148 -1 14 14 -9 41 -34 41 -10 0 -33 9 -51 20 -39 23 -48
25 -48 7z"/>
<path d="M2072 1378 c3 -7 15 -14 29 -16 23 -2 23 -2 5 13 -24 18 -39 20 -34
3z"/>
<path d="M130 1316 c0 -8 5 -18 10 -21 6 -3 10 1 10 9 0 8 -4 18 -10 21 -5 3
-10 -1 -10 -9z"/>
<path d="M2410 1241 c-13 -25 -13 -28 3 -34 8 -3 12 5 12 24 0 34 -1 35 -15
10z"/>
<path d="M2264 1186 c0 -19 4 -32 8 -30 4 3 8 18 8 35 0 16 -4 29 -8 29 -4 0
-8 -15 -8 -34z"/>
<path d="M136 1185 c4 -8 8 -15 10 -15 2 0 4 7 4 15 0 8 -4 15 -10 15 -5 0 -7
-7 -4 -15z"/>
<path d="M142 1115 c0 -16 2 -22 5 -12 2 9 2 23 0 30 -3 6 -5 -1 -5 -18z"/>
<path d="M280 1050 c-12 -8 -11 -10 8 -10 12 0 22 -5 22 -11 0 -6 -8 -8 -17
-5 -16 6 -16 5 0 -8 15 -12 18 -28 17 -108 -1 -51 -1 -104 0 -118 1 -24 2 -24
10 -4 5 12 8 77 7 145 -2 101 -5 124 -17 126 -8 2 -22 -1 -30 -7z"/>
<path d="M0 1026 c0 -8 7 -16 16 -18 13 -3 15 -45 14 -360 0 -224 3 -359 9
-363 6 -3 17 19 26 49 14 47 16 105 14 367 -3 299 -4 311 -23 325 -26 18 -56
18 -56 0z"/>
<path d="M2412 1026 c-22 -12 -24 -19 -24 -99 0 -47 2 -90 5 -94 2 -4 4 -108
5 -231 0 -218 6 -263 33 -246 5 3 9 151 9 330 0 324 0 324 55 324 42 0 55 3
55 15 0 19 -104 20 -138 1z"/>
<path d="M2271 1003 c0 -11 3 -13 6 -5 2 6 9 10 14 6 5 -3 9 0 9 5 0 6 -7 11
-15 11 -8 0 -15 -8 -14 -17z"/>
<path d="M2344 1005 c-9 -21 -2 -26 13 -10 8 9 9 16 3 20 -6 3 -13 -1 -16 -10z"/>
<path d="M317 733 c-16 -16 11 -23 88 -23 50 0 87 4 91 11 4 8 -17 10 -72 8
-44 -2 -84 0 -90 4 -6 3 -14 4 -17 0z"/>
<path d="M560 721 c25 -15 63 -17 67 -3 3 8 -8 12 -39 12 -29 -1 -38 -3 -28
-9z"/>
<path d="M690 721 c-25 -7 -25 -7 2 -13 17 -3 32 0 39 8 13 16 2 17 -41 5z"/>
<path d="M1547 719 c12 -12 369 -11 448 1 31 4 -48 8 -204 8 -174 1 -251 -2
-244 -9z"/>
<path d="M2150 720 c0 -5 20 -10 45 -10 25 0 45 5 45 10 0 6 -20 10 -45 10
-25 0 -45 -4 -45 -10z"/>
<path d="M1058 713 c17 -2 47 -2 65 0 17 2 3 4 -33 4 -36 0 -50 -2 -32 -4z"/>
<path d="M1353 713 c32 -2 81 -2 110 0 29 2 3 3 -58 3 -60 0 -84 -1 -52 -3z"/>
<path d="M550 585 c0 -8 4 -15 10 -15 5 0 7 7 4 15 -4 8 -8 15 -10 15 -2 0 -4
-7 -4 -15z"/>
<path d="M556 501 c-4 -5 -2 -12 3 -15 5 -4 12 -2 15 3 4 5 2 12 -3 15 -5 4
-12 2 -15 -3z"/>
<path d="M918 403 c7 -3 16 -2 19 1 4 3 -2 6 -13 5 -11 0 -14 -3 -6 -6z"/>
<path d="M165 341 c-30 -9 -67 -32 -92 -57 -43 -41 -43 -41 -43 -162 0 -122 0
-122 34 -122 25 0 36 5 41 19 7 22 73 31 226 31 90 0 99 2 113 22 9 12 16 35
16 50 0 38 -38 98 -62 98 -17 0 -19 5 -14 25 11 44 -16 79 -77 98 -63 20 -75
20 -142 -2z m162 -117 c20 -4 21 -5 6 -34 -8 -18 -29 -37 -50 -45 -40 -17
-159 -20 -168 -5 -11 18 4 45 37 65 54 33 90 37 175 19z"/>
<path d="M508 353 c7 -3 16 -2 19 1 4 3 -2 6 -13 5 -11 0 -14 -3 -6 -6z"/>
<path d="M1195 326 c-11 -8 -27 -16 -37 -16 -9 0 -21 -12 -28 -27 -16 -38 -56
-111 -70 -128 -25 -30 -50 -91 -50 -122 0 -33 0 -33 55 -33 31 0 55 5 55 10 0
6 15 19 33 30 28 18 50 20 195 20 164 0 164 0 161 82 -6 153 -35 181 -195 193
-81 5 -103 4 -119 -9z m134 -113 c64 -36 19 -83 -79 -83 -31 0 -61 -5 -67 -11
-14 -14 -49 -3 -57 18 -8 20 30 63 55 63 9 0 19 7 23 15 8 21 86 20 125 -2z"/>
<path d="M2396 325 c-11 -8 -30 -15 -42 -15 -15 0 -25 -8 -30 -22 -4 -13 -17
-36 -30 -51 -32 -39 -34 -121 -3 -137 39 -21 77 -3 104 50 14 27 29 51 35 55
5 3 10 35 10 71 0 68 -8 76 -44 49z"/>
<path d="M564 273 c-42 -46 -43 -75 -4 -105 17 -12 30 -30 30 -39 0 -10 5 -21
10 -24 6 -3 10 -28 10 -56 0 -49 0 -49 65 -49 65 0 65 0 65 44 0 33 7 52 26
75 29 35 53 39 89 15 13 -8 36 -14 52 -12 35 4 62 54 63 115 0 47 -10 56 -71
68 -29 5 -41 2 -65 -18 -53 -44 -70 -49 -104 -32 -16 9 -30 20 -30 25 0 9 -62
30 -89 30 -7 0 -29 -17 -47 -37z"/>
<path d="M2410 98 c-18 -91 -17 -93 8 -96 21 -3 22 -1 22 77 0 45 -4 81 -9 81
-4 0 -14 -28 -21 -62z"/>
<path d="M1833 115 c0 -8 4 -15 9 -15 4 0 8 7 8 15 0 8 -4 15 -8 15 -5 0 -9
-7 -9 -15z"/>
</g>
</svg>
