<?xml version="1.0" encoding="UTF-8" standalone="no"?>
<svg
   version="1.0"
   width="102.000000pt"
   height="118.000000pt"
   viewBox="0 0 102.000000 118.000000"
   preserveAspectRatio="xMidYMid meet"
   id="svg16"
   sodipodi:docname="q.svg"
   inkscape:version="1.4 (e7c3feb1, 2024-10-09)"
   xmlns:inkscape="http://www.inkscape.org/namespaces/inkscape"
   xmlns:sodipodi="http://sodipodi.sourceforge.net/DTD/sodipodi-0.dtd"
   xmlns="http://www.w3.org/2000/svg"
   xmlns:svg="http://www.w3.org/2000/svg">
  <defs
     id="defs16" />
  <sodipodi:namedview
     id="namedview16"
     pagecolor="#ffffff"
     bordercolor="#000000"
     borderopacity="0.25"
     inkscape:showpageshadow="2"
     inkscape:pageopacity="0.0"
     inkscape:pagecheckerboard="0"
     inkscape:deskcolor="#d1d1d1"
     inkscape:document-units="pt"
     inkscape:zoom="1.3220339"
     inkscape:cx="24.961539"
     inkscape:cy="67.698718"
     inkscape:current-layer="svg16" />
  <metadata
     id="metadata1">
Created by potrace 1.16, written by Peter Selinger 2001-2019
</metadata>
  <path
     d="m 70.6,16.5 c -1.9,2.8 -4.2,3.1 -7,1 -6.8,-5.2 -22,3 -30.7,16.5 -9.5,14.5 -9.1,31 0.7,31 5.4,0 13.7,-4.9 19.7,-11.8 1.6,-1.7 3.6,-3.2 4.4,-3.2 2.3,0 1.3,3.9 -6.4,24.9 -6.8,18.4 -6.8,18.4 -11.5,21.3 -2.5,1.6 -4.8,3.4 -5.1,4.2 -0.8,2.1 5.6,3.8 14.4,3.8 9.2,0.1 10.8,-0.8 9.1,-4.7 -1.7,-3.7 -1.5,-6.2 1.2,-15.6 3.8,-13.4 7.2,-26.5 10.1,-38.9 1.5,-6.3 3.6,-14.2 4.6,-17.4 2.2,-6.8 2.4,-10.7 0.7,-12.4 -1.7,-1.7 -2.4,-1.5 -4.2,1.3 z m -7.8,12.3 c 0.5,5.6 -2.4,11.2 -9,17.4 -10,9.5 -19.9,12.7 -20.6,6.7 -0.4,-3.3 5.9,-12.7 13,-19.5 7.1,-6.8 9.7,-8.4 13.3,-8.1 2.6,0.2 3,0.6 3.3,3.5 z"
     id="path5"
     style="fill:#000000;stroke:none;stroke-width:0.1" />
</svg>
