<?xml version="1.0" standalone="no"?>
<!DOCTYPE svg PUBLIC "-//W3C//DTD SVG 20010904//EN"
 "http://www.w3.org/TR/2001/REC-SVG-20010904/DTD/svg10.dtd">
<svg version="1.0" xmlns="http://www.w3.org/2000/svg"
 width="91.000000pt" height="105.000000pt" viewBox="0 0 91.000000 105.000000"
 preserveAspectRatio="xMidYMid meet">
<metadata>
Created by potrace 1.16, written by Peter Selinger 2001-2019
</metadata>
<g transform="translate(0.000000,105.000000) scale(0.100000,-0.100000)"
fill="#000000" stroke="none">
<path d="M20 976 c0 -41 4 -77 9 -80 11 -7 23 37 16 56 -3 8 -1 27 4 41 12 31
5 57 -15 57 -11 0 -14 -17 -14 -74z"/>
<path d="M319 948 c-9 -30 -5 -33 35 -28 41 5 41 5 1 9 -40 5 -40 5 0 11 40 7
40 7 3 9 -21 0 -38 0 -39 -1z"/>
<path d="M90 926 c0 -9 5 -16 10 -16 6 0 10 4 10 9 0 6 -4 13 -10 16 -5 3 -10
-1 -10 -9z"/>
<path d="M453 913 c15 -2 39 -2 55 0 15 2 2 4 -28 4 -30 0 -43 -2 -27 -4z"/>
<path d="M540 910 c0 -5 9 -10 20 -10 11 0 20 5 20 10 0 6 -9 10 -20 10 -11 0
-20 -4 -20 -10z"/>
<path d="M760 905 c7 -8 16 -15 21 -15 5 0 9 7 9 15 0 9 -9 15 -21 15 -18 0
-19 -2 -9 -15z"/>
<path d="M124 883 c4 -8 1 -13 -9 -13 -9 0 -13 -4 -10 -10 10 -15 33 -12 31 5
-1 8 -6 18 -11 22 -4 4 -5 2 -1 -4z"/>
<path d="M650 882 c-32 -5 -52 -21 -48 -40 4 -19 108 -27 108 -9 -1 25 -35 53
-60 49z"/>
<path d="M11 862 c-6 -2 -11 -10 -11 -18 0 -10 7 -13 28 -8 45 10 55 14 48 21
-7 7 -49 10 -65 5z"/>
<path d="M796 784 c-19 -18 -21 -55 -4 -72 16 -16 83 -15 95 1 15 18 10 66 -7
77 -23 15 -67 12 -84 -6z"/>
<path d="M32 778 c-7 -7 -12 -27 -12 -45 0 -30 3 -33 30 -33 23 0 33 6 40 25
17 46 -26 85 -58 53z"/>
<path d="M393 779 c-17 -5 -46 -26 -62 -46 -27 -32 -31 -46 -31 -94 0 -55 -2
-59 -41 -90 -100 -79 -105 -242 -10 -322 24 -20 43 -27 74 -27 74 1 167 58
153 95 -5 14 -9 14 -35 0 -49 -25 -115 -20 -151 13 -67 60 -45 198 34 218 14
3 42 -3 70 -16 36 -16 51 -18 66 -10 39 21 17 50 -52 70 -48 14 -53 19 -56 47
-4 41 22 91 54 103 52 20 94 12 130 -24 19 -19 34 -44 34 -56 0 -31 -29 -89
-52 -103 -22 -15 -23 -30 -2 -48 14 -12 16 -27 11 -99 -11 -148 18 -198 110
-187 48 5 83 32 83 64 0 12 -9 14 -49 8 -67 -9 -75 7 -66 125 8 95 11 100 76
100 31 0 52 21 43 43 -6 16 -61 34 -71 23 -3 -3 -15 -1 -25 5 -17 9 -19 17
-14 51 5 28 1 52 -13 83 -32 71 -115 101 -208 74z"/>
<path d="M22 560 c-28 -12 -29 -43 -2 -70 15 -15 20 -33 19 -72 -1 -80 -15
-162 -27 -166 -7 -2 -12 -15 -12 -28 0 -22 4 -24 45 -24 62 0 97 17 89 44 -4
12 -13 28 -21 37 -20 24 -14 154 7 154 37 0 40 50 5 91 -14 16 -25 32 -25 37
0 10 -50 8 -78 -3z"/>
<path d="M787 563 c-10 -10 -8 -61 2 -68 12 -7 22 -70 24 -159 2 -66 1 -71
-25 -85 -49 -28 -35 -42 38 -39 66 3 66 3 66 178 0 175 0 175 -49 178 -27 1
-52 -1 -56 -5z"/>
<path d="M851 93 c-13 -3 -25 -13 -28 -23 -6 -24 -31 -34 -29 -12 1 18 -25 24
-31 7 -7 -21 23 -44 62 -47 38 -3 40 -2 38 25 -1 22 2 27 23 27 15 0 24 6 24
15 0 15 -13 17 -59 8z"/>
<path d="M0 71 c0 -18 6 -21 49 -21 40 0 50 -3 54 -20 7 -26 27 -26 34 0 3 11
9 20 14 20 14 0 11 26 -3 28 -7 1 -43 5 -80 8 -64 6 -68 5 -68 -15z"/>
<path d="M223 72 c-26 -2 -43 -9 -47 -19 -13 -32 47 -46 69 -16 10 14 26 17
76 15 65 -1 99 4 99 16 0 7 -126 10 -197 4z"/>
<path d="M434 68 c-6 -10 -8 -9 136 -13 116 -2 166 2 155 14 -10 9 -285 8
-291 -1z"/>
</g>
</svg>
