<?xml version="1.0" encoding="UTF-8" standalone="no"?>
<svg
   version="1.0"
   width="128.000000pt"
   height="168.000000pt"
   viewBox="0 0 128.000000 168.000000"
   preserveAspectRatio="xMidYMid meet"
   id="svg24"
   sodipodi:docname="s_s.svg"
   inkscape:version="1.4 (e7c3feb1, 2024-10-09)"
   xmlns:inkscape="http://www.inkscape.org/namespaces/inkscape"
   xmlns:sodipodi="http://sodipodi.sourceforge.net/DTD/sodipodi-0.dtd"
   xmlns="http://www.w3.org/2000/svg"
   xmlns:svg="http://www.w3.org/2000/svg">
  <defs
     id="defs24" />
  <sodipodi:namedview
     id="namedview24"
     pagecolor="#ffffff"
     bordercolor="#000000"
     borderopacity="0.25"
     inkscape:showpageshadow="2"
     inkscape:pageopacity="0.0"
     inkscape:pagecheckerboard="0"
     inkscape:deskcolor="#d1d1d1"
     inkscape:document-units="pt"
     inkscape:zoom="1.8571429"
     inkscape:cx="7.5384616"
     inkscape:cy="68.653846"
     inkscape:current-layer="svg24" />
  <metadata
     id="metadata1">
Created by potrace 1.16, written by Peter Selinger 2001-2019
</metadata>
  <path
     d="m 89.5,19.9 c -2.2,0.5 -5.6,1.5 -7.5,2.4 -2.7,1.2 -5.357219,0.686094 -11.957219,0.286094 C 64.055623,22.271656 59.914969,23.985031 54.6,29.4 44.03616,39.670086 40.025961,54.098894 36,68 c -1.882636,6.918239 -7.937175,40.5015 -13.2,59.5 -3.371001,6.6147 -14.6164627,0.39417 -15.9014933,5.7679 -0.9535566,3.98757 3.010564,5.51927 8.3434003,5.26773 C 24.781409,138.08567 29.36922,134.76395 32.7,123 36.2,112.1 36.636365,105.94009 40.105769,90.003846 43.575174,74.067606 47.408913,56.022443 54,41.6 58.6,32.3 67.02728,28.528875 72.22728,32.628875 67.651068,57.792752 58.035157,91.449209 50.2,118.4 c -3,8.9 -5.3,11.2 -10.6,10.3 -4.054091,-0.91534 -5.131541,0.61568 -4.885031,4.72834 0.158686,1.62788 4.607522,5.96413 14.34268,1.43082 C 52.734545,133.14696 57.225913,128.04391 58.5,121.2 65.949514,95.07637 71.382136,68.30563 78.8,42.1 82.8,28.8 93.7,22 98,30 c 0.5,1 1,2.7 1,3.8 0,2.1 3.1,3.5 5.6,2.5 0.21246,-0.07498 7.58317,-7.352034 0.4,-14.8 -2.1,-1.9 -10,-2.7 -15.5,-1.6 z"
     id="path3"
     style="fill:#000000;stroke:none;stroke-width:0.1"
     sodipodi:nodetypes="ccccscssczcccczzcccsccc" />
</svg>
