<?xml version="1.0" encoding="UTF-8" standalone="no"?>
<svg
   version="1.0"
   width="84.000000pt"
   height="90.000000pt"
   viewBox="0 0 84.000000 90.000000"
   preserveAspectRatio="xMidYMid meet"
   id="svg7"
   sodipodi:docname="r.svg"
   inkscape:version="1.4 (e7c3feb1, 2024-10-09)"
   xmlns:inkscape="http://www.inkscape.org/namespaces/inkscape"
   xmlns:sodipodi="http://sodipodi.sourceforge.net/DTD/sodipodi-0.dtd"
   xmlns="http://www.w3.org/2000/svg"
   xmlns:svg="http://www.w3.org/2000/svg">
  <defs
     id="defs7" />
  <sodipodi:namedview
     id="namedview7"
     pagecolor="#ffffff"
     bordercolor="#000000"
     borderopacity="0.25"
     inkscape:showpageshadow="2"
     inkscape:pageopacity="0.0"
     inkscape:pagecheckerboard="0"
     inkscape:deskcolor="#d1d1d1"
     inkscape:document-units="pt"
     inkscape:zoom="4.902607"
     inkscape:cx="33.247617"
     inkscape:cy="56.602538"
     inkscape:current-layer="svg7" />
  <metadata
     id="metadata1">
Created by potrace 1.16, written by Peter Selinger 2001-2019
</metadata>
  <path
     d="m 41.3,28.3 c -3.4,3.4 -6.6,5.7 -7,5.3 -0.5,-0.4 -0.8,-3.3 -0.8,-6.4 0,-5.7 0,-5.7 -4.4,-6 -3.8,-0.3 -4.8,0.1 -7.7,2.9 -2.5,2.4 -3.4,4.2 -3.4,6.5 0,6.876197 8.100256,1.401534 8.8,5.6 0.3,1.5 -2.6,9.7 -8,23.2 -0.787875,1.930294 -5.757433,14.8 1.8,14.8 3.5,0.1 5.5,-2.7 9.5,-12.7 7.22527,-14.464681 7.122086,-28.334004 24.4,-27 2.4,0 3,-0.5 3.9,-3.3 0.846423,-3.775503 1.038855,-10.409822 -3.9,-10.9 -3.891683,-0.48646 -5.710517,0.730796 -13.2,8 z"
     id="path3"
     style="fill:#000000;stroke:none;stroke-width:0.1"
     sodipodi:nodetypes="ccsccscccccccc" />
</svg>
