<?xml version="1.0" standalone="no"?>
<!DOCTYPE svg PUBLIC "-//W3C//DTD SVG 20010904//EN"
 "http://www.w3.org/TR/2001/REC-SVG-20010904/DTD/svg10.dtd">
<svg version="1.0" xmlns="http://www.w3.org/2000/svg"
 width="158.000000pt" height="190.000000pt" viewBox="0 0 158.000000 190.000000"
 preserveAspectRatio="xMidYMid meet">
<metadata>
Created by potrace 1.16, written by Peter Selinger 2001-2019
</metadata>
<g transform="translate(0.000000,190.000000) scale(0.100000,-0.100000)"
fill="#000000" stroke="none">
<path d="M154 1860 c6 -40 6 -40 -74 -40 -72 0 -80 -2 -80 -19 0 -23 19 -28
92 -23 56 4 57 4 81 50 27 52 25 72 -5 72 -18 0 -20 -4 -14 -40z"/>
<path d="M1364 1868 c9 -48 33 -68 78 -68 22 0 47 -4 56 -9 9 -4 32 -11 50
-14 27 -5 32 -3 32 12 0 38 -34 53 -112 50 -73 -4 -73 -4 -70 29 3 27 0 32
-19 32 -19 0 -21 -4 -15 -32z"/>
<path d="M275 1799 c-4 -6 -5 -12 -2 -15 2 -3 7 2 10 11 7 17 1 20 -8 4z"/>
<path d="M110 1754 c0 -8 5 -12 10 -9 6 4 8 11 5 16 -9 14 -15 11 -15 -7z"/>
<path d="M112 1700 c0 -14 2 -19 5 -12 2 6 2 18 0 25 -3 6 -5 1 -5 -13z"/>
<path d="M192 1583 c3 -64 4 -67 37 -86 34 -18 35 -18 48 0 7 10 17 23 23 30
12 14 13 72 2 90 -4 7 -26 15 -47 18 -22 3 -46 8 -53 10 -10 4 -12 -11 -10
-62z m90 22 c15 -21 8 -74 -11 -84 -31 -17 -58 27 -52 86 1 14 53 12 63 -2z"/>
<path d="M1560 1445 c0 -113 4 -205 8 -205 5 0 8 92 8 205 -1 113 -4 205 -8
205 -5 0 -8 -92 -8 -205z"/>
<path d="M576 1610 c-96 -38 -107 -70 -50 -143 30 -39 38 -58 43 -112 5 -41 2
-83 -6 -114 -20 -80 -31 -204 -34 -376 -4 -264 -3 -305 9 -317 6 -6 69 -14
144 -19 73 -4 138 -9 143 -10 24 -7 122 14 165 36 137 70 198 308 118 460 -28
51 -88 115 -132 137 -51 26 -140 28 -209 5 -55 -19 -81 -12 -90 25 -3 13 -2
106 2 208 11 245 3 262 -103 220z m276 -531 c50 -13 88 -47 122 -109 27 -49
28 -58 24 -134 -6 -94 -21 -128 -77 -179 -72 -65 -155 -70 -224 -14 -36 28
-46 76 -46 217 0 131 10 184 40 216 22 23 29 25 74 19 28 -3 67 -10 87 -16z"/>
<path d="M111 1555 c0 -31 2 -36 9 -23 6 10 7 25 1 40 -9 20 -10 18 -10 -17z"/>
<path d="M1300 1570 c-25 -4 -48 -6 -51 -4 -4 2 -23 -11 -43 -29 -38 -32 -38
-32 -6 -69 18 -21 36 -36 40 -33 4 3 8 -14 8 -37 1 -22 5 -45 11 -51 5 -5 7
-24 4 -42 -6 -36 12 -79 29 -69 10 6 6 117 -7 179 -2 11 -4 30 -4 42 -1 15 -6
21 -16 17 -8 -3 -19 -3 -24 0 -14 9 -2 36 16 36 8 0 21 7 30 15 16 17 52 11
65 -9 4 -6 5 -68 3 -138 -4 -107 -3 -128 10 -128 18 0 26 41 28 160 1 70 5 94
15 93 6 -2 12 -1 12 2 0 5 -70 76 -73 74 -1 -1 -22 -5 -47 -9z"/>
<path d="M110 1494 c0 -8 5 -12 10 -9 6 4 8 11 5 16 -9 14 -15 11 -15 -7z"/>
<path d="M1269 1203 c-1 -5 -1 -11 -1 -15 1 -3 -5 -11 -12 -17 -14 -12 -46 -5
-46 10 0 5 -4 9 -10 9 -25 0 -8 -39 24 -54 28 -13 36 -24 45 -63 10 -45 21
-138 22 -193 1 -14 5 -32 10 -42 6 -11 5 -20 -3 -25 -17 -11 -38 -49 -38 -68
0 -9 4 -14 10 -10 5 3 6 13 3 21 -4 12 -1 15 13 12 29 -5 29 -36 0 -49 -29
-13 -35 -44 -11 -53 12 -4 13 -10 6 -24 -6 -11 -9 -32 -8 -48 2 -26 -1 -29
-28 -27 -20 2 -40 -6 -60 -22 -30 -25 -30 -25 -5 -45 29 -23 56 -22 52 3 -2 9
2 17 8 17 5 0 10 -4 10 -10 0 -5 10 -10 21 -10 16 0 20 5 16 20 -6 24 8 26 22
3 13 -25 107 -34 143 -14 41 23 50 6 30 -57 -10 -29 -23 -57 -30 -61 -23 -14
-54 -83 -48 -106 9 -36 -14 -47 -69 -35 -34 8 -51 8 -59 0 -5 -5 -18 -10 -27
-10 -18 0 -49 -25 -49 -39 0 -5 21 -4 48 1 26 5 58 6 71 3 13 -3 53 -3 90 1
67 6 67 6 89 56 13 28 22 68 21 91 -1 23 2 62 6 86 6 32 4 45 -6 53 -10 6 -3
8 24 6 37 -4 37 -4 37 129 0 90 -4 133 -11 133 -7 0 -10 28 -8 85 3 54 0 84
-6 82 -10 -4 -14 -37 -14 -104 0 -17 -5 -34 -10 -37 -11 -7 -21 19 -27 72 -8
65 -38 132 -58 132 -10 0 -7 -38 6 -64 9 -22 8 -29 -7 -46 -22 -25 -23 -90 -1
-121 9 -13 16 -38 16 -56 0 -18 5 -42 12 -52 15 -24 4 -51 -21 -51 -47 0 -80
62 -81 151 0 19 -5 40 -11 46 -9 9 -6 20 10 46 35 57 52 118 52 193 0 42 6 79
13 90 12 16 14 16 34 -4 27 -27 36 -28 29 -2 -3 13 2 28 15 40 11 10 17 23 13
29 -9 15 -102 14 -109 -1 -3 -10 -9 -8 -19 5 -10 12 -29 17 -71 17 -31 0 -57
-3 -57 -7z m206 -939 c-8 -13 -22 -24 -30 -24 -19 0 -19 34 0 50 8 7 15 23 15
36 0 13 5 24 10 24 6 0 11 8 12 18 1 9 3 -5 5 -31 3 -33 -1 -57 -12 -73z"/>
<path d="M100 1145 c0 -23 -5 -35 -14 -35 -16 0 -29 -100 -15 -114 6 -6 9 -3
9 7 0 9 5 17 11 17 8 0 9 13 5 39 -5 36 -4 39 22 44 17 4 31 1 38 -9 6 -8 17
-14 23 -14 15 0 41 -25 41 -39 0 -5 10 -18 23 -28 25 -20 30 -39 28 -101 -1
-27 4 -44 12 -48 19 -7 14 -144 -7 -185 -18 -36 -14 -48 10 -29 13 11 17 11
24 1 4 -7 10 -9 13 -5 5 10 -10 292 -17 311 -3 6 2 17 10 23 15 14 19 40 5 40
-5 0 -12 -10 -15 -22 -6 -23 -6 -23 -27 2 -15 17 -19 32 -15 53 5 23 2 30 -14
34 -23 6 -28 43 -6 43 29 0 46 -13 46 -34 0 -28 18 -46 47 -46 24 0 31 14 13
25 -5 3 -10 15 -10 26 0 11 -8 23 -17 26 -10 4 -21 11 -25 17 -3 5 -12 11 -20
12 -7 1 -20 5 -29 9 -10 3 -20 2 -24 -4 -9 -16 -35 -13 -35 4 0 11 -12 15 -45
15 -45 0 -45 0 -45 -35z"/>
<path d="M398 1150 c-15 -17 -15 -19 9 -25 31 -7 34 -5 26 23 -6 26 -12 26
-35 2z"/>
<path d="M1556 1115 c-6 -18 2 -45 15 -45 5 0 9 14 9 30 0 32 -14 40 -24 15z"/>
<path d="M436 1076 c3 -13 1 -27 -5 -30 -13 -9 -14 -26 -2 -26 5 0 12 8 15 18
2 9 7 27 11 40 5 16 2 22 -10 22 -11 0 -14 -6 -9 -24z"/>
<path d="M1481 1051 c-1 -27 2 -32 11 -23 8 8 8 17 0 34 -10 22 -11 21 -11
-11z"/>
<path d="M1190 1001 c0 -12 5 -21 10 -21 6 0 10 6 10 14 0 8 -4 18 -10 21 -5
3 -10 -3 -10 -14z"/>
<path d="M177 983 c-16 -4 -17 -19 -16 -162 0 -86 5 -164 10 -172 5 -9 9 19
10 81 0 52 4 132 7 178 4 45 7 81 7 81 0 -1 -8 -3 -18 -6z"/>
<path d="M54 969 c-8 -13 -5 -229 3 -242 3 -5 6 -35 5 -67 0 -68 9 -88 28 -65
10 12 10 19 2 27 -13 13 -17 130 -5 141 10 10 3 120 -8 133 -5 6 -6 25 -3 41
6 31 -9 53 -22 32z"/>
<path d="M406 945 c4 -8 8 -15 10 -15 2 0 4 7 4 15 0 8 -4 15 -10 15 -5 0 -7
-7 -4 -15z"/>
<path d="M420 848 c0 -31 3 -39 10 -28 13 20 13 57 0 65 -6 4 -10 -11 -10 -37z"/>
<path d="M1210 864 c0 -8 5 -12 10 -9 6 3 10 10 10 16 0 5 -4 9 -10 9 -5 0
-10 -7 -10 -16z"/>
<path d="M254 825 c-3 -8 -4 -20 -2 -27 3 -7 7 -1 10 15 6 29 1 36 -8 12z"/>
<path d="M215 770 c-3 -5 -1 -10 4 -10 6 0 11 5 11 10 0 6 -2 10 -4 10 -3 0
-8 -4 -11 -10z"/>
<path d="M1210 755 c0 -8 5 -15 10 -15 6 0 10 7 10 15 0 8 -4 15 -10 15 -5 0
-10 -7 -10 -15z"/>
<path d="M405 730 c-3 -5 -2 -10 4 -10 5 0 13 5 16 10 3 6 2 10 -4 10 -5 0
-13 -4 -16 -10z"/>
<path d="M222 700 c0 -14 2 -19 5 -12 2 6 2 18 0 25 -3 6 -5 1 -5 -13z"/>
<path d="M1170 659 c0 -11 5 -17 10 -14 6 3 10 13 10 21 0 8 -4 14 -10 14 -5
0 -10 -9 -10 -21z"/>
<path d="M329 628 c0 -2 -2 -11 -4 -22 -2 -10 -14 -29 -26 -42 -27 -29 -23
-34 31 -41 30 -4 45 -2 51 8 14 22 11 59 -5 59 -8 0 -18 9 -21 20 -5 16 -23
28 -26 18z m39 -60 c-6 -16 -36 -34 -44 -25 -9 9 15 37 33 37 8 0 13 -5 11
-12z"/>
<path d="M195 594 c-23 -19 -38 -23 -61 -19 -29 5 -32 3 -36 -22 -6 -48 1 -66
25 -58 12 3 46 10 75 14 60 9 83 24 64 43 -7 7 -12 20 -12 29 0 33 -23 39 -55
13z"/>
<path d="M107 435 c-8 -18 11 -31 25 -17 11 11 3 32 -12 32 -4 0 -10 -7 -13
-15z"/>
<path d="M1545 210 c4 -6 11 -8 16 -5 14 9 11 15 -7 15 -8 0 -12 -5 -9 -10z"/>
<path d="M1320 170 c-8 -5 -45 -10 -82 -10 -37 0 -69 -4 -73 -9 -3 -5 6 -21
20 -35 14 -14 25 -30 25 -36 0 -6 26 -10 65 -10 51 0 65 3 65 15 0 8 9 24 20
35 21 21 27 50 11 50 -5 0 -15 2 -23 5 -7 3 -20 0 -28 -5z"/>
<path d="M155 130 c-4 -6 5 -10 19 -10 14 0 26 5 26 10 0 6 -9 10 -19 10 -11
0 -23 -4 -26 -10z"/>
<path d="M274 128 c-6 -9 -2 -10 96 -9 41 1 82 -3 90 -8 15 -10 40 3 40 21 0
11 -220 7 -226 -4z"/>
<path d="M164 61 c-23 -9 -54 -26 -70 -38 -29 -22 -29 -22 109 -23 75 0 137 4
137 8 0 14 -33 40 -73 57 -43 18 -50 18 -103 -4z"/>
<path d="M700 70 c-11 -7 -12 -12 -4 -20 8 -8 14 -7 23 4 14 17 1 28 -19 16z"/>
<path d="M760 10 c-13 -8 -12 -10 3 -10 9 0 17 5 17 10 0 12 -1 12 -20 0z"/>
</g>
</svg>
