<?xml version="1.0" encoding="UTF-8" standalone="no"?>
<svg
   version="1.0"
   width="110.000000pt"
   height="134.000000pt"
   viewBox="0 0 110.000000 134.000000"
   preserveAspectRatio="xMidYMid meet"
   id="svg19"
   sodipodi:docname="f.svg"
   inkscape:version="1.4 (e7c3feb1, 2024-10-09)"
   xmlns:inkscape="http://www.inkscape.org/namespaces/inkscape"
   xmlns:sodipodi="http://sodipodi.sourceforge.net/DTD/sodipodi-0.dtd"
   xmlns="http://www.w3.org/2000/svg"
   xmlns:svg="http://www.w3.org/2000/svg">
  <defs
     id="defs19" />
  <sodipodi:namedview
     id="namedview19"
     pagecolor="#ffffff"
     bordercolor="#000000"
     borderopacity="0.25"
     inkscape:showpageshadow="2"
     inkscape:pageopacity="0.0"
     inkscape:pagecheckerboard="0"
     inkscape:deskcolor="#d1d1d1"
     inkscape:document-units="pt"
     inkscape:zoom="2.3283582"
     inkscape:cx="39.083333"
     inkscape:cy="92.125"
     inkscape:current-layer="svg19" />
  <metadata
     id="metadata1">
Created by potrace 1.16, written by Peter Selinger 2001-2019
</metadata>
  <path
     d="m 68.4,9.4 c -9.8,3.6 -14.8,9.8 -20.5,25.2 -2.8,7.5 -4.3,9.3 -9,10 -2.1,0.4 -4.6,1.2 -5.6,1.9 -1.6,1.2 -1.1,1.6 4.1,3.9 5.8,2.6 5.8,2.6 5.1,7.1 -0.3,2.5 -1.5,7.1 -2.6,10.2 -1.7,5 -3.1,11 -8.9,37.8 -1,4.4 -2.1,8.7 -2.4,9.6 -1.1,2.7 -5,3.9 -8.8,2.8 -4.6,-1.3 -9.4,-1.1 -10.6,0.3 -1.6,2.1 -1.3104359,5.85383 3.31108,7.82917 4.621516,1.97535 13.920516,0.82253 19.68892,-4.62917 4.9,-4.8 5.5,-5.9 8,-15 1.5,-5.5 3.4,-14 4.3,-18.9 0.9,-5 2.1,-11.5 2.6,-14.5 2,-11 4.1,-18.9 5.4,-20 0.8,-0.6 4.4,-1.3 8.2,-1.5 3.7,-0.2 7.7,-0.7 8.9,-1 1.923389,-0.490311 2.12875,-2.620583 0.9,-3.5 C 68.20427,45.356946 63.9,45 61.6,45 57.2,45 55,43.7 55,41 55,38.3 61.2,24.6 64.1,20.9 69.5,14 76.4,13.6 77.7,20 c 0.9,4.6 2.9,5.7 6.1,3.3 6.5,-4.8 4.8,-12.2 -3.2,-14.2 -5.3,-1.3 -8,-1.3 -12.2,0.3 z"
     id="path1"
     style="fill:#000000;stroke:none;stroke-width:0.1"
     sodipodi:nodetypes="ccccccccccczcccccccsssccccc" />
</svg>
