<?xml version="1.0" standalone="no"?>
<!DOCTYPE svg PUBLIC "-//W3C//DTD SVG 20010904//EN"
 "http://www.w3.org/TR/2001/REC-SVG-20010904/DTD/svg10.dtd">
<svg version="1.0" xmlns="http://www.w3.org/2000/svg"
 width="107.000000pt" height="128.000000pt" viewBox="0 0 107.000000 128.000000"
 preserveAspectRatio="xMidYMid meet">
<metadata>
Created by potrace 1.16, written by Peter Selinger 2001-2019
</metadata>
<g transform="translate(0.000000,128.000000) scale(0.100000,-0.100000)"
fill="#000000" stroke="none">
<path d="M30 1265 c0 -8 6 -15 14 -15 7 0 19 -7 26 -15 18 -21 135 -22 127 0
-4 8 -2 17 3 20 27 17 1 25 -80 25 -73 0 -90 -3 -90 -15z"/>
<path d="M895 1256 c0 -36 10 -40 13 -6 1 17 -1 30 -6 30 -4 0 -8 -11 -7 -24z"/>
<path d="M1004 1262 c-21 -14 -22 -48 -2 -61 25 -15 29 -11 31 30 2 32 -9 45
-29 31z"/>
<path d="M941 1246 c-9 -10 -8 -15 4 -20 8 -3 15 -4 15 -2 0 3 3 11 6 20 8 20
-9 21 -25 2z"/>
<path d="M498 1233 c7 -3 16 -2 19 1 4 3 -2 6 -13 5 -11 0 -14 -3 -6 -6z"/>
<path d="M165 1170 c-3 -5 -1 -10 4 -10 6 0 11 5 11 10 0 6 -2 10 -4 10 -3 0
-8 -4 -11 -10z"/>
<path d="M1030 1115 c0 -48 2 -55 20 -55 18 0 20 7 20 55 0 48 -2 55 -20 55
-18 0 -20 -7 -20 -55z"/>
<path d="M40 1134 c0 -8 5 -12 10 -9 6 3 10 10 10 16 0 5 -4 9 -10 9 -5 0 -10
-7 -10 -16z"/>
<path d="M100 1081 c1 -82 -5 -110 -24 -124 -19 -14 -16 -54 3 -42 5 3 13 0
17 -6 9 -15 11 -119 2 -125 -4 -2 -5 -14 -2 -27 3 -12 5 -86 5 -165 1 -143 1
-143 -31 -175 -33 -32 -33 -32 -27 5 4 27 2 38 -10 42 -27 11 -33 -4 -33 -79
0 -76 10 -95 40 -70 23 20 87 24 75 5 -13 -21 25 -21 51 -1 15 12 32 21 39 21
7 0 15 14 17 30 3 22 1 29 -8 26 -7 -3 -21 10 -32 27 -14 25 -20 61 -25 151
-4 70 -2 126 3 136 6 10 10 47 11 82 1 35 6 66 12 70 6 4 4 20 -7 47 -20 51
-20 71 -1 71 18 0 19 14 4 38 -8 12 -20 17 -35 14 -18 -3 -24 0 -24 13 0 13 6
16 25 13 20 -4 28 1 39 22 18 37 10 46 -42 47 -43 0 -43 0 -42 -46z"/>
<path d="M37 1098 c-3 -8 -2 -21 3 -27 11 -19 23 5 12 25 -8 14 -10 14 -15 2z"/>
<path d="M917 1069 c-7 -28 20 -46 40 -27 18 18 12 33 -16 41 -13 3 -21 -1
-24 -14z"/>
<path d="M0 959 c0 -47 2 -50 23 -47 18 2 21 8 19 32 -2 22 3 35 20 48 23 18
23 18 -19 18 -43 0 -43 0 -43 -51z"/>
<path d="M520 1001 c-58 -19 -108 -52 -155 -104 -88 -97 -86 -93 -52 -125 42
-39 84 -20 118 53 8 16 27 36 44 44 26 13 33 12 64 -5 45 -24 61 -55 61 -120
0 -73 -17 -90 -121 -118 -108 -30 -122 -38 -148 -80 -25 -40 -28 -123 -7 -164
39 -75 104 -97 181 -63 61 27 90 27 143 -1 42 -23 42 -23 79 -3 22 11 42 32
47 47 8 23 5 33 -21 65 -52 66 -52 69 -50 264 2 170 0 188 -20 231 -11 25 -32
54 -46 63 -30 20 -83 27 -117 16z m65 -438 c23 -22 12 -101 -17 -125 -55 -48
-156 14 -140 85 4 22 75 56 114 57 15 0 34 -7 43 -17z"/>
<path d="M935 989 c-55 -31 -95 -63 -95 -77 0 -8 11 -34 25 -58 30 -51 44
-140 44 -283 1 -119 -13 -162 -60 -181 -24 -10 -28 -17 -23 -34 9 -29 4 -28
101 -34 90 -5 107 -13 97 -45 -5 -15 -1 -18 18 -15 22 3 23 8 26 87 2 63 -1
86 -12 95 -8 6 -17 31 -21 54 -7 42 -6 43 14 33 21 -12 21 -10 21 94 0 62 -4
106 -10 106 -5 1 -14 2 -19 3 -5 0 -12 4 -15 7 -9 9 22 133 34 137 5 2 10 28
10 58 0 54 0 54 -37 54 -21 0 -47 2 -58 5 -11 3 -29 0 -40 -6z"/>
<path d="M240 925 c0 -14 5 -25 10 -25 6 0 10 11 10 25 0 14 -4 25 -10 25 -5
0 -10 -11 -10 -25z"/>
<path d="M70 756 c0 -31 6 -34 13 -6 3 11 1 23 -4 26 -5 3 -9 -6 -9 -20z"/>
<path d="M198 775 c-12 -22 -18 -64 -9 -70 15 -9 29 27 22 55 -4 14 -9 20 -13
15z"/>
<path d="M242 305 c-13 -16 -5 -19 22 -9 9 3 13 10 10 15 -7 13 -17 11 -32 -6z"/>
<path d="M939 257 c14 -18 71 -24 71 -7 0 6 -11 10 -24 10 -13 0 -33 3 -43 7
-16 6 -16 5 -4 -10z"/>
<path d="M41 138 c-1 -16 4 -28 9 -28 12 0 12 8 0 35 -8 18 -9 17 -9 -7z"/>
<path d="M1015 123 c-4 -15 -10 -35 -14 -43 -5 -8 -6 -30 -3 -48 3 -23 10 -32
23 -32 16 0 19 8 19 55 0 42 3 55 15 55 8 0 15 7 15 16 0 8 -5 12 -10 9 -6 -4
-17 -1 -25 5 -12 10 -15 6 -20 -17z"/>
<path d="M0 85 c0 -8 6 -14 13 -12 7 1 13 -12 15 -35 4 -50 32 -53 32 -4 0 19
-3 41 -6 50 -8 21 -54 21 -54 1z"/>
<path d="M203 73 c9 -2 25 -2 35 0 9 3 1 5 -18 5 -19 0 -27 -2 -17 -5z"/>
</g>
</svg>
