<?xml version="1.0" standalone="no"?>
<!DOCTYPE svg PUBLIC "-//W3C//DTD SVG 20010904//EN"
 "http://www.w3.org/TR/2001/REC-SVG-20010904/DTD/svg10.dtd">
<svg version="1.0" xmlns="http://www.w3.org/2000/svg"
 width="187.000000pt" height="211.000000pt" viewBox="0 0 187.000000 211.000000"
 preserveAspectRatio="xMidYMid meet">
<metadata>
Created by potrace 1.16, written by Peter Selinger 2001-2019
</metadata>
<g transform="translate(0.000000,211.000000) scale(0.100000,-0.100000)"
fill="#000000" stroke="none">
<path d="M44 2096 c-10 -27 1 -50 29 -60 21 -8 35 -5 65 12 21 12 37 29 37 39
0 15 -10 18 -63 21 -48 2 -64 0 -68 -12z"/>
<path d="M970 2101 c0 -19 43 -40 98 -47 29 -4 55 -11 58 -15 7 -12 44 -12 44
0 0 5 23 12 51 16 39 6 54 4 68 -9 33 -30 131 -11 131 27 0 15 -15 17 -172 19
-191 1 -211 2 -250 13 -18 5 -28 3 -28 -4z"/>
<path d="M1728 2103 c-33 -4 -37 -7 -40 -36 -2 -24 -9 -33 -28 -37 -17 -4 -26
-15 -31 -36 -3 -17 -9 -36 -13 -42 -11 -18 12 -52 35 -52 19 0 81 37 88 53 2
5 14 12 27 17 21 8 24 16 24 65 0 30 0 58 1 63 0 9 -15 10 -63 5z"/>
<path d="M273 2077 c-36 -39 -29 -47 40 -47 35 0 68 -5 74 -11 15 -15 63 -3
63 16 0 24 -60 58 -109 62 -39 3 -49 0 -68 -20z"/>
<path d="M555 2089 c-4 -5 44 -45 73 -63 30 -18 162 -5 162 15 0 5 11 15 25
21 55 25 26 33 -116 33 -77 0 -142 -2 -144 -6z"/>
<path d="M1840 2080 c0 -5 7 -10 15 -10 8 0 15 5 15 10 0 6 -7 10 -15 10 -8 0
-15 -4 -15 -10z"/>
<path d="M46 2001 c-4 -6 -6 -53 -5 -104 1 -88 1 -92 -20 -91 -14 0 -21 -5
-21 -18 0 -22 37 -19 54 4 6 8 20 20 31 26 11 6 15 12 8 12 -7 0 -11 26 -12
77 0 52 -5 82 -15 91 -9 10 -16 11 -20 3z"/>
<path d="M1019 1602 c-118 -2 -150 -6 -160 -18 -11 -13 -8 -19 17 -39 16 -14
34 -25 39 -25 6 0 23 -11 39 -24 27 -23 28 -26 22 -82 -4 -33 -9 -185 -11
-339 -8 -560 -24 -614 -169 -554 -48 19 -56 20 -82 8 -42 -20 -55 -79 -27
-117 50 -67 162 -47 273 50 54 47 73 71 91 116 12 31 28 71 35 87 8 19 14 107
18 240 16 546 18 580 31 594 7 7 34 17 60 22 27 5 54 14 61 20 18 14 18 52 2
46 -7 -2 -20 -1 -28 3 -27 13 -63 15 -211 12z"/>
<path d="M210 1350 c-13 -9 -13 -11 -1 -19 8 -5 20 -7 27 -4 7 2 17 -5 24 -16
6 -12 19 -21 29 -21 27 0 71 -45 71 -73 0 -32 -49 -49 -110 -37 -40 8 -47 6
-61 -12 -13 -17 -23 -20 -55 -15 -50 8 -74 -4 -54 -28 10 -12 13 -43 11 -116
-3 -99 -3 -99 26 -97 36 3 43 13 43 70 0 35 -6 54 -25 76 -13 16 -22 32 -18
36 3 3 26 6 51 6 31 0 43 4 39 13 -5 13 21 16 156 19 77 1 77 1 77 44 0 23 -5
46 -11 50 -6 3 -8 17 -4 31 6 27 -28 72 -55 73 -8 0 -28 7 -44 15 -32 17 -94
20 -116 5z m179 -109 c0 -14 -1 -14 -6 -1 -3 8 -10 24 -15 35 -9 20 -9 20 6 1
9 -11 16 -27 15 -35z m21 -52 c0 -10 -7 -19 -15 -19 -15 0 -21 31 -9 43 11 10
24 -3 24 -24z"/>
<path d="M62 1323 c-24 -5 -24 -3 -12 -81 0 -1 9 3 19 10 15 9 26 9 44 1 30
-14 47 -1 47 34 0 16 -8 27 -26 33 -26 10 -32 10 -72 3z"/>
<path d="M1508 1323 c-10 -2 -18 -8 -18 -12 0 -4 -29 -5 -64 -3 -36 2 -72 -1
-85 -7 -23 -13 -29 -51 -7 -51 27 0 38 -86 12 -96 -8 -3 -12 -13 -8 -26 3 -12
-1 -24 -10 -29 -16 -9 -14 -59 2 -59 4 0 10 -15 13 -32 3 -18 10 -51 15 -73 6
-22 13 -52 16 -66 3 -15 22 -37 44 -53 31 -21 49 -26 100 -26 33 0 72 5 84 11
29 12 78 -3 78 -25 0 -10 11 -14 38 -13 20 1 42 6 47 10 6 4 26 16 45 25 46
23 49 44 8 63 -50 21 -57 55 -52 262 3 97 1 177 -4 177 -4 0 -13 -5 -19 -11
-8 -8 -19 -6 -41 5 -17 9 -47 16 -67 16 -22 0 -34 4 -30 10 6 10 -63 12 -97 3z
m119 -87 c45 -30 46 -34 57 -146 7 -74 -10 -180 -33 -204 -26 -25 -100 -32
-138 -13 -49 26 -57 60 -50 216 3 83 10 146 17 158 20 31 93 25 147 -11z"/>
<path d="M1580 1160 c-8 -5 -27 -11 -42 -15 -47 -9 -35 -35 17 -35 34 0 47 5
55 20 17 32 1 48 -30 30z"/>
<path d="M182 1273 c2 -23 7 -28 30 -26 19 1 28 -4 33 -20 7 -20 8 -20 12 -3
3 10 1 21 -4 25 -4 3 -13 15 -19 26 -6 11 -21 21 -33 23 -19 3 -22 0 -19 -25z"/>
<path d="M0 1031 c0 -229 0 -229 23 -235 42 -11 57 -6 93 30 50 52 39 66 -41
52 -17 -3 -21 5 -28 57 -4 33 -6 93 -3 133 3 39 2 72 -3 72 -5 0 -11 27 -15
60 -4 33 -11 60 -16 60 -6 0 -10 -91 -10 -229z"/>
<path d="M1331 964 c0 -11 3 -14 6 -6 3 7 2 16 -1 19 -3 4 -6 -2 -5 -13z"/>
<path d="M200 912 c0 -12 -5 -24 -11 -27 -5 -4 -8 -12 -6 -18 6 -17 -11 -47
-28 -47 -17 0 -75 -33 -75 -42 0 -15 52 -8 78 10 15 10 35 22 45 25 9 4 17 13
17 22 0 8 9 15 20 15 13 0 24 10 30 26 13 32 4 47 -23 40 -12 -3 -27 0 -34 6
-10 8 -13 6 -13 -10z"/>
<path d="M360 921 c0 -6 -15 -11 -32 -13 -38 -3 -44 -21 -10 -26 13 -2 22 -8
20 -14 -4 -11 -58 -42 -93 -54 -18 -6 -18 -7 7 -16 23 -8 37 -4 82 21 56 32
72 60 55 93 -10 19 -29 25 -29 9z"/>
<path d="M982 390 c-9 -14 -9 -26 -3 -39 13 -23 15 -82 6 -153 -4 -31 -4 -65
0 -75 14 -35 28 28 30 137 1 58 5 106 8 108 17 6 27 1 27 -15 0 -16 1 -16 16
-1 10 10 14 23 9 37 -9 29 -75 30 -93 1z"/>
<path d="M1443 387 c-41 -41 -19 -87 41 -87 48 0 57 20 47 100 -2 19 -65 9
-88 -13z m57 -38 c0 -12 -7 -19 -20 -19 -22 0 -26 20 -8 38 15 15 28 6 28 -19z"/>
<path d="M1105 331 c-3 -6 6 -16 22 -21 61 -23 59 -22 38 -30 -16 -7 -13 -9
16 -9 47 -1 101 -20 96 -35 -4 -12 -72 -14 -129 -2 -44 8 -54 -12 -16 -29 14
-6 25 -22 28 -40 4 -22 11 -30 25 -30 15 0 20 7 20 29 0 27 3 30 38 34 34 3
42 -1 77 -40 22 -24 39 -46 40 -51 0 -4 -26 -4 -57 -1 -54 6 -57 5 -38 -10 11
-8 25 -16 31 -16 16 0 54 -44 54 -63 0 -15 13 -17 105 -17 107 0 126 8 88 36
-10 7 -18 18 -18 26 0 9 -12 12 -35 11 -63 -5 -79 5 -120 70 -68 107 -91 134
-134 156 -23 12 -52 19 -65 16 -15 -3 -32 2 -42 11 -11 10 -19 12 -24 5z"/>
<path d="M1050 293 c0 -44 13 -69 29 -59 14 9 14 38 -1 71 -16 36 -28 31 -28
-12z"/>
<path d="M1768 254 c-4 -3 -12 -6 -20 -7 -7 -2 -24 -10 -37 -19 -22 -16 -23
-18 -10 -60 20 -62 44 -58 44 7 0 50 0 50 63 46 57 -3 62 -1 62 18 0 18 -6 21
-48 21 -27 0 -51 -3 -54 -6z"/>
<path d="M91 143 c3 -78 20 -70 23 9 1 40 -2 55 -12 55 -10 0 -12 -17 -11 -64z"/>
<path d="M1048 188 c-5 -30 1 -58 13 -58 15 0 22 27 15 55 -8 31 -22 32 -28 3z"/>
<path d="M351 114 c-32 -23 -12 -34 62 -34 61 0 71 9 35 34 -29 21 -67 20 -97
0z"/>
<path d="M235 100 c-3 -5 -20 -10 -36 -10 -21 0 -41 -11 -66 -35 -20 -19 -40
-35 -45 -35 -4 0 -8 -4 -8 -10 0 -14 78 -12 82 2 6 18 68 19 75 2 4 -10 24
-14 70 -14 55 0 64 2 59 16 -3 9 -6 18 -6 20 0 2 -6 4 -14 4 -8 0 -18 9 -21
21 -4 11 -22 27 -41 35 -40 17 -41 17 -49 4z"/>
<path d="M525 91 c-16 -9 -32 -17 -34 -18 -2 -1 -5 -18 -7 -38 -2 -35 -2 -35
104 -34 82 1 99 3 72 10 -19 4 -56 6 -81 3 -48 -6 -72 7 -50 29 7 7 20 7 45 0
34 -11 34 -11 21 20 -17 40 -34 47 -70 28z"/>
<path d="M870 85 c-37 -20 -45 -29 -46 -54 -2 -31 -2 -31 68 -31 38 0 67 4 64
9 -7 11 34 23 94 27 56 3 80 -3 80 -22 0 -11 15 -14 66 -14 64 0 66 1 59 23
-4 12 -9 37 -12 55 -4 25 -10 32 -29 32 -12 0 -26 -5 -29 -11 -4 -6 -22 -8
-45 -4 -23 4 -41 2 -44 -4 -5 -7 -13 -7 -25 1 -15 9 -24 7 -49 -10 -39 -28
-56 -28 -76 3 -20 30 -19 30 -76 0z"/>
<path d="M1700 87 c-35 -16 -48 -36 -42 -63 4 -20 10 -24 43 -24 31 0 39 4 39
19 0 10 3 33 6 50 7 34 -3 38 -46 18z"/>
<path d="M694 81 c-41 -10 -54 -19 -54 -37 0 -17 -3 -16 38 -5 18 6 40 7 48 4
13 -5 13 -8 -2 -24 -16 -18 -16 -19 8 -19 16 0 29 9 38 25 12 22 11 27 -5 45
-19 21 -23 22 -71 11z"/>
</g>
</svg>
