<?xml version="1.0" standalone="no"?>
<!DOCTYPE svg PUBLIC "-//W3C//DTD SVG 20010904//EN"
 "http://www.w3.org/TR/2001/REC-SVG-20010904/DTD/svg10.dtd">
<svg version="1.0" xmlns="http://www.w3.org/2000/svg"
 width="143.000000pt" height="136.000000pt" viewBox="0 0 143.000000 136.000000"
 preserveAspectRatio="xMidYMid meet">
<metadata>
Created by potrace 1.16, written by Peter Selinger 2001-2019
</metadata>
<g transform="translate(0.000000,136.000000) scale(0.100000,-0.100000)"
fill="#000000" stroke="none">
<path d="M291 1283 c4 -77 4 -77 -49 -74 -51 2 -52 2 -52 -26 0 -29 0 -29 -95
-25 -91 4 -95 4 -95 -17 0 -17 6 -21 35 -21 35 0 35 0 36 -157 1 -87 1 -198 0
-248 0 -49 3 -124 8 -165 6 -57 9 -2 10 227 0 166 3 307 6 315 4 9 19 12 50
10 40 -4 46 -1 54 20 12 33 29 45 74 53 47 9 57 31 57 121 0 58 -2 64 -21 64
-20 0 -21 -5 -18 -77z"/>
<path d="M1270 1301 c0 -73 12 -107 41 -116 21 -7 22 -8 5 -21 -10 -7 -15 -18
-11 -24 11 -18 -15 -30 -43 -19 -13 5 -28 7 -33 3 -12 -7 -12 -91 0 -99 8 -5
24 25 26 48 0 11 28 27 37 21 4 -3 8 -21 8 -40 0 -24 4 -34 13 -31 6 2 12 8
12 14 0 6 12 23 28 37 31 29 35 46 9 46 -30 0 -33 11 -12 38 29 37 25 52 -13
52 -32 0 -32 0 -29 75 4 71 3 75 -17 75 -19 0 -21 -6 -21 -59z"/>
<path d="M1235 1150 c-3 -5 -1 -10 4 -10 6 0 11 5 11 10 0 6 -2 10 -4 10 -3 0
-8 -4 -11 -10z"/>
<path d="M1383 1154 c-8 -4 -6 -15 9 -40 26 -45 38 -51 38 -20 0 17 -6 26 -16
26 -11 0 -14 6 -9 20 6 20 1 23 -22 14z"/>
<path d="M257 1127 c-5 -16 5 -87 13 -87 4 0 13 14 19 30 8 26 15 30 45 30 23
0 38 -6 45 -17 8 -15 10 -14 16 10 4 15 5 30 2 33 -9 9 -137 10 -140 1z"/>
<path d="M320 1043 c0 -4 16 -13 35 -19 31 -10 36 -9 33 5 -3 16 -68 30 -68
14z"/>
<path d="M260 990 c0 -21 -15 -27 -25 -10 -11 18 -41 11 -54 -13 -9 -18 -9
-30 0 -52 7 -20 11 -101 9 -242 -1 -124 3 -213 8 -217 14 -8 22 29 23 114 1
85 9 122 27 128 18 6 16 -67 -3 -74 -8 -4 -15 -16 -15 -29 0 -12 7 -28 15 -35
19 -16 19 -39 0 -46 -8 -4 -15 -13 -15 -21 0 -24 -51 -103 -66 -103 -21 0 -17
-48 5 -60 33 -17 243 -13 269 6 31 21 28 52 -9 90 -41 42 -46 72 -42 259 2 88
4 188 3 222 0 54 2 62 21 68 14 5 25 1 35 -12 14 -17 13 -38 -2 -97 -4 -19 -2
-26 9 -26 18 0 39 24 36 42 -2 7 0 23 4 34 9 26 -9 78 -23 69 -6 -4 -17 -2
-24 4 -7 6 -24 7 -42 2 -16 -4 -40 -4 -54 0 -14 4 -40 10 -57 13 -28 5 -33 3
-33 -14z"/>
<path d="M805 987 c-99 -37 -142 -72 -191 -156 -58 -100 -68 -137 -60 -240 8
-106 38 -166 113 -225 70 -54 118 -66 207 -49 39 7 79 20 90 27 37 24 66 56
66 71 0 17 -6 18 -110 15 -69 -1 -79 1 -124 31 -70 47 -101 116 -101 224 1
100 17 148 61 181 54 42 108 43 189 5 63 -30 69 -31 91 -16 33 22 33 83 0 122
-22 25 -31 28 -97 30 -57 2 -88 -3 -134 -20z"/>
<path d="M1228 981 c-18 -15 -43 -33 -56 -40 -18 -10 -20 -15 -12 -32 6 -11 8
-29 5 -39 -4 -12 -2 -20 6 -20 8 0 10 -14 5 -52 -10 -74 -20 -81 -26 -18 -5
55 -5 55 -19 -5 -7 -33 -15 -87 -18 -119 -4 -53 -3 -58 12 -52 14 5 17 2 13
-21 -3 -16 -7 -35 -9 -43 -2 -9 4 -16 17 -18 17 -2 23 -12 28 -43 9 -59 -1
-87 -32 -91 -42 -5 -36 -39 8 -51 23 -6 36 -5 38 2 2 7 14 5 34 -5 32 -17 103
-21 156 -9 38 9 44 41 13 69 -10 9 -32 45 -47 79 -28 60 -29 67 -26 191 4 167
14 196 70 216 42 14 42 14 42 67 0 53 0 53 -27 47 -16 -4 -32 -13 -36 -21 -12
-20 -35 -16 -53 12 -21 33 -46 32 -86 -4z m-78 -322 c0 -24 -4 -38 -10 -34 -5
3 -10 22 -10 41 0 19 5 34 10 34 6 0 10 -18 10 -41z"/>
<path d="M1130 950 c0 -5 5 -10 10 -10 6 0 10 5 10 10 0 6 -4 10 -10 10 -5 0
-10 -4 -10 -10z"/>
<path d="M0 795 c0 -37 4 -65 10 -65 6 0 10 28 10 65 0 37 -4 65 -10 65 -6 0
-10 -28 -10 -65z"/>
<path d="M1419 783 c0 -27 -2 -69 -5 -95 -3 -29 -1 -48 6 -48 6 0 10 37 10 95
0 52 -2 95 -5 95 -3 0 -5 -21 -6 -47z"/>
<path d="M0 505 c0 -102 2 -185 5 -185 3 0 16 7 29 15 20 13 22 21 16 53 -3
20 -12 47 -18 59 -7 13 -12 67 -12 132 0 67 -4 111 -10 111 -6 0 -10 -68 -10
-185z"/>
<path d="M1418 570 c-3 -16 -1 -30 4 -30 4 0 8 14 8 30 0 17 -2 30 -4 30 -2 0
-6 -13 -8 -30z"/>
<path d="M460 451 c0 -5 7 -14 15 -21 12 -10 15 -10 15 3 0 8 -7 17 -15 21 -8
3 -15 2 -15 -3z"/>
<path d="M90 355 c0 -49 10 -69 24 -47 11 19 15 66 5 83 -18 34 -29 20 -29
-36z"/>
<path d="M1320 290 c0 -5 5 -10 10 -10 6 0 10 5 10 10 0 6 -4 10 -10 10 -5 0
-10 -4 -10 -10z"/>
<path d="M76 248 c-10 -23 -3 -79 9 -70 6 4 8 25 4 47 -4 29 -8 35 -13 23z"/>
<path d="M1392 199 c-13 -16 -19 -29 -13 -29 17 0 13 -27 -5 -34 -9 -3 -31 -6
-49 -6 -42 0 -55 -21 -55 -84 0 -40 3 -46 21 -46 19 0 21 5 17 53 -3 52 -3 52
51 48 54 -3 54 -3 47 33 -5 28 -3 38 9 42 15 6 21 39 8 47 -5 2 -18 -9 -31
-24z"/>
<path d="M0 119 c0 -20 3 -21 148 -18 147 4 147 4 144 -49 -4 -47 -2 -52 17
-52 18 0 21 6 21 38 0 20 -9 52 -20 70 -20 32 -20 32 -165 32 -141 0 -145 -1
-145 -21z"/>
</g>
</svg>
