<?xml version="1.0" standalone="no"?>
<!DOCTYPE svg PUBLIC "-//W3C//DTD SVG 20010904//EN"
 "http://www.w3.org/TR/2001/REC-SVG-20010904/DTD/svg10.dtd">
<svg version="1.0" xmlns="http://www.w3.org/2000/svg"
 width="171.000000pt" height="153.000000pt" viewBox="0 0 171.000000 153.000000"
 preserveAspectRatio="xMidYMid meet">
<metadata>
Created by potrace 1.16, written by Peter Selinger 2001-2019
</metadata>
<g transform="translate(0.000000,153.000000) scale(0.100000,-0.100000)"
fill="#000000" stroke="none">
<path d="M1532 1470 c3 -40 11 -66 23 -80 22 -24 24 -42 30 -244 3 -126 8
-157 19 -145 2 2 7 97 11 212 6 207 6 207 -23 207 -29 0 -29 0 -24 55 4 52 3
55 -18 55 -21 0 -22 -3 -18 -60z"/>
<path d="M358 1423 c7 -3 16 -2 19 1 4 3 -2 6 -13 5 -11 0 -14 -3 -6 -6z"/>
<path d="M1035 1421 c-3 -2 -5 -12 -5 -22 0 -10 -11 -26 -25 -35 -31 -20 -50
-53 -38 -64 4 -5 56 -11 116 -15 107 -7 107 -7 107 19 0 19 -5 26 -20 26 -12
0 -25 10 -32 25 -10 21 -8 27 8 39 10 8 15 18 11 22 -9 9 -114 13 -122 5z m76
-49 c-7 -14 -6 -25 5 -40 14 -21 14 -22 -9 -22 -14 0 -38 3 -55 6 -27 6 -29 8
-17 21 8 8 15 23 15 34 0 15 7 19 35 19 32 0 35 -2 26 -18z"/>
<path d="M25 1400 c-3 -5 -1 -10 4 -10 6 0 11 5 11 10 0 6 -2 10 -4 10 -3 0
-8 -4 -11 -10z"/>
<path d="M93 1393 c9 -2 23 -2 30 0 6 3 -1 5 -18 5 -16 0 -22 -2 -12 -5z"/>
<path d="M204 1319 c-10 -17 13 -36 27 -22 12 12 4 33 -11 33 -5 0 -12 -5 -16
-11z"/>
<path d="M360 1319 c-88 -4 -101 -6 -55 -9 126 -7 235 -7 230 0 -8 13 -54 15
-175 9z"/>
<path d="M571 1315 c9 -9 149 -13 149 -4 0 5 -34 9 -77 9 -42 0 -74 -2 -72 -5z"/>
<path d="M740 1316 c0 -2 15 -6 34 -8 19 -2 32 0 30 4 -5 8 -64 12 -64 4z"/>
<path d="M1651 1281 c-10 -6 -5 -13 19 -25 42 -20 40 -21 40 9 0 19 -5 25 -22
25 -13 0 -29 -4 -37 -9z"/>
<path d="M490 1198 c-72 -10 -92 -22 -88 -52 2 -17 13 -22 52 -28 27 -4 54
-12 60 -18 6 -6 12 -41 13 -78 13 -506 13 -515 -4 -534 -9 -10 -26 -18 -38
-18 -31 0 -70 -33 -62 -52 8 -22 42 -26 195 -20 102 3 141 8 154 20 22 19 14
32 -18 32 -14 0 -38 7 -53 14 -28 15 -28 16 -35 144 -8 160 -2 182 52 182 25
0 44 -6 54 -17 20 -24 87 -144 125 -223 60 -126 132 -180 244 -180 21 0 50 -5
64 -10 36 -14 75 -3 75 21 0 20 -11 26 -85 49 -22 7 -58 26 -81 43 -40 31 -59
56 -150 197 -26 41 -63 92 -81 113 -19 21 -31 42 -28 47 3 5 30 20 59 33 100
46 133 150 76 241 -37 61 -95 87 -213 97 -125 10 -202 9 -287 -3z m309 -76
c75 -38 100 -123 59 -201 -13 -25 -34 -53 -48 -62 -29 -21 -109 -33 -129 -20
-18 12 -30 80 -31 174 0 70 3 80 25 102 29 30 75 33 124 7z"/>
<path d="M210 1135 c0 -14 2 -25 4 -25 2 0 6 11 8 25 3 14 1 25 -3 25 -5 0 -9
-11 -9 -25z"/>
<path d="M212 1020 c0 -14 2 -19 5 -12 2 6 2 18 0 25 -3 6 -5 1 -5 -13z"/>
<path d="M1494 949 c-92 -21 -184 -159 -184 -275 0 -27 19 -101 48 -182 27
-77 115 -130 193 -116 39 8 89 50 89 75 0 10 7 25 16 34 18 18 12 45 -11 45
-9 0 -28 -9 -43 -20 -26 -19 -32 -20 -82 -8 -75 17 -116 59 -125 129 -7 47 -5
54 16 70 20 16 44 19 152 19 127 0 127 0 127 38 0 44 -20 90 -50 117 -11 10
-20 26 -20 35 0 40 -51 56 -126 39z m98 -96 c44 -40 7 -74 -99 -88 -53 -7 -53
-7 -53 23 0 63 104 108 152 65z"/>
<path d="M215 909 c-4 -6 -5 -12 -2 -15 2 -3 7 2 10 11 7 17 1 20 -8 4z"/>
<path d="M209 875 c-4 -34 0 -115 6 -115 4 0 9 27 9 60 1 33 -2 60 -6 60 -4 0
-8 -2 -9 -5z"/>
<path d="M212 640 c0 -19 2 -27 5 -17 2 9 2 25 0 35 -3 9 -5 1 -5 -18z"/>
<path d="M1589 665 c-1 -3 -1 -16 -1 -30 0 -52 2 -65 12 -65 6 0 10 23 10 50
0 28 -4 50 -10 50 -5 0 -10 -2 -11 -5z"/>
<path d="M210 570 c0 -5 5 -10 11 -10 5 0 7 5 4 10 -3 6 -8 10 -11 10 -2 0 -4
-4 -4 -10z"/>
<path d="M210 384 c0 -14 4 -23 9 -20 5 3 7 15 4 26 -7 28 -13 25 -13 -6z"/>
<path d="M1591 308 c0 -13 0 -70 -1 -127 -1 -103 -1 -103 -35 -134 -19 -16
-32 -34 -29 -39 7 -11 44 -10 44 1 0 5 10 11 23 13 18 2 22 9 22 41 -3 213 -6
267 -15 267 -5 0 -10 -10 -9 -22z"/>
<path d="M1665 291 c-3 -5 -1 -12 5 -16 5 -3 10 1 10 9 0 18 -6 21 -15 7z"/>
<path d="M210 263 c0 -34 13 -44 23 -19 3 8 -1 22 -8 33 -13 17 -14 16 -15
-14z"/>
<path d="M1647 103 c-15 -15 -5 -23 28 -23 24 0 35 5 35 15 0 15 -50 22 -63 8z"/>
<path d="M137 56 c-4 -10 4 -15 24 -18 36 -6 47 7 20 21 -26 15 -38 14 -44 -3z"/>
<path d="M256 61 c-3 -5 7 -11 22 -14 31 -6 37 -3 27 12 -8 13 -42 14 -49 2z"/>
<path d="M95 50 c-3 -5 1 -10 10 -10 9 0 13 5 10 10 -3 6 -8 10 -10 10 -2 0
-7 -4 -10 -10z"/>
<path d="M906 52 c-15 -24 14 -33 100 -30 71 2 89 6 89 18 0 12 -18 16 -92 18
-50 1 -94 -1 -97 -6z"/>
<path d="M734 29 c-11 -18 8 -29 52 -29 38 0 45 3 42 17 -2 14 -14 18 -46 19
-23 1 -45 -2 -48 -7z"/>
</g>
</svg>
