<?xml version="1.0" standalone="no"?>
<!DOCTYPE svg PUBLIC "-//W3C//DTD SVG 20010904//EN"
 "http://www.w3.org/TR/2001/REC-SVG-20010904/DTD/svg10.dtd">
<svg version="1.0" xmlns="http://www.w3.org/2000/svg"
 width="209.000000pt" height="159.000000pt" viewBox="0 0 209.000000 159.000000"
 preserveAspectRatio="xMidYMid meet">
<metadata>
Created by potrace 1.16, written by Peter Selinger 2001-2019
</metadata>
<g transform="translate(0.000000,159.000000) scale(0.100000,-0.100000)"
fill="#000000" stroke="none">
<path d="M170 1575 c0 -12 -16 -15 -85 -15 -78 0 -85 -2 -85 -20 0 -17 8 -19
68 -22 67 -3 67 -3 70 -40 2 -21 7 -38 11 -38 5 0 6 11 4 25 -3 15 5 42 21 71
30 55 30 54 11 54 -8 0 -15 -7 -15 -15z"/>
<path d="M1546 1328 c-2 -7 -8 -29 -14 -47 -10 -28 -9 -39 3 -58 18 -26 56
-30 75 -8 7 8 19 15 26 15 14 0 15 3 17 38 3 42 -97 97 -107 60z"/>
<path d="M1223 1253 c-76 -3 -104 -8 -114 -19 -15 -19 -4 -29 54 -44 20 -6 37
-16 38 -23 3 -37 -6 -75 -31 -130 -16 -34 -41 -105 -55 -157 -43 -162 -57
-195 -85 -195 -26 0 -25 -3 -112 230 -16 44 -41 107 -54 140 -33 82 -31 99 12
124 83 49 10 73 -194 63 -111 -5 -136 -16 -130 -56 2 -17 12 -22 56 -27 29 -4
55 -9 56 -10 9 -12 117 -245 138 -299 15 -36 43 -103 63 -150 21 -47 47 -112
57 -145 27 -81 43 -109 66 -113 25 -4 46 29 67 104 14 49 99 263 151 379 7 17
32 74 55 128 35 82 45 98 68 103 45 10 49 12 67 40 18 26 17 27 -5 45 -13 11
-33 18 -45 17 -11 -1 -67 -4 -123 -5z"/>
<path d="M1842 998 c-18 -11 -35 -32 -38 -46 -4 -15 -14 -40 -23 -57 -8 -16
-21 -46 -28 -65 -14 -39 -18 -171 -5 -185 5 -6 17 -36 26 -67 10 -32 22 -61
27 -64 5 -3 7 -9 4 -14 -3 -5 10 -6 29 -3 19 3 36 1 40 -6 11 -17 51 -13 70 8
16 18 16 20 -10 40 -15 11 -31 21 -35 21 -15 0 -10 250 5 295 12 35 19 41 53
47 21 4 59 5 86 2 47 -6 47 -6 47 50 0 55 0 56 -30 56 -16 0 -44 -9 -62 -20
-44 -27 -72 -25 -92 5 -19 29 -21 29 -64 3z"/>
<path d="M1571 985 c-23 -14 -51 -25 -61 -25 -16 0 -17 -7 -13 -61 4 -36 2
-64 -4 -67 -19 -13 -25 -78 -8 -92 13 -11 15 -8 15 16 0 36 14 59 29 50 15
-10 14 -109 -1 -124 -7 -7 -20 -12 -30 -12 -24 0 -41 -35 -33 -71 5 -23 10
-28 20 -19 19 16 27 -3 15 -35 -6 -16 -16 -25 -26 -23 -30 5 -26 -19 7 -43 27
-19 35 -20 51 -10 14 9 36 10 72 5 28 -4 56 -8 61 -9 16 -2 35 16 35 34 0 9
-14 29 -30 44 -39 37 -43 57 -36 169 3 51 5 107 5 123 -2 42 0 64 7 114 5 31
3 46 -7 52 -19 12 -18 12 -68 -16z"/>
<path d="M0 959 c0 -24 4 -30 15 -25 31 11 45 -5 45 -51 0 -40 -3 -45 -30 -54
-19 -7 -30 -18 -30 -30 0 -17 8 -19 85 -19 85 0 85 0 85 39 0 43 -43 129 -69
139 -9 3 -22 12 -29 19 -7 7 -27 13 -43 13 -26 0 -29 -3 -29 -31z"/>
<path d="M1687 970 c7 -27 23 -36 34 -19 9 15 -7 39 -26 39 -8 0 -11 -8 -8
-20z"/>
<path d="M1770 948 c0 -19 2 -20 10 -8 13 19 13 30 0 30 -5 0 -10 -10 -10 -22z"/>
<path d="M1440 853 c0 -10 5 -25 10 -33 7 -11 10 -7 10 18 0 17 -4 32 -10 32
-5 0 -10 -8 -10 -17z"/>
<path d="M1677 823 c-14 -13 -6 -33 12 -33 19 0 35 23 24 34 -8 8 -28 8 -36
-1z"/>
<path d="M141 714 c0 -11 3 -14 6 -6 3 7 2 16 -1 19 -3 4 -6 -2 -5 -13z"/>
<path d="M1470 700 c0 -11 2 -20 5 -20 2 0 9 9 15 20 9 16 8 20 -5 20 -8 0
-15 -9 -15 -20z"/>
<path d="M75 570 c-22 -10 -48 -19 -57 -19 -15 -1 -18 -11 -18 -67 0 -63 1
-65 23 -58 44 13 74 33 111 74 65 72 31 112 -59 70z"/>
<path d="M2052 536 c-32 -16 -26 -50 11 -54 25 -3 27 -1 27 32 0 38 -2 40 -38
22z"/>
<path d="M1737 524 c-9 -10 25 -43 39 -37 10 4 11 9 1 24 -12 19 -28 24 -40
13z"/>
<path d="M166 503 c-11 -11 -6 -23 9 -23 8 0 15 4 15 9 0 13 -16 22 -24 14z"/>
<path d="M140 402 c0 -18 5 -32 10 -32 6 0 8 11 4 28 -10 39 -14 40 -14 4z"/>
<path d="M141 283 c0 -29 3 -53 7 -53 4 0 6 17 4 38 -6 64 -10 69 -11 15z"/>
<path d="M1825 263 c-11 -3 -26 -12 -32 -21 -15 -18 -17 -120 -4 -141 18 -28
31 1 31 67 0 67 0 67 135 64 131 -3 135 -3 135 17 0 20 -5 21 -122 20 -68 -1
-132 -3 -143 -6z"/>
<path d="M73 203 c-65 -3 -73 -6 -73 -23 0 -18 7 -20 83 -20 84 0 84 0 79 -80
-4 -76 -3 -80 16 -80 19 0 21 7 24 62 2 52 -1 70 -22 106 -14 23 -27 41 -30
40 -3 -1 -38 -4 -77 -5z"/>
<path d="M1043 120 c-28 -11 -29 -37 -5 -84 15 -32 21 -36 59 -36 37 0 44 4
58 29 14 28 13 33 -6 65 -17 30 -27 36 -52 35 -18 0 -42 -4 -54 -9z"/>
<path d="M1788 66 c-10 -7 -18 -25 -18 -40 0 -21 5 -26 25 -26 23 0 25 4 25
40 0 43 -5 47 -32 26z"/>
</g>
</svg>
