<?xml version="1.0" encoding="UTF-8" standalone="no"?>
<svg
   version="1.0"
   width="182.000000pt"
   height="138.000000pt"
   viewBox="0 0 182.000000 138.000000"
   preserveAspectRatio="xMidYMid meet"
   id="svg24"
   sodipodi:docname="N.svg"
   inkscape:version="1.4 (e7c3feb1, 2024-10-09)"
   xmlns:inkscape="http://www.inkscape.org/namespaces/inkscape"
   xmlns:sodipodi="http://sodipodi.sourceforge.net/DTD/sodipodi-0.dtd"
   xmlns="http://www.w3.org/2000/svg"
   xmlns:svg="http://www.w3.org/2000/svg">
  <defs
     id="defs24" />
  <sodipodi:namedview
     id="namedview24"
     pagecolor="#ffffff"
     bordercolor="#000000"
     borderopacity="0.25"
     inkscape:showpageshadow="2"
     inkscape:pageopacity="0.0"
     inkscape:pagecheckerboard="0"
     inkscape:deskcolor="#d1d1d1"
     inkscape:document-units="pt"
     inkscape:zoom="3.1973524"
     inkscape:cx="106.02522"
     inkscape:cy="93.98401"
     inkscape:current-layer="svg24" />
  <metadata
     id="metadata1">
Created by potrace 1.16, written by Peter Selinger 2001-2019
</metadata>
  <path
     d="m 54.4,25.5 c -0.8,2.1 -0.23281,3.413837 6.6,6.2 5.239411,2.136434 6.637888,7.270554 3.3,14.1 C 60.962112,52.629446 52.918127,70.752884 48,80.9 43.081873,91.047116 39.852764,94.991463 37.129327,95.041466 34.40589,95.091469 27.525622,98.242703 29.6,101.7 c 1.6,2.6 18.9,3.1 23.5,0.7 2.9,-1.5 3.1,-1.8 2.3,-5.2 -1.4,-6.9 -0.7,-11.7 2.9,-19.8 1.9,-4.3 3.8,-9 4.2,-10.4 1.2,-4.3 9.7,-25.4 10.6,-26.4 2.4,-2.6 6.8,5.7 10.4,19.4 2.2,8.2 9,27.2 13.5,37.7 2.7,6.4 6.12055,8.69126 10.30527,2.069423 C 111.48999,93.14759 114.6567,84.379967 118.5,75.5 c 0.7,-1.7 2.2,-5.5 3.3,-8.5 1.1,-3 4.3,-10.2 7.1,-16 2.9,-5.8 5.7,-11.6 6.4,-13 1.5,-3 7.28507,-5.443793 11.4024,-6.407332 4.11733,-0.963539 7.08103,-2.968935 7.0976,-4.792668 0.0193,-2.121233 -0.6,-2.1 -21.1,-2.3 -14.5,-0.1 -21,0.2 -21.7,1 -1.7,2 1.6,5.3 6.2,6 5.7,0.9 8.8,3 8.8,5.8 -3.413,13.118694 -8.51962,26.230372 -14.2,38.6 -4.2,9.1 -6.1,10.8 -8.6,7.8 -1,-1.1 -3.6,-9.6 -7.1,-23.2 C 93.8,52 84.2,28.9 82,26.6 80.4,24.9 78.3,24.6 67.5,24.3 56.6,23.9 54.9,24.1 54.4,25.5 Z"
     id="path6"
     style="fill:#000000;stroke:none;stroke-width:0.1"
     sodipodi:nodetypes="cszzzcccccccczcscszscccscccccc" />
</svg>
