<?xml version="1.0" standalone="no"?>
<!DOCTYPE svg PUBLIC "-//W3C//DTD SVG 20010904//EN"
 "http://www.w3.org/TR/2001/REC-SVG-20010904/DTD/svg10.dtd">
<svg version="1.0" xmlns="http://www.w3.org/2000/svg"
 width="143.000000pt" height="159.000000pt" viewBox="0 0 143.000000 159.000000"
 preserveAspectRatio="xMidYMid meet">
<metadata>
Created by potrace 1.16, written by Peter Selinger 2001-2019
</metadata>
<g transform="translate(0.000000,159.000000) scale(0.100000,-0.100000)"
fill="#000000" stroke="none">
<path d="M1352 1533 c5 -72 26 -117 56 -121 15 -2 22 2 22 12 0 9 -6 16 -14
16 -13 0 -26 59 -26 121 0 23 -5 29 -21 29 -20 0 -21 -4 -17 -57z"/>
<path d="M228 1463 c7 -3 16 -2 19 1 4 3 -2 6 -13 5 -11 0 -14 -3 -6 -6z"/>
<path d="M284 1461 c-2 -2 -4 -12 -4 -20 0 -14 11 -16 64 -15 69 2 86 8 86 28
0 10 -19 13 -71 12 -39 -1 -72 -3 -75 -5z"/>
<path d="M515 1460 c28 -4 57 -3 65 1 9 5 -11 8 -50 7 -65 -1 -65 -1 -15 -8z"/>
<path d="M1033 1438 c2 -9 24 -13 62 -13 38 0 60 4 63 13 3 9 -14 12 -63 12
-49 0 -66 -3 -62 -12z"/>
<path d="M685 1390 c-3 -5 1 -10 10 -10 9 0 13 5 10 10 -3 6 -8 10 -10 10 -2
0 -7 -4 -10 -10z"/>
<path d="M308 1383 c6 -2 18 -2 25 0 6 3 1 5 -13 5 -14 0 -19 -2 -12 -5z"/>
<path d="M1381 1244 c0 -11 3 -14 6 -6 3 7 2 16 -1 19 -3 4 -6 -2 -5 -13z"/>
<path d="M1164 1230 c-36 -14 -54 -48 -42 -76 12 -25 64 -47 100 -42 20 3 23
10 26 55 2 28 -1 53 -5 56 -20 11 -60 15 -79 7z m44 -57 c-4 -20 -18 -26 -37
-14 -18 12 -5 31 20 31 14 0 19 -6 17 -17z"/>
<path d="M411 1174 c-12 -10 -13 -17 -4 -36 8 -19 22 -27 52 -32 22 -3 43 -11
47 -17 12 -20 13 -609 0 -617 -6 -4 -27 -12 -46 -17 -39 -12 -47 -31 -26 -60
13 -18 26 -20 161 -20 134 0 148 2 161 20 20 28 13 38 -36 52 -24 7 -48 17
-53 22 -11 11 -14 262 -3 280 7 10 31 12 120 6 61 -4 117 -12 124 -17 6 -6 12
-21 12 -34 0 -17 6 -24 19 -24 31 0 38 21 37 110 -1 84 -1 85 -26 85 -18 0
-26 -6 -28 -23 -2 -12 -11 -26 -20 -31 -23 -12 -213 -13 -232 -1 -12 7 -16 36
-18 130 -5 157 -3 160 115 160 99 0 145 -16 167 -59 9 -16 25 -32 36 -36 11
-3 20 -12 21 -18 3 -33 17 46 18 99 1 42 -4 65 -13 73 -20 17 -562 21 -585 5z"/>
<path d="M1373 1090 c0 -41 2 -58 4 -37 2 20 2 54 0 75 -2 20 -4 3 -4 -38z"/>
<path d="M69 1094 c-2 -11 -2 -100 1 -199 5 -180 5 -180 10 5 5 167 0 247 -11
194z"/>
<path d="M790 919 c-14 -25 -5 -69 13 -69 33 0 50 53 25 78 -17 17 -26 15 -38
-9z"/>
<path d="M1255 930 c-57 -24 -141 -55 -150 -55 -12 0 -12 -14 -1 -128 9 -89 7
-99 -32 -185 -14 -31 -13 -34 7 -53 27 -25 27 -55 1 -62 -11 -3 -20 -12 -20
-20 0 -26 31 -41 88 -43 32 -1 71 -4 89 -8 24 -6 34 -3 41 10 7 13 13 14 30 5
31 -16 67 -13 85 7 23 26 21 50 -8 88 -23 30 -26 45 -30 145 -4 97 -2 115 14
138 25 35 35 150 14 158 -24 9 -37 -12 -22 -35 7 -12 10 -24 7 -28 -9 -9 -55
27 -67 54 -11 24 -16 25 -46 12z m15 -25 c0 -8 -4 -15 -10 -15 -5 0 -10 7 -10
15 0 8 5 15 10 15 6 0 10 -7 10 -15z m40 -111 c22 -19 28 -30 21 -37 -8 -8
-15 -5 -24 7 -12 17 -15 11 -21 -50 -4 -38 -8 -79 -7 -91 2 -51 2 -59 7 -91 5
-33 6 -33 25 -16 18 16 19 16 19 -4 0 -27 -71 -52 -93 -33 -24 19 -42 100 -29
122 7 10 12 29 12 41 0 19 -2 20 -10 8 -8 -12 -10 -12 -11 5 -3 49 4 103 16
133 18 41 51 43 95 6z m18 -161 c2 -28 0 -34 -8 -23 -12 18 -13 60 -2 60 4 0
9 -17 10 -37z"/>
<path d="M1070 754 c0 -8 5 -12 10 -9 6 3 10 10 10 16 0 5 -4 9 -10 9 -5 0
-10 -7 -10 -16z"/>
<path d="M793 705 c-7 -19 22 -48 42 -42 13 5 19 47 7 47 -6 0 -17 3 -26 6
-10 4 -18 -1 -23 -11z"/>
<path d="M1372 140 c-6 -11 -12 -28 -12 -39 0 -20 -18 -31 -54 -31 -26 0 -56
-29 -56 -53 0 -9 7 -17 15 -17 9 0 12 6 9 15 -7 17 -3 17 74 15 54 -2 54 -2
50 52 -3 46 -1 53 15 52 9 -1 17 4 17 12 0 21 -43 17 -58 -6z"/>
<path d="M13 93 c-7 -3 -13 -16 -13 -29 0 -20 5 -24 33 -25 17 -1 41 -2 52 -3
13 -1 19 -7 19 -19 -1 -12 6 -17 23 -17 19 0 24 4 19 16 -3 9 -6 17 -6 20 0 8
-66 38 -79 35 -8 -1 -20 4 -25 11 -6 8 -17 13 -23 11z"/>
<path d="M455 40 c-3 -5 1 -10 10 -10 9 0 13 5 10 10 -3 6 -8 10 -10 10 -2 0
-7 -4 -10 -10z"/>
<path d="M593 43 c32 -2 81 -2 110 0 29 2 3 3 -58 3 -60 0 -84 -1 -52 -3z"/>
<path d="M883 43 c48 -2 126 -2 175 0 48 1 8 3 -88 3 -96 0 -136 -2 -87 -3z"/>
</g>
</svg>
