<?xml version="1.0" standalone="no"?>
<!DOCTYPE svg PUBLIC "-//W3C//DTD SVG 20010904//EN"
 "http://www.w3.org/TR/2001/REC-SVG-20010904/DTD/svg10.dtd">
<svg version="1.0" xmlns="http://www.w3.org/2000/svg"
 width="239.000000pt" height="216.000000pt" viewBox="0 0 239.000000 216.000000"
 preserveAspectRatio="xMidYMid meet">
<metadata>
Created by potrace 1.16, written by Peter Selinger 2001-2019
</metadata>
<g transform="translate(0.000000,216.000000) scale(0.100000,-0.100000)"
fill="#000000" stroke="none">
<path d="M2269 2143 c-3 -102 1 -203 10 -226 6 -16 12 -49 13 -75 1 -47 1 -47
7 3 6 50 6 50 49 47 37 -2 42 0 42 19 0 19 -4 21 -40 16 -40 -5 -40 -5 -40
114 0 112 -1 119 -20 119 -12 0 -20 -7 -21 -17z"/>
<path d="M12 2118 c-7 -7 -12 -31 -12 -54 0 -38 5 -46 43 -78 43 -35 43 -35
198 -37 144 -1 159 0 205 22 59 28 163 134 147 150 -16 16 -129 7 -125 -10 1
-7 -4 -24 -12 -36 -15 -22 -34 -27 -211 -49 -34 -4 -99 36 -115 71 -14 30 -19
33 -60 33 -26 0 -51 -5 -58 -12z"/>
<path d="M1918 2003 c7 -3 16 -2 19 1 4 3 -2 6 -13 5 -11 0 -14 -3 -6 -6z"/>
<path d="M1358 1865 c-7 -8 3 -55 12 -55 4 0 7 -8 6 -17 -1 -15 10 -18 72 -21
56 -2 76 1 89 13 21 22 4 39 -40 40 -27 0 -32 3 -30 23 3 20 -1 22 -50 22 -30
0 -56 -2 -59 -5z m98 -46 c18 -20 18 -20 -21 -17 -28 2 -41 8 -43 21 -5 25 40
22 64 -4z"/>
<path d="M2302 1395 c-2 -304 -1 -345 13 -345 10 0 15 10 15 29 0 16 7 34 15
41 8 7 15 20 15 30 0 10 7 23 15 30 16 14 21 45 5 35 -11 -7 -50 70 -50 101 0
13 5 26 10 29 7 4 11 54 10 128 0 67 0 129 1 137 1 8 1 41 1 73 -2 52 -4 57
-25 57 -23 0 -23 0 -25 -345z"/>
<path d="M2238 1723 c-1 -5 -16 -16 -33 -25 -38 -21 -43 -50 -12 -71 13 -9 32
-23 41 -33 23 -22 28 -14 11 16 -8 14 -17 31 -21 38 -4 8 5 25 20 41 14 15 26
30 26 34 0 9 -27 9 -32 0z"/>
<path d="M1832 1699 c-13 -5 -34 -6 -47 -3 -18 4 -31 -1 -50 -21 -31 -35 -31
-62 0 -97 26 -31 66 -36 110 -16 23 10 25 16 25 80 0 71 -1 72 -38 57z m-4
-71 c-2 -27 -8 -34 -30 -36 -44 -5 -59 45 -18 61 39 14 51 8 48 -25z"/>
<path d="M730 1617 c-17 -8 -25 -21 -25 -37 0 -22 7 -27 60 -40 55 -14 61 -18
72 -52 8 -25 9 -55 3 -97 -8 -56 -12 -280 -11 -540 0 -57 -4 -112 -9 -122 -6
-10 -29 -23 -52 -29 -50 -14 -88 -38 -88 -55 0 -31 89 -44 300 -44 113 0 274
-3 358 -7 146 -7 154 -6 182 15 16 11 36 21 44 21 8 0 18 10 22 22 4 13 13 27
20 33 27 22 47 176 24 190 -14 9 -48 -12 -55 -34 -3 -11 -15 -23 -25 -26 -11
-3 -43 -24 -72 -46 -76 -57 -139 -73 -284 -73 -190 0 -177 -26 -169 332 11
501 9 489 54 497 82 17 116 32 119 51 6 42 -17 46 -236 50 -151 2 -214 0 -232
-9z"/>
<path d="M1850 1350 c0 -5 12 -10 28 -9 24 0 25 1 7 9 -27 12 -35 12 -35 0z"/>
<path d="M2241 1290 c3 -83 19 -87 19 -6 0 40 -4 66 -11 66 -6 0 -9 -23 -8
-60z"/>
<path d="M54 1329 c-3 -6 -1 -16 4 -21 8 -8 11 -5 9 11 -1 24 -3 25 -13 10z"/>
<path d="M1940 1310 c-8 -5 -12 -12 -8 -15 9 -9 59 6 52 16 -7 12 -25 11 -44
-1z"/>
<path d="M121 1263 c-16 -18 -26 -113 -12 -113 5 0 14 7 21 15 27 33 119 3
154 -50 20 -31 20 -35 -1 -35 -9 0 -24 -6 -32 -14 -9 -7 -39 -16 -68 -20 -50
-6 -51 -6 -73 29 -26 42 -43 46 -34 8 3 -16 7 -35 9 -43 2 -8 0 -81 -3 -163
-5 -109 -4 -147 5 -147 12 0 24 -43 20 -74 -1 -15 7 -22 36 -29 20 -5 37 -13
37 -18 0 -16 31 -10 57 11 14 11 34 20 44 20 20 0 60 39 81 79 7 14 17 29 22
32 13 10 -13 49 -34 49 -11 0 -33 -18 -52 -45 -18 -24 -39 -44 -45 -45 -7 0
-13 -4 -13 -9 0 -5 -13 -16 -30 -24 -30 -16 -40 -11 -53 24 -3 9 -19 23 -36
30 -35 16 -39 34 -14 61 10 11 16 34 15 63 0 25 4 48 9 51 6 3 7 19 4 35 -10
45 2 70 30 63 12 -3 26 -1 29 5 5 7 45 11 102 11 94 0 94 0 94 55 0 44 -4 56
-20 65 -11 6 -20 19 -20 28 0 10 -4 22 -9 28 -5 5 -11 20 -13 34 -2 19 -10 26
-30 28 -16 2 -28 8 -28 13 0 5 -30 9 -67 9 -50 -1 -72 -5 -82 -17z m144 -33
c4 -6 10 -8 15 -5 11 7 30 -27 30 -54 0 -27 -16 -27 -30 -1 -6 11 -17 20 -25
20 -9 0 -15 10 -15 25 0 25 14 33 25 15z m101 -114 c8 -34 1 -61 -16 -61 -16
0 -26 45 -16 71 8 22 25 17 32 -10z"/>
<path d="M1781 1263 c-5 -10 -18 -18 -28 -18 -11 0 -19 -8 -19 -20 -3 -37 -5
-40 -14 -17 -11 26 -38 29 -47 5 -4 -11 1 -22 15 -31 12 -8 22 -20 22 -27 0
-7 6 -15 13 -18 10 -4 13 -45 15 -162 2 -87 7 -166 12 -176 15 -26 12 -76 -5
-109 -15 -30 -24 -34 -58 -30 -28 3 -18 -42 13 -57 29 -15 160 -18 160 -3 0 5
-8 14 -17 19 -16 9 -14 10 9 11 15 0 52 -7 82 -14 63 -17 168 -6 197 20 8 8
23 14 31 14 30 0 94 74 108 126 7 27 17 53 21 59 14 15 10 104 -5 138 -8 18
-17 57 -21 88 -6 52 -10 60 -63 110 -66 63 -92 79 -126 79 -14 0 -29 7 -34 17
-7 11 -15 14 -28 8 -34 -13 -128 -34 -136 -29 -5 3 -8 12 -8 20 0 22 -76 19
-89 -3z m307 -136 c19 -28 45 -68 59 -87 17 -24 23 -43 19 -61 -3 -14 0 -31 5
-36 15 -15 13 -96 -2 -124 -7 -13 -15 -31 -19 -39 -4 -8 -26 -26 -50 -39 -41
-23 -47 -23 -114 -13 -80 12 -101 30 -111 90 -4 20 -11 48 -16 62 -14 37 21
196 55 248 16 25 71 52 106 52 31 0 39 -6 68 -53z m-308 -481 c0 -2 3 -11 6
-20 4 -12 0 -16 -15 -16 -14 0 -21 6 -21 20 0 11 7 20 15 20 8 0 15 -2 15 -4z"/>
<path d="M2000 1120 c0 -15 -6 -19 -27 -17 -20 1 -29 -3 -31 -16 -5 -26 17
-49 40 -41 10 3 26 0 34 -7 20 -16 21 -12 16 49 -3 36 -8 52 -18 52 -8 0 -14
-9 -14 -20z"/>
<path d="M2060 1061 c0 -6 5 -13 11 -17 7 -4 9 -21 6 -41 -6 -37 27 -118 44
-107 11 6 1 103 -12 120 -5 6 -6 14 -2 17 8 9 -17 37 -33 37 -8 0 -14 -4 -14
-9z"/>
<path d="M1961 961 c2 -27 -3 -46 -14 -59 -22 -24 -21 -34 3 -55 19 -16 18
-47 -2 -47 -5 0 -6 -5 -3 -10 5 -8 11 -8 20 0 12 10 11 81 -1 102 -3 4 1 17 9
29 19 27 27 12 27 -48 0 -66 2 -83 11 -83 13 0 19 31 19 100 0 38 -3 75 -6 84
-9 24 -24 19 -24 -6 -1 -22 -2 -21 -16 5 -20 37 -26 34 -23 -12z"/>
<path d="M2250 1175 c0 -8 5 -15 10 -15 6 0 10 7 10 15 0 8 -4 15 -10 15 -5 0
-10 -7 -10 -15z"/>
<path d="M1680 1076 c0 -35 -5 -58 -15 -66 -10 -8 -12 -18 -6 -29 5 -9 12 -35
16 -58 4 -24 12 -43 17 -43 8 0 9 31 4 95 -4 62 -3 95 4 95 5 0 10 14 10 30 0
20 -5 30 -15 30 -11 0 -15 -13 -15 -54z"/>
<path d="M385 885 c0 -13 3 -21 8 -18 4 2 7 10 7 18 0 8 -3 16 -7 18 -5 3 -8
-5 -8 -18z"/>
<path d="M2318 904 c-5 -4 -8 -30 -8 -58 0 -35 3 -47 11 -39 5 5 9 32 7 58 -2
26 -6 43 -10 39z"/>
<path d="M1694 789 c8 -59 12 -67 26 -53 14 14 -2 96 -19 102 -11 4 -13 -6 -7
-49z"/>
<path d="M2309 773 c-1 -5 -1 -35 -1 -67 0 -68 21 -100 60 -90 31 9 30 57 -2
91 -14 15 -23 31 -20 35 3 5 0 15 -6 23 -13 16 -29 20 -31 8z"/>
<path d="M2237 645 c-24 -18 -18 -49 11 -53 17 -3 22 1 22 20 0 37 -12 49 -33
33z"/>
<path d="M2050 450 c0 -5 -6 -10 -14 -10 -18 0 -26 -22 -26 -76 0 -38 3 -44
24 -50 17 -4 25 -14 29 -38 4 -27 54 -99 58 -85 1 2 3 54 4 116 2 87 -1 113
-11 117 -8 3 -14 12 -14 21 0 9 -9 15 -25 15 -14 0 -25 -4 -25 -10z m46 -77
c3 -17 3 -36 0 -42 -3 -5 -2 -21 4 -35 6 -16 6 -27 0 -31 -13 -8 -26 31 -29
85 -1 13 -2 13 -11 0 -9 -13 -11 -13 -20 0 -11 17 -13 44 -4 52 3 3 16 5 30 4
19 -1 25 -8 30 -33z"/>
<path d="M2282 378 c1 -21 5 -38 10 -38 11 0 10 41 -2 60 -7 11 -9 5 -8 -22z"/>
<path d="M2291 314 c0 -11 3 -14 6 -6 3 7 2 16 -1 19 -3 4 -6 -2 -5 -13z"/>
<path d="M2292 280 c-19 -14 -27 -65 -24 -167 2 -105 4 -113 22 -113 19 0 20
7 20 125 0 125 0 125 40 125 59 0 54 27 -6 32 -25 2 -49 1 -52 -2z"/>
<path d="M0 220 c0 -21 3 -22 50 -17 50 6 50 6 50 -98 0 -98 1 -105 20 -105
21 0 22 6 22 128 0 36 3 45 24 52 13 5 24 12 24 14 0 3 -7 3 -15 0 -8 -3 -29
4 -46 17 -18 13 -52 24 -80 27 -46 4 -49 3 -49 -18z"/>
<path d="M385 191 c-3 -5 -1 -12 5 -16 5 -3 10 1 10 9 0 18 -6 21 -15 7z"/>
<path d="M391 134 c0 -11 3 -14 6 -6 3 7 2 16 -1 19 -3 4 -6 -2 -5 -13z"/>
<path d="M708 133 c7 -3 16 -2 19 1 4 3 -2 6 -13 5 -11 0 -14 -3 -6 -6z"/>
<path d="M868 133 c12 -2 32 -2 45 0 12 2 2 4 -23 4 -25 0 -35 -2 -22 -4z"/>
</g>
</svg>
