<?xml version="1.0" encoding="UTF-8" standalone="no"?>
<svg
   version="1.0"
   width="174.000000pt"
   height="128.000000pt"
   viewBox="0 0 174.000000 128.000000"
   preserveAspectRatio="xMidYMid meet"
   id="svg16"
   sodipodi:docname="H.svg"
   inkscape:version="1.4 (e7c3feb1, 2024-10-09)"
   xmlns:inkscape="http://www.inkscape.org/namespaces/inkscape"
   xmlns:sodipodi="http://sodipodi.sourceforge.net/DTD/sodipodi-0.dtd"
   xmlns="http://www.w3.org/2000/svg"
   xmlns:svg="http://www.w3.org/2000/svg">
  <defs
     id="defs16" />
  <sodipodi:namedview
     id="namedview16"
     pagecolor="#ffffff"
     bordercolor="#000000"
     borderopacity="0.25"
     inkscape:showpageshadow="2"
     inkscape:pageopacity="0.0"
     inkscape:pagecheckerboard="0"
     inkscape:deskcolor="#d1d1d1"
     inkscape:document-units="pt"
     inkscape:zoom="1.7235728"
     inkscape:cx="87.608717"
     inkscape:cy="65.851585"
     inkscape:current-layer="svg16" />
  <metadata
     id="metadata1">
Created by potrace 1.16, written by Peter Selinger 2001-2019
</metadata>
  <path
     d="M 58.8,11.6 C 58.3,12 58,13.3 58,14.4 c 0,1.7 1.2,2.5 5.1,3.9 5.1,1.8 5.1,1.8 4.6,6 -0.2,2.3 -1.3,6.4 -2.5,9.2 C 64.1,36.2 61.7,42.3 60,47 58.3,51.7 54.9,60.2 52.4,66 50,71.8 48,77 48,77.7 c 0,1.8 -6,6.3 -9.2,7 -3.6,0.7 -5.7,4.9 -3.5,7 1.1,1.1 4.4,1.2 17.3,0.6 15.9,-0.8 15.9,-0.8 16.2,-3.3 0.2,-2.1 -0.3,-2.7 -3,-3.5 -2.3,-0.7 -3.4,-1.7 -3.6,-3.3 -0.4,-3 6.7,-23.8 9,-26.2 1.6,-1.7 3.2,-1.9 18.5,-1.6 9.3,0.2 17.4,0.4 18.1,0.5 1.9,0.2 1.04127,2.113913 -1.83846,11.407692 C 103.0818,75.601472 102.19863,82.451951 91.5,86.5 c -4.6,1.6 -6,2.5 -6,4 0,1.9 0.7,2 17.5,2 15.4,0 17.5,-0.2 17.8,-1.6 0.2,-1 -1.1,-2.5 -3.2,-3.9 -3,-1.8 -3.6,-2.8 -3.6,-5.5 0,-4.2 3.7,-16 9.4,-30.3 2.4,-5.9 4.6,-12.1 5,-13.7 1,-4.3 4.5,-11.1 7.1,-13.5 1.2,-1.1 4.6,-2.8 7.6,-3.8 4.2,-1.3 5.5,-2.2 5.7,-4 0.3,-2.2 0.2,-2.2 -11.5,-2.4 -6.5,0 -14,-0.2 -16.8,-0.4 -7.4,-0.5 -9.7,0.2 -9.3,2.9 0.2,1.6 1.1,2.3 3.7,2.7 5.2,0.8 5.8,2.6 3.3,11.1 -1.1,4.1 -2.6,9.2 -3.1,11.4 -2.1,8 -3.3,8.5 -19,8.4 -16.7,-0.1 -20.5,-0.7 -20.9,-3.5 -0.4,-2.6 5.4,-19 8.1,-23.2 1.6,-2.3 3.4,-3.6 6.4,-4.3 5.1,-1.4 7.1,-3.3 5.4,-5.3 C 94.2,12.5 90.6,12.2 80.2,12.1 72.7,12 64.9,11.7 63,11.4 61.1,11.1 59.2,11.2 58.8,11.6 Z"
     id="path5"
     style="fill:#000000;stroke:none;stroke-width:0.1"
     sodipodi:nodetypes="cscccscsccccccccczcssccsccccccccsccccccccsc" />
</svg>
