<?xml version="1.0" encoding="UTF-8" standalone="no"?>
<svg
   version="1.0"
   width="136.000000pt"
   height="122.000000pt"
   viewBox="0 0 136.000000 122.000000"
   preserveAspectRatio="xMidYMid meet"
   id="svg9"
   sodipodi:docname="X.svg"
   inkscape:version="1.4 (e7c3feb1, 2024-10-09)"
   xmlns:inkscape="http://www.inkscape.org/namespaces/inkscape"
   xmlns:sodipodi="http://sodipodi.sourceforge.net/DTD/sodipodi-0.dtd"
   xmlns="http://www.w3.org/2000/svg"
   xmlns:svg="http://www.w3.org/2000/svg">
  <defs
     id="defs9" />
  <sodipodi:namedview
     id="namedview9"
     pagecolor="#ffffff"
     bordercolor="#000000"
     borderopacity="0.25"
     inkscape:showpageshadow="2"
     inkscape:pageopacity="0.0"
     inkscape:pagecheckerboard="0"
     inkscape:deskcolor="#d1d1d1"
     inkscape:document-units="pt"
     inkscape:zoom="2.557377"
     inkscape:cx="7.8205128"
     inkscape:cy="33.432692"
     inkscape:current-layer="svg9" />
  <metadata
     id="metadata1">
Created by potrace 1.16, written by Peter Selinger 2001-2019
</metadata>
  <path
     d="m 45,21.7 c -4.7,0.9 -4.6,2.2 0.6,7.1 4.6,4.2 5.2,5.3 6.3,11.2 0.7,3.6 1.9,9.3 2.7,12.7 1.9,8.4 1.8,13 -0.3,14.8 -1,0.8 -5.8,5.3 -10.8,9.9 C 31.9,88.3 30,89.7 24.9,91.5 c -5.590139,2.632647 -6.535027,0.221404 -8.426683,2.466346 -1.1,1.4 -0.764181,3.508516 -0.07332,4.533654 0.690864,1.025138 13.484966,3.67309 20.4,1.9 2.1,-0.6 2.3,-1.1 1.7,-4.3 C 38,93 38.4,91.7 41.1,88 45.2,82.3 54.8,73 56.6,73 c 2.1,0 3.1,2.9 3.8,11 0.7,7.4 0.7,7.5 -2.3,10.4 -3.4,3.3 -3.9,5.1 -1.5,6 2.9,1.1 25.399673,0.45052 26,-0.5 0.600327,-0.950518 -1.2,-2.9 -3.9,-5.3 -3.1,-2.7 -5.3,-5.8 -6.7,-9.4 -2.6,-7 -5.2,-23.6 -4,-26.7 1,-2.6 14.2,-16.1 21,-21.6 15.04062,-11.937 24.43851,-9.154492 20,-14.4 -1.24158,-1.489901 -22.841133,-1.938264 -24.9,-0.6 -1,0.6 -1.2,1.9 -0.8,4.1 1,4.6 -3,12.3 -9.8,19 -6.8,6.7 -8.3,6.3 -10.3,-3.1 -1.8,-8.8 -1,-12.2 3.4,-14.8 4.4,-2.6 4,-4.4 -1.2,-5.3 C 61.2,21.1 49,21 45,21.7 Z"
     id="path1"
     style="fill:#000000;stroke:none;stroke-width:0.1"
     sodipodi:nodetypes="cccccccczcccsccczcccccccscscc" />
</svg>
