<?xml version="1.0" encoding="UTF-8" standalone="no"?>
<svg
   version="1.0"
   width="80.000000pt"
   height="76.000000pt"
   viewBox="0 0 80.000000 76.000000"
   preserveAspectRatio="xMidYMid meet"
   id="svg6"
   sodipodi:docname="x.svg"
   inkscape:version="1.4 (e7c3feb1, 2024-10-09)"
   xmlns:inkscape="http://www.inkscape.org/namespaces/inkscape"
   xmlns:sodipodi="http://sodipodi.sourceforge.net/DTD/sodipodi-0.dtd"
   xmlns="http://www.w3.org/2000/svg"
   xmlns:svg="http://www.w3.org/2000/svg">
  <defs
     id="defs6" />
  <sodipodi:namedview
     id="namedview6"
     pagecolor="#ffffff"
     bordercolor="#000000"
     borderopacity="0.25"
     inkscape:showpageshadow="2"
     inkscape:pageopacity="0.0"
     inkscape:pagecheckerboard="0"
     inkscape:deskcolor="#d1d1d1"
     inkscape:document-units="pt"
     inkscape:zoom="2.9028594"
     inkscape:cx="-15.846444"
     inkscape:cy="40.821818"
     inkscape:current-layer="svg6" />
  <metadata
     id="metadata1">
Created by potrace 1.16, written by Peter Selinger 2001-2019
</metadata>
  <path
     d="m 25,14.6 c -6.5,5.5 -9.3,16.7 -3.7,14.8 1.2,-0.5 3.5,-0.8 5.2,-0.9 2.8,0 3.1,0.4 4.2,5 2.856347,9.509677 -2.458817,11.034487 -7.5,16.6 -2.5,3.1 -5.8,3.7 -9.3,1.8 -4.1,-2.1 -7.9,1.7 -7.9,8 0,5.9 5.7,8.7 10.3,5.1 5.59074,-4.472592 12.904878,-18.623171 15.9,-17.5 0.8,0.3 2.3,3.3 3.3,6.6 3.7,12.4 9.6,15.2 17.3,8.1 3.6,-3.3 4.2,-4.5 4.2,-7.9 0,-5 -0.6,-5.6 -4.1,-3.8 -6.5,3.4 -9.4,1.5 -10.5,-6.8 -0.9,-6.3 1,-11.1 6,-15.2 4.9,-4 6.2,-4.2 10.4,-1.8 5.1,2.9 8.2,-0.4 8.2,-8.8 0,-3.3 -0.4,-4.1 -2.5,-5.1 -4.1,-1.8 -7.4,0.1 -14.2,8.2 -7.5,9 -9.4,9.7 -11.7,4 -1.856143,-4.711182 -1.659419,-12.046338 -8.1,-13 -1.3,0 -3.8,1.2 -5.5,2.6 z"
     id="path2"
     style="fill:#000000;stroke:none;stroke-width:0.1"
     sodipodi:nodetypes="ccccccscsccsccccscccsc" />
</svg>
