<?xml version="1.0" standalone="no"?>
<!DOCTYPE svg PUBLIC "-//W3C//DTD SVG 20010904//EN"
 "http://www.w3.org/TR/2001/REC-SVG-20010904/DTD/svg10.dtd">
<svg version="1.0" xmlns="http://www.w3.org/2000/svg"
 width="112.000000pt" height="145.000000pt" viewBox="0 0 112.000000 145.000000"
 preserveAspectRatio="xMidYMid meet">
<metadata>
Created by potrace 1.16, written by Peter Selinger 2001-2019
</metadata>
<g transform="translate(0.000000,145.000000) scale(0.100000,-0.100000)"
fill="#000000" stroke="none">
<path d="M185 1430 c7 -22 7 -22 -78 -20 -59 1 -59 1 -57 -47 3 -74 3 -74 -25
-67 -20 5 -25 3 -25 -14 0 -17 6 -20 40 -19 42 2 42 2 53 87 2 10 18 17 50 20
53 7 63 14 72 53 6 23 4 27 -15 27 -17 0 -20 -4 -15 -20z"/>
<path d="M400 1441 c0 -23 67 -28 96 -6 17 13 14 14 -38 15 -32 0 -58 -4 -58
-9z"/>
<path d="M573 1438 c2 -7 11 -13 20 -12 10 0 31 1 47 2 51 3 33 22 -21 22 -36
0 -49 -4 -46 -12z"/>
<path d="M790 1441 c0 -13 36 -20 80 -14 61 8 48 23 -20 23 -33 0 -60 -4 -60
-9z"/>
<path d="M953 1423 c-7 -15 -13 -45 -13 -67 0 -61 34 -86 117 -86 57 0 63 2
63 21 0 19 -5 20 -67 18 -68 -2 -68 -2 -64 69 2 56 0 72 -10 72 -8 0 -20 -12
-26 -27z"/>
<path d="M700 1350 c0 -5 4 -10 9 -10 6 0 13 5 16 10 3 6 -1 10 -9 10 -9 0
-16 -4 -16 -10z"/>
<path d="M760 1285 c-14 -8 -35 -14 -47 -15 -25 0 -40 -16 -18 -18 48 -5 115
-3 124 2 6 4 11 16 11 27 0 23 -33 25 -70 4z"/>
<path d="M580 1260 c0 -5 18 -10 40 -10 22 0 40 5 40 10 0 6 -18 10 -40 10
-22 0 -40 -4 -40 -10z"/>
<path d="M415 1197 c-19 -15 -19 -16 -1 -36 16 -17 33 -21 110 -23 91 -3 91
-3 97 -68 12 -122 11 -591 -2 -606 -7 -9 -32 -14 -63 -14 -65 -1 -134 -14
-149 -29 -8 -8 -6 -16 9 -32 20 -19 27 -20 139 -11 96 7 121 12 131 27 11 15
13 92 9 393 -4 324 -6 378 -20 391 -23 23 -231 29 -260 8z"/>
<path d="M60 1180 c0 -5 5 -10 10 -10 6 0 10 5 10 10 0 6 -4 10 -10 10 -5 0
-10 -4 -10 -10z"/>
<path d="M276 1171 c-13 -14 -14 -24 -6 -45 16 -42 12 -53 -19 -67 -38 -17
-49 -59 -15 -59 17 0 24 7 29 30 7 32 12 35 35 20 10 -6 21 -3 37 12 21 20 22
23 7 39 -11 13 -14 27 -10 45 11 43 -27 59 -58 25z m34 -21 c0 -5 -4 -10 -10
-10 -5 0 -10 5 -10 10 0 6 5 10 10 10 6 0 10 -4 10 -10z"/>
<path d="M163 1021 c4 -60 4 -60 -50 -77 -41 -13 -57 -14 -65 -6 -7 7 -20 12
-30 12 -28 0 -22 -43 11 -79 33 -35 38 -36 77 -16 44 23 52 19 76 -32 12 -27
23 -50 24 -52 9 -11 34 25 40 55 6 33 7 34 55 34 44 0 49 2 49 22 0 20 1 20
19 4 23 -21 37 -5 21 24 -12 23 -48 40 -85 40 -14 0 -29 9 -35 20 -11 20 -11
20 -39 -1 -34 -25 -57 -18 -41 11 7 13 7 21 0 25 -6 4 -8 15 -5 24 6 21 -3 51
-16 51 -5 0 -8 -27 -6 -59z"/>
<path d="M313 828 c-6 -7 -13 -40 -16 -72 -9 -90 -26 -96 -39 -13 -3 16 -5 16
-25 2 -25 -18 -30 -54 -11 -73 10 -10 10 -15 -2 -22 -36 -23 -45 -8 -48 78 -2
45 -6 82 -10 82 -14 0 -32 -24 -32 -41 0 -30 -53 -101 -71 -96 -21 6 -59 -35
-59 -63 0 -17 4 -19 26 -14 20 5 26 2 31 -15 5 -19 12 -21 52 -19 25 1 54 9
63 16 14 12 36 13 103 8 84 -7 85 -7 97 18 9 22 8 29 -7 46 -14 15 -18 38 -19
95 -1 76 -14 107 -33 83z"/>
<path d="M253 528 c-36 -12 -51 -36 -27 -45 21 -8 60 12 74 37 12 23 5 24 -47
8z"/>
<path d="M273 353 c-34 -13 -5 -23 62 -23 43 0 75 4 75 10 0 6 -10 11 -22 12
-77 5 -104 5 -115 1z"/>
<path d="M536 307 c-41 -23 -58 -47 -33 -47 8 0 20 7 27 15 16 19 84 20 99 1
16 -19 55 -15 59 7 9 47 -86 62 -152 24z"/>
<path d="M0 299 c0 -13 6 -20 18 -18 9 1 22 1 27 0 6 -1 9 -53 7 -141 -3 -134
-3 -140 16 -140 19 0 20 8 24 103 6 171 -9 217 -69 217 -17 0 -23 -6 -23 -21z"/>
<path d="M986 285 c4 -8 8 -15 10 -15 2 0 4 7 4 15 0 8 -4 15 -10 15 -5 0 -7
-7 -4 -15z"/>
</g>
</svg>
