<?xml version="1.0" standalone="no"?>
<!DOCTYPE svg PUBLIC "-//W3C//DTD SVG 20010904//EN"
 "http://www.w3.org/TR/2001/REC-SVG-20010904/DTD/svg10.dtd">
<svg version="1.0" xmlns="http://www.w3.org/2000/svg"
 width="162.000000pt" height="195.000000pt" viewBox="0 0 162.000000 195.000000"
 preserveAspectRatio="xMidYMid meet">
<metadata>
Created by potrace 1.16, written by Peter Selinger 2001-2019
</metadata>
<g transform="translate(0.000000,195.000000) scale(0.100000,-0.100000)"
fill="#000000" stroke="none">
<path d="M142 1895 c5 -55 5 -55 -55 -55 -59 0 -59 0 -55 -42 2 -36 0 -43 -14
-42 -11 1 -18 -5 -18 -17 0 -40 56 -11 62 31 3 21 10 26 46 31 23 3 47 10 53
16 6 6 13 38 16 72 6 58 5 61 -17 61 -21 0 -22 -3 -18 -55z"/>
<path d="M1303 1682 c-8 -19 45 -64 68 -57 21 7 26 25 7 25 -7 0 -5 5 5 11 12
7 22 7 30 0 7 -5 18 -6 25 -2 23 14 -9 29 -72 33 -41 2 -60 -1 -63 -10z"/>
<path d="M1498 1653 c-16 -3 -30 -12 -33 -24 -4 -13 -12 -18 -21 -15 -8 3 -20
9 -28 12 -10 4 -14 0 -12 -12 2 -16 14 -19 75 -21 72 -3 72 -3 69 29 -3 34 -8
37 -50 31z"/>
<path d="M635 1534 c-45 -15 -80 -35 -98 -54 -31 -35 -29 -44 32 -119 36 -44
36 -44 43 -220 4 -97 11 -224 16 -283 12 -131 1 -326 -19 -340 -8 -5 -26 -15
-40 -23 -32 -17 -43 -43 -28 -61 9 -11 45 -14 149 -14 120 0 139 2 144 17 5
11 -5 28 -28 52 -34 36 -47 79 -47 161 0 56 9 80 32 80 34 0 58 -19 80 -63 12
-23 30 -53 40 -66 21 -26 24 -68 10 -118 -9 -30 -7 -35 20 -54 27 -19 41 -21
134 -17 59 2 109 8 116 15 18 18 1 51 -43 80 -26 17 -51 47 -68 79 -14 28 -42
70 -62 95 -53 66 -98 140 -98 164 0 31 132 152 199 181 56 25 91 50 91 65 0 5
-15 15 -34 23 -25 10 -51 12 -102 6 -131 -16 -164 -23 -176 -38 -10 -12 -7
-19 20 -42 17 -14 32 -34 32 -44 0 -10 -30 -49 -67 -87 -50 -52 -73 -69 -94
-69 -15 0 -29 7 -33 16 -8 21 -7 208 3 464 10 268 13 262 -124 214z"/>
<path d="M1433 1137 c-4 -7 -27 -19 -51 -27 -31 -10 -39 -16 -29 -22 13 -7 12
-16 -5 -63 -17 -47 -18 -58 -7 -72 21 -24 14 -331 -7 -354 -14 -16 -14 -20 1
-43 10 -14 14 -26 10 -26 -3 0 1 -7 9 -15 13 -13 13 -20 3 -35 -16 -27 -25
-25 -40 11 -11 27 -14 30 -25 16 -21 -25 21 -57 74 -57 25 0 47 -6 55 -16 33
-40 112 -58 123 -28 3 9 6 45 6 80 0 64 0 64 -39 64 -42 0 -54 17 -41 55 9 24
4 35 -16 35 -11 0 -13 -7 -8 -26 9 -36 -16 -28 -35 12 -8 16 -18 37 -23 46
-13 29 -9 117 8 149 11 22 21 30 34 26 11 -3 25 1 31 9 10 12 13 12 23 -1 6
-8 22 -16 36 -17 22 -3 25 1 28 30 4 35 -7 40 -53 22 -20 -8 -27 -7 -31 5 -4
10 -14 13 -30 9 -21 -5 -24 -3 -24 22 1 34 52 100 70 89 6 -4 8 -15 5 -26 -4
-10 -2 -19 3 -19 5 0 12 14 16 31 4 19 13 33 26 36 17 4 20 14 20 55 0 50 0
50 -39 43 -24 -4 -42 -2 -46 4 -8 15 -22 14 -32 -2z m61 -23 c9 -3 16 -15 16
-25 0 -24 -45 -26 -54 -3 -11 28 6 40 38 28z m16 -684 c0 -5 -11 -10 -25 -10
-14 0 -25 5 -25 10 0 6 11 10 25 10 14 0 25 -4 25 -10z"/>
<path d="M165 1118 c-72 -19 -90 -28 -115 -64 -14 -19 -31 -41 -37 -49 -7 -7
-13 -39 -13 -69 0 -72 17 -74 82 -6 40 41 54 50 83 50 40 0 95 -35 95 -60 0
-9 3 -19 6 -23 14 -14 12 -92 -3 -118 -14 -24 -23 -27 -94 -32 -52 -3 -93 -12
-123 -28 -46 -23 -46 -23 -46 -134 0 -111 0 -111 35 -145 38 -37 23 -36 240
-11 42 5 72 4 76 -1 4 -6 16 -5 30 3 13 6 31 15 39 19 11 6 15 23 14 64 -1 59
-10 79 -23 58 -6 -10 -11 -9 -21 3 -10 12 -14 56 -14 168 -1 84 -5 157 -9 164
-4 6 -2 23 5 38 10 21 16 25 37 20 14 -4 30 -14 37 -23 9 -13 16 -14 24 -6 8
8 7 16 -6 28 -12 13 -14 20 -5 29 14 14 14 47 0 47 -8 0 -9 4 0 13 9 11 3 16
-29 26 -22 7 -45 9 -50 6 -6 -4 -26 3 -44 15 -41 25 -115 33 -171 18z m87
-452 c11 -17 9 -86 -2 -86 -5 0 -10 9 -10 19 0 11 -13 28 -30 38 -28 16 -37
33 -25 45 9 8 59 -4 67 -16z m-152 -76 c0 -16 -4 -30 -9 -30 -12 0 -24 37 -16
50 12 20 25 10 25 -20z"/>
<path d="M1276 1042 c-8 -13 0 -46 12 -50 8 -2 12 8 12 27 0 29 -13 41 -24 23z"/>
<path d="M116 898 c-11 -43 -7 -120 7 -116 7 3 13 29 15 71 3 65 -9 90 -22 45z"/>
<path d="M200 856 c0 -37 4 -66 10 -66 6 0 10 26 10 59 0 33 -4 63 -10 66 -6
4 -10 -18 -10 -59z"/>
<path d="M1316 894 c-10 -25 1 -29 14 -5 6 12 7 21 1 21 -5 0 -12 -7 -15 -16z"/>
<path d="M1275 881 c-6 -11 9 -23 19 -14 9 9 7 23 -3 23 -6 0 -12 -4 -16 -9z"/>
<path d="M1297 768 c-3 -29 -8 -66 -12 -81 -7 -27 -7 -28 14 -16 18 12 21 23
21 81 0 80 -16 91 -23 16z"/>
<path d="M1260 780 c0 -16 3 -30 8 -30 4 0 7 14 7 30 0 17 -3 30 -7 30 -5 0
-8 -13 -8 -30z"/>
<path d="M1441 752 c-1 -33 3 -51 9 -47 12 7 12 52 0 80 -6 15 -9 6 -9 -33z"/>
<path d="M1401 734 c0 -11 3 -14 6 -6 3 7 2 16 -1 19 -3 4 -6 -2 -5 -13z"/>
<path d="M424 669 c3 -17 7 -37 7 -43 1 -6 4 3 8 19 8 34 4 55 -11 55 -6 0 -8
-13 -4 -31z"/>
<path d="M1425 669 c-4 -6 -5 -12 -2 -15 2 -3 7 2 10 11 7 17 1 20 -8 4z"/>
<path d="M1530 183 c0 -17 -9 -24 -36 -32 -19 -5 -43 -7 -52 -4 -13 5 -14 3
-6 -6 7 -8 10 -36 6 -77 -5 -61 -4 -64 18 -64 22 0 23 3 17 60 -5 60 -5 60 33
60 28 0 39 5 42 18 4 15 12 18 37 14 27 -4 31 -1 31 18 0 20 -3 22 -36 15 -26
-4 -39 -2 -45 7 -6 9 -9 7 -9 -9z"/>
<path d="M0 161 c0 -12 7 -18 18 -17 15 1 17 -7 13 -72 -3 -68 -2 -72 18 -72
20 0 21 5 18 78 -1 54 -6 81 -17 89 -23 19 -50 16 -50 -6z"/>
</g>
</svg>
