<?xml version="1.0" standalone="no"?>
<!DOCTYPE svg PUBLIC "-//W3C//DTD SVG 20010904//EN"
 "http://www.w3.org/TR/2001/REC-SVG-20010904/DTD/svg10.dtd">
<svg version="1.0" xmlns="http://www.w3.org/2000/svg"
 width="220.000000pt" height="153.000000pt" viewBox="0 0 220.000000 153.000000"
 preserveAspectRatio="xMidYMid meet">
<metadata>
Created by potrace 1.16, written by Peter Selinger 2001-2019
</metadata>
<g transform="translate(0.000000,153.000000) scale(0.100000,-0.100000)"
fill="#000000" stroke="none">
<path d="M280 1520 c0 -6 -53 -10 -140 -10 -93 0 -140 -4 -140 -11 0 -16 264
-5 325 14 50 16 50 16 3 16 -27 1 -48 -3 -48 -9z"/>
<path d="M853 1523 c15 -2 37 -2 50 0 12 2 0 4 -28 4 -27 0 -38 -2 -22 -4z"/>
<path d="M963 1523 c9 -2 23 -2 30 0 6 3 -1 5 -18 5 -16 0 -22 -2 -12 -5z"/>
<path d="M2055 1520 c3 -5 8 -10 11 -10 2 0 4 5 4 10 0 6 -5 10 -11 10 -5 0
-7 -4 -4 -10z"/>
<path d="M2115 1511 c-21 -11 -25 -16 -14 -19 12 -2 18 -19 22 -59 7 -63 10
-69 50 -78 23 -6 27 -4 27 15 0 16 -5 21 -22 18 -22 -3 -23 0 -20 54 5 75 -4
89 -43 69z"/>
<path d="M440 1493 c-51 -6 -62 -36 -58 -169 3 -108 3 -108 68 -105 36 1 69 6
74 11 12 12 -26 30 -58 27 -24 -2 -29 4 -42 38 -7 22 -14 63 -14 91 0 67 22
89 86 85 34 -1 45 1 42 11 -5 14 -40 18 -98 11z"/>
<path d="M690 1460 c12 -17 24 -49 27 -71 7 -46 15 -53 49 -45 24 6 25 9 22
74 -3 67 -3 67 -62 70 -58 3 -58 3 -36 -28z m73 -17 c4 -3 2 -12 -4 -20 -9
-10 -15 -10 -25 -2 -8 6 -11 15 -8 20 6 11 28 12 37 2z"/>
<path d="M2056 1480 c-19 -6 -19 -7 -1 -13 20 -8 29 -4 24 11 -2 5 -13 6 -23
2z"/>
<path d="M552 1474 c10 -10 58 -12 64 -3 3 5 -12 9 -32 9 -21 0 -35 -3 -32 -6z"/>
<path d="M209 1456 c-2 -2 -3 -294 -2 -648 2 -643 2 -643 53 -643 27 0 50 3
50 7 0 9 -14 11 -47 9 -29 -3 -36 12 -35 73 1 28 1 121 0 206 0 85 1 333 1
550 1 352 3 396 18 407 9 7 19 10 23 8 5 -3 10 2 14 10 4 11 -1 15 -18 15 -14
0 -31 2 -38 5 -8 3 -16 4 -19 1z"/>
<path d="M2066 1419 c-8 -43 -8 -69 2 -69 5 0 9 23 11 50 2 57 -3 65 -13 19z"/>
<path d="M318 1433 c7 -3 16 -2 19 1 4 3 -2 6 -13 5 -11 0 -14 -3 -6 -6z"/>
<path d="M1912 1361 c-19 -26 -25 -28 -67 -23 -38 4 -49 1 -66 -17 -28 -30
-21 -70 16 -92 54 -31 79 -25 119 31 20 28 36 56 36 64 0 7 7 19 15 26 23 19
18 40 -8 40 -14 0 -32 -12 -45 -29z m-9 -59 c8 -12 -5 -29 -36 -45 -40 -21
-67 -11 -67 22 0 26 3 28 49 30 27 1 52 -2 54 -7z"/>
<path d="M1155 1161 c-104 -6 -110 -7 -113 -28 -3 -18 7 -29 42 -50 82 -50 96
-121 45 -231 -18 -37 -35 -78 -40 -92 -17 -55 -71 -176 -84 -189 -27 -27 -43
-2 -84 131 -23 73 -51 156 -62 183 -10 28 -19 58 -19 66 0 9 -7 36 -15 60 -21
59 -13 85 30 99 24 8 35 18 35 31 0 18 -8 19 -133 19 -124 0 -135 -2 -153 -21
-19 -21 -19 -22 6 -38 52 -33 69 -61 95 -147 14 -49 30 -98 35 -109 17 -39 95
-288 135 -428 19 -67 50 -96 84 -77 27 14 43 45 74 147 15 45 35 99 47 120 11
21 20 43 20 50 0 7 16 47 36 89 30 61 40 74 57 72 17 -2 27 -25 57 -118 35
-108 91 -289 105 -337 10 -36 32 -48 59 -33 27 14 51 62 65 131 6 25 21 65 35
90 14 24 34 71 46 104 29 80 112 286 143 356 22 50 30 58 68 71 35 11 45 20
47 39 3 23 -2 27 -48 37 -78 18 -234 16 -250 -3 -17 -21 -2 -36 47 -50 60 -17
61 -29 13 -151 -23 -60 -57 -156 -76 -213 -52 -160 -77 -184 -112 -113 -38 74
-122 370 -122 428 0 29 4 35 32 42 37 9 58 36 41 53 -14 14 -55 17 -188 10z"/>
<path d="M1923 1138 c-48 -23 -14 -107 43 -108 21 0 41 13 62 41 21 27 -15 79
-53 78 -16 0 -40 -5 -52 -11z m57 -38 c13 -8 12 -11 -5 -24 -11 -9 -23 -16
-27 -16 -12 0 -20 20 -14 35 6 17 24 19 46 5z"/>
<path d="M2166 1085 c4 -8 10 -12 15 -9 14 8 10 24 -6 24 -9 0 -12 -6 -9 -15z"/>
<path d="M2090 861 c-8 -6 -37 -13 -65 -16 -51 -7 -115 -41 -115 -61 0 -6 -11
-28 -25 -48 -23 -33 -25 -46 -26 -159 0 -67 4 -138 10 -157 14 -43 14 -53 1
-45 -5 3 -10 -1 -10 -9 0 -9 8 -16 19 -16 10 0 36 -8 57 -17 22 -9 47 -15 57
-14 10 1 24 -3 32 -9 11 -9 22 -8 49 5 20 10 44 14 55 10 16 -5 23 -1 31 19 5
14 16 26 25 26 24 0 20 51 -5 57 -19 5 -20 14 -20 211 0 183 -2 206 -17 218
-21 16 -33 17 -53 5z m44 -198 c3 -25 1 -53 -5 -64 -13 -24 -131 -81 -143 -69
-11 11 1 30 20 30 8 0 14 7 14 15 0 12 -9 15 -37 13 -37 -3 -38 -2 -35 27 5
46 51 123 76 127 11 2 40 -5 62 -16 38 -17 42 -23 48 -63z m-204 -48 c0 -12
-28 -35 -42 -35 -2 0 -2 16 0 35 4 30 6 33 23 24 10 -5 19 -16 19 -24z m168
-120 c10 -9 11 -21 5 -46 -20 -74 -113 -56 -113 21 0 28 5 40 18 43 25 6 75
-4 90 -18z"/>
<path d="M498 508 c4 -3 23 -9 43 -13 28 -5 36 -3 36 9 0 11 -11 14 -43 13
-24 -1 -40 -5 -36 -9z"/>
<path d="M595 510 c-3 -5 1 -10 9 -10 9 0 16 5 16 10 0 6 -4 10 -9 10 -6 0
-13 -4 -16 -10z"/>
<path d="M2151 194 c-21 -19 -24 -33 -26 -100 -2 -51 -7 -79 -16 -85 -10 -6
-3 -9 20 -9 34 0 34 0 29 85 -4 84 -4 85 19 85 25 0 31 21 11 38 -9 7 -20 3
-37 -14z"/>
<path d="M2043 193 c-33 -6 -28 -23 5 -23 19 0 29 5 29 15 0 8 -3 14 -6 14 -3
-1 -16 -4 -28 -6z"/>
<path d="M396 182 c-13 -12 -4 -19 19 -14 14 2 23 7 20 10 -8 8 -33 11 -39 4z"/>
<path d="M1053 179 c-30 -11 -29 -14 7 -14 17 0 30 3 30 7 0 13 -15 16 -37 7z"/>
<path d="M800 170 c0 -5 14 -7 33 -3 45 8 47 13 4 13 -20 0 -37 -4 -37 -10z"/>
<path d="M936 171 c6 -6 77 -1 84 6 2 2 -17 3 -43 2 -25 -2 -44 -5 -41 -8z"/>
</g>
</svg>
