<?xml version="1.0" standalone="no"?>
<!DOCTYPE svg PUBLIC "-//W3C//DTD SVG 20010904//EN"
 "http://www.w3.org/TR/2001/REC-SVG-20010904/DTD/svg10.dtd">
<svg version="1.0" xmlns="http://www.w3.org/2000/svg"
 width="88.000000pt" height="79.000000pt" viewBox="0 0 88.000000 79.000000"
 preserveAspectRatio="xMidYMid meet">
<metadata>
Created by potrace 1.16, written by Peter Selinger 2001-2019
</metadata>
<g transform="translate(0.000000,79.000000) scale(0.100000,-0.100000)"
fill="#000000" stroke="none">
<path d="M105 769 c10 -29 -7 -37 -60 -29 -40 6 -45 5 -45 -12 0 -10 6 -18 14
-18 8 0 22 -7 30 -15 14 -14 18 -14 41 1 25 16 55 62 55 84 0 5 -9 10 -21 10
-16 0 -19 -4 -14 -21z"/>
<path d="M752 763 c2 -21 12 -33 38 -45 22 -11 28 -17 17 -18 -23 0 -17 -22 6
-26 11 -1 17 5 17 16 0 14 6 18 25 14 20 -3 25 0 25 16 0 17 -7 20 -50 20 -49
0 -50 1 -44 25 5 21 3 25 -15 25 -18 0 -21 -5 -19 -27z"/>
<path d="M56 621 c-4 -6 -18 -11 -32 -11 -21 0 -24 -4 -24 -40 0 -38 1 -40 20
-30 44 24 53 -18 16 -73 -26 -37 -47 -147 -28 -147 5 0 12 13 15 28 8 39 70
126 93 131 49 9 76 71 30 71 -13 0 -29 7 -36 15 -9 11 -17 12 -30 5 -25 -13
-30 -13 -30 5 0 7 8 18 18 24 13 7 14 13 6 21 -8 8 -14 9 -18 1z"/>
<path d="M150 595 c12 -15 30 -12 30 6 0 5 -10 9 -21 9 -18 0 -19 -2 -9 -15z"/>
<path d="M806 585 c-14 -11 -17 -22 -13 -44 5 -24 2 -34 -15 -45 -24 -17 -18
-46 10 -46 24 0 42 -19 42 -44 0 -12 12 -29 25 -39 25 -18 25 -18 25 36 0 46
-3 55 -20 60 -17 4 -20 14 -20 71 0 69 -3 74 -34 51z"/>
<path d="M303 556 c3 -18 19 -55 36 -82 33 -54 31 -64 -23 -91 -44 -22 -76
-53 -76 -74 0 -26 20 -28 68 -7 24 10 52 18 63 18 23 0 39 -35 39 -84 0 -39
21 -71 42 -63 16 6 28 49 28 99 0 40 22 45 87 18 53 -22 57 -22 69 -5 19 25 5
45 -55 80 -28 16 -51 36 -51 44 0 8 18 41 41 73 66 95 28 122 -61 43 -59 -53
-67 -51 -126 20 -25 32 -44 45 -62 45 -22 0 -24 -3 -19 -34z"/>
<path d="M795 379 c-4 -5 -18 -15 -32 -20 -14 -5 -27 -18 -30 -29 -3 -11 -10
-20 -15 -20 -6 0 -5 -6 2 -15 16 -19 68 -9 98 19 19 19 21 27 13 49 -11 28
-25 35 -36 16z"/>
<path d="M67 373 c-22 -21 3 -93 32 -93 10 0 24 -7 31 -15 7 -8 16 -12 21 -9
16 9 10 39 -11 52 -11 7 -20 18 -20 26 0 12 -30 46 -42 46 -2 0 -8 -3 -11 -7z"/>
<path d="M610 240 c0 -5 5 -10 11 -10 5 0 7 5 4 10 -3 6 -8 10 -11 10 -2 0 -4
-4 -4 -10z"/>
<path d="M422 143 c4 -21 33 -25 33 -3 0 8 -8 16 -18 18 -14 3 -18 -1 -15 -15z"/>
<path d="M853 103 c-12 -2 -25 -13 -28 -23 -3 -10 -15 -22 -26 -25 -25 -8 -25
-35 1 -35 11 0 20 -4 20 -10 0 -5 7 -10 15 -10 11 0 15 11 15 40 0 29 4 40 15
40 8 0 15 7 15 15 0 8 -1 14 -2 14 -2 -1 -13 -4 -25 -6z"/>
<path d="M0 49 c0 -24 4 -28 23 -26 13 1 21 -3 20 -10 -2 -8 8 -13 27 -13 31
0 31 0 -7 37 -46 47 -63 50 -63 12z"/>
</g>
</svg>
