<?xml version="1.0" encoding="UTF-8" standalone="no"?>
<svg
   version="1.0"
   width="128pt"
   height="132pt"
   viewBox="0 0 128 132"
   preserveAspectRatio="xMidYMid"
   id="svg7"
   xmlns="http://www.w3.org/2000/svg"
   xmlns:svg="http://www.w3.org/2000/svg">
  <defs
     id="defs7" />
  <metadata
     id="metadata1">
Created by potrace 1.16, written by Peter Selinger 2001-2019
</metadata>
  <path
     d="m 34.1,18.1 c -1.682981,0.563444 -1.606731,1.57512 -0.5,2.4 1,0.8 3.7,2 5.9,2.6 7.6,2.1 9,5.4 6.1,14.1 -0.8,2.4 -2.2,7.7 -3.1,11.8 -0.9,4.1 -2.7,10.9 -4.1,15 -1.3,4.1 -3.3,10.9 -4.5,15 -2.6,8.8 -4.6,11 -10.3,11 -4.8,0.1 -7.6,1.8 -7.6,4.9 0,4.1 4.210577,4.796635 27.710577,3.596635 12,-0.7 23.820673,-2.017308 26.520673,-2.517308 C 86.63125,92.379327 97.8,79.2 104.1,58.2 107.79091,46.958625 104.97532,34.058029 96.9,25.3 93.3,22 85.9,19.2 77.5,18.1 68.1,16.8 37.4,16.8 34.1,18.1 Z m 47,7.8 c 5.4,3.5 9.4,7.7 10.8,11.4 0.6,1.5 1.3,6.2 1.7,10.5 0.6,8.6 -1.2,16 -6.3,25.5 C 82.2,82.7 69.617308,89.848077 58.417308,90.748077 49.417308,91.448077 46,90.7 46,84.7 46,81 49.9,65.6 55,49 c 1.1,-3.6 2.7,-9.9 3.5,-14 2,-9.8 4.2,-12 12.4,-12 4.6,0 6.6,0.6 10.2,2.9 z"
     id="path1"
     style="fill:#000000;stroke:none;stroke-width:0.1" />
</svg>
