<?xml version="1.0" standalone="no"?>
<!DOCTYPE svg PUBLIC "-//W3C//DTD SVG 20010904//EN"
 "http://www.w3.org/TR/2001/REC-SVG-20010904/DTD/svg10.dtd">
<svg version="1.0" xmlns="http://www.w3.org/2000/svg"
 width="128.000000pt" height="132.000000pt" viewBox="0 0 128.000000 132.000000"
 preserveAspectRatio="xMidYMid meet">
<metadata>
Created by potrace 1.16, written by Peter Selinger 2001-2019
</metadata>
<g transform="translate(0.000000,132.000000) scale(0.100000,-0.100000)"
fill="#000000" stroke="none">
<path d="M341 1139 c-23 -9 -24 -10 -5 -24 10 -8 37 -20 59 -26 76 -21 90 -54
61 -141 -8 -24 -22 -77 -31 -118 -9 -41 -27 -109 -41 -150 -13 -41 -33 -109
-45 -150 -26 -88 -46 -110 -103 -110 -48 -1 -76 -18 -76 -49 0 -41 31 -44 266
-32 120 7 239 17 266 22 164 36 286 167 349 377 17 56 20 86 16 132 -7 66 -50
161 -88 197 -36 33 -110 61 -194 72 -94 13 -401 13 -434 0z m470 -78 c54 -35
94 -77 108 -114 6 -15 13 -62 17 -105 6 -86 -12 -160 -63 -255 -51 -94 -180
-175 -292 -184 -90 -7 -121 10 -121 70 0 37 39 191 90 357 11 36 27 99 35 140
20 98 42 120 124 120 46 0 66 -6 102 -29z"/>
<path d="M1267 1103 c-12 -20 -11 -106 1 -110 9 -4 12 12 12 56 0 58 -3 70
-13 54z"/>
<path d="M1260 840 c0 -5 5 -10 10 -10 6 0 10 5 10 10 0 6 -4 10 -10 10 -5 0
-10 -4 -10 -10z"/>
<path d="M1182 778 c-40 -53 -40 -53 1 -72 39 -19 40 -19 53 -1 8 10 15 36 16
57 0 21 1 44 2 50 1 7 -7 14 -16 16 -10 2 -31 -16 -56 -50z"/>
<path d="M1227 675 c-15 -8 -31 -14 -35 -13 -9 1 -37 -57 -72 -152 -21 -58
-27 -88 -23 -119 6 -46 21 -62 34 -39 5 9 25 19 44 22 26 5 39 14 47 34 15 39
12 120 -7 149 -16 23 -15 26 7 48 76 79 78 108 5 70z m8 -24 c3 -5 1 -12 -5
-16 -5 -3 -10 1 -10 9 0 18 6 21 15 7z"/>
<path d="M1112 635 c-6 -14 -8 -25 -3 -25 8 0 23 41 17 47 -1 2 -8 -8 -14 -22z"/>
<path d="M1240 511 c0 -5 5 -13 10 -16 6 -3 10 -2 10 4 0 5 -4 13 -10 16 -5 3
-10 2 -10 -4z"/>
</g>
</svg>
