<?xml version="1.0" encoding="UTF-8" standalone="no"?>
<svg
   version="1.0"
   width="62pt"
   height="78pt"
   viewBox="0 0 62 78"
   preserveAspectRatio="xMidYMid"
   id="svg1"
   xmlns="http://www.w3.org/2000/svg"
   xmlns:svg="http://www.w3.org/2000/svg">
  <defs
     id="defs1" />
  <metadata
     id="metadata1">
Created by potrace 1.16, written by Peter Selinger 2001-2019
</metadata>
  <g
     transform="matrix(0.1,0,0,-0.1,0,78)"
     fill="#000000"
     stroke="none"
     id="g1">
    <path
       d="m 265,646 c -41,-19 -88,-70 -83,-93 3,-15 15,-19 76,-23 58,-4 77,-9 88,-24 38,-53 -9,-137 -129,-229 -36,-27 -44,-48 -31,-81 5,-13 27,-16 136,-16 155,0 175,8 201,75 22,61 10,82 -32,60 -50,-26 -114,-37 -144,-26 -34,13 -34,35 -1,64 14,12 43,48 65,81 30,45 39,68 39,101 0,92 -97,150 -185,111 z"
       id="path1" />
  </g>
</svg>
