<?xml version="1.0" standalone="no"?>
<!DOCTYPE svg PUBLIC "-//W3C//DTD SVG 20010904//EN"
 "http://www.w3.org/TR/2001/REC-SVG-20010904/DTD/svg10.dtd">
<svg version="1.0" xmlns="http://www.w3.org/2000/svg"
 width="62.000000pt" height="78.000000pt" viewBox="0 0 62.000000 78.000000"
 preserveAspectRatio="xMidYMid meet">
<metadata>
Created by potrace 1.16, written by Peter Selinger 2001-2019
</metadata>
<g transform="translate(0.000000,78.000000) scale(0.100000,-0.100000)"
fill="#000000" stroke="none">
<path d="M265 646 c-41 -19 -88 -70 -83 -93 3 -15 15 -19 76 -23 58 -4 77 -9
88 -24 38 -53 -9 -137 -129 -229 -36 -27 -44 -48 -31 -81 5 -13 27 -16 136
-16 155 0 175 8 201 75 22 61 10 82 -32 60 -50 -26 -114 -37 -144 -26 -34 13
-34 35 -1 64 14 12 43 48 65 81 30 45 39 68 39 101 0 92 -97 150 -185 111z"/>
</g>
</svg>
