<?xml version="1.0" standalone="no"?>
<!DOCTYPE svg PUBLIC "-//W3C//DTD SVG 20010904//EN"
 "http://www.w3.org/TR/2001/REC-SVG-20010904/DTD/svg10.dtd">
<svg version="1.0" xmlns="http://www.w3.org/2000/svg"
 width="179.000000pt" height="197.000000pt" viewBox="0 0 179.000000 197.000000"
 preserveAspectRatio="xMidYMid meet">
<metadata>
Created by potrace 1.16, written by Peter Selinger 2001-2019
</metadata>
<g transform="translate(0.000000,197.000000) scale(0.100000,-0.100000)"
fill="#000000" stroke="none">
<path d="M132 1900 c4 -70 4 -70 -64 -70 -61 0 -68 -2 -68 -19 0 -17 8 -20 52
-23 50 -3 53 -5 59 -33 5 -22 7 -24 8 -8 0 12 11 42 24 66 27 53 27 157 0 157
-13 0 -15 -12 -11 -70z"/>
<path d="M1362 1950 c14 -22 22 -23 173 -24 100 -1 100 -1 103 -66 1 -35 6
-78 10 -95 8 -29 10 -30 75 -33 55 -3 67 -1 67 12 0 13 -12 16 -54 16 -30 0
-57 3 -59 8 -2 4 0 50 3 102 4 52 5 97 4 99 -2 2 -9 -1 -17 -7 -18 -15 -290
-18 -295 -3 -2 6 -8 11 -13 11 -5 0 -4 -9 3 -20z"/>
<path d="M200 1810 c0 -5 5 -10 10 -10 6 0 10 5 10 10 0 6 -4 10 -10 10 -5 0
-10 -4 -10 -10z"/>
<path d="M1387 1799 c6 -20 7 -20 18 -5 14 19 121 24 109 5 -4 -8 0 -8 15 0
11 7 21 14 21 16 0 3 -38 5 -84 5 -81 0 -84 -1 -79 -21z"/>
<path d="M1560 1813 c0 -5 5 -15 10 -23 8 -12 10 -11 10 8 0 12 -4 22 -10 22
-5 0 -10 -3 -10 -7z"/>
<path d="M1217 1799 c7 -7 15 -10 18 -7 3 3 -2 9 -12 12 -14 6 -15 5 -6 -5z"/>
<path d="M590 1684 c-14 -7 -36 -24 -49 -38 -23 -24 -23 -27 -8 -44 10 -10 17
-24 17 -30 0 -8 22 -12 64 -12 64 0 64 0 68 56 3 52 2 56 -26 70 -33 16 -33
16 -66 -2z m55 -59 c0 -27 -4 -30 -33 -33 -40 -4 -53 20 -26 49 27 30 59 21
59 -16z"/>
<path d="M1304 1686 c-7 -7 -24 -22 -40 -33 -26 -19 -27 -23 -15 -46 10 -18
10 -30 2 -45 -7 -14 -8 -23 -1 -27 5 -3 10 1 10 9 0 22 16 20 34 -5 13 -18 21
-21 59 -15 50 8 102 52 91 79 -3 9 -12 13 -20 10 -9 -3 -18 5 -24 22 -13 34
-3 47 16 21 17 -24 33 -12 17 12 -6 10 -21 16 -36 14 -14 -1 -28 2 -32 8 -9
14 -48 12 -61 -4z"/>
<path d="M898 1657 c-33 -15 -68 -47 -68 -62 0 -6 12 -22 26 -36 14 -13 33
-37 41 -53 36 -69 40 -115 32 -412 -4 -159 -5 -308 -2 -330 3 -23 0 -57 -6
-77 -11 -33 -22 -41 -83 -61 -18 -5 -24 -33 -10 -51 16 -24 89 -36 186 -32 81
4 102 8 113 23 20 27 16 49 -14 85 -27 32 -27 32 -36 338 -5 168 -6 380 -3
469 7 205 4 212 -88 211 -33 0 -73 -6 -88 -12z"/>
<path d="M1657 1633 c-4 -3 -6 -40 -5 -82 1 -76 1 -76 8 4 6 87 6 88 -3 78z"/>
<path d="M523 1336 c-32 -15 -29 -34 3 -28 16 3 30 -1 36 -9 6 -10 7 -6 3 11
-10 34 -16 38 -42 26z"/>
<path d="M1650 1326 c0 -13 5 -28 10 -31 6 -3 10 3 10 14 0 12 0 24 1 28 0 4
-4 9 -10 11 -6 2 -11 -8 -11 -22z"/>
<path d="M50 1235 c0 -47 3 -55 18 -55 26 0 60 -40 64 -75 2 -20 9 -30 20 -30
28 0 33 -13 34 -88 0 -68 17 -127 36 -127 4 0 8 50 8 110 0 91 -3 110 -15 110
-11 0 -15 12 -16 48 -1 65 -11 95 -36 107 -11 6 -28 17 -36 24 -9 7 -20 10
-25 7 -6 -3 -15 1 -22 9 -22 27 -30 16 -30 -40z"/>
<path d="M1480 1275 c17 -21 7 -29 -19 -16 -22 12 -103 6 -161 -11 -69 -21
-89 -62 -49 -104 11 -12 27 -46 34 -75 17 -61 19 -237 5 -344 -8 -61 -13 -73
-41 -96 -22 -18 -30 -31 -26 -43 7 -18 40 -22 153 -17 54 2 73 -1 83 -13 8 -9
22 -16 32 -16 16 0 17 -6 13 -52 -12 -127 -15 -140 -35 -145 -10 -3 -19 -9
-19 -14 0 -5 -9 -9 -20 -9 -31 0 -25 39 15 106 19 32 35 64 35 72 0 22 -24 8
-38 -22 -8 -15 -20 -30 -28 -33 -8 -3 -14 -13 -14 -23 0 -10 -5 -20 -12 -22
-11 -4 -14 -134 -3 -168 10 -32 -19 -42 -115 -39 -86 4 -90 3 -90 -17 0 -11
10 -30 23 -42 44 -41 176 -21 192 28 4 11 10 20 15 20 4 0 20 25 35 56 15 31
36 59 46 61 11 3 19 14 19 24 0 11 5 19 11 19 7 0 9 10 5 24 -3 14 -1 28 5 31
6 4 9 36 8 78 -2 40 2 80 8 91 10 18 11 17 30 -3 18 -19 22 -20 33 -6 7 8 19
15 26 15 8 0 14 4 14 9 0 4 16 11 36 14 23 4 48 19 70 41 34 35 34 35 34 275
0 240 0 240 -22 247 -13 4 -40 22 -61 40 -20 19 -46 34 -56 34 -10 0 -22 7
-25 16 -4 11 -13 14 -30 10 -16 -4 -26 -1 -30 10 -4 11 -10 12 -24 5 -14 -7
-24 -6 -38 4 -25 19 -40 19 -24 0z m96 -75 c0 -25 6 -35 22 -41 12 -5 35 -33
52 -63 17 -30 38 -60 45 -66 17 -14 21 -105 5 -115 -5 -3 -10 -27 -10 -53 -1
-66 -30 -141 -69 -180 -61 -60 -67 -50 -84 173 -2 22 -4 48 -5 57 -1 9 -8 23
-15 30 -8 7 -17 20 -20 28 -9 19 -1 -49 8 -72 4 -10 3 -18 -1 -18 -13 0 -30
62 -49 177 -17 102 -17 102 4 129 19 24 29 28 69 27 26 -1 37 1 25 4 -13 2
-23 11 -23 18 0 11 6 12 23 6 16 -6 22 -17 23 -41z m-121 -510 c3 -5 -1 -10
-10 -10 -9 0 -13 5 -10 10 3 6 8 10 10 10 2 0 7 -4 10 -10z"/>
<path d="M1638 1026 c-10 -7 -18 -21 -18 -30 0 -9 -4 -16 -10 -16 -5 0 -10
-20 -10 -43 0 -24 -3 -47 -7 -51 -4 -4 -8 -21 -9 -39 -1 -17 -5 -57 -8 -89 -6
-49 -4 -58 9 -58 10 0 15 10 15 34 0 19 5 38 10 41 6 3 10 14 10 24 0 10 7 32
15 47 8 16 15 37 15 46 0 9 5 20 10 23 11 7 14 125 3 125 -5 0 -16 -7 -25 -14z"/>
<path d="M554 1260 c-17 -4 -36 -10 -43 -14 -6 -4 -18 -2 -26 4 -17 14 -47 -2
-88 -46 -23 -24 -23 -28 -10 -54 9 -20 19 -27 33 -23 11 3 16 11 13 20 -4 9 0
13 8 12 8 -2 28 1 46 5 32 7 73 -9 73 -29 0 -6 27 -21 60 -33 60 -23 60 -23
42 -50 -9 -15 -20 -30 -25 -33 -4 -3 -3 -18 2 -32 11 -28 5 -57 -11 -57 -5 0
-7 4 -3 9 3 5 0 13 -6 17 -19 11 -38 -23 -30 -54 9 -35 37 -37 33 -2 -4 21 -2
22 12 11 12 -10 16 -33 16 -95 0 -73 -3 -85 -22 -102 -32 -28 -74 -48 -86 -40
-6 3 -23 -4 -39 -17 -59 -50 -69 -51 -94 -9 -12 20 -24 44 -26 52 -12 45 -11
72 2 97 17 33 19 63 4 63 -17 0 -39 -27 -39 -49 0 -12 -4 -21 -10 -21 -5 0
-10 -16 -10 -35 0 -19 5 -35 10 -35 6 0 10 -11 10 -24 0 -15 16 -39 42 -65 40
-38 62 -46 111 -42 10 2 17 -5 17 -14 0 -11 5 -15 15 -12 8 4 17 2 20 -3 10
-16 38 -12 31 5 -4 10 1 15 15 15 11 0 22 7 26 16 5 13 16 14 64 9 59 -7 59
-7 59 22 0 18 -11 41 -31 63 -29 31 -32 41 -33 104 -1 39 2 79 6 89 12 25 19
175 8 182 -5 3 -7 11 -4 19 3 7 0 32 -5 56 -6 28 -6 50 0 62 7 13 5 25 -7 43
-13 20 -23 24 -57 23 -23 -1 -56 -4 -73 -8z"/>
<path d="M1205 1260 c-3 -5 -15 -10 -26 -10 -23 0 -26 -35 -3 -44 10 -4 18 0
21 13 3 11 11 22 19 25 16 6 19 26 5 26 -6 0 -13 -4 -16 -10z"/>
<path d="M730 1166 c0 -25 4 -47 9 -50 5 -3 9 17 9 44 1 28 -3 50 -9 50 -5 0
-9 -20 -9 -44z"/>
<path d="M347 1125 c-12 -8 -14 -15 -8 -20 6 -3 11 -19 11 -36 0 -22 5 -29 19
-29 28 0 46 26 26 37 -9 5 -19 21 -23 35 -6 24 -9 25 -25 13z"/>
<path d="M430 1100 c0 -11 5 -20 10 -20 6 0 10 9 10 20 0 11 -4 20 -10 20 -5
0 -10 -9 -10 -20z"/>
<path d="M447 1046 c-10 -26 -9 -136 2 -136 11 0 22 107 12 132 -7 19 -8 19
-14 4z"/>
<path d="M521 1005 c-1 -32 3 -55 9 -55 11 0 14 19 11 65 -4 54 -18 47 -20
-10z"/>
<path d="M1220 1045 c-7 -8 -10 -21 -7 -29 3 -7 0 -19 -6 -25 -17 -17 -17
-152 0 -158 9 -4 12 -15 7 -37 -4 -23 -1 -36 10 -46 26 -20 28 -7 12 61 -14
64 -15 119 -2 172 15 63 16 77 7 77 -5 0 -14 -7 -21 -15z"/>
<path d="M130 996 c0 -14 5 -28 10 -31 6 -4 10 7 10 24 0 17 -4 31 -10 31 -5
0 -10 -11 -10 -24z"/>
<path d="M766 992 c-2 -4 -1 -25 4 -47 7 -40 14 -35 23 17 4 25 -16 48 -27 30z"/>
<path d="M49 983 c-4 -45 4 -180 12 -187 12 -13 12 -133 -1 -141 -12 -8 -13
-105 -1 -105 5 0 11 7 15 15 3 8 12 15 20 15 22 0 96 90 96 116 0 13 5 24 10
24 13 0 13 117 0 125 -6 4 -8 10 -5 15 3 5 -8 16 -24 25 -17 8 -47 35 -68 60
-35 43 -52 54 -54 38z"/>
<path d="M518 901 c-10 -14 -24 -19 -48 -18 -33 2 -35 0 -38 -30 -4 -38 6 -42
31 -13 9 11 24 20 32 20 8 0 15 4 15 9 0 5 9 11 20 14 11 3 20 12 20 21 0 22
-16 20 -32 -3z"/>
<path d="M719 853 c-3 -18 -2 -38 2 -44 11 -18 16 3 9 41 -6 35 -6 35 -11 3z"/>
<path d="M520 804 c0 -8 5 -12 10 -9 6 3 10 10 10 16 0 5 -4 9 -10 9 -5 0 -10
-7 -10 -16z"/>
<path d="M750 780 c0 -11 5 -20 10 -20 6 0 10 9 10 20 0 11 -4 20 -10 20 -5 0
-10 -9 -10 -20z"/>
<path d="M438 754 c-5 -4 -8 -25 -8 -46 0 -43 20 -59 46 -37 14 12 14 14 -3
19 -11 4 -20 20 -23 39 -3 18 -8 29 -12 25z"/>
<path d="M720 720 c0 -5 5 -10 10 -10 6 0 10 5 10 10 0 6 -4 10 -10 10 -5 0
-10 -4 -10 -10z"/>
<path d="M555 700 c3 -5 8 -10 11 -10 2 0 4 5 4 10 0 6 -5 10 -11 10 -5 0 -7
-4 -4 -10z"/>
<path d="M225 651 c7 -41 7 -42 -19 -35 -16 4 -26 2 -26 -5 0 -5 -10 -20 -22
-32 -23 -22 -23 -22 7 -15 17 4 42 10 57 13 15 3 35 14 45 25 16 18 16 21 2
32 -9 6 -18 20 -20 30 -2 11 -10 21 -18 24 -10 3 -12 -4 -6 -37z"/>
<path d="M772 673 c2 -10 10 -18 18 -18 22 0 18 29 -3 33 -14 3 -18 -1 -15
-15z"/>
<path d="M606 543 c-11 -11 -6 -23 9 -23 8 0 15 4 15 9 0 13 -16 22 -24 14z"/>
<path d="M1710 510 c0 -5 5 -10 11 -10 5 0 7 5 4 10 -3 6 -8 10 -11 10 -2 0
-4 -4 -4 -10z"/>
<path d="M1600 343 c-35 -7 -47 -29 -49 -92 -1 -47 -6 -60 -31 -84 -20 -20
-28 -36 -25 -51 2 -11 7 -42 10 -68 5 -39 10 -48 26 -48 12 0 17 4 14 11 -6 8
-9 84 -6 135 1 6 12 9 26 6 25 -4 25 -4 25 80 0 84 0 84 100 80 96 -4 100 -4
100 17 0 20 -5 21 -82 20 -46 -1 -94 -4 -108 -6z"/>
<path d="M1321 326 c-6 -7 -22 -11 -36 -8 -15 2 -25 0 -25 -7 0 -6 -8 -11 -18
-11 -10 0 -28 -11 -40 -25 -39 -45 -22 -83 18 -40 21 22 67 43 107 49 22 3 36
43 18 50 -7 2 -18 -1 -24 -8z"/>
<path d="M100 204 c-14 -7 -42 -14 -62 -14 -31 0 -38 -4 -38 -20 0 -19 7 -20
90 -20 90 0 90 0 83 -75 -6 -75 -6 -75 21 -75 24 0 26 4 26 39 0 21 -3 59 -6
85 -6 40 -11 47 -33 52 -55 12 -62 16 -57 30 3 8 4 14 3 13 -1 -1 -13 -7 -27
-15z"/>
</g>
</svg>
