<?xml version="1.0" standalone="no"?>
<!DOCTYPE svg PUBLIC "-//W3C//DTD SVG 20010904//EN"
 "http://www.w3.org/TR/2001/REC-SVG-20010904/DTD/svg10.dtd">
<svg version="1.0" xmlns="http://www.w3.org/2000/svg"
 width="179.000000pt" height="187.000000pt" viewBox="0 0 179.000000 187.000000"
 preserveAspectRatio="xMidYMid meet">
<metadata>
Created by potrace 1.16, written by Peter Selinger 2001-2019
</metadata>
<g transform="translate(0.000000,187.000000) scale(0.100000,-0.100000)"
fill="#000000" stroke="none">
<path d="M125 1860 c-4 -6 -5 -48 -4 -93 4 -82 4 -82 -59 -79 -57 4 -62 2 -62
-17 0 -19 6 -21 58 -21 82 0 96 13 102 97 5 68 5 68 54 73 39 4 50 9 57 28 5
13 4 22 -1 22 -6 0 -10 -4 -10 -10 0 -14 -103 -13 -117 1 -8 8 -13 8 -18 -1z"/>
<path d="M1567 1857 c-2 -6 -3 -30 -1 -52 2 -22 5 -59 7 -82 5 -67 16 -73 123
-73 87 0 94 1 94 20 0 19 -7 20 -93 20 -93 0 -93 0 -89 90 4 85 3 90 -16 90
-11 0 -22 -6 -25 -13z"/>
<path d="M378 1709 c-13 -7 -16 -17 -11 -39 5 -26 2 -30 -15 -30 -12 0 -26 -8
-31 -17 -10 -17 -12 -17 -26 2 -11 13 -18 16 -23 9 -4 -7 -16 -13 -27 -15 -16
-3 -21 -13 -23 -53 -5 -84 1 -96 53 -96 25 0 45 5 45 10 0 6 9 10 20 10 11 0
20 7 20 15 0 21 21 57 43 73 10 8 16 20 13 27 -2 7 6 18 20 25 14 8 24 22 24
36 0 13 5 26 10 29 36 22 -54 36 -92 14z m52 -38 c0 -5 -7 -14 -15 -21 -13
-10 -15 -9 -15 9 0 12 6 21 15 21 8 0 15 -4 15 -9z m-40 -54 c0 -13 -38 -63
-79 -103 -33 -33 -53 -16 -49 40 3 40 3 41 53 49 28 4 54 12 60 18 12 12 15
11 15 -4z"/>
<path d="M1041 1470 c-78 -17 -126 -48 -194 -126 -55 -64 -67 -84 -81 -142 -9
-37 -16 -96 -16 -132 0 -81 -14 -109 -68 -138 -23 -13 -42 -28 -42 -33 0 -6
20 -19 45 -30 25 -11 45 -25 46 -32 1 -7 0 -91 0 -187 -2 -192 3 -176 -70
-223 -47 -30 -48 -43 -9 -67 29 -18 50 -20 181 -20 147 0 147 0 147 34 0 28
-6 38 -35 55 -58 34 -68 71 -66 249 0 85 3 158 6 162 5 8 37 14 138 25 31 4
57 11 57 17 0 25 -51 58 -90 58 -88 0 -117 43 -106 159 13 152 41 226 92 249
56 26 135 7 184 -43 27 -28 42 -35 72 -35 31 0 40 5 53 30 8 16 15 36 15 45 0
32 -41 95 -72 111 -38 20 -127 26 -187 14z"/>
<path d="M384 1356 c-3 -8 -11 -13 -17 -11 -17 6 -55 -24 -41 -33 6 -4 13 -15
17 -24 10 -28 68 -24 97 7 23 24 23 24 -1 49 -27 29 -47 33 -55 12z"/>
<path d="M1300 1060 c0 -5 -8 -10 -18 -10 -9 0 -23 -9 -30 -20 -14 -23 -9 -25
21 -8 29 16 51 20 124 22 37 0 62 5 60 11 -5 13 -157 18 -157 5z"/>
<path d="M206 1044 c-4 -11 -17 -15 -45 -13 -27 2 -46 -3 -59 -14 -10 -9 -23
-17 -28 -17 -6 0 -24 -15 -42 -33 -32 -33 -32 -33 -32 -283 0 -250 0 -250 35
-284 19 -19 35 -39 35 -45 0 -6 11 -22 25 -35 21 -19 32 -22 80 -18 40 3 61
11 76 26 22 24 34 27 44 12 4 -7 12 -7 25 0 10 5 29 10 43 10 25 0 107 64 107
84 0 7 16 27 35 46 19 18 32 37 29 41 -3 5 1 23 9 41 8 18 20 58 26 90 10 47
10 62 -3 93 -9 21 -16 46 -16 57 0 20 -29 65 -67 104 -13 13 -23 27 -23 32 0
5 -13 15 -29 22 -16 6 -38 20 -50 31 -22 21 -111 42 -135 33 -11 -4 -13 0 -9
15 6 25 -21 30 -31 5z m64 -87 c0 -18 9 -26 38 -36 47 -17 78 -45 105 -96 19
-34 22 -57 22 -145 0 -99 -2 -108 -31 -160 -19 -33 -38 -54 -48 -54 -9 1 -13
-2 -10 -7 3 -5 -3 -12 -13 -15 -10 -3 -28 -11 -41 -17 -16 -8 -25 -8 -34 1 -7
7 -27 12 -45 12 -22 0 -36 6 -43 20 -6 11 -17 20 -24 20 -12 0 -33 44 -51 107
-3 11 -12 27 -20 33 -17 14 -12 83 11 143 8 20 14 49 14 63 0 35 27 83 53 94
33 15 61 34 70 48 14 22 47 14 47 -11z"/>
<path d="M280 897 c0 -8 7 -17 15 -21 8 -3 15 -2 15 3 0 5 -7 14 -15 21 -12
10 -15 10 -15 -3z"/>
<path d="M279 854 c-10 -35 -10 -348 0 -363 8 -12 11 -8 16 15 4 16 11 39 16
52 13 32 11 76 -3 91 -11 11 -10 13 0 7 9 -5 11 3 8 36 -3 24 -6 43 -7 43 -1
0 -7 32 -13 70 -7 46 -13 63 -17 49z"/>
<path d="M326 842 c-8 -26 -1 -42 20 -42 18 0 18 21 0 45 -13 18 -14 18 -20
-3z"/>
<path d="M340 524 c0 -8 5 -12 10 -9 6 4 8 11 5 16 -9 14 -15 11 -15 -7z"/>
<path d="M1395 1008 c-3 -8 -28 -14 -63 -15 -31 -2 -58 -7 -60 -13 -2 -5 -9
-10 -16 -10 -13 0 -56 -41 -56 -53 0 -4 -18 -23 -40 -43 -25 -23 -40 -45 -40
-60 0 -12 -5 -26 -10 -29 -10 -6 -12 -31 -11 -140 0 -82 2 -104 11 -110 6 -3
10 -15 10 -26 0 -10 4 -19 9 -19 5 0 28 -25 51 -55 24 -31 50 -55 61 -55 10 0
21 -5 25 -11 3 -6 20 -9 38 -6 17 2 40 1 51 -4 14 -5 15 -8 5 -9 -10 -1 -9 -4
5 -10 28 -12 165 -12 165 0 0 6 9 10 20 10 30 0 40 31 40 119 0 64 -3 81 -14
81 -20 0 -28 -31 -30 -106 0 -34 -4 -65 -8 -69 -12 -13 -29 6 -23 26 10 32
-15 22 -26 -10 -9 -26 -13 -29 -35 -21 -15 6 -24 6 -24 0 0 -6 -7 -10 -15 -10
-9 0 -12 6 -9 15 5 11 -1 15 -20 15 -14 0 -35 9 -47 21 -11 11 -23 18 -27 15
-3 -4 -18 6 -33 20 -22 21 -27 33 -22 54 4 22 0 31 -16 39 -14 8 -21 21 -21
40 0 16 -9 40 -20 54 -15 19 -20 40 -20 86 0 58 1 61 31 77 30 15 31 18 26 61
-4 36 -1 48 17 64 29 28 83 52 96 44 6 -4 20 1 30 10 14 13 23 15 32 8 7 -6
25 -13 41 -17 18 -4 27 -13 27 -26 0 -11 6 -20 13 -20 16 0 49 -55 62 -103 17
-64 30 -43 30 49 0 68 -3 88 -15 92 -8 3 -21 14 -29 25 -10 14 -21 17 -46 13
-22 -5 -36 -2 -45 9 -15 18 -49 20 -55 3z m-209 -194 c-3 -8 -10 -12 -16 -9
-7 4 -6 14 2 28 12 24 24 8 14 -19z m-29 -116 c-3 -8 -6 -5 -6 6 -1 11 2 17 5
13 3 -3 4 -12 1 -19z m-3 -43 c3 -9 0 -15 -9 -15 -9 0 -12 6 -9 15 4 8 7 15 9
15 2 0 5 -7 9 -15z m21 -47 c4 -13 7 -27 6 -31 -1 -5 7 -20 17 -35 26 -38 43
-82 37 -92 -6 -10 -66 53 -82 85 -16 35 -17 95 0 95 8 0 18 -10 22 -22z"/>
<path d="M510 965 c0 -3 8 -17 17 -31 17 -26 17 -26 25 -4 4 12 6 26 2 31 -6
10 -44 13 -44 4z"/>
<path d="M1366 951 c-11 -17 28 -38 59 -31 26 6 28 8 10 14 -11 4 -30 12 -42
16 -12 5 -25 6 -27 1z"/>
<path d="M1770 931 c0 -17 5 -33 10 -36 6 -4 10 8 10 29 0 20 -4 36 -10 36 -5
0 -10 -13 -10 -29z"/>
<path d="M610 885 c0 -8 5 -15 10 -15 6 0 10 7 10 15 0 8 -4 15 -10 15 -5 0
-10 -7 -10 -15z"/>
<path d="M1315 841 c-8 -10 -15 -22 -15 -27 0 -5 47 -9 105 -10 81 0 105 3
105 13 0 7 -5 13 -11 13 -5 0 -7 5 -4 10 4 6 -14 10 -47 11 -29 0 -67 2 -85 3
-21 2 -38 -2 -48 -13z"/>
<path d="M1201 694 c0 -11 3 -14 6 -6 3 7 2 16 -1 19 -3 4 -6 -2 -5 -13z"/>
<path d="M1290 510 c0 -12 55 -41 63 -33 4 3 24 -2 45 -10 22 -9 43 -14 46
-12 3 3 2 -1 -4 -7 -12 -14 -13 -28 -2 -28 16 0 82 71 81 87 0 11 -3 13 -6 6
-2 -7 -13 -13 -23 -13 -10 0 -22 -4 -25 -10 -9 -14 -38 -13 -53 2 -7 7 -30 11
-51 9 -21 -1 -42 2 -46 8 -8 14 -25 14 -25 1z"/>
<path d="M523 403 c-7 -2 -13 -10 -13 -17 0 -7 -12 -18 -27 -25 -20 -9 -23
-15 -14 -24 10 -9 15 -8 26 6 9 12 20 17 32 13 11 -3 28 0 38 8 16 12 17 16 6
30 -14 16 -26 19 -48 9z"/>
<path d="M240 279 c0 -11 30 -12 48 0 9 5 3 8 -17 9 -17 0 -31 -4 -31 -9z"/>
</g>
</svg>
