<?xml version="1.0" standalone="no"?>
<!DOCTYPE svg PUBLIC "-//W3C//DTD SVG 20010904//EN"
 "http://www.w3.org/TR/2001/REC-SVG-20010904/DTD/svg10.dtd">
<svg version="1.0" xmlns="http://www.w3.org/2000/svg"
 width="105.000000pt" height="110.000000pt" viewBox="0 0 105.000000 110.000000"
 preserveAspectRatio="xMidYMid meet">
<metadata>
Created by potrace 1.16, written by Peter Selinger 2001-2019
</metadata>
<g transform="translate(0.000000,110.000000) scale(0.100000,-0.100000)"
fill="#000000" stroke="none">
<path d="M165 1061 c6 -39 6 -39 -79 -34 -83 6 -86 5 -86 -16 0 -15 6 -21 23
-22 91 -3 108 0 150 26 42 27 43 30 33 57 -6 17 -18 28 -29 28 -16 0 -18 -5
-12 -39z"/>
<path d="M920 1080 c0 -29 -30 -38 -47 -14 -14 18 -14 18 -11 -6 2 -14 9 -26
16 -26 6 -1 21 -2 32 -3 12 -1 20 -8 20 -19 0 -15 35 -42 54 -42 7 0 -7 51
-15 56 -5 3 -9 21 -9 40 0 27 -4 34 -20 34 -13 0 -20 -7 -20 -20z"/>
<path d="M287 1077 c-8 -21 2 -27 28 -16 16 6 16 8 3 8 -9 1 -18 6 -20 13 -3
8 -7 6 -11 -5z"/>
<path d="M381 1077 c-8 -10 -7 -14 2 -14 8 0 14 6 14 14 0 7 -1 13 -2 13 -2 0
-8 -6 -14 -13z"/>
<path d="M348 1013 c6 -2 18 -2 25 0 6 3 1 5 -13 5 -14 0 -19 -2 -12 -5z"/>
<path d="M777 994 c-13 -13 -7 -24 14 -24 11 0 19 5 17 12 -5 14 -22 21 -31
12z"/>
<path d="M500 974 c0 -10 -6 -14 -15 -11 -8 4 -17 2 -20 -3 -3 -5 7 -13 22
-16 15 -4 38 -14 50 -22 23 -14 53 -11 53 7 0 5 -9 13 -20 16 -11 3 -20 15
-20 26 0 14 -7 19 -25 19 -16 0 -25 -6 -25 -16z"/>
<path d="M1020 961 c0 -5 -9 -11 -20 -14 -22 -6 -27 -36 -8 -55 19 -19 32 -14
46 15 16 36 15 63 -3 63 -8 0 -15 -4 -15 -9z"/>
<path d="M612 878 c-51 -20 -54 -20 -92 -3 -75 34 -157 -4 -202 -94 -19 -37
-28 -70 -28 -103 0 -35 -6 -54 -20 -68 -25 -25 -25 -32 0 -55 17 -16 20 -31
20 -112 0 -87 -2 -96 -26 -120 -40 -39 -26 -53 54 -53 53 0 73 4 83 17 12 14
12 17 0 21 -7 2 -22 13 -32 23 -16 16 -19 34 -19 112 0 50 4 98 9 106 11 18
116 20 133 3 15 -15 13 -209 -3 -228 -6 -8 -18 -14 -26 -14 -8 0 -13 -7 -11
-18 3 -14 15 -17 82 -17 84 0 112 16 62 35 -26 9 -26 10 -26 125 0 116 0 116
67 113 68 -3 68 -3 73 -38 3 -19 3 -78 -1 -130 -8 -107 -2 -120 57 -120 68 0
81 21 38 59 -27 23 -27 23 -22 168 6 160 3 167 -52 138 -21 -11 -50 -15 -93
-13 -62 3 -62 3 -65 58 -4 80 9 130 40 153 27 20 27 20 69 -2 68 -36 114 -8
85 51 -16 32 -83 34 -154 6z m-132 -73 c29 -15 30 -19 30 -80 0 -35 -4 -75
-10 -89 -9 -24 -14 -26 -74 -26 -71 0 -76 5 -76 68 0 83 35 142 83 142 10 0
31 -7 47 -15z"/>
<path d="M108 835 c-5 -42 9 -56 29 -29 17 24 13 58 -8 62 -12 2 -18 -6 -21
-33z"/>
<path d="M990 627 c-118 -59 -145 -217 -55 -322 27 -31 37 -37 44 -26 5 7 15
11 22 9 23 -8 49 11 49 36 0 19 -7 25 -35 30 -46 9 -63 43 -62 126 0 80 18
109 65 110 29 0 32 3 32 30 0 36 -2 36 -60 7z"/>
<path d="M65 633 c-58 -9 -72 -38 -26 -54 25 -9 29 -16 35 -62 14 -121 6 -156
-44 -182 -21 -11 -30 -23 -30 -40 0 -28 3 -29 31 -14 16 8 25 7 37 -4 14 -13
25 -14 66 -4 59 13 67 31 31 64 -27 26 -27 26 -20 165 8 154 13 144 -80 131z"/>
<path d="M20 520 c0 -5 7 -10 16 -10 8 0 12 5 9 10 -3 6 -10 10 -16 10 -5 0
-9 -4 -9 -10z"/>
<path d="M974 506 c-9 -22 0 -79 12 -83 11 -4 23 64 16 86 -5 16 -22 14 -28
-3z"/>
<path d="M0 396 c0 -15 18 -31 26 -23 7 7 -7 37 -17 37 -5 0 -9 -6 -9 -14z"/>
<path d="M645 260 c-4 -7 -3 -16 3 -22 14 -14 45 -2 40 15 -6 16 -34 21 -43 7z"/>
<path d="M970 181 c-7 -22 -11 -55 -8 -73 8 -50 1 -58 -47 -58 -24 0 -47 -5
-50 -10 -4 -7 2 -9 19 -4 35 8 76 -3 76 -21 0 -8 9 -15 20 -15 19 0 20 7 20
91 0 91 0 91 25 85 19 -5 25 -2 25 9 0 11 -6 14 -24 9 -17 -4 -27 -1 -33 11
-8 13 -12 8 -23 -24z"/>
<path d="M511 106 c2 -2 20 -6 39 -10 25 -4 31 -3 20 4 -14 9 -69 15 -59 6z"/>
<path d="M33 87 c-18 -6 -33 -17 -33 -25 0 -12 10 -14 50 -9 50 6 50 6 50 -23
0 -25 4 -30 25 -30 18 0 25 5 25 20 0 11 -4 20 -9 20 -5 0 -12 9 -16 19 -8 27
-52 40 -92 28z"/>
<path d="M393 33 c9 -2 23 -2 30 0 6 3 -1 5 -18 5 -16 0 -22 -2 -12 -5z"/>
<path d="M230 20 c0 -5 5 -10 10 -10 6 0 10 5 10 10 0 6 -4 10 -10 10 -5 0
-10 -4 -10 -10z"/>
<path d="M320 20 c0 -5 7 -10 16 -10 8 0 12 5 9 10 -3 6 -10 10 -16 10 -5 0
-9 -4 -9 -10z"/>
</g>
</svg>
