<?xml version="1.0" encoding="UTF-8" standalone="no"?>
<svg
   version="1.0"
   width="98.000000pt"
   height="96.000000pt"
   viewBox="0 0 98.000000 96.000000"
   preserveAspectRatio="xMidYMid meet"
   id="svg5"
   sodipodi:docname="v.svg"
   inkscape:version="1.4 (e7c3feb1, 2024-10-09)"
   xmlns:inkscape="http://www.inkscape.org/namespaces/inkscape"
   xmlns:sodipodi="http://sodipodi.sourceforge.net/DTD/sodipodi-0.dtd"
   xmlns="http://www.w3.org/2000/svg"
   xmlns:svg="http://www.w3.org/2000/svg">
  <defs
     id="defs5" />
  <sodipodi:namedview
     id="namedview5"
     pagecolor="#ffffff"
     bordercolor="#000000"
     borderopacity="0.25"
     inkscape:showpageshadow="2"
     inkscape:pageopacity="0.0"
     inkscape:pagecheckerboard="0"
     inkscape:deskcolor="#d1d1d1"
     inkscape:document-units="pt"
     inkscape:zoom="1.625"
     inkscape:cx="-22.153846"
     inkscape:cy="77.230769"
     inkscape:current-layer="svg5" />
  <metadata
     id="metadata1">
Created by potrace 1.16, written by Peter Selinger 2001-2019
</metadata>
  <path
     d="m 14.6,30.7 c 0.949507,4.257028 2.3,6.3 4.5,6.3 1.9,0 2.3,-0.6 4.9,-7.7 1.4,-3.6 5.6,-5.5 10.6,-4.6 6.4,1.2 6.3,2.6 -0.2,11.6 -4.8,6.5 -7,14.3 -6,21.6 1.6,12 14.2,13.9 26.6,3.9 4.2,-3.3 11.4,-15 15.9,-25.7 C 75.3,25.6 74.7,14 69.7,14 c -3.6,0 -5,3.7 -5.1,13.7 -0.1,8.4 -0.3,9.1 -4.1,15.2 -2.1,3.5 -6,7.9 -8.4,9.8 -3.8,2.9 -5.2,3.3 -9,3.1 C 39.2,55.5 38.4,55.1 37.6,52.9 35.9,47.8 37.3,44.3 47.5,28 51.4,21.9 51.8,19.5 49.4,16.2 48.1,14.2 47,14 40.2,14 20.318132,14 13.650493,26.442972 14.6,30.7 Z"
     id="path3"
     style="fill:#000000;stroke:none;stroke-width:0.1"
     sodipodi:nodetypes="zsccccccscccccccsz" />
</svg>
