<?xml version="1.0" encoding="UTF-8" standalone="no"?>
<svg
   version="1.0"
   width="148.000000pt"
   height="118.000000pt"
   viewBox="0 0 148.000000 118.000000"
   preserveAspectRatio="xMidYMid meet"
   id="svg27"
   sodipodi:docname="U.svg"
   inkscape:version="1.4 (e7c3feb1, 2024-10-09)"
   xmlns:inkscape="http://www.inkscape.org/namespaces/inkscape"
   xmlns:sodipodi="http://sodipodi.sourceforge.net/DTD/sodipodi-0.dtd"
   xmlns="http://www.w3.org/2000/svg"
   xmlns:svg="http://www.w3.org/2000/svg">
  <defs
     id="defs27" />
  <sodipodi:namedview
     id="namedview27"
     pagecolor="#ffffff"
     bordercolor="#000000"
     borderopacity="0.25"
     inkscape:showpageshadow="2"
     inkscape:pageopacity="0.0"
     inkscape:pagecheckerboard="0"
     inkscape:deskcolor="#d1d1d1"
     inkscape:document-units="pt"
     inkscape:zoom="2.6440678"
     inkscape:cx="63.916667"
     inkscape:cy="91.714744"
     inkscape:current-layer="svg27" />
  <metadata
     id="metadata1">
Created by potrace 1.16, written by Peter Selinger 2001-2019
</metadata>
  <path
     d="m 44.6,18.5 c -1.9,0.7 -5.8,3.3 -8.8,5.8 -5.6,4.8 -7.8,9.6 -7.8,17.1 0,4.9 0.9,6.6 3.5,6.6 3,0 3.6,-1 3.7,-6.3 0,-6 1.8,-8.2 8.9,-10.6 9.5,-3.2 19.9,-2.6 19.9,1.1 0,0.4 -2,3 -4.5,5.8 -9.763488,11.390736 -15.290132,25.116583 -16.4,30 -2.4,10.2 -0.9,16 5.8,23.3 6,6.4 12.6,8.5 22.8,7 C 82.9,96.6 87,94.6 98.2,85 c 3.6,-3.1 10.4,-11.4 13.3,-16.2 8.1,-13.5 9.2,-16.7 10,-28.6 0.4,-5.1 0.8,-10.7 1,-12.4 0.3,-1.6 -0.2,-4.3 -1.1,-5.9 -1.2,-2.3 -2.1,-2.9 -4.9,-2.9 -4.7,0 -8.4,1.9 -9.1,4.7 -0.4,1.4 0.3,4.9 1.7,8.5 5,13.4 1.6,25.5 -10.3,37.7 -7.6,7.7 -14.9,12.5 -22,14.6 -4.6,1.3 -6,1.3 -10.5,0.2 C 59.8,83 54.2,79.3 53.2,76 51.3,69.4 53.1,58.5 57.6,49.7 60.6,43.8 68.8,33.5 74.9,27.9 78.3,24.8 81,21.6 81,20.6 81,19.7 79.8,18.5 78.3,17.9 74.7,16.6 49,17 44.6,18.5 Z"
     id="path8"
     style="fill:#000000;stroke:none;stroke-width:0.1"
     sodipodi:nodetypes="ccssccscccccccccsccccccccscc" />
</svg>
