<?xml version="1.0" standalone="no"?>
<!DOCTYPE svg PUBLIC "-//W3C//DTD SVG 20010904//EN"
 "http://www.w3.org/TR/2001/REC-SVG-20010904/DTD/svg10.dtd">
<svg version="1.0" xmlns="http://www.w3.org/2000/svg"
 width="134.000000pt" height="159.000000pt" viewBox="0 0 134.000000 159.000000"
 preserveAspectRatio="xMidYMid meet">
<metadata>
Created by potrace 1.16, written by Peter Selinger 2001-2019
</metadata>
<g transform="translate(0.000000,159.000000) scale(0.100000,-0.100000)"
fill="#000000" stroke="none">
<path d="M110 1548 c0 -24 7 -61 14 -83 12 -32 19 -39 37 -37 12 1 27 -2 34
-8 7 -6 56 -13 109 -17 96 -6 96 -6 96 30 0 37 0 37 -136 37 -126 0 -136 1
-128 18 4 9 9 36 12 60 4 37 2 42 -17 42 -18 0 -21 -6 -21 -42z"/>
<path d="M1172 1566 c1 -13 -3 -30 -10 -39 -12 -13 -11 -21 4 -46 23 -38 52
-51 119 -51 49 0 55 2 55 21 0 20 -4 21 -67 18 -68 -4 -68 -4 -64 59 3 58 2
62 -19 62 -17 0 -21 -5 -18 -24z"/>
<path d="M52 1383 c3 -36 1 -38 -25 -36 -23 1 -27 -2 -27 -24 0 -19 4 -24 16
-19 9 3 27 9 40 12 14 4 23 11 21 18 -2 6 5 24 16 40 16 23 17 30 6 37 -8 5
-22 9 -32 9 -15 0 -18 -7 -15 -37z"/>
<path d="M1135 1380 c4 -6 11 -8 16 -5 14 9 11 15 -7 15 -8 0 -12 -5 -9 -10z"/>
<path d="M130 1371 c0 -6 4 -13 10 -16 6 -3 7 1 4 9 -7 18 -14 21 -14 7z"/>
<path d="M376 1371 c-4 -6 -21 -11 -37 -11 -27 0 -29 -2 -19 -20 13 -25 56
-26 69 -2 11 20 -2 52 -13 33z"/>
<path d="M1204 1323 c-31 -4 -31 -4 -27 -56 3 -34 11 -58 24 -68 10 -10 23
-29 29 -45 19 -48 31 -13 28 81 -2 49 -7 89 -13 90 -5 1 -24 0 -41 -2z"/>
<path d="M110 1149 c-35 -42 -35 -42 -67 -25 -18 9 -34 16 -38 16 -3 0 -5 -27
-5 -60 0 -33 2 -60 5 -60 3 0 17 8 32 17 24 16 26 16 39 -1 13 -18 51 -16 40
2 -3 5 9 6 27 4 18 -3 35 -11 40 -18 4 -7 14 -11 21 -8 18 7 31 -56 14 -68 -7
-5 -32 -6 -55 -3 -41 6 -43 5 -43 -20 0 -25 1 -26 45 -19 34 5 50 3 63 -9 24
-22 72 -23 109 -4 18 9 39 17 48 17 8 0 15 7 15 15 0 8 7 15 16 15 13 0 15 7
9 37 -4 21 -9 42 -12 47 -4 5 -7 30 -7 55 -1 34 -5 46 -16 46 -16 0 -16 -7 -4
-40 7 -18 6 -18 -9 -6 -9 7 -17 19 -17 25 0 14 -46 59 -77 75 -12 6 -48 11
-80 11 -56 0 -60 -2 -93 -41z"/>
<path d="M340 1151 c0 -5 7 -14 15 -21 16 -14 18 -10 9 14 -6 17 -24 22 -24 7z"/>
<path d="M555 1143 c-64 -35 -78 -79 -40 -129 40 -53 46 -91 38 -268 -6 -160
-6 -160 -45 -198 -42 -42 -45 -50 -22 -72 25 -26 222 -23 275 5 52 26 51 55
-5 74 -21 8 -43 18 -48 23 -5 5 -10 90 -11 190 -2 170 -1 182 19 209 23 30 26
30 135 17 71 -8 89 7 89 76 0 95 -68 115 -172 51 -27 -17 -53 -31 -58 -31 -5
0 -16 13 -24 29 -24 45 -75 54 -131 24z"/>
<path d="M1084 1133 c-46 -50 -81 -143 -54 -143 6 0 10 -7 10 -15 0 -23 -20
-18 -29 8 -9 22 -10 22 -24 -23 -7 -22 10 -60 27 -60 9 0 27 17 40 37 21 31
26 34 32 19 4 -10 1 -36 -5 -58 -7 -22 -11 -42 -8 -44 2 -2 16 5 32 17 23 19
26 28 22 58 -2 20 -1 45 4 56 5 12 7 -21 6 -80 -2 -99 -2 -99 -35 -109 -49
-14 -136 -118 -126 -151 15 -48 24 -65 34 -65 5 0 10 -7 10 -16 0 -11 -6 -14
-20 -9 -16 5 -20 2 -20 -17 1 -39 24 -59 63 -56 22 1 43 -4 54 -14 13 -12 23
-14 35 -7 13 7 20 5 30 -11 14 -22 37 -24 126 -14 52 7 52 7 52 64 0 51 -3 58
-25 68 -14 7 -32 12 -39 12 -8 0 -23 8 -35 18 -17 13 -24 36 -32 102 -14 106
-14 219 0 233 6 6 11 26 11 44 0 18 5 33 11 33 8 0 9 -20 4 -66 -8 -80 4 -314
16 -314 6 0 8 102 7 242 -3 231 -4 241 -23 244 -11 2 -24 9 -30 17 -5 7 -29
17 -53 21 -38 6 -45 3 -68 -21z"/>
<path d="M296 851 c-5 -7 -3 -18 3 -24 14 -14 15 -74 1 -82 -5 -3 -10 -15 -10
-26 0 -31 -49 -88 -89 -105 -33 -14 -37 -13 -48 2 -7 10 -13 21 -13 26 0 4 -7
8 -15 8 -11 0 -13 -9 -9 -43 5 -35 2 -45 -16 -62 -22 -20 -22 -20 -55 18 -18
20 -35 37 -39 37 -3 0 -6 -31 -6 -69 0 -68 0 -69 31 -75 40 -8 238 5 245 16 3
4 14 8 25 8 29 0 69 30 69 52 0 10 7 32 15 49 14 26 14 32 1 50 -9 13 -16 16
-21 10 -10 -17 -23 -13 -35 9 -8 14 -7 39 1 86 8 47 8 68 1 73 -6 4 -15 17
-20 30 -6 17 -11 21 -16 12z"/>
<path d="M387 773 c-4 -48 -4 -89 -1 -92 12 -12 23 20 29 84 6 56 4 73 -7 83
-13 10 -16 0 -21 -75z"/>
<path d="M226 816 c-21 -44 -20 -46 7 -46 20 0 23 6 25 40 3 49 -10 51 -32 6z"/>
<path d="M220 725 c-7 -8 -9 -23 -5 -32 6 -16 8 -15 20 7 8 14 14 28 15 33 0
12 -17 8 -30 -8z"/>
<path d="M405 540 c3 -5 8 -10 11 -10 2 0 4 5 4 10 0 6 -5 10 -11 10 -5 0 -7
-4 -4 -10z"/>
<path d="M380 489 c0 -5 5 -7 10 -4 6 3 10 8 10 11 0 2 -4 4 -10 4 -5 0 -10
-5 -10 -11z"/>
<path d="M1008 394 c-32 -17 -37 -44 -9 -44 21 0 34 14 38 43 3 20 5 20 -29 1z"/>
<path d="M1170 376 c0 -20 5 -26 21 -26 15 0 20 5 17 22 -5 34 -38 37 -38 4z"/>
<path d="M1082 376 c-29 -14 -23 -30 13 -34 29 -4 47 12 38 35 -6 15 -19 15
-51 -1z"/>
<path d="M1120 320 c0 -5 5 -10 10 -10 6 0 10 5 10 10 0 6 -4 10 -10 10 -5 0
-10 -4 -10 -10z"/>
<path d="M1263 315 c0 -12 8 -14 36 -9 45 8 52 14 18 14 -14 0 -32 2 -40 5 -8
4 -14 0 -14 -10z"/>
<path d="M58 293 c6 -2 18 -2 25 0 6 3 1 5 -13 5 -14 0 -19 -2 -12 -5z"/>
<path d="M1308 193 c6 -2 18 -2 25 0 6 3 1 5 -13 5 -14 0 -19 -2 -12 -5z"/>
<path d="M0 163 c0 -33 0 -33 60 -33 61 0 61 0 54 -34 -8 -44 4 -96 22 -96 11
0 14 17 14 74 0 41 -5 78 -10 81 -6 4 -7 12 -3 18 5 9 3 9 -8 0 -19 -16 -109
-9 -120 8 -6 10 -9 4 -9 -18z"/>
<path d="M1236 131 c-4 -7 -5 -15 -2 -18 9 -9 19 4 14 18 -4 11 -6 11 -12 0z"/>
</g>
</svg>
