<?xml version="1.0" standalone="no"?>
<!DOCTYPE svg PUBLIC "-//W3C//DTD SVG 20010904//EN"
 "http://www.w3.org/TR/2001/REC-SVG-20010904/DTD/svg10.dtd">
<svg version="1.0" xmlns="http://www.w3.org/2000/svg"
 width="206.000000pt" height="155.000000pt" viewBox="0 0 206.000000 155.000000"
 preserveAspectRatio="xMidYMid meet">
<metadata>
Created by potrace 1.16, written by Peter Selinger 2001-2019
</metadata>
<g transform="translate(0.000000,155.000000) scale(0.100000,-0.100000)"
fill="#000000" stroke="none">
<path d="M360 1513 c0 -38 0 -38 -180 -35 -177 4 -180 4 -180 -17 0 -20 4 -21
167 -21 161 0 168 1 210 26 45 26 45 26 448 20 259 -4 406 -2 410 4 4 6 -41
10 -122 11 -728 3 -697 2 -708 27 -5 12 -18 22 -27 22 -14 0 -18 -8 -18 -37z"/>
<path d="M2010 1488 c0 -59 12 -101 22 -82 3 5 6 39 7 77 2 55 -1 67 -13 67
-13 0 -16 -13 -16 -62z"/>
<path d="M1733 1493 c32 -2 81 -2 110 0 29 2 3 3 -58 3 -60 0 -84 -1 -52 -3z"/>
<path d="M2010 1365 c0 -8 5 -15 10 -15 6 0 10 7 10 15 0 8 -4 15 -10 15 -5 0
-10 -7 -10 -15z"/>
<path d="M1955 1359 c-4 -6 -5 -12 -2 -15 2 -3 7 2 10 11 7 17 1 20 -8 4z"/>
<path d="M1128 1333 c7 -3 16 -2 19 1 4 3 -2 6 -13 5 -11 0 -14 -3 -6 -6z"/>
<path d="M2014 1319 c-10 -16 -6 -70 6 -82 4 -5 10 10 12 33 4 46 -5 70 -18
49z"/>
<path d="M255 1229 c-11 -16 0 -21 30 -13 20 5 23 9 13 15 -18 12 -36 11 -43
-2z"/>
<path d="M1811 1192 c-19 -20 -36 -46 -38 -57 -2 -10 -11 -33 -21 -50 -11 -19
-17 -49 -16 -82 1 -40 -2 -53 -14 -53 -10 0 -12 7 -8 26 5 19 3 25 -6 21 -15
-5 -13 -44 4 -64 8 -10 14 -10 24 -2 22 18 36 0 29 -38 -3 -20 -2 -40 5 -48 7
-8 7 -21 1 -37 -5 -13 -7 -36 -4 -51 4 -20 1 -27 -11 -27 -36 0 -59 -40 -62
-107 -1 -34 2 -63 7 -63 5 0 9 -9 9 -20 0 -22 26 -28 33 -7 2 6 13 -8 24 -33
11 -25 16 -52 12 -60 -27 -57 -30 -70 -24 -90 4 -14 2 -25 -8 -33 -10 -8 -17
-32 -18 -67 -3 -55 -3 -55 64 -58 67 -3 67 -3 67 71 0 40 3 77 7 81 10 9 3 90
-7 96 -13 8 1 25 36 43 29 15 32 15 47 -4 20 -23 30 -24 47 -4 7 8 18 15 25
15 19 0 45 46 45 80 0 29 -2 30 -47 32 -27 1 -62 1 -79 0 -22 -1 -38 6 -54 24
-23 23 -24 31 -22 160 2 117 4 139 19 150 17 12 17 14 -4 34 -26 24 -28 39
-10 64 10 14 22 17 49 13 28 -3 35 -1 34 12 -1 22 48 27 76 7 12 -9 26 -16 30
-16 5 0 8 30 8 66 0 65 0 65 -102 62 -103 -3 -103 -3 -100 25 4 36 -6 34 -47
-11z m-59 -530 c-7 -2 -12 -21 -12 -42 0 -24 -5 -40 -15 -44 -12 -4 -13 3 -9
42 6 47 34 86 43 60 2 -6 -1 -14 -7 -16z"/>
<path d="M338 1199 c-2 -5 -24 -13 -48 -16 -25 -3 -55 -14 -67 -25 -21 -20
-21 -20 -28 1 -10 32 -23 25 -35 -16 -16 -52 -10 -128 10 -128 11 0 15 11 16
38 1 21 6 43 13 50 7 7 11 7 11 1 0 -6 20 -21 44 -34 25 -12 47 -32 50 -43 7
-27 6 -28 -40 -30 -32 -2 -40 -7 -42 -26 -3 -20 -1 -22 15 -16 40 16 55 17 64
4 14 -23 10 -81 -7 -101 -18 -19 -20 -38 -14 -133 4 -59 3 -60 -23 -63 -26 -3
-26 -4 -11 -28 21 -31 14 -46 -30 -72 -35 -21 -35 -21 -33 16 1 27 -2 37 -13
37 -17 0 -25 -59 -15 -112 4 -24 11 -33 25 -33 11 0 20 4 20 9 0 9 111 20 197
20 23 0 44 5 48 11 3 5 17 10 31 10 19 0 25 5 22 17 -2 11 -13 18 -28 18 -23
0 -25 3 -22 43 1 23 -2 42 -8 42 -5 0 -10 -5 -10 -12 0 -9 -5 -8 -15 2 -10 11
-15 43 -16 115 -2 100 -2 100 -20 60 -18 -40 -18 -40 -20 -5 -1 19 -3 45 -3
58 -1 13 -9 28 -18 33 -20 11 -24 50 -5 48 6 -1 23 -4 37 -8 30 -9 91 16 70
29 -7 4 -15 37 -18 79 -4 57 -9 76 -29 97 -13 15 -22 32 -19 39 4 12 -11 35
-25 35 -4 0 -9 -5 -11 -11z m5 -433 c13 -10 16 -21 11 -42 -6 -23 -4 -26 10
-21 25 10 20 -29 -6 -47 -25 -18 -78 -22 -78 -6 0 5 8 14 19 19 17 10 21 50 7
88 -9 24 10 29 37 9z"/>
<path d="M955 1203 c-39 -8 -130 -36 -142 -46 -8 -5 -20 -3 -35 7 -44 31 -129
13 -184 -39 -36 -34 -36 -34 -5 -73 44 -56 49 -77 49 -198 1 -183 -6 -221 -42
-263 -50 -56 -51 -68 -8 -87 56 -24 272 -10 272 18 0 6 -20 28 -45 50 -46 40
-46 40 -42 243 3 229 7 242 76 265 37 12 48 11 96 -4 86 -27 90 -39 88 -230
-2 -192 -13 -246 -53 -269 -31 -19 -48 -53 -33 -68 21 -21 144 -31 222 -20 41
6 79 15 84 20 17 17 1 46 -38 68 -37 20 -40 26 -46 75 -3 29 -4 117 -3 195 3
157 13 193 61 211 88 33 156 16 193 -49 21 -38 22 -53 22 -203 1 -168 -5 -197
-44 -224 -26 -19 -40 -50 -33 -72 6 -18 16 -20 113 -20 59 0 117 3 130 6 33 9
29 48 -10 83 -33 29 -33 29 -33 253 0 244 -2 255 -62 309 -62 57 -172 62 -269
13 -54 -28 -87 -26 -130 8 -28 23 -116 46 -149 41z"/>
<path d="M1717 1153 c-4 -3 -7 -20 -7 -37 1 -31 1 -31 15 -6 21 38 16 67 -8
43z"/>
<path d="M460 1099 c0 -17 20 -49 30 -49 6 0 10 14 10 30 0 23 -4 30 -20 30
-11 0 -20 -5 -20 -11z"/>
<path d="M481 991 c-15 -11 -20 -21 -13 -25 6 -4 20 2 32 14 34 34 21 42 -19
11z"/>
<path d="M1913 984 c-13 -6 -6 -35 11 -46 6 -4 35 -8 64 -8 51 0 52 0 52 30 0
30 0 30 -57 29 -32 0 -63 -3 -70 -5z"/>
<path d="M377 896 c-6 -16 2 -28 14 -20 12 7 11 34 0 34 -5 0 -11 -6 -14 -14z"/>
<path d="M195 891 c-3 -5 -1 -12 5 -16 5 -3 10 1 10 9 0 18 -6 21 -15 7z"/>
<path d="M484 875 c4 -37 13 -40 18 -5 3 20 0 30 -8 30 -8 0 -12 -10 -10 -25z"/>
<path d="M432 805 c-1 -45 2 -73 7 -65 4 8 5 44 1 80 -7 65 -7 65 -8 -15z"/>
<path d="M1940 840 c0 -5 -10 -18 -21 -29 -27 -25 -19 -51 16 -51 23 0 25 4
25 45 0 25 -4 45 -10 45 -5 0 -10 -4 -10 -10z"/>
<path d="M230 800 c0 -5 5 -10 10 -10 6 0 10 5 10 10 0 6 -4 10 -10 10 -5 0
-10 -4 -10 -10z"/>
<path d="M150 735 c0 -25 5 -45 10 -45 6 0 10 7 10 15 0 9 11 27 25 41 14 14
25 27 25 29 0 3 -16 5 -35 5 -35 0 -35 0 -35 -45z"/>
<path d="M434 686 c0 -13 4 -22 9 -19 10 6 9 31 -2 37 -5 3 -8 -5 -7 -18z"/>
<path d="M1966 701 c-4 -7 -5 -15 -2 -18 9 -9 19 4 14 18 -4 11 -6 11 -12 0z"/>
<path d="M100 445 c0 -8 2 -15 4 -15 2 0 6 7 10 15 3 8 1 15 -4 15 -6 0 -10
-7 -10 -15z"/>
<path d="M2020 345 c-1 -16 -2 -37 -1 -47 1 -9 -3 -19 -9 -23 -5 -3 -10 -22
-10 -42 0 -26 -4 -34 -14 -30 -8 3 -17 3 -21 -1 -4 -4 -12 -7 -18 -7 -15 0
-24 -44 -26 -127 -1 -63 1 -68 20 -68 21 0 21 4 17 80 -5 80 -5 80 38 80 24 0
45 3 47 8 2 4 1 34 -3 67 -4 33 -3 62 2 63 5 2 5 9 -1 15 -5 7 -11 23 -14 37
-4 23 -4 23 -7 -5z"/>
<path d="M1941 254 c0 -11 3 -14 6 -6 3 7 2 16 -1 19 -3 4 -6 -2 -5 -13z"/>
<path d="M0 182 c0 -23 0 -23 192 -21 192 2 192 2 189 -79 -3 -76 -1 -82 17
-82 18 0 21 8 24 73 2 39 0 77 -5 84 -5 7 -6 17 -3 22 10 15 -40 20 -236 24
-178 3 -178 3 -178 -21z"/>
<path d="M1605 140 c-3 -5 -3 -10 2 -10 4 0 2 -4 -6 -9 -11 -7 -9 -11 8 -20
11 -7 21 -10 22 -9 0 2 2 15 3 31 2 27 -16 38 -29 17z"/>
<path d="M1505 100 c-3 -5 -2 -10 4 -10 5 0 13 5 16 10 3 6 2 10 -4 10 -5 0
-13 -4 -16 -10z"/>
<path d="M1432 51 c4 -13 18 -16 19 -4 0 4 -5 9 -11 12 -7 2 -11 -2 -8 -8z"/>
</g>
</svg>
