<?xml version="1.0" encoding="UTF-8" standalone="no"?>
<svg
   version="1.0"
   width="76pt"
   height="114pt"
   viewBox="0 0 76 114"
   preserveAspectRatio="xMidYMid"
   id="svg10"
   xmlns="http://www.w3.org/2000/svg"
   xmlns:svg="http://www.w3.org/2000/svg">
  <defs
     id="defs10" />
  <metadata
     id="metadata1">
Created by potrace 1.16, written by Peter Selinger 2001-2019
</metadata>
  <path
     d="m 22.2,20.3 c -2.8,4.1 -4.8,7.8 -4.5,8.1 1.3,1.2 4.1,0.5 7.7,-1.9 3.4,-2.3 4.6,-2.5 14.7,-2.5 6.1,0 11.9,0.5 13,1 1.496941,0.799764 -3.005784,12.130105 -4.9,15.7 -2.7,5.4 -8.2,16.1 -12.1,23.8 -4,7.6 -7.6,14.4 -8,15 -1.6,2 -2.2,6.7 -1,8.1 1.4,1.7 5.3,1.8 6.7,0.1 0.6,-0.6 1.9,-3.5 3,-6.2 2.4,-6.2 11.7,-27.6 14.3,-33.1 2.193567,-4.825848 2.709743,-7.123135 9.1,-20.7 3.2,-6.3 4.7,-11.3 3.7,-12.8 C 63.3,13.8 59.2,13.4 45.1,13.2 27.2,12.8 27.2,12.8 22.2,20.3 Z"
     id="path1"
     style="fill:#000000;stroke:none;stroke-width:0.1" />
</svg>
