<?xml version="1.0" standalone="no"?>
<!DOCTYPE svg PUBLIC "-//W3C//DTD SVG 20010904//EN"
 "http://www.w3.org/TR/2001/REC-SVG-20010904/DTD/svg10.dtd">
<svg version="1.0" xmlns="http://www.w3.org/2000/svg"
 width="76.000000pt" height="114.000000pt" viewBox="0 0 76.000000 114.000000"
 preserveAspectRatio="xMidYMid meet">
<metadata>
Created by potrace 1.16, written by Peter Selinger 2001-2019
</metadata>
<g transform="translate(0.000000,114.000000) scale(0.100000,-0.100000)"
fill="#000000" stroke="none">
<path d="M222 937 c-28 -41 -48 -78 -45 -81 13 -12 41 -5 77 19 34 23 46 25
147 25 61 0 119 -5 130 -10 19 -11 26 -44 10 -54 -5 -3 -31 -50 -59 -103 -27
-54 -82 -161 -121 -238 -40 -76 -76 -144 -80 -150 -16 -20 -22 -67 -10 -81 14
-17 53 -18 67 -1 6 6 19 35 30 62 24 62 117 276 143 331 10 22 19 44 19 50 0
9 37 91 72 157 32 63 47 113 37 128 -6 11 -47 15 -188 17 -179 4 -179 4 -229
-71z"/>
<path d="M0 960 c0 -5 5 -10 10 -10 6 0 10 5 10 10 0 6 -4 10 -10 10 -5 0 -10
-4 -10 -10z"/>
<path d="M740 650 c0 -33 4 -60 10 -60 6 0 10 27 10 60 0 33 -4 60 -10 60 -6
0 -10 -27 -10 -60z"/>
<path d="M0 648 c0 -13 5 -30 10 -38 8 -12 10 -11 10 8 0 12 5 22 10 22 6 0
10 7 10 15 0 8 -9 15 -20 15 -14 0 -20 -7 -20 -22z"/>
<path d="M0 561 c0 -17 5 -31 10 -31 6 0 10 11 10 24 0 14 -4 28 -10 31 -6 4
-10 -7 -10 -24z"/>
<path d="M0 470 c0 -11 5 -20 10 -20 6 0 10 9 10 20 0 11 -4 20 -10 20 -5 0
-10 -9 -10 -20z"/>
<path d="M133 214 c-29 -13 -53 -29 -53 -34 0 -4 -14 -11 -30 -15 -45 -10 -36
-26 14 -22 47 3 86 25 65 38 -14 9 40 39 71 39 11 0 20 5 20 10 0 17 -32 11
-87 -16z"/>
<path d="M317 178 c-5 -18 -11 -20 -42 -15 -23 4 -35 2 -33 -4 2 -6 32 -11 66
-13 58 -2 63 -1 60 17 -2 11 -13 23 -25 28 -17 6 -22 3 -26 -13z"/>
<path d="M185 180 c-30 -8 -30 -8 3 -9 17 0 32 4 32 9 0 6 -1 9 -2 9 -2 -1
-16 -5 -33 -9z"/>
<path d="M448 93 c-35 -9 -19 -30 20 -27 48 3 46 2 32 19 -13 15 -21 16 -52 8z"/>
</g>
</svg>
