<?xml version="1.0" standalone="no"?>
<!DOCTYPE svg PUBLIC "-//W3C//DTD SVG 20010904//EN"
 "http://www.w3.org/TR/2001/REC-SVG-20010904/DTD/svg10.dtd">
<svg version="1.0" xmlns="http://www.w3.org/2000/svg"
 width="76.000000pt" height="114.000000pt" viewBox="0 0 76.000000 114.000000"
 preserveAspectRatio="xMidYMid meet">
<metadata>
Created by potrace 1.16, written by Peter Selinger 2001-2019
</metadata>
<g transform="translate(0.000000,114.000000) scale(0.100000,-0.100000)"
fill="#000000" stroke="none">
<path d="M0 1073 c0 -17 25 -18 380 -19 361 0 380 1 380 18 0 17 -20 18 -380
18 -355 0 -380 -1 -380 -17z"/>
<path d="M346 988 c-54 -12 -91 -41 -115 -91 -40 -83 -17 -182 60 -259 49 -49
62 -78 35 -78 -8 0 -35 -19 -61 -42 -57 -52 -74 -111 -50 -178 30 -86 72 -122
155 -135 38 -5 54 -2 100 22 142 75 145 235 7 350 -15 13 -27 27 -27 31 0 4
20 22 44 39 24 17 56 48 72 69 24 31 29 46 28 91 -3 120 -124 209 -248 181z
m122 -93 c51 -48 45 -155 -11 -212 -17 -18 -37 -33 -44 -33 -24 0 -90 75 -108
124 -18 48 -18 49 1 85 22 42 77 73 113 65 15 -4 36 -16 49 -29z m-26 -389
c72 -70 79 -177 14 -217 -84 -51 -166 6 -166 116 0 50 10 77 43 113 30 32 68
28 109 -12z"/>
<path d="M736 359 c-7 -37 3 -109 15 -109 5 0 9 32 9 70 0 72 -13 93 -24 39z"/>
<path d="M0 316 c0 -14 5 -26 10 -26 6 0 10 9 10 19 0 11 -4 23 -10 26 -6 4
-10 -5 -10 -19z"/>
<path d="M677 233 c-14 -13 -6 -23 17 -23 30 0 42 15 20 24 -20 8 -29 8 -37
-1z"/>
<path d="M0 65 c0 -13 54 -15 380 -15 328 0 380 2 380 15 0 13 -52 15 -380 15
-326 -1 -380 -3 -380 -15z"/>
</g>
</svg>
