<?xml version="1.0" standalone="no"?>
<!DOCTYPE svg PUBLIC "-//W3C//DTD SVG 20010904//EN"
 "http://www.w3.org/TR/2001/REC-SVG-20010904/DTD/svg10.dtd">
<svg version="1.0" xmlns="http://www.w3.org/2000/svg"
 width="196.000000pt" height="207.000000pt" viewBox="0 0 196.000000 207.000000"
 preserveAspectRatio="xMidYMid meet">
<metadata>
Created by potrace 1.16, written by Peter Selinger 2001-2019
</metadata>
<g transform="translate(0.000000,207.000000) scale(0.100000,-0.100000)"
fill="#000000" stroke="none">
<path d="M562 2038 c3 -32 3 -32 -92 -33 -95 0 -95 0 -98 -47 -3 -47 -3 -47
-49 -41 -32 4 -47 2 -53 -7 -6 -10 -40 -13 -139 -11 -127 2 -131 2 -131 -18 0
-20 5 -21 111 -21 61 0 119 -4 129 -10 13 -7 21 -6 30 5 7 8 27 15 45 15 19 0
35 6 38 14 3 8 18 20 34 28 20 10 27 20 25 36 -3 21 0 22 73 22 70 0 78 2 99
27 27 31 24 73 -6 73 -16 0 -19 -6 -16 -32z"/>
<path d="M1751 2003 c3 -78 15 -113 39 -113 9 0 22 -6 28 -12 10 -10 17 -10
31 -1 13 8 31 9 61 2 50 -11 56 -8 38 21 -12 20 -19 21 -85 17 -73 -4 -73 -4
-73 75 0 72 -2 78 -21 78 -19 0 -20 -5 -18 -67z"/>
<path d="M1900 1799 c0 -5 5 -7 10 -4 6 3 10 8 10 11 0 2 -4 4 -10 4 -5 0 -10
-5 -10 -11z"/>
<path d="M568 1653 c-1 -10 -2 -34 -3 -53 -1 -19 -5 -43 -10 -53 -6 -16 -4
-17 19 -11 34 8 60 -19 100 -102 16 -32 35 -72 42 -87 18 -38 18 -67 -1 -67
-8 0 -15 -3 -15 -7 -1 -5 -5 -41 -9 -81 -7 -59 -14 -77 -35 -97 -15 -14 -26
-35 -26 -50 0 -16 -6 -25 -15 -25 -8 0 -15 5 -15 10 0 15 -30 12 -31 -2 0 -7
-1 -32 -3 -55 -2 -45 3 -50 35 -33 13 8 25 7 39 0 17 -9 20 -8 20 10 0 13 9
24 24 30 14 5 30 18 36 30 15 28 40 26 40 -4 0 -28 -14 -42 -53 -51 -40 -10
-33 -25 13 -25 28 0 40 4 40 15 0 8 9 19 19 25 28 15 33 13 26 -10 -5 -14 -2
-20 9 -20 12 0 16 10 16 35 0 19 -4 35 -10 35 -5 0 -10 -6 -10 -12 0 -7 -6 -4
-12 7 -6 11 -20 26 -31 34 -13 9 -18 22 -15 42 5 32 -17 42 -25 12 -2 -10 -3
18 -1 61 2 45 9 83 15 87 8 5 9 40 4 123 -5 80 -4 121 4 130 33 40 -48 141
-124 153 -19 3 -35 10 -35 14 0 17 -20 9 -22 -8z m52 -667 c0 -3 -4 -8 -10
-11 -5 -3 -10 -1 -10 4 0 6 5 11 10 11 6 0 10 -2 10 -4z"/>
<path d="M993 1650 c-82 -37 -117 -98 -76 -131 9 -8 25 -33 35 -56 17 -39 18
-69 15 -431 -4 -410 -4 -402 -54 -468 -12 -17 -23 -37 -23 -45 0 -35 156 -61
236 -39 37 11 47 11 54 0 11 -17 52 -3 48 18 -2 9 -27 30 -56 46 -31 18 -55
40 -58 52 -3 12 -6 90 -7 174 -2 140 -1 152 18 166 11 8 30 12 45 9 36 -8 152
10 193 30 93 44 169 171 181 301 12 136 -60 268 -179 332 -21 11 -61 16 -132
18 -87 2 -107 6 -129 23 -33 26 -57 26 -111 1z m319 -166 c62 -43 101 -135 94
-222 -7 -79 -32 -136 -83 -185 -50 -47 -97 -57 -154 -32 -62 28 -77 67 -74
195 5 232 4 226 27 255 20 25 25 27 84 23 50 -3 72 -10 106 -34z"/>
<path d="M0 1611 c0 -34 4 -51 15 -55 21 -8 21 -94 0 -102 -11 -4 -15 -21 -15
-55 0 -49 0 -49 73 -49 60 0 77 4 91 19 17 18 17 22 2 43 -9 12 -16 42 -16 66
0 24 -5 53 -11 65 -16 31 -60 77 -74 77 -7 0 -20 9 -30 20 -28 31 -35 24 -35
-29z"/>
<path d="M1828 1633 c-10 -10 -36 -17 -62 -18 -25 -1 -52 -7 -59 -13 -10 -9
-17 -8 -25 0 -6 6 -15 8 -19 3 -5 -4 -3 -10 4 -12 8 -3 8 -13 -3 -38 -8 -21
-14 -69 -14 -120 0 -55 -4 -84 -10 -80 -6 4 -10 -13 -10 -45 0 -38 3 -49 13
-44 10 6 10 4 0 -7 -15 -16 -17 -49 -3 -49 6 0 10 -19 10 -42 0 -23 4 -55 10
-72 5 -17 12 -48 15 -68 5 -30 15 -43 56 -73 28 -20 58 -39 67 -42 10 -3 24
-12 32 -18 8 -7 34 -15 58 -19 40 -6 42 -5 42 18 0 14 7 31 15 40 13 12 15 65
15 344 0 284 -2 331 -15 336 -8 3 -15 12 -15 21 0 22 -80 21 -102 -2z m100
-155 c2 -38 0 -48 -12 -48 -9 0 -16 -4 -16 -10 0 -5 -25 -10 -55 -10 -67 0
-77 15 -43 60 28 39 65 60 98 57 22 -2 25 -7 28 -49z m-12 -138 c12 0 26 -236
16 -272 -6 -25 -26 -23 -88 9 -43 22 -55 34 -68 67 -8 23 -15 52 -15 66 0 14
-3 43 -6 65 -6 35 -3 42 19 55 16 10 45 15 78 13 29 -1 58 -2 64 -3z"/>
<path d="M1852 1270 c-19 -30 -15 -60 7 -60 26 0 37 18 16 26 -14 6 -14 8 0
24 8 9 12 20 8 23 -10 11 -17 8 -31 -13z"/>
<path d="M1785 1240 c-7 -12 2 -30 16 -30 12 0 12 27 0 35 -5 3 -12 1 -16 -5z"/>
<path d="M517 1613 c-13 -13 -7 -53 8 -53 10 0 15 10 15 30 0 29 -9 38 -23 23z"/>
<path d="M1617 1587 c-5 -14 8 -45 17 -37 2 3 6 14 8 24 4 22 -17 33 -25 13z"/>
<path d="M380 1454 c0 -21 4 -33 10 -29 6 3 10 19 10 36 0 16 -4 29 -10 29 -5
0 -10 -16 -10 -36z"/>
<path d="M783 1439 c4 -30 7 -82 7 -116 0 -54 2 -62 19 -60 17 1 19 9 17 81
-2 50 -7 81 -14 84 -7 2 -12 14 -12 27 0 13 -5 27 -12 31 -8 5 -9 -7 -5 -47z"/>
<path d="M639 1345 c-1 -123 2 -200 9 -207 9 -9 17 94 15 186 -2 95 -23 113
-24 21z"/>
<path d="M385 1280 c-3 -5 -1 -10 4 -10 6 0 11 5 11 10 0 6 -2 10 -4 10 -3 0
-8 -4 -11 -10z"/>
<path d="M788 1235 c-3 -5 -9 -37 -12 -70 -3 -33 -3 -53 1 -45 3 8 12 20 20
25 9 7 11 22 5 55 -4 25 -10 41 -14 35z"/>
<path d="M1602 1109 c2 -6 8 -10 13 -10 5 0 11 4 13 10 2 6 -4 11 -13 11 -9 0
-15 -5 -13 -11z"/>
<path d="M30 1075 c0 -9 -7 -18 -15 -21 -11 -4 -15 -21 -15 -55 0 -27 2 -49 5
-49 6 0 74 45 108 71 18 14 27 29 25 43 -3 18 -11 21 -55 24 -43 2 -53 0 -53
-13z"/>
<path d="M380 990 c0 -60 0 -60 53 -60 47 1 54 4 77 34 37 51 33 61 -27 64
-29 2 -53 7 -53 13 0 5 -11 9 -25 9 -24 0 -25 -3 -25 -60z m75 0 c19 -7 19 -8
-5 -18 -17 -6 -27 -6 -32 2 -17 26 -3 33 37 16z"/>
<path d="M1606 1018 c-10 -40 -7 -47 28 -53 23 -5 36 -14 39 -27 3 -11 10 -17
16 -14 11 7 -6 39 -45 89 -26 33 -30 33 -38 5z"/>
<path d="M650 910 c0 -5 5 -10 11 -10 5 0 7 5 4 10 -3 6 -8 10 -11 10 -2 0 -4
-4 -4 -10z"/>
<path d="M865 550 c-3 -5 -1 -10 4 -10 6 0 11 5 11 10 0 6 -2 10 -4 10 -3 0
-8 -4 -11 -10z"/>
<path d="M1931 279 c3 -201 3 -201 -21 -220 -25 -19 -25 -19 13 -19 37 0 37 0
37 220 0 193 -2 220 -16 220 -14 0 -15 -24 -13 -201z"/>
<path d="M630 450 c0 -4 24 -10 53 -14 103 -13 192 -38 209 -60 16 -20 17 -20
36 -2 12 10 30 16 44 13 20 -4 19 -4 -5 -6 -46 -2 -26 -25 29 -33 27 -3 107
-7 177 -7 109 -1 129 1 134 15 3 9 2 24 -4 33 -9 14 -39 16 -223 17 -189 0
-213 2 -222 18 -7 13 -17 15 -42 10 -25 -4 -35 -2 -39 10 -5 13 -20 16 -77 14
-38 -1 -70 -5 -70 -8z m470 -76 c0 -2 -7 -4 -15 -4 -8 0 -15 4 -15 10 0 5 7 7
15 4 8 -4 15 -8 15 -10z m40 6 c0 -5 -5 -10 -11 -10 -5 0 -7 5 -4 10 3 6 8 10
11 10 2 0 4 -4 4 -10z m70 0 c0 -5 -4 -10 -10 -10 -5 0 -10 5 -10 10 0 6 5 10
10 10 6 0 10 -4 10 -10z m50 0 c0 -5 -9 -10 -20 -10 -11 0 -20 5 -20 10 0 6 9
10 20 10 11 0 20 -4 20 -10z"/>
<path d="M1605 430 c-22 -25 -13 -66 18 -75 12 -4 32 -17 44 -28 13 -11 26
-18 29 -14 13 12 -6 38 -36 48 -22 8 -30 17 -30 34 0 20 6 23 48 27 26 2 50
-1 54 -6 4 -6 6 -36 4 -66 -2 -43 -6 -55 -18 -55 -26 0 -35 -16 -15 -26 9 -6
17 -17 17 -24 0 -9 10 -15 25 -15 25 0 25 0 23 109 -2 109 -2 109 -74 109 -59
1 -75 -2 -89 -18z"/>
<path d="M1852 430 c-20 -17 -21 -20 -6 -28 11 -6 15 -17 12 -30 -4 -14 2 -30
19 -47 32 -31 53 -21 22 11 -18 20 -21 30 -16 69 7 50 3 53 -31 25z"/>
<path d="M566 423 c-3 -4 -6 -19 -6 -34 0 -18 -12 -39 -36 -63 -27 -27 -35
-42 -32 -61 6 -29 -17 -40 -62 -30 -28 6 -30 5 -30 -24 0 -16 -4 -33 -10 -36
-5 -3 -10 -26 -10 -50 0 -24 -4 -47 -10 -50 -5 -3 -10 -13 -10 -21 0 -11 14
-14 60 -14 60 0 60 0 60 44 0 25 5 48 10 51 6 3 10 21 10 40 0 19 4 36 9 39 5
3 6 26 3 51 -4 37 -2 45 12 45 9 0 16 4 16 9 0 5 17 19 37 31 29 17 41 20 55
11 11 -7 19 -7 23 -1 10 16 42 12 49 -6 4 -10 12 -14 23 -10 18 7 93 -58 93
-81 0 -21 63 -16 83 7 18 21 21 38 11 64 -8 20 -24 11 -24 -14 0 -10 -8 -21
-19 -25 -21 -6 -51 3 -51 16 0 18 -52 53 -83 57 -17 2 -34 7 -37 11 -20 26
-119 59 -134 44z m-106 -253 c0 -11 1 -23 3 -26 1 -4 -8 -11 -21 -15 -30 -11
-41 15 -17 41 23 25 35 25 35 0z"/>
<path d="M486 371 c-14 -15 -23 -30 -20 -34 3 -3 -6 -17 -21 -30 -16 -13 -25
-29 -21 -35 8 -14 36 -4 36 13 0 6 9 20 21 31 12 10 30 31 40 45 27 39 0 46
-35 10z"/>
<path d="M55 351 c-6 -11 9 -23 19 -14 9 9 7 23 -3 23 -6 0 -12 -4 -16 -9z"/>
<path d="M126 207 c3 -10 9 -15 12 -12 3 3 0 11 -7 18 -10 9 -11 8 -5 -6z"/>
<path d="M285 180 c4 -6 11 -8 16 -5 14 9 11 15 -7 15 -8 0 -12 -5 -9 -10z"/>
<path d="M117 90 c-13 -13 -29 -16 -67 -12 -46 4 -50 3 -50 -18 0 -21 1 -22
135 -18 134 3 135 3 135 -19 0 -16 6 -23 20 -23 20 0 25 16 14 55 -4 17 -15
20 -77 23 -45 1 -76 8 -82 16 -8 10 -13 10 -28 -4z"/>
<path d="M963 34 c-63 -27 -48 -34 81 -34 80 0 126 4 126 10 0 6 -8 13 -17 16
-10 3 -26 10 -35 15 -26 13 -118 10 -155 -7z"/>
<path d="M410 10 c-65 -7 -65 -7 13 -8 50 -1 76 2 72 8 -3 6 -9 9 -13 8 -4 -1
-36 -4 -72 -8z"/>
<path d="M1455 10 c-4 -6 5 -10 19 -10 14 0 26 5 26 10 0 6 -9 10 -19 10 -11
0 -23 -4 -26 -10z"/>
<path d="M1600 10 c0 -5 16 -10 35 -10 19 0 35 5 35 10 0 6 -16 10 -35 10 -19
0 -35 -4 -35 -10z"/>
</g>
</svg>
