<?xml version="1.0" standalone="no"?>
<!DOCTYPE svg PUBLIC "-//W3C//DTD SVG 20010904//EN"
 "http://www.w3.org/TR/2001/REC-SVG-20010904/DTD/svg10.dtd">
<svg version="1.0" xmlns="http://www.w3.org/2000/svg"
 width="173.000000pt" height="179.000000pt" viewBox="0 0 173.000000 179.000000"
 preserveAspectRatio="xMidYMid meet">
<metadata>
Created by potrace 1.16, written by Peter Selinger 2001-2019
</metadata>
<g transform="translate(0.000000,179.000000) scale(0.100000,-0.100000)"
fill="#000000" stroke="none">
<path d="M112 1705 c4 -85 4 -85 -54 -85 -55 0 -58 -1 -58 -25 0 -23 4 -25 33
-23 45 3 60 -9 54 -41 -3 -14 -1 -35 3 -46 7 -19 8 -18 13 5 2 14 5 40 5 59 1
19 11 51 22 73 14 27 20 58 20 103 0 60 -2 65 -21 65 -21 0 -21 -4 -17 -85z"/>
<path d="M1370 1764 c0 -29 24 -53 54 -54 11 0 28 -8 38 -17 17 -15 21 -15 29
-3 19 30 5 45 -45 48 -45 3 -48 4 -42 28 5 19 3 24 -14 24 -15 0 -20 -7 -20
-26z"/>
<path d="M192 1728 c3 -7 18 -16 35 -20 29 -8 31 -12 42 -76 6 -37 12 -77 15
-90 2 -12 6 -26 10 -30 12 -11 26 21 19 45 -4 16 -1 23 10 23 8 0 22 3 31 6
12 5 15 -4 14 -48 -1 -53 -1 -53 -42 -54 -76 -1 -121 -12 -171 -39 -74 -41
-76 -44 -73 -89 3 -39 5 -41 33 -39 27 2 65 -20 65 -37 0 -4 -10 -19 -21 -34
-20 -26 -22 -26 -40 -10 -19 17 -24 9 -13 -20 3 -8 12 -12 19 -10 7 3 17 0 21
-8 11 -17 5 -182 -7 -186 -5 -2 -9 -17 -9 -33 0 -17 -5 -39 -10 -50 -9 -15 -7
-21 5 -25 8 -3 15 -18 15 -32 0 -14 7 -33 16 -43 9 -10 14 -26 11 -36 -3 -13
-10 -5 -26 30 -12 26 -24 47 -26 47 -3 0 -5 -15 -5 -32 0 -26 9 -40 38 -63 37
-31 37 -31 161 -20 93 7 126 14 131 25 4 8 12 25 18 37 7 12 10 28 8 35 -3 7
-7 26 -11 41 -4 19 -11 27 -20 24 -7 -3 -18 0 -23 6 -23 29 -24 361 -1 398 6
10 10 10 23 0 23 -19 38 -4 31 32 -10 48 -23 54 -32 16 -9 -33 -9 -33 -23 16
-7 28 -16 54 -21 59 -4 5 -4 18 0 30 5 11 11 60 15 108 5 81 4 87 -15 93 -16
6 -19 12 -14 36 7 29 7 29 -90 29 -71 0 -96 -3 -93 -12z m157 -31 c8 -11 5
-13 -19 -9 -17 2 -30 8 -30 13 0 14 36 11 49 -4z m-116 -348 c24 -11 56 -84
43 -97 -4 -3 -23 -1 -43 4 -34 8 -38 13 -40 44 -2 36 2 60 11 60 3 0 16 -5 29
-11z m48 -146 c1 -5 3 -64 4 -131 2 -97 -1 -125 -11 -129 -8 -3 -14 -13 -14
-23 0 -11 -5 -22 -11 -26 -20 -12 -37 21 -44 88 -6 59 -5 67 9 62 20 -8 30 17
22 52 -5 19 -11 24 -26 19 -17 -6 -20 -2 -20 30 0 31 4 38 33 50 36 16 56 19
58 8z"/>
<path d="M1507 1673 c-13 -3 -15 -8 -8 -17 6 -7 9 -26 8 -42 -2 -28 0 -29 35
-26 26 2 46 -3 66 -18 17 -12 51 -25 76 -27 43 -5 46 -4 46 17 0 21 -3 22 -50
17 -50 -6 -50 -6 -50 48 0 55 0 55 -52 54 -29 -1 -61 -3 -71 -6z m78 -43 c4
-6 -8 -10 -30 -10 -22 0 -34 4 -30 10 3 6 17 10 30 10 13 0 27 -4 30 -10z"/>
<path d="M1415 1600 c-3 -5 -3 -10 2 -11 4 0 16 -2 26 -4 9 -2 17 3 17 11 0
16 -36 19 -45 4z"/>
<path d="M1188 1583 c7 -3 16 -2 19 1 4 3 -2 6 -13 5 -11 0 -14 -3 -6 -6z"/>
<path d="M1075 1463 c-41 -10 -76 -63 -42 -63 46 0 60 -76 27 -148 -10 -23
-22 -59 -26 -80 -3 -20 -12 -47 -20 -59 -8 -12 -14 -34 -14 -47 0 -34 -41 -62
-68 -47 -20 11 -72 103 -72 128 0 7 -12 39 -27 70 -14 32 -30 67 -35 79 -5 11
-8 36 -6 55 3 30 7 35 41 43 44 11 46 18 10 46 -26 20 -37 21 -160 18 -171 -4
-190 -21 -97 -88 29 -20 54 -50 70 -83 49 -99 175 -412 184 -456 10 -55 -1
-91 -83 -260 -23 -48 -62 -71 -121 -71 -24 0 -43 -9 -65 -29 -76 -71 -6 -202
95 -177 48 13 112 90 164 202 28 58 50 110 50 116 0 6 11 34 24 62 54 116 70
156 101 247 18 52 45 115 61 140 29 46 61 115 96 209 26 70 32 76 90 106 38
19 48 30 48 49 0 19 -7 26 -37 34 -38 11 -151 13 -188 4z"/>
<path d="M1374 1333 c-10 -16 -17 -38 -15 -51 1 -13 -5 -32 -13 -41 -15 -16
-15 -19 -1 -31 8 -7 15 -21 15 -32 0 -22 27 -78 38 -78 4 0 8 58 7 130 0 71
-3 130 -6 130 -4 0 -15 -12 -25 -27z"/>
<path d="M434 1256 c-6 -37 1 -60 17 -51 12 8 12 85 -1 85 -5 0 -12 -15 -16
-34z"/>
<path d="M1337 862 c-25 -27 -21 -72 9 -103 39 -40 59 -29 61 34 2 75 -33 110
-70 69z m31 -58 c-2 -23 -4 -23 -15 -8 -13 17 -9 34 7 34 6 0 9 -12 8 -26z"/>
<path d="M460 749 c0 -5 5 -7 10 -4 6 3 10 8 10 11 0 2 -4 4 -10 4 -5 0 -10
-5 -10 -11z"/>
<path d="M1049 284 c-5 -7 -18 -10 -28 -7 -10 3 -22 0 -25 -6 -4 -6 -16 -11
-27 -11 -10 0 -36 -17 -58 -38 -32 -31 -40 -46 -42 -82 -4 -42 -2 -45 21 -48
14 -2 29 -8 34 -13 17 -16 74 -10 85 9 10 16 12 16 26 -2 28 -37 172 -21 148
16 -10 18 21 38 57 38 24 0 40 5 44 15 7 19 35 19 42 0 4 -8 16 -15 28 -15 12
0 27 -5 34 -12 19 -19 21 -7 15 75 -5 66 -8 77 -24 77 -11 0 -19 -7 -19 -16 0
-12 -10 -15 -52 -13 -33 2 -53 -1 -56 -9 -2 -7 -11 -12 -20 -12 -12 0 -13 -3
-5 -8 6 -4 38 -7 70 -6 53 1 72 -6 73 -29 0 -4 -17 -5 -38 -1 -25 4 -59 -1
-105 -16 -60 -19 -72 -28 -69 -51 2 -12 -48 -17 -55 -6 -4 6 -1 13 5 15 6 2
27 17 48 33 20 16 41 29 45 29 5 0 9 5 9 10 0 18 -39 11 -53 -10 -8 -12 -21
-18 -29 -15 -14 6 -52 -37 -53 -60 0 -5 -9 -10 -20 -10 -17 0 -19 6 -17 42 3
38 0 44 -22 54 -14 7 -26 20 -26 29 0 15 13 17 103 19 56 1 111 3 122 5 11 3
24 5 30 5 5 1 -1 8 -14 17 -28 20 -167 26 -182 8z m-57 -89 c10 -13 17 -35 16
-49 -4 -47 -73 -47 -98 0 -14 24 -13 28 13 50 35 30 47 30 69 -1z"/>
<path d="M517 256 c-20 -15 -19 -54 1 -78 6 -8 10 -27 9 -44 -2 -29 -2 -29 66
-32 67 -3 67 -3 67 47 0 52 -21 91 -47 91 -11 0 -10 -6 2 -30 24 -45 20 -70
-11 -70 -31 0 -70 29 -68 50 1 8 2 23 3 33 1 10 9 17 21 17 11 0 20 5 20 10 0
6 -4 10 -9 10 -5 0 -15 2 -23 5 -7 2 -21 -2 -31 -9z"/>
<path d="M90 227 c0 -27 -16 -37 -61 -37 -22 0 -29 -5 -29 -20 0 -18 7 -20 59
-20 58 0 58 0 53 -72 -5 -71 -5 -71 19 -65 13 4 34 7 47 7 30 0 28 18 -3 26
-20 5 -25 13 -25 36 0 17 -11 53 -25 81 -14 28 -24 56 -21 63 3 8 1 16 -4 19
-6 4 -10 -5 -10 -18z"/>
<path d="M155 170 c-3 -5 -2 -10 4 -10 5 0 13 5 16 10 3 6 2 10 -4 10 -5 0
-13 -4 -16 -10z"/>
<path d="M1485 120 c-3 -5 1 -10 9 -10 9 0 16 5 16 10 0 6 -4 10 -9 10 -6 0
-13 -4 -16 -10z"/>
<path d="M1560 120 c0 -5 5 -10 11 -10 5 0 7 5 4 10 -3 6 -8 10 -11 10 -2 0
-4 -4 -4 -10z"/>
<path d="M1610 115 c0 -8 4 -15 10 -15 5 0 7 7 4 15 -4 8 -8 15 -10 15 -2 0
-4 -7 -4 -15z"/>
</g>
</svg>
