<?xml version="1.0" encoding="UTF-8" standalone="no"?>
<svg
   version="1.0"
   width="148.000000pt"
   height="136.000000pt"
   viewBox="0 0 148.000000 136.000000"
   preserveAspectRatio="xMidYMid meet"
   id="svg10"
   sodipodi:docname="V.svg"
   inkscape:version="1.4 (e7c3feb1, 2024-10-09)"
   xmlns:inkscape="http://www.inkscape.org/namespaces/inkscape"
   xmlns:sodipodi="http://sodipodi.sourceforge.net/DTD/sodipodi-0.dtd"
   xmlns="http://www.w3.org/2000/svg"
   xmlns:svg="http://www.w3.org/2000/svg">
  <defs
     id="defs10" />
  <sodipodi:namedview
     id="namedview10"
     pagecolor="#ffffff"
     bordercolor="#000000"
     borderopacity="0.25"
     inkscape:showpageshadow="2"
     inkscape:pageopacity="0.0"
     inkscape:pagecheckerboard="0"
     inkscape:deskcolor="#d1d1d1"
     inkscape:document-units="pt"
     inkscape:zoom="2.2941176"
     inkscape:cx="37.923077"
     inkscape:cy="117.03846"
     inkscape:current-layer="svg10" />
  <metadata
     id="metadata1">
Created by potrace 1.16, written by Peter Selinger 2001-2019
</metadata>
  <path
     d="m 35.3,42.1 c -4.5,1.3 -4.7,2.2 -0.8,4.3 4.5,2.4 6.3,6.8 4.6,11 -0.7,1.7 -2.9,7.8 -4.8,13.6 -1.9,5.8 -5,14.3 -6.8,19 -1.275377,6.321152 -9.641959,24.27601 -8.8,29.3 0.3,1.5 0.9,3 1.4,3.3 0.9,0.5 9.8,-6.7 17.5,-14.2 5.3,-5.1 19.8,-18.3 25,-22.5 2.2,-1.9 9.8,-9.3 17,-16.5 7.1,-7.2 14.3,-13.8 15.9,-14.7 3.9,-2.1 12.4,-4.7 14.9,-4.7 2.5,0 8.6,-3.95 8.6,-4.9 0,-0.95 -0.7,-1.7 -1.7,-2.6 -1.4,-1.4 -3.7,-1.6 -16.2,-1.4 -18.1,0.4 -23.1,2.2 -19.7,7.1 3.6,5.1 2.5,7 -13.1,23 C 60.1,79.5 52.4,87.4 51,88.7 46.806491,91.984415 39.468444,98.052776 38.188305,97.40975 36.495343,96.559359 44.310294,78.147603 47.5,69.5 c 2.7,-7.2 5.4,-13.9 6.1,-15.1 0.8,-1.1 4.1,-3.3 7.4,-4.9 6,-2.9 6.7,-3.8 5.1,-6.4 -1.1,-1.6 -25.7,-2.5 -30.8,-1 z"
     id="path3"
     sodipodi:nodetypes="cccsssccccczzcccccsccccc"
     style="fill:#000000;stroke:none;stroke-width:0.1" />
</svg>
