<?xml version="1.0" encoding="UTF-8" standalone="no"?>
<svg
   version="1.0"
   width="146.000000pt"
   height="152.000000pt"
   viewBox="0 0 146.000000 152.000000"
   preserveAspectRatio="xMidYMid meet"
   id="svg2"
   sodipodi:docname="J.svg"
   inkscape:version="1.4 (e7c3feb1, 2024-10-09)"
   xmlns:inkscape="http://www.inkscape.org/namespaces/inkscape"
   xmlns:sodipodi="http://sodipodi.sourceforge.net/DTD/sodipodi-0.dtd"
   xmlns="http://www.w3.org/2000/svg"
   xmlns:svg="http://www.w3.org/2000/svg">
  <defs
     id="defs2" />
  <sodipodi:namedview
     id="namedview2"
     pagecolor="#ffffff"
     bordercolor="#000000"
     borderopacity="0.25"
     inkscape:showpageshadow="2"
     inkscape:pageopacity="0.0"
     inkscape:pagecheckerboard="0"
     inkscape:deskcolor="#d1d1d1"
     inkscape:document-units="pt"
     inkscape:zoom="1.4514297"
     inkscape:cx="119.8818"
     inkscape:cy="72.686951"
     inkscape:current-layer="svg2" />
  <metadata
     id="metadata1">
Created by potrace 1.16, written by Peter Selinger 2001-2019
</metadata>
  <path
     d="m 52.5,17.5 c -5.807755,3.19402 -11.785563,10.07214 -11.583597,16.61982 0.201966,6.54768 -0.142322,11.66973 5.762349,14.91044 5.904671,3.240712 12.206456,-5.29649 5.673821,-9.81083 -6.532635,-4.51434 -0.341242,-13.98893 7.138235,-12.72549 7.479477,1.26344 14.16405,8.45949 20.561062,8.36771 6.397012,-0.09178 13.562419,-2.11164 13.577603,5.24131 0.01518,7.35295 -5.320279,18.70542 -8.362675,21.903905 -3.042396,3.198485 -12.817453,-1.286823 -19.806605,2.238712 -6.989152,3.525535 2.34241,7.496138 6.524276,6.343649 4.181866,-1.152489 11.655007,-0.54951 9.164022,7.3573 -2.490985,7.90681 -10.530482,28.612374 -14.522103,39.874824 -3.991621,11.26245 -7.148551,15.60662 -14.214265,16.98327 -7.065714,1.37666 -10.197988,-4.70668 -15.475606,-7.6966 -5.277618,-2.98993 -9.850434,6.61124 -8.051175,10.99525 1.799259,4.38402 7.620986,4.70043 12.927362,4.83033 5.197451,0.12724 23.973784,-0.0269 29.895459,-13.39625 5.921675,-13.36934 12.46308,-29.31232 15.624319,-38.134656 3.161239,-8.822336 4.253375,-15.097617 7.520968,-20.460042 3.267593,-5.362425 15.32261,0.607778 16.47973,-5.883271 1.15712,-6.491049 -13.926638,-1.097585 -14.63368,-6.196866 -0.707042,-5.099281 3.86373,-12.547495 7.22618,-18.609155 3.36245,-6.06166 13.4734,-7.2212 16.0439,-14.21434 2.5705,-6.99314 -9.44433,-13.14987 -14.02183,-7.83214 -4.5775,5.31773 -7.490558,8.2919 -14.541355,9.97445 C 84.355598,29.86388 76.835206,25.63455 71.773198,20.76095 66.71119,15.88735 58.307755,14.30598 52.5,17.5 Z"
     id="path1"
     sodipodi:nodetypes="zzzzzzzzzzzzzzzzzzzzzzzzzzz"
     style="fill:#000000;stroke:none;stroke-width:0.1" />
</svg>
