<?xml version="1.0" encoding="UTF-8" standalone="no"?>
<svg
   version="1.0"
   width="154.000000pt"
   height="132.000000pt"
   viewBox="0 0 154.000000 132.000000"
   preserveAspectRatio="xMidYMid meet"
   id="svg2"
   sodipodi:docname="Z.svg"
   inkscape:version="1.4 (e7c3feb1, 2024-10-09)"
   xmlns:inkscape="http://www.inkscape.org/namespaces/inkscape"
   xmlns:sodipodi="http://sodipodi.sourceforge.net/DTD/sodipodi-0.dtd"
   xmlns="http://www.w3.org/2000/svg"
   xmlns:svg="http://www.w3.org/2000/svg">
  <defs
     id="defs2" />
  <sodipodi:namedview
     id="namedview2"
     pagecolor="#ffffff"
     bordercolor="#000000"
     borderopacity="0.25"
     inkscape:showpageshadow="2"
     inkscape:pageopacity="0.0"
     inkscape:pagecheckerboard="0"
     inkscape:deskcolor="#d1d1d1"
     inkscape:document-units="pt"
     inkscape:zoom="1.5397986"
     inkscape:cx="-57.799765"
     inkscape:cy="24.353834"
     inkscape:current-layer="svg2" />
  <metadata
     id="metadata1">
Created by potrace 1.16, written by Peter Selinger 2001-2019
</metadata>
  <path
     d="m 52.5,21 c -9.078449,0.09987 -16.767085,25.691522 -4.962618,22.811062 4.83516,-1.626178 4.971694,-6.377569 9.335759,-10.484994 4.364065,-4.107425 12.266356,-6.441114 18.938116,-7.341512 5.030507,-0.269264 10.907431,-0.177585 14.587536,3.830805 3.680105,4.00839 -3.049625,9.077199 -17.153843,20.384068 -9.344468,8.15197 -19.877274,17.646353 -28.161647,24.792618 -8.284373,7.146265 -19.693264,14.334696 -21.364426,20.576595 -0.717326,4.813048 2.293157,8.698998 7.063646,6.949248 3.767702,-1.03074 8.180401,-1.82496 12.166407,-1.74255 16.731048,-0.62204 38.938627,0.19976 46.636362,-0.948491 7.697735,-1.148256 10.440338,-8.326566 11.745508,-13.207444 0.96766,-3.885515 3.25951,-8.728543 0.46626,-12.612235 -4.733966,-3.086589 -8.663621,5.277996 -9.557921,8.960975 -2.063871,5.677934 -5.99895,9.43643 -12.151834,9.861738 -6.614057,1.39787 -14.813236,1.066159 -30.619673,1.392977 C 43.704055,93.641991 42.318228,90.119352 48.072516,85.817108 53.826804,81.514864 63.388809,75.041177 70.215834,68.592155 86.348851,55.898816 101.85359,41.432123 117.1149,27.481731 c 4.25065,-4.351967 1.90369,-5.658244 -7.09352,-5.882673 C 101.02417,21.374629 58.008916,20.939401 52.5,21 Z"
     id="path1"
     style="fill:#000000;stroke:none;stroke-width:0.1"
     sodipodi:nodetypes="zczczczccczccccczczzz" />
</svg>
