<?xml version="1.0" encoding="UTF-8" standalone="no"?>
<svg
   version="1.0"
   width="106.000000pt"
   height="114.000000pt"
   viewBox="0 0 106.000000 114.000000"
   preserveAspectRatio="xMidYMid meet"
   id="svg14"
   sodipodi:docname="c_t.svg"
   inkscape:version="1.4 (e7c3feb1, 2024-10-09)"
   xmlns:inkscape="http://www.inkscape.org/namespaces/inkscape"
   xmlns:sodipodi="http://sodipodi.sourceforge.net/DTD/sodipodi-0.dtd"
   xmlns="http://www.w3.org/2000/svg"
   xmlns:svg="http://www.w3.org/2000/svg">
  <defs
     id="defs14" />
  <sodipodi:namedview
     id="namedview14"
     pagecolor="#ffffff"
     bordercolor="#000000"
     borderopacity="0.25"
     inkscape:showpageshadow="2"
     inkscape:pageopacity="0.0"
     inkscape:pagecheckerboard="0"
     inkscape:deskcolor="#d1d1d1"
     inkscape:document-units="pt"
     inkscape:zoom="3.8704792"
     inkscape:cx="42.63038"
     inkscape:cy="101.92536"
     inkscape:current-layer="svg14" />
  <metadata
     id="metadata1">
Created by potrace 1.16, written by Peter Selinger 2001-2019
</metadata>
  <path
     d="M 85.4,12 C 80.282961,14.805907 75.825613,15.437659 70,14 68.1,13.4 62.4,12.9 57.5,12.8 47.1,12.7 42.8,14.2 38,19.6 c -4,4.6 -4,9.3 0,17.6 1.7,3.4 3.01737,6.700216 3,7.4 -0.137019,5.520033 -6.818809,1.759439 -13.1,14.7 -7.5,15.3 -8.2,29.7 -1.7,35.2 6.2,5.3 14.7,1.9 24.4,-9.8 2.3,-2.8 4.5,-7.9 4,-9.3 -0.9,-2.3 -3.6,-1.6 -4.9,1.3 -1.7,3.7 -7.5,9 -11.4,10.3 -7,2.4 -9.3,-2.7 -6.7,-15 2.807467,-11.715502 9.216826,-19.155544 14.740865,-19.2 5.524039,-0.04446 7.659129,0.450015 8.359135,-1.4 0.700006,-1.850015 -1.4,-6.3 -4.2,-7 -4.9,-1.2 -10,-13.7 -7.6,-18.3 2.4,-4.4 8,-5.9 24.1,-6.3 10.3,-0.2 10.5,-0.1 11.7,2.3 1.3,2.7 0.6,6.9 -2.8,16.8 -1.9,5.7 -2.6,6.5 -6,8 -2.1,0.9 -3.706226,1.274902 -3.9,2.5 -0.193774,1.225098 1.1,2.1 2.5,3.7 3.171022,4.61825 -1.279504,13.533751 -3,20 -0.9,3.5 -2.2,8.1 -3,10.2 -0.8,2 -1.5,5.7 -1.5,8.1 0,4.9 0.9,5.6 6.9,5.6 8.636209,0 17.799745,-12.37081 18.1,-13.1 3.758463,-7.3951 -4.362354,1.101957 -10,1.3 -2.9,0.2 -3.6,-0.1 -3.8,-1.7 C 72,81.8 74.4,73.6 79,61 c 0.7,-1.9 1.5,-4.1 1.7,-4.9 0.3,-1.1 1.7,-1.2 6.3,-0.8 5.8,0.6 6.1,0.6 7.2,-1.9 1.7,-3.7 0,-5.8 -5.2,-6.4 -6.8,-0.8 -7,-2.1 -2.1,-15.1 2.3,-6.3 4.6,-13 5.1,-14.9 1.4,-5.3 -1.482961,-7.805907 -6.6,-5 z"
     id="path1"
     style="fill:#000000;stroke:none;stroke-width:0.1"
     sodipodi:nodetypes="zccccsccccccczzcccccczcscssccccccccccz" />
</svg>
