<?xml version="1.0" encoding="UTF-8" standalone="no"?>
<svg
   version="1.0"
   width="114.000000pt"
   height="82.000000pt"
   viewBox="0 0 114.000000 82.000000"
   preserveAspectRatio="xMidYMid meet"
   id="svg8"
   sodipodi:docname="m.svg"
   inkscape:version="1.4 (e7c3feb1, 2024-10-09)"
   xmlns:inkscape="http://www.inkscape.org/namespaces/inkscape"
   xmlns:sodipodi="http://sodipodi.sourceforge.net/DTD/sodipodi-0.dtd"
   xmlns="http://www.w3.org/2000/svg"
   xmlns:svg="http://www.w3.org/2000/svg">
  <defs
     id="defs8" />
  <sodipodi:namedview
     id="namedview8"
     pagecolor="#ffffff"
     bordercolor="#000000"
     borderopacity="0.25"
     inkscape:showpageshadow="2"
     inkscape:pageopacity="0.0"
     inkscape:pagecheckerboard="0"
     inkscape:deskcolor="#d1d1d1"
     inkscape:document-units="pt"
     showguides="false"
     inkscape:zoom="2.6904551"
     inkscape:cx="7.0620024"
     inkscape:cy="75.266078"
     inkscape:current-layer="svg8" />
  <metadata
     id="metadata1">
Created by potrace 1.16, written by Peter Selinger 2001-2019
</metadata>
  <path
     d="m 55.5,14.2 c -1.6,0.6 -5.5,2.9 -8.5,5 -5.5,3.9 -5.5,3.9 -6.3,0.2 -0.9,-4.4 -2,-5.4 -6.3,-5.4 -5.2,0 -9.1,1.9 -11.6,5.8 -4.4,6.9 -5,8.4 -3.9,9.5 0.7,0.7 2.3,-0.1 5.1,-2.6 4.2,-3.8 8,-4.8 8,-2.2 0,2 -2.3,6.7 -8.2,17 -5.3,9.2 -7.1,14.5 -6.6,19.5 0.2,2.7 0.8,3.6 2.5,3.8 2.6,0.4 5.2,-3 11.7,-14.9 C 36.1,41.1 44.9,30.3 51.6,25 58.8,19.2 59.3,23.1 52.9,36.5 50.6,41.4 47,48.4 44.9,52 40.3,59.9 39.2,63.9 41.1,65.1 45.4,67.8 49.6,64.4 57,52.5 65.2,39.2 80.5,23 84.9,23 c 2.3,0 1,4.9 -3.8,14.1 -2.7,5.3 -7.2,13.1 -10,17.4 -5.6,8.5 -6,10.1 -3.2,11 3.7,1.1 16.1,-5.8 23.9,-13.4 5.3,-5.2 5,-6.7 -1.1,-6.3 -4.6,0.3 -4.980868,0.147543 -3.5,-3 3.380944,-7.1861 8.292954,-15.18543 8.7,-20.3 0.407046,-5.11457 -0.392706,-7.747806 -3.2,-8.8 -2.807294,-1.052194 -11.8,3 -19.1,8.8 -9.2,7.3 -11.1,7.4 -8.1,0.2 5.412718,-13.1044747 -8.447599,-8.995515 -10,-8.5 z"
     id="path1"
     style="fill:#000000;stroke:none;stroke-width:0.1"
     sodipodi:nodetypes="cccscscscccccccccscccccszzccc" />
</svg>
