<?xml version="1.0" encoding="UTF-8" standalone="no"?>
<svg
   version="1.0"
   width="130.000000pt"
   height="132.000000pt"
   viewBox="0 0 130.000000 132.000000"
   preserveAspectRatio="xMidYMid meet"
   id="svg4"
   sodipodi:docname="Y.svg"
   inkscape:version="1.4 (e7c3feb1, 2024-10-09)"
   xmlns:inkscape="http://www.inkscape.org/namespaces/inkscape"
   xmlns:sodipodi="http://sodipodi.sourceforge.net/DTD/sodipodi-0.dtd"
   xmlns="http://www.w3.org/2000/svg"
   xmlns:svg="http://www.w3.org/2000/svg">
  <defs
     id="defs4" />
  <sodipodi:namedview
     id="namedview4"
     pagecolor="#ffffff"
     bordercolor="#000000"
     borderopacity="0.25"
     inkscape:showpageshadow="2"
     inkscape:pageopacity="0.0"
     inkscape:pagecheckerboard="0"
     inkscape:deskcolor="#d1d1d1"
     inkscape:document-units="pt"
     inkscape:zoom="4.7272727"
     inkscape:cx="52.461539"
     inkscape:cy="87.894231"
     inkscape:current-layer="svg4" />
  <metadata
     id="metadata1">
Created by potrace 1.16, written by Peter Selinger 2001-2019
</metadata>
  <path
     d="M 86.5,15.2 C 81.7,16.9 75.4,21.6 71.4,26.6 66.6,32.4 64.2,32.3 62.4,26 60.368582,18.662761 55.204706,15.662334 48,15.2 c -4.361538,-0.241346 -8.327885,1.027885 -11.9,4.3 -4.4,4.1 -5.1,5.3 -5.1,8.6 0.135407,7.313332 8.355252,-0.270281 11,-1.9 1.9,-1.2 4.2,-2.2 5.1,-2.2 2.8,0 6.5,3.7 7.9,7.9 1.6,4.9 0.7,10.3 -5.5,30.6 -5.8,19.2 -7.1,21.7 -12.9,23.3 -5.5,1.7 -7.1,3.3 -5.7,5.9 0.8,1.6 2.5,2 10.8,2.4 14.3,0.6 24.1,0.5 24.9,-0.4 1.1,-1.1 -2.7,-4.7 -5,-4.7 -1.2,0 -3.1,-0.8 -4.4,-1.8 -2.3,-1.8 -2.3,-1.8 -0.1,-10.7 1.548263,-6.451097 10.980689,-33.187843 14.5,-39.2 2.9,-5 10.5,-11.8 14.1,-12.8 2.4,-0.6 4.009632,1.102276 7,4.2 2.990368,3.097724 5.241949,3.681215 6.8,2 1.55805,-1.681215 5.7328,-13.152801 -1.7,-15.5 -4.5,-1.4 -7.3,-1.4 -11.3,0 z"
     id="path1"
     style="fill:#000000;stroke:none;stroke-width:0.1"
     sodipodi:nodetypes="cccccscsccccccscccczzcc" />
</svg>
