<?xml version="1.0" encoding="UTF-8" standalone="no"?>
<svg
   version="1.0"
   width="116.000000pt"
   height="118.000000pt"
   viewBox="0 0 116.000000 118.000000"
   preserveAspectRatio="xMidYMid meet"
   id="svg13"
   sodipodi:docname="vector.svg"
   inkscape:export-filename="E.svg"
   inkscape:export-xdpi="96"
   inkscape:export-ydpi="96"
   inkscape:version="1.4 (e7c3feb1, 2024-10-09)"
   xmlns:inkscape="http://www.inkscape.org/namespaces/inkscape"
   xmlns:sodipodi="http://sodipodi.sourceforge.net/DTD/sodipodi-0.dtd"
   xmlns="http://www.w3.org/2000/svg"
   xmlns:svg="http://www.w3.org/2000/svg">
  <defs
     id="defs13" />
  <sodipodi:namedview
     id="namedview13"
     pagecolor="#ffffff"
     bordercolor="#000000"
     borderopacity="0.25"
     inkscape:showpageshadow="2"
     inkscape:pageopacity="0.0"
     inkscape:pagecheckerboard="0"
     inkscape:deskcolor="#d1d1d1"
     inkscape:document-units="pt"
     inkscape:zoom="1.8696383"
     inkscape:cx="65.253264"
     inkscape:cy="81.031718"
     inkscape:current-layer="svg13" />
  <metadata
     id="metadata1">
Created by potrace 1.16, written by Peter Selinger 2001-2019
</metadata>
  <path
     d="m 42.8,23 c -4.7,0.3 -9,0.8 -9.3,1.2 -1.4,1.4 0.4,3.7 3.2,4.3 4.6,1 7.8,2.9 8.1,5.1 0.2,1.2 -1.2,6.8 -3.1,12.5 C 39.8,51.8 36.8,61.2 35,67 28.9,86.5 26.1,92.9 23,94.5 21.4,95.3 19,96 17.6,96 c -3,0 -4,1.3 -3.2,4.3 0.5,2.2 0.5,2.2 30.8,1.9 34.5,-0.4 33.3,-0.1 38.2,-9.2 2.2,-4.1 2.5,-5.4 1.6,-6.5 -1.9,-2.3 -4.4,-1.8 -7.6,1.6 -1.6,1.7 -4.7,3.9 -6.9,4.9 -5.6,2.4 -19.3,3.5 -24.2,2 -5.1,-1.7 -5.6,-2.3 -5.5,-6.6 0.2,-4.8 5.1,-20.1 7,-21.6 0.9,-0.8 4.7,-1.3 10,-1.3 7.7,0 8.6,0.2 9.9,2.2 2.7,4.1 4,3.1 9,-6.8 2.8,-5.7 2.8,-6.5 0.4,-7.9 -1.6,-0.8 -2.5,-0.5 -4.7,1.5 -1.4,1.3 -4.2,2.7 -6.1,3.1 C 61.6,58.5 53,57.5 52,56.1 c -1.2,-2 1.7,-14.1 4.7,-19.9 3.2,-6.1 4.5,-6.7 15.2,-6.7 7.3,0 7.3,0 10.5,3.9 2.9,3.3 3.6,3.7 5.4,2.7 3.2,-1.7 5.4,-11.2 3,-12.8 -1.4,-0.9 -34.2,-1.1 -48,-0.3 z"
     id="path2"
     style="fill:#000000;stroke:none;stroke-width:0.1" />
</svg>
