<?xml version="1.0" standalone="no"?>
<!DOCTYPE svg PUBLIC "-//W3C//DTD SVG 20010904//EN"
 "http://www.w3.org/TR/2001/REC-SVG-20010904/DTD/svg10.dtd">
<svg version="1.0" xmlns="http://www.w3.org/2000/svg"
 width="142.000000pt" height="146.000000pt" viewBox="0 0 142.000000 146.000000"
 preserveAspectRatio="xMidYMid meet">
<metadata>
Created by potrace 1.16, written by Peter Selinger 2001-2019
</metadata>
<g transform="translate(0.000000,146.000000) scale(0.100000,-0.100000)"
fill="#000000" stroke="none">
<path d="M87 1453 c-4 -3 -7 -15 -7 -25 0 -16 -5 -17 -41 -12 -37 6 -41 5 -37
-12 4 -21 30 -30 56 -18 9 4 20 8 23 8 13 2 39 36 39 50 0 16 -21 22 -33 9z"/>
<path d="M1210 1445 c0 -11 16 -15 68 -17 67 -3 67 -3 64 -40 -3 -28 1 -39 17
-47 33 -18 61 -14 61 10 0 18 -4 20 -25 15 -25 -6 -30 0 -25 33 1 7 -1 24 -4
37 -6 23 -11 24 -81 24 -59 0 -75 -3 -75 -15z"/>
<path d="M371 1431 c-21 -14 -1 -17 69 -10 58 5 60 6 18 7 -25 1 -52 4 -60 7
-7 3 -19 1 -27 -4z"/>
<path d="M520 1429 c0 -5 14 -9 30 -9 39 0 39 15 0 16 -17 1 -30 -3 -30 -7z"/>
<path d="M1277 1211 c-31 -7 -68 -56 -59 -79 4 -11 1 -14 -11 -9 -23 9 -22
-20 1 -46 12 -13 17 -37 18 -81 2 -129 1 -123 29 -96 22 20 25 32 25 87 0 35
-3 63 -8 63 -4 0 -13 9 -20 21 -13 20 -11 21 25 19 65 -3 63 -5 63 65 0 70 0
71 -63 56z m21 -58 c3 -17 -1 -20 -17 -16 -26 7 -29 46 -3 41 9 -2 18 -13 20
-25z"/>
<path d="M595 1173 c-55 -2 -110 -5 -122 -8 -33 -8 -29 -40 8 -65 17 -13 35
-34 41 -49 11 -28 12 -510 1 -595 -6 -46 -8 -50 -49 -68 -49 -21 -53 -29 -24
-58 17 -17 33 -20 119 -20 54 0 118 -3 142 -6 38 -5 48 -3 72 20 35 32 26 50
-34 67 -60 18 -66 32 -74 154 -6 102 -5 112 13 135 19 24 25 25 109 22 152 -5
225 44 257 172 32 127 -20 244 -125 284 -30 12 -189 19 -334 15z m271 -78 c13
-8 35 -38 50 -66 22 -43 25 -59 19 -103 -11 -86 -22 -110 -66 -138 -51 -33
-110 -44 -150 -28 -44 18 -61 87 -53 210 7 98 17 123 59 141 28 12 113 3 141
-16z"/>
<path d="M726 925 c-4 -11 1 -15 19 -15 18 0 23 4 19 15 -4 8 -12 15 -19 15
-7 0 -15 -7 -19 -15z"/>
<path d="M400 1136 c0 -9 5 -16 10 -16 6 0 10 4 10 9 0 6 -4 13 -10 16 -5 3
-10 -1 -10 -9z"/>
<path d="M1353 985 c0 -22 2 -30 4 -17 2 12 2 30 0 40 -3 9 -5 -1 -4 -23z"/>
<path d="M1275 872 c-28 -6 -52 -29 -59 -58 -4 -13 -13 -24 -21 -24 -8 0 -17
-12 -20 -27 -4 -16 -11 -37 -17 -47 -5 -10 -16 -56 -23 -102 -13 -79 -13 -86
9 -158 19 -61 21 -76 10 -80 -8 -3 -14 -14 -14 -25 0 -24 55 -81 78 -81 9 0
28 -3 41 -7 18 -5 22 -2 20 12 -3 12 -15 18 -41 20 -44 2 -68 19 -68 48 0 20
0 20 23 -1 20 -19 36 -22 98 -23 140 -2 129 -7 129 56 0 52 -1 55 -25 55 -14
0 -35 -6 -46 -12 -17 -10 -23 -10 -26 -1 -2 7 -18 28 -34 49 -16 20 -29 44
-28 53 0 12 4 11 16 -6 25 -37 33 -27 33 43 0 61 -1 65 -20 59 -30 -9 -25 13
10 45 18 17 30 38 30 53 0 31 -16 43 -35 27 -25 -21 -17 6 11 39 28 34 50 39
80 16 30 -22 34 -18 34 30 0 40 -3 45 -22 46 -13 0 -41 1 -63 3 -22 1 -49 1
-60 -2z m-45 -137 c0 -8 -4 -15 -10 -15 -5 0 -10 7 -10 15 0 8 5 15 10 15 6 0
10 -7 10 -15z m-20 -93 c16 -13 22 -29 23 -67 2 -44 -1 -50 -18 -50 -19 0 -20
3 -39 103 -6 36 2 40 34 14z"/>
<path d="M77 863 c-2 -5 -3 -24 -1 -43 1 -29 5 -35 23 -33 13 2 21 -3 21 -12
0 -20 39 -19 47 1 7 19 -16 64 -34 64 -7 0 -13 -5 -13 -11 0 -5 -4 -7 -10 -4
-5 3 -10 15 -10 26 0 19 -15 26 -23 12z"/>
<path d="M1380 721 c-18 -5 -25 -14 -25 -31 0 -21 5 -25 30 -25 27 0 30 4 33
33 3 34 2 34 -38 23z"/>
<path d="M1356 581 c-4 -7 -5 -15 -2 -18 9 -9 19 4 14 18 -4 11 -6 11 -12 0z"/>
<path d="M1374 510 c0 -13 4 -16 10 -10 7 7 7 13 0 20 -6 6 -10 3 -10 -10z"/>
<path d="M0 465 c0 -33 2 -36 15 -25 18 15 16 51 -2 58 -9 2 -13 -8 -13 -33z"/>
<path d="M110 355 c0 -23 5 -35 14 -35 18 0 28 40 14 57 -18 22 -28 14 -28
-22z"/>
<path d="M390 340 c0 -5 5 -10 11 -10 5 0 7 5 4 10 -3 6 -8 10 -11 10 -2 0 -4
-4 -4 -10z"/>
<path d="M91 214 c0 -11 3 -14 6 -6 3 7 2 16 -1 19 -3 4 -6 -2 -5 -13z"/>
<path d="M93 121 c-10 -16 -20 -18 -53 -14 -36 5 -40 4 -40 -17 0 -21 3 -22
40 -16 38 6 40 5 40 -19 0 -18 5 -25 20 -25 11 0 20 -7 20 -15 0 -8 6 -15 14
-15 9 0 12 7 9 20 -4 15 0 20 13 21 17 0 17 1 -1 9 -29 11 -43 30 -47 63 -3
26 -4 27 -15 8z"/>
<path d="M1373 73 c-30 -6 -43 -25 -36 -51 8 -31 33 -28 33 4 0 23 3 25 25 20
20 -5 25 -3 25 14 0 20 -5 21 -47 13z"/>
<path d="M1260 30 c0 -5 7 -7 15 -4 8 4 15 8 15 10 0 2 -7 4 -15 4 -8 0 -15
-4 -15 -10z"/>
</g>
</svg>
