<?xml version="1.0" encoding="UTF-8" standalone="no"?>
<svg
   version="1.0"
   width="130.000000pt"
   height="150.000000pt"
   viewBox="0 0 130.000000 150.000000"
   preserveAspectRatio="xMidYMid meet"
   id="svg45"
   sodipodi:docname="s_t.svg"
   inkscape:version="1.4 (e7c3feb1, 2024-10-09)"
   xmlns:inkscape="http://www.inkscape.org/namespaces/inkscape"
   xmlns:sodipodi="http://sodipodi.sourceforge.net/DTD/sodipodi-0.dtd"
   xmlns="http://www.w3.org/2000/svg"
   xmlns:svg="http://www.w3.org/2000/svg">
  <defs
     id="defs45" />
  <sodipodi:namedview
     id="namedview45"
     pagecolor="#ffffff"
     bordercolor="#000000"
     borderopacity="0.25"
     inkscape:showpageshadow="2"
     inkscape:pageopacity="0.0"
     inkscape:pagecheckerboard="0"
     inkscape:deskcolor="#d1d1d1"
     inkscape:document-units="pt"
     inkscape:zoom="2.9415642"
     inkscape:cx="90.428079"
     inkscape:cy="109.9755"
     inkscape:current-layer="svg45" />
  <metadata
     id="metadata1">
Created by potrace 1.16, written by Peter Selinger 2001-2019
</metadata>
  <path
     d="M 85.8,15 C 77.9,17.4 69.9,25.3 64.4,36.2 59.1,46.6 55.8,57.9 49,88 c -4.1,18.5 -9,32.9 -11.8,35.3 -0.9,0.7 -4.6,1.2 -9.1,1.2 -7.4,0 -7.6,0.1 -7.8,2.5 -0.4,3.7 2,6.1 6.9,7.1 6.4,1.2 11.4,-0.7 17.5,-6.6 5.7,-5.6 6,-6.3 10.3,-27.5 6.2,-30.5 15.2,-59.4 21.6,-69.6 2.4,-3.9 4.2,-5.5 6.9,-6.4 7.8,-2.6 10.7,0.8 8.5,10.2 -2.2,9.2 -6.4,16.3 -11.2,19 -5.1,2.8 -5.9,5 -2.3,6.6 1.4,0.6 2.5,2 2.5,2.9 0,1 -1.7,7.2 -3.9,13.8 -4.3,13.5 -6.1,21 -6.1,26 0,3.4 0.1,3.5 4,3.5 5.1,0 13.127024,-6.79876 16.372517,-12.035101 C 94.61801,88.728558 96.969095,82.912477 89.6,87.1 c -7.2,4.2 -8.2,0.8 -3.3,-12.4 4.1,-11.1 5.28245,-12.919866 11.08245,-12.119866 4.6,0.6 5.12748,-0.519865 6.22748,-2.919865 1.7,-3.8 -0.23741,-4.477819 -4.819863,-5.885437 C 91.533426,50.836628 97.198038,44.444733 99.9,37.7 106.3,22.4 105.2,16.1 96.2,14.6 91.6,13.9 89.2,14 85.8,15 Z"
     id="path13"
     style="fill:#000000;stroke:none;stroke-width:0.1"
     sodipodi:nodetypes="ccccscccccscccscsszcccccccc" />
</svg>
