<?xml version="1.0" standalone="no"?>
<!DOCTYPE svg PUBLIC "-//W3C//DTD SVG 20010904//EN"
 "http://www.w3.org/TR/2001/REC-SVG-20010904/DTD/svg10.dtd">
<svg version="1.0" xmlns="http://www.w3.org/2000/svg"
 width="382.000000pt" height="223.000000pt" viewBox="0 0 382.000000 223.000000"
 preserveAspectRatio="xMidYMid meet">
<metadata>
Created by potrace 1.16, written by Peter Selinger 2001-2019
</metadata>
<g transform="translate(0.000000,223.000000) scale(0.100000,-0.100000)"
fill="#000000" stroke="none">
<path d="M470 2216 c0 -9 -19 -15 -62 -19 -40 -3 -66 -11 -74 -21 -6 -9 -16
-16 -23 -16 -7 0 -11 -23 -11 -66 0 -65 0 -65 38 -62 33 3 38 7 49 40 8 25 9
47 3 69 -5 18 -8 34 -7 35 2 2 21 -3 42 -11 38 -13 41 -12 57 8 22 27 23 57 3
57 -8 0 -15 -6 -15 -14z"/>
<path d="M2837 2178 c5 -55 23 -108 35 -108 4 0 8 -10 10 -21 4 -30 33 -47 56
-33 14 9 17 29 20 113 3 101 3 101 -62 101 -65 0 -65 0 -59 -52z"/>
<path d="M2425 2206 c-11 -7 -35 -17 -53 -21 -22 -4 -36 -15 -42 -30 -5 -13
-14 -26 -19 -30 -6 -3 -11 -26 -11 -50 0 -59 40 -109 81 -101 20 4 27 2 24 -7
-5 -13 38 -37 67 -37 10 0 25 14 34 33 9 17 25 38 35 45 13 9 19 26 19 51 0
20 5 42 11 48 8 8 8 13 0 17 -6 4 -11 15 -11 24 0 10 -11 30 -25 45 -29 30
-77 36 -110 13z"/>
<path d="M2600 2210 c0 -5 9 -10 20 -10 11 0 20 5 20 10 0 6 -9 10 -20 10 -11
0 -20 -4 -20 -10z"/>
<path d="M0 2180 c0 -19 7 -20 124 -20 117 0 186 11 186 31 0 5 -70 9 -155 9
-148 0 -155 -1 -155 -20z"/>
<path d="M2995 2189 c-12 -18 4 -24 83 -29 77 -5 77 -5 82 -93 4 -70 9 -91 23
-102 14 -10 90 -13 327 -14 306 -1 310 -1 310 19 0 21 -3 21 -312 19 -312 -1
-312 -1 -309 105 3 106 3 106 -98 106 -60 0 -102 -4 -106 -11z"/>
<path d="M3607 1919 c7 -7 15 -10 18 -7 3 3 -2 9 -12 12 -14 6 -15 5 -6 -5z"/>
<path d="M3576 1863 c-6 -14 -5 -15 5 -6 7 7 10 15 7 18 -3 3 -9 -2 -12 -12z"/>
<path d="M3715 1871 c-30 -7 -30 -7 1 -12 21 -3 31 -1 31 8 0 7 -1 12 -1 12
-1 -1 -14 -4 -31 -8z"/>
<path d="M449 1793 c-13 -16 -12 -17 4 -4 9 7 17 15 17 17 0 8 -8 3 -21 -13z"/>
<path d="M363 1694 c-25 -27 -29 -44 -13 -44 6 0 10 4 10 10 0 5 14 17 31 26
25 12 29 18 18 25 -20 12 -21 12 -46 -17z"/>
<path d="M2915 1690 c-3 -5 -17 -10 -31 -10 -13 0 -24 -4 -24 -9 0 -15 -54
-71 -68 -71 -9 0 -12 -6 -8 -16 3 -9 6 -20 6 -25 0 -5 10 -9 23 -9 15 0 32
-12 47 -32 13 -18 29 -37 37 -41 8 -5 13 -28 13 -65 0 -33 5 -63 12 -70 10
-10 10 -17 0 -32 -15 -24 -16 -76 -2 -85 6 -3 10 -46 10 -94 0 -67 -4 -92 -15
-101 -8 -7 -15 -23 -15 -35 0 -15 -13 -32 -40 -50 -44 -30 -46 -38 -27 -78 12
-27 44 -36 63 -18 5 5 23 11 39 13 28 3 30 5 28 43 -1 22 -1 164 0 315 1 151
0 304 -1 340 0 36 -2 82 -2 103 0 30 -4 37 -20 37 -10 0 -22 -4 -25 -10z"/>
<path d="M425 1674 c-66 -34 -87 -69 -67 -112 38 -80 52 -97 96 -120 28 -15
46 -31 46 -42 0 -20 30 -50 51 -50 8 0 20 -9 27 -20 7 -12 17 -18 23 -14 18
11 129 -116 129 -149 0 -10 -12 -35 -27 -53 -16 -19 -41 -50 -57 -69 -16 -20
-41 -63 -57 -95 -30 -64 -33 -66 -117 -61 -52 3 -92 -20 -92 -52 0 -24 24 -50
72 -80 23 -14 28 -14 38 -2 7 8 23 15 36 15 12 0 26 5 29 10 3 6 33 10 65 10
32 0 62 -4 65 -10 4 -6 -9 -10 -31 -10 -47 0 -154 -22 -154 -31 0 -4 19 -9 43
-12 29 -3 46 0 54 10 8 11 31 14 85 12 78 -2 103 4 112 27 13 34 -31 60 -114
66 -33 3 -35 6 -40 43 -5 44 8 85 28 85 9 0 8 -7 -4 -25 -18 -28 -11 -31 27
-13 21 10 54 64 72 120 7 21 60 32 86 18 25 -13 111 -138 111 -160 0 -9 6 -22
13 -29 10 -11 6 -12 -21 -6 -25 5 -38 2 -53 -11 -25 -23 -24 -34 6 -67 25 -26
29 -27 123 -26 69 1 87 4 62 9 -35 7 -35 7 6 9 24 0 46 -5 53 -12 14 -17 86
-8 85 11 -1 6 -2 26 -2 42 -2 25 -11 36 -46 58 -25 15 -55 44 -68 65 -13 21
-33 50 -45 64 -13 14 -23 29 -23 34 0 4 -9 10 -19 14 -21 6 -50 46 -56 76 -2
11 -12 32 -23 47 -34 49 -34 62 -2 98 16 19 30 41 30 49 0 8 9 15 20 15 11 0
20 7 20 15 0 8 5 15 10 15 6 0 10 6 10 12 0 7 12 36 27 65 14 29 23 56 20 59
-12 13 -41 -22 -68 -83 -16 -34 -34 -65 -40 -69 -19 -11 -4 74 17 97 14 15 15
21 4 34 -12 14 -16 13 -37 -6 -12 -13 -23 -28 -23 -34 0 -6 -15 -28 -33 -48
-45 -51 -93 -59 -146 -24 -74 49 -109 173 -51 185 21 5 50 32 50 47 0 7 -8 22
-17 34 -14 16 -36 23 -97 31 -44 6 -82 6 -85 2 -9 -14 -59 -23 -87 -16 -19 5
-22 9 -12 15 23 15 -6 10 -37 -7z m603 -873 c10 -6 8 -10 -10 -14 -41 -12 -55
-8 -34 8 23 17 26 18 44 6z m-285 -22 c-6 -6 -19 -9 -29 -6 -17 3 -16 5 6 14
28 12 39 8 23 -8z"/>
<path d="M990 1680 c-87 -7 -100 -12 -100 -45 0 -17 8 -26 32 -34 37 -13 78
-49 78 -68 0 -17 40 -16 64 2 22 17 50 20 41 5 -7 -12 -3 -12 19 -4 9 3 16 16
16 28 0 15 9 27 25 34 27 12 51 60 38 73 -11 10 -123 15 -213 9z"/>
<path d="M1338 1663 c-27 -32 -36 -57 -39 -117 -4 -57 -3 -60 26 -77 17 -10
38 -18 48 -18 9 -1 17 -6 17 -12 0 -5 10 -9 22 -7 13 2 23 -2 23 -9 0 -6 3
-15 8 -19 4 -4 7 -2 7 6 0 19 24 -4 78 -75 25 -33 68 -85 94 -116 26 -30 48
-63 48 -73 0 -9 -41 -66 -91 -127 -88 -105 -139 -149 -172 -149 -20 0 -68 -26
-78 -42 -12 -18 -11 -40 1 -33 6 3 10 -3 10 -14 0 -40 25 -50 123 -50 51 1 99
5 108 10 9 5 46 10 83 11 36 2 68 8 70 14 6 16 -25 50 -62 68 -61 31 -59 87 6
175 52 70 72 69 145 -7 68 -72 81 -118 48 -162 -23 -32 -27 -65 -10 -76 13 -8
326 -12 339 -4 9 5 14 41 12 71 -1 9 -26 35 -56 57 -30 23 -82 76 -117 119
-35 43 -73 88 -86 100 -13 12 -23 27 -23 32 0 6 -16 25 -35 42 -19 18 -35 40
-35 49 0 31 31 92 75 149 81 103 110 131 173 166 34 20 62 42 62 50 0 7 7 20
15 28 13 13 12 16 -3 22 -35 15 -90 19 -202 17 -97 -2 -118 -5 -134 -21 -26
-27 -14 -66 29 -94 47 -30 45 -57 -7 -140 -41 -64 -44 -67 -83 -67 -37 0 -44
5 -81 53 -62 80 -67 92 -50 125 18 35 50 65 40 37 -6 -15 -5 -16 15 -4 21 14
23 36 2 32 -6 -2 -11 7 -11 20 0 14 -12 30 -33 44 -29 20 -44 22 -137 21 -58
-1 -119 2 -136 6 -23 5 -34 2 -46 -11z m56 -183 c6 -6 6 -10 0 -10 -10 0 -84
48 -84 54 0 6 72 -32 84 -44z"/>
<path d="M2443 1633 c-142 -4 -142 -4 -149 -38 -5 -29 -1 -41 26 -76 68 -85
85 -143 81 -271 -1 -49 2 -78 9 -78 13 0 14 -187 0 -195 -13 -8 -13 -62 0 -67
15 -5 -27 -60 -72 -93 -41 -31 -46 -45 -23 -68 14 -15 55 -12 55 3 0 4 19 10
43 13 23 3 56 9 73 12 21 5 45 0 75 -13 83 -38 129 -35 129 8 0 9 -21 36 -46
61 -38 37 -74 92 -74 114 0 2 15 11 34 19 31 13 33 17 31 54 -1 23 -11 52 -24
67 -11 15 -22 39 -22 54 -1 18 -3 21 -6 8 -3 -10 1 -32 8 -49 12 -29 11 -33
-15 -55 -16 -13 -29 -23 -30 -21 -1 2 2 47 8 100 9 87 12 97 30 100 25 4 32
32 16 63 -6 12 -10 37 -8 56 4 34 4 34 17 4 19 -46 51 -75 83 -75 22 0 31 -7
40 -27 11 -28 11 -28 18 -3 17 54 13 61 -30 58 -46 -2 -54 4 -84 63 -11 24
-30 45 -40 47 -14 3 -17 0 -13 -12 4 -9 2 -16 -3 -16 -6 0 -10 3 -11 8 -13
120 -6 162 29 162 8 0 21 8 28 17 10 15 9 23 -4 45 -9 16 -21 27 -27 26 -5 -1
-74 -4 -152 -5z"/>
<path d="M3540 1620 c-8 -5 -63 -10 -122 -10 -128 0 -154 -8 -163 -50 -6 -28
-3 -35 34 -66 40 -35 44 -43 72 -159 7 -27 17 -57 23 -65 24 -33 36 -61 36
-86 0 -14 11 -39 24 -54 20 -24 23 -36 19 -74 -3 -27 -1 -51 6 -59 18 -22 49
-126 44 -147 -3 -10 0 -21 6 -24 6 -4 11 -19 11 -34 0 -15 9 -42 20 -59 16
-27 26 -33 55 -33 28 0 37 5 49 28 8 15 24 36 36 47 18 17 20 26 15 67 -6 42
-3 51 22 85 15 21 34 42 40 46 7 4 13 21 13 37 0 17 9 39 20 50 19 19 20 33
20 202 0 177 0 181 -19 164 -10 -10 -22 -34 -25 -54 -3 -20 -9 -62 -14 -92 -4
-31 -20 -74 -36 -99 -20 -31 -25 -46 -17 -54 6 -6 11 -24 11 -40 0 -23 -7 -31
-35 -43 -19 -7 -46 -14 -60 -14 -32 0 -49 39 -59 133 -3 37 -12 80 -18 95 -6
15 -14 36 -19 47 -4 11 -11 40 -14 64 -9 55 -35 81 -80 81 -41 0 -44 9 -12 37
15 14 42 22 86 27 80 8 95 19 87 65 -7 45 -27 60 -56 41z"/>
<path d="M2997 1613 c-12 -12 -7 -21 15 -26 21 -6 21 -7 5 -25 -26 -28 -22
-43 11 -36 15 4 30 9 35 11 9 5 9 45 1 67 -6 16 -54 22 -67 9z"/>
<path d="M3766 1581 c-23 -24 -26 -32 -17 -49 10 -18 15 -20 41 -10 26 9 30
15 30 49 0 47 -15 50 -54 10z"/>
<path d="M3805 1460 c3 -5 8 -10 11 -10 2 0 4 5 4 10 0 6 -5 10 -11 10 -5 0
-7 -4 -4 -10z"/>
<path d="M2832 1438 c-7 -7 -12 -28 -12 -48 0 -20 -4 -40 -9 -45 -15 -16 -18
-125 -3 -125 7 0 15 -14 19 -30 12 -65 23 -37 23 63 0 57 5 119 11 136 9 26 9
36 -3 47 -11 11 -16 12 -26 2z"/>
<path d="M2605 1190 c-3 -5 8 -23 25 -40 16 -16 30 -40 30 -52 1 -22 1 -22 14
-5 19 25 15 39 -19 76 -32 33 -40 37 -50 21z"/>
<path d="M2740 1190 c-12 -8 -13 -13 -2 -30 23 -37 15 -66 -23 -84 -37 -18
-47 -46 -17 -46 10 0 29 -11 42 -25 13 -14 28 -25 33 -25 17 0 47 42 47 67 0
13 5 32 12 42 10 17 6 26 -26 65 -40 49 -43 51 -66 36z"/>
<path d="M2850 1061 c0 -11 5 -23 10 -26 6 -4 10 5 10 19 0 14 -4 26 -10 26
-5 0 -10 -9 -10 -19z"/>
<path d="M3205 1050 c-3 -5 -1 -10 4 -10 6 0 11 5 11 10 0 6 -2 10 -4 10 -3 0
-8 -4 -11 -10z"/>
<path d="M570 979 c0 -5 5 -7 10 -4 6 3 10 8 10 11 0 2 -4 4 -10 4 -5 0 -10
-5 -10 -11z"/>
<path d="M2800 971 c0 -5 5 -13 10 -16 6 -3 10 -2 10 4 0 5 -4 13 -10 16 -5 3
-10 2 -10 -4z"/>
<path d="M2718 948 c-18 -14 -21 -30 -19 -95 1 -30 5 -43 15 -43 24 0 29 20
16 60 -11 32 -10 41 5 64 18 28 10 34 -17 14z"/>
<path d="M2995 873 c4 -16 7 -28 8 -29 22 -10 77 -47 77 -52 0 -4 -51 -6 -112
-4 -86 3 -116 7 -125 18 -9 12 -16 13 -32 4 -25 -13 -26 -23 -5 -40 11 -10 49
-13 134 -11 110 2 119 1 124 -17 7 -19 59 -37 77 -26 16 10 9 44 -11 56 -11 7
-20 23 -20 35 0 13 -8 24 -20 28 -11 3 -20 11 -20 16 0 5 -9 9 -20 9 -10 0
-24 9 -30 20 -16 30 -33 25 -25 -7z"/>
<path d="M1310 760 c0 -5 5 -10 10 -10 6 0 10 5 10 10 0 6 -4 10 -10 10 -5 0
-10 -4 -10 -10z"/>
<path d="M27 472 c-19 -2 -27 -9 -27 -23 0 -18 9 -19 235 -19 235 0 235 0 235
-215 0 -211 0 -215 21 -215 20 0 20 3 17 215 -3 203 -4 216 -24 236 -20 20
-32 21 -225 23 -112 0 -216 0 -232 -2z"/>
<path d="M3074 472 c-157 -4 -148 11 -152 -258 -4 -213 -3 -214 18 -214 21 0
21 1 18 215 -3 215 -3 215 430 215 423 0 432 0 432 20 0 19 -9 20 -317 22
-175 2 -368 2 -429 0z"/>
<path d="M1105 450 c3 -5 8 -10 11 -10 2 0 4 5 4 10 0 6 -5 10 -11 10 -5 0 -7
-4 -4 -10z"/>
<path d="M1235 450 c3 -5 18 -10 33 -10 21 0 24 2 12 10 -20 13 -53 13 -45 0z"/>
<path d="M1320 451 c0 -7 30 -11 82 -11 45 0 79 2 77 4 -2 2 -39 7 -81 11 -54
5 -78 3 -78 -4z"/>
<path d="M1720 450 c14 -9 99 -15 89 -6 -2 2 -26 6 -54 10 -34 4 -45 3 -35 -4z"/>
<path d="M1878 443 c6 -2 18 -2 25 0 6 3 1 5 -13 5 -14 0 -19 -2 -12 -5z"/>
</g>
</svg>
