<?xml version="1.0" encoding="UTF-8" standalone="no"?>
<svg
   version="1.0"
   width="76pt"
   height="114pt"
   viewBox="0 0 76 114"
   preserveAspectRatio="xMidYMid"
   id="svg10"
   xmlns="http://www.w3.org/2000/svg"
   xmlns:svg="http://www.w3.org/2000/svg">
  <defs
     id="defs10" />
  <metadata
     id="metadata1">
Created by potrace 1.16, written by Peter Selinger 2001-2019
</metadata>
  <path
     d="m 41,35.9 c -7,1.4 -13.4,6.1 -16.6,12.2 -1.2,2.5 -1.7,5.8 -1.8,11.9 0,10.9 2.2,15.5 9.7,20.4 6.7,4.4 11.9,5.3 19.3,3.1 6.8,-2 10.6,-5.6 14,-13.4 5.3,-11.9 2.1,-25 -7.4,-30.2 -4.2,-2.3 -5.9,-3 -12.2,-4.3 -0.8,-0.2 -3.1,0 -5,0.3 z m 14.2,12.2 c 8.7,9.5 7.4,21.3 -2.9,25.6 -6.2,2.5 -18.9,-0.7 -20.7,-5.3 -0.3,-0.9 -0.9,-4 -1.2,-6.9 -1.2,-10.2 6.1,-17.9 16.4,-17.2 4.5,0.3 5.8,0.9 8.4,3.8 z"
     id="path4"
     style="fill:#000000;stroke:none;stroke-width:0.1" />
</svg>
