<?xml version="1.0" standalone="no"?>
<!DOCTYPE svg PUBLIC "-//W3C//DTD SVG 20010904//EN"
 "http://www.w3.org/TR/2001/REC-SVG-20010904/DTD/svg10.dtd">
<svg version="1.0" xmlns="http://www.w3.org/2000/svg"
 width="76.000000pt" height="114.000000pt" viewBox="0 0 76.000000 114.000000"
 preserveAspectRatio="xMidYMid meet">
<metadata>
Created by potrace 1.16, written by Peter Selinger 2001-2019
</metadata>
<g transform="translate(0.000000,114.000000) scale(0.100000,-0.100000)"
fill="#000000" stroke="none">
<path d="M0 1041 c0 -15 99 -21 370 -21 279 1 390 6 390 21 0 5 -167 9 -380 9
-214 0 -380 -4 -380 -9z"/>
<path d="M0 975 c0 -12 15 -14 83 -13 45 1 163 1 262 -1 344 -5 415 -3 415 14
0 13 -49 15 -380 15 -329 0 -380 -2 -380 -15z"/>
<path d="M75 930 c-12 -4 -27 -15 -34 -24 -7 -9 -20 -16 -28 -16 -8 0 -13 -6
-10 -12 2 -7 11 -12 18 -10 9 1 8 -3 -4 -11 -9 -8 -17 -19 -17 -26 0 -16 35
-14 50 4 7 8 25 15 41 15 15 0 32 6 36 13 4 8 16 16 26 20 10 4 17 17 17 32 0
22 -4 25 -37 24 -21 0 -47 -4 -58 -9z"/>
<path d="M410 781 c-70 -14 -134 -61 -166 -122 -12 -25 -17 -58 -18 -119 0
-109 22 -155 97 -204 67 -44 119 -53 193 -31 68 20 106 56 140 134 53 119 21
250 -74 302 -42 23 -59 30 -122 43 -8 2 -31 0 -50 -3z m142 -122 c87 -95 74
-213 -29 -256 -62 -25 -189 7 -207 53 -3 9 -9 40 -12 69 -12 102 61 179 164
172 45 -3 58 -9 84 -38z"/>
<path d="M13 773 c-15 -5 -18 -53 -4 -53 5 0 17 7 26 16 24 25 9 50 -22 37z"/>
<path d="M0 619 c0 -11 4 -17 10 -14 9 6 16 -89 10 -152 -1 -13 3 -23 9 -23
12 0 15 30 12 93 -3 48 15 48 35 1 12 -29 13 -43 3 -72 -6 -21 -16 -43 -21
-49 -7 -9 -5 -15 6 -19 21 -8 28 -2 30 30 0 14 7 28 14 31 17 6 15 70 -2 85
-8 6 -12 18 -10 25 7 17 -59 85 -81 85 -8 0 -15 -9 -15 -21z"/>
<path d="M0 347 c0 -13 3 -26 6 -30 12 -12 34 6 34 29 0 17 -6 24 -20 24 -14
0 -20 -7 -20 -23z"/>
<path d="M743 335 c5 -37 17 -42 17 -7 0 18 -5 32 -10 32 -6 0 -9 -11 -7 -25z"/>
<path d="M0 167 c0 -11 64 -14 380 -16 321 -2 380 0 380 12 0 12 -61 14 -380
16 -318 2 -380 0 -380 -12z"/>
<path d="M0 82 c0 -11 68 -12 378 -7 207 4 379 9 381 11 2 2 -168 5 -378 6
-310 2 -381 1 -381 -10z"/>
</g>
</svg>
