<?xml version="1.0" standalone="no"?>
<!DOCTYPE svg PUBLIC "-//W3C//DTD SVG 20010904//EN"
 "http://www.w3.org/TR/2001/REC-SVG-20010904/DTD/svg10.dtd">
<svg version="1.0" xmlns="http://www.w3.org/2000/svg"
 width="195.000000pt" height="177.000000pt" viewBox="0 0 195.000000 177.000000"
 preserveAspectRatio="xMidYMid meet">
<metadata>
Created by potrace 1.16, written by Peter Selinger 2001-2019
</metadata>
<g transform="translate(0.000000,177.000000) scale(0.100000,-0.100000)"
fill="#000000" stroke="none">
<path d="M766 1551 c-3 -4 -19 -11 -35 -14 -23 -5 -34 -17 -54 -59 -28 -59
-38 -96 -40 -148 -2 -31 1 -35 25 -38 14 -2 32 -10 39 -18 10 -13 14 -12 30 2
11 10 19 26 19 36 0 42 44 92 112 128 45 24 249 40 295 22 15 -6 40 -13 54
-16 40 -9 44 -33 11 -64 -151 -142 -326 -292 -340 -292 -6 0 -52 -45 -103
-100 -51 -55 -96 -100 -100 -100 -5 0 -29 -20 -55 -45 -25 -25 -50 -45 -56
-45 -5 0 -30 -16 -55 -35 -25 -19 -52 -35 -59 -35 -7 0 -22 -12 -34 -27 -17
-22 -20 -35 -14 -68 3 -22 13 -48 22 -57 16 -19 61 -24 90 -9 47 23 95 27 322
24 135 -2 263 -4 285 -4 22 0 63 2 92 6 67 8 92 39 135 162 43 122 36 181 -20
166 -23 -6 -52 -49 -52 -78 0 -9 -14 -36 -31 -61 -33 -48 -111 -94 -160 -94
-15 0 -30 -4 -33 -9 -3 -5 -89 -9 -191 -9 -233 0 -247 10 -142 99 47 41 65 53
132 99 50 33 80 57 139 110 33 31 86 72 116 92 30 21 74 60 98 88 24 27 49 50
55 50 7 0 48 40 92 90 44 49 92 94 107 101 15 6 35 20 45 31 10 11 31 27 46
35 20 10 27 20 25 36 -4 32 -53 45 -130 34 -35 -5 -90 -9 -123 -10 -33 -1 -66
-6 -73 -10 -8 -5 -22 -2 -37 7 -20 13 -58 16 -214 16 -116 0 -192 4 -196 10
-8 12 -32 13 -39 1z"/>
<path d="M627 1522 c-17 -18 -24 -72 -9 -72 12 1 42 74 34 82 -5 5 -16 0 -25
-10z"/>
<path d="M590 1374 c0 -8 5 -12 10 -9 6 3 10 10 10 16 0 5 -4 9 -10 9 -5 0
-10 -7 -10 -16z"/>
<path d="M1903 1245 c-12 -14 -32 -25 -47 -25 -13 0 -28 -4 -31 -10 -3 -5 -23
-10 -43 -10 -31 0 -41 -6 -60 -35 -12 -19 -28 -35 -35 -35 -6 0 -21 -14 -32
-30 -11 -17 -37 -44 -57 -61 -21 -16 -38 -36 -38 -44 0 -8 -9 -20 -20 -27 -11
-7 -20 -18 -20 -25 0 -7 -9 -28 -20 -48 -11 -20 -20 -44 -20 -53 0 -10 -4 -22
-9 -27 -16 -17 -17 -140 -2 -159 24 -28 68 -19 126 27 30 23 54 46 54 52 1 13
93 94 107 95 6 0 17 7 24 15 12 14 15 14 31 -1 24 -22 24 -45 -2 -95 -25 -50
-22 -76 11 -101 23 -17 32 -17 78 -8 52 12 52 12 52 75 0 41 -4 65 -12 69 -10
5 -10 7 0 12 9 4 12 62 12 240 0 250 -2 260 -47 209z m2 -125 c11 -17 -4 -46
-29 -58 -20 -9 -27 -7 -42 10 -18 19 -18 20 5 39 25 21 56 25 66 9z m-91 -85
c16 -12 18 -19 8 -40 -6 -14 -16 -25 -22 -25 -5 0 -10 -11 -10 -24 0 -25 -49
-86 -69 -86 -7 0 -9 10 -5 26 5 20 3 25 -7 22 -8 -3 -16 -15 -17 -29 -5 -33
-18 -46 -59 -60 -29 -9 -37 -9 -44 2 -21 34 0 92 66 177 38 51 40 52 90 52 28
0 58 -7 69 -15z"/>
<path d="M1320 1204 c-9 -10 -10 -18 -2 -26 12 -12 32 -2 32 17 0 21 -16 26
-30 9z"/>
<path d="M510 840 c0 -5 -18 -10 -40 -10 -30 0 -42 -5 -46 -17 -3 -10 -11 -28
-17 -40 -15 -32 -2 -39 25 -14 12 12 46 34 75 49 58 29 67 42 28 42 -14 0 -25
-4 -25 -10z"/>
<path d="M1771 724 c0 -11 3 -14 6 -6 3 7 2 16 -1 19 -3 4 -6 -2 -5 -13z"/>
<path d="M250 690 c0 -5 5 -10 11 -10 5 0 7 5 4 10 -3 6 -8 10 -11 10 -2 0 -4
-4 -4 -10z"/>
<path d="M1766 682 c-9 -28 18 -64 40 -55 13 5 12 9 -4 27 -11 11 -22 28 -24
36 -4 11 -7 8 -12 -8z"/>
<path d="M685 430 c-3 -5 -1 -10 4 -10 6 0 11 5 11 10 0 6 -2 10 -4 10 -3 0
-8 -4 -11 -10z"/>
<path d="M140 380 c-13 -8 -12 -10 3 -10 9 0 17 5 17 10 0 12 -1 12 -20 0z"/>
<path d="M157 238 c2 -5 19 -8 38 -8 19 0 36 3 38 8 3 4 -14 7 -38 7 -24 0
-41 -3 -38 -7z"/>
<path d="M39 177 c5 -5 24 -7 42 -5 33 3 33 4 -8 8 -23 3 -39 2 -34 -3z"/>
<path d="M965 160 c-3 -5 -24 -10 -46 -10 -40 0 -40 0 -37 -42 2 -25 8 -42 14
-41 7 1 20 -7 29 -17 10 -11 24 -20 32 -20 7 0 16 -7 19 -15 7 -18 134 -22
134 -4 0 6 7 27 16 45 17 35 16 35 -11 65 -20 20 -38 29 -61 29 -18 0 -36 5
-39 10 -3 6 -15 10 -25 10 -10 0 -22 -4 -25 -10z"/>
</g>
</svg>
