<?xml version="1.0" standalone="no"?>
<!DOCTYPE svg PUBLIC "-//W3C//DTD SVG 20010904//EN"
 "http://www.w3.org/TR/2001/REC-SVG-20010904/DTD/svg10.dtd">
<svg version="1.0" xmlns="http://www.w3.org/2000/svg"
 width="170.000000pt" height="183.000000pt" viewBox="0 0 170.000000 183.000000"
 preserveAspectRatio="xMidYMid meet">
<metadata>
Created by potrace 1.16, written by Peter Selinger 2001-2019
</metadata>
<g transform="translate(0.000000,183.000000) scale(0.100000,-0.100000)"
fill="#000000" stroke="none">
<path d="M525 1801 c-6 -30 -45 -58 -64 -46 -7 4 -17 2 -24 -3 -7 -6 -30 -12
-52 -14 -40 -3 -40 -3 -40 -88 0 -85 0 -85 43 -88 25 -2 42 1 42 7 0 6 8 11
18 11 25 0 87 69 73 83 -7 7 -23 -2 -51 -31 -39 -38 -70 -47 -70 -18 0 6 -5 3
-11 -8 -16 -26 -29 -3 -29 50 0 37 3 43 26 48 15 4 57 6 94 5 72 -2 90 3 90
28 0 11 -7 14 -25 10 -38 -7 -28 25 10 36 75 23 87 47 22 47 -42 0 -46 -2 -52
-29z"/>
<path d="M1376 1815 c4 -8 10 -15 15 -15 5 0 9 7 9 15 0 8 -7 15 -15 15 -9 0
-12 -6 -9 -15z"/>
<path d="M74 1785 c6 -23 4 -25 -34 -25 -33 0 -40 -4 -40 -19 0 -13 9 -20 33
-24 17 -2 35 0 38 6 4 5 21 10 38 11 17 0 31 6 31 13 0 20 63 35 155 36 50 1
91 6 93 12 1 6 -58 11 -159 12 -161 2 -161 2 -155 -22z m51 -15 c3 -6 -1 -13
-10 -16 -19 -8 -30 0 -20 15 8 14 22 14 30 1z"/>
<path d="M1441 1799 c-30 -5 -57 -11 -59 -14 -10 -10 12 -25 39 -25 16 0 30
-4 30 -10 1 -5 2 -15 3 -22 2 -24 26 -20 26 5 0 13 7 30 15 37 13 10 17 7 29
-21 9 -22 11 -38 5 -45 -12 -15 33 -24 112 -24 53 0 59 2 59 21 0 19 -5 20
-62 19 -96 -2 -90 -6 -82 45 6 45 6 45 -27 44 -19 -1 -58 -5 -88 -10z"/>
<path d="M1118 1773 c6 -2 18 -2 25 0 6 3 1 5 -13 5 -14 0 -19 -2 -12 -5z"/>
<path d="M1318 1773 c6 -2 18 -2 25 0 6 3 1 5 -13 5 -14 0 -19 -2 -12 -5z"/>
<path d="M657 1545 c-77 -26 -86 -59 -36 -128 31 -42 31 -42 25 -430 -4 -214
-11 -412 -16 -440 -10 -51 -46 -97 -77 -97 -20 0 -15 -25 10 -48 21 -20 34
-22 139 -22 99 0 119 3 139 19 23 19 24 19 5 40 -11 12 -25 21 -32 21 -8 0
-20 13 -29 30 -12 23 -15 68 -15 213 0 171 8 235 31 261 16 17 136 8 180 -14
66 -34 79 -77 80 -257 0 -81 -4 -159 -9 -173 -5 -14 -27 -40 -47 -58 -35 -30
-36 -34 -23 -54 9 -13 26 -26 39 -29 39 -11 199 -10 220 1 31 17 24 55 -16 80
-19 12 -35 22 -36 23 0 1 -3 88 -5 192 -5 237 -14 285 -63 337 -29 30 -47 40
-93 49 -72 14 -113 7 -172 -33 -43 -28 -49 -29 -63 -15 -14 13 -15 44 -7 256
8 223 8 242 -9 262 -21 26 -68 32 -120 14z"/>
<path d="M1562 1532 c-6 -17 7 -30 16 -15 4 7 34 13 67 15 60 3 60 3 -9 8 -50
4 -70 2 -74 -8z"/>
<path d="M1441 1503 c-37 -15 -81 -82 -81 -124 0 -31 20 -45 73 -52 47 -7 47
-7 47 88 0 97 -2 102 -39 88z m1 -78 c2 -24 2 -49 0 -55 -5 -14 -42 -12 -44 3
0 6 -2 19 -3 27 -2 19 23 70 34 70 5 0 11 -20 13 -45z"/>
<path d="M267 1432 c-8 -10 -32 -13 -85 -11 -62 3 -76 1 -87 -15 -25 -34 -9
-44 66 -38 48 3 69 1 69 -7 0 -6 14 -11 30 -11 17 0 30 -5 30 -11 0 -7 12 -10
30 -7 22 3 31 0 35 -13 4 -10 20 -25 37 -33 28 -15 32 -14 44 2 17 21 12 38
-10 34 -9 -2 -16 1 -16 6 0 5 -11 10 -26 10 -14 0 -36 10 -49 22 -13 12 -30
20 -38 17 -8 -3 -20 -1 -28 3 -11 7 -10 10 3 15 10 4 23 5 30 3 7 -3 18 1 23
8 13 16 53 8 85 -17 25 -19 25 -19 1 -19 -28 0 -21 -12 9 -17 15 -2 20 3 20
22 0 14 -5 25 -11 25 -5 0 -9 9 -7 21 3 19 -2 21 -70 22 -51 1 -77 -2 -85 -11z"/>
<path d="M1584 1358 c-2 -3 -1 -13 2 -22 6 -15 8 -15 18 -2 6 8 31 16 56 18
44 3 44 4 -13 8 -33 3 -61 2 -63 -2z"/>
<path d="M1559 1306 c-2 -3 -2 -35 0 -73 3 -50 6 -61 11 -43 16 53 8 135 -11
116z"/>
<path d="M1656 1231 c-3 -4 -2 -12 2 -18 5 -8 12 -8 25 2 16 12 16 13 -3 18
-11 3 -22 2 -24 -2z"/>
<path d="M1595 1170 c-8 -13 9 -20 24 -11 10 6 9 10 -3 14 -8 3 -18 2 -21 -3z"/>
<path d="M266 1142 c-3 -6 -1 -14 5 -17 15 -10 25 3 12 16 -7 7 -13 7 -17 1z"/>
<path d="M1416 1104 c-8 -21 -8 -24 4 -24 5 0 14 9 20 20 8 16 8 20 -4 20 -7
0 -17 -7 -20 -16z"/>
<path d="M1496 1087 c-8 -12 -17 -32 -21 -45 -3 -12 -11 -20 -16 -16 -5 3 -7
9 -4 14 3 5 0 12 -6 15 -16 11 -89 -69 -79 -86 5 -8 4 -19 -1 -26 -6 -6 -8
-22 -4 -33 5 -15 1 -26 -11 -34 -23 -17 -10 -36 27 -36 23 0 29 4 29 22 0 16
3 19 11 11 11 -11 -1 -41 -27 -69 -6 -7 -14 -59 -18 -115 -3 -57 -11 -106 -17
-110 -17 -10 1 -77 28 -102 13 -12 28 -32 33 -44 6 -15 15 -21 25 -16 10 3 22
-2 31 -16 8 -11 24 -21 34 -21 10 0 25 -7 34 -15 17 -17 58 -20 84 -6 9 6 29
12 45 16 26 5 27 8 27 70 0 65 0 65 -64 65 -72 0 -126 15 -126 36 0 8 -7 14
-15 14 -16 0 -38 34 -27 44 3 4 0 11 -8 16 -8 5 -16 14 -16 20 -1 5 -2 15 -3
20 0 6 -11 14 -22 19 -17 6 -22 16 -23 46 -1 33 4 41 36 62 27 19 41 22 55 15
10 -5 61 -7 116 -4 97 5 97 5 97 55 0 38 -3 47 -12 40 -7 -6 -51 -13 -98 -16
-47 -4 -96 -10 -110 -13 -14 -4 -22 -3 -18 1 4 4 3 16 -3 27 -7 13 -7 23 0 32
6 7 7 16 3 21 -4 4 3 6 15 3 13 -4 27 0 34 9 17 20 76 43 109 43 15 0 39 -9
54 -21 26 -20 26 -20 26 46 0 44 -4 67 -12 70 -7 2 -50 6 -96 8 -77 5 -84 4
-96 -16z"/>
<path d="M220 1069 c0 -4 -17 -13 -37 -20 -46 -15 -125 -92 -143 -139 -7 -19
-19 -42 -27 -51 -10 -12 -13 -60 -13 -195 0 -180 0 -180 43 -221 23 -22 68
-54 99 -71 59 -32 135 -47 131 -26 -1 6 24 20 56 31 53 18 59 19 68 4 9 -14
13 -14 27 -2 9 7 16 18 16 23 0 5 7 16 15 24 8 9 15 18 15 22 -1 16 -81 41
-152 47 -43 4 -78 10 -78 14 0 4 -15 12 -34 19 -76 28 -116 101 -116 216 0 59
5 76 34 129 44 78 79 101 141 92 24 -4 50 -13 56 -21 7 -9 31 -14 61 -14 40 0
49 -3 44 -15 -8 -23 10 -18 26 8 33 50 32 66 -8 103 -26 25 -40 32 -47 25 -16
-16 -36 -13 -64 9 -18 14 -39 20 -69 18 -24 -1 -44 -5 -44 -9z m205 -639 c-3
-5 -10 -10 -16 -10 -5 0 -9 5 -9 10 0 6 7 10 16 10 8 0 12 -4 9 -10z"/>
<path d="M265 920 c-12 -19 -18 -240 -7 -240 6 0 14 5 18 12 8 13 7 107 -2
150 -4 22 -1 27 18 30 12 2 24 10 26 19 3 18 -44 44 -53 29z"/>
<path d="M290 820 c0 -5 5 -10 11 -10 5 0 7 5 4 10 -3 6 -8 10 -11 10 -2 0 -4
-4 -4 -10z"/>
<path d="M150 743 c0 -43 5 -85 10 -93 11 -16 10 -21 13 103 2 48 -2 67 -10
67 -9 0 -13 -22 -13 -77z"/>
<path d="M1327 813 c-9 -15 6 -165 14 -151 12 18 11 158 0 158 -6 0 -12 -3
-14 -7z"/>
<path d="M1460 717 c0 -30 4 -46 10 -42 13 8 13 55 0 75 -7 11 -10 2 -10 -33z"/>
<path d="M1420 731 c0 -11 5 -23 10 -26 6 -4 10 5 10 19 0 14 -4 26 -10 26 -5
0 -10 -9 -10 -19z"/>
<path d="M1626 731 c-6 -9 -20 -11 -43 -8 -23 4 -33 2 -31 -5 4 -12 87 -16 89
-4 2 19 -8 29 -15 17z"/>
<path d="M228 640 c-3 -16 -1 -30 4 -30 4 0 8 14 8 30 0 17 -2 30 -4 30 -2 0
-6 -13 -8 -30z"/>
<path d="M1327 626 c-5 -14 10 -36 25 -36 4 0 8 11 8 25 0 27 -24 35 -33 11z"/>
<path d="M268 615 c-2 -3 -3 -18 0 -35 5 -34 22 -31 22 5 0 23 -12 39 -22 30z"/>
<path d="M1328 443 c-10 -2 -18 -13 -18 -24 0 -24 17 -25 22 -1 3 15 6 14 23
-5 21 -25 45 -30 45 -10 0 14 -35 48 -48 46 -4 -1 -15 -3 -24 -6z"/>
<path d="M425 328 c-5 -17 -11 -178 -6 -178 2 0 10 8 17 18 16 21 19 172 4
172 -6 0 -12 -6 -15 -12z"/>
<path d="M1467 250 c3 -11 7 -20 9 -20 2 0 4 9 4 20 0 11 -4 20 -9 20 -5 0 -7
-9 -4 -20z"/>
<path d="M23 163 c-15 -3 -23 -12 -23 -24 0 -18 6 -20 55 -18 30 1 58 -1 62
-4 3 -4 5 -32 4 -62 -2 -50 0 -55 18 -55 19 0 21 6 21 64 0 39 -5 67 -12 73
-13 9 -91 34 -99 32 -2 -1 -14 -4 -26 -6z"/>
<path d="M1465 121 c-3 -5 -1 -12 4 -15 5 -3 11 1 15 9 6 16 -9 21 -19 6z"/>
<path d="M1078 113 c12 -2 30 -2 40 0 9 3 -1 5 -23 4 -22 0 -30 -2 -17 -4z"/>
<path d="M1488 63 c-16 -2 -28 -7 -29 -11 0 -4 -2 -17 -5 -29 -3 -18 1 -23 16
-23 11 0 19 3 19 8 -4 24 7 27 106 24 101 -4 105 -3 105 17 0 20 -5 21 -92 20
-51 -1 -105 -4 -120 -6z"/>
</g>
</svg>
