<?xml version="1.0" encoding="UTF-8" standalone="no"?>
<svg
   version="1.0"
   width="148.000000pt"
   height="150.000000pt"
   viewBox="0 0 148.000000 150.000000"
   preserveAspectRatio="xMidYMid meet"
   id="svg54"
   sodipodi:docname="k.svg"
   inkscape:version="1.4 (e7c3feb1, 2024-10-09)"
   xmlns:inkscape="http://www.inkscape.org/namespaces/inkscape"
   xmlns:sodipodi="http://sodipodi.sourceforge.net/DTD/sodipodi-0.dtd"
   xmlns="http://www.w3.org/2000/svg"
   xmlns:svg="http://www.w3.org/2000/svg">
  <defs
     id="defs54" />
  <sodipodi:namedview
     id="namedview54"
     pagecolor="#ffffff"
     bordercolor="#000000"
     borderopacity="0.25"
     inkscape:showpageshadow="2"
     inkscape:pageopacity="0.0"
     inkscape:pagecheckerboard="0"
     inkscape:deskcolor="#d1d1d1"
     inkscape:document-units="pt"
     inkscape:zoom="2.08"
     inkscape:cx="18.75"
     inkscape:cy="139.66346"
     inkscape:current-layer="svg54" />
  <metadata
     id="metadata1">
Created by potrace 1.16, written by Peter Selinger 2001-2019
</metadata>
  <path
     d="m 60.8,11.6 c -4.4,1.8 -5.3,3.8 -3.3,6.7 2.2,3.2 1.9,6 -2.1,18.2 -1.9,6 -5.1,16.8 -6.9,24 -5.2,19.9 -6.2,23.6 -7.9,28.4 -2,5.6 -2,8.7 0,9.5 2.3,0.9 4.5,-0.7 6.9,-5 3.5,-6.3 6.1,-5.8 12.1,2.2 7.9,10.8 12.4,15.8 20.8,22.8 6.8,5.6 8.7,6.7 14.7,8.1 7.9,1.8 14.1,0.9 19,-2.7 3.1,-2.3 3.9,-6.4 1.7,-8.6 -1.8,-1.8 -4,-1.5 -8,1.3 -8.2,5.6 -16.1,1.8 -33.1,-15.8 C 61.9,87.5 58.8,80.8 64.8,79.4 c 5.9,-1.3 6.9,-1.8 11.9,-5.5 5,-3.8 9.3,-9.9 9.3,-13.4 0,-3.2 -3,-7.3 -6.1,-8.4 -4.1,-1.4 -9.5,0.1 -14.3,4.1 -4.2,3.4 -5,7.5 -1.3,6.3 8.1,-2.6 11.6,-1.1 9.7,4.1 -1.3,3.4 -4.5,6.4 -9.9,9.2 -4.4,2.3 -9.6,2.9 -10.6,1.1 -0.4,-0.5 1.4,-3.8 4.1,-7.1 4.7,-6 4.7,-6 2.4,-7.8 -2.4,-1.8 -2.4,-1.8 -0.8,-8.2 0.9,-3.4 3.8,-12.2 6.4,-19.3 5.2,-14.3 6.3,-20.5 4.2,-22.2 -2.4,-2 -5.3,-2.2 -9,-0.7 z"
     id="path4"
     style="fill:#000000;stroke:none;stroke-width:0.1" />
</svg>
