<?xml version="1.0" standalone="no"?>
<!DOCTYPE svg PUBLIC "-//W3C//DTD SVG 20010904//EN"
 "http://www.w3.org/TR/2001/REC-SVG-20010904/DTD/svg10.dtd">
<svg version="1.0" xmlns="http://www.w3.org/2000/svg"
 width="76.000000pt" height="114.000000pt" viewBox="0 0 76.000000 114.000000"
 preserveAspectRatio="xMidYMid meet">
<metadata>
Created by potrace 1.16, written by Peter Selinger 2001-2019
</metadata>
<g transform="translate(0.000000,114.000000) scale(0.100000,-0.100000)"
fill="#000000" stroke="none">
<path d="M0 1090 c0 -11 3 -20 8 -21 4 0 17 -2 30 -3 12 -2 22 1 22 5 0 8 52
19 62 12 5 -2 4 -12 -1 -21 -8 -14 -4 -17 25 -17 19 0 39 6 43 14 5 7 14 10
20 6 7 -4 19 -1 27 6 8 6 18 9 21 5 4 -4 2 -11 -6 -15 -9 -6 -5 -10 13 -13 22
-4 26 -2 21 12 -9 28 12 33 29 8 13 -19 16 -19 22 -5 7 18 64 24 64 7 0 -5 -9
-10 -21 -10 -11 0 -18 -4 -15 -9 7 -10 25 -9 44 2 6 5 16 6 21 3 4 -3 19 3 31
14 28 25 29 25 56 -1 22 -21 62 -20 49 0 -9 16 13 23 35 11 16 -9 18 -15 10
-30 -5 -10 -10 -25 -9 -32 0 -7 4 -3 9 9 8 19 15 22 39 17 19 -4 38 -1 52 10
23 16 23 16 -4 16 -15 0 -27 5 -27 11 0 8 15 10 45 7 34 -4 45 -2 45 8 0 12
-64 14 -380 14 -373 0 -380 0 -380 -20z m170 -14 c0 -11 -19 -15 -25 -6 -3 5
1 10 9 10 9 0 16 -2 16 -4z m485 -6 c-3 -5 -10 -10 -16 -10 -5 0 -9 5 -9 10 0
6 7 10 16 10 8 0 12 -4 9 -10z"/>
<path d="M735 1050 c-3 -5 1 -10 9 -10 9 0 16 5 16 10 0 6 -4 10 -9 10 -6 0
-13 -4 -16 -10z"/>
<path d="M5 943 c8 -56 9 -57 30 -50 16 7 21 47 6 47 -5 0 -12 11 -15 25 -12
47 -29 28 -21 -22z"/>
<path d="M190 962 c0 -14 11 -21 26 -15 8 3 11 9 8 14 -7 11 -34 12 -34 1z"/>
<path d="M280 960 c0 -5 5 -10 10 -10 6 0 10 5 10 10 0 6 -4 10 -10 10 -5 0
-10 -4 -10 -10z"/>
<path d="M80 949 c0 -5 5 -7 10 -4 6 3 10 8 10 11 0 2 -4 4 -10 4 -5 0 -10 -5
-10 -11z"/>
<path d="M645 950 c3 -5 11 -10 16 -10 6 0 7 5 4 10 -3 6 -11 10 -16 10 -6 0
-7 -4 -4 -10z"/>
<path d="M710 950 c0 -5 5 -10 10 -10 6 0 10 5 10 10 0 6 -4 10 -10 10 -5 0
-10 -4 -10 -10z"/>
<path d="M525 940 c-11 -4 -45 -38 -75 -75 -30 -37 -71 -86 -90 -109 -20 -22
-49 -61 -65 -86 -16 -25 -47 -64 -68 -88 -32 -36 -38 -49 -35 -80 2 -30 7 -37
23 -34 99 14 230 20 252 11 26 -10 26 -10 19 -112 -14 -197 -16 -182 27 -185
66 -6 71 5 64 151 -5 118 -4 130 14 148 12 12 33 19 57 19 46 0 76 19 70 46
-3 16 -13 20 -63 22 -33 2 -65 8 -73 14 -10 9 -12 48 -10 174 2 135 0 166 -12
178 -10 9 -22 11 -35 6z m-36 -191 c15 -43 14 -162 -1 -177 -12 -12 -143 -17
-172 -6 -29 11 -17 39 50 120 90 108 105 116 123 63z"/>
<path d="M146 925 c-3 -8 -1 -15 3 -15 5 0 11 7 15 15 3 8 1 15 -3 15 -5 0
-11 -7 -15 -15z"/>
<path d="M410 930 c0 -5 5 -10 10 -10 6 0 10 5 10 10 0 6 -4 10 -10 10 -5 0
-10 -4 -10 -10z"/>
<path d="M360 920 c0 -5 5 -10 10 -10 6 0 10 5 10 10 0 6 -4 10 -10 10 -5 0
-10 -4 -10 -10z"/>
<path d="M240 910 c0 -5 5 -10 11 -10 5 0 7 5 4 10 -3 6 -8 10 -11 10 -2 0 -4
-4 -4 -10z"/>
<path d="M285 869 c-4 -6 -5 -13 -2 -16 7 -7 27 6 27 18 0 12 -17 12 -25 -2z"/>
<path d="M345 850 c-3 -5 -1 -10 4 -10 6 0 11 5 11 10 0 6 -2 10 -4 10 -3 0
-8 -4 -11 -10z"/>
<path d="M60 830 c0 -5 5 -10 11 -10 5 0 7 5 4 10 -3 6 -8 10 -11 10 -2 0 -4
-4 -4 -10z"/>
<path d="M175 830 c-4 -6 -11 -7 -17 -4 -7 4 -8 2 -4 -5 6 -9 11 -9 22 0 14
11 18 19 10 19 -3 0 -8 -5 -11 -10z"/>
<path d="M140 794 c0 -8 5 -12 10 -9 6 4 8 11 5 16 -9 14 -15 11 -15 -7z"/>
<path d="M10 790 c0 -5 5 -10 10 -10 6 0 10 5 10 10 0 6 -4 10 -10 10 -5 0
-10 -4 -10 -10z"/>
<path d="M640 790 c0 -5 5 -10 11 -10 5 0 7 5 4 10 -3 6 -8 10 -11 10 -2 0 -4
-4 -4 -10z"/>
<path d="M190 756 c0 -9 5 -16 10 -16 6 0 10 4 10 9 0 6 -4 13 -10 16 -5 3
-10 -1 -10 -9z"/>
<path d="M160 699 c0 -5 5 -7 10 -4 6 3 10 8 10 11 0 2 -4 4 -10 4 -5 0 -10
-5 -10 -11z"/>
<path d="M645 630 c-3 -5 -1 -10 4 -10 6 0 11 5 11 10 0 6 -2 10 -4 10 -3 0
-8 -4 -11 -10z"/>
<path d="M50 585 c0 -8 4 -15 10 -15 5 0 7 7 4 15 -4 8 -8 15 -10 15 -2 0 -4
-7 -4 -15z"/>
<path d="M130 546 c0 -14 5 -26 10 -26 6 0 10 7 10 15 0 8 0 18 1 22 0 4 -4 9
-10 11 -6 2 -11 -8 -11 -22z"/>
<path d="M5 520 c-3 -6 -1 -10 6 -10 9 0 9 -4 -1 -15 -13 -16 -6 -35 15 -35
23 0 27 32 6 51 -12 11 -22 15 -26 9z"/>
<path d="M157 393 c-7 -11 10 -40 18 -31 4 4 3 14 -3 24 -5 9 -12 12 -15 7z"/>
<path d="M645 370 c-3 -5 -1 -10 4 -10 6 0 11 5 11 10 0 6 -2 10 -4 10 -3 0
-8 -4 -11 -10z"/>
<path d="M200 325 c-11 -13 -10 -14 4 -9 9 3 16 10 16 15 0 13 -6 11 -20 -6z"/>
<path d="M290 290 c0 -5 5 -10 10 -10 6 0 10 5 10 10 0 6 -4 10 -10 10 -5 0
-10 -4 -10 -10z"/>
<path d="M120 286 c0 -2 9 -6 20 -9 11 -3 20 -1 20 4 0 5 -9 9 -20 9 -11 0
-20 -2 -20 -4z"/>
<path d="M700 180 c0 -5 5 -10 10 -10 6 0 10 5 10 10 0 6 -4 10 -10 10 -5 0
-10 -4 -10 -10z"/>
<path d="M275 160 c-3 -5 -1 -10 4 -10 6 0 11 5 11 10 0 6 -2 10 -4 10 -3 0
-8 -4 -11 -10z"/>
<path d="M318 123 c-6 -7 -17 -13 -24 -13 -21 0 -17 -15 13 -49 20 -23 36 -31
60 -31 31 0 32 1 30 43 -2 23 -6 48 -10 54 -10 16 -55 13 -69 -4z m52 -23 c13
-9 13 -11 0 -20 -19 -13 -34 -8 -38 13 -4 19 15 22 38 7z"/>
<path d="M135 110 c-3 -6 1 -7 9 -4 18 7 21 14 7 14 -6 0 -13 -4 -16 -10z"/>
<path d="M170 96 c0 -9 5 -16 10 -16 6 0 10 4 10 9 0 6 -4 13 -10 16 -5 3 -10
-1 -10 -9z"/>
<path d="M215 100 c3 -5 10 -10 16 -10 5 0 9 5 9 10 0 6 -7 10 -16 10 -8 0
-12 -4 -9 -10z"/>
<path d="M530 100 c0 -5 5 -10 11 -10 5 0 7 5 4 10 -3 6 -8 10 -11 10 -2 0 -4
-4 -4 -10z"/>
<path d="M670 80 c0 -13 -8 -24 -20 -27 -23 -6 -27 -23 -5 -23 7 0 18 7 23 16
6 11 11 13 16 5 4 -6 17 -11 28 -11 12 0 18 3 14 7 -4 4 -15 8 -24 8 -10 0
-16 7 -14 17 1 9 -2 19 -8 23 -6 3 -10 -3 -10 -15z"/>
<path d="M437 53 c-17 -16 -3 -23 43 -23 49 0 66 12 34 24 -21 8 -69 8 -77 -1z"/>
<path d="M596 53 c-11 -11 -6 -23 9 -23 8 0 15 4 15 9 0 13 -16 22 -24 14z"/>
<path d="M740 50 c0 -5 5 -10 10 -10 6 0 10 5 10 10 0 6 -4 10 -10 10 -5 0
-10 -4 -10 -10z"/>
<path d="M85 40 c3 -5 19 -10 35 -10 16 0 32 5 35 10 4 6 -10 10 -35 10 -25 0
-39 -4 -35 -10z"/>
<path d="M248 43 c7 -3 16 -2 19 1 4 3 -2 6 -13 5 -11 0 -14 -3 -6 -6z"/>
</g>
</svg>
