<?xml version="1.0" encoding="UTF-8" standalone="no"?>
<svg
   version="1.0"
   width="78.000000pt"
   height="92.000000pt"
   viewBox="0 0 78.000000 92.000000"
   preserveAspectRatio="xMidYMid meet"
   id="svg7"
   sodipodi:docname="a.svg"
   inkscape:version="1.4 (e7c3feb1, 2024-10-09)"
   xmlns:inkscape="http://www.inkscape.org/namespaces/inkscape"
   xmlns:sodipodi="http://sodipodi.sourceforge.net/DTD/sodipodi-0.dtd"
   xmlns="http://www.w3.org/2000/svg"
   xmlns:svg="http://www.w3.org/2000/svg">
  <defs
     id="defs7" />
  <sodipodi:namedview
     id="namedview7"
     pagecolor="#ffffff"
     bordercolor="#000000"
     borderopacity="0.25"
     inkscape:showpageshadow="2"
     inkscape:pageopacity="0.0"
     inkscape:pagecheckerboard="0"
     inkscape:deskcolor="#d1d1d1"
     inkscape:document-units="pt"
     inkscape:zoom="3.3913043"
     inkscape:cx="21.525641"
     inkscape:cy="42.903846"
     inkscape:current-layer="svg7" />
  <metadata
     id="metadata1">
Created by potrace 1.16, written by Peter Selinger 2001-2019
</metadata>
  <path
     d="M 46.710577,18.436538 C 42.37051,20.719916 38.9,23 32.3,29.3 16.9,44.1 10.2,59.1 15.9,66.1 c 1.509052,1.635388 2.408233,2.143621 5.6,0.6 C 26,64.6 34.3,56.9 38.2,51.2 39.8,48.9 41.5,47 42,47 c 1.7,0 2,3.8 0.5,8 -2,5.7 -1.9,9.3 0.3,11.3 3.7,3.3 9.6,1.4 15.1,-4.8 3.4,-4 3.7,-5.3 1.8,-7.9 C 58.6,52 58,51.9 56.1,53 53.5,54.3 51,53.7 51,51.7 51,51 52.6,46.6 54.6,42 61.3,26 62,23.9 62,20.2 62.036006,9.3072271 52.122543,15.589217 46.710577,18.436538 Z M 50,28.4 c 0,0.6 -1.7,4.4 -3.7,8.3 -2.501966,4.927793 -10.057528,11.922234 -15,15 -4,2.3 -5.616226,2.5848 -6.390948,1.742802 C 24.134329,52.600804 24.1,50.5 27.4,44.3 c 3.7,-7.1 9,-12.3 16,-16.1 3.8,-2.1 6.6,-2 6.6,0.2 z"
     id="path1"
     style="fill:#000000;stroke:none;stroke-width:0.1"
     sodipodi:nodetypes="sccccscccccscssscczccs" />
</svg>
